<svg width="195" height="158" viewBox="0 0 195 158" fill="none" xmlns="http://www.w3.org/2000/svg">
<path fill-rule="evenodd" clip-rule="evenodd" d="M26.3028 0.0920751H0.0920751V26.3028H23.5874L26.3028 23.5874V0.0920751ZM29.0907 26.3028L26.4102 23.6224V0.0920751H52.621V26.3028H29.0907ZM26.4102 29.0507L29.0507 26.4102H52.621V52.621H26.4102V29.0507ZM23.6273 26.4102L26.3028 29.0857V52.621H0.0920751V26.4102H23.6273ZM0 0V26.3182V26.3949V52.6363V52.713V78.9544V79.0311V105.273V105.349V131.591V131.667V157.986H26.3182H26.3949H52.6363H52.713H78.9544H79.0311H105.273H105.349H131.591H131.667H157.909H157.986H184.227H184.304H210.545H210.622H236.863H236.94H263.258L263.258 131.667V105.349V105.273V78.9544V52.713V26.3949V26.3182V0H236.94H236.863H210.622H210.545H184.304H184.227H157.986H157.909H131.667H131.591H105.349H105.273H79.0311H78.9544H52.713H52.6363H26.3949H26.3182H0ZM52.7283 0.0920751H78.9391V26.3028H52.7283V0.0920751ZM105.257 0.0920751H79.0465V26.3028H105.257V0.0920751ZM105.365 0.0920751H131.575V26.3028H105.365V0.0920751ZM157.893 0.0920751H131.683V26.3028H157.893V0.0920751ZM158.001 0.0920751H184.212V26.3028H158.001V0.0920751ZM210.53 0.0920751H184.319V26.3028H210.53V0.0920751ZM210.637 0.0920751H236.848V26.3028H210.637V0.0920751ZM263.166 0.0920751H236.955V26.3028H263.166V0.0920751ZM52.7283 26.4102H78.9391V52.621H52.7283V26.4102ZM105.257 26.4102H79.0465V52.621H102.621L105.257 49.9845V26.4102ZM107.959 52.621L105.365 50.0267V26.4102H131.575V52.621H107.959ZM105.365 55.4479L108.075 52.7373L108.066 52.7283H131.575V78.939H105.365V55.4479ZM102.513 52.7283L102.504 52.7373L105.257 55.4901V78.939H79.0465V52.7283H102.513ZM157.893 26.4102H131.683V52.621H157.893V26.4102ZM158.001 26.4102H184.212V52.621H158.001V26.4102ZM210.53 26.4102H184.319V52.621H210.53V26.4102ZM210.637 26.4102H236.848V45.3493L236.803 45.3937L229.576 52.621H210.637V26.4102ZM229.469 52.7283H210.637V76.3568L210.725 76.2688L213.395 78.939H236.848V60.1254L236.803 60.0809L229.531 52.8084L229.46 52.7373L229.469 52.7283ZM236.848 59.9832L229.602 52.7373L229.611 52.7283H234.098L234.089 52.7373L236.848 55.4961V59.9832ZM236.955 60.0712V78.939H263.166V52.7283H244.28L244.289 52.7373L244.218 52.8084L236.955 60.0712ZM244.138 52.7283L244.147 52.7373L236.955 59.929V55.442L239.66 52.7373L239.651 52.7283H244.138ZM244.173 52.621H263.166V26.4102H236.955V45.4035L244.173 52.621ZM236.955 45.5457L244.031 52.621H239.544L236.955 50.0327V45.5457ZM236.848 45.4915L229.718 52.621H234.206L236.848 49.9786V45.4915ZM210.637 81.7516L210.725 81.8397L213.511 79.0543L213.503 79.0465H236.848V105.257H210.637V81.7516ZM207.948 79.0465L207.94 79.0543L210.53 81.6442V105.257H184.319V79.0465H207.948ZM210.53 76.4643L208.055 78.939H184.319V52.7283H210.53V76.4643ZM0.0920751 52.7283H26.3028V78.939H0.0920751V52.7283ZM52.621 52.7283H26.4102V78.939H52.621V52.7283ZM52.7283 52.7283H78.9391V78.939H52.7283V52.7283ZM157.894 52.7283H131.683V78.939H157.894V52.7283ZM158.001 52.7283H184.212V78.939H158.001V52.7283ZM0.0920751 79.0465H26.3028V105.257H0.0920751V79.0465ZM52.621 79.0465H26.4102V105.257H45.3788L45.3447 105.223L45.4158 105.152L52.621 97.9469V79.0465ZM52.621 98.0891L45.4869 105.223L45.521 105.257H50.0081L49.974 105.223L52.621 102.576V98.0891ZM52.7283 102.469V97.9817L52.7594 97.9507L60.0318 105.223L59.9978 105.257H55.5107L55.5448 105.223L52.7594 102.438L52.7283 102.469ZM52.7283 107.977L52.7594 108.009L55.4033 105.365H59.8903L52.7594 112.496L52.7283 112.465V107.977ZM50.1155 105.365L52.621 107.87V112.357L45.6285 105.365H50.1155ZM45.4862 105.365H26.4102V131.575H52.621V112.499L45.4862 105.365ZM52.7283 112.607V131.575H78.9391V105.365H60.0325L52.8305 112.567L52.7594 112.638L52.7283 112.607ZM60.14 105.257H78.9391V79.0465H52.7283V97.8395L52.7594 97.8084L52.8305 97.8796L60.103 105.152L60.1741 105.223L60.14 105.257ZM105.257 79.0465H79.0465V105.257H105.257V79.0465ZM105.365 79.0465H131.575V105.257H105.365V79.0465ZM157.893 79.0465H131.683V105.257H157.893V79.0465ZM158.001 79.0465H184.212V105.257H158.001V79.0465ZM263.166 79.0465H236.955V105.257H263.166V79.0465ZM0.0920751 105.365H26.3028V131.575H0.0920751V105.365ZM105.257 105.365H79.0465V131.575H105.257V105.365ZM105.365 105.365H131.575V131.575H105.365V105.365ZM157.893 105.365H131.683V131.575H157.893V105.365ZM158.001 105.365H184.212V131.575H158.001V105.365ZM210.53 105.365H184.319V131.575H210.53V105.365ZM210.637 105.365H236.848V131.575H210.637V105.365ZM263.166 105.365H236.955V131.575H263.166V105.365ZM0.0920751 131.683H26.3028V157.894H0.0920751V131.683ZM52.621 131.683H26.4102V157.894H52.621V131.683ZM52.7283 131.683H78.9391V157.894H52.7283V131.683ZM105.257 131.683H79.0465V157.894H105.257V131.683ZM105.365 131.683H131.575V157.894H105.365V131.683ZM157.893 131.683H131.683V157.894H157.893V131.683ZM158.001 131.683H184.212V157.894H158.001V131.683ZM210.53 131.683H184.319V157.894H210.53V131.683ZM210.637 131.683H236.848V157.894H210.637V131.683ZM263.166 131.683H236.955V157.894H263.166V131.683Z" fill="url(#paint0_radial_1_11920)"/>
<defs>
<radialGradient id="paint0_radial_1_11920" cx="0" cy="0" r="1" gradientUnits="userSpaceOnUse" gradientTransform="translate(280 -45.5) rotate(127.07) scale(287.002 478.243)">
<stop offset="0.211538" stop-color="#4BFF8F"/>
<stop offset="1" stop-color="#222222"/>
</radialGradient>
</defs>
</svg>
