<svg width="186" height="212" viewBox="0 0 186 212" fill="none" xmlns="http://www.w3.org/2000/svg">
<path d="M270.889 -22V22.8945L256.06 8.06519V-22H255.788L255.834 -21.9537V7.83823L241.005 -6.99112V-22H240.779V-6.99112L225.949 7.83823V-22H135.389V-6.99112L120.56 7.83823V-22H120.288L105.505 -7.21695V-22H105.279V-6.99112L90.4493 7.83823V-22H0V23.2796H44.8949L30.0654 38.1089H0V38.3811L0.0462962 38.3348H29.8385L15.009 53.1641H0V53.3899H15.009L29.8385 68.2193H0V68.4451H29.8385L15.009 83.2745H0V83.5003H14.7832L0 98.2845V98.5566H29.8385L15.009 113.386H0V248.999H90.447V219.161L105.276 233.99V248.999H105.502V233.99L120.332 219.161V248.953L120.285 248.999H120.558V218.935L135.387 204.105V249H225.947V233.991L225.993 233.945L225.947 233.899V219.162L240.776 233.991V249H241.002V234.217L255.785 249H256.058V219.162L270.887 233.991V249H271V113.387H226.105L240.935 98.5577H270.999V98.2856L270.953 98.3319H241.16L255.99 83.5026H270.999V83.2767H255.99L241.16 68.4474H270.999V68.2215H241.16L255.99 53.3922H270.999V53.1664H256.216L270.999 38.3833V38.1112H241.16L255.99 23.2818H270.999V-22H270.886H270.889ZM240.891 -6.78448L255.833 8.15778V23.0537H225.947V8.15778L240.889 -6.78448H240.891ZM256.059 8.38361L270.729 23.0537H256.059V8.38361ZM165.659 233.832L150.83 219.003H180.622L195.451 233.832H165.659ZM105.663 203.72L120.492 188.891H150.51L165.34 203.72H105.663ZM75.2314 233.832H45.4392L60.2686 219.003H90.0608L75.2314 233.832ZM15.1682 143.658L29.9977 128.828V158.62L15.1682 173.45V143.658ZM44.8938 113.613L30.2235 128.283V113.613H44.8938ZM45.28 83.3422V53.3244L60.1094 38.4951V98.3985L45.28 113.228V83.4359L45.3263 83.3896L45.28 83.3433V83.3422ZM90.062 7.99857H60.2698L45.4403 -6.83078H75.2325L90.062 7.99857ZM150.604 -6.83078H180.396L165.567 7.99857H135.774L150.604 -6.83078ZM225.789 128.669L240.618 143.499H210.826L195.997 128.669H225.789ZM210.621 143.611L195.678 158.554H180.782V128.668H195.678L210.621 143.61V143.611ZM225.723 218.936V233.673L195.998 203.947H225.723V218.843L225.677 218.89L225.723 218.936ZM165.66 203.72L150.718 188.778L165.66 173.836H180.556V203.722H165.66V203.72ZM150.511 188.665H120.719L135.549 173.836H165.341L150.511 188.665ZM30.1592 218.777L15.3297 203.947H75.0067L60.1772 218.777H30.1592ZM45.0553 173.995V203.72H15.3297L45.0553 173.995ZM135.614 8.38361L150.284 23.0537H135.614V8.38361ZM195.677 8.22441L210.507 23.0537H150.83L165.659 8.22441H195.677ZM225.722 53.3244V83.3422L210.893 98.1716V38.2681L225.722 23.4388V53.2307L225.676 53.277L225.722 53.3233V53.3244ZM165.885 173.609L180.555 158.939V173.609H165.885ZM105.663 173.609L120.492 158.78H135.614H180.396L165.567 173.609H105.663ZM75.3917 203.72V189.05L90.062 203.72H75.3917ZM90.2212 203.946V218.616L75.5509 203.946H90.2212ZM75.1659 203.72H45.28V188.824L60.2224 173.882L75.1647 188.824V203.72H75.1659ZM75.3917 53.3244L90.2212 38.4951V68.2204V98.1716L75.3917 83.3422V53.3244ZM105.391 23.3259L105.437 23.2796H150.51L165.34 38.1089H105.436L90.6062 23.2796H105.343L105.389 23.3259H105.391ZM195.838 113.227V83.4348L210.667 68.6055V98.3974L195.838 113.227ZM60.1106 173.674L45.2811 188.504V128.826L60.1106 143.656V173.673V173.674ZM59.9513 113.612L45.2811 128.282V113.612H59.9513ZM45.3285 128.554L60.1117 113.771V143.337L45.3285 128.554ZM90.4493 113.386V83.6606L105.279 98.49V128.508L90.4493 143.337V113.386ZM105.12 38.1078H90.4493V23.4377L105.12 38.1078ZM90.4493 38.3336H105.345L120.288 53.2759L105.345 68.2182H90.4493V38.3325V38.3336ZM195.613 83.3411L180.783 98.1704V53.3233L180.83 53.277L180.783 53.2307V38.494L195.613 53.3233V83.3411ZM195.613 113.227L180.83 98.4437L195.613 83.6606V113.227ZM180.558 158.393L165.728 143.564V83.6606L180.511 98.4437L180.558 98.49V113.386V158.392V158.393ZM120.494 53.3899H150.512L165.342 68.2193H150.606L150.56 68.173L150.514 68.2193H135.392H105.666L120.496 53.3899H120.494ZM165.502 113.227L150.673 98.3974V68.6055L165.502 83.4348V113.227ZM120.561 83.4348L135.39 68.6055V83.3411L135.344 83.3874L135.39 83.4337V113.498V128.507L120.561 143.336V83.4325V83.4348ZM135.231 68.4451L120.561 83.1152V68.4451H135.231ZM135.39 128.827V158.553H105.665L135.39 128.827ZM135.616 68.4451H150.287L135.616 83.1152V68.4451ZM150.446 68.6043V98.1704L135.663 83.3874L150.446 68.6043ZM150.832 68.4451H165.568L165.614 68.4914L165.66 68.4451H180.556V98.1704L150.831 68.4451H150.832ZM165.887 68.2193L180.558 53.5492V68.2193H165.887ZM165.614 68.173L150.831 53.3899H180.397L165.614 68.173ZM120.334 68.4451V83.3411L105.392 98.2833L90.4493 83.3411V68.4451H120.335H120.334ZM105.505 98.49L120.334 83.6606V113.453L105.505 128.282V98.49ZM120.334 113.771V143.563L105.505 158.392V128.6L120.334 113.771ZM105.279 158.392L90.4956 143.609L105.279 128.826V158.392ZM105.12 158.551H90.4493V143.881L105.12 158.551ZM135.616 113.498V83.6595L150.446 98.4889V128.507L135.616 143.336V113.498ZM150.672 98.7147L165.501 113.544V143.336L150.672 128.507V98.7147ZM180.558 23.2773V53.0026L150.832 23.2773H180.558ZM180.398 53.163H150.606L135.777 38.3336H165.569L180.398 53.163ZM135.457 38.3336L150.287 53.163H120.494L105.665 38.3336H135.457ZM135.616 143.657L150.559 128.714L165.501 143.657V158.553H135.615V143.657H135.616ZM165.728 143.882L180.398 158.553H165.728V143.882ZM180.783 98.7158L195.454 113.386H180.783V98.7158ZM210.669 68.2848L195.84 83.1141V53.3222L210.669 38.4928V68.2848ZM195.727 53.1167L180.784 38.1744V23.2785H210.67V38.1744L195.728 53.1167H195.727ZM90.2246 37.9486L75.5543 23.2785H90.2246V37.9486ZM75.3951 23.4388L90.1783 38.2218L75.3951 53.0049V23.4388ZM60.3398 173.674V143.882L75.1693 158.712V188.504L60.3398 173.674ZM75.1693 158.393L60.3398 143.564V113.772L75.1693 128.601V158.393ZM60.499 113.612H90.2246V143.337L60.499 113.612ZM105.346 158.778L105.393 158.825L105.439 158.778H120.175L90.4493 188.504V158.778H105.345H105.346ZM196 113.386L225.726 83.6606V113.386H196ZM210.896 37.9486V23.2785H225.566L210.896 37.9486ZM150.561 23.0063L135.778 8.22327H165.344L150.561 23.0063ZM75.5554 23.0526L90.2257 8.38249V23.0526H75.5554ZM75.2833 23.0063L60.5001 8.22327H90.0665L75.2833 23.0063ZM75.0112 23.2785L45.2856 53.0038V23.2785H75.0112ZM75.1704 23.4377V53.2296L60.3409 68.0589V38.267L75.1704 23.4377ZM60.3409 68.3785L75.1704 53.5492V83.3411L60.3409 98.1704V68.3785ZM75.2833 83.5466L90.2257 98.4889V113.385H60.3398V98.4889L75.2822 83.5466H75.2833ZM60.1151 113.385H45.4448L60.1151 98.7147V113.385ZM75.2833 203.99L90.0665 218.773H60.5001L75.2833 203.99ZM75.3962 188.728V128.826L90.1794 143.609L90.2257 143.656V158.777V188.728L90.1794 188.775L90.2257 188.821V203.558L75.3962 188.728ZM90.6119 188.662L105.441 173.833H135.234L120.404 188.662H90.6119ZM120.178 188.888L105.395 203.671L90.6119 188.888H120.178ZM180.787 203.717V173.992L210.512 203.717H180.787ZM180.946 173.831H210.738L225.568 188.661H195.775L180.946 173.831ZM180.946 173.606L195.729 158.822L210.512 173.606H180.946ZM180.787 173.446V158.776H195.457L180.787 173.446ZM180.787 128.439V113.769L195.457 128.439H180.787ZM225.722 -7.05774H211.052L225.722 -21.7279V-7.05774ZM225.722 -6.8319V23.0537H210.826L195.884 8.11149L210.826 -6.83078H225.722V-6.8319ZM195.677 7.99744H165.885L180.714 -6.8319H210.507L195.677 7.99744ZM90.447 23.0526V8.38249L105.117 23.0526H90.447ZM45.1207 -6.8319L59.9502 7.99744H30.158L15.3286 -6.8319H45.1207ZM30.158 8.22327H60.1761L75.0055 23.0526H15.3286L30.158 8.22327ZM45.0541 113.772V128.509L45.0078 128.555L45.0541 128.601V173.674L30.2247 188.504V128.6L45.0541 113.771V113.772ZM29.9988 158.939V188.731L15.1694 203.56V173.768L29.9988 158.939ZM14.9435 203.56L0.159214 188.778L14.9424 173.995V203.561L14.9435 203.56ZM29.9525 218.889L15.0101 233.831H0.112918V203.945H15.009L29.9514 218.887L29.9525 218.889ZM30.1592 219.001H59.9513L45.1219 233.831H15.3286L30.158 219.001H30.1592ZM90.4481 189.05L105.118 203.72H90.4481V189.05ZM135.615 204.105L150.285 218.776H135.615V204.105ZM135.774 203.946H180.556H195.678L210.508 218.776H150.605L135.776 203.946H135.774ZM180.941 219.001H210.734L225.563 233.831H195.771L180.941 219.001ZM225.563 234.057L210.78 248.84L195.997 234.057H225.563ZM240.938 203.719L240.892 203.673L240.845 203.719H210.827L195.998 188.89H255.902L270.731 203.719H240.939H240.938ZM225.883 188.664L211.053 173.835H240.845L255.675 188.664H225.883ZM240.845 173.609H210.827L195.998 158.78H255.675L240.845 173.609ZM195.998 158.554L210.827 143.724H240.845L255.675 158.554H195.997H195.998ZM241.165 143.724H270.731L255.948 158.507L241.165 143.724ZM240.939 143.499L226.11 128.669H255.902L270.731 143.499H240.939ZM195.772 128.443L180.943 113.614H195.679L195.726 113.66L195.772 113.614H240.845L255.675 128.443H195.772ZM210.735 -7.05661H150.831L165.659 -21.8871H225.563L210.734 -7.05774L210.735 -7.05661ZM165.34 -21.8871L135.614 7.83823V-21.8871H165.34ZM135.388 8.06406L135.342 8.11036L135.388 8.15665V23.0526H105.663L135.388 -6.67269V8.06406ZM120.333 -21.7279V8.06406L105.503 22.8934V-6.8974L120.333 -21.7279ZM105.278 -6.67269V22.8934L90.4944 8.11036L105.278 -6.67269ZM90.2212 -21.8871V7.83823L60.4956 -21.8871H90.2212ZM60.1761 -21.8871L75.0055 -7.05774H15.1027L0.272131 -21.8871H60.1749H60.1761ZM14.7832 -7.05774H0.112918V-21.7279L14.7832 -7.05774ZM0.112918 -6.8319H15.009L29.9514 8.11036L15.009 23.0526H0.112918V-6.8319ZM45.0541 23.4388V38.1089H30.3839L45.0541 23.4388ZM30.158 38.3348H45.0541V68.2204H30.158L30.1117 68.1741L15.2156 53.2782L30.158 38.3359V38.3348ZM45.0541 68.4463V83.1164L30.3839 68.4463H45.0541ZM30.1117 68.4925L44.8949 83.2756H15.3286L30.1117 68.4925ZM0.272131 98.3319L15.1016 83.5026H44.8938L30.0643 98.3319H0.272131ZM45.0541 83.6618V113.387H15.3286L45.0541 83.6618ZM29.9988 113.613V128.509L15.0564 143.451L0.112918 128.509V113.613H29.9988ZM0.112918 128.828L14.9424 143.658V173.676L0.112918 188.505V128.827V128.828ZM14.7832 203.72H0.112918V189.05L14.7832 203.72ZM0.112918 234.058H14.7832L0.112918 248.728V234.058ZM15.1027 234.058H75.0055L60.1761 248.887H0.272131L15.1016 234.058H15.1027ZM60.4956 248.887L90.2212 219.162V248.887H60.4956ZM105.391 233.784L90.4944 218.889L90.4481 218.842V203.946H105.344L105.391 203.993L105.437 203.946H120.333V218.842L105.391 233.784ZM120.559 203.946H135.229L120.559 218.616V203.946ZM135.614 219.001H150.51L165.453 233.944L150.51 248.886H135.614V219V219.001ZM150.83 248.887L165.659 234.058H195.677L210.507 248.887H150.829H150.83ZM211.052 248.887L225.722 234.217V248.887H211.052ZM225.948 203.946H240.618L225.948 218.616V203.946ZM225.994 218.889L240.778 204.105V233.672L225.994 218.889ZM255.833 248.727L241.003 233.897V204.105L255.833 218.935V248.727ZM270.888 233.672L241.163 203.946H270.888V233.672ZM270.888 203.561L256.218 188.891H270.888V203.561ZM255.992 188.665L241.05 173.723L255.992 158.781H270.888V188.666H255.992V188.665ZM270.888 158.554H256.218L270.888 143.884V158.554ZM241.163 113.613H270.888V143.338L241.163 113.613ZM225.947 113.227V98.5566H240.617L225.947 113.227ZM240.843 98.3308H225.947V68.4451H240.843L240.889 68.4914L255.785 83.3874L240.843 98.3296V98.3308ZM225.947 68.2193V53.5492L240.617 68.2193H225.947ZM240.889 68.173L226.106 53.3899H255.673L240.889 68.173ZM270.728 38.3348L255.898 53.1641H226.106L240.936 38.3348H270.728ZM225.946 53.0049V23.2796H255.671L225.946 53.0049Z" fill="url(#paint0_linear_1_12038)"/>
<defs>
<linearGradient id="paint0_linear_1_12038" x1="238.5" y1="-16" x2="116" y2="149" gradientUnits="userSpaceOnUse">
<stop stop-color="#4BFF8F"/>
<stop offset="1" stop-color="#222222" stop-opacity="0"/>
</linearGradient>
</defs>
</svg>
