<svg width="461" height="717" viewBox="0 0 461 717" fill="none" xmlns="http://www.w3.org/2000/svg">
<g filter="url(#filter0_d_1421_3856)">
<path d="M21.3008 574.802L21.6721 541.924L214.454 654.282C225.027 660.444 238.095 660.449 248.672 654.296L439.573 543.238V573.235C439.573 578.651 436.653 583.647 431.934 586.305L247.35 690.257C236.619 696.3 223.503 696.259 212.811 690.149L26.3389 583.597C23.188 581.797 21.2598 578.431 21.3008 574.802Z" fill="#101010"/>
<path d="M21.3008 574.802L21.6721 541.924L214.454 654.282C225.027 660.444 238.095 660.449 248.672 654.296L439.573 543.238V573.235C439.573 578.651 436.653 583.647 431.934 586.305L247.35 690.257C236.619 696.3 223.503 696.259 212.811 690.149L26.3389 583.597C23.188 581.797 21.2598 578.431 21.3008 574.802Z" fill="url(#paint0_linear_1421_3856)"/>
<path d="M21.3008 574.802L21.6721 541.924L214.454 654.282C225.027 660.444 238.095 660.449 248.672 654.296L439.573 543.238V573.235C439.573 578.651 436.653 583.647 431.934 586.305L247.35 690.257C236.619 696.3 223.503 696.259 212.811 690.149L26.3389 583.597C23.188 581.797 21.2598 578.431 21.3008 574.802Z" stroke="#404040"/>
</g>
<path d="M247.351 421.735L436.294 530.16C442.31 533.612 442.324 542.286 436.319 545.757L249.456 653.777C238.988 659.828 226.094 659.865 215.592 653.873L25.603 545.482C19.5464 542.027 19.5503 533.294 25.61 529.844L215.592 421.681C225.441 416.073 237.521 416.094 247.351 421.735Z" fill="#131313" stroke="#404040"/>
<path d="M39.682 576.689L40.6858 577.269L41.5272 579.033L41.7486 579.502L43.0034 582.152L41.9996 581.573L41.1729 579.817L40.9663 579.374L39.682 576.689ZM43.3134 577.15C43.3134 578.07 43.1695 578.782 42.8816 579.287C42.5938 579.791 42.1989 580.08 41.697 580.154C41.1951 580.228 40.6218 580.079 39.9772 579.706C39.3326 579.334 38.7594 578.821 38.2575 578.168C37.7556 577.515 37.3607 576.77 37.0729 575.933C36.785 575.096 36.6411 574.218 36.6411 573.297C36.6411 572.377 36.785 571.664 37.0729 571.16C37.3607 570.656 37.7556 570.367 38.2575 570.293C38.7594 570.219 39.3326 570.368 39.9772 570.74C40.6218 571.113 41.1951 571.625 41.697 572.279C42.1989 572.932 42.5938 573.677 42.8816 574.514C43.1695 575.351 43.3134 576.229 43.3134 577.15ZM42.4277 576.638C42.4277 575.883 42.3182 575.182 42.0992 574.535C41.8827 573.89 41.5887 573.327 41.2172 572.846C40.8482 572.365 40.4348 571.993 39.9772 571.729C39.5196 571.465 39.1051 571.359 38.7336 571.412C38.3645 571.466 38.0705 571.689 37.8515 572.083C37.635 572.478 37.5268 573.053 37.5268 573.809C37.5268 574.564 37.635 575.265 37.8515 575.91C38.0705 576.556 38.3645 577.119 38.7336 577.599C39.1051 578.081 39.5196 578.454 39.9772 578.718C40.4348 578.982 40.8482 579.087 41.2172 579.033C41.5887 578.981 41.8827 578.757 42.0992 578.362C42.3182 577.968 42.4277 577.394 42.4277 576.638ZM48.3066 581.72L48.3066 577.851L49.1775 578.353L49.1775 584.899L48.3066 584.396L48.3066 583.288L48.2475 583.254C48.1147 583.51 47.908 583.673 47.6275 583.744C47.3471 583.812 46.9928 583.723 46.5647 583.476C46.2104 583.271 45.8955 583 45.6199 582.662C45.3444 582.321 45.1279 581.923 44.9704 581.468C44.813 581.011 44.7342 580.504 44.7342 579.947L44.7342 575.788L45.6052 576.291L45.6052 580.382C45.6052 580.859 45.7208 581.307 45.9521 581.724C46.1858 582.143 46.4835 582.457 46.8452 582.666C47.0617 582.791 47.2819 582.854 47.5057 582.856C47.7321 582.858 47.9215 582.772 48.0741 582.596C48.2291 582.421 48.3066 582.129 48.3066 581.72ZM52.4408 586.936C52.0816 586.729 51.7556 586.463 51.4628 586.137C51.1701 585.809 50.9376 585.446 50.7653 585.049C50.5931 584.648 50.507 584.235 50.507 583.808C50.507 583.433 50.571 583.166 50.6989 583.007C50.8268 582.845 50.9978 582.759 51.2119 582.75C51.4259 582.74 51.6621 582.777 51.9204 582.86C52.1812 582.943 52.4433 583.04 52.7065 583.152C53.051 583.3 53.3302 583.423 53.5442 583.521C53.7608 583.617 53.9182 583.661 54.0166 583.653C54.1175 583.646 54.1679 583.561 54.1679 583.399L54.1679 583.365C54.1679 582.945 54.0683 582.561 53.869 582.213C53.6722 581.866 53.3733 581.577 52.9722 581.345C52.5564 581.105 52.2304 581.022 51.9943 581.096C51.7581 581.17 51.592 581.299 51.496 581.482L50.6694 580.664C50.817 580.351 51.0138 580.155 51.2599 580.076C51.5083 579.995 51.779 579.995 52.0718 580.076C52.367 580.155 52.6573 580.277 52.9427 580.442C53.1248 580.547 53.3339 580.693 53.5701 580.881C53.8087 581.067 54.0388 581.301 54.2602 581.582C54.4841 581.865 54.6698 582.203 54.8175 582.598C54.9651 582.993 55.0389 583.451 55.0389 583.97L55.0389 588.283L54.1679 587.78L54.1679 586.894L54.1236 586.868C54.0646 586.976 53.9662 587.071 53.8284 587.154C53.6906 587.236 53.5073 587.268 53.2785 587.25C53.0497 587.231 52.7705 587.127 52.4408 586.936ZM52.5737 586.11C52.9181 586.308 53.2084 586.398 53.4446 586.378C53.6833 586.36 53.8629 586.262 53.9834 586.084C54.1064 585.908 54.1679 585.683 54.1679 585.411L54.1679 584.49C54.131 584.52 54.0498 584.52 53.9244 584.49C53.8013 584.459 53.6587 584.412 53.4963 584.35C53.3364 584.286 53.1801 584.221 53.0276 584.156C52.8775 584.089 52.7557 584.036 52.6622 583.996C52.4359 583.899 52.2243 583.833 52.0275 583.796C51.8331 583.757 51.6756 583.779 51.5551 583.86C51.437 583.939 51.378 584.107 51.378 584.362C51.378 584.712 51.4899 585.041 51.7138 585.349C51.9401 585.656 52.2268 585.909 52.5737 586.11ZM57.4995 580.976L57.4995 589.704L56.6285 589.201L56.6285 580.473L57.4995 580.976ZM59.0947 590.625L59.0947 584.079L59.9656 584.582L59.9656 591.127L59.0947 590.625ZM59.5375 583.244C59.3678 583.146 59.2214 582.995 59.0984 582.79C58.9778 582.587 58.9175 582.392 58.9175 582.204C58.9175 582.017 58.9778 581.891 59.0984 581.827C59.2214 581.764 59.3678 581.782 59.5375 581.88C59.7073 581.978 59.8525 582.129 59.973 582.332C60.096 582.536 60.1575 582.732 60.1575 582.92C60.1575 583.107 60.096 583.232 59.973 583.295C59.8525 583.359 59.7073 583.342 59.5375 583.244ZM64.026 586.926L64.026 587.778L61.0884 586.082L61.0884 585.23L64.026 586.926ZM61.9446 584.156L62.8156 584.659L62.8156 590.898C62.8156 591.182 62.8513 591.416 62.9226 591.599C62.9964 591.781 63.0899 591.928 63.2031 592.042C63.3187 592.154 63.4405 592.247 63.5684 592.321C63.6644 592.376 63.7431 592.416 63.8046 592.44C63.8661 592.462 63.9153 592.479 63.9522 592.492L64.1294 593.497C64.0703 593.489 63.9879 593.467 63.8821 593.431C63.7763 593.399 63.6422 593.335 63.4799 593.242C63.2338 593.099 62.9927 592.899 62.7565 592.641C62.5228 592.384 62.3284 592.085 62.1734 591.746C62.0209 591.408 61.9446 591.048 61.9446 590.668L61.9446 584.156ZM65.8971 597.006C65.7495 596.921 65.6179 596.831 65.5022 596.736C65.3866 596.644 65.3066 596.572 65.2623 596.521L65.4838 595.762C65.6954 595.947 65.8823 596.077 66.0447 596.154C66.2071 596.231 66.351 596.23 66.4765 596.152C66.6044 596.078 66.7213 595.906 66.8271 595.634L66.9895 595.217L64.8933 587.427L65.8381 587.972L67.4028 594.092L67.4619 594.126L69.0266 589.813L69.9714 590.359L67.5652 596.47C67.4569 596.745 67.3228 596.948 67.1629 597.077C67.003 597.209 66.8173 597.268 66.6057 597.254C66.3965 597.241 66.1604 597.158 65.8971 597.006ZM80.2437 596.835L79.3285 596.307C79.2744 595.971 79.1796 595.65 79.0443 595.341C78.9115 595.035 78.7491 594.748 78.5572 594.481C78.3677 594.212 78.1574 593.971 77.9261 593.758C77.6949 593.545 77.4537 593.366 77.2028 593.221C76.7452 592.957 76.3306 592.851 75.9591 592.904C75.5901 592.958 75.2961 593.182 75.0771 593.575C74.8606 593.97 74.7523 594.545 74.7523 595.301C74.7523 596.057 74.8606 596.757 75.0771 597.402C75.2961 598.048 75.5901 598.611 75.9591 599.091C76.3306 599.573 76.7452 599.946 77.2028 600.21C77.4537 600.355 77.6949 600.454 77.9261 600.508C78.1574 600.562 78.3677 600.566 78.5572 600.519C78.7491 600.471 78.9115 600.37 79.0443 600.216C79.1796 600.062 79.2744 599.849 79.3285 599.579L80.2437 600.108C80.1748 600.514 80.0494 600.841 79.8673 601.088C79.6852 601.335 79.4589 601.504 79.1883 601.595C78.9176 601.683 78.6138 601.694 78.2767 601.627C77.9421 601.562 77.5841 601.419 77.2028 601.199C76.5582 600.826 75.9849 600.314 75.483 599.66C74.9811 599.007 74.5863 598.262 74.2984 597.425C74.0106 596.588 73.8666 595.71 73.8666 594.789C73.8666 593.869 74.0106 593.157 74.2984 592.652C74.5863 592.148 74.9811 591.859 75.483 591.785C75.9849 591.711 76.5582 591.861 77.2028 592.233C77.5841 592.453 77.9421 592.723 78.2767 593.044C78.6138 593.367 78.9176 593.73 79.1883 594.133C79.4589 594.534 79.6852 594.963 79.8673 595.42C80.0494 595.875 80.1748 596.346 80.2437 596.835ZM83.9074 605.087C83.3957 604.791 82.9467 604.391 82.5604 603.887C82.1766 603.384 81.8764 602.817 81.6599 602.187C81.4459 601.557 81.3389 600.905 81.3389 600.229C81.3389 599.547 81.4459 599.013 81.6599 598.628C81.8764 598.245 82.1766 598.023 82.5604 597.964C82.9467 597.905 83.3957 598.024 83.9074 598.319C84.4192 598.615 84.8669 599.014 85.2507 599.517C85.637 600.021 85.9372 600.589 86.1512 601.221C86.3677 601.855 86.476 602.513 86.476 603.194C86.476 603.871 86.3677 604.399 86.1512 604.78C85.9372 605.162 85.637 605.382 85.2507 605.44C84.8669 605.5 84.4192 605.382 83.9074 605.087ZM83.9074 604.183C84.2961 604.408 84.616 604.477 84.8669 604.392C85.1179 604.307 85.3036 604.111 85.4242 603.806C85.5447 603.501 85.605 603.129 85.605 602.692C85.605 602.254 85.5447 601.812 85.4242 601.364C85.3036 600.917 85.1179 600.504 84.8669 600.126C84.616 599.748 84.2961 599.447 83.9074 599.223C83.5187 598.998 83.1989 598.93 82.9479 599.018C82.6969 599.106 82.5112 599.305 82.3906 599.613C82.2701 599.921 82.2098 600.294 82.2098 600.731C82.2098 601.169 82.2701 601.61 82.3906 602.055C82.5112 602.499 82.6969 602.909 82.9479 603.284C83.1989 603.659 83.5187 603.959 83.9074 604.183ZM88.6764 603.766L88.6764 607.704L87.8055 607.201L87.8055 600.655L88.6469 601.141L88.6469 602.164L88.7207 602.206C88.8535 601.951 89.0553 601.8 89.3259 601.755C89.5966 601.706 89.9459 601.806 90.374 602.053C90.7578 602.275 91.0936 602.559 91.3815 602.907C91.6694 603.253 91.8932 603.655 92.0532 604.113C92.2131 604.569 92.293 605.076 92.293 605.633L92.293 609.792L91.4221 609.289L91.4221 605.198C91.4221 604.684 91.3065 604.216 91.0752 603.796C90.8439 603.373 90.5265 603.044 90.1231 602.812C89.845 602.651 89.5966 602.577 89.3776 602.59C89.1611 602.604 88.9901 602.709 88.8646 602.903C88.7391 603.098 88.6764 603.385 88.6764 603.766ZM96.3498 605.588L96.3498 606.441L93.4122 604.745L93.4122 603.892L96.3498 605.588ZM94.2684 602.818L95.1393 603.321L95.1393 609.56C95.1393 609.844 95.175 610.078 95.2463 610.261C95.3201 610.443 95.4136 610.59 95.5268 610.704C95.6424 610.816 95.7642 610.909 95.8922 610.983C95.9881 611.039 96.0668 611.078 96.1283 611.103C96.1898 611.124 96.2391 611.141 96.276 611.154L96.4531 612.159C96.3941 612.151 96.3116 612.129 96.2058 612.093C96.1 612.061 95.966 611.997 95.8036 611.904C95.5575 611.762 95.3164 611.561 95.0803 611.303C94.8465 611.046 94.6522 610.747 94.4972 610.408C94.3446 610.07 94.2684 609.71 94.2684 609.33L94.2684 602.818ZM97.6599 612.89L97.6599 606.345L98.5013 606.83L98.5013 607.819L98.5603 607.853C98.6637 607.589 98.8507 607.434 99.1213 607.389C99.3919 607.343 99.697 607.419 100.037 607.615C100.1 607.652 100.18 607.699 100.276 607.757C100.372 607.816 100.445 607.862 100.494 607.896L100.494 608.919C100.465 608.893 100.397 608.841 100.291 608.763C100.188 608.683 100.078 608.61 99.9627 608.544C99.6872 608.384 99.4411 608.309 99.2246 608.318C99.0106 608.325 98.8408 608.409 98.7153 608.569C98.5923 608.728 98.5308 608.955 98.5308 609.251L98.5308 613.393L97.6599 612.89ZM103.657 616.489C103.145 616.193 102.696 615.794 102.31 615.289C101.926 614.786 101.626 614.22 101.409 613.589C101.195 612.96 101.088 612.307 101.088 611.631C101.088 610.949 101.195 610.416 101.409 610.031C101.626 609.647 101.926 609.426 102.31 609.366C102.696 609.308 103.145 609.426 103.657 609.722C104.169 610.017 104.616 610.416 105 610.919C105.386 611.424 105.687 611.992 105.901 612.624C106.117 613.257 106.225 613.915 106.225 614.597C106.225 615.273 106.117 615.801 105.901 616.182C105.687 616.564 105.386 616.784 105 616.843C104.616 616.902 104.169 616.784 103.657 616.489ZM103.657 615.585C104.046 615.81 104.365 615.88 104.616 615.794C104.867 615.709 105.053 615.514 105.174 615.208C105.294 614.903 105.354 614.531 105.354 614.094C105.354 613.656 105.294 613.214 105.174 612.767C105.053 612.319 104.867 611.906 104.616 611.529C104.365 611.151 104.046 610.85 103.657 610.625C103.268 610.401 102.948 610.333 102.697 610.421C102.446 610.509 102.261 610.707 102.14 611.015C102.02 611.323 101.959 611.696 101.959 612.134C101.959 612.571 102.02 613.012 102.14 613.457C102.261 613.902 102.446 614.311 102.697 614.686C102.948 615.061 103.268 615.361 103.657 615.585ZM108.426 610.379L108.426 619.106L107.555 618.603L107.555 609.876L108.426 610.379Z" fill="white"/>
<path d="M21.3008 471.434L21.6721 438.556L214.454 550.914C225.027 557.076 238.095 557.081 248.672 550.928L439.573 439.869V469.867C439.573 475.283 436.653 480.279 431.934 482.937L247.35 586.889C236.619 592.931 223.503 592.891 212.811 586.781L26.3389 480.229C23.188 478.429 21.2598 475.063 21.3008 471.434Z" fill="#101010"/>
<path d="M21.3008 471.434L21.6721 438.556L214.454 550.914C225.027 557.076 238.095 557.081 248.672 550.928L439.573 439.869V469.867C439.573 475.283 436.653 480.279 431.934 482.937L247.35 586.889C236.619 592.931 223.503 592.891 212.811 586.781L26.3389 480.229C23.188 478.429 21.2598 475.063 21.3008 471.434Z" fill="url(#paint1_linear_1421_3856)"/>
<path d="M21.3008 471.434L21.6721 438.556L214.454 550.914C225.027 557.076 238.095 557.081 248.672 550.928L439.573 439.869V469.867C439.573 475.283 436.653 480.279 431.934 482.937L247.35 586.889C236.619 592.931 223.503 592.891 212.811 586.781L26.3389 480.229C23.188 478.429 21.2598 475.063 21.3008 471.434Z" stroke="#404040"/>
<path d="M247.351 318.367L436.294 426.791C442.31 430.244 442.324 438.918 436.319 442.389L249.456 550.409C238.988 556.46 226.094 556.497 215.592 550.505L25.603 442.114C19.5464 438.659 19.5503 429.925 25.61 426.475L215.592 318.313C225.441 312.705 237.521 312.726 247.351 318.367Z" fill="#131313" stroke="#404040"/>
<path d="M36.9312 473.455L36.9312 464.728L39.485 466.203C40.078 466.545 40.5626 466.948 40.9391 467.413C41.3179 467.876 41.5984 468.369 41.7805 468.891C41.9625 469.414 42.0536 469.933 42.0536 470.447C42.0536 470.961 41.9625 471.376 41.7805 471.691C41.6009 472.008 41.3229 472.183 40.9464 472.215C40.57 472.245 40.0878 472.09 39.4998 471.751L37.6693 470.694L37.6693 469.757L39.4703 470.796C39.8762 471.031 40.2022 471.138 40.4482 471.118C40.6943 471.098 40.8726 470.982 40.9833 470.771C41.0965 470.558 41.1531 470.276 41.1531 469.927C41.1531 469.578 41.0965 469.232 40.9833 468.891C40.8726 468.552 40.693 468.232 40.4445 467.933C40.196 467.63 39.8664 467.36 39.4555 467.123L37.8465 466.194L37.8465 473.984L36.9312 473.455ZM43.4098 477.196L43.4098 470.65L44.2512 471.136L44.2512 472.125L44.3103 472.159C44.4136 471.895 44.6006 471.74 44.8712 471.694C45.1419 471.649 45.4469 471.724 45.7865 471.92C45.8504 471.957 45.9304 472.005 46.0263 472.063C46.1223 472.121 46.1949 472.167 46.2441 472.202L46.2441 473.224C46.2146 473.199 46.1469 473.147 46.0411 473.069C45.9378 472.989 45.8283 472.916 45.7127 472.849C45.4371 472.69 45.1911 472.615 44.9746 472.623C44.7605 472.63 44.5908 472.714 44.4653 472.875C44.3423 473.034 44.2808 473.261 44.2808 473.557L44.2808 477.699L43.4098 477.196ZM49.4068 480.795C48.8951 480.499 48.446 480.099 48.0598 479.595C47.676 479.092 47.3758 478.525 47.1593 477.895C46.9453 477.265 46.8382 476.613 46.8382 475.937C46.8382 475.255 46.9453 474.721 47.1593 474.336C47.3758 473.953 47.676 473.731 48.0598 473.672C48.446 473.613 48.8951 473.732 49.4068 474.027C49.9185 474.323 50.3663 474.722 50.7501 475.225C51.1364 475.729 51.4365 476.297 51.6506 476.929C51.8671 477.563 51.9753 478.221 51.9753 478.902C51.9753 479.579 51.8671 480.107 51.6506 480.488C51.4365 480.87 51.1364 481.09 50.7501 481.148C50.3663 481.208 49.9185 481.09 49.4068 480.795ZM49.4068 479.891C49.7955 480.116 50.1154 480.185 50.3663 480.1C50.6173 480.015 50.803 479.819 50.9236 479.514C51.0441 479.209 51.1044 478.837 51.1044 478.4C51.1044 477.962 51.0441 477.52 50.9236 477.072C50.803 476.625 50.6173 476.212 50.3663 475.834C50.1154 475.456 49.7955 475.155 49.4068 474.931C49.0181 474.706 48.6982 474.638 48.4473 474.726C48.1963 474.814 48.0106 475.013 47.89 475.321C47.7695 475.629 47.7092 476.002 47.7092 476.439C47.7092 476.877 47.7695 477.318 47.89 477.763C48.0106 478.207 48.1963 478.617 48.4473 478.992C48.6982 479.367 49.0181 479.667 49.4068 479.891ZM55.4453 484.281C54.9729 484.008 54.5559 483.63 54.1942 483.145C53.8326 482.658 53.5496 482.103 53.3454 481.479C53.1412 480.853 53.0391 480.193 53.0391 479.5C53.0391 478.812 53.1412 478.274 53.3454 477.887C53.5496 477.499 53.8338 477.272 54.1979 477.207C54.562 477.142 54.9828 477.247 55.4601 477.522C55.8291 477.735 56.1206 477.975 56.3347 478.24C56.5512 478.505 56.716 478.759 56.8292 479.003C56.9448 479.246 57.0346 479.443 57.0986 479.593L57.1724 479.636L57.1724 476.414L58.0434 476.917L58.0434 485.645L57.2019 485.159L57.2019 484.153L57.0986 484.093C57.0346 484.176 56.9436 484.274 56.8255 484.387C56.7074 484.498 56.5389 484.561 56.3199 484.577C56.101 484.59 55.8094 484.491 55.4453 484.281ZM55.5634 483.446C55.9127 483.647 56.208 483.713 56.4491 483.642C56.6902 483.568 56.8735 483.38 56.999 483.077C57.1244 482.772 57.1872 482.372 57.1872 481.877C57.1872 481.389 57.1257 480.926 57.0027 480.488C56.8796 480.048 56.6976 479.656 56.4565 479.312C56.2154 478.966 55.9177 478.69 55.5634 478.485C55.1943 478.272 54.8868 478.204 54.6408 478.281C54.3972 478.356 54.2139 478.544 54.0909 478.846C53.9703 479.145 53.9101 479.525 53.9101 479.985C53.9101 480.451 53.9716 480.91 54.0946 481.362C54.2201 481.812 54.4046 482.22 54.6482 482.585C54.8942 482.948 55.1993 483.235 55.5634 483.446ZM63.3318 486.022L63.3318 482.152L64.2027 482.655L64.2027 489.201L63.3318 488.698L63.3318 487.59L63.2727 487.556C63.1399 487.811 62.9332 487.975 62.6527 488.046C62.3723 488.114 62.018 488.024 61.5899 487.777C61.2356 487.573 60.9207 487.301 60.6451 486.963C60.3696 486.622 60.1531 486.225 59.9956 485.77C59.8382 485.313 59.7594 484.806 59.7594 484.249L59.7594 480.09L60.6304 480.593L60.6304 484.684C60.6304 485.161 60.746 485.608 60.9773 486.026C61.211 486.445 61.5087 486.759 61.8704 486.968C62.0869 487.093 62.3071 487.156 62.531 487.157C62.7573 487.16 62.9467 487.073 63.0993 486.897C63.2543 486.723 63.3318 486.431 63.3318 486.022ZM68.2631 484.999L68.2631 485.852L65.3255 484.156L65.3255 483.303L68.2631 484.999ZM66.1817 482.23L67.0527 482.732L67.0527 488.971C67.0527 489.255 67.0883 489.489 67.1597 489.672C67.2335 489.854 67.327 490.002 67.4402 490.115C67.5558 490.227 67.6776 490.32 67.8055 490.394C67.9015 490.45 67.9802 490.49 68.0417 490.514C68.1032 490.535 68.1524 490.552 68.1893 490.565L68.3665 491.57C68.3074 491.562 68.225 491.54 68.1192 491.504C68.0134 491.472 67.8793 491.409 67.717 491.315C67.4709 491.173 67.2298 490.972 66.9936 490.714C66.7599 490.457 66.5655 490.159 66.4105 489.819C66.258 489.481 66.1817 489.122 66.1817 488.741L66.1817 482.23ZM69.5733 492.301L69.5733 485.756L70.4442 486.259L70.4442 492.804L69.5733 492.301ZM70.0161 484.921C69.8463 484.823 69.7 484.671 69.5769 484.467C69.4564 484.264 69.3961 484.068 69.3961 483.881C69.3961 483.693 69.4564 483.568 69.5769 483.504C69.7 483.441 69.8463 483.459 70.0161 483.557C70.1859 483.655 70.331 483.806 70.4516 484.009C70.5746 484.213 70.6361 484.409 70.6361 484.597C70.6361 484.784 70.5746 484.909 70.4516 484.972C70.331 485.036 70.1859 485.019 70.0161 484.921ZM74.3422 495.191C73.8305 494.896 73.3815 494.496 72.9952 493.991C72.6114 493.489 72.3113 492.922 72.0948 492.291C71.8807 491.662 71.7737 491.009 71.7737 490.333C71.7737 489.651 71.8807 489.118 72.0948 488.733C72.3113 488.349 72.6114 488.128 72.9952 488.068C73.3815 488.01 73.8305 488.129 74.3422 488.424C74.854 488.719 75.3018 489.119 75.6856 489.621C76.0718 490.126 76.372 490.694 76.586 491.326C76.8025 491.959 76.9108 492.617 76.9108 493.299C76.9108 493.975 76.8025 494.504 76.586 494.884C76.372 495.266 76.0718 495.486 75.6856 495.545C75.3018 495.604 74.854 495.486 74.3422 495.191ZM74.3422 494.288C74.731 494.512 75.0508 494.582 75.3018 494.496C75.5527 494.411 75.7385 494.216 75.859 493.91C75.9796 493.605 76.0398 493.234 76.0398 492.796C76.0398 492.359 75.9796 491.916 75.859 491.469C75.7385 491.021 75.5527 490.609 75.3018 490.231C75.0508 489.853 74.731 489.552 74.3422 489.327C73.9535 489.103 73.6337 489.035 73.3827 489.123C73.1318 489.211 72.946 489.409 72.8255 489.717C72.7049 490.026 72.6446 490.398 72.6446 490.836C72.6446 491.273 72.7049 491.714 72.8255 492.159C72.946 492.604 73.1318 493.013 73.3827 493.388C73.6337 493.763 73.9535 494.063 74.3422 494.288ZM79.1112 493.871L79.1112 497.808L78.2403 497.305L78.2403 490.76L79.0817 491.246L79.0817 492.268L79.1555 492.311C79.2884 492.055 79.4901 491.905 79.7607 491.859C80.0314 491.811 80.3807 491.91 80.8088 492.157C81.1926 492.379 81.5285 492.664 81.8163 493.012C82.1042 493.357 82.3281 493.759 82.488 494.218C82.6479 494.674 82.7279 495.18 82.7279 495.737L82.7279 499.896L81.8569 499.393L81.8569 495.302C81.8569 494.788 81.7413 494.321 81.51 493.9C81.2787 493.477 80.9614 493.149 80.5579 492.916C80.2799 492.755 80.0314 492.682 79.8124 492.694C79.5959 492.709 79.4249 492.813 79.2994 493.008C79.174 493.202 79.1112 493.49 79.1112 493.871ZM87.3603 493.843L88.4527 494.474L91.0212 503.201L91.1098 503.252L93.6783 497.491L94.7707 498.122L94.7707 506.849L93.9145 506.355L93.9145 499.724L93.8407 499.681L91.4788 504.948L90.6522 504.471L88.2903 496.477L88.2165 496.434L88.2165 503.065L87.3603 502.571L87.3603 493.843ZM98.1558 508.957C97.7966 508.749 97.4706 508.483 97.1778 508.158C96.885 507.83 96.6525 507.467 96.4803 507.069C96.3081 506.668 96.222 506.255 96.222 505.829C96.222 505.454 96.286 505.187 96.4139 505.028C96.5418 504.866 96.7128 504.78 96.9269 504.77C97.1409 504.76 97.3771 504.797 97.6354 504.881C97.8962 504.963 98.1582 505.061 98.4215 505.173C98.7659 505.32 99.0452 505.443 99.2592 505.541C99.4757 505.638 99.6332 505.682 99.7316 505.673C99.8325 505.666 99.8829 505.582 99.8829 505.42L99.8829 505.386C99.8829 504.965 99.7833 504.581 99.584 504.233C99.3872 503.887 99.0882 503.597 98.6872 503.366C98.2714 503.126 97.9454 503.043 97.7092 503.117C97.473 503.19 97.307 503.319 97.211 503.502L96.3844 502.684C96.532 502.372 96.7288 502.176 96.9748 502.096C97.2233 502.015 97.494 502.015 97.7867 502.096C98.082 502.176 98.3723 502.298 98.6577 502.463C98.8397 502.568 99.0489 502.714 99.2851 502.901C99.5237 503.088 99.7537 503.321 99.9752 503.602C100.199 503.885 100.385 504.224 100.532 504.619C100.68 505.014 100.754 505.471 100.754 505.991L100.754 510.303L99.8829 509.801L99.8829 508.914L99.8386 508.889C99.7796 508.997 99.6812 509.092 99.5434 509.174C99.4056 509.257 99.2223 509.289 98.9935 509.27C98.7647 509.252 98.4855 509.147 98.1558 508.957ZM98.2886 508.13C98.6331 508.329 98.9234 508.418 99.1596 508.399C99.3982 508.38 99.5778 508.282 99.6984 508.105C99.8214 507.928 99.8829 507.704 99.8829 507.431L99.8829 506.511C99.846 506.541 99.7648 506.541 99.6393 506.511C99.5163 506.48 99.3736 506.433 99.2112 506.37C99.0513 506.306 98.8951 506.242 98.7426 506.176C98.5925 506.11 98.4707 506.056 98.3772 506.016C98.1509 505.92 97.9393 505.853 97.7424 505.816C97.5481 505.778 97.3906 505.799 97.2701 505.88C97.152 505.96 97.0929 506.127 97.0929 506.383C97.0929 506.732 97.2049 507.061 97.4288 507.369C97.6551 507.676 97.9417 507.93 98.2886 508.13ZM103.214 507.787L103.214 511.724L102.344 511.221L102.344 504.676L103.185 505.162L103.185 506.184L103.259 506.227C103.392 505.971 103.593 505.821 103.864 505.775C104.135 505.727 104.484 505.826 104.912 506.073C105.296 506.295 105.632 506.58 105.92 506.928C106.207 507.273 106.431 507.675 106.591 508.134C106.751 508.59 106.831 509.096 106.831 509.653L106.831 513.812L105.96 513.309L105.96 509.218C105.96 508.704 105.845 508.237 105.613 507.816C105.382 507.393 105.065 507.065 104.661 506.832C104.383 506.671 104.135 506.598 103.916 506.61C103.699 506.625 103.528 506.729 103.403 506.924C103.277 507.118 103.214 507.406 103.214 507.787ZM110.091 515.847C109.731 515.64 109.405 515.374 109.113 515.048C108.82 514.72 108.587 514.357 108.415 513.96C108.243 513.559 108.157 513.146 108.157 512.72C108.157 512.345 108.221 512.078 108.349 511.918C108.477 511.757 108.648 511.671 108.862 511.661C109.076 511.651 109.312 511.688 109.57 511.771C109.831 511.854 110.093 511.951 110.356 512.063C110.701 512.211 110.98 512.334 111.194 512.432C111.411 512.529 111.568 512.573 111.667 512.564C111.767 512.557 111.818 512.472 111.818 512.311L111.818 512.276C111.818 511.856 111.718 511.472 111.519 511.124C111.322 510.777 111.023 510.488 110.622 510.257C110.206 510.016 109.88 509.933 109.644 510.007C109.408 510.081 109.242 510.21 109.146 510.393L108.319 509.575C108.467 509.262 108.664 509.066 108.91 508.987C109.158 508.906 109.429 508.906 109.722 508.987C110.017 509.066 110.307 509.188 110.593 509.353C110.775 509.458 110.984 509.605 111.22 509.792C111.459 509.978 111.689 510.212 111.91 510.493C112.134 510.776 112.32 511.115 112.467 511.509C112.615 511.904 112.689 512.362 112.689 512.882L112.689 517.194L111.818 516.691L111.818 515.805L111.774 515.779C111.714 515.887 111.616 515.982 111.478 516.065C111.341 516.147 111.157 516.179 110.928 516.161C110.7 516.142 110.42 516.038 110.091 515.847ZM110.224 515.021C110.568 515.22 110.858 515.309 111.094 515.289C111.333 515.271 111.513 515.173 111.633 514.995C111.756 514.819 111.818 514.595 111.818 514.322L111.818 513.401C111.781 513.431 111.7 513.431 111.574 513.401C111.451 513.37 111.309 513.323 111.146 513.261C110.986 513.197 110.83 513.132 110.677 513.067C110.527 513 110.406 512.947 110.312 512.907C110.086 512.811 109.874 512.744 109.677 512.707C109.483 512.668 109.326 512.69 109.205 512.771C109.087 512.85 109.028 513.018 109.028 513.274C109.028 513.623 109.14 513.952 109.364 514.26C109.59 514.567 109.877 514.82 110.224 515.021ZM116.567 522.024C116.146 521.781 115.784 521.51 115.482 521.21C115.179 520.913 114.927 520.605 114.725 520.287C114.526 519.973 114.367 519.669 114.249 519.373L114.943 519.211C115.021 519.376 115.121 519.57 115.242 519.793C115.362 520.019 115.527 520.249 115.736 520.483C115.948 520.722 116.225 520.94 116.567 521.137C117.024 521.402 117.402 521.492 117.699 521.408C117.997 521.324 118.146 521.01 118.146 520.464L118.146 519.135L118.072 519.092C118.008 519.174 117.917 519.27 117.799 519.377C117.683 519.484 117.516 519.542 117.297 519.552C117.081 519.561 116.788 519.458 116.419 519.245C115.961 518.981 115.55 518.619 115.186 518.159C114.825 517.7 114.538 517.171 114.326 516.571C114.117 515.973 114.013 515.333 114.013 514.652C114.013 513.981 114.115 513.456 114.319 513.077C114.523 512.695 114.807 512.473 115.172 512.41C115.536 512.345 115.956 512.45 116.434 512.725C116.803 512.939 117.095 513.179 117.312 513.446C117.531 513.711 117.698 513.967 117.814 514.213C117.932 514.457 118.023 514.654 118.087 514.805L118.176 514.856L118.176 513.816L119.017 514.302L119.017 521.035C119.017 521.598 118.906 521.991 118.685 522.216C118.466 522.444 118.171 522.534 117.799 522.484C117.43 522.439 117.019 522.285 116.567 522.024ZM116.537 518.41C116.886 518.612 117.182 518.69 117.423 518.645C117.664 518.599 117.847 518.439 117.973 518.165C118.098 517.891 118.161 517.512 118.161 517.029C118.161 516.558 118.099 516.106 117.976 515.674C117.853 515.243 117.671 514.855 117.43 514.511C117.189 514.167 116.891 513.893 116.537 513.689C116.168 513.475 115.86 513.406 115.614 513.48C115.371 513.555 115.188 513.739 115.064 514.032C114.944 514.326 114.884 514.694 114.884 515.137C114.884 515.592 114.945 516.029 115.068 516.45C115.194 516.869 115.378 517.248 115.622 517.588C115.868 517.926 116.173 518.2 116.537 518.41ZM122.988 523.277C122.442 522.961 121.971 522.55 121.574 522.043C121.181 521.534 120.877 520.967 120.663 520.341C120.451 519.713 120.346 519.064 120.346 518.393C120.346 517.723 120.451 517.193 120.663 516.804C120.877 516.413 121.175 516.184 121.556 516.118C121.94 516.049 122.388 516.163 122.899 516.458C123.195 516.629 123.486 516.854 123.774 517.134C124.062 517.414 124.324 517.75 124.56 518.142C124.796 518.531 124.984 518.975 125.125 519.473C125.265 519.972 125.335 520.527 125.335 521.137L125.335 521.564L120.966 519.041L120.966 518.171L124.449 520.183C124.449 519.814 124.385 519.447 124.257 519.083C124.132 518.721 123.952 518.389 123.719 518.086C123.487 517.785 123.214 517.544 122.899 517.362C122.552 517.162 122.252 517.088 121.999 517.14C121.748 517.191 121.555 517.336 121.419 517.573C121.284 517.81 121.216 518.109 121.216 518.47L121.216 519.049C121.216 519.544 121.29 520.005 121.438 520.434C121.588 520.862 121.796 521.242 122.062 521.574C122.327 521.904 122.636 522.17 122.988 522.373C123.217 522.505 123.423 522.588 123.608 522.62C123.795 522.652 123.956 522.631 124.091 522.559C124.227 522.483 124.331 522.353 124.405 522.169L125.246 522.927C125.158 523.206 125.009 523.409 124.8 523.539C124.591 523.665 124.332 523.709 124.025 523.671C123.717 523.63 123.372 523.498 122.988 523.277ZM126.66 525.26L126.66 518.715L127.501 519.201L127.501 520.223L127.575 520.266C127.693 519.985 127.884 519.823 128.147 519.782C128.41 519.738 128.727 519.823 129.096 520.036C129.47 520.252 129.781 520.529 130.029 520.869C130.28 521.207 130.476 521.591 130.616 522.022L130.675 522.056C130.82 521.801 131.038 521.659 131.328 521.627C131.619 521.593 131.967 521.694 132.373 521.928C132.88 522.221 133.294 522.643 133.616 523.196C133.939 523.745 134.1 524.405 134.1 525.175L134.1 529.556L133.229 529.053L133.229 524.672C133.229 524.189 133.114 523.778 132.886 523.439C132.657 523.099 132.387 522.84 132.077 522.661C131.679 522.431 131.37 522.392 131.151 522.544C130.932 522.693 130.823 522.979 130.823 523.402L130.823 527.664L129.937 527.152L129.937 522.669C129.937 522.297 129.832 521.937 129.623 521.589C129.414 521.238 129.145 520.968 128.815 520.777C128.589 520.647 128.377 520.594 128.18 520.62C127.986 520.647 127.829 520.749 127.708 520.926C127.59 521.103 127.531 521.351 127.531 521.672L127.531 525.763L126.66 525.26ZM138.069 531.984C137.523 531.668 137.052 531.257 136.655 530.75C136.262 530.241 135.958 529.674 135.744 529.048C135.532 528.42 135.427 527.771 135.427 527.1C135.427 526.43 135.532 525.9 135.744 525.511C135.958 525.12 136.256 524.891 136.637 524.825C137.021 524.756 137.469 524.87 137.98 525.165C138.276 525.336 138.567 525.561 138.855 525.841C139.143 526.121 139.405 526.457 139.641 526.849C139.877 527.238 140.065 527.682 140.206 528.18C140.346 528.679 140.416 529.234 140.416 529.844L140.416 530.271L136.047 527.748L136.047 526.879L139.53 528.89C139.53 528.521 139.466 528.154 139.338 527.79C139.213 527.428 139.033 527.096 138.8 526.793C138.568 526.492 138.295 526.251 137.98 526.069C137.633 525.869 137.333 525.795 137.08 525.847C136.829 525.898 136.636 526.043 136.5 526.28C136.365 526.517 136.297 526.816 136.297 527.177L136.297 527.756C136.297 528.251 136.371 528.712 136.519 529.141C136.669 529.569 136.877 529.949 137.143 530.281C137.408 530.611 137.717 530.877 138.069 531.08C138.298 531.212 138.504 531.295 138.689 531.327C138.876 531.359 139.037 531.338 139.172 531.266C139.308 531.19 139.412 531.06 139.486 530.876L140.327 531.634C140.239 531.913 140.09 532.116 139.881 532.246C139.672 532.372 139.413 532.416 139.106 532.378C138.798 532.337 138.453 532.205 138.069 531.984ZM142.612 530.533L142.612 534.47L141.741 533.967L141.741 527.422L142.582 527.908L142.582 528.93L142.656 528.973C142.789 528.717 142.991 528.567 143.261 528.521C143.532 528.473 143.881 528.572 144.309 528.82C144.693 529.041 145.029 529.326 145.317 529.674C145.605 530.019 145.829 530.421 145.989 530.88C146.149 531.336 146.228 531.842 146.228 532.399L146.228 536.558L145.358 536.055L145.358 531.964C145.358 531.45 145.242 530.983 145.011 530.562C144.779 530.139 144.462 529.811 144.059 529.578C143.78 529.418 143.532 529.344 143.313 529.357C143.097 529.371 142.926 529.475 142.8 529.67C142.675 529.864 142.612 530.152 142.612 530.533ZM150.285 532.355L150.285 533.207L147.348 531.511L147.348 530.659L150.285 532.355ZM148.204 529.585L149.075 530.088L149.075 536.327C149.075 536.611 149.11 536.844 149.182 537.027C149.256 537.209 149.349 537.357 149.462 537.471C149.578 537.583 149.7 537.676 149.828 537.75C149.924 537.805 150.002 537.845 150.064 537.869C150.125 537.89 150.175 537.907 150.211 537.92L150.389 538.926C150.33 538.917 150.247 538.895 150.141 538.86C150.035 538.827 149.901 538.764 149.739 538.67C149.493 538.528 149.252 538.328 149.016 538.069C148.782 537.812 148.588 537.514 148.433 537.175C148.28 536.836 148.204 536.477 148.204 536.096L148.204 529.585Z" fill="white"/>
<path d="M21.3008 368.065L21.6721 335.187L214.454 447.545C225.027 453.707 238.095 453.712 248.672 447.559L439.573 336.5V366.498C439.573 371.914 436.653 376.91 431.934 379.567L247.35 483.519C236.619 489.562 223.503 489.521 212.811 483.412L26.3389 376.86C23.188 375.06 21.2598 371.694 21.3008 368.065Z" fill="#101010"/>
<path d="M21.3008 368.065L21.6721 335.187L214.454 447.545C225.027 453.707 238.095 453.712 248.672 447.559L439.573 336.5V366.498C439.573 371.914 436.653 376.91 431.934 379.567L247.35 483.519C236.619 489.562 223.503 489.521 212.811 483.412L26.3389 376.86C23.188 375.06 21.2598 371.694 21.3008 368.065Z" fill="url(#paint2_linear_1421_3856)"/>
<path d="M21.3008 368.065L21.6721 335.187L214.454 447.545C225.027 453.707 238.095 453.712 248.672 447.559L439.573 336.5V366.498C439.573 371.914 436.653 376.91 431.934 379.567L247.35 483.519C236.619 489.562 223.503 489.521 212.811 483.412L26.3389 376.86C23.188 375.06 21.2598 371.694 21.3008 368.065Z" stroke="#404040"/>
<path d="M247.351 214.998L436.294 323.422C442.31 326.875 442.324 335.549 436.319 339.02L249.456 447.04C238.988 453.091 226.094 453.128 215.592 447.136L25.603 338.745C19.5464 335.289 19.5503 326.556 25.61 323.106L215.592 214.943C225.441 209.336 237.521 209.357 247.351 214.998Z" fill="#131313" stroke="#404040"/>
<path d="M37.0547 362.21L38.1471 362.84L40.7156 371.568L40.8042 371.619L43.3728 365.857L44.4651 366.488L44.4651 375.215L43.6089 374.721L43.6089 368.09L43.5351 368.048L41.1732 373.315L40.3466 372.837L37.9847 364.843L37.9109 364.8L37.9109 371.431L37.0547 370.937L37.0547 362.21ZM47.8502 377.323C47.491 377.116 47.165 376.849 46.8722 376.524C46.5794 376.196 46.3469 375.833 46.1747 375.435C46.0025 375.035 45.9164 374.621 45.9164 374.195C45.9164 373.82 45.9804 373.553 46.1083 373.394C46.2362 373.232 46.4072 373.146 46.6213 373.136C46.8353 373.126 47.0715 373.163 47.3298 373.247C47.5906 373.329 47.8527 373.427 48.1159 373.539C48.4603 373.687 48.7396 373.81 48.9536 373.908C49.1701 374.004 49.3276 374.048 49.426 374.04C49.5269 374.033 49.5773 373.948 49.5773 373.786L49.5773 373.752C49.5773 373.332 49.4777 372.947 49.2784 372.599C49.0816 372.253 48.7826 371.964 48.3816 371.732C47.9658 371.492 47.6398 371.409 47.4036 371.483C47.1675 371.557 47.0014 371.685 46.9054 371.868L46.0788 371.05C46.2264 370.738 46.4232 370.542 46.6692 370.462C46.9177 370.381 47.1884 370.381 47.4811 370.462C47.7764 370.542 48.0667 370.664 48.3521 370.829C48.5342 370.934 48.7433 371.08 48.9795 371.268C49.2181 371.454 49.4482 371.687 49.6696 371.969C49.8935 372.251 50.0792 372.59 50.2268 372.985C50.3745 373.38 50.4483 373.837 50.4483 374.357L50.4483 378.67L49.5773 378.167L49.5773 377.28L49.533 377.255C49.474 377.363 49.3756 377.458 49.2378 377.54C49.1 377.623 48.9167 377.655 48.6879 377.636C48.4591 377.618 48.1799 377.513 47.8502 377.323ZM47.983 376.496C48.3275 376.695 48.6178 376.785 48.854 376.765C49.0926 376.746 49.2722 376.648 49.3928 376.471C49.5158 376.295 49.5773 376.07 49.5773 375.797L49.5773 374.877C49.5404 374.907 49.4592 374.907 49.3338 374.877C49.2107 374.846 49.068 374.799 48.9057 374.736C48.7457 374.672 48.5895 374.608 48.437 374.543C48.2869 374.476 48.1651 374.422 48.0716 374.383C47.8453 374.286 47.6337 374.219 47.4369 374.182C47.2425 374.144 47.085 374.165 46.9645 374.246C46.8464 374.326 46.7873 374.493 46.7873 374.749C46.7873 375.099 46.8993 375.427 47.1232 375.736C47.3495 376.043 47.6361 376.296 47.983 376.496ZM54.3408 381.053C53.8093 380.747 53.3517 380.337 52.9679 379.826C52.5841 379.315 52.2889 378.745 52.0822 378.117C51.8755 377.489 51.7722 376.849 51.7722 376.195C51.7722 375.531 51.878 375.005 52.0896 374.619C52.3036 374.231 52.6013 374.004 52.9827 373.937C53.3665 373.869 53.8143 373.982 54.326 374.278C54.7246 374.508 55.0838 374.8 55.4036 375.156C55.7235 375.511 55.9855 375.901 56.1897 376.325C56.3939 376.75 56.5206 377.181 56.5698 377.619L55.6989 377.116C55.6324 376.779 55.4848 376.43 55.256 376.068C55.0297 375.704 54.7246 375.411 54.3408 375.19C54.0012 374.994 53.7036 374.924 53.4477 374.981C53.1943 375.036 52.9962 375.207 52.8535 375.494C52.7133 375.78 52.6432 376.17 52.6432 376.664C52.6432 377.17 52.7121 377.65 52.8498 378.104C52.9901 378.56 53.1869 378.965 53.4403 379.319C53.6962 379.674 53.9963 379.951 54.3408 380.15C54.5671 380.281 54.7726 380.354 54.9571 380.369C55.1416 380.385 55.2978 380.345 55.4258 380.248C55.5537 380.151 55.6447 379.999 55.6989 379.792L56.5698 380.295C56.5206 380.653 56.3988 380.93 56.2044 381.128C56.0125 381.324 55.7579 381.421 55.4405 381.42C55.1256 381.417 54.759 381.295 54.3408 381.053ZM58.714 379.504L58.714 383.442L57.843 382.939L57.843 374.212L58.714 374.715L58.714 377.919L58.7878 377.962C58.9206 377.7 59.1199 377.547 59.3856 377.501C59.6538 377.455 60.0105 377.56 60.4558 377.817C60.8421 378.04 61.1804 378.325 61.4707 378.671C61.761 379.015 61.9861 379.416 62.1461 379.875C62.3084 380.332 62.3896 380.842 62.3896 381.405L62.3896 385.564L61.5187 385.061L61.5187 380.97C61.5187 380.45 61.4018 379.981 61.1681 379.562C60.9368 379.141 60.6158 378.813 60.2049 378.575C59.9195 378.411 59.6636 378.332 59.4373 378.341C59.2134 378.351 59.0363 378.452 58.9059 378.644C58.7779 378.837 58.714 379.124 58.714 379.504ZM63.983 386.484L63.983 379.938L64.8539 380.441L64.8539 386.987L63.983 386.484ZM64.4258 379.103C64.2561 379.005 64.1097 378.854 63.9867 378.649C63.8661 378.446 63.8058 378.251 63.8058 378.063C63.8058 377.876 63.8661 377.75 63.9867 377.686C64.1097 377.624 64.2561 377.642 64.4258 377.74C64.5956 377.838 64.7408 377.988 64.8613 378.191C64.9843 378.396 65.0458 378.592 65.0458 378.779C65.0458 378.967 64.9843 379.092 64.8613 379.154C64.7408 379.218 64.5956 379.201 64.4258 379.103ZM67.3201 384.473L67.3201 388.411L66.4491 387.908L66.4491 381.362L67.2906 381.848L67.2906 382.871L67.3644 382.913C67.4972 382.658 67.699 382.507 67.9696 382.462C68.2402 382.413 68.5896 382.513 69.0177 382.76C69.4015 382.982 69.7373 383.266 70.0252 383.614C70.313 383.96 70.5369 384.362 70.6968 384.82C70.8568 385.276 70.9367 385.783 70.9367 386.34L70.9367 390.499L70.0658 389.996L70.0658 385.905C70.0658 385.391 69.9501 384.923 69.7189 384.503C69.4876 384.08 69.1702 383.751 68.7667 383.519C68.4887 383.358 68.2402 383.284 68.0213 383.297C67.8048 383.311 67.6338 383.416 67.5083 383.61C67.3828 383.805 67.3201 384.092 67.3201 384.473ZM74.9049 392.926C74.3587 392.611 73.8875 392.199 73.4914 391.692C73.0978 391.184 72.7939 390.616 72.5799 389.99C72.3683 389.362 72.2625 388.713 72.2625 388.043C72.2625 387.372 72.3683 386.842 72.5799 386.453C72.7939 386.062 73.0916 385.834 73.473 385.767C73.8568 385.699 74.3046 385.812 74.8163 386.108C75.1115 386.278 75.4031 386.503 75.6909 386.783C75.9788 387.063 76.2408 387.399 76.477 387.791C76.7132 388.18 76.9014 388.624 77.0416 389.123C77.1819 389.621 77.252 390.176 77.252 390.787L77.252 391.213L72.8825 388.69L72.8825 387.821L76.3663 389.832C76.3663 389.463 76.3023 389.096 76.1744 388.733C76.0489 388.371 75.8693 388.038 75.6356 387.736C75.4043 387.435 75.1312 387.193 74.8163 387.011C74.4694 386.811 74.1692 386.737 73.9158 386.79C73.6649 386.841 73.4717 386.985 73.3364 387.222C73.2011 387.459 73.1335 387.758 73.1335 388.119L73.1335 388.699C73.1335 389.193 73.2073 389.655 73.3549 390.084C73.505 390.511 73.7129 390.891 73.9786 391.224C74.2443 391.553 74.5531 391.819 74.9049 392.023C75.1337 392.155 75.3403 392.237 75.5249 392.27C75.7119 392.301 75.873 392.28 76.0083 392.208C76.1436 392.133 76.2482 392.003 76.322 391.818L77.1634 392.577C77.0749 392.855 76.926 393.059 76.7169 393.188C76.5078 393.315 76.2494 393.359 75.9419 393.32C75.6344 393.279 75.2887 393.148 74.9049 392.926ZM81.6178 387.938L82.7102 388.569L85.2787 397.296L85.3673 397.347L87.9359 391.586L89.0282 392.217L89.0282 400.944L88.172 400.449L88.172 393.819L88.0982 393.776L85.7363 399.043L84.9097 398.566L82.5478 390.572L82.474 390.529L82.474 397.16L81.6178 396.665L81.6178 387.938ZM93.048 403.401C92.5363 403.106 92.0873 402.706 91.701 402.201C91.3172 401.699 91.0171 401.132 90.8006 400.501C90.5865 399.872 90.4795 399.219 90.4795 398.543C90.4795 397.861 90.5865 397.328 90.8006 396.943C91.0171 396.559 91.3172 396.338 91.701 396.278C92.0873 396.22 92.5363 396.338 93.048 396.634C93.5598 396.929 94.0076 397.329 94.3914 397.831C94.7776 398.336 95.0778 398.904 95.2918 399.536C95.5083 400.169 95.6166 400.827 95.6166 401.509C95.6166 402.185 95.5083 402.713 95.2918 403.094C95.0778 403.476 94.7776 403.696 94.3914 403.755C94.0076 403.814 93.5598 403.696 93.048 403.401ZM93.048 402.498C93.4368 402.722 93.7566 402.792 94.0076 402.706C94.2585 402.621 94.4443 402.426 94.5648 402.12C94.6854 401.815 94.7457 401.444 94.7457 401.006C94.7457 400.569 94.6854 400.126 94.5648 399.679C94.4443 399.231 94.2585 398.819 94.0076 398.441C93.7566 398.063 93.4368 397.762 93.048 397.537C92.6593 397.313 92.3395 397.245 92.0885 397.333C91.8376 397.421 91.6518 397.619 91.5313 397.927C91.4107 398.236 91.3504 398.608 91.3504 399.046C91.3504 399.483 91.4107 399.924 91.5313 400.369C91.6518 400.814 91.8376 401.223 92.0885 401.598C92.3395 401.973 92.6593 402.273 93.048 402.498ZM97.817 402.08L97.817 406.018L96.9461 405.515L96.9461 398.97L97.7875 399.455L97.7875 400.478L97.8613 400.521C97.9942 400.265 98.1959 400.115 98.4665 400.069C98.7372 400.021 99.0865 400.12 99.5146 400.367C99.8984 400.589 100.234 400.874 100.522 401.222C100.81 401.567 101.034 401.969 101.194 402.428C101.354 402.884 101.434 403.39 101.434 403.947L101.434 408.106L100.563 407.603L100.563 403.512C100.563 402.998 100.447 402.531 100.216 402.11C99.9846 401.687 99.6672 401.359 99.2637 401.126C98.9857 400.965 98.7372 400.892 98.5182 400.904C98.3017 400.919 98.1307 401.023 98.0052 401.218C97.8798 401.412 97.817 401.7 97.817 402.08ZM103.025 409.025L103.025 402.479L103.896 402.982L103.896 409.528L103.025 409.025ZM103.468 401.644C103.298 401.546 103.152 401.395 103.029 401.19C102.908 400.987 102.848 400.792 102.848 400.604C102.848 400.417 102.908 400.291 103.029 400.227C103.152 400.165 103.298 400.183 103.468 400.281C103.638 400.379 103.783 400.529 103.904 400.732C104.027 400.937 104.088 401.133 104.088 401.32C104.088 401.508 104.027 401.633 103.904 401.695C103.783 401.759 103.638 401.742 103.468 401.644ZM107.957 405.327L107.957 406.179L105.019 404.483L105.019 403.631L107.957 405.327ZM105.875 402.557L106.746 403.06L106.746 409.298C106.746 409.582 106.782 409.816 106.853 409.999C106.927 410.181 107.02 410.329 107.134 410.442C107.249 410.555 107.371 410.648 107.499 410.721C107.595 410.777 107.674 410.817 107.735 410.841C107.797 410.862 107.846 410.879 107.883 410.892L108.06 411.898C108.001 411.889 107.918 411.867 107.813 411.832C107.707 411.799 107.573 411.736 107.41 411.642C107.164 411.5 106.923 411.3 106.687 411.041C106.453 410.784 106.259 410.486 106.104 410.146C105.951 409.808 105.875 409.449 105.875 409.068L105.875 402.557ZM111.509 414.059C110.997 413.764 110.548 413.364 110.162 412.86C109.778 412.357 109.478 411.79 109.261 411.159C109.047 410.53 108.94 409.877 108.94 409.201C108.94 408.519 109.047 407.986 109.261 407.601C109.478 407.218 109.778 406.996 110.162 406.936C110.548 406.878 110.997 406.997 111.509 407.292C112.02 407.588 112.468 407.987 112.852 408.49C113.238 408.994 113.538 409.562 113.752 410.194C113.969 410.828 114.077 411.485 114.077 412.167C114.077 412.843 113.969 413.372 113.752 413.752C113.538 414.134 113.238 414.355 112.852 414.413C112.468 414.473 112.02 414.355 111.509 414.059ZM111.509 413.156C111.897 413.38 112.217 413.45 112.468 413.365C112.719 413.279 112.905 413.084 113.025 412.779C113.146 412.473 113.206 412.102 113.206 411.664C113.206 411.227 113.146 410.784 113.025 410.337C112.905 409.889 112.719 409.477 112.468 409.099C112.217 408.721 111.897 408.42 111.509 408.196C111.12 407.971 110.8 407.903 110.549 407.991C110.298 408.079 110.112 408.277 109.992 408.585C109.871 408.894 109.811 409.267 109.811 409.704C109.811 410.142 109.871 410.583 109.992 411.027C110.112 411.472 110.298 411.882 110.549 412.257C110.8 412.632 111.12 412.931 111.509 413.156ZM115.407 416.173L115.407 409.628L116.248 410.114L116.248 411.102L116.307 411.136C116.41 410.872 116.597 410.717 116.868 410.672C117.139 410.626 117.444 410.702 117.783 410.898C117.847 410.935 117.927 410.982 118.023 411.041C118.119 411.099 118.192 411.145 118.241 411.179L118.241 412.202C118.211 412.176 118.144 412.124 118.038 412.046C117.935 411.967 117.825 411.894 117.709 411.827C117.434 411.668 117.188 411.592 116.971 411.601C116.757 411.608 116.588 411.692 116.462 411.852C116.339 412.011 116.278 412.239 116.278 412.534L116.278 416.676L115.407 416.173ZM119.273 418.406L119.273 411.86L120.144 412.363L120.144 418.909L119.273 418.406ZM119.716 411.025C119.546 410.927 119.4 410.776 119.277 410.571C119.156 410.368 119.096 410.173 119.096 409.985C119.096 409.798 119.156 409.672 119.277 409.608C119.4 409.546 119.546 409.563 119.716 409.661C119.886 409.759 120.031 409.91 120.152 410.113C120.275 410.318 120.336 410.514 120.336 410.701C120.336 410.889 120.275 411.014 120.152 411.076C120.031 411.14 119.886 411.123 119.716 411.025ZM122.61 416.395L122.61 420.332L121.739 419.83L121.739 413.284L122.581 413.77L122.581 414.793L122.655 414.835C122.788 414.58 122.989 414.429 123.26 414.384C123.531 414.335 123.88 414.435 124.308 414.682C124.692 414.903 125.028 415.188 125.315 415.536C125.603 415.881 125.827 416.283 125.987 416.742C126.147 417.198 126.227 417.705 126.227 418.261L126.227 422.421L125.356 421.918L125.356 417.827C125.356 417.313 125.24 416.845 125.009 416.425C124.778 416.001 124.461 415.673 124.057 415.44C123.779 415.28 123.531 415.206 123.312 415.219C123.095 415.233 122.924 415.337 122.799 415.532C122.673 415.727 122.61 416.014 122.61 416.395ZM130.107 427.251C129.686 427.008 129.324 426.737 129.022 426.437C128.719 426.141 128.467 425.833 128.265 425.515C128.066 425.201 127.907 424.896 127.789 424.601L128.483 424.439C128.562 424.604 128.661 424.797 128.782 425.02C128.902 425.246 129.067 425.476 129.276 425.711C129.488 425.949 129.765 426.168 130.107 426.365C130.564 426.629 130.942 426.719 131.24 426.636C131.537 426.552 131.686 426.237 131.686 425.692L131.686 424.362L131.612 424.319C131.548 424.402 131.457 424.497 131.339 424.605C131.224 424.712 131.056 424.77 130.837 424.78C130.621 424.788 130.328 424.686 129.959 424.473C129.501 424.209 129.091 423.846 128.726 423.386C128.365 422.927 128.078 422.398 127.867 421.799C127.657 421.201 127.553 420.561 127.553 419.879C127.553 419.209 127.655 418.684 127.859 418.305C128.063 417.922 128.347 417.7 128.712 417.638C129.076 417.572 129.496 417.677 129.974 417.953C130.343 418.166 130.636 418.406 130.852 418.673C131.071 418.939 131.238 419.194 131.354 419.44C131.472 419.685 131.563 419.882 131.627 420.033L131.716 420.084L131.716 419.044L132.557 419.53L132.557 426.263C132.557 426.825 132.446 427.219 132.225 427.443C132.006 427.672 131.711 427.761 131.339 427.712C130.97 427.666 130.559 427.513 130.107 427.251ZM130.077 423.638C130.426 423.839 130.722 423.918 130.963 423.872C131.204 423.827 131.387 423.667 131.513 423.393C131.638 423.118 131.701 422.74 131.701 422.257C131.701 421.785 131.639 421.334 131.516 420.902C131.393 420.47 131.211 420.082 130.97 419.739C130.729 419.395 130.431 419.121 130.077 418.916C129.708 418.703 129.401 418.633 129.154 418.707C128.911 418.783 128.728 418.967 128.605 419.259C128.484 419.553 128.424 419.922 128.424 420.365C128.424 420.819 128.485 421.257 128.608 421.677C128.734 422.096 128.918 422.476 129.162 422.815C129.408 423.153 129.713 423.427 130.077 423.638Z" fill="white"/>
<path d="M21.3008 264.697L21.6721 231.819L214.454 344.177C225.027 350.339 238.095 350.344 248.672 344.19L439.573 233.132V263.129C439.573 268.546 436.653 273.541 431.934 276.199L247.35 380.151C236.619 386.194 223.503 386.153 212.811 380.044L26.3389 273.492C23.188 271.692 21.2598 268.325 21.3008 264.697Z" fill="#101010"/>
<path d="M21.3008 264.697L21.6721 231.819L214.454 344.177C225.027 350.339 238.095 350.344 248.672 344.19L439.573 233.132V263.129C439.573 268.546 436.653 273.541 431.934 276.199L247.35 380.151C236.619 386.194 223.503 386.153 212.811 380.044L26.3389 273.492C23.188 271.692 21.2598 268.325 21.3008 264.697Z" fill="url(#paint3_linear_1421_3856)"/>
<path d="M21.3008 264.697L21.6721 231.819L214.454 344.177C225.027 350.339 238.095 350.344 248.672 344.19L439.573 233.132V263.129C439.573 268.546 436.653 273.541 431.934 276.199L247.35 380.151C236.619 386.194 223.503 386.153 212.811 380.044L26.3389 273.492C23.188 271.692 21.2598 268.325 21.3008 264.697Z" stroke="#404040"/>
<path d="M247.351 111.629L436.294 220.054C442.31 223.507 442.324 232.18 436.319 235.652L249.456 343.672C238.988 349.723 226.094 349.76 215.592 343.768L25.603 235.377C19.5464 231.921 19.5503 223.188 25.61 219.738L215.592 111.575C225.441 105.968 237.521 105.988 247.351 111.629Z" fill="#131313" stroke="#404040"/>
<path d="M37.1652 258.306L38.2576 258.937L40.8262 267.664L40.9147 267.715L43.4833 261.954L44.5757 262.585L44.5757 271.312L43.7195 270.818L43.7195 264.187L43.6457 264.144L41.2838 269.411L40.4571 268.934L38.0952 260.94L38.0214 260.897L38.0214 267.528L37.1652 267.034L37.1652 258.306ZM47.9607 273.42C47.6015 273.212 47.2755 272.946 46.9827 272.621C46.69 272.293 46.4575 271.93 46.2853 271.532C46.113 271.131 46.0269 270.718 46.0269 270.292C46.0269 269.917 46.0909 269.65 46.2188 269.491C46.3468 269.329 46.5178 269.243 46.7318 269.233C46.9458 269.223 47.182 269.26 47.4404 269.344C47.7012 269.426 47.9632 269.523 48.2264 269.636C48.5709 269.783 48.8501 269.906 49.0642 270.004C49.2807 270.101 49.4381 270.145 49.5365 270.136C49.6374 270.129 49.6878 270.045 49.6878 269.883L49.6878 269.849C49.6878 269.428 49.5882 269.044 49.3889 268.696C49.1921 268.349 48.8932 268.06 48.4921 267.829C48.0764 267.589 47.7504 267.506 47.5142 267.58C47.278 267.653 47.1119 267.782 47.016 267.965L46.1893 267.147C46.3369 266.834 46.5337 266.638 46.7798 266.559C47.0283 266.478 47.2989 266.478 47.5917 266.559C47.8869 266.638 48.1772 266.761 48.4626 266.925C48.6447 267.031 48.8538 267.177 49.09 267.364C49.3286 267.55 49.5587 267.784 49.7801 268.065C50.004 268.348 50.1897 268.687 50.3374 269.082C50.485 269.477 50.5588 269.934 50.5588 270.454L50.5588 274.766L49.6878 274.263L49.6878 273.377L49.6436 273.352C49.5845 273.459 49.4861 273.555 49.3483 273.637C49.2105 273.719 49.0273 273.751 48.7984 273.733C48.5696 273.714 48.2904 273.61 47.9607 273.42ZM48.0936 272.593C48.438 272.792 48.7283 272.881 48.9645 272.861C49.2032 272.843 49.3828 272.745 49.5033 272.567C49.6263 272.391 49.6878 272.167 49.6878 271.894L49.6878 270.974C49.6509 271.004 49.5698 271.004 49.4443 270.974C49.3213 270.942 49.1786 270.896 49.0162 270.833C48.8563 270.769 48.7 270.705 48.5475 270.639C48.3974 270.572 48.2756 270.519 48.1821 270.479C47.9558 270.383 47.7442 270.316 47.5474 270.279C47.353 270.241 47.1956 270.262 47.075 270.343C46.9569 270.423 46.8979 270.59 46.8979 270.846C46.8979 271.195 47.0098 271.524 47.2337 271.832C47.46 272.139 47.7467 272.393 48.0936 272.593ZM54.6137 270.562L54.6137 271.414L51.6761 269.718L51.6761 268.866L54.6137 270.562ZM52.5323 267.792L53.4032 268.295L53.4032 274.534C53.4032 274.818 53.4389 275.051 53.5102 275.235C53.584 275.416 53.6775 275.564 53.7907 275.678C53.9063 275.79 54.0281 275.883 54.1561 275.957C54.252 276.012 54.3307 276.052 54.3922 276.076C54.4538 276.097 54.503 276.115 54.5399 276.127L54.717 277.133C54.658 277.124 54.5755 277.102 54.4697 277.067C54.364 277.034 54.2299 276.971 54.0675 276.877C53.8215 276.735 53.5803 276.535 53.3442 276.276C53.1104 276.019 52.9161 275.721 52.7611 275.382C52.6085 275.043 52.5323 274.684 52.5323 274.303L52.5323 267.792ZM58.2395 279.337C57.6934 279.022 57.2222 278.611 56.8261 278.103C56.4325 277.595 56.1286 277.027 55.9146 276.401C55.703 275.773 55.5972 275.124 55.5972 274.454C55.5972 273.783 55.703 273.253 55.9146 272.864C56.1286 272.474 56.4263 272.245 56.8076 272.178C57.1915 272.11 57.6392 272.224 58.151 272.519C58.4462 272.689 58.7378 272.915 59.0256 273.194C59.3135 273.474 59.5755 273.81 59.8117 274.202C60.0479 274.591 60.2361 275.035 60.3763 275.534C60.5165 276.032 60.5867 276.587 60.5867 277.198L60.5867 277.624L56.2172 275.101L56.2172 274.232L59.701 276.243C59.701 275.874 59.637 275.508 59.5091 275.144C59.3836 274.782 59.204 274.449 58.9702 274.147C58.739 273.846 58.4659 273.604 58.151 273.422C57.8041 273.222 57.5039 273.148 57.2505 273.201C56.9995 273.252 56.8064 273.396 56.6711 273.633C56.5358 273.871 56.4681 274.17 56.4681 274.53L56.4681 275.11C56.4681 275.604 56.5419 276.066 56.6896 276.495C56.8396 276.922 57.0475 277.302 57.3132 277.635C57.579 277.964 57.8877 278.231 58.2395 278.434C58.4683 278.566 58.675 278.648 58.8595 278.681C59.0465 278.712 59.2077 278.692 59.343 278.619C59.4783 278.544 59.5829 278.414 59.6567 278.229L60.4981 278.988C60.4095 279.266 60.2607 279.47 60.0516 279.599C59.8424 279.726 59.5841 279.77 59.2766 279.731C58.969 279.69 58.6233 279.559 58.2395 279.337ZM61.9115 281.321L61.9115 274.775L62.753 275.261L62.753 276.25L62.812 276.284C62.9153 276.02 63.1023 275.865 63.373 275.819C63.6436 275.774 63.9487 275.849 64.2882 276.045C64.3522 276.082 64.4321 276.13 64.5281 276.188C64.624 276.246 64.6966 276.292 64.7458 276.327L64.7458 277.349C64.7163 277.324 64.6486 277.272 64.5428 277.194C64.4395 277.114 64.33 277.041 64.2144 276.974C63.9388 276.815 63.6928 276.74 63.4763 276.748C63.2622 276.755 63.0925 276.839 62.967 277C62.844 277.159 62.7825 277.386 62.7825 277.682L62.7825 281.824L61.9115 281.321ZM65.7782 283.553L65.7782 277.008L66.6492 277.511L66.6492 284.056L65.7782 283.553ZM66.2211 276.173C66.0513 276.075 65.9049 275.923 65.7819 275.719C65.6613 275.516 65.6011 275.32 65.6011 275.133C65.6011 274.945 65.6613 274.82 65.7819 274.756C65.9049 274.693 66.0513 274.711 66.2211 274.809C66.3908 274.907 66.536 275.058 66.6565 275.261C66.7795 275.465 66.8411 275.661 66.8411 275.849C66.8411 276.036 66.7795 276.161 66.6565 276.224C66.536 276.288 66.3908 276.271 66.2211 276.173ZM69.9124 286.094C69.5532 285.886 69.2272 285.62 68.9345 285.295C68.6417 284.966 68.4092 284.603 68.237 284.206C68.0647 283.805 67.9786 283.392 67.9786 282.966C67.9786 282.591 68.0426 282.324 68.1705 282.165C68.2985 282.003 68.4695 281.917 68.6835 281.907C68.8976 281.897 69.1337 281.934 69.3921 282.018C69.6529 282.1 69.9149 282.197 70.1781 282.309C70.5226 282.457 70.8018 282.58 71.0159 282.678C71.2324 282.775 71.3898 282.819 71.4883 282.81C71.5891 282.803 71.6396 282.719 71.6396 282.557L71.6396 282.523C71.6396 282.102 71.5399 281.718 71.3406 281.37C71.1438 281.023 70.8449 280.734 70.4439 280.503C70.0281 280.263 69.7021 280.179 69.4659 280.253C69.2297 280.327 69.0636 280.456 68.9677 280.639L68.141 279.821C68.2886 279.508 68.4855 279.312 68.7315 279.233C68.98 279.152 69.2506 279.152 69.5434 279.233C69.8386 279.312 70.1289 279.434 70.4143 279.599C70.5964 279.704 70.8055 279.851 71.0417 280.038C71.2804 280.224 71.5104 280.458 71.7318 280.739C71.9557 281.022 72.1415 281.361 72.2891 281.755C72.4367 282.15 72.5105 282.608 72.5105 283.128L72.5105 287.44L71.6396 286.937L71.6396 286.051L71.5953 286.025C71.5362 286.133 71.4378 286.228 71.3 286.311C71.1623 286.393 70.979 286.425 70.7502 286.407C70.5214 286.388 70.2421 286.284 69.9124 286.094ZM70.0453 285.267C70.3897 285.466 70.68 285.555 70.9162 285.535C71.1549 285.517 71.3345 285.419 71.455 285.241C71.5781 285.065 71.6396 284.841 71.6396 284.568L71.6396 283.648C71.6027 283.677 71.5215 283.677 71.396 283.648C71.273 283.616 71.1303 283.569 70.9679 283.507C70.808 283.443 70.6518 283.378 70.4992 283.313C70.3491 283.246 70.2273 283.193 70.1339 283.153C69.9075 283.057 69.6959 282.99 69.4991 282.953C69.3047 282.915 69.1473 282.936 69.0267 283.017C68.9086 283.096 68.8496 283.264 68.8496 283.52C68.8496 283.869 68.9615 284.198 69.1854 284.506C69.4118 284.813 69.6984 285.067 70.0453 285.267ZM74.9711 280.134L74.9711 288.861L74.1002 288.358L74.1002 279.631L74.9711 280.134ZM80.5815 287.02L79.7991 286.824C79.7499 286.645 79.6774 286.457 79.5814 286.26C79.4879 286.061 79.36 285.868 79.1976 285.68C79.0352 285.493 78.8273 285.326 78.5739 285.179C78.227 284.979 77.9379 284.905 77.7067 284.956C77.4779 285.005 77.3634 285.171 77.3634 285.452C77.3634 285.702 77.4422 285.945 77.5996 286.181C77.7571 286.417 78.0031 286.679 78.3377 286.969L79.1791 287.694C79.686 288.128 80.0636 288.564 80.3121 289C80.5606 289.433 80.6849 289.878 80.6849 290.336C80.6849 290.711 80.5914 290.992 80.4044 291.179C80.2199 291.368 79.9615 291.452 79.6294 291.431C79.2972 291.41 78.911 291.272 78.4706 291.018C77.8924 290.684 77.4139 290.263 77.035 289.754C76.6561 289.246 76.4162 288.684 76.3154 288.069L77.142 288.307C77.2208 288.705 77.3696 289.055 77.5886 289.358C77.81 289.662 78.0991 289.917 78.4558 290.123C78.8618 290.357 79.1841 290.444 79.4227 290.383C79.6638 290.32 79.7844 290.148 79.7844 289.867C79.7844 289.64 79.7155 289.41 79.5777 289.177C79.4399 288.941 79.2284 288.702 78.943 288.461L77.9982 287.66C77.4791 287.218 77.0977 286.777 76.8542 286.339C76.6131 285.898 76.4925 285.452 76.4925 285.001C76.4925 284.631 76.5823 284.356 76.7619 284.176C76.944 283.997 77.1912 283.917 77.5037 283.935C77.8186 283.955 78.1753 284.08 78.5739 284.31C79.1349 284.634 79.5753 285.03 79.8951 285.499C80.2174 285.969 80.4462 286.476 80.5815 287.02ZM87.0592 295.959C86.5622 295.672 86.1341 295.32 85.7749 294.902C85.4157 294.485 85.1389 294.037 84.9446 293.558C84.7502 293.079 84.653 292.604 84.653 292.132C84.653 291.769 84.7194 291.485 84.8523 291.28C84.9876 291.074 85.1734 290.919 85.4095 290.814C85.6482 290.707 85.9225 290.621 86.2325 290.556L87.3249 290.249C87.5389 290.211 87.7099 290.136 87.8379 290.025C87.9683 289.916 88.0335 289.712 88.0335 289.414C88.0335 289.192 87.9486 288.929 87.7788 288.623C87.6115 288.319 87.3913 288.088 87.1182 287.931C86.9263 287.82 86.7566 287.779 86.6089 287.807C86.4638 287.834 86.3494 287.91 86.2657 288.035C86.1845 288.159 86.1439 288.311 86.1439 288.493C86.1439 288.698 86.1919 288.933 86.2879 289.198C86.3863 289.463 86.5105 289.747 86.6606 290.053C86.8132 290.357 86.9706 290.669 87.133 290.99L90.602 297.885L89.5539 297.28L86.6901 291.638C86.4244 291.115 86.1833 290.641 85.9668 290.215C85.7503 289.789 85.5781 289.392 85.4501 289.026C85.3222 288.659 85.2582 288.306 85.2582 287.965C85.2582 287.573 85.3333 287.272 85.4834 287.064C85.6359 286.853 85.8487 286.745 86.1218 286.738C86.3974 286.729 86.7197 286.831 87.0887 287.044C87.4676 287.263 87.7936 287.537 88.0667 287.865C88.3398 288.19 88.5501 288.534 88.6977 288.898C88.8454 289.259 88.9192 289.601 88.9192 289.925C88.9192 290.343 88.8294 290.653 88.6498 290.856C88.4702 291.059 88.2254 291.203 87.9154 291.289L86.4097 291.715C86.0701 291.809 85.8401 291.957 85.7195 292.16C85.599 292.363 85.5387 292.524 85.5387 292.644C85.5387 292.917 85.6002 293.206 85.7232 293.513C85.8463 293.82 86.0197 294.11 86.2436 294.385C86.4675 294.659 86.7295 294.882 87.0297 295.056C87.3151 295.221 87.5931 295.311 87.8637 295.328C88.1343 295.343 88.3791 295.279 88.5981 295.139C88.8195 295 88.9942 294.779 89.1221 294.478C89.2525 294.179 89.3177 293.794 89.3177 293.326L90.1592 293.811C90.1592 294.391 90.1013 294.831 89.9857 295.13C89.8701 295.43 89.7397 295.642 89.5945 295.765C89.4494 295.889 89.3325 295.976 89.2439 296.027C89.2144 296.053 89.1873 296.08 89.1627 296.108C89.1381 296.137 89.1111 296.164 89.0815 296.189C88.838 296.364 88.5304 296.422 88.1589 296.364C87.7874 296.303 87.4208 296.168 87.0592 295.959ZM95.5223 291.999L95.5223 300.726L94.6071 300.198L94.6071 291.47L95.5223 291.999ZM98.1102 298.283L98.1102 302.22L97.2393 301.717L97.2393 295.172L98.0807 295.658L98.0807 296.68L98.1545 296.723C98.2874 296.467 98.4891 296.317 98.7597 296.271C99.0304 296.223 99.3797 296.322 99.8078 296.57C100.192 296.791 100.527 297.076 100.815 297.424C101.103 297.769 101.327 298.171 101.487 298.63C101.647 299.086 101.727 299.592 101.727 300.149L101.727 304.308L100.856 303.805L100.856 299.714C100.856 299.2 100.74 298.733 100.509 298.312C100.278 297.889 99.9604 297.561 99.5569 297.328C99.2789 297.168 99.0304 297.094 98.8114 297.107C98.5949 297.121 98.4239 297.225 98.2984 297.42C98.173 297.614 98.1102 297.902 98.1102 298.283ZM107.751 301.241L105.654 306.576L104.769 306.064L102.673 298.309L103.617 298.854L105.182 304.974L105.241 305.008L106.806 300.695L107.751 301.241ZM111.074 309.841C110.528 309.526 110.057 309.115 109.66 308.607C109.267 308.099 108.963 307.531 108.749 306.905C108.537 306.277 108.431 305.628 108.431 304.958C108.431 304.287 108.537 303.757 108.749 303.368C108.963 302.977 109.261 302.749 109.642 302.682C110.026 302.614 110.474 302.727 110.985 303.023C111.281 303.193 111.572 303.418 111.86 303.698C112.148 303.978 112.41 304.314 112.646 304.706C112.882 305.095 113.07 305.539 113.211 306.038C113.351 306.536 113.421 307.091 113.421 307.702L113.421 308.128L109.051 305.605L109.051 304.736L112.535 306.747C112.535 306.378 112.471 306.012 112.343 305.648C112.218 305.286 112.038 304.953 111.805 304.651C111.573 304.35 111.3 304.108 110.985 303.926C110.638 303.726 110.338 303.652 110.085 303.705C109.834 303.756 109.641 303.9 109.505 304.137C109.37 304.374 109.302 304.673 109.302 305.034L109.302 305.614C109.302 306.108 109.376 306.57 109.524 306.999C109.674 307.426 109.882 307.806 110.148 308.139C110.413 308.468 110.722 308.735 111.074 308.938C111.303 309.07 111.509 309.152 111.694 309.185C111.881 309.216 112.042 309.195 112.177 309.123C112.313 309.048 112.417 308.918 112.491 308.733L113.332 309.492C113.244 309.77 113.095 309.974 112.886 310.103C112.677 310.23 112.418 310.274 112.111 310.235C111.803 310.194 111.458 310.063 111.074 309.841ZM115.617 308.39L115.617 312.328L114.746 311.825L114.746 305.279L115.587 305.765L115.587 306.788L115.661 306.83C115.794 306.575 115.996 306.424 116.266 306.379C116.537 306.33 116.886 306.43 117.314 306.677C117.698 306.899 118.034 307.183 118.322 307.531C118.61 307.877 118.834 308.279 118.994 308.737C119.153 309.193 119.233 309.7 119.233 310.257L119.233 314.416L118.362 313.913L118.362 309.822C118.362 309.308 118.247 308.84 118.016 308.42C117.784 307.997 117.467 307.668 117.063 307.436C116.785 307.275 116.537 307.201 116.318 307.214C116.101 307.228 115.93 307.333 115.805 307.527C115.68 307.722 115.617 308.009 115.617 308.39ZM123.29 310.212L123.29 311.065L120.353 309.369L120.353 308.516L123.29 310.212ZM121.209 307.442L122.08 307.945L122.08 314.184C122.08 314.468 122.115 314.702 122.187 314.885C122.261 315.067 122.354 315.214 122.467 315.328C122.583 315.44 122.705 315.533 122.833 315.607C122.929 315.663 123.007 315.702 123.069 315.727C123.13 315.748 123.179 315.765 123.216 315.778L123.393 316.783C123.334 316.775 123.252 316.753 123.146 316.717C123.04 316.685 122.906 316.621 122.744 316.528C122.498 316.386 122.257 316.185 122.021 315.927C121.787 315.67 121.593 315.371 121.438 315.032C121.285 314.694 121.209 314.334 121.209 313.954L121.209 307.442ZM126.842 318.945C126.33 318.649 125.881 318.25 125.495 317.745C125.111 317.243 124.811 316.676 124.595 316.045C124.381 315.416 124.274 314.763 124.274 314.087C124.274 313.405 124.381 312.872 124.595 312.487C124.811 312.103 125.111 311.882 125.495 311.822C125.881 311.764 126.33 311.882 126.842 312.178C127.354 312.473 127.802 312.872 128.186 313.375C128.572 313.88 128.872 314.448 129.086 315.08C129.303 315.713 129.411 316.371 129.411 317.053C129.411 317.729 129.303 318.257 129.086 318.638C128.872 319.02 128.572 319.24 128.186 319.299C127.802 319.358 127.354 319.24 126.842 318.945ZM126.842 318.042C127.231 318.266 127.551 318.336 127.802 318.25C128.053 318.165 128.238 317.97 128.359 317.664C128.48 317.359 128.54 316.988 128.54 316.55C128.54 316.113 128.48 315.67 128.359 315.223C128.238 314.775 128.053 314.363 127.802 313.985C127.551 313.607 127.231 313.306 126.842 313.081C126.453 312.857 126.134 312.789 125.883 312.877C125.632 312.965 125.446 313.163 125.325 313.471C125.205 313.779 125.145 314.152 125.145 314.59C125.145 315.027 125.205 315.468 125.325 315.913C125.446 316.358 125.632 316.767 125.883 317.142C126.134 317.517 126.453 317.817 126.842 318.042ZM130.74 321.059L130.74 314.514L131.582 314.999L131.582 315.988L131.641 316.022C131.744 315.758 131.931 315.603 132.202 315.558C132.472 315.512 132.777 315.588 133.117 315.784C133.181 315.82 133.261 315.868 133.357 315.926C133.453 315.985 133.525 316.031 133.575 316.065L133.575 317.088C133.545 317.062 133.477 317.01 133.372 316.932C133.268 316.852 133.159 316.779 133.043 316.713C132.768 316.553 132.522 316.478 132.305 316.487C132.091 316.494 131.921 316.578 131.796 316.738C131.673 316.897 131.611 317.124 131.611 317.42L131.611 321.562L130.74 321.059ZM135.34 326.17C135.193 326.084 135.061 325.994 134.946 325.899C134.83 325.807 134.75 325.735 134.706 325.684L134.927 324.925C135.139 325.11 135.326 325.241 135.488 325.317C135.65 325.394 135.794 325.393 135.92 325.315C136.048 325.241 136.165 325.069 136.27 324.797L136.433 324.38L134.337 316.59L135.281 317.135L136.846 323.255L136.905 323.289L138.47 318.976L139.415 319.522L137.008 325.633C136.9 325.908 136.766 326.111 136.606 326.24C136.446 326.372 136.261 326.431 136.049 326.417C135.84 326.404 135.604 326.322 135.34 326.17Z" fill="white"/>
<path d="M21.3008 161.328L21.6721 128.45L214.454 240.808C225.027 246.97 238.095 246.975 248.672 240.822L439.573 129.763V159.761C439.573 165.177 436.653 170.173 431.934 172.831L247.35 276.783C236.619 282.826 223.503 282.785 212.811 276.675L26.3389 170.123C23.188 168.323 21.2598 164.957 21.3008 161.328Z" fill="url(#paint4_linear_1421_3856)" stroke="#005F24"/>
<path d="M247.351 8.69092L436.294 117.116C442.31 120.568 442.324 129.242 436.319 132.714L249.456 240.733C238.988 246.785 226.094 246.821 215.592 240.83L25.603 132.438C19.5464 128.983 19.5503 120.25 25.61 116.8L215.592 8.63685C225.441 3.02941 237.521 3.04998 247.351 8.69092Z" fill="url(#paint5_linear_1421_3856)" stroke="#005F24"/>
<path d="M36.7998 162.403L36.7998 153.676L39.3536 155.15C39.9465 155.493 40.4312 155.896 40.8076 156.361C41.1865 156.824 41.467 157.317 41.6491 157.839C41.8311 158.362 41.9222 158.88 41.9222 159.395C41.9222 159.909 41.8311 160.324 41.6491 160.639C41.4695 160.956 41.1915 161.13 40.815 161.163C40.4386 161.193 39.9564 161.038 39.3684 160.699L37.5379 159.642L37.5379 158.704L39.3388 159.744C39.7448 159.978 40.0708 160.086 40.3168 160.066C40.5628 160.046 40.7412 159.93 40.8519 159.719C40.9651 159.505 41.0217 159.224 41.0217 158.875C41.0217 158.525 40.9651 158.18 40.8519 157.839C40.7412 157.5 40.5616 157.18 40.3131 156.88C40.0646 156.578 39.735 156.308 39.3241 156.071L37.7151 155.142L37.7151 162.932L36.7998 162.403ZM43.2784 166.144L43.2784 159.598L44.1198 160.084L44.1198 161.073L44.1789 161.107C44.2822 160.842 44.4692 160.688 44.7398 160.642C45.0105 160.597 45.3155 160.672 45.6551 160.868C45.719 160.905 45.799 160.953 45.8949 161.011C45.9909 161.069 46.0635 161.115 46.1127 161.149L46.1127 162.172C46.0831 162.146 46.0155 162.095 45.9097 162.016C45.8064 161.937 45.6969 161.864 45.5812 161.797C45.3057 161.638 45.0597 161.563 44.8432 161.571C44.6291 161.578 44.4593 161.662 44.3339 161.823C44.2109 161.982 44.1493 162.209 44.1493 162.504L44.1493 166.646L43.2784 166.144ZM49.2754 169.742C48.7636 169.447 48.3146 169.047 47.9284 168.543C47.5446 168.04 47.2444 167.473 47.0279 166.842C46.8139 166.213 46.7068 165.56 46.7068 164.884C46.7068 164.203 46.8139 163.669 47.0279 163.284C47.2444 162.901 47.5446 162.679 47.9284 162.619C48.3146 162.561 48.7636 162.68 49.2754 162.975C49.7871 163.271 50.2349 163.67 50.6187 164.173C51.005 164.677 51.3051 165.245 51.5192 165.877C51.7357 166.511 51.8439 167.168 51.8439 167.85C51.8439 168.526 51.7357 169.055 51.5192 169.435C51.3051 169.818 51.005 170.038 50.6187 170.096C50.2349 170.156 49.7871 170.038 49.2754 169.742ZM49.2754 168.839C49.6641 169.063 49.9839 169.133 50.2349 169.048C50.4858 168.962 50.6716 168.767 50.7922 168.462C50.9127 168.156 50.973 167.785 50.973 167.347C50.973 166.91 50.9127 166.467 50.7922 166.02C50.6716 165.573 50.4858 165.16 50.2349 164.782C49.9839 164.404 49.6641 164.103 49.2754 163.879C48.8867 163.654 48.5668 163.586 48.3159 163.674C48.0649 163.762 47.8792 163.96 47.7586 164.269C47.6381 164.577 47.5778 164.95 47.5778 165.387C47.5778 165.825 47.6381 166.266 47.7586 166.71C47.8792 167.155 48.0649 167.565 48.3159 167.94C48.5668 168.315 48.8867 168.614 49.2754 168.839ZM55.4763 173.322C54.9448 173.016 54.4872 172.606 54.1034 172.095C53.7196 171.584 53.4244 171.014 53.2177 170.386C53.011 169.758 52.9077 169.118 52.9077 168.464C52.9077 167.8 53.0135 167.274 53.2251 166.888C53.4391 166.5 53.7368 166.273 54.1182 166.206C54.502 166.138 54.9498 166.251 55.4615 166.547C55.8601 166.777 56.2193 167.07 56.5391 167.425C56.8589 167.78 57.121 168.17 57.3252 168.594C57.5294 169.019 57.6561 169.45 57.7053 169.888L56.8343 169.385C56.7679 169.048 56.6203 168.699 56.3915 168.337C56.1651 167.973 55.8601 167.68 55.4763 167.459C55.1367 167.263 54.839 167.193 54.5832 167.25C54.3298 167.305 54.1317 167.476 53.989 167.763C53.8488 168.049 53.7787 168.439 53.7787 168.933C53.7787 169.439 53.8475 169.919 53.9853 170.374C54.1256 170.829 54.3224 171.234 54.5758 171.588C54.8317 171.943 55.1318 172.22 55.4763 172.419C55.7026 172.55 55.908 172.623 56.0926 172.638C56.2771 172.654 56.4333 172.614 56.5613 172.517C56.6892 172.42 56.7802 172.268 56.8343 172.061L57.7053 172.564C57.6561 172.922 57.5343 173.2 57.3399 173.397C57.148 173.593 56.8934 173.69 56.576 173.689C56.2611 173.686 55.8945 173.564 55.4763 173.322ZM62.5509 174.594L62.5509 170.725L63.4218 171.228L63.4218 177.773L62.5509 177.271L62.5509 176.163L62.4918 176.128C62.3589 176.384 62.1523 176.548 61.8718 176.619C61.5913 176.687 61.2371 176.597 60.809 176.35C60.4547 176.146 60.1398 175.874 59.8642 175.536C59.5886 175.195 59.3721 174.798 59.2147 174.343C59.0572 173.886 58.9785 173.378 58.9785 172.822L58.9785 168.663L59.8494 169.165L59.8494 173.256C59.8494 173.734 59.9651 174.181 60.1963 174.599C60.4301 175.018 60.7278 175.332 61.0894 175.54C61.3059 175.665 61.5261 175.729 61.75 175.73C61.9764 175.733 62.1658 175.646 62.3184 175.47C62.4734 175.295 62.5509 175.003 62.5509 174.594ZM65.017 178.694L65.017 172.149L65.8584 172.635L65.8584 173.623L65.9175 173.657C66.0208 173.393 66.2078 173.238 66.4784 173.193C66.749 173.147 67.0541 173.223 67.3936 173.419C67.4576 173.456 67.5376 173.503 67.6335 173.562C67.7295 173.62 67.8021 173.666 67.8513 173.7L67.8513 174.723C67.8217 174.697 67.7541 174.645 67.6483 174.567C67.545 174.488 67.4355 174.415 67.3198 174.348C67.0443 174.189 66.7982 174.113 66.5817 174.122C66.3677 174.129 66.1979 174.213 66.0725 174.373C65.9494 174.532 65.8879 174.76 65.8879 175.055L65.8879 179.197L65.017 178.694ZM71.0878 182.336C70.5416 182.02 70.0704 181.609 69.6743 181.102C69.2807 180.594 68.9768 180.026 68.7628 179.4C68.5512 178.772 68.4454 178.123 68.4454 177.452C68.4454 176.782 68.5512 176.252 68.7628 175.863C68.9768 175.472 69.2745 175.243 69.6559 175.177C70.0397 175.108 70.4875 175.222 70.9992 175.518C71.2944 175.688 71.586 175.913 71.8738 176.193C72.1617 176.473 72.4237 176.809 72.6599 177.201C72.8961 177.59 73.0843 178.034 73.2246 178.532C73.3648 179.031 73.4349 179.586 73.4349 180.196L73.4349 180.623L69.0654 178.1L69.0654 177.231L72.5492 179.242C72.5492 178.873 72.4852 178.506 72.3573 178.143C72.2318 177.78 72.0522 177.448 71.8185 177.145C71.5872 176.844 71.3141 176.603 70.9992 176.421C70.6523 176.221 70.3522 176.147 70.0987 176.199C69.8478 176.25 69.6547 176.395 69.5193 176.632C69.384 176.869 69.3164 177.168 69.3164 177.529L69.3164 178.108C69.3164 178.603 69.3902 179.064 69.5378 179.493C69.6879 179.921 69.8958 180.301 70.1615 180.633C70.4272 180.963 70.736 181.229 71.0878 181.432C71.3166 181.564 71.5233 181.647 71.7078 181.679C71.8948 181.711 72.0559 181.69 72.1912 181.618C72.3265 181.542 72.4311 181.412 72.5049 181.228L73.3463 181.986C73.2578 182.265 73.1089 182.469 72.8998 182.598C72.6907 182.724 72.4323 182.768 72.1248 182.73C71.8173 182.689 71.4716 182.557 71.0878 182.336ZM74.7598 184.319L74.7598 177.774L75.6012 178.26L75.6012 179.282L75.675 179.325C75.7931 179.044 75.9838 178.883 76.247 178.841C76.5103 178.797 76.8264 178.882 77.1955 179.095C77.5694 179.311 77.8807 179.589 78.1292 179.928C78.3801 180.266 78.5757 180.65 78.7159 181.081L78.775 181.115C78.9201 180.861 79.1379 180.718 79.4282 180.687C79.7185 180.652 80.0666 180.753 80.4726 180.987C80.9794 181.28 81.394 181.702 81.7163 182.255C82.0386 182.804 82.1997 183.464 82.1997 184.234L82.1997 188.615L81.3288 188.112L81.3288 183.731C81.3288 183.248 81.2144 182.837 80.9856 182.498C80.7568 182.158 80.4874 181.899 80.1774 181.72C79.7788 181.49 79.47 181.451 79.2511 181.603C79.0321 181.752 78.9226 182.038 78.9226 182.461L78.9226 186.723L78.0369 186.211L78.0369 181.728C78.0369 181.356 77.9323 180.996 77.7232 180.648C77.5141 180.297 77.2447 180.027 76.915 179.836C76.6887 179.706 76.4771 179.653 76.2802 179.679C76.0859 179.706 75.9284 179.808 75.8079 179.986C75.6898 180.162 75.6307 180.41 75.6307 180.731L75.6307 184.822L74.7598 184.319ZM86.1688 191.043C85.6226 190.727 85.1515 190.316 84.7554 189.809C84.3617 189.301 84.0579 188.733 83.8438 188.107C83.6322 187.479 83.5264 186.83 83.5264 186.159C83.5264 185.489 83.6322 184.959 83.8438 184.57C84.0579 184.179 84.3556 183.95 84.7369 183.884C85.1207 183.815 85.5685 183.929 86.0802 184.225C86.3755 184.395 86.667 184.62 86.9549 184.9C87.2427 185.18 87.5047 185.516 87.7409 185.908C87.9771 186.297 88.1653 186.741 88.3056 187.239C88.4458 187.738 88.5159 188.293 88.5159 188.904L88.5159 189.33L84.1464 186.807L84.1464 185.938L87.6302 187.949C87.6302 187.58 87.5663 187.213 87.4383 186.85C87.3128 186.487 87.1332 186.155 86.8995 185.852C86.6682 185.551 86.3951 185.31 86.0802 185.128C85.7333 184.928 85.4332 184.854 85.1798 184.906C84.9288 184.957 84.7357 185.102 84.6004 185.339C84.465 185.576 84.3974 185.875 84.3974 186.236L84.3974 186.815C84.3974 187.31 84.4712 187.771 84.6188 188.2C84.7689 188.628 84.9768 189.008 85.2425 189.34C85.5082 189.67 85.817 189.936 86.1688 190.139C86.3976 190.271 86.6043 190.354 86.7888 190.386C86.9758 190.418 87.1369 190.397 87.2722 190.325C87.4076 190.249 87.5121 190.119 87.5859 189.935L88.4274 190.693C88.3388 190.972 88.1899 191.176 87.9808 191.305C87.7717 191.431 87.5134 191.475 87.2058 191.437C86.8983 191.396 86.5526 191.264 86.1688 191.043ZM90.7117 189.592L90.7117 193.529L89.8408 193.026L89.8408 186.481L90.6822 186.967L90.6822 187.989L90.756 188.032C90.8889 187.776 91.0906 187.626 91.3613 187.58C91.6319 187.532 91.9813 187.632 92.4094 187.879C92.7932 188.1 93.129 188.385 93.4168 188.733C93.7047 189.078 93.9286 189.48 94.0885 189.939C94.2484 190.395 94.3284 190.901 94.3284 191.458L94.3284 195.617L93.4574 195.114L93.4574 191.024C93.4574 190.509 93.3418 190.042 93.1105 189.622C92.8793 189.198 92.5619 188.87 92.1584 188.637C91.8804 188.477 91.6319 188.403 91.4129 188.416C91.1964 188.43 91.0254 188.534 90.9 188.729C90.7745 188.923 90.7117 189.211 90.7117 189.592ZM98.3851 191.414L98.3851 192.266L95.4475 190.57L95.4475 189.718L98.3851 191.414ZM96.3037 188.644L97.1746 189.147L97.1746 195.386C97.1746 195.67 97.2103 195.903 97.2817 196.087C97.3555 196.268 97.449 196.416 97.5621 196.53C97.6778 196.642 97.7996 196.735 97.9275 196.809C98.0234 196.864 98.1022 196.904 98.1637 196.928C98.2252 196.95 98.2744 196.967 98.3113 196.979L98.4884 197.985C98.4294 197.976 98.347 197.954 98.2412 197.919C98.1354 197.886 98.0013 197.823 97.8389 197.729C97.5929 197.587 97.3518 197.387 97.1156 197.128C96.8819 196.871 96.6875 196.573 96.5325 196.234C96.38 195.896 96.3037 195.536 96.3037 195.155L96.3037 188.644ZM104.759 201.758C104.262 201.472 103.833 201.119 103.474 200.702C103.115 200.284 102.838 199.836 102.644 199.357C102.45 198.878 102.352 198.403 102.352 197.932C102.352 197.568 102.419 197.284 102.552 197.079C102.687 196.874 102.873 196.718 103.109 196.613C103.348 196.506 103.622 196.42 103.932 196.355L105.024 196.048C105.238 196.01 105.409 195.935 105.537 195.825C105.668 195.715 105.733 195.511 105.733 195.213C105.733 194.991 105.648 194.728 105.478 194.423C105.311 194.119 105.091 193.888 104.818 193.73C104.626 193.619 104.456 193.578 104.308 193.606C104.163 193.633 104.049 193.709 103.965 193.834C103.884 193.958 103.843 194.111 103.843 194.293C103.843 194.497 103.891 194.732 103.987 194.998C104.086 195.262 104.21 195.547 104.36 195.852C104.512 196.156 104.67 196.469 104.832 196.79L108.301 203.685L107.253 203.079L104.389 197.437C104.124 196.915 103.883 196.44 103.666 196.014C103.45 195.588 103.277 195.192 103.149 194.825C103.022 194.459 102.958 194.105 102.958 193.764C102.958 193.372 103.033 193.072 103.183 192.863C103.335 192.653 103.548 192.544 103.821 192.537C104.097 192.528 104.419 192.631 104.788 192.844C105.167 193.062 105.493 193.336 105.766 193.664C106.039 193.989 106.249 194.334 106.397 194.697C106.545 195.058 106.619 195.401 106.619 195.724C106.619 196.142 106.529 196.452 106.349 196.655C106.169 196.859 105.925 197.003 105.615 197.088L104.109 197.514C103.769 197.608 103.539 197.756 103.419 197.959C103.298 198.163 103.238 198.324 103.238 198.443C103.238 198.716 103.3 199.006 103.423 199.312C103.546 199.619 103.719 199.91 103.943 200.184C104.167 200.458 104.429 200.682 104.729 200.855C105.014 201.02 105.292 201.111 105.563 201.128C105.834 201.142 106.078 201.079 106.297 200.938C106.519 200.799 106.694 200.579 106.821 200.278C106.952 199.978 107.017 199.594 107.017 199.125L107.858 199.611C107.858 200.19 107.801 200.63 107.685 200.93C107.569 201.229 107.439 201.441 107.294 201.565C107.149 201.688 107.032 201.776 106.943 201.827C106.914 201.852 106.887 201.879 106.862 201.908C106.837 201.936 106.81 201.963 106.781 201.989C106.537 202.163 106.23 202.222 105.858 202.163C105.487 202.102 105.12 201.967 104.759 201.758ZM116.44 201.838C116.395 201.38 116.216 200.942 115.901 200.521C115.586 200.101 115.2 199.758 114.742 199.494C114.408 199.301 114.115 199.194 113.864 199.174C113.615 199.156 113.421 199.216 113.281 199.353C113.143 199.493 113.074 199.701 113.074 199.98C113.074 200.213 113.122 200.441 113.218 200.664C113.316 200.885 113.442 201.096 113.594 201.294C113.747 201.491 113.907 201.672 114.074 201.84C114.241 202.005 114.395 202.149 114.535 202.272L115.303 202.954C115.5 203.128 115.719 203.336 115.96 203.581C116.204 203.826 116.436 204.104 116.657 204.414C116.881 204.722 117.066 205.059 117.211 205.424C117.356 205.789 117.429 206.176 117.429 206.585C117.429 207.057 117.322 207.421 117.108 207.678C116.896 207.937 116.586 208.06 116.178 208.049C115.772 208.039 115.278 207.866 114.698 207.531C114.157 207.219 113.688 206.847 113.292 206.417C112.898 205.988 112.588 205.527 112.362 205.036C112.138 204.546 112.011 204.054 111.982 203.559L112.926 204.105C112.951 204.449 113.047 204.777 113.214 205.089C113.384 205.4 113.598 205.683 113.856 205.937C114.117 206.19 114.398 206.403 114.698 206.576C115.047 206.778 115.361 206.894 115.639 206.924C115.917 206.951 116.137 206.893 116.299 206.751C116.462 206.606 116.543 206.375 116.543 206.057C116.543 205.767 116.473 205.491 116.333 205.228C116.192 204.965 116.008 204.711 115.779 204.465C115.55 204.219 115.303 203.977 115.037 203.738L114.107 202.895C113.517 202.358 113.049 201.808 112.705 201.245C112.361 200.683 112.188 200.108 112.188 199.52C112.188 199.031 112.303 198.671 112.532 198.439C112.763 198.206 113.073 198.101 113.462 198.124C113.853 198.145 114.289 198.295 114.772 198.574C115.259 198.855 115.692 199.206 116.071 199.626C116.45 200.044 116.75 200.49 116.971 200.964C117.195 201.44 117.313 201.902 117.325 202.349L116.44 201.838ZM122.388 209.141L122.388 205.272L123.259 205.775L123.259 212.32L122.388 211.817L122.388 210.709L122.329 210.675C122.196 210.931 121.989 211.094 121.709 211.165C121.428 211.234 121.074 211.144 120.646 210.897C120.292 210.692 119.977 210.421 119.701 210.083C119.426 209.742 119.209 209.344 119.052 208.89C118.894 208.432 118.815 207.925 118.815 207.369L118.815 203.209L119.686 203.712L119.686 207.803C119.686 208.28 119.802 208.728 120.033 209.146C120.267 209.565 120.565 209.878 120.926 210.087C121.143 210.212 121.363 210.276 121.587 210.277C121.813 210.28 122.003 210.193 122.155 210.017C122.31 209.842 122.388 209.55 122.388 209.141ZM124.854 215.696L124.854 206.696L125.695 207.182L125.695 208.221L125.799 208.281C125.863 208.204 125.951 208.111 126.064 208C126.18 207.888 126.345 207.824 126.559 207.808C126.775 207.791 127.068 207.889 127.437 208.102C127.915 208.378 128.335 208.758 128.699 209.244C129.064 209.73 129.348 210.285 129.552 210.908C129.756 211.532 129.858 212.187 129.858 212.875C129.858 213.568 129.756 214.11 129.552 214.5C129.348 214.888 129.065 215.117 128.703 215.187C128.341 215.253 127.924 215.15 127.452 214.878C127.088 214.667 126.796 214.429 126.577 214.164C126.358 213.895 126.19 213.638 126.072 213.39C125.954 213.14 125.863 212.937 125.799 212.781L125.725 212.738L125.725 216.199L124.854 215.696ZM125.71 210.463C125.71 210.957 125.773 211.429 125.898 211.88C126.024 212.327 126.207 212.727 126.448 213.079C126.689 213.429 126.985 213.704 127.334 213.906C127.698 214.116 128.002 214.181 128.245 214.1C128.491 214.018 128.676 213.823 128.799 213.516C128.924 213.208 128.987 212.821 128.987 212.355C128.987 211.895 128.926 211.444 128.803 211.004C128.682 210.562 128.499 210.162 128.253 209.804C128.009 209.445 127.703 209.159 127.334 208.946C126.98 208.741 126.682 208.673 126.441 208.741C126.2 208.807 126.018 208.988 125.895 209.287C125.772 209.582 125.71 209.974 125.71 210.463ZM131.187 219.352L131.187 210.352L132.028 210.838L132.028 211.878L132.132 211.937C132.195 211.861 132.284 211.767 132.397 211.656C132.513 211.544 132.678 211.48 132.892 211.464C133.108 211.447 133.401 211.545 133.77 211.758C134.247 212.034 134.668 212.415 135.032 212.9C135.396 213.386 135.68 213.941 135.885 214.564C136.089 215.188 136.191 215.844 136.191 216.531C136.191 217.224 136.089 217.766 135.885 218.157C135.68 218.545 135.398 218.773 135.036 218.843C134.674 218.91 134.257 218.807 133.785 218.534C133.421 218.324 133.129 218.086 132.91 217.82C132.691 217.552 132.523 217.294 132.405 217.047C132.286 216.797 132.195 216.594 132.131 216.437L132.058 216.395L132.058 219.855L131.187 219.352ZM132.043 214.119C132.043 214.613 132.106 215.086 132.231 215.536C132.357 215.983 132.54 216.383 132.781 216.736C133.022 217.085 133.317 217.361 133.667 217.562C134.031 217.772 134.335 217.837 134.578 217.756C134.824 217.674 135.009 217.479 135.132 217.172C135.257 216.864 135.32 216.477 135.32 216.011C135.32 215.551 135.259 215.101 135.136 214.66C135.015 214.219 134.832 213.819 134.586 213.461C134.342 213.101 134.036 212.815 133.667 212.602C133.312 212.397 133.015 212.329 132.774 212.397C132.533 212.463 132.35 212.645 132.227 212.943C132.104 213.238 132.043 213.63 132.043 214.119ZM138.391 212.329L138.391 221.057L137.52 220.554L137.52 211.826L138.391 212.329ZM139.986 221.978L139.986 215.432L140.857 215.935L140.857 222.48L139.986 221.978ZM140.429 214.597C140.259 214.499 140.112 214.348 139.989 214.143C139.869 213.94 139.809 213.745 139.809 213.557C139.809 213.37 139.869 213.244 139.989 213.18C140.112 213.117 140.259 213.135 140.429 213.233C140.598 213.331 140.743 213.482 140.864 213.685C140.987 213.889 141.049 214.086 141.049 214.273C141.049 214.461 140.987 214.586 140.864 214.648C140.743 214.712 140.598 214.695 140.429 214.597ZM144.828 224.91C144.282 224.595 143.811 224.183 143.415 223.676C143.021 223.168 142.718 222.6 142.504 221.974C142.292 221.346 142.186 220.697 142.186 220.026C142.186 219.356 142.292 218.826 142.504 218.437C142.718 218.046 143.015 217.818 143.397 217.751C143.78 217.683 144.228 217.796 144.74 218.092C145.035 218.262 145.327 218.487 145.615 218.767C145.902 219.047 146.164 219.383 146.401 219.775C146.637 220.164 146.825 220.608 146.965 221.107C147.105 221.605 147.176 222.16 147.176 222.771L147.176 223.197L142.806 220.674L142.806 219.805L146.29 221.816C146.29 221.447 146.226 221.08 146.098 220.717C145.973 220.355 145.793 220.022 145.559 219.72C145.328 219.418 145.055 219.177 144.74 218.995C144.393 218.795 144.093 218.721 143.839 218.774C143.588 218.825 143.395 218.969 143.26 219.206C143.125 219.443 143.057 219.742 143.057 220.103L143.057 220.683C143.057 221.177 143.131 221.639 143.279 222.068C143.429 222.495 143.636 222.875 143.902 223.207C144.168 223.537 144.477 223.803 144.828 224.007C145.057 224.139 145.264 224.221 145.448 224.254C145.635 224.285 145.797 224.264 145.932 224.192C146.067 224.117 146.172 223.987 146.246 223.802L147.087 224.56C146.998 224.839 146.85 225.043 146.641 225.172C146.431 225.298 146.173 225.342 145.866 225.304C145.558 225.263 145.212 225.132 144.828 224.91ZM148.5 226.894L148.5 220.348L149.342 220.834L149.342 221.823L149.401 221.857C149.504 221.592 149.691 221.438 149.962 221.392C150.233 221.347 150.538 221.422 150.877 221.618C150.941 221.655 151.021 221.703 151.117 221.761C151.213 221.819 151.286 221.865 151.335 221.899L151.335 222.922C151.305 222.896 151.238 222.845 151.132 222.766C151.028 222.687 150.919 222.614 150.803 222.547C150.528 222.388 150.282 222.313 150.065 222.321C149.851 222.328 149.681 222.412 149.556 222.573C149.433 222.732 149.371 222.959 149.371 223.254L149.371 227.396L148.5 226.894ZM156.382 226.365L155.6 226.169C155.551 225.99 155.478 225.801 155.382 225.604C155.289 225.405 155.161 225.212 154.998 225.024C154.836 224.837 154.628 224.67 154.375 224.524C154.028 224.323 153.739 224.249 153.508 224.3C153.279 224.35 153.164 224.515 153.164 224.796C153.164 225.046 153.243 225.289 153.4 225.525C153.558 225.761 153.804 226.024 154.139 226.313L154.98 227.038C155.487 227.473 155.864 227.908 156.113 228.344C156.361 228.777 156.486 229.223 156.486 229.68C156.486 230.055 156.392 230.336 156.205 230.524C156.021 230.713 155.762 230.796 155.43 230.775C155.098 230.754 154.712 230.616 154.271 230.362C153.693 230.028 153.215 229.607 152.836 229.098C152.457 228.59 152.217 228.028 152.116 227.413L152.943 227.652C153.022 228.049 153.17 228.399 153.389 228.702C153.611 229.006 153.9 229.261 154.257 229.467C154.663 229.701 154.985 229.788 155.224 229.727C155.465 229.664 155.585 229.492 155.585 229.211C155.585 228.984 155.516 228.754 155.379 228.521C155.241 228.285 155.029 228.046 154.744 227.805L153.799 227.004C153.28 226.562 152.899 226.122 152.655 225.683C152.414 225.242 152.293 224.796 152.293 224.345C152.293 223.975 152.383 223.701 152.563 223.52C152.745 223.341 152.992 223.261 153.305 223.279C153.619 223.299 153.976 223.424 154.375 223.654C154.936 223.978 155.376 224.375 155.696 224.843C156.018 225.313 156.247 225.821 156.382 226.365Z" fill="white"/>
<g opacity="0.5">
<path d="M264.862 133.918L264.862 113.03C264.862 112.752 264.767 112.478 264.583 112.222C264.399 111.966 264.13 111.733 263.79 111.537L232.778 93.6328C231.407 92.8414 229.548 92.3967 227.609 92.3967C225.671 92.3967 223.812 92.8414 222.441 93.6328L165.586 126.458C164.215 127.249 163.445 128.323 163.445 129.442C163.445 130.561 164.215 131.635 165.586 132.426L212.103 159.283C213.474 160.075 215.333 160.519 217.272 160.519C219.211 160.519 221.07 160.075 222.441 159.283L263.79 135.41C264.13 135.215 264.399 134.982 264.583 134.726C264.767 134.47 264.862 134.196 264.862 133.918ZM257.552 118.123L257.552 128.825L248.284 123.474L257.552 118.123ZM217.272 156.299L170.754 129.442L227.609 96.6169L256.037 113.03L240.531 121.982C239.846 122.378 239.461 122.914 239.461 123.474C239.461 124.034 239.846 124.57 240.531 124.966L256.037 133.918L217.272 156.299ZM232.778 135.41C232.093 135.806 231.163 136.028 230.194 136.028C229.224 136.028 228.295 135.806 227.609 135.41L206.935 123.474C206.249 123.078 205.864 122.542 205.864 121.982C205.864 121.422 206.249 120.886 206.935 120.49C207.62 120.094 208.55 119.872 209.519 119.872C210.488 119.872 211.418 120.094 212.103 120.49L232.778 132.426C233.463 132.822 233.848 133.359 233.848 133.918C233.848 134.478 233.463 135.015 232.778 135.41ZM222.441 141.379C221.755 141.774 220.826 141.997 219.856 141.997C218.887 141.997 217.958 141.774 217.272 141.379L196.598 129.442C195.912 129.046 195.527 128.51 195.527 127.95C195.527 127.39 195.912 126.854 196.598 126.458C197.283 126.062 198.213 125.84 199.182 125.84C200.151 125.84 201.081 126.062 201.766 126.458L222.441 138.395C223.126 138.79 223.511 139.327 223.511 139.887C223.511 140.446 223.126 140.983 222.441 141.379Z" fill="white"/>
</g>
<defs>
<filter id="filter0_d_1421_3856" x="0.000782013" y="520.26" width="460.87" height="195.801" filterUnits="userSpaceOnUse" color-interpolation-filters="sRGB">
<feFlood flood-opacity="0" result="BackgroundImageFix"/>
<feColorMatrix in="SourceAlpha" type="matrix" values="0 0 0 0 0 0 0 0 0 0 0 0 0 0 0 0 0 0 127 0" result="hardAlpha"/>
<feOffset/>
<feGaussianBlur stdDeviation="10.4"/>
<feComposite in2="hardAlpha" operator="out"/>
<feColorMatrix type="matrix" values="0 0 0 0 0 0 0 0 0 0 0 0 0 0 0 0 0 0 1 0"/>
<feBlend mode="normal" in2="BackgroundImageFix" result="effect1_dropShadow_1421_3856"/>
<feBlend mode="normal" in="SourceGraphic" in2="effect1_dropShadow_1421_3856" result="shape"/>
</filter>
<linearGradient id="paint0_linear_1421_3856" x1="21.2344" y1="556.794" x2="267.389" y2="700" gradientUnits="userSpaceOnUse">
<stop offset="0.0213909" stop-color="#1E1E1E"/>
<stop offset="1" stop-color="#0D0D0D"/>
</linearGradient>
<linearGradient id="paint1_linear_1421_3856" x1="21.2344" y1="453.426" x2="267.389" y2="596.631" gradientUnits="userSpaceOnUse">
<stop offset="0.0213909" stop-color="#1E1E1E"/>
<stop offset="1" stop-color="#0D0D0D"/>
</linearGradient>
<linearGradient id="paint2_linear_1421_3856" x1="21.2344" y1="350.057" x2="267.389" y2="493.262" gradientUnits="userSpaceOnUse">
<stop offset="0.0213909" stop-color="#1E1E1E"/>
<stop offset="1" stop-color="#0D0D0D"/>
</linearGradient>
<linearGradient id="paint3_linear_1421_3856" x1="21.2344" y1="246.689" x2="267.389" y2="389.894" gradientUnits="userSpaceOnUse">
<stop offset="0.0213909" stop-color="#1E1E1E"/>
<stop offset="1" stop-color="#0D0D0D"/>
</linearGradient>
<linearGradient id="paint4_linear_1421_3856" x1="-19.3123" y1="207.488" x2="421.831" y2="256.375" gradientUnits="userSpaceOnUse">
<stop offset="0.0213909" stop-color="#024925"/>
<stop offset="1" stop-color="#0D0D0D"/>
</linearGradient>
<linearGradient id="paint5_linear_1421_3856" x1="462.8" y1="125.046" x2="96.6841" y2="-10.0877" gradientUnits="userSpaceOnUse">
<stop stop-color="#042811"/>
<stop offset="1" stop-color="#00792E"/>
</linearGradient>
</defs>
</svg>
