<svg width="461" height="776" viewBox="0 0 461 776" fill="none" xmlns="http://www.w3.org/2000/svg">
<g filter="url(#filter0_d_1421_3857)">
<path d="M21.3008 633.903L21.6721 601.026L214.454 713.384C225.027 719.545 238.095 719.551 248.672 713.397L439.573 602.339V632.336C439.573 637.753 436.653 642.748 431.934 645.406L247.35 749.358C236.619 755.401 223.503 755.36 212.811 749.25L26.3389 642.699C23.188 640.898 21.2598 637.532 21.3008 633.903Z" fill="#101010"/>
<path d="M21.3008 633.903L21.6721 601.026L214.454 713.384C225.027 719.545 238.095 719.551 248.672 713.397L439.573 602.339V632.336C439.573 637.753 436.653 642.748 431.934 645.406L247.35 749.358C236.619 755.401 223.503 755.36 212.811 749.25L26.3389 642.699C23.188 640.898 21.2598 637.532 21.3008 633.903Z" fill="url(#paint0_linear_1421_3857)"/>
<path d="M21.3008 633.903L21.6721 601.026L214.454 713.384C225.027 719.545 238.095 719.551 248.672 713.397L439.573 602.339V632.336C439.573 637.753 436.653 642.748 431.934 645.406L247.35 749.358C236.619 755.401 223.503 755.36 212.811 749.25L26.3389 642.699C23.188 640.898 21.2598 637.532 21.3008 633.903Z" stroke="#404040"/>
</g>
<path d="M247.351 480.836L436.294 589.261C442.31 592.713 442.324 601.387 436.319 604.859L249.456 712.879C238.988 718.93 226.094 718.966 215.592 712.975L25.603 604.583C19.5464 601.128 19.5503 592.395 25.61 588.945L215.592 480.782C225.441 475.175 237.521 475.195 247.351 480.836Z" fill="#131313" stroke="#404040"/>
<path d="M39.682 635.791L40.6858 636.37L41.5272 638.134L41.7486 638.603L43.0034 641.254L41.9996 640.674L41.1729 638.919L40.9663 638.475L39.682 635.791ZM43.3134 636.251C43.3134 637.171 43.1695 637.884 42.8816 638.388C42.5938 638.892 42.1989 639.181 41.697 639.255C41.1951 639.329 40.6218 639.18 39.9772 638.808C39.3326 638.436 38.7594 637.923 38.2575 637.269C37.7556 636.616 37.3607 635.871 37.0729 635.034C36.785 634.198 36.6411 633.319 36.6411 632.399C36.6411 631.478 36.785 630.766 37.0729 630.262C37.3607 629.757 37.7556 629.468 38.2575 629.394C38.7594 629.32 39.3326 629.47 39.9772 629.842C40.6218 630.214 41.1951 630.727 41.697 631.38C42.1989 632.034 42.5938 632.779 42.8816 633.615C43.1695 634.452 43.3134 635.33 43.3134 636.251ZM42.4277 635.74C42.4277 634.984 42.3182 634.283 42.0992 633.637C41.8827 632.992 41.5887 632.428 41.2172 631.947C40.8482 631.467 40.4348 631.095 39.9772 630.83C39.5196 630.566 39.1051 630.46 38.7336 630.513C38.3645 630.567 38.0705 630.791 37.8515 631.184C37.635 631.579 37.5268 632.154 37.5268 632.91C37.5268 633.666 37.635 634.366 37.8515 635.011C38.0705 635.657 38.3645 636.22 38.7336 636.7C39.1051 637.182 39.5196 637.555 39.9772 637.819C40.4348 638.083 40.8482 638.188 41.2172 638.134C41.5887 638.082 41.8827 637.858 42.0992 637.463C42.3182 637.07 42.4277 636.495 42.4277 635.74ZM48.3066 640.821L48.3066 636.952L49.1775 637.455L49.1775 644L48.3066 643.497L48.3066 642.389L48.2475 642.355C48.1147 642.611 47.908 642.774 47.6275 642.845C47.3471 642.914 46.9928 642.824 46.5647 642.577C46.2104 642.372 45.8955 642.101 45.6199 641.763C45.3444 641.422 45.1279 641.024 44.9704 640.57C44.813 640.112 44.7342 639.605 44.7342 639.048L44.7342 634.889L45.6052 635.392L45.6052 639.483C45.6052 639.96 45.7208 640.408 45.9521 640.825C46.1858 641.244 46.4835 641.558 46.8452 641.767C47.0617 641.892 47.2819 641.955 47.5057 641.957C47.7321 641.96 47.9215 641.873 48.0741 641.697C48.2291 641.522 48.3066 641.23 48.3066 640.821ZM52.4408 646.038C52.0816 645.83 51.7556 645.564 51.4628 645.239C51.1701 644.911 50.9376 644.548 50.7653 644.15C50.5931 643.749 50.507 643.336 50.507 642.91C50.507 642.535 50.571 642.268 50.6989 642.109C50.8268 641.947 50.9978 641.861 51.2119 641.851C51.4259 641.841 51.6621 641.878 51.9204 641.962C52.1812 642.044 52.4433 642.141 52.7065 642.254C53.051 642.401 53.3302 642.524 53.5442 642.622C53.7608 642.719 53.9182 642.763 54.0166 642.754C54.1175 642.747 54.1679 642.663 54.1679 642.501L54.1679 642.467C54.1679 642.046 54.0683 641.662 53.869 641.314C53.6722 640.967 53.3733 640.678 52.9722 640.447C52.5564 640.207 52.2304 640.124 51.9943 640.197C51.7581 640.271 51.592 640.4 51.496 640.583L50.6694 639.765C50.817 639.452 51.0138 639.256 51.2599 639.177C51.5083 639.096 51.779 639.096 52.0718 639.177C52.367 639.256 52.6573 639.379 52.9427 639.543C53.1248 639.648 53.3339 639.795 53.5701 639.982C53.8087 640.168 54.0388 640.402 54.2602 640.683C54.4841 640.966 54.6698 641.305 54.8175 641.7C54.9651 642.094 55.0389 642.552 55.0389 643.072L55.0389 647.384L54.1679 646.881L54.1679 645.995L54.1236 645.969C54.0646 646.077 53.9662 646.173 53.8284 646.255C53.6906 646.337 53.5073 646.369 53.2785 646.351C53.0497 646.332 52.7705 646.228 52.4408 646.038ZM52.5737 645.211C52.9181 645.41 53.2084 645.499 53.4446 645.479C53.6833 645.461 53.8629 645.363 53.9834 645.185C54.1064 645.009 54.1679 644.785 54.1679 644.512L54.1679 643.592C54.131 643.621 54.0498 643.621 53.9244 643.592C53.8013 643.56 53.6587 643.513 53.4963 643.451C53.3364 643.387 53.1801 643.322 53.0276 643.257C52.8775 643.19 52.7557 643.137 52.6622 643.097C52.4359 643.001 52.2243 642.934 52.0275 642.897C51.8331 642.859 51.6756 642.88 51.5551 642.961C51.437 643.04 51.378 643.208 51.378 643.464C51.378 643.813 51.4899 644.142 51.7138 644.45C51.9401 644.757 52.2268 645.011 52.5737 645.211ZM57.4995 640.078L57.4995 648.805L56.6285 648.302L56.6285 639.575L57.4995 640.078ZM59.0947 649.726L59.0947 643.18L59.9656 643.683L59.9656 650.229L59.0947 649.726ZM59.5375 642.345C59.3678 642.247 59.2214 642.096 59.0984 641.891C58.9778 641.688 58.9175 641.493 58.9175 641.305C58.9175 641.118 58.9778 640.992 59.0984 640.928C59.2214 640.866 59.3678 640.884 59.5375 640.982C59.7073 641.08 59.8525 641.23 59.973 641.433C60.096 641.638 60.1575 641.834 60.1575 642.021C60.1575 642.209 60.096 642.334 59.973 642.396C59.8525 642.46 59.7073 642.443 59.5375 642.345ZM64.026 646.028L64.026 646.88L61.0884 645.184L61.0884 644.331L64.026 646.028ZM61.9446 643.258L62.8156 643.76L62.8156 649.999C62.8156 650.283 62.8513 650.517 62.9226 650.7C62.9964 650.882 63.0899 651.03 63.2031 651.143C63.3187 651.256 63.4405 651.349 63.5684 651.422C63.6644 651.478 63.7431 651.518 63.8046 651.542C63.8661 651.563 63.9153 651.58 63.9522 651.593L64.1294 652.599C64.0703 652.59 63.9879 652.568 63.8821 652.532C63.7763 652.5 63.6422 652.437 63.4799 652.343C63.2338 652.201 62.9927 652.001 62.7565 651.742C62.5228 651.485 62.3284 651.187 62.1734 650.847C62.0209 650.509 61.9446 650.15 61.9446 649.769L61.9446 643.258ZM65.8971 656.108C65.7495 656.023 65.6179 655.932 65.5022 655.837C65.3866 655.745 65.3066 655.673 65.2623 655.622L65.4838 654.863C65.6954 655.048 65.8823 655.179 66.0447 655.256C66.2071 655.332 66.351 655.331 66.4765 655.253C66.6044 655.18 66.7213 655.007 66.8271 654.736L66.9895 654.318L64.8933 646.528L65.8381 647.074L67.4028 653.193L67.4619 653.227L69.0266 648.915L69.9714 649.46L67.5652 655.571C67.4569 655.846 67.3228 656.049 67.1629 656.178C67.003 656.31 66.8173 656.369 66.6057 656.355C66.3965 656.342 66.1604 656.26 65.8971 656.108ZM80.2437 655.936L79.3285 655.408C79.2744 655.073 79.1796 654.751 79.0443 654.443C78.9115 654.136 78.7491 653.849 78.5572 653.582C78.3677 653.313 78.1574 653.073 77.9261 652.86C77.6949 652.646 77.4537 652.468 77.2028 652.323C76.7452 652.058 76.3306 651.953 75.9591 652.005C75.5901 652.059 75.2961 652.283 75.0771 652.676C74.8606 653.071 74.7523 653.646 74.7523 654.402C74.7523 655.158 74.8606 655.858 75.0771 656.503C75.2961 657.149 75.5901 657.713 75.9591 658.193C76.3306 658.674 76.7452 659.047 77.2028 659.311C77.4537 659.456 77.6949 659.556 77.9261 659.61C78.1574 659.664 78.3677 659.667 78.5572 659.62C78.7491 659.572 78.9115 659.471 79.0443 659.318C79.1796 659.163 79.2744 658.95 79.3285 658.681L80.2437 659.209C80.1748 659.615 80.0494 659.942 79.8673 660.189C79.6852 660.436 79.4589 660.605 79.1883 660.696C78.9176 660.784 78.6138 660.795 78.2767 660.728C77.9421 660.663 77.5841 660.52 77.2028 660.3C76.5582 659.928 75.9849 659.415 75.483 658.762C74.9811 658.108 74.5863 657.363 74.2984 656.526C74.0106 655.69 73.8666 654.811 73.8666 653.891C73.8666 652.97 74.0106 652.258 74.2984 651.754C74.5863 651.249 74.9811 650.96 75.483 650.887C75.9849 650.813 76.5582 650.962 77.2028 651.334C77.5841 651.554 77.9421 651.825 78.2767 652.146C78.6138 652.468 78.9176 652.831 79.1883 653.235C79.4589 653.635 79.6852 654.064 79.8673 654.521C80.0494 654.976 80.1748 655.448 80.2437 655.936ZM83.9074 664.188C83.3957 663.892 82.9467 663.493 82.5604 662.988C82.1766 662.485 81.8764 661.919 81.6599 661.288C81.4459 660.659 81.3389 660.006 81.3389 659.33C81.3389 658.648 81.4459 658.115 81.6599 657.73C81.8764 657.346 82.1766 657.125 82.5604 657.065C82.9467 657.007 83.3957 657.125 83.9074 657.421C84.4192 657.716 84.8669 658.115 85.2507 658.618C85.637 659.123 85.9372 659.691 86.1512 660.323C86.3677 660.956 86.476 661.614 86.476 662.296C86.476 662.972 86.3677 663.5 86.1512 663.881C85.9372 664.263 85.637 664.483 85.2507 664.542C84.8669 664.601 84.4192 664.483 83.9074 664.188ZM83.9074 663.284C84.2961 663.509 84.616 663.578 84.8669 663.493C85.1179 663.408 85.3036 663.213 85.4242 662.907C85.5447 662.602 85.605 662.23 85.605 661.793C85.605 661.355 85.5447 660.913 85.4242 660.466C85.3036 660.018 85.1179 659.605 84.8669 659.228C84.616 658.85 84.2961 658.549 83.9074 658.324C83.5187 658.1 83.1989 658.032 82.9479 658.12C82.6969 658.208 82.5112 658.406 82.3906 658.714C82.2701 659.022 82.2098 659.395 82.2098 659.833C82.2098 660.27 82.2701 660.711 82.3906 661.156C82.5112 661.6 82.6969 662.01 82.9479 662.385C83.1989 662.76 83.5187 663.06 83.9074 663.284ZM88.6764 662.867L88.6764 666.805L87.8055 666.302L87.8055 659.757L88.6469 660.242L88.6469 661.265L88.7207 661.308C88.8535 661.052 89.0553 660.901 89.3259 660.856C89.5966 660.808 89.9459 660.907 90.374 661.154C90.7578 661.376 91.0936 661.661 91.3815 662.009C91.6694 662.354 91.8932 662.756 92.0532 663.215C92.2131 663.671 92.293 664.177 92.293 664.734L92.293 668.893L91.4221 668.39L91.4221 664.299C91.4221 663.785 91.3065 663.318 91.0752 662.897C90.8439 662.474 90.5265 662.146 90.1231 661.913C89.845 661.752 89.5966 661.678 89.3776 661.691C89.1611 661.705 88.9901 661.81 88.8646 662.004C88.7391 662.199 88.6764 662.487 88.6764 662.867ZM96.3498 664.69L96.3498 665.542L93.4122 663.846L93.4122 662.994L96.3498 664.69ZM94.2684 661.92L95.1393 662.423L95.1393 668.661C95.1393 668.945 95.175 669.179 95.2463 669.362C95.3201 669.544 95.4136 669.692 95.5268 669.805C95.6424 669.918 95.7642 670.011 95.8922 670.085C95.9881 670.14 96.0668 670.18 96.1283 670.204C96.1898 670.225 96.2391 670.242 96.276 670.255L96.4531 671.261C96.3941 671.252 96.3116 671.23 96.2058 671.195C96.1 671.162 95.966 671.099 95.8036 671.005C95.5575 670.863 95.3164 670.663 95.0803 670.404C94.8465 670.147 94.6522 669.849 94.4972 669.509C94.3446 669.171 94.2684 668.812 94.2684 668.431L94.2684 661.92ZM97.6599 671.991L97.6599 665.446L98.5013 665.932L98.5013 666.92L98.5603 666.955C98.6637 666.69 98.8507 666.536 99.1213 666.49C99.3919 666.445 99.697 666.52 100.037 666.716C100.1 666.753 100.18 666.8 100.276 666.859C100.372 666.917 100.445 666.963 100.494 666.997L100.494 668.02C100.465 667.994 100.397 667.942 100.291 667.864C100.188 667.785 100.078 667.712 99.9627 667.645C99.6872 667.486 99.4411 667.411 99.2246 667.419C99.0106 667.426 98.8408 667.51 98.7153 667.67C98.5923 667.83 98.5308 668.057 98.5308 668.352L98.5308 672.494L97.6599 671.991ZM103.657 675.59C103.145 675.295 102.696 674.895 102.31 674.391C101.926 673.888 101.626 673.321 101.409 672.69C101.195 672.061 101.088 671.408 101.088 670.732C101.088 670.05 101.195 669.517 101.409 669.132C101.626 668.749 101.926 668.527 102.31 668.467C102.696 668.409 103.145 668.528 103.657 668.823C104.169 669.119 104.616 669.518 105 670.021C105.386 670.525 105.687 671.093 105.901 671.725C106.117 672.359 106.225 673.016 106.225 673.698C106.225 674.374 106.117 674.903 105.901 675.283C105.687 675.665 105.386 675.886 105 675.944C104.616 676.004 104.169 675.886 103.657 675.59ZM103.657 674.687C104.046 674.911 104.365 674.981 104.616 674.896C104.867 674.81 105.053 674.615 105.174 674.31C105.294 674.004 105.354 673.633 105.354 673.195C105.354 672.758 105.294 672.315 105.174 671.868C105.053 671.42 104.867 671.008 104.616 670.63C104.365 670.252 104.046 669.951 103.657 669.727C103.268 669.502 102.948 669.434 102.697 669.522C102.446 669.61 102.261 669.808 102.14 670.116C102.02 670.425 101.959 670.798 101.959 671.235C101.959 671.673 102.02 672.114 102.14 672.558C102.261 673.003 102.446 673.413 102.697 673.788C102.948 674.163 103.268 674.462 103.657 674.687ZM108.426 669.48L108.426 678.207L107.555 677.704L107.555 668.977L108.426 669.48Z" fill="white"/>
<path d="M21.3008 530.535L21.6721 497.657L214.454 610.015C225.027 616.177 238.095 616.182 248.672 610.029L439.573 498.971V528.968C439.573 534.384 436.653 539.38 431.934 542.038L247.35 645.99C236.619 652.033 223.503 651.992 212.811 645.882L26.3389 539.331C23.188 537.53 21.2598 534.164 21.3008 530.535Z" fill="#101010"/>
<path d="M21.3008 530.535L21.6721 497.657L214.454 610.015C225.027 616.177 238.095 616.182 248.672 610.029L439.573 498.971V528.968C439.573 534.384 436.653 539.38 431.934 542.038L247.35 645.99C236.619 652.033 223.503 651.992 212.811 645.882L26.3389 539.331C23.188 537.53 21.2598 534.164 21.3008 530.535Z" fill="url(#paint1_linear_1421_3857)"/>
<path d="M21.3008 530.535L21.6721 497.657L214.454 610.015C225.027 616.177 238.095 616.182 248.672 610.029L439.573 498.971V528.968C439.573 534.384 436.653 539.38 431.934 542.038L247.35 645.99C236.619 652.033 223.503 651.992 212.811 645.882L26.3389 539.331C23.188 537.53 21.2598 534.164 21.3008 530.535Z" stroke="#404040"/>
<path d="M247.351 377.468L436.294 485.893C442.31 489.345 442.324 498.019 436.319 501.491L249.456 609.51C238.988 615.562 226.094 615.598 215.592 609.607L25.603 501.215C19.5464 497.76 19.5503 489.027 25.61 485.577L215.592 377.414C225.441 371.807 237.521 371.827 247.351 377.468Z" fill="#131313" stroke="#404040"/>
<path d="M36.7316 532.773L36.7316 524.046L39.2854 525.52C39.8784 525.863 40.363 526.266 40.7395 526.73C41.1184 527.193 41.3988 527.686 41.5809 528.209C41.7629 528.732 41.854 529.25 41.854 529.765C41.854 530.279 41.7629 530.693 41.5809 531.009C41.4013 531.326 41.1233 531.5 40.7468 531.533C40.3704 531.563 39.8882 531.408 39.3002 531.068L37.4697 530.012L37.4697 529.074L39.2707 530.114C39.6766 530.348 40.0026 530.456 40.2486 530.436C40.4947 530.416 40.673 530.3 40.7838 530.088C40.8969 529.875 40.9535 529.594 40.9535 529.245C40.9535 528.895 40.8969 528.55 40.7838 528.209C40.673 527.87 40.4934 527.55 40.2449 527.25C39.9965 526.948 39.6668 526.678 39.2559 526.441L37.6469 525.512L37.6469 533.301L36.7316 532.773ZM43.2102 536.513L43.2102 529.968L44.0516 530.454L44.0516 531.442L44.1107 531.477C44.214 531.212 44.401 531.057 44.6716 531.012C44.9423 530.967 45.2473 531.042 45.5869 531.238C45.6508 531.275 45.7308 531.322 45.8267 531.381C45.9227 531.439 45.9953 531.485 46.0445 531.519L46.0445 532.542C46.015 532.516 45.9473 532.464 45.8415 532.386C45.7382 532.307 45.6287 532.234 45.5131 532.167C45.2375 532.008 44.9915 531.932 44.775 531.941C44.5609 531.948 44.3912 532.032 44.2657 532.192C44.1427 532.352 44.0812 532.579 44.0812 532.874L44.0812 537.016L43.2102 536.513ZM49.2072 540.112C48.6955 539.817 48.2465 539.417 47.8602 538.913C47.4764 538.41 47.1762 537.843 46.9597 537.212C46.7457 536.583 46.6386 535.93 46.6386 535.254C46.6386 534.572 46.7457 534.039 46.9597 533.654C47.1762 533.271 47.4764 533.049 47.8602 532.989C48.2465 532.931 48.6955 533.05 49.2072 533.345C49.7189 533.641 50.1667 534.04 50.5505 534.543C50.9368 535.047 51.2369 535.615 51.451 536.247C51.6675 536.881 51.7758 537.538 51.7758 538.22C51.7758 538.896 51.6675 539.425 51.451 539.805C51.2369 540.187 50.9368 540.408 50.5505 540.466C50.1667 540.526 49.7189 540.408 49.2072 540.112ZM49.2072 539.209C49.5959 539.433 49.9158 539.503 50.1667 539.418C50.4177 539.332 50.6034 539.137 50.724 538.832C50.8445 538.526 50.9048 538.155 50.9048 537.717C50.9048 537.28 50.8445 536.837 50.724 536.39C50.6034 535.942 50.4177 535.53 50.1667 535.152C49.9158 534.774 49.5959 534.473 49.2072 534.249C48.8185 534.024 48.4986 533.956 48.2477 534.044C47.9967 534.132 47.811 534.33 47.6904 534.638C47.5699 534.947 47.5096 535.32 47.5096 535.757C47.5096 536.195 47.5699 536.636 47.6904 537.08C47.811 537.525 47.9967 537.935 48.2477 538.31C48.4986 538.685 48.8185 538.984 49.2072 539.209ZM55.2457 543.598C54.7733 543.326 54.3563 542.947 53.9946 542.463C53.633 541.976 53.35 541.42 53.1458 540.797C52.9416 540.17 52.8395 539.51 52.8395 538.817C52.8395 538.13 52.9416 537.592 53.1458 537.204C53.35 536.817 53.6342 536.59 53.9983 536.525C54.3625 536.459 54.7832 536.564 55.2605 536.84C55.6295 537.053 55.9211 537.292 56.1351 537.558C56.3516 537.822 56.5164 538.076 56.6296 538.321C56.7453 538.564 56.8351 538.76 56.899 538.911L56.9728 538.954L56.9728 535.732L57.8438 536.235L57.8438 544.962L57.0024 544.476L57.0024 543.471L56.899 543.411C56.8351 543.493 56.744 543.591 56.6259 543.705C56.5078 543.816 56.3393 543.879 56.1203 543.895C55.9014 543.907 55.6098 543.809 55.2457 543.598ZM55.3638 542.763C55.7132 542.965 56.0084 543.03 56.2495 542.959C56.4906 542.885 56.6739 542.697 56.7994 542.395C56.9249 542.089 56.9876 541.689 56.9876 541.195C56.9876 540.706 56.9261 540.243 56.8031 539.806C56.6801 539.366 56.498 538.973 56.2569 538.63C56.0158 538.283 55.7181 538.008 55.3638 537.803C54.9947 537.59 54.6872 537.522 54.4412 537.598C54.1976 537.674 54.0143 537.862 53.8913 538.163C53.7707 538.463 53.7105 538.843 53.7105 539.303C53.7105 539.769 53.772 540.228 53.895 540.679C54.0205 541.13 54.205 541.537 54.4486 541.902C54.6946 542.266 54.9997 542.553 55.3638 542.763ZM63.1322 545.339L63.1322 541.47L64.0031 541.973L64.0031 548.518L63.1322 548.015L63.1322 546.907L63.0731 546.873C62.9403 547.129 62.7336 547.292 62.4531 547.363C62.1727 547.432 61.8184 547.342 61.3903 547.095C61.036 546.89 60.7211 546.619 60.4455 546.281C60.17 545.94 59.9535 545.542 59.796 545.088C59.6386 544.63 59.5598 544.123 59.5598 543.567L59.5598 539.407L60.4308 539.91L60.4308 544.001C60.4308 544.478 60.5464 544.926 60.7777 545.344C61.0114 545.763 61.3091 546.076 61.6708 546.285C61.8873 546.41 62.1075 546.473 62.3314 546.475C62.5577 546.478 62.7472 546.391 62.8997 546.215C63.0547 546.04 63.1322 545.748 63.1322 545.339ZM68.0636 544.317L68.0636 545.169L65.126 543.473L65.126 542.621L68.0636 544.317ZM65.9821 541.547L66.8531 542.05L66.8531 548.289C66.8531 548.573 66.8888 548.806 66.9601 548.99C67.0339 549.171 67.1274 549.319 67.2406 549.433C67.3562 549.545 67.478 549.638 67.6059 549.712C67.7019 549.767 67.7806 549.807 67.8421 549.831C67.9036 549.853 67.9528 549.87 67.9897 549.882L68.1669 550.888C68.1078 550.88 68.0254 550.858 67.9196 550.822C67.8138 550.789 67.6797 550.726 67.5174 550.632C67.2713 550.49 67.0302 550.29 66.794 550.032C66.5603 549.774 66.3659 549.476 66.2109 549.137C66.0584 548.799 65.9821 548.439 65.9821 548.059L65.9821 541.547ZM69.3737 551.619L69.3737 545.073L70.2446 545.576L70.2446 552.122L69.3737 551.619ZM69.8165 544.238C69.6468 544.14 69.5004 543.989 69.3774 543.784C69.2568 543.581 69.1965 543.386 69.1965 543.198C69.1965 543.011 69.2568 542.885 69.3774 542.821C69.5004 542.759 69.6468 542.777 69.8165 542.875C69.9863 542.973 70.1314 543.123 70.252 543.326C70.375 543.531 70.4365 543.727 70.4365 543.914C70.4365 544.102 70.375 544.227 70.252 544.289C70.1314 544.353 69.9863 544.336 69.8165 544.238ZM74.1426 554.509C73.6309 554.213 73.1819 553.813 72.7956 553.309C72.4118 552.806 72.1117 552.239 71.8952 551.609C71.6811 550.98 71.5741 550.327 71.5741 549.651C71.5741 548.969 71.6811 548.436 71.8952 548.051C72.1117 547.667 72.4118 547.445 72.7956 547.386C73.1819 547.328 73.6309 547.446 74.1426 547.742C74.6544 548.037 75.1022 548.436 75.486 548.939C75.8722 549.443 76.1724 550.011 76.3864 550.644C76.6029 551.277 76.7112 551.935 76.7112 552.617C76.7112 553.293 76.6029 553.821 76.3864 554.202C76.1724 554.584 75.8722 554.804 75.486 554.862C75.1022 554.922 74.6544 554.804 74.1426 554.509ZM74.1426 553.605C74.5314 553.83 74.8512 553.899 75.1022 553.814C75.3531 553.729 75.5389 553.534 75.6594 553.228C75.78 552.923 75.8402 552.551 75.8402 552.114C75.8402 551.676 75.78 551.234 75.6594 550.786C75.5389 550.339 75.3531 549.926 75.1022 549.548C74.8512 549.171 74.5314 548.869 74.1426 548.645C73.7539 548.421 73.4341 548.352 73.1831 548.44C72.9322 548.529 72.7464 548.727 72.6259 549.035C72.5053 549.343 72.445 549.716 72.445 550.154C72.445 550.591 72.5053 551.032 72.6259 551.477C72.7464 551.921 72.9322 552.331 73.1831 552.706C73.4341 553.081 73.7539 553.381 74.1426 553.605ZM78.9116 553.188L78.9116 557.126L78.0407 556.623L78.0407 550.077L78.8821 550.563L78.8821 551.586L78.9559 551.629C79.0888 551.373 79.2905 551.222 79.5611 551.177C79.8318 551.129 80.1811 551.228 80.6092 551.475C80.993 551.697 81.3289 551.981 81.6167 552.33C81.9046 552.675 82.1285 553.077 82.2884 553.535C82.4483 553.991 82.5283 554.498 82.5283 555.055L82.5283 559.214L81.6573 558.711L81.6573 554.62C81.6573 554.106 81.5417 553.638 81.3104 553.218C81.0791 552.795 80.7618 552.467 80.3583 552.234C80.0803 552.073 79.8318 551.999 79.6128 552.012C79.3963 552.026 79.2253 552.131 79.0998 552.325C78.9744 552.52 78.9116 552.807 78.9116 553.188ZM87.1607 553.161L88.2531 553.792L90.8216 562.519L90.9102 562.57L93.4788 556.809L94.5711 557.439L94.5711 566.167L93.7149 565.672L93.7149 559.042L93.6411 558.999L91.2792 564.266L90.4526 563.789L88.0907 555.795L88.0169 555.752L88.0169 562.383L87.1607 561.888L87.1607 553.161ZM97.9562 568.274C97.597 568.067 97.271 567.801 96.9782 567.475C96.6854 567.147 96.4529 566.784 96.2807 566.387C96.1085 565.986 96.0224 565.573 96.0224 565.147C96.0224 564.772 96.0864 564.505 96.2143 564.345C96.3422 564.184 96.5132 564.098 96.7273 564.088C96.9413 564.078 97.1775 564.115 97.4358 564.198C97.6966 564.281 97.9586 564.378 98.2219 564.49C98.5663 564.638 98.8456 564.761 99.0596 564.859C99.2761 564.956 99.4336 565 99.532 564.991C99.6329 564.984 99.6833 564.899 99.6833 564.738L99.6833 564.703C99.6833 564.283 99.5837 563.899 99.3844 563.551C99.1876 563.204 98.8886 562.915 98.4876 562.684C98.0718 562.443 97.7458 562.36 97.5096 562.434C97.2735 562.508 97.1074 562.637 97.0114 562.82L96.1848 562.002C96.3324 561.689 96.5292 561.493 96.7752 561.414C97.0237 561.333 97.2944 561.333 97.5871 561.414C97.8824 561.493 98.1727 561.615 98.4581 561.78C98.6402 561.885 98.8493 562.032 99.0855 562.219C99.3241 562.405 99.5542 562.639 99.7756 562.92C99.9995 563.203 100.185 563.542 100.333 563.936C100.48 564.331 100.554 564.789 100.554 565.309L100.554 569.621L99.6833 569.118L99.6833 568.232L99.639 568.206C99.58 568.314 99.4816 568.409 99.3438 568.492C99.206 568.574 99.0227 568.606 98.7939 568.588C98.5651 568.569 98.2859 568.465 97.9562 568.274ZM98.089 567.448C98.4335 567.647 98.7238 567.736 98.96 567.716C99.1986 567.698 99.3782 567.6 99.4988 567.422C99.6218 567.246 99.6833 567.022 99.6833 566.749L99.6833 565.828C99.6464 565.858 99.5652 565.858 99.4397 565.828C99.3167 565.797 99.174 565.75 99.0117 565.688C98.8517 565.624 98.6955 565.559 98.543 565.494C98.3929 565.427 98.2711 565.374 98.1776 565.334C97.9513 565.238 97.7397 565.171 97.5429 565.134C97.3485 565.095 97.191 565.117 97.0705 565.198C96.9524 565.277 96.8933 565.445 96.8933 565.701C96.8933 566.05 97.0053 566.379 97.2292 566.687C97.4555 566.994 97.7421 567.247 98.089 567.448ZM103.015 567.104L103.015 571.042L102.144 570.539L102.144 563.993L102.985 564.479L102.985 565.502L103.059 565.545C103.192 565.289 103.394 565.138 103.664 565.093C103.935 565.045 104.284 565.144 104.712 565.391C105.096 565.613 105.432 565.898 105.72 566.246C106.008 566.591 106.232 566.993 106.392 567.451C106.552 567.907 106.632 568.414 106.632 568.971L106.632 573.13L105.761 572.627L105.761 568.536C105.761 568.022 105.645 567.554 105.414 567.134C105.182 566.711 104.865 566.383 104.462 566.15C104.184 565.989 103.935 565.915 103.716 565.928C103.5 565.942 103.329 566.047 103.203 566.241C103.078 566.436 103.015 566.723 103.015 567.104ZM109.891 575.165C109.532 574.958 109.206 574.691 108.913 574.366C108.62 574.038 108.388 573.675 108.216 573.277C108.043 572.877 107.957 572.463 107.957 572.037C107.957 571.662 108.021 571.395 108.149 571.236C108.277 571.074 108.448 570.988 108.662 570.978C108.876 570.968 109.112 571.005 109.371 571.089C109.632 571.171 109.894 571.269 110.157 571.381C110.501 571.529 110.78 571.652 110.995 571.75C111.211 571.846 111.369 571.89 111.467 571.882C111.568 571.875 111.618 571.79 111.618 571.628L111.618 571.594C111.618 571.174 111.519 570.789 111.319 570.441C111.122 570.095 110.824 569.806 110.423 569.574C110.007 569.334 109.681 569.251 109.445 569.325C109.208 569.399 109.042 569.527 108.946 569.711L108.12 568.892C108.267 568.58 108.464 568.384 108.71 568.304C108.959 568.223 109.229 568.223 109.522 568.304C109.817 568.384 110.108 568.506 110.393 568.671C110.575 568.776 110.784 568.922 111.02 569.11C111.259 569.296 111.489 569.529 111.71 569.811C111.934 570.093 112.12 570.432 112.268 570.827C112.415 571.222 112.489 571.679 112.489 572.199L112.489 576.512L111.618 576.009L111.618 575.122L111.574 575.097C111.515 575.205 111.416 575.3 111.279 575.382C111.141 575.465 110.958 575.497 110.729 575.478C110.5 575.46 110.221 575.355 109.891 575.165ZM110.024 574.338C110.368 574.537 110.659 574.627 110.895 574.607C111.134 574.588 111.313 574.49 111.434 574.313C111.557 574.137 111.618 573.912 111.618 573.64L111.618 572.719C111.581 572.749 111.5 572.749 111.375 572.719C111.252 572.688 111.109 572.641 110.947 572.578C110.787 572.515 110.63 572.45 110.478 572.385C110.328 572.318 110.206 572.265 110.113 572.225C109.886 572.128 109.675 572.061 109.478 572.024C109.283 571.986 109.126 572.007 109.005 572.088C108.887 572.168 108.828 572.336 108.828 572.591C108.828 572.941 108.94 573.269 109.164 573.578C109.39 573.885 109.677 574.138 110.024 574.338ZM116.367 581.341C115.946 581.098 115.585 580.827 115.282 580.527C114.979 580.231 114.727 579.923 114.525 579.605C114.326 579.291 114.167 578.986 114.049 578.691L114.743 578.529C114.822 578.694 114.921 578.888 115.042 579.111C115.163 579.336 115.327 579.567 115.537 579.801C115.748 580.04 116.025 580.258 116.367 580.455C116.825 580.719 117.202 580.809 117.5 580.726C117.798 580.642 117.946 580.327 117.946 579.782L117.946 578.452L117.873 578.41C117.809 578.492 117.718 578.587 117.6 578.695C117.484 578.802 117.317 578.86 117.098 578.87C116.881 578.878 116.588 578.776 116.219 578.563C115.762 578.299 115.351 577.937 114.987 577.476C114.625 577.018 114.338 576.488 114.127 575.889C113.918 575.291 113.813 574.651 113.813 573.969C113.813 573.299 113.915 572.774 114.119 572.395C114.324 572.013 114.608 571.79 114.972 571.728C115.336 571.662 115.757 571.768 116.234 572.043C116.603 572.256 116.896 572.496 117.112 572.763C117.331 573.029 117.499 573.285 117.614 573.53C117.732 573.775 117.823 573.972 117.887 574.123L117.976 574.174L117.976 573.134L118.817 573.62L118.817 580.353C118.817 580.915 118.707 581.309 118.485 581.533C118.266 581.762 117.971 581.851 117.6 581.802C117.23 581.756 116.82 581.603 116.367 581.341ZM116.337 577.728C116.687 577.929 116.982 578.008 117.223 577.962C117.464 577.917 117.648 577.757 117.773 577.483C117.898 577.209 117.961 576.83 117.961 576.347C117.961 575.875 117.9 575.424 117.777 574.992C117.654 574.56 117.472 574.172 117.23 573.829C116.989 573.485 116.692 573.211 116.337 573.006C115.968 572.793 115.661 572.723 115.415 572.797C115.171 572.873 114.988 573.057 114.865 573.349C114.744 573.643 114.684 574.012 114.684 574.455C114.684 574.91 114.746 575.347 114.869 575.768C114.994 576.187 115.179 576.566 115.422 576.905C115.668 577.243 115.973 577.518 116.337 577.728ZM122.788 582.594C122.242 582.279 121.771 581.868 121.375 581.361C120.981 580.852 120.677 580.285 120.463 579.658C120.252 579.03 120.146 578.381 120.146 577.711C120.146 577.04 120.252 576.51 120.463 576.121C120.677 575.731 120.975 575.502 121.356 575.435C121.74 575.367 122.188 575.481 122.7 575.776C122.995 575.947 123.287 576.172 123.574 576.451C123.862 576.731 124.124 577.067 124.36 577.459C124.597 577.848 124.785 578.292 124.925 578.791C125.065 579.29 125.135 579.844 125.135 580.455L125.135 580.881L120.766 578.358L120.766 577.489L124.25 579.5C124.25 579.131 124.186 578.765 124.058 578.401C123.932 578.039 123.753 577.706 123.519 577.404C123.288 577.103 123.015 576.861 122.7 576.679C122.353 576.479 122.053 576.405 121.799 576.458C121.548 576.509 121.355 576.653 121.22 576.89C121.085 577.128 121.017 577.427 121.017 577.787L121.017 578.367C121.017 578.861 121.091 579.323 121.238 579.752C121.388 580.179 121.596 580.559 121.862 580.892C122.128 581.221 122.436 581.488 122.788 581.691C123.017 581.823 123.224 581.905 123.408 581.938C123.595 581.969 123.756 581.949 123.892 581.876C124.027 581.801 124.132 581.671 124.205 581.486L125.047 582.245C124.958 582.523 124.809 582.727 124.6 582.856C124.391 582.983 124.133 583.027 123.825 582.988C123.518 582.947 123.172 582.816 122.788 582.594ZM126.46 584.578L126.46 578.032L127.302 578.518L127.302 579.541L127.376 579.584C127.494 579.302 127.684 579.141 127.948 579.1C128.211 579.056 128.527 579.14 128.896 579.353C129.27 579.569 129.581 579.847 129.83 580.187C130.081 580.525 130.276 580.909 130.416 581.339L130.476 581.373C130.621 581.119 130.838 580.976 131.129 580.945C131.419 580.911 131.767 581.011 132.173 581.246C132.68 581.538 133.094 581.961 133.417 582.513C133.739 583.063 133.9 583.723 133.9 584.493L133.9 588.873L133.029 588.371L133.029 583.99C133.029 583.507 132.915 583.096 132.686 582.756C132.457 582.417 132.188 582.157 131.878 581.978C131.479 581.748 131.171 581.709 130.952 581.861C130.733 582.01 130.623 582.297 130.623 582.72L130.623 586.981L129.737 586.47L129.737 581.987C129.737 581.615 129.633 581.255 129.424 580.907C129.215 580.556 128.945 580.285 128.616 580.095C128.389 579.964 128.178 579.912 127.981 579.937C127.786 579.964 127.629 580.067 127.508 580.244C127.39 580.42 127.331 580.669 127.331 580.99L127.331 585.081L126.46 584.578ZM137.869 591.301C137.323 590.986 136.852 590.575 136.456 590.068C136.062 589.559 135.758 588.992 135.544 588.365C135.333 587.737 135.227 587.088 135.227 586.418C135.227 585.747 135.333 585.217 135.544 584.828C135.758 584.438 136.056 584.209 136.437 584.142C136.821 584.074 137.269 584.188 137.781 584.483C138.076 584.654 138.368 584.879 138.655 585.159C138.943 585.438 139.205 585.774 139.441 586.166C139.678 586.556 139.866 586.999 140.006 587.498C140.146 587.997 140.216 588.551 140.216 589.162L140.216 589.588L135.847 587.065L135.847 586.196L139.331 588.208C139.331 587.838 139.267 587.472 139.139 587.108C139.013 586.746 138.834 586.413 138.6 586.111C138.369 585.81 138.096 585.568 137.781 585.386C137.434 585.186 137.134 585.112 136.88 585.165C136.629 585.216 136.436 585.36 136.301 585.597C136.166 585.835 136.098 586.134 136.098 586.494L136.098 587.074C136.098 587.568 136.172 588.03 136.319 588.459C136.469 588.886 136.677 589.266 136.943 589.599C137.209 589.928 137.517 590.195 137.869 590.398C138.098 590.53 138.305 590.612 138.489 590.645C138.676 590.676 138.837 590.656 138.973 590.583C139.108 590.508 139.213 590.378 139.286 590.193L140.128 590.952C140.039 591.23 139.89 591.434 139.681 591.563C139.472 591.69 139.214 591.734 138.906 591.695C138.599 591.654 138.253 591.523 137.869 591.301ZM142.412 589.85L142.412 593.788L141.541 593.285L141.541 586.739L142.383 587.225L142.383 588.248L142.457 588.291C142.589 588.035 142.791 587.884 143.062 587.839C143.332 587.791 143.682 587.89 144.11 588.137C144.494 588.359 144.83 588.644 145.117 588.992C145.405 589.337 145.629 589.739 145.789 590.198C145.949 590.654 146.029 591.16 146.029 591.717L146.029 595.876L145.158 595.373L145.158 591.282C145.158 590.768 145.042 590.301 144.811 589.88C144.58 589.457 144.262 589.129 143.859 588.896C143.581 588.735 143.332 588.661 143.113 588.674C142.897 588.688 142.726 588.793 142.6 588.987C142.475 589.182 142.412 589.47 142.412 589.85ZM150.086 591.673L150.086 592.525L147.148 590.829L147.148 589.977L150.086 591.673ZM148.004 588.903L148.875 589.405L148.875 595.644C148.875 595.928 148.911 596.162 148.982 596.345C149.056 596.527 149.149 596.675 149.263 596.788C149.378 596.901 149.5 596.994 149.628 597.067C149.724 597.123 149.803 597.163 149.864 597.187C149.926 597.208 149.975 597.225 150.012 597.238L150.189 598.244C150.13 598.235 150.047 598.213 149.942 598.178C149.836 598.145 149.702 598.082 149.539 597.988C149.293 597.846 149.052 597.646 148.816 597.387C148.582 597.13 148.388 596.832 148.233 596.492C148.08 596.154 148.004 595.795 148.004 595.414L148.004 588.903Z" fill="white"/>
<path d="M21.3008 427.166L21.6721 394.288L214.454 506.646C225.027 512.808 238.095 512.813 248.672 506.66L439.573 395.602V425.599C439.573 431.015 436.653 436.011 431.934 438.669L247.35 542.621C236.619 548.664 223.503 548.623 212.811 542.513L26.3389 435.961C23.188 434.161 21.2598 430.795 21.3008 427.166Z" fill="#101010"/>
<path d="M21.3008 427.166L21.6721 394.288L214.454 506.646C225.027 512.808 238.095 512.813 248.672 506.66L439.573 395.602V425.599C439.573 431.015 436.653 436.011 431.934 438.669L247.35 542.621C236.619 548.664 223.503 548.623 212.811 542.513L26.3389 435.961C23.188 434.161 21.2598 430.795 21.3008 427.166Z" fill="url(#paint2_linear_1421_3857)"/>
<path d="M21.3008 427.166L21.6721 394.288L214.454 506.646C225.027 512.808 238.095 512.813 248.672 506.66L439.573 395.602V425.599C439.573 431.015 436.653 436.011 431.934 438.669L247.35 542.621C236.619 548.664 223.503 548.623 212.811 542.513L26.3389 435.961C23.188 434.161 21.2598 430.795 21.3008 427.166Z" stroke="#404040"/>
<path d="M247.351 274.099L436.294 382.524C442.31 385.976 442.324 394.65 436.319 398.121L249.456 506.141C238.988 512.193 226.094 512.229 215.592 506.237L25.603 397.846C19.5464 394.391 19.5503 385.658 25.61 382.208L215.592 274.045C225.441 268.437 237.521 268.458 247.351 274.099Z" fill="#131313" stroke="#404040"/>
<path d="M36.7316 421.127L37.824 421.758L40.3926 430.485L40.4811 430.536L43.0497 424.775L44.1421 425.405L44.1421 434.133L43.2859 433.638L43.2859 427.008L43.2121 426.965L40.8502 432.232L40.0235 431.755L37.6616 423.76L37.5878 423.718L37.5878 430.348L36.7316 429.854L36.7316 421.127ZM47.5271 436.24C47.1679 436.033 46.8419 435.767 46.5492 435.441C46.2564 435.113 46.0239 434.75 45.8517 434.352C45.6794 433.952 45.5933 433.539 45.5933 433.112C45.5933 432.737 45.6573 432.47 45.7852 432.311C45.9132 432.149 46.0842 432.063 46.2982 432.053C46.5123 432.044 46.7484 432.08 47.0068 432.164C47.2676 432.247 47.5296 432.344 47.7928 432.456C48.1373 432.604 48.4165 432.727 48.6306 432.825C48.8471 432.921 49.0045 432.965 49.1029 432.957C49.2038 432.95 49.2543 432.865 49.2543 432.703L49.2543 432.669C49.2543 432.249 49.1546 431.865 48.9553 431.517C48.7585 431.17 48.4596 430.881 48.0585 430.649C47.6428 430.409 47.3168 430.326 47.0806 430.4C46.8444 430.474 46.6783 430.602 46.5824 430.786L45.7557 429.968C45.9033 429.655 46.1002 429.459 46.3462 429.379C46.5947 429.299 46.8653 429.299 47.1581 429.379C47.4533 429.459 47.7436 429.581 48.029 429.746C48.2111 429.851 48.4202 429.997 48.6564 430.185C48.8951 430.371 49.1251 430.605 49.3465 430.886C49.5704 431.169 49.7562 431.507 49.9038 431.902C50.0514 432.297 50.1252 432.754 50.1252 433.274L50.1252 437.587L49.2543 437.084L49.2543 436.198L49.21 436.172C49.1509 436.28 49.0525 436.375 48.9147 436.458C48.777 436.54 48.5937 436.572 48.3649 436.553C48.136 436.535 47.8568 436.431 47.5271 436.24ZM47.66 435.414C48.0044 435.612 48.2947 435.702 48.5309 435.682C48.7696 435.664 48.9492 435.566 49.0697 435.388C49.1927 435.212 49.2543 434.987 49.2543 434.715L49.2543 433.794C49.2173 433.824 49.1362 433.824 49.0107 433.794C48.8877 433.763 48.745 433.716 48.5826 433.654C48.4227 433.59 48.2664 433.525 48.1139 433.46C47.9638 433.393 47.842 433.34 47.7486 433.3C47.5222 433.203 47.3106 433.137 47.1138 433.1C46.9194 433.061 46.762 433.083 46.6414 433.164C46.5233 433.243 46.4643 433.411 46.4643 433.666C46.4643 434.016 46.5762 434.345 46.8001 434.653C47.0265 434.96 47.3131 435.213 47.66 435.414ZM54.0177 439.971C53.4863 439.664 53.0287 439.255 52.6449 438.743C52.261 438.232 51.9658 437.662 51.7591 437.034C51.5525 436.407 51.4491 435.766 51.4491 435.113C51.4491 434.448 51.5549 433.922 51.7665 433.536C51.9806 433.148 52.2783 432.921 52.6596 432.854C53.0434 432.786 53.4912 432.9 54.0029 433.195C54.4015 433.425 54.7607 433.718 55.0806 434.073C55.4004 434.428 55.6624 434.818 55.8666 435.243C56.0708 435.667 56.1975 436.098 56.2467 436.536L55.3758 436.033C55.3094 435.696 55.1617 435.347 54.9329 434.985C54.7066 434.621 54.4015 434.329 54.0177 434.107C53.6782 433.911 53.3805 433.841 53.1246 433.898C52.8712 433.954 52.6731 434.125 52.5304 434.412C52.3902 434.697 52.3201 435.087 52.3201 435.581C52.3201 436.087 52.389 436.567 52.5268 437.022C52.667 437.478 52.8638 437.883 53.1172 438.236C53.3731 438.591 53.6733 438.868 54.0177 439.067C54.244 439.198 54.4495 439.271 54.634 439.287C54.8185 439.302 54.9748 439.262 55.1027 439.165C55.2306 439.069 55.3217 438.917 55.3758 438.709L56.2467 439.212C56.1975 439.57 56.0757 439.848 55.8814 440.045C55.6895 440.241 55.4348 440.338 55.1175 440.337C54.8025 440.334 54.436 440.212 54.0177 439.971ZM58.3909 438.422L58.3909 442.359L57.5199 441.856L57.5199 433.129L58.3909 433.632L58.3909 436.836L58.4647 436.879C58.5975 436.618 58.7968 436.464 59.0625 436.419C59.3307 436.372 59.6875 436.477 60.1328 436.734C60.519 436.957 60.8573 437.242 61.1476 437.588C61.438 437.932 61.6631 438.333 61.823 438.792C61.9854 439.25 62.0666 439.76 62.0666 440.322L62.0666 444.481L61.1956 443.978L61.1956 439.887C61.1956 439.368 61.0788 438.898 60.845 438.479C60.6138 438.059 60.2927 437.73 59.8818 437.493C59.5964 437.328 59.3406 437.25 59.1142 437.258C58.8903 437.268 58.7132 437.369 58.5828 437.561C58.4549 437.754 58.3909 438.041 58.3909 438.422ZM63.6599 445.401L63.6599 438.856L64.5309 439.359L64.5309 445.904L63.6599 445.401ZM64.1028 438.02C63.933 437.922 63.7866 437.771 63.6636 437.567C63.5431 437.364 63.4828 437.168 63.4828 436.981C63.4828 436.793 63.5431 436.667 63.6636 436.604C63.7866 436.541 63.933 436.559 64.1028 436.657C64.2725 436.755 64.4177 436.905 64.5382 437.109C64.6613 437.313 64.7228 437.509 64.7228 437.697C64.7228 437.884 64.6613 438.009 64.5382 438.072C64.4177 438.136 64.2725 438.118 64.1028 438.02ZM66.997 443.39L66.997 447.328L66.1261 446.825L66.1261 440.28L66.9675 440.765L66.9675 441.788L67.0413 441.831C67.1742 441.575 67.3759 441.424 67.6465 441.379C67.9172 441.331 68.2665 441.43 68.6946 441.677C69.0784 441.899 69.4143 442.184 69.7021 442.532C69.99 442.877 70.2139 443.279 70.3738 443.738C70.5337 444.194 70.6137 444.7 70.6137 445.257L70.6137 449.416L69.7427 448.913L69.7427 444.822C69.7427 444.308 69.6271 443.841 69.3958 443.42C69.1645 442.997 68.8472 442.669 68.4437 442.436C68.1657 442.275 67.9172 442.201 67.6982 442.214C67.4817 442.228 67.3107 442.333 67.1852 442.527C67.0597 442.722 66.997 443.01 66.997 443.39ZM74.5818 451.843C74.0356 451.528 73.5645 451.117 73.1684 450.61C72.7747 450.101 72.4709 449.534 72.2568 448.907C72.0452 448.279 71.9394 447.63 71.9394 446.96C71.9394 446.289 72.0452 445.759 72.2568 445.37C72.4709 444.98 72.7686 444.751 73.1499 444.684C73.5337 444.616 73.9815 444.73 74.4932 445.025C74.7885 445.196 75.08 445.421 75.3679 445.701C75.6557 445.98 75.9177 446.316 76.1539 446.708C76.3901 447.098 76.5783 447.541 76.7186 448.04C76.8588 448.539 76.9289 449.093 76.9289 449.704L76.9289 450.13L72.5594 447.607L72.5594 446.738L76.0432 448.75C76.0432 448.38 75.9793 448.014 75.8513 447.65C75.7258 447.288 75.5462 446.955 75.3125 446.653C75.0812 446.352 74.8082 446.11 74.4932 445.928C74.1463 445.728 73.8462 445.654 73.5928 445.707C73.3418 445.758 73.1487 445.902 73.0134 446.139C72.878 446.377 72.8104 446.676 72.8104 447.036L72.8104 447.616C72.8104 448.11 72.8842 448.572 73.0318 449.001C73.1819 449.428 73.3898 449.808 73.6555 450.141C73.9212 450.47 74.23 450.737 74.5818 450.94C74.8106 451.072 75.0173 451.154 75.2018 451.187C75.3888 451.218 75.5499 451.198 75.6853 451.125C75.8206 451.05 75.9251 450.92 75.9989 450.735L76.8404 451.494C76.7518 451.772 76.6029 451.976 76.3938 452.105C76.1847 452.232 75.9264 452.276 75.6188 452.237C75.3113 452.196 74.9656 452.065 74.5818 451.843ZM81.2947 446.855L82.3871 447.486L84.9557 456.213L85.0442 456.264L87.6128 450.503L88.7052 451.134L88.7052 459.861L87.849 459.367L87.849 452.736L87.7752 452.693L85.4133 457.96L84.5866 457.483L82.2247 449.489L82.1509 449.446L82.1509 456.077L81.2947 455.583L81.2947 446.855ZM92.725 462.318C92.2132 462.023 91.7642 461.623 91.378 461.119C90.9942 460.616 90.694 460.049 90.4775 459.418C90.2634 458.789 90.1564 458.136 90.1564 457.46C90.1564 456.778 90.2634 456.245 90.4775 455.86C90.694 455.477 90.9942 455.255 91.378 455.195C91.7642 455.137 92.2132 455.256 92.725 455.551C93.2367 455.847 93.6845 456.246 94.0683 456.749C94.4546 457.253 94.7547 457.821 94.9688 458.453C95.1853 459.087 95.2935 459.744 95.2935 460.426C95.2935 461.102 95.1853 461.631 94.9688 462.011C94.7547 462.394 94.4546 462.614 94.0683 462.672C93.6845 462.732 93.2367 462.614 92.725 462.318ZM92.725 461.415C93.1137 461.639 93.4335 461.709 93.6845 461.624C93.9354 461.538 94.1212 461.343 94.2418 461.038C94.3623 460.732 94.4226 460.361 94.4226 459.923C94.4226 459.486 94.3623 459.043 94.2418 458.596C94.1212 458.148 93.9354 457.736 93.6845 457.358C93.4335 456.98 93.1137 456.679 92.725 456.455C92.3362 456.23 92.0164 456.162 91.7655 456.25C91.5145 456.338 91.3288 456.536 91.2082 456.845C91.0876 457.153 91.0274 457.526 91.0274 457.963C91.0274 458.401 91.0876 458.842 91.2082 459.286C91.3288 459.731 91.5145 460.141 91.7655 460.516C92.0164 460.891 92.3362 461.19 92.725 461.415ZM97.494 460.998L97.494 464.935L96.623 464.432L96.623 457.887L97.4644 458.373L97.4644 459.395L97.5382 459.438C97.6711 459.182 97.8728 459.032 98.1435 458.986C98.4141 458.938 98.7635 459.038 99.1916 459.285C99.5754 459.506 99.9112 459.791 100.199 460.139C100.487 460.484 100.711 460.886 100.871 461.345C101.031 461.801 101.111 462.307 101.111 462.864L101.111 467.023L100.24 466.52L100.24 462.43C100.24 461.915 100.124 461.448 99.8928 461.028C99.6615 460.604 99.3441 460.276 98.9406 460.043C98.6626 459.883 98.4141 459.809 98.1951 459.822C97.9786 459.836 97.8076 459.94 97.6822 460.135C97.5567 460.329 97.494 460.617 97.494 460.998ZM102.702 467.942L102.702 461.397L103.573 461.9L103.573 468.445L102.702 467.942ZM103.145 460.561C102.975 460.463 102.829 460.312 102.706 460.108C102.585 459.905 102.525 459.709 102.525 459.522C102.525 459.334 102.585 459.208 102.706 459.145C102.829 459.082 102.975 459.1 103.145 459.198C103.315 459.296 103.46 459.446 103.58 459.65C103.703 459.854 103.765 460.05 103.765 460.238C103.765 460.425 103.703 460.55 103.58 460.613C103.46 460.677 103.315 460.659 103.145 460.561ZM107.633 464.244L107.633 465.096L104.696 463.4L104.696 462.548L107.633 464.244ZM105.552 461.474L106.423 461.977L106.423 468.215C106.423 468.5 106.459 468.733 106.53 468.916C106.604 469.098 106.697 469.246 106.81 469.36C106.926 469.472 107.048 469.565 107.176 469.639C107.272 469.694 107.351 469.734 107.412 469.758C107.474 469.779 107.523 469.796 107.56 469.809L107.737 470.815C107.678 470.806 107.595 470.784 107.49 470.749C107.384 470.716 107.25 470.653 107.087 470.559C106.841 470.417 106.6 470.217 106.364 469.958C106.13 469.701 105.936 469.403 105.781 469.063C105.628 468.725 105.552 468.366 105.552 467.985L105.552 461.474ZM111.186 472.976C110.674 472.681 110.225 472.281 109.839 471.777C109.455 471.274 109.155 470.707 108.938 470.077C108.724 469.447 108.617 468.795 108.617 468.118C108.617 467.437 108.724 466.903 108.938 466.518C109.155 466.135 109.455 465.913 109.839 465.854C110.225 465.795 110.674 465.914 111.186 466.209C111.697 466.505 112.145 466.904 112.529 467.407C112.915 467.911 113.215 468.479 113.429 469.111C113.646 469.745 113.754 470.403 113.754 471.084C113.754 471.761 113.646 472.289 113.429 472.67C113.215 473.052 112.915 473.272 112.529 473.33C112.145 473.39 111.697 473.272 111.186 472.976ZM111.186 472.073C111.574 472.297 111.894 472.367 112.145 472.282C112.396 472.197 112.582 472.001 112.702 471.696C112.823 471.39 112.883 471.019 112.883 470.582C112.883 470.144 112.823 469.702 112.702 469.254C112.582 468.807 112.396 468.394 112.145 468.016C111.894 467.638 111.574 467.337 111.186 467.113C110.797 466.888 110.477 466.82 110.226 466.908C109.975 466.996 109.789 467.194 109.669 467.503C109.548 467.811 109.488 468.184 109.488 468.621C109.488 469.059 109.548 469.5 109.669 469.944C109.789 470.389 109.975 470.799 110.226 471.174C110.477 471.549 110.797 471.849 111.186 472.073ZM115.084 475.091L115.084 468.545L115.925 469.031L115.925 470.02L115.984 470.054C116.087 469.789 116.274 469.635 116.545 469.589C116.816 469.544 117.121 469.619 117.46 469.815C117.524 469.852 117.604 469.9 117.7 469.958C117.796 470.016 117.869 470.062 117.918 470.096L117.918 471.119C117.888 471.093 117.821 471.042 117.715 470.963C117.612 470.884 117.502 470.811 117.386 470.744C117.111 470.585 116.865 470.51 116.648 470.518C116.434 470.525 116.265 470.609 116.139 470.77C116.016 470.929 115.955 471.156 115.955 471.451L115.955 475.593L115.084 475.091ZM118.95 477.323L118.95 470.778L119.821 471.28L119.821 477.826L118.95 477.323ZM119.393 469.942C119.223 469.844 119.077 469.693 118.954 469.489C118.833 469.285 118.773 469.09 118.773 468.903C118.773 468.715 118.833 468.589 118.954 468.525C119.077 468.463 119.223 468.481 119.393 468.579C119.563 468.677 119.708 468.827 119.829 469.03C119.952 469.235 120.013 469.431 120.013 469.618C120.013 469.806 119.952 469.931 119.829 469.993C119.708 470.057 119.563 470.04 119.393 469.942ZM122.287 475.312L122.287 479.25L121.416 478.747L121.416 472.201L122.258 472.687L122.258 473.71L122.332 473.753C122.464 473.497 122.666 473.346 122.937 473.301C123.207 473.253 123.557 473.352 123.985 473.599C124.369 473.821 124.705 474.106 124.992 474.454C125.28 474.799 125.504 475.201 125.664 475.659C125.824 476.115 125.904 476.622 125.904 477.179L125.904 481.338L125.033 480.835L125.033 476.744C125.033 476.23 124.917 475.762 124.686 475.342C124.455 474.919 124.137 474.591 123.734 474.358C123.456 474.197 123.207 474.123 122.989 474.136C122.772 474.15 122.601 474.255 122.476 474.449C122.35 474.644 122.287 474.932 122.287 475.312ZM129.784 486.169C129.363 485.926 129.001 485.654 128.699 485.355C128.396 485.058 128.144 484.75 127.942 484.432C127.743 484.118 127.584 483.813 127.466 483.518L128.16 483.356C128.238 483.521 128.338 483.715 128.459 483.938C128.579 484.164 128.744 484.394 128.953 484.628C129.165 484.867 129.442 485.085 129.784 485.282C130.241 485.546 130.619 485.637 130.917 485.553C131.214 485.469 131.363 485.154 131.363 484.609L131.363 483.279L131.289 483.237C131.225 483.319 131.134 483.414 131.016 483.522C130.901 483.629 130.733 483.687 130.514 483.697C130.298 483.705 130.005 483.603 129.636 483.39C129.178 483.126 128.767 482.764 128.403 482.303C128.042 481.845 127.755 481.316 127.543 480.716C127.334 480.118 127.23 479.478 127.23 478.796C127.23 478.126 127.332 477.601 127.536 477.222C127.74 476.84 128.024 476.617 128.389 476.555C128.753 476.49 129.173 476.595 129.651 476.87C130.02 477.083 130.313 477.323 130.529 477.59C130.748 477.856 130.915 478.112 131.031 478.357C131.149 478.602 131.24 478.799 131.304 478.95L131.393 479.001L131.393 477.961L132.234 478.447L132.234 485.18C132.234 485.742 132.123 486.136 131.902 486.36C131.683 486.589 131.388 486.678 131.016 486.629C130.647 486.583 130.236 486.43 129.784 486.169ZM129.754 482.555C130.103 482.757 130.399 482.835 130.64 482.789C130.881 482.744 131.064 482.584 131.19 482.31C131.315 482.036 131.378 481.657 131.378 481.174C131.378 480.703 131.316 480.251 131.193 479.819C131.07 479.387 130.888 479 130.647 478.656C130.406 478.312 130.108 478.038 129.754 477.833C129.385 477.62 129.077 477.551 128.831 477.625C128.588 477.7 128.405 477.884 128.282 478.176C128.161 478.47 128.101 478.839 128.101 479.282C128.101 479.737 128.162 480.174 128.285 480.595C128.411 481.014 128.595 481.393 128.839 481.732C129.085 482.071 129.39 482.345 129.754 482.555Z" fill="white"/>
<path d="M21.3047 313.255L21.676 280.377L214.458 392.735C225.031 398.897 238.099 398.902 248.676 392.749L439.577 281.69V311.688C439.577 317.104 436.657 322.1 431.938 324.758L247.354 428.71C236.623 434.753 223.507 434.712 212.815 428.602L26.3428 322.05C23.1919 320.25 21.2637 316.884 21.3047 313.255Z" fill="url(#paint3_linear_1421_3857)" stroke="#005F24"/>
<path d="M247.355 160.618L436.298 269.043C442.314 272.495 442.328 281.169 436.322 284.641L249.46 392.66C238.992 398.712 226.098 398.748 215.595 392.757L25.6069 284.365C19.5503 280.91 19.5542 272.177 25.6139 268.727L215.595 160.564C225.445 154.956 237.525 154.977 247.355 160.618Z" fill="url(#paint4_linear_1421_3857)" stroke="#005F24"/>
<path d="M35.5948 306.733L36.6871 307.364L39.2557 316.091L39.3443 316.142L41.9128 310.381L43.0052 311.012L43.0052 319.739L42.149 319.245L42.149 312.614L42.0752 312.571L39.7133 317.838L38.8866 317.361L36.5248 309.367L36.451 309.324L36.451 315.955L35.5948 315.461L35.5948 306.733ZM46.3903 321.847C46.0311 321.639 45.7051 321.373 45.4123 321.048C45.1195 320.72 44.887 320.357 44.7148 319.959C44.5426 319.558 44.4565 319.145 44.4565 318.719C44.4565 318.344 44.5204 318.077 44.6484 317.918C44.7763 317.756 44.9473 317.67 45.1613 317.66C45.3754 317.65 45.6116 317.687 45.8699 317.771C46.1307 317.853 46.3927 317.95 46.656 318.063C47.0004 318.21 47.2797 318.333 47.4937 318.431C47.7102 318.528 47.8677 318.572 47.9661 318.563C48.0669 318.556 48.1174 318.472 48.1174 318.31L48.1174 318.276C48.1174 317.855 48.0177 317.471 47.8185 317.123C47.6216 316.776 47.3227 316.487 46.9217 316.256C46.5059 316.016 46.1799 315.933 45.9437 316.007C45.7075 316.08 45.5415 316.209 45.4455 316.392L44.6188 315.574C44.7665 315.261 44.9633 315.065 45.2093 314.986C45.4578 314.905 45.7284 314.905 46.0212 314.986C46.3164 315.065 46.6068 315.188 46.8922 315.352C47.0742 315.458 47.2833 315.604 47.5195 315.791C47.7582 315.977 47.9882 316.211 48.2096 316.492C48.4335 316.775 48.6193 317.114 48.7669 317.509C48.9145 317.904 48.9883 318.361 48.9883 318.881L48.9883 323.193L48.1174 322.69L48.1174 321.804L48.0731 321.779C48.0141 321.886 47.9156 321.982 47.7779 322.064C47.6401 322.146 47.4568 322.178 47.228 322.16C46.9992 322.141 46.7199 322.037 46.3903 321.847ZM46.5231 321.02C46.8676 321.219 47.1579 321.308 47.3941 321.288C47.6327 321.27 47.8123 321.172 47.9329 320.994C48.0559 320.818 48.1174 320.594 48.1174 320.321L48.1174 319.401C48.0805 319.431 47.9993 319.431 47.8738 319.401C47.7508 319.369 47.6081 319.323 47.4457 319.26C47.2858 319.196 47.1296 319.132 46.977 319.066C46.827 318.999 46.7052 318.946 46.6117 318.906C46.3853 318.81 46.1737 318.743 45.9769 318.706C45.7826 318.668 45.6251 318.689 45.5045 318.77C45.3865 318.85 45.3274 319.017 45.3274 319.273C45.3274 319.622 45.4393 319.951 45.6632 320.259C45.8896 320.566 46.1762 320.82 46.5231 321.02ZM53.0432 318.989L53.0432 319.841L50.1056 318.145L50.1056 317.293L53.0432 318.989ZM50.9618 316.219L51.8327 316.722L51.8327 322.961C51.8327 323.245 51.8684 323.478 51.9398 323.662C52.0136 323.843 52.1071 323.991 52.2202 324.105C52.3359 324.217 52.4577 324.31 52.5856 324.384C52.6815 324.439 52.7603 324.479 52.8218 324.503C52.8833 324.524 52.9325 324.542 52.9694 324.554L53.1465 325.56C53.0875 325.551 53.0051 325.529 52.8993 325.494C52.7935 325.461 52.6594 325.398 52.497 325.304C52.251 325.162 52.0099 324.962 51.7737 324.703C51.54 324.446 51.3456 324.148 51.1906 323.809C51.0381 323.47 50.9618 323.111 50.9618 322.73L50.9618 316.219ZM56.6691 327.764C56.1229 327.449 55.6517 327.038 55.2556 326.53C54.862 326.022 54.5581 325.455 54.3441 324.828C54.1325 324.2 54.0267 323.551 54.0267 322.881C54.0267 322.21 54.1325 321.68 54.3441 321.291C54.5581 320.901 54.8558 320.672 55.2372 320.605C55.621 320.537 56.0688 320.651 56.5805 320.946C56.8757 321.116 57.1673 321.342 57.4551 321.621C57.743 321.901 58.005 322.237 58.2412 322.629C58.4774 323.018 58.6656 323.462 58.8058 323.961C58.9461 324.459 59.0162 325.014 59.0162 325.625L59.0162 326.051L54.6467 323.528L54.6467 322.659L58.1305 324.67C58.1305 324.301 58.0665 323.935 57.9386 323.571C57.8131 323.209 57.6335 322.876 57.3998 322.574C57.1685 322.273 56.8954 322.031 56.5805 321.849C56.2336 321.649 55.9334 321.575 55.68 321.628C55.4291 321.679 55.236 321.823 55.1006 322.06C54.9653 322.298 54.8977 322.597 54.8977 322.957L54.8977 323.537C54.8977 324.031 54.9715 324.493 55.1191 324.922C55.2692 325.349 55.4771 325.729 55.7428 326.062C56.0085 326.391 56.3173 326.658 56.6691 326.861C56.8979 326.993 57.1046 327.075 57.2891 327.108C57.4761 327.139 57.6372 327.119 57.7725 327.046C57.9078 326.971 58.0124 326.841 58.0862 326.656L58.9276 327.415C58.8391 327.693 58.6902 327.897 58.4811 328.026C58.272 328.153 58.0136 328.197 57.7061 328.158C57.3986 328.117 57.0529 327.986 56.6691 327.764ZM60.3411 329.748L60.3411 323.202L61.1825 323.688L61.1825 324.677L61.2415 324.711C61.3449 324.447 61.5319 324.292 61.8025 324.246C62.0731 324.201 62.3782 324.276 62.7177 324.472C62.7817 324.509 62.8617 324.557 62.9576 324.615C63.0536 324.673 63.1261 324.719 63.1753 324.754L63.1753 325.776C63.1458 325.751 63.0782 325.699 62.9724 325.621C62.869 325.541 62.7595 325.468 62.6439 325.401C62.3684 325.242 62.1223 325.167 61.9058 325.175C61.6918 325.182 61.522 325.266 61.3965 325.427C61.2735 325.586 61.212 325.813 61.212 326.109L61.212 330.251L60.3411 329.748ZM64.2077 331.98L64.2077 325.435L65.0787 325.938L65.0787 332.483L64.2077 331.98ZM64.6506 324.6C64.4808 324.502 64.3344 324.35 64.2114 324.146C64.0909 323.943 64.0306 323.747 64.0306 323.56C64.0306 323.372 64.0909 323.247 64.2114 323.183C64.3344 323.12 64.4808 323.138 64.6506 323.236C64.8204 323.334 64.9655 323.485 65.0861 323.688C65.2091 323.892 65.2706 324.088 65.2706 324.276C65.2706 324.463 65.2091 324.588 65.0861 324.651C64.9655 324.715 64.8204 324.698 64.6506 324.6ZM68.342 334.521C67.9828 334.313 67.6568 334.047 67.364 333.722C67.0712 333.393 66.8387 333.03 66.6665 332.633C66.4943 332.232 66.4082 331.819 66.4082 331.393C66.4082 331.018 66.4721 330.751 66.6001 330.592C66.728 330.43 66.899 330.344 67.113 330.334C67.3271 330.324 67.5633 330.361 67.8216 330.445C68.0824 330.527 68.3444 330.624 68.6077 330.736C68.9521 330.884 69.2314 331.007 69.4454 331.105C69.6619 331.202 69.8194 331.246 69.9178 331.237C70.0187 331.23 70.0691 331.146 70.0691 330.984L70.0691 330.95C70.0691 330.529 69.9695 330.145 69.7702 329.797C69.5733 329.45 69.2744 329.161 68.8734 328.93C68.4576 328.69 68.1316 328.606 67.8954 328.68C67.6592 328.754 67.4932 328.883 67.3972 329.066L66.5706 328.248C66.7182 327.935 66.915 327.739 67.161 327.66C67.4095 327.579 67.6801 327.579 67.9729 327.66C68.2682 327.739 68.5585 327.861 68.8439 328.026C69.0259 328.131 69.2351 328.278 69.4712 328.465C69.7099 328.651 69.9399 328.885 70.1614 329.166C70.3852 329.449 70.571 329.788 70.7186 330.182C70.8662 330.577 70.94 331.035 70.94 331.555L70.94 335.867L70.0691 335.364L70.0691 334.478L70.0248 334.452C69.9658 334.56 69.8674 334.655 69.7296 334.738C69.5918 334.82 69.4085 334.852 69.1797 334.834C68.9509 334.815 68.6716 334.711 68.342 334.521ZM68.4748 333.694C68.8193 333.893 69.1096 333.982 69.3458 333.962C69.5844 333.944 69.764 333.846 69.8846 333.668C70.0076 333.492 70.0691 333.268 70.0691 332.995L70.0691 332.075C70.0322 332.104 69.951 332.104 69.8255 332.075C69.7025 332.043 69.5598 331.996 69.3974 331.934C69.2375 331.87 69.0813 331.805 68.9287 331.74C68.7787 331.673 68.6569 331.62 68.5634 331.58C68.337 331.484 68.1255 331.417 67.9286 331.38C67.7343 331.342 67.5768 331.363 67.4563 331.444C67.3382 331.523 67.2791 331.691 67.2791 331.947C67.2791 332.296 67.3911 332.625 67.6149 332.933C67.8413 333.24 68.1279 333.494 68.4748 333.694ZM73.4007 328.561L73.4007 337.288L72.5297 336.785L72.5297 328.058L73.4007 328.561ZM79.0111 335.447L78.2287 335.251C78.1795 335.072 78.1069 334.884 78.0109 334.687C77.9175 334.488 77.7895 334.295 77.6271 334.107C77.4648 333.92 77.2569 333.753 77.0035 333.606C76.6566 333.406 76.3675 333.332 76.1362 333.383C75.9074 333.432 75.793 333.598 75.793 333.879C75.793 334.129 75.8717 334.372 76.0292 334.608C76.1866 334.844 76.4327 335.106 76.7673 335.396L77.6087 336.121C78.1155 336.555 78.4932 336.991 78.7417 337.427C78.9901 337.86 79.1144 338.305 79.1144 338.763C79.1144 339.138 79.0209 339.419 78.8339 339.606C78.6494 339.795 78.3911 339.879 78.0589 339.858C77.7268 339.837 77.3405 339.699 76.9001 339.445C76.3219 339.111 75.8434 338.69 75.4645 338.181C75.0856 337.673 74.8458 337.111 74.7449 336.496L75.5716 336.734C75.6503 337.132 75.7991 337.482 76.0181 337.785C76.2395 338.089 76.5286 338.344 76.8854 338.55C77.2913 338.784 77.6136 338.871 77.8523 338.81C78.0934 338.747 78.2139 338.575 78.2139 338.294C78.2139 338.067 78.145 337.837 78.0073 337.604C77.8695 337.368 77.6579 337.129 77.3725 336.888L76.4277 336.087C75.9086 335.645 75.5273 335.205 75.2837 334.766C75.0426 334.325 74.922 333.879 74.922 333.428C74.922 333.058 75.0118 332.783 75.1914 332.603C75.3735 332.424 75.6208 332.344 75.9332 332.362C76.2481 332.382 76.6049 332.507 77.0035 332.737C77.5644 333.061 78.0048 333.457 78.3246 333.926C78.6469 334.396 78.8757 334.903 79.0111 335.447ZM85.4887 344.386C84.9917 344.099 84.5636 343.747 84.2044 343.329C83.8452 342.912 83.5685 342.464 83.3741 341.985C83.1797 341.506 83.0825 341.031 83.0825 340.559C83.0825 340.196 83.149 339.912 83.2818 339.707C83.4171 339.501 83.6029 339.346 83.8391 339.241C84.0777 339.134 84.3521 339.048 84.6621 338.983L85.7544 338.676C85.9685 338.638 86.1395 338.563 86.2674 338.452C86.3978 338.343 86.463 338.139 86.463 337.841C86.463 337.619 86.3781 337.356 86.2084 337.05C86.0411 336.746 85.8209 336.515 85.5478 336.358C85.3559 336.247 85.1861 336.206 85.0385 336.234C84.8933 336.261 84.7789 336.337 84.6953 336.462C84.6141 336.586 84.5735 336.738 84.5735 336.92C84.5735 337.125 84.6215 337.36 84.7174 337.625C84.8158 337.89 84.9401 338.174 85.0901 338.48C85.2427 338.784 85.4001 339.096 85.5625 339.417L89.0315 346.312L87.9835 345.707L85.1197 340.065C84.854 339.542 84.6129 339.068 84.3963 338.642C84.1798 338.216 84.0076 337.819 83.8797 337.453C83.7517 337.086 83.6878 336.733 83.6878 336.392C83.6878 336 83.7628 335.699 83.9129 335.491C84.0654 335.28 84.2783 335.172 84.5513 335.165C84.8269 335.156 85.1492 335.258 85.5182 335.471C85.8971 335.69 86.2231 335.964 86.4962 336.292C86.7693 336.617 86.9797 336.961 87.1273 337.325C87.2749 337.686 87.3487 338.028 87.3487 338.352C87.3487 338.77 87.2589 339.08 87.0793 339.283C86.8997 339.486 86.6549 339.63 86.3449 339.716L84.8392 340.142C84.4997 340.236 84.2696 340.384 84.1491 340.587C84.0285 340.79 83.9683 340.951 83.9683 341.071C83.9683 341.344 84.0298 341.633 84.1528 341.94C84.2758 342.247 84.4492 342.537 84.6731 342.812C84.897 343.086 85.159 343.309 85.4592 343.483C85.7446 343.648 86.0226 343.738 86.2932 343.755C86.5639 343.77 86.8087 343.706 87.0276 343.566C87.2491 343.427 87.4237 343.206 87.5517 342.905C87.6821 342.606 87.7473 342.221 87.7473 341.753L88.5887 342.238C88.5887 342.818 88.5309 343.258 88.4152 343.557C88.2996 343.857 88.1692 344.069 88.0241 344.192C87.8789 344.316 87.762 344.403 87.6735 344.454C87.6439 344.48 87.6169 344.507 87.5923 344.535C87.5677 344.564 87.5406 344.591 87.5111 344.616C87.2675 344.791 86.96 344.849 86.5885 344.791C86.217 344.73 85.8504 344.595 85.4887 344.386ZM93.9518 340.426L93.9518 349.153L93.0366 348.625L93.0366 339.897L93.9518 340.426ZM96.5398 346.71L96.5398 350.647L95.6688 350.144L95.6688 343.599L96.5102 344.085L96.5102 345.107L96.5841 345.15C96.7169 344.894 96.9187 344.744 97.1893 344.698C97.4599 344.65 97.8093 344.749 98.2374 344.997C98.6212 345.218 98.957 345.503 99.2449 345.851C99.5327 346.196 99.7566 346.598 99.9165 347.057C100.076 347.513 100.156 348.019 100.156 348.576L100.156 352.735L99.2855 352.232L99.2855 348.141C99.2855 347.627 99.1698 347.16 98.9386 346.739C98.7073 346.316 98.3899 345.988 97.9864 345.755C97.7084 345.595 97.4599 345.521 97.241 345.534C97.0244 345.548 96.8535 345.652 96.728 345.847C96.6025 346.041 96.5398 346.329 96.5398 346.71ZM106.18 349.668L104.084 355.003L103.198 354.491L101.102 346.736L102.047 347.281L103.612 353.401L103.671 353.435L105.235 349.122L106.18 349.668ZM109.503 358.268C108.957 357.953 108.486 357.542 108.09 357.034C107.696 356.526 107.392 355.958 107.178 355.332C106.967 354.704 106.861 354.055 106.861 353.385C106.861 352.714 106.967 352.184 107.178 351.795C107.392 351.404 107.69 351.176 108.071 351.109C108.455 351.041 108.903 351.154 109.415 351.45C109.71 351.62 110.002 351.845 110.289 352.125C110.577 352.405 110.839 352.741 111.076 353.133C111.312 353.522 111.5 353.966 111.64 354.465C111.78 354.963 111.851 355.518 111.851 356.129L111.851 356.555L107.481 354.032L107.481 353.163L110.965 355.174C110.965 354.805 110.901 354.439 110.773 354.075C110.647 353.713 110.468 353.38 110.234 353.078C110.003 352.777 109.73 352.535 109.415 352.353C109.068 352.153 108.768 352.079 108.514 352.132C108.263 352.183 108.07 352.327 107.935 352.564C107.8 352.801 107.732 353.1 107.732 353.461L107.732 354.041C107.732 354.535 107.806 354.997 107.953 355.426C108.103 355.853 108.311 356.233 108.577 356.566C108.843 356.895 109.152 357.162 109.503 357.365C109.732 357.497 109.939 357.579 110.123 357.612C110.31 357.643 110.472 357.622 110.607 357.55C110.742 357.475 110.847 357.345 110.921 357.16L111.762 357.919C111.673 358.197 111.525 358.401 111.315 358.53C111.106 358.657 110.848 358.701 110.54 358.662C110.233 358.621 109.887 358.49 109.503 358.268ZM114.046 356.817L114.046 360.755L113.175 360.252L113.175 353.706L114.017 354.192L114.017 355.215L114.091 355.257C114.223 355.002 114.425 354.851 114.696 354.806C114.966 354.757 115.316 354.857 115.744 355.104C116.128 355.326 116.464 355.61 116.751 355.958C117.039 356.304 117.263 356.706 117.423 357.164C117.583 357.62 117.663 358.127 117.663 358.684L117.663 362.843L116.792 362.34L116.792 358.249C116.792 357.735 116.676 357.267 116.445 356.847C116.214 356.424 115.896 356.095 115.493 355.863C115.215 355.702 114.966 355.628 114.748 355.641C114.531 355.655 114.36 355.76 114.235 355.954C114.109 356.149 114.046 356.436 114.046 356.817ZM121.72 358.639L121.72 359.492L118.782 357.796L118.782 356.943L121.72 358.639ZM119.638 355.869L120.509 356.372L120.509 362.611C120.509 362.895 120.545 363.129 120.616 363.312C120.69 363.494 120.784 363.641 120.897 363.755C121.012 363.867 121.134 363.96 121.262 364.034C121.358 364.09 121.437 364.129 121.498 364.154C121.56 364.175 121.609 364.192 121.646 364.205L121.823 365.21C121.764 365.202 121.682 365.18 121.576 365.144C121.47 365.112 121.336 365.048 121.174 364.955C120.927 364.813 120.686 364.612 120.45 364.354C120.216 364.097 120.022 363.798 119.867 363.459C119.715 363.121 119.638 362.761 119.638 362.381L119.638 355.869ZM125.272 367.372C124.76 367.076 124.311 366.677 123.925 366.172C123.541 365.67 123.241 365.103 123.024 364.472C122.81 363.843 122.703 363.19 122.703 362.514C122.703 361.832 122.81 361.299 123.024 360.914C123.241 360.53 123.541 360.309 123.925 360.249C124.311 360.191 124.76 360.309 125.272 360.605C125.784 360.9 126.231 361.299 126.615 361.802C127.001 362.307 127.302 362.875 127.516 363.507C127.732 364.14 127.84 364.798 127.84 365.48C127.84 366.156 127.732 366.684 127.516 367.065C127.302 367.447 127.001 367.667 126.615 367.726C126.231 367.785 125.784 367.667 125.272 367.372ZM125.272 366.469C125.66 366.693 125.98 366.763 126.231 366.677C126.482 366.592 126.668 366.397 126.789 366.091C126.909 365.786 126.969 365.415 126.969 364.977C126.969 364.54 126.909 364.097 126.789 363.65C126.668 363.202 126.482 362.79 126.231 362.412C125.98 362.034 125.66 361.733 125.272 361.508C124.883 361.284 124.563 361.216 124.312 361.304C124.061 361.392 123.876 361.59 123.755 361.898C123.634 362.206 123.574 362.579 123.574 363.017C123.574 363.454 123.634 363.895 123.755 364.34C123.876 364.785 124.061 365.194 124.312 365.569C124.563 365.944 124.883 366.244 125.272 366.469ZM129.17 369.486L129.17 362.941L130.011 363.426L130.011 364.415L130.07 364.449C130.174 364.185 130.361 364.03 130.631 363.985C130.902 363.939 131.207 364.015 131.546 364.211C131.61 364.247 131.69 364.295 131.786 364.353C131.882 364.412 131.955 364.458 132.004 364.492L132.004 365.515C131.975 365.489 131.907 365.437 131.801 365.359C131.698 365.279 131.588 365.206 131.473 365.14C131.197 364.98 130.951 364.905 130.735 364.914C130.521 364.921 130.351 365.005 130.225 365.165C130.102 365.324 130.041 365.551 130.041 365.847L130.041 369.989L129.17 369.486ZM133.77 374.597C133.622 374.511 133.491 374.421 133.375 374.326C133.259 374.234 133.179 374.162 133.135 374.111L133.357 373.352C133.568 373.537 133.755 373.668 133.918 373.744C134.08 373.821 134.224 373.82 134.349 373.742C134.477 373.668 134.594 373.496 134.7 373.224L134.862 372.807L132.766 365.017L133.711 365.562L135.276 371.682L135.335 371.716L136.899 367.403L137.844 367.949L135.438 374.06C135.33 374.335 135.196 374.538 135.036 374.667C134.876 374.799 134.69 374.858 134.479 374.844C134.269 374.831 134.033 374.749 133.77 374.597Z" fill="white"/>
<g opacity="0.5">
<path d="M273.334 297.697L260.461 272.304C260.121 271.624 259.487 271.004 258.62 270.503C257.752 270.002 256.678 269.636 255.499 269.44L211.51 262.011C210.254 261.799 208.923 261.785 207.654 261.972C206.386 262.158 205.228 262.537 204.3 263.071L173.405 280.908C172.481 281.444 171.824 282.112 171.501 282.845C171.178 283.577 171.202 284.346 171.57 285.071L184.436 310.468C184.776 311.148 185.41 311.768 186.278 312.269C187.145 312.77 188.219 313.136 189.398 313.332L233.387 320.761C234.643 320.973 235.974 320.987 237.243 320.801C238.511 320.614 239.669 320.235 240.597 319.702L271.489 301.866C272.416 301.33 273.076 300.661 273.401 299.928C273.725 299.194 273.702 298.424 273.334 297.697ZM253.457 273.483L265.196 296.674L250.314 294.161L238.572 270.969L253.457 273.483ZM225.03 289.896L213.29 266.706L230.237 269.567L241.976 292.757L225.03 289.896ZM206.293 267.888L217.994 290.974L190.28 306.974L178.57 283.894L206.293 267.888ZM235.438 316.712L195.449 309.958L223.15 293.965L239.143 296.668L227.614 303.324C226.929 303.72 226.544 304.257 226.544 304.816C226.544 305.376 226.929 305.913 227.614 306.308C228.299 306.704 229.229 306.927 230.198 306.927C231.168 306.927 232.097 306.704 232.783 306.308L247.142 298.018L263.148 300.713L235.441 316.71L235.438 316.712Z" fill="white"/>
</g>
<path d="M21.3047 161.872L21.676 128.994L214.458 241.352C225.031 247.514 238.099 247.519 248.676 241.365L439.577 130.307V160.304C439.577 165.721 436.657 170.716 431.938 173.374L247.354 277.326C236.623 283.369 223.507 283.328 212.815 277.219L26.3428 170.667C23.1919 168.867 21.2637 165.5 21.3047 161.872Z" fill="#101010"/>
<path d="M21.3047 161.872L21.676 128.994L214.458 241.352C225.031 247.514 238.099 247.519 248.676 241.365L439.577 130.307V160.304C439.577 165.721 436.657 170.716 431.938 173.374L247.354 277.326C236.623 283.369 223.507 283.328 212.815 277.219L26.3428 170.667C23.1919 168.867 21.2637 165.5 21.3047 161.872Z" fill="url(#paint5_linear_1421_3857)"/>
<path d="M21.3047 161.872L21.676 128.994L214.458 241.352C225.031 247.514 238.099 247.519 248.676 241.365L439.577 130.307V160.304C439.577 165.721 436.657 170.716 431.938 173.374L247.354 277.326C236.623 283.369 223.507 283.328 212.815 277.219L26.3428 170.667C23.1919 168.867 21.2637 165.5 21.3047 161.872Z" stroke="#404040"/>
<path d="M247.355 8.80444L436.298 117.229C442.314 120.682 442.328 129.356 436.322 132.827L249.46 240.847C238.992 246.898 226.098 246.935 215.595 240.943L25.6069 132.552C19.5503 129.096 19.5542 120.363 25.6139 116.913L215.595 8.75037C225.445 3.14294 237.525 3.16351 247.355 8.80444Z" fill="#131313" stroke="#404040"/>
<path d="M36.7394 162.648L36.7395 153.92L39.2932 155.395C39.8862 155.737 40.3709 156.14 40.7473 156.605C41.1262 157.068 41.4066 157.561 41.5887 158.084C41.7708 158.606 41.8618 159.125 41.8618 159.639C41.8618 160.153 41.7708 160.568 41.5887 160.883C41.4091 161.2 41.1311 161.375 40.7547 161.407C40.3782 161.437 39.896 161.282 39.308 160.943L37.4775 159.886L37.4775 158.949L39.2785 159.988C39.6844 160.223 40.0104 160.33 40.2564 160.31C40.5025 160.29 40.6808 160.175 40.7916 159.963C40.9047 159.75 40.9613 159.469 40.9613 159.119C40.9613 158.77 40.9047 158.425 40.7916 158.084C40.6808 157.744 40.5012 157.425 40.2528 157.125C40.0043 156.822 39.6746 156.552 39.2637 156.315L37.6547 155.386L37.6547 163.176L36.7394 162.648ZM43.218 166.388L43.218 159.843L44.0595 160.328L44.0595 161.317L44.1185 161.351C44.2218 161.087 44.4088 160.932 44.6795 160.887C44.9501 160.841 45.2552 160.916 45.5947 161.112C45.6587 161.149 45.7386 161.197 45.8346 161.255C45.9305 161.313 46.0031 161.36 46.0523 161.394L46.0523 162.416C46.0228 162.391 45.9551 162.339 45.8493 162.261C45.746 162.181 45.6365 162.108 45.5209 162.041C45.2453 161.882 44.9993 161.807 44.7828 161.816C44.5687 161.823 44.399 161.906 44.2735 162.067C44.1505 162.226 44.089 162.453 44.089 162.749L44.089 166.891L43.218 166.388ZM49.215 169.987C48.7033 169.691 48.2543 169.291 47.868 168.787C47.4842 168.284 47.184 167.718 46.9675 167.087C46.7535 166.458 46.6465 165.805 46.6465 165.129C46.6465 164.447 46.7535 163.914 46.9675 163.529C47.184 163.145 47.4842 162.923 47.868 162.864C48.2543 162.806 48.7033 162.924 49.215 163.22C49.7268 163.515 50.1745 163.914 50.5583 164.417C50.9446 164.921 51.2448 165.49 51.4588 166.122C51.6753 166.755 51.7836 167.413 51.7836 168.095C51.7836 168.771 51.6753 169.299 51.4588 169.68C51.2448 170.062 50.9446 170.282 50.5583 170.34C50.1745 170.4 49.7268 170.282 49.215 169.987ZM49.215 169.083C49.6037 169.308 49.9236 169.377 50.1745 169.292C50.4255 169.207 50.6112 169.012 50.7318 168.706C50.8523 168.401 50.9126 168.029 50.9126 167.592C50.9126 167.154 50.8523 166.712 50.7318 166.264C50.6112 165.817 50.4255 165.404 50.1745 165.026C49.9236 164.649 49.6037 164.347 49.215 164.123C48.8263 163.899 48.5064 163.83 48.2555 163.919C48.0045 164.007 47.8188 164.205 47.6982 164.513C47.5777 164.821 47.5174 165.194 47.5174 165.632C47.5174 166.069 47.5777 166.51 47.6982 166.955C47.8188 167.399 48.0045 167.809 48.2555 168.184C48.5064 168.559 48.8263 168.859 49.215 169.083ZM55.4159 173.567C54.8845 173.26 54.4268 172.851 54.043 172.339C53.6592 171.828 53.364 171.259 53.1573 170.631C52.9507 170.003 52.8473 169.362 52.8473 168.709C52.8473 168.044 52.9531 167.518 53.1647 167.132C53.3788 166.744 53.6765 166.517 54.0578 166.45C54.4416 166.382 54.8894 166.496 55.4011 166.791C55.7997 167.021 56.1589 167.314 56.4787 167.669C56.7986 168.024 57.0606 168.414 57.2648 168.839C57.469 169.263 57.5957 169.695 57.6449 170.132L56.774 169.629C56.7075 169.293 56.5599 168.943 56.3311 168.581C56.1048 168.217 55.7997 167.925 55.4159 167.703C55.0764 167.507 54.7787 167.437 54.5228 167.494C54.2694 167.55 54.0713 167.721 53.9286 168.008C53.7884 168.293 53.7183 168.683 53.7183 169.178C53.7183 169.683 53.7872 170.163 53.9249 170.618C54.0652 171.074 54.262 171.479 54.5154 171.832C54.7713 172.188 55.0714 172.464 55.4159 172.663C55.6422 172.794 55.8477 172.867 56.0322 172.883C56.2167 172.898 56.3729 172.858 56.5009 172.761C56.6288 172.665 56.7198 172.513 56.774 172.305L57.6449 172.808C57.5957 173.166 57.4739 173.444 57.2796 173.641C57.0877 173.837 56.833 173.935 56.5156 173.933C56.2007 173.93 55.8341 173.808 55.4159 173.567ZM62.4905 174.839L62.4905 170.969L63.3614 171.472L63.3614 178.018L62.4905 177.515L62.4905 176.407L62.4314 176.373C62.2986 176.629 62.0919 176.792 61.8114 176.863C61.531 176.931 61.1767 176.842 60.7486 176.594C60.3943 176.39 60.0794 176.119 59.8038 175.781C59.5283 175.44 59.3118 175.042 59.1543 174.587C58.9969 174.13 58.9181 173.623 58.9181 173.066L58.9181 168.907L59.7891 169.41L59.7891 173.501C59.7891 173.978 59.9047 174.425 60.136 174.843C60.3697 175.262 60.6674 175.576 61.0291 175.785C61.2456 175.91 61.4658 175.973 61.6897 175.974C61.916 175.977 62.1054 175.891 62.258 175.714C62.413 175.54 62.4905 175.248 62.4905 174.839ZM64.9566 178.939L64.9566 172.393L65.798 172.879L65.798 173.868L65.8571 173.902C65.9604 173.638 66.1474 173.483 66.418 173.437C66.6887 173.392 66.9938 173.467 67.3333 173.663C67.3972 173.7 67.4772 173.748 67.5732 173.806C67.6691 173.864 67.7417 173.91 67.7909 173.944L67.7909 174.967C67.7614 174.942 67.6937 174.89 67.5879 174.812C67.4846 174.732 67.3751 174.659 67.2595 174.592C66.9839 174.433 66.7379 174.358 66.5214 174.366C66.3073 174.373 66.1376 174.457 66.0121 174.618C65.8891 174.777 65.8276 175.004 65.8276 175.3L65.8276 179.442L64.9566 178.939ZM71.0274 182.58C70.4812 182.265 70.0101 181.854 69.614 181.346C69.2203 180.838 68.9165 180.27 68.7024 179.644C68.4908 179.016 68.3851 178.367 68.3851 177.697C68.3851 177.026 68.4908 176.496 68.7024 176.107C68.9165 175.716 69.2142 175.488 69.5955 175.421C69.9793 175.353 70.4271 175.466 70.9388 175.762C71.2341 175.932 71.5256 176.157 71.8135 176.437C72.1013 176.717 72.3634 177.053 72.5995 177.445C72.8357 177.834 73.0239 178.278 73.1642 178.777C73.3044 179.275 73.3745 179.83 73.3745 180.441L73.3745 180.867L69.005 178.344L69.005 177.475L72.4888 179.486C72.4888 179.117 72.4249 178.751 72.2969 178.387C72.1715 178.025 71.9918 177.692 71.7581 177.39C71.5269 177.089 71.2538 176.847 70.9388 176.665C70.5919 176.465 70.2918 176.391 70.0384 176.444C69.7874 176.495 69.5943 176.639 69.459 176.876C69.3237 177.113 69.256 177.412 69.256 177.773L69.256 178.353C69.256 178.847 69.3298 179.309 69.4774 179.738C69.6275 180.165 69.8354 180.545 70.1011 180.878C70.3668 181.207 70.6756 181.474 71.0274 181.677C71.2562 181.809 71.4629 181.891 71.6474 181.924C71.8344 181.955 71.9955 181.934 72.1309 181.862C72.2662 181.787 72.3707 181.657 72.4445 181.472L73.286 182.231C73.1974 182.509 73.0485 182.713 72.8394 182.842C72.6303 182.969 72.372 183.013 72.0644 182.974C71.7569 182.933 71.4112 182.802 71.0274 182.58ZM74.6994 184.564L74.6994 178.018L75.5408 178.504L75.5408 179.527L75.6146 179.569C75.7327 179.288 75.9234 179.127 76.1867 179.086C76.4499 179.042 76.7661 179.126 77.1351 179.339C77.5091 179.555 77.8203 179.833 78.0688 180.172C78.3197 180.51 78.5153 180.895 78.6556 181.325L78.7146 181.359C78.8598 181.105 79.0775 180.962 79.3678 180.931C79.6581 180.897 80.0063 180.997 80.4122 181.231C80.919 181.524 81.3336 181.947 81.6559 182.499C81.9782 183.049 82.1394 183.709 82.1394 184.479L82.1394 188.859L81.2684 188.356L81.2684 183.976C81.2684 183.493 81.154 183.081 80.9252 182.742C80.6964 182.403 80.427 182.143 80.117 181.964C79.7184 181.734 79.4097 181.695 79.1907 181.847C78.9717 181.996 78.8622 182.282 78.8622 182.706L78.8622 186.967L77.9765 186.456L77.9765 181.973C77.9765 181.601 77.872 181.241 77.6628 180.893C77.4537 180.542 77.1843 180.271 76.8546 180.081C76.6283 179.95 76.4167 179.898 76.2199 179.923C76.0255 179.95 75.8681 180.052 75.7475 180.23C75.6294 180.406 75.5704 180.655 75.5704 180.976L75.5704 185.067L74.6994 184.564ZM86.1084 191.287C85.5622 190.972 85.0911 190.561 84.695 190.053C84.3013 189.545 83.9975 188.977 83.7834 188.351C83.5719 187.723 83.4661 187.074 83.4661 186.404C83.4661 185.733 83.5719 185.203 83.7834 184.814C83.9975 184.423 84.2952 184.195 84.6765 184.128C85.0603 184.06 85.5081 184.173 86.0199 184.469C86.3151 184.639 86.6066 184.865 86.8945 185.144C87.1824 185.424 87.4444 185.76 87.6806 186.152C87.9168 186.541 88.105 186.985 88.2452 187.484C88.3854 187.982 88.4556 188.537 88.4556 189.148L88.4556 189.574L84.0861 187.051L84.0861 186.182L87.5699 188.193C87.5699 187.824 87.5059 187.458 87.3779 187.094C87.2525 186.732 87.0729 186.399 86.8391 186.097C86.6079 185.796 86.3348 185.554 86.0199 185.372C85.673 185.172 85.3728 185.098 85.1194 185.151C84.8684 185.202 84.6753 185.346 84.54 185.583C84.4047 185.82 84.337 186.119 84.337 186.48L84.337 187.06C84.337 187.554 84.4108 188.016 84.5584 188.445C84.7085 188.872 84.9164 189.252 85.1821 189.585C85.4478 189.914 85.7566 190.181 86.1084 190.384C86.3372 190.516 86.5439 190.598 86.7284 190.631C86.9154 190.662 87.0766 190.642 87.2119 190.569C87.3472 190.494 87.4518 190.364 87.5256 190.179L88.367 190.938C88.2784 191.216 88.1296 191.42 87.9204 191.549C87.7113 191.676 87.453 191.72 87.1454 191.681C86.8379 191.64 86.4922 191.509 86.1084 191.287ZM90.6514 189.836L90.6514 193.774L89.7804 193.271L89.7804 186.725L90.6219 187.211L90.6219 188.234L90.6957 188.276C90.8285 188.021 91.0303 187.87 91.3009 187.825C91.5715 187.776 91.9209 187.876 92.349 188.123C92.7328 188.345 93.0686 188.629 93.3565 188.977C93.6443 189.323 93.8682 189.725 94.0281 190.183C94.1881 190.639 94.268 191.146 94.268 191.703L94.268 195.862L93.3971 195.359L93.3971 191.268C93.3971 190.754 93.2814 190.286 93.0502 189.866C92.8189 189.443 92.5015 189.115 92.098 188.882C91.82 188.721 91.5715 188.647 91.3526 188.66C91.1361 188.674 90.9651 188.779 90.8396 188.973C90.7141 189.168 90.6514 189.455 90.6514 189.836ZM98.3247 191.658L98.3247 192.511L95.3871 190.815L95.3871 189.962L98.3247 191.658ZM96.2433 188.888L97.1143 189.391L97.1143 195.63C97.1143 195.914 97.1499 196.148 97.2213 196.331C97.2951 196.513 97.3886 196.661 97.5018 196.774C97.6174 196.886 97.7392 196.979 97.8671 197.053C97.9631 197.109 98.0418 197.148 98.1033 197.173C98.1648 197.194 98.214 197.211 98.2509 197.224L98.4281 198.229C98.369 198.221 98.2866 198.199 98.1808 198.163C98.075 198.131 97.9409 198.067 97.7786 197.974C97.5325 197.832 97.2914 197.631 97.0552 197.373C96.8215 197.116 96.6271 196.817 96.4721 196.478C96.3196 196.14 96.2433 195.781 96.2433 195.4L96.2433 188.888ZM104.698 202.003C104.201 201.716 103.773 201.364 103.414 200.946C103.055 200.528 102.778 200.08 102.584 199.602C102.389 199.123 102.292 198.648 102.292 198.176C102.292 197.812 102.358 197.528 102.491 197.324C102.627 197.118 102.812 196.962 103.049 196.857C103.287 196.751 103.561 196.665 103.871 196.599L104.964 196.293C105.178 196.254 105.349 196.18 105.477 196.069C105.607 195.96 105.672 195.756 105.672 195.457C105.672 195.236 105.588 194.972 105.418 194.667C105.25 194.363 105.03 194.132 104.757 193.974C104.565 193.864 104.396 193.822 104.248 193.851C104.103 193.878 103.988 193.954 103.905 194.079C103.824 194.202 103.783 194.355 103.783 194.537C103.783 194.741 103.831 194.977 103.927 195.242C104.025 195.506 104.15 195.791 104.3 196.097C104.452 196.401 104.61 196.713 104.772 197.034L108.241 203.929L107.193 203.324L104.329 197.682C104.063 197.159 103.822 196.685 103.606 196.259C103.389 195.832 103.217 195.436 103.089 195.07C102.961 194.703 102.897 194.349 102.897 194.009C102.897 193.616 102.972 193.316 103.122 193.107C103.275 192.897 103.488 192.788 103.761 192.781C104.036 192.773 104.359 192.875 104.728 193.088C105.107 193.307 105.433 193.58 105.706 193.908C105.979 194.234 106.189 194.578 106.337 194.942C106.484 195.303 106.558 195.645 106.558 195.969C106.558 196.386 106.468 196.697 106.289 196.9C106.109 197.103 105.864 197.247 105.554 197.332L104.049 197.759C103.709 197.852 103.479 198.001 103.359 198.204C103.238 198.407 103.178 198.568 103.178 198.687C103.178 198.96 103.239 199.25 103.362 199.557C103.485 199.864 103.659 200.154 103.883 200.428C104.106 200.702 104.368 200.926 104.669 201.099C104.954 201.264 105.232 201.355 105.503 201.372C105.773 201.386 106.018 201.323 106.237 201.183C106.458 201.043 106.633 200.823 106.761 200.522C106.892 200.222 106.957 199.838 106.957 199.369L107.798 199.855C107.798 200.435 107.74 200.874 107.625 201.174C107.509 201.474 107.379 201.685 107.233 201.809C107.088 201.933 106.971 202.02 106.883 202.071C106.853 202.097 106.826 202.124 106.802 202.152C106.777 202.18 106.75 202.207 106.721 202.233C106.477 202.408 106.169 202.466 105.798 202.408C105.426 202.347 105.06 202.212 104.698 202.003ZM116.379 202.082C116.335 201.625 116.155 201.186 115.841 200.765C115.526 200.345 115.139 200.003 114.682 199.738C114.347 199.545 114.054 199.439 113.803 199.419C113.555 199.4 113.361 199.46 113.22 199.598C113.083 199.737 113.014 199.946 113.014 200.224C113.014 200.457 113.062 200.685 113.158 200.908C113.256 201.13 113.381 201.34 113.534 201.539C113.687 201.735 113.846 201.917 114.014 202.084C114.181 202.249 114.335 202.393 114.475 202.517L115.243 203.199C115.44 203.372 115.658 203.581 115.9 203.825C116.143 204.071 116.376 204.349 116.597 204.658C116.821 204.966 117.005 205.303 117.151 205.668C117.296 206.033 117.368 206.42 117.368 206.829C117.368 207.301 117.261 207.665 117.047 207.922C116.836 208.181 116.526 208.305 116.117 208.293C115.711 208.283 115.218 208.111 114.637 207.775C114.096 207.463 113.627 207.091 113.231 206.661C112.838 206.232 112.528 205.772 112.301 205.28C112.078 204.79 111.951 204.298 111.921 203.804L112.866 204.349C112.891 204.693 112.987 205.021 113.154 205.334C113.324 205.645 113.538 205.927 113.796 206.182C114.057 206.434 114.337 206.648 114.637 206.821C114.987 207.023 115.301 207.138 115.579 207.168C115.857 207.195 116.077 207.138 116.239 206.996C116.401 206.851 116.483 206.619 116.483 206.301C116.483 206.011 116.413 205.735 116.272 205.472C116.132 205.209 115.948 204.955 115.719 204.709C115.49 204.464 115.243 204.221 114.977 203.983L114.047 203.139C113.457 202.602 112.989 202.052 112.645 201.49C112.3 200.927 112.128 200.352 112.128 199.764C112.128 199.275 112.242 198.915 112.471 198.684C112.702 198.451 113.012 198.346 113.401 198.368C113.792 198.39 114.229 198.54 114.711 198.818C115.198 199.099 115.631 199.45 116.01 199.871C116.389 200.288 116.689 200.734 116.911 201.209C117.135 201.684 117.253 202.146 117.265 202.594L116.379 202.082ZM122.327 209.386L122.327 205.516L123.198 206.019L123.198 212.565L122.327 212.062L122.327 210.954L122.268 210.92C122.136 211.175 121.929 211.339 121.648 211.41C121.368 211.478 121.014 211.388 120.586 211.141C120.231 210.937 119.916 210.665 119.641 210.327C119.365 209.987 119.149 209.589 118.991 209.134C118.834 208.677 118.755 208.17 118.755 207.613L118.755 203.454L119.626 203.957L119.626 208.048C119.626 208.525 119.742 208.972 119.973 209.39C120.207 209.809 120.504 210.123 120.866 210.332C121.083 210.457 121.303 210.52 121.527 210.521C121.753 210.524 121.942 210.438 122.095 210.261C122.25 210.087 122.327 209.795 122.327 209.386ZM124.794 215.94L124.794 206.94L125.635 207.426L125.635 208.466L125.738 208.525C125.802 208.449 125.891 208.355 126.004 208.244C126.12 208.132 126.285 208.068 126.499 208.052C126.715 208.035 127.008 208.133 127.377 208.346C127.854 208.622 128.275 209.003 128.639 209.488C129.003 209.974 129.287 210.529 129.492 211.153C129.696 211.776 129.798 212.432 129.798 213.119C129.798 213.812 129.696 214.354 129.492 214.745C129.287 215.133 129.004 215.361 128.643 215.431C128.281 215.498 127.864 215.395 127.392 215.122C127.028 214.912 126.736 214.674 126.517 214.408C126.298 214.14 126.13 213.882 126.011 213.635C125.893 213.385 125.802 213.182 125.738 213.025L125.665 212.983L125.665 216.443L124.794 215.94ZM125.65 210.707C125.65 211.202 125.712 211.674 125.838 212.124C125.963 212.572 126.147 212.971 126.388 213.324C126.629 213.673 126.924 213.949 127.274 214.15C127.638 214.361 127.942 214.425 128.185 214.344C128.431 214.262 128.616 214.067 128.739 213.76C128.864 213.452 128.927 213.065 128.927 212.599C128.927 212.139 128.865 211.689 128.742 211.248C128.622 210.807 128.438 210.407 128.192 210.049C127.949 209.689 127.643 209.403 127.274 209.19C126.919 208.986 126.622 208.917 126.38 208.986C126.139 209.051 125.957 209.233 125.834 209.531C125.711 209.827 125.65 210.219 125.65 210.707ZM131.126 219.596L131.126 210.596L131.968 211.082L131.968 212.122L132.071 212.182C132.135 212.105 132.224 212.011 132.337 211.9C132.452 211.788 132.617 211.724 132.831 211.709C133.048 211.692 133.341 211.79 133.71 212.003C134.187 212.278 134.608 212.659 134.972 213.145C135.336 213.631 135.62 214.185 135.824 214.809C136.029 215.432 136.131 216.088 136.131 216.775C136.131 217.469 136.029 218.01 135.824 218.401C135.62 218.789 135.337 219.018 134.976 219.087C134.614 219.154 134.197 219.051 133.724 218.778C133.36 218.568 133.069 218.33 132.85 218.064C132.631 217.796 132.462 217.538 132.344 217.291C132.226 217.041 132.135 216.838 132.071 216.682L131.997 216.639L131.997 220.099L131.126 219.596ZM131.983 214.363C131.983 214.858 132.045 215.33 132.171 215.78C132.296 216.228 132.48 216.628 132.721 216.98C132.962 217.329 133.257 217.605 133.606 217.807C133.97 218.017 134.274 218.081 134.518 218.001C134.764 217.918 134.948 217.724 135.071 217.417C135.197 217.108 135.26 216.721 135.26 216.256C135.26 215.795 135.198 215.345 135.075 214.905C134.955 214.463 134.771 214.063 134.525 213.705C134.282 213.346 133.975 213.059 133.606 212.846C133.252 212.642 132.954 212.574 132.713 212.642C132.472 212.707 132.29 212.889 132.167 213.187C132.044 213.483 131.983 213.875 131.983 214.363ZM138.33 212.574L138.33 221.301L137.459 220.798L137.459 212.071L138.33 212.574ZM139.925 222.222L139.925 215.676L140.796 216.179L140.796 222.725L139.925 222.222ZM140.368 214.841C140.198 214.743 140.052 214.592 139.929 214.387C139.808 214.184 139.748 213.989 139.748 213.801C139.748 213.614 139.808 213.488 139.929 213.424C140.052 213.362 140.198 213.38 140.368 213.478C140.538 213.576 140.683 213.726 140.804 213.929C140.927 214.134 140.988 214.33 140.988 214.517C140.988 214.705 140.927 214.83 140.804 214.892C140.683 214.956 140.538 214.939 140.368 214.841ZM144.768 225.154C144.222 224.839 143.751 224.428 143.355 223.921C142.961 223.412 142.657 222.845 142.443 222.218C142.232 221.59 142.126 220.941 142.126 220.271C142.126 219.6 142.232 219.07 142.443 218.681C142.657 218.291 142.955 218.062 143.336 217.995C143.72 217.927 144.168 218.041 144.68 218.336C144.975 218.507 145.266 218.732 145.554 219.012C145.842 219.291 146.104 219.627 146.34 220.019C146.576 220.409 146.765 220.852 146.905 221.351C147.045 221.85 147.115 222.404 147.115 223.015L147.115 223.441L142.746 220.919L142.746 220.049L146.23 222.061C146.23 221.691 146.166 221.325 146.038 220.961C145.912 220.599 145.733 220.267 145.499 219.964C145.268 219.663 144.994 219.421 144.68 219.24C144.333 219.039 144.032 218.965 143.779 219.018C143.528 219.069 143.335 219.213 143.2 219.45C143.064 219.688 142.997 219.987 142.997 220.347L142.997 220.927C142.997 221.421 143.071 221.883 143.218 222.312C143.368 222.74 143.576 223.119 143.842 223.452C144.108 223.781 144.416 224.048 144.768 224.251C144.997 224.383 145.204 224.465 145.388 224.498C145.575 224.529 145.736 224.509 145.872 224.436C146.007 224.361 146.111 224.231 146.185 224.046L147.027 224.805C146.938 225.083 146.789 225.287 146.58 225.416C146.371 225.543 146.113 225.587 145.805 225.548C145.498 225.507 145.152 225.376 144.768 225.154ZM148.44 227.138L148.44 220.593L149.282 221.078L149.282 222.067L149.341 222.101C149.444 221.837 149.631 221.682 149.902 221.637C150.172 221.591 150.477 221.666 150.817 221.862C150.881 221.899 150.961 221.947 151.057 222.005C151.153 222.063 151.225 222.11 151.274 222.144L151.274 223.166C151.245 223.141 151.177 223.089 151.071 223.011C150.968 222.931 150.859 222.858 150.743 222.791C150.467 222.632 150.221 222.557 150.005 222.566C149.791 222.573 149.621 222.656 149.496 222.817C149.373 222.976 149.311 223.203 149.311 223.499L149.311 227.641L148.44 227.138ZM156.322 226.609L155.54 226.413C155.49 226.234 155.418 226.046 155.322 225.848C155.228 225.65 155.1 225.456 154.938 225.269C154.776 225.081 154.568 224.914 154.314 224.768C153.967 224.568 153.678 224.493 153.447 224.544C153.218 224.594 153.104 224.76 153.104 225.041C153.104 225.291 153.183 225.534 153.34 225.77C153.498 226.005 153.744 226.268 154.078 226.558L154.92 227.282C155.426 227.717 155.804 228.152 156.053 228.588C156.301 229.022 156.425 229.467 156.425 229.924C156.425 230.299 156.332 230.581 156.145 230.768C155.96 230.957 155.702 231.041 155.37 231.02C155.038 230.998 154.651 230.86 154.211 230.606C153.633 230.272 153.154 229.851 152.775 229.343C152.397 228.834 152.157 228.272 152.056 227.657L152.882 227.896C152.961 228.294 153.11 228.644 153.329 228.946C153.55 229.25 153.84 229.505 154.196 229.711C154.602 229.946 154.925 230.032 155.163 229.971C155.404 229.909 155.525 229.737 155.525 229.456C155.525 229.228 155.456 228.998 155.318 228.765C155.18 228.529 154.969 228.291 154.683 228.049L153.739 227.248C153.22 226.806 152.838 226.366 152.595 225.927C152.354 225.487 152.233 225.041 152.233 224.589C152.233 224.22 152.323 223.945 152.502 223.765C152.684 223.586 152.932 223.505 153.244 223.524C153.559 223.544 153.916 223.669 154.314 223.899C154.875 224.223 155.316 224.619 155.636 225.088C155.958 225.558 156.187 226.065 156.322 226.609Z" fill="white"/>
<defs>
<filter id="filter0_d_1421_3857" x="0.000782013" y="579.361" width="460.87" height="195.801" filterUnits="userSpaceOnUse" color-interpolation-filters="sRGB">
<feFlood flood-opacity="0" result="BackgroundImageFix"/>
<feColorMatrix in="SourceAlpha" type="matrix" values="0 0 0 0 0 0 0 0 0 0 0 0 0 0 0 0 0 0 127 0" result="hardAlpha"/>
<feOffset/>
<feGaussianBlur stdDeviation="10.4"/>
<feComposite in2="hardAlpha" operator="out"/>
<feColorMatrix type="matrix" values="0 0 0 0 0 0 0 0 0 0 0 0 0 0 0 0 0 0 1 0"/>
<feBlend mode="normal" in2="BackgroundImageFix" result="effect1_dropShadow_1421_3857"/>
<feBlend mode="normal" in="SourceGraphic" in2="effect1_dropShadow_1421_3857" result="shape"/>
</filter>
<linearGradient id="paint0_linear_1421_3857" x1="21.2344" y1="615.895" x2="267.389" y2="759.101" gradientUnits="userSpaceOnUse">
<stop offset="0.0213909" stop-color="#1E1E1E"/>
<stop offset="1" stop-color="#0D0D0D"/>
</linearGradient>
<linearGradient id="paint1_linear_1421_3857" x1="21.2344" y1="512.527" x2="267.389" y2="655.733" gradientUnits="userSpaceOnUse">
<stop offset="0.0213909" stop-color="#1E1E1E"/>
<stop offset="1" stop-color="#0D0D0D"/>
</linearGradient>
<linearGradient id="paint2_linear_1421_3857" x1="21.2344" y1="409.158" x2="267.389" y2="552.364" gradientUnits="userSpaceOnUse">
<stop offset="0.0213909" stop-color="#1E1E1E"/>
<stop offset="1" stop-color="#0D0D0D"/>
</linearGradient>
<linearGradient id="paint3_linear_1421_3857" x1="-19.3084" y1="359.415" x2="421.835" y2="408.302" gradientUnits="userSpaceOnUse">
<stop offset="0.0213909" stop-color="#024925"/>
<stop offset="1" stop-color="#0D0D0D"/>
</linearGradient>
<linearGradient id="paint4_linear_1421_3857" x1="462.804" y1="276.973" x2="96.688" y2="141.839" gradientUnits="userSpaceOnUse">
<stop stop-color="#042811"/>
<stop offset="1" stop-color="#00792E"/>
</linearGradient>
<linearGradient id="paint5_linear_1421_3857" x1="21.2383" y1="143.864" x2="267.393" y2="287.069" gradientUnits="userSpaceOnUse">
<stop offset="0.0213909" stop-color="#1E1E1E"/>
<stop offset="1" stop-color="#0D0D0D"/>
</linearGradient>
</defs>
</svg>
