<svg width="461" height="782" viewBox="0 0 461 782" fill="none" xmlns="http://www.w3.org/2000/svg">
<g filter="url(#filter0_d_1421_3858)">
<path d="M21.3008 639.984L21.6721 607.107L214.454 719.465C225.027 725.626 238.095 725.632 248.672 719.478L439.573 608.42V638.417C439.573 643.834 436.653 648.829 431.934 651.487L247.35 755.439C236.619 761.482 223.503 761.441 212.811 755.331L26.3389 648.78C23.188 646.979 21.2598 643.613 21.3008 639.984Z" fill="#101010"/>
<path d="M21.3008 639.984L21.6721 607.107L214.454 719.465C225.027 725.626 238.095 725.632 248.672 719.478L439.573 608.42V638.417C439.573 643.834 436.653 648.829 431.934 651.487L247.35 755.439C236.619 761.482 223.503 761.441 212.811 755.331L26.3389 648.78C23.188 646.979 21.2598 643.613 21.3008 639.984Z" fill="url(#paint0_linear_1421_3858)"/>
<path d="M21.3008 639.984L21.6721 607.107L214.454 719.465C225.027 725.626 238.095 725.632 248.672 719.478L439.573 608.42V638.417C439.573 643.834 436.653 648.829 431.934 651.487L247.35 755.439C236.619 761.482 223.503 761.441 212.811 755.331L26.3389 648.78C23.188 646.979 21.2598 643.613 21.3008 639.984Z" stroke="#404040"/>
</g>
<path d="M247.351 486.917L436.294 595.342C442.31 598.794 442.324 607.468 436.319 610.94L249.456 718.96C238.988 725.011 226.094 725.048 215.592 719.056L25.603 610.664C19.5464 607.209 19.5503 598.476 25.61 595.026L215.592 486.863C225.441 481.256 237.521 481.276 247.351 486.917Z" fill="#131313" stroke="#404040"/>
<path d="M39.682 641.872L40.6858 642.451L41.5272 644.215L41.7486 644.684L43.0034 647.335L41.9996 646.755L41.1729 645L40.9663 644.556L39.682 641.872ZM43.3134 642.332C43.3134 643.252 43.1695 643.965 42.8816 644.469C42.5938 644.973 42.1989 645.262 41.697 645.336C41.1951 645.41 40.6218 645.261 39.9772 644.889C39.3326 644.517 38.7594 644.004 38.2575 643.35C37.7556 642.697 37.3607 641.952 37.0729 641.115C36.785 640.279 36.6411 639.4 36.6411 638.48C36.6411 637.559 36.785 636.847 37.0729 636.343C37.3607 635.838 37.7556 635.549 38.2575 635.475C38.7594 635.402 39.3326 635.551 39.9772 635.923C40.6218 636.295 41.1951 636.808 41.697 637.461C42.1989 638.115 42.5938 638.86 42.8816 639.696C43.1695 640.533 43.3134 641.411 43.3134 642.332ZM42.4277 641.821C42.4277 641.065 42.3182 640.364 42.0992 639.718C41.8827 639.073 41.5887 638.509 41.2172 638.028C40.8482 637.548 40.4348 637.176 39.9772 636.911C39.5196 636.647 39.1051 636.541 38.7336 636.594C38.3645 636.648 38.0705 636.872 37.8515 637.265C37.635 637.66 37.5268 638.235 37.5268 638.991C37.5268 639.747 37.635 640.447 37.8515 641.092C38.0705 641.738 38.3645 642.301 38.7336 642.782C39.1051 643.263 39.5196 643.636 39.9772 643.9C40.4348 644.164 40.8482 644.269 41.2172 644.215C41.5887 644.163 41.8827 643.939 42.0992 643.544C42.3182 643.151 42.4277 642.576 42.4277 641.821ZM48.3066 646.902L48.3066 643.033L49.1775 643.536L49.1775 650.081L48.3066 649.578L48.3066 648.47L48.2475 648.436C48.1147 648.692 47.908 648.855 47.6275 648.926C47.3471 648.995 46.9928 648.905 46.5647 648.658C46.2104 648.453 45.8955 648.182 45.6199 647.844C45.3444 647.503 45.1279 647.105 44.9704 646.651C44.813 646.193 44.7342 645.686 44.7342 645.13L44.7342 640.97L45.6052 641.473L45.6052 645.564C45.6052 646.041 45.7208 646.489 45.9521 646.907C46.1858 647.326 46.4835 647.639 46.8452 647.848C47.0617 647.973 47.2819 648.036 47.5057 648.038C47.7321 648.041 47.9215 647.954 48.0741 647.778C48.2291 647.603 48.3066 647.311 48.3066 646.902ZM52.4408 652.119C52.0816 651.911 51.7556 651.645 51.4628 651.32C51.1701 650.992 50.9376 650.629 50.7653 650.231C50.5931 649.83 50.507 649.417 50.507 648.991C50.507 648.616 50.571 648.349 50.6989 648.19C50.8268 648.028 50.9978 647.942 51.2119 647.932C51.4259 647.922 51.6621 647.959 51.9204 648.043C52.1812 648.125 52.4433 648.222 52.7065 648.335C53.051 648.482 53.3302 648.605 53.5442 648.703C53.7608 648.8 53.9182 648.844 54.0166 648.835C54.1175 648.828 54.1679 648.744 54.1679 648.582L54.1679 648.548C54.1679 648.127 54.0683 647.743 53.869 647.395C53.6722 647.048 53.3733 646.759 52.9722 646.528C52.5564 646.288 52.2304 646.205 51.9943 646.278C51.7581 646.352 51.592 646.481 51.496 646.664L50.6694 645.846C50.817 645.533 51.0138 645.337 51.2599 645.258C51.5083 645.177 51.779 645.177 52.0718 645.258C52.367 645.337 52.6573 645.46 52.9427 645.624C53.1248 645.729 53.3339 645.876 53.5701 646.063C53.8087 646.249 54.0388 646.483 54.2602 646.764C54.4841 647.047 54.6698 647.386 54.8175 647.781C54.9651 648.176 55.0389 648.633 55.0389 649.153L55.0389 653.465L54.1679 652.962L54.1679 652.076L54.1236 652.051C54.0646 652.158 53.9662 652.254 53.8284 652.336C53.6906 652.418 53.5073 652.45 53.2785 652.432C53.0497 652.413 52.7705 652.309 52.4408 652.119ZM52.5737 651.292C52.9181 651.491 53.2084 651.58 53.4446 651.56C53.6833 651.542 53.8629 651.444 53.9834 651.266C54.1064 651.09 54.1679 650.866 54.1679 650.593L54.1679 649.673C54.131 649.703 54.0498 649.703 53.9244 649.673C53.8013 649.641 53.6587 649.595 53.4963 649.532C53.3364 649.468 53.1801 649.403 53.0276 649.338C52.8775 649.271 52.7557 649.218 52.6622 649.178C52.4359 649.082 52.2243 649.015 52.0275 648.978C51.8331 648.94 51.6756 648.961 51.5551 649.042C51.437 649.122 51.378 649.289 51.378 649.545C51.378 649.894 51.4899 650.223 51.7138 650.531C51.9401 650.838 52.2268 651.092 52.5737 651.292ZM57.4995 646.159L57.4995 654.886L56.6285 654.383L56.6285 645.656L57.4995 646.159ZM59.0947 655.807L59.0947 649.261L59.9656 649.764L59.9656 656.31L59.0947 655.807ZM59.5375 648.426C59.3678 648.328 59.2214 648.177 59.0984 647.972C58.9778 647.769 58.9175 647.574 58.9175 647.386C58.9175 647.199 58.9778 647.073 59.0984 647.009C59.2214 646.947 59.3678 646.965 59.5375 647.063C59.7073 647.161 59.8525 647.311 59.973 647.514C60.096 647.719 60.1575 647.915 60.1575 648.102C60.1575 648.29 60.096 648.415 59.973 648.477C59.8525 648.541 59.7073 648.524 59.5375 648.426ZM64.026 652.109L64.026 652.961L61.0884 651.265L61.0884 650.413L64.026 652.109ZM61.9446 649.339L62.8156 649.842L62.8156 656.08C62.8156 656.364 62.8513 656.598 62.9226 656.781C62.9964 656.963 63.0899 657.111 63.2031 657.224C63.3187 657.337 63.4405 657.43 63.5684 657.503C63.6644 657.559 63.7431 657.599 63.8046 657.623C63.8661 657.644 63.9153 657.661 63.9522 657.674L64.1294 658.68C64.0703 658.671 63.9879 658.649 63.8821 658.614C63.7763 658.581 63.6422 658.518 63.4799 658.424C63.2338 658.282 62.9927 658.082 62.7565 657.823C62.5228 657.566 62.3284 657.268 62.1734 656.928C62.0209 656.59 61.9446 656.231 61.9446 655.85L61.9446 649.339ZM65.8971 662.189C65.7495 662.104 65.6179 662.013 65.5022 661.918C65.3866 661.826 65.3066 661.754 65.2623 661.703L65.4838 660.945C65.6954 661.129 65.8823 661.26 66.0447 661.337C66.2071 661.413 66.351 661.413 66.4765 661.334C66.6044 661.261 66.7213 661.088 66.8271 660.817L66.9895 660.399L64.8933 652.609L65.8381 653.155L67.4028 659.274L67.4619 659.308L69.0266 654.996L69.9714 655.541L67.5652 661.652C67.4569 661.927 67.3228 662.13 67.1629 662.259C67.003 662.391 66.8173 662.45 66.6057 662.436C66.3965 662.423 66.1604 662.341 65.8971 662.189ZM80.2437 662.017L79.3285 661.489C79.2744 661.154 79.1796 660.832 79.0443 660.524C78.9115 660.217 78.7491 659.93 78.5572 659.663C78.3677 659.394 78.1574 659.154 77.9261 658.941C77.6949 658.728 77.4537 658.549 77.2028 658.404C76.7452 658.139 76.3306 658.034 75.9591 658.086C75.5901 658.14 75.2961 658.364 75.0771 658.757C74.8606 659.152 74.7523 659.728 74.7523 660.483C74.7523 661.239 74.8606 661.939 75.0771 662.584C75.2961 663.23 75.5901 663.794 75.9591 664.274C76.3306 664.755 76.7452 665.128 77.2028 665.392C77.4537 665.537 77.6949 665.637 77.9261 665.691C78.1574 665.745 78.3677 665.748 78.5572 665.701C78.7491 665.653 78.9115 665.552 79.0443 665.399C79.1796 665.244 79.2744 665.032 79.3285 664.762L80.2437 665.29C80.1748 665.696 80.0494 666.023 79.8673 666.27C79.6852 666.517 79.4589 666.686 79.1883 666.777C78.9176 666.865 78.6138 666.876 78.2767 666.809C77.9421 666.744 77.5841 666.601 77.2028 666.381C76.5582 666.009 75.9849 665.496 75.483 664.843C74.9811 664.189 74.5863 663.444 74.2984 662.608C74.0106 661.771 73.8666 660.892 73.8666 659.972C73.8666 659.051 74.0106 658.339 74.2984 657.835C74.5863 657.331 74.9811 657.041 75.483 656.968C75.9849 656.894 76.5582 657.043 77.2028 657.415C77.5841 657.635 77.9421 657.906 78.2767 658.227C78.6138 658.549 78.9176 658.912 79.1883 659.316C79.4589 659.716 79.6852 660.145 79.8673 660.603C80.0494 661.057 80.1748 661.529 80.2437 662.017ZM83.9074 670.269C83.3957 669.973 82.9467 669.574 82.5604 669.069C82.1766 668.566 81.8764 668 81.6599 667.369C81.4459 666.74 81.3389 666.087 81.3389 665.411C81.3389 664.729 81.4459 664.196 81.6599 663.811C81.8764 663.427 82.1766 663.206 82.5604 663.146C82.9467 663.088 83.3957 663.206 83.9074 663.502C84.4192 663.797 84.8669 664.196 85.2507 664.699C85.637 665.204 85.9372 665.772 86.1512 666.404C86.3677 667.037 86.476 667.695 86.476 668.377C86.476 669.053 86.3677 669.581 86.1512 669.962C85.9372 670.344 85.637 670.564 85.2507 670.623C84.8669 670.682 84.4192 670.564 83.9074 670.269ZM83.9074 669.366C84.2961 669.59 84.616 669.66 84.8669 669.574C85.1179 669.489 85.3036 669.294 85.4242 668.988C85.5447 668.683 85.605 668.312 85.605 667.874C85.605 667.437 85.5447 666.994 85.4242 666.547C85.3036 666.099 85.1179 665.687 84.8669 665.309C84.616 664.931 84.2961 664.63 83.9074 664.405C83.5187 664.181 83.1989 664.113 82.9479 664.201C82.6969 664.289 82.5112 664.487 82.3906 664.795C82.2701 665.103 82.2098 665.476 82.2098 665.914C82.2098 666.351 82.2701 666.792 82.3906 667.237C82.5112 667.682 82.6969 668.091 82.9479 668.466C83.1989 668.841 83.5187 669.141 83.9074 669.366ZM88.6764 668.948L88.6764 672.886L87.8055 672.383L87.8055 665.838L88.6469 666.323L88.6469 667.346L88.7207 667.389C88.8535 667.133 89.0553 666.983 89.3259 666.937C89.5966 666.889 89.9459 666.988 90.374 667.235C90.7578 667.457 91.0936 667.742 91.3815 668.09C91.6694 668.435 91.8932 668.837 92.0532 669.296C92.2131 669.752 92.293 670.258 92.293 670.815L92.293 674.974L91.4221 674.471L91.4221 670.38C91.4221 669.866 91.3065 669.399 91.0752 668.978C90.8439 668.555 90.5265 668.227 90.1231 667.994C89.845 667.833 89.5966 667.759 89.3776 667.772C89.1611 667.786 88.9901 667.891 88.8646 668.085C88.7391 668.28 88.6764 668.568 88.6764 668.948ZM96.3498 670.771L96.3498 671.623L93.4122 669.927L93.4122 669.075L96.3498 670.771ZM94.2684 668.001L95.1393 668.504L95.1393 674.742C95.1393 675.026 95.175 675.26 95.2463 675.443C95.3201 675.625 95.4136 675.773 95.5268 675.886C95.6424 675.999 95.7642 676.092 95.8922 676.166C95.9881 676.221 96.0668 676.261 96.1283 676.285C96.1898 676.306 96.2391 676.323 96.276 676.336L96.4531 677.342C96.3941 677.333 96.3116 677.311 96.2058 677.276C96.1 677.243 95.966 677.18 95.8036 677.086C95.5575 676.944 95.3164 676.744 95.0803 676.485C94.8465 676.228 94.6522 675.93 94.4972 675.59C94.3446 675.252 94.2684 674.893 94.2684 674.512L94.2684 668.001ZM97.6599 678.073L97.6599 671.527L98.5013 672.013L98.5013 673.002L98.5603 673.036C98.6637 672.771 98.8507 672.617 99.1213 672.571C99.3919 672.526 99.697 672.601 100.037 672.797C100.1 672.834 100.18 672.881 100.276 672.94C100.372 672.998 100.445 673.044 100.494 673.078L100.494 674.101C100.465 674.075 100.397 674.024 100.291 673.945C100.188 673.866 100.078 673.793 99.9627 673.726C99.6872 673.567 99.4411 673.492 99.2246 673.5C99.0106 673.507 98.8408 673.591 98.7153 673.752C98.5923 673.911 98.5308 674.138 98.5308 674.433L98.5308 678.575L97.6599 678.073ZM103.657 681.671C103.145 681.376 102.696 680.976 102.31 680.472C101.926 679.969 101.626 679.402 101.409 678.771C101.195 678.142 101.088 677.489 101.088 676.813C101.088 676.131 101.195 675.598 101.409 675.213C101.626 674.83 101.926 674.608 102.31 674.548C102.696 674.49 103.145 674.609 103.657 674.904C104.169 675.2 104.616 675.599 105 676.102C105.386 676.606 105.687 677.174 105.901 677.806C106.117 678.44 106.225 679.097 106.225 679.779C106.225 680.455 106.117 680.984 105.901 681.364C105.687 681.747 105.386 681.967 105 682.025C104.616 682.085 104.169 681.967 103.657 681.671ZM103.657 680.768C104.046 680.992 104.365 681.062 104.616 680.977C104.867 680.891 105.053 680.696 105.174 680.391C105.294 680.085 105.354 679.714 105.354 679.276C105.354 678.839 105.294 678.396 105.174 677.949C105.053 677.502 104.867 677.089 104.616 676.711C104.365 676.333 104.046 676.032 103.657 675.808C103.268 675.583 102.948 675.515 102.697 675.603C102.446 675.691 102.261 675.889 102.14 676.198C102.02 676.506 101.959 676.879 101.959 677.316C101.959 677.754 102.02 678.195 102.14 678.639C102.261 679.084 102.446 679.494 102.697 679.869C102.948 680.244 103.268 680.543 103.657 680.768ZM108.426 675.561L108.426 684.288L107.555 683.785L107.555 675.058L108.426 675.561Z" fill="white"/>
<path d="M21.3008 536.616L21.6721 503.739L214.454 616.096C225.027 622.258 238.095 622.263 248.672 616.11L439.573 505.052V535.049C439.573 540.465 436.653 545.461 431.934 548.119L247.35 652.071C236.619 658.114 223.503 658.073 212.811 651.963L26.3389 545.412C23.188 543.611 21.2598 540.245 21.3008 536.616Z" fill="#101010"/>
<path d="M21.3008 536.616L21.6721 503.739L214.454 616.096C225.027 622.258 238.095 622.263 248.672 616.11L439.573 505.052V535.049C439.573 540.465 436.653 545.461 431.934 548.119L247.35 652.071C236.619 658.114 223.503 658.073 212.811 651.963L26.3389 545.412C23.188 543.611 21.2598 540.245 21.3008 536.616Z" fill="url(#paint1_linear_1421_3858)"/>
<path d="M21.3008 536.616L21.6721 503.739L214.454 616.096C225.027 622.258 238.095 622.263 248.672 616.11L439.573 505.052V535.049C439.573 540.465 436.653 545.461 431.934 548.119L247.35 652.071C236.619 658.114 223.503 658.073 212.811 651.963L26.3389 545.412C23.188 543.611 21.2598 540.245 21.3008 536.616Z" stroke="#404040"/>
<path d="M247.351 383.549L436.294 491.974C442.31 495.426 442.324 504.1 436.319 507.572L249.456 615.591C238.988 621.643 226.094 621.679 215.592 615.688L25.603 507.296C19.5464 503.841 19.5503 495.108 25.61 491.658L215.592 383.495C225.441 377.888 237.521 377.908 247.351 383.549Z" fill="#131313" stroke="#404040"/>
<path d="M37.3648 540.438L37.3648 531.71L39.9186 533.185C40.5115 533.527 40.9962 533.93 41.3727 534.395C41.7515 534.858 42.032 535.351 42.2141 535.874C42.3961 536.396 42.4872 536.915 42.4872 537.429C42.4872 537.943 42.3961 538.358 42.2141 538.673C42.0345 538.99 41.7565 539.165 41.38 539.198C41.0036 539.227 40.5214 539.073 39.9334 538.733L38.1029 537.676L38.1029 536.739L39.9039 537.778C40.3098 538.013 40.6358 538.12 40.8818 538.1C41.1279 538.08 41.3062 537.965 41.4169 537.753C41.5301 537.54 41.5867 537.259 41.5867 536.909C41.5867 536.56 41.5301 536.215 41.4169 535.874C41.3062 535.534 41.1266 535.215 40.8781 534.915C40.6296 534.612 40.3 534.342 39.8891 534.105L38.2801 533.176L38.2801 540.966L37.3648 540.438ZM43.8434 544.178L43.8434 537.633L44.6848 538.118L44.6848 539.107L44.7439 539.141C44.8472 538.877 45.0342 538.722 45.3048 538.677C45.5755 538.631 45.8805 538.706 46.2201 538.902C46.284 538.939 46.364 538.987 46.4599 539.045C46.5559 539.103 46.6285 539.15 46.6777 539.184L46.6777 540.206C46.6481 540.181 46.5805 540.129 46.4747 540.051C46.3714 539.971 46.2619 539.898 46.1462 539.831C45.8707 539.672 45.6247 539.597 45.4082 539.606C45.1941 539.613 45.0244 539.696 44.8989 539.857C44.7759 540.016 44.7144 540.243 44.7144 540.539L44.7144 544.681L43.8434 544.178ZM49.8404 547.777C49.3286 547.481 48.8796 547.081 48.4934 546.577C48.1096 546.074 47.8094 545.508 47.5929 544.877C47.3789 544.248 47.2718 543.595 47.2718 542.919C47.2718 542.237 47.3789 541.704 47.5929 541.319C47.8094 540.935 48.1096 540.714 48.4934 540.654C48.8796 540.596 49.3286 540.714 49.8404 541.01C50.3521 541.305 50.7999 541.704 51.1837 542.207C51.57 542.711 51.8701 543.28 52.0842 543.912C52.3007 544.545 52.4089 545.203 52.4089 545.885C52.4089 546.561 52.3007 547.089 52.0842 547.47C51.8701 547.852 51.57 548.072 51.1837 548.13C50.7999 548.19 50.3521 548.072 49.8404 547.777ZM49.8404 546.873C50.2291 547.098 50.549 547.167 50.7999 547.082C51.0509 546.997 51.2366 546.802 51.3572 546.496C51.4777 546.191 51.538 545.819 51.538 545.382C51.538 544.944 51.4777 544.502 51.3572 544.054C51.2366 543.607 51.0509 543.194 50.7999 542.816C50.549 542.439 50.2291 542.138 49.8404 541.913C49.4517 541.689 49.1318 541.62 48.8809 541.709C48.6299 541.797 48.4442 541.995 48.3236 542.303C48.2031 542.611 48.1428 542.984 48.1428 543.422C48.1428 543.859 48.2031 544.3 48.3236 544.745C48.4442 545.189 48.6299 545.599 48.8809 545.974C49.1318 546.349 49.4517 546.649 49.8404 546.873ZM55.8789 551.263C55.4065 550.99 54.9895 550.612 54.6278 550.127C54.2662 549.64 53.9832 549.085 53.779 548.461C53.5748 547.835 53.4727 547.175 53.4727 546.482C53.4727 545.794 53.5748 545.257 53.779 544.869C53.9832 544.481 54.2674 544.255 54.6315 544.189C54.9956 544.124 55.4163 544.229 55.8936 544.505C56.2627 544.718 56.5542 544.957 56.7683 545.223C56.9848 545.487 57.1496 545.741 57.2628 545.985C57.3784 546.228 57.4682 546.425 57.5322 546.576L57.606 546.618L57.606 543.397L58.477 543.899L58.477 552.627L57.6355 552.141L57.6355 551.135L57.5322 551.076C57.4682 551.158 57.3772 551.256 57.2591 551.37C57.141 551.48 56.9725 551.544 56.7535 551.559C56.5346 551.572 56.243 551.473 55.8789 551.263ZM55.997 550.428C56.3463 550.63 56.6416 550.695 56.8827 550.624C57.1238 550.55 57.3071 550.362 57.4326 550.059C57.558 549.754 57.6208 549.354 57.6208 548.86C57.6208 548.371 57.5593 547.908 57.4363 547.47C57.3132 547.03 57.1312 546.638 56.8901 546.294C56.649 545.948 56.3513 545.672 55.997 545.468C55.6279 545.255 55.3204 545.186 55.0744 545.263C54.8308 545.338 54.6475 545.527 54.5245 545.828C54.4039 546.127 54.3437 546.507 54.3437 546.968C54.3437 547.434 54.4052 547.892 54.5282 548.344C54.6537 548.794 54.8382 549.202 55.0817 549.567C55.3278 549.931 55.6329 550.218 55.997 550.428ZM63.7654 553.004L63.7654 549.134L64.6363 549.637L64.6363 556.183L63.7654 555.68L63.7654 554.572L63.7063 554.538C63.5735 554.794 63.3668 554.957 63.0863 555.028C62.8059 555.096 62.4516 555.007 62.0235 554.759C61.6692 554.555 61.3543 554.284 61.0787 553.946C60.8032 553.605 60.5867 553.207 60.4292 552.752C60.2717 552.295 60.193 551.788 60.193 551.231L60.193 547.072L61.064 547.575L61.064 551.666C61.064 552.143 61.1796 552.59 61.4109 553.008C61.6446 553.427 61.9423 553.741 62.304 553.95C62.5205 554.075 62.7407 554.138 62.9645 554.139C63.1909 554.142 63.3803 554.056 63.5329 553.88C63.6879 553.705 63.7654 553.413 63.7654 553.004ZM68.6967 551.982L68.6967 552.834L65.7591 551.138L65.7591 550.286L68.6967 551.982ZM66.6153 549.212L67.4863 549.715L67.4863 555.953C67.4863 556.237 67.5219 556.471 67.5933 556.654C67.6671 556.836 67.7606 556.984 67.8738 557.097C67.9894 557.21 68.1112 557.303 68.2391 557.377C68.3351 557.432 68.4138 557.472 68.4753 557.496C68.5368 557.517 68.586 557.534 68.6229 557.547L68.8001 558.553C68.741 558.544 68.6586 558.522 68.5528 558.487C68.447 558.454 68.3129 558.391 68.1505 558.297C67.9045 558.155 67.6634 557.955 67.4272 557.696C67.1935 557.439 66.9991 557.141 66.8441 556.801C66.6916 556.463 66.6153 556.104 66.6153 555.723L66.6153 549.212ZM70.0068 559.283L70.0068 552.738L70.8778 553.241L70.8778 559.786L70.0068 559.283ZM70.4497 551.903C70.2799 551.805 70.1336 551.653 70.0105 551.449C69.89 551.246 69.8297 551.051 69.8297 550.863C69.8297 550.676 69.89 550.55 70.0105 550.486C70.1336 550.423 70.2799 550.441 70.4497 550.539C70.6195 550.637 70.7646 550.788 70.8852 550.991C71.0082 551.195 71.0697 551.391 71.0697 551.579C71.0697 551.766 71.0082 551.891 70.8852 551.954C70.7646 552.018 70.6195 552.001 70.4497 551.903ZM74.7758 562.173C74.2641 561.878 73.8151 561.478 73.4288 560.974C73.045 560.471 72.7449 559.904 72.5283 559.273C72.3143 558.644 72.2073 557.991 72.2073 557.315C72.2073 556.633 72.3143 556.1 72.5283 555.715C72.7449 555.332 73.045 555.11 73.4288 555.05C73.8151 554.992 74.2641 555.111 74.7758 555.406C75.2876 555.702 75.7353 556.101 76.1192 556.604C76.5054 557.108 76.8056 557.676 77.0196 558.308C77.2361 558.942 77.3444 559.599 77.3444 560.281C77.3444 560.957 77.2361 561.486 77.0196 561.866C76.8056 562.248 76.5054 562.469 76.1192 562.527C75.7353 562.587 75.2876 562.469 74.7758 562.173ZM74.7758 561.27C75.1646 561.494 75.4844 561.564 75.7353 561.479C75.9863 561.393 76.172 561.198 76.2926 560.893C76.4132 560.587 76.4734 560.216 76.4734 559.778C76.4734 559.341 76.4132 558.898 76.2926 558.451C76.172 558.003 75.9863 557.591 75.7353 557.213C75.4844 556.835 75.1646 556.534 74.7758 556.31C74.3871 556.085 74.0673 556.017 73.8163 556.105C73.5654 556.193 73.3796 556.391 73.2591 556.699C73.1385 557.008 73.0782 557.381 73.0782 557.818C73.0782 558.256 73.1385 558.697 73.2591 559.141C73.3796 559.586 73.5654 559.996 73.8163 560.371C74.0673 560.746 74.3871 561.045 74.7758 561.27ZM79.5448 560.853L79.5448 564.79L78.6739 564.287L78.6739 557.742L79.5153 558.228L79.5153 559.25L79.5891 559.293C79.722 559.037 79.9237 558.887 80.1943 558.841C80.465 558.793 80.8143 558.892 81.2424 559.14C81.6262 559.361 81.9621 559.646 82.2499 559.994C82.5378 560.339 82.7617 560.741 82.9216 561.2C83.0815 561.656 83.1615 562.162 83.1615 562.719L83.1615 566.878L82.2905 566.375L82.2905 562.285C82.2905 561.77 82.1749 561.303 81.9436 560.883C81.7123 560.459 81.395 560.131 80.9915 559.898C80.7135 559.738 80.465 559.664 80.246 559.677C80.0295 559.691 79.8585 559.795 79.733 559.99C79.6075 560.184 79.5448 560.472 79.5448 560.853ZM87.7939 560.826L88.8863 561.456L91.4548 570.184L91.5434 570.235L94.1119 564.473L95.2043 565.104L95.2043 573.831L94.3481 573.337L94.3481 566.706L94.2743 566.664L91.9124 571.931L91.0858 571.453L88.7239 563.459L88.6501 563.416L88.6501 570.047L87.7939 569.553L87.7939 560.826ZM98.5894 575.939C98.2302 575.732 97.9042 575.465 97.6114 575.14C97.3186 574.812 97.0861 574.449 96.9139 574.051C96.7417 573.651 96.6556 573.237 96.6556 572.811C96.6556 572.436 96.7195 572.169 96.8475 572.01C96.9754 571.848 97.1464 571.762 97.3605 571.752C97.5745 571.742 97.8107 571.779 98.069 571.863C98.3298 571.945 98.5918 572.043 98.8551 572.155C99.1995 572.303 99.4788 572.426 99.6928 572.524C99.9093 572.62 100.067 572.664 100.165 572.656C100.266 572.649 100.317 572.564 100.317 572.402L100.317 572.368C100.317 571.948 100.217 571.563 100.018 571.215C99.8208 570.869 99.5218 570.58 99.1208 570.348C98.705 570.108 98.379 570.025 98.1428 570.099C97.9066 570.173 97.7406 570.301 97.6446 570.484L96.818 569.666C96.9656 569.354 97.1624 569.158 97.4084 569.078C97.6569 568.997 97.9276 568.997 98.2203 569.078C98.5156 569.158 98.8059 569.28 99.0913 569.445C99.2733 569.55 99.4825 569.696 99.7187 569.884C99.9573 570.07 100.187 570.303 100.409 570.585C100.633 570.867 100.818 571.206 100.966 571.601C101.114 571.996 101.187 572.453 101.187 572.973L101.187 577.286L100.317 576.783L100.317 575.896L100.272 575.871C100.213 575.979 100.115 576.074 99.977 576.156C99.8392 576.239 99.6559 576.271 99.4271 576.252C99.1983 576.234 98.9191 576.129 98.5894 575.939ZM98.7222 575.112C99.0667 575.311 99.357 575.401 99.5932 575.381C99.8318 575.362 100.011 575.264 100.132 575.087C100.255 574.911 100.317 574.686 100.317 574.413L100.317 573.493C100.28 573.523 100.198 573.523 100.073 573.493C99.9499 573.462 99.8072 573.415 99.6448 573.352C99.4849 573.288 99.3287 573.224 99.1762 573.158C99.0261 573.092 98.9043 573.038 98.8108 572.999C98.5845 572.902 98.3729 572.835 98.176 572.798C97.9817 572.76 97.8242 572.781 97.7037 572.862C97.5856 572.942 97.5265 573.109 97.5265 573.365C97.5265 573.715 97.6385 574.043 97.8624 574.352C98.0887 574.658 98.3753 574.912 98.7222 575.112ZM103.648 574.769L103.648 578.706L102.777 578.203L102.777 571.658L103.619 572.144L103.619 573.166L103.692 573.209C103.825 572.953 104.027 572.803 104.298 572.757C104.568 572.709 104.918 572.809 105.346 573.056C105.729 573.277 106.065 573.562 106.353 573.91C106.641 574.255 106.865 574.657 107.025 575.116C107.185 575.572 107.265 576.078 107.265 576.635L107.265 580.794L106.394 580.291L106.394 576.201C106.394 575.686 106.278 575.219 106.047 574.799C105.816 574.375 105.498 574.047 105.095 573.814C104.817 573.654 104.568 573.58 104.349 573.593C104.133 573.607 103.962 573.711 103.836 573.906C103.711 574.1 103.648 574.388 103.648 574.769ZM110.524 582.83C110.165 582.622 109.839 582.356 109.546 582.031C109.254 581.703 109.021 581.34 108.849 580.942C108.677 580.541 108.59 580.128 108.59 579.702C108.59 579.327 108.654 579.06 108.782 578.901C108.91 578.739 109.081 578.653 109.295 578.643C109.509 578.633 109.746 578.67 110.004 578.754C110.265 578.836 110.527 578.933 110.79 579.046C111.134 579.193 111.414 579.316 111.628 579.414C111.844 579.511 112.002 579.555 112.1 579.546C112.201 579.539 112.251 579.455 112.251 579.293L112.251 579.259C112.251 578.838 112.152 578.454 111.952 578.106C111.756 577.759 111.457 577.47 111.056 577.239C110.64 576.999 110.314 576.916 110.078 576.989C109.842 577.063 109.675 577.192 109.58 577.375L108.753 576.557C108.9 576.244 109.097 576.048 109.343 575.969C109.592 575.888 109.862 575.888 110.155 575.969C110.45 576.048 110.741 576.171 111.026 576.335C111.208 576.44 111.417 576.587 111.654 576.774C111.892 576.96 112.122 577.194 112.344 577.475C112.568 577.758 112.753 578.097 112.901 578.492C113.049 578.886 113.122 579.344 113.122 579.864L113.122 584.176L112.251 583.673L112.251 582.787L112.207 582.761C112.148 582.869 112.05 582.965 111.912 583.047C111.774 583.129 111.591 583.161 111.362 583.143C111.133 583.124 110.854 583.02 110.524 582.83ZM110.657 582.003C111.002 582.202 111.292 582.291 111.528 582.271C111.767 582.253 111.946 582.155 112.067 581.977C112.19 581.801 112.251 581.577 112.251 581.304L112.251 580.384C112.215 580.413 112.133 580.413 112.008 580.384C111.885 580.352 111.742 580.305 111.58 580.243C111.42 580.179 111.264 580.114 111.111 580.049C110.961 579.982 110.839 579.929 110.746 579.889C110.519 579.793 110.308 579.726 110.111 579.689C109.917 579.651 109.759 579.672 109.639 579.753C109.52 579.832 109.461 580 109.461 580.256C109.461 580.605 109.573 580.934 109.797 581.242C110.024 581.549 110.31 581.803 110.657 582.003ZM117 589.006C116.579 588.763 116.218 588.492 115.915 588.192C115.612 587.895 115.36 587.588 115.159 587.269C114.959 586.956 114.801 586.651 114.682 586.355L115.376 586.193C115.455 586.358 115.555 586.552 115.675 586.775C115.796 587.001 115.961 587.231 116.17 587.465C116.381 587.704 116.658 587.922 117 588.12C117.458 588.384 117.835 588.474 118.133 588.39C118.431 588.306 118.58 587.992 118.58 587.446L118.58 586.117L118.506 586.074C118.442 586.157 118.351 586.252 118.233 586.36C118.117 586.466 117.95 586.524 117.731 586.534C117.514 586.543 117.222 586.441 116.852 586.228C116.395 585.963 115.984 585.601 115.62 585.141C115.258 584.682 114.972 584.153 114.76 583.554C114.551 582.956 114.446 582.316 114.446 581.634C114.446 580.963 114.548 580.438 114.753 580.059C114.957 579.677 115.241 579.455 115.605 579.392C115.969 579.327 116.39 579.432 116.867 579.708C117.236 579.921 117.529 580.161 117.746 580.428C117.965 580.693 118.132 580.949 118.247 581.195C118.366 581.439 118.457 581.637 118.521 581.787L118.609 581.838L118.609 580.799L119.451 581.284L119.451 588.017C119.451 588.58 119.34 588.973 119.118 589.198C118.899 589.426 118.604 589.516 118.233 589.466C117.864 589.421 117.453 589.267 117 589.006ZM116.971 585.392C117.32 585.594 117.615 585.672 117.856 585.627C118.097 585.581 118.281 585.421 118.406 585.147C118.532 584.873 118.594 584.495 118.594 584.012C118.594 583.54 118.533 583.088 118.41 582.657C118.287 582.225 118.105 581.837 117.864 581.493C117.623 581.149 117.325 580.875 116.971 580.671C116.602 580.458 116.294 580.388 116.048 580.462C115.804 580.537 115.621 580.721 115.498 581.014C115.378 581.308 115.317 581.676 115.317 582.12C115.317 582.574 115.379 583.012 115.502 583.432C115.627 583.851 115.812 584.23 116.055 584.57C116.301 584.908 116.606 585.182 116.971 585.392ZM123.421 590.259C122.875 589.943 122.404 589.532 122.008 589.025C121.614 588.517 121.311 587.949 121.096 587.323C120.885 586.695 120.779 586.046 120.779 585.375C120.779 584.705 120.885 584.175 121.096 583.786C121.311 583.395 121.608 583.166 121.99 583.1C122.373 583.032 122.821 583.145 123.333 583.441C123.628 583.611 123.92 583.836 124.208 584.116C124.495 584.396 124.757 584.732 124.994 585.124C125.23 585.513 125.418 585.957 125.558 586.456C125.698 586.954 125.769 587.509 125.769 588.12L125.769 588.546L121.399 586.023L121.399 585.154L124.883 587.165C124.883 586.796 124.819 586.429 124.691 586.066C124.566 585.703 124.386 585.371 124.152 585.068C123.921 584.767 123.648 584.526 123.333 584.344C122.986 584.144 122.686 584.07 122.432 584.122C122.181 584.174 121.988 584.318 121.853 584.555C121.718 584.792 121.65 585.091 121.65 585.452L121.65 586.032C121.65 586.526 121.724 586.987 121.871 587.416C122.022 587.844 122.229 588.224 122.495 588.556C122.761 588.886 123.07 589.152 123.421 589.355C123.65 589.487 123.857 589.57 124.041 589.603C124.228 589.634 124.39 589.613 124.525 589.541C124.66 589.465 124.765 589.335 124.839 589.151L125.68 589.909C125.591 590.188 125.443 590.392 125.233 590.521C125.024 590.647 124.766 590.691 124.458 590.653C124.151 590.612 123.805 590.48 123.421 590.259ZM127.093 592.242L127.093 585.697L127.935 586.183L127.935 587.206L128.009 587.248C128.127 586.967 128.317 586.806 128.581 586.764C128.844 586.72 129.16 586.805 129.529 587.018C129.903 587.234 130.214 587.512 130.463 587.851C130.714 588.189 130.909 588.573 131.05 589.004L131.109 589.038C131.254 588.784 131.472 588.641 131.762 588.61C132.052 588.576 132.4 588.676 132.806 588.91C133.313 589.203 133.728 589.625 134.05 590.178C134.372 590.728 134.533 591.387 134.533 592.157L134.533 596.538L133.662 596.035L133.662 591.654C133.662 591.171 133.548 590.76 133.319 590.421C133.09 590.081 132.821 589.822 132.511 589.643C132.112 589.413 131.804 589.374 131.585 589.526C131.366 589.675 131.256 589.961 131.256 590.384L131.256 594.646L130.371 594.134L130.371 589.652C130.371 589.279 130.266 588.919 130.057 588.571C129.848 588.22 129.578 587.95 129.249 587.759C129.022 587.629 128.811 587.576 128.614 587.602C128.42 587.629 128.262 587.731 128.142 587.909C128.023 588.085 127.964 588.333 127.964 588.654L127.964 592.745L127.093 592.242ZM138.503 598.966C137.956 598.65 137.485 598.239 137.089 597.732C136.695 597.224 136.392 596.656 136.178 596.03C135.966 595.402 135.86 594.753 135.86 594.082C135.86 593.412 135.966 592.882 136.178 592.493C136.392 592.102 136.689 591.873 137.071 591.807C137.454 591.739 137.902 591.852 138.414 592.148C138.709 592.318 139.001 592.543 139.289 592.823C139.576 593.103 139.838 593.439 140.075 593.831C140.311 594.22 140.499 594.664 140.639 595.163C140.78 595.661 140.85 596.216 140.85 596.827L140.85 597.253L136.48 594.73L136.48 593.861L139.964 595.872C139.964 595.503 139.9 595.136 139.772 594.773C139.647 594.41 139.467 594.078 139.233 593.775C139.002 593.474 138.729 593.233 138.414 593.051C138.067 592.851 137.767 592.777 137.513 592.829C137.263 592.881 137.069 593.025 136.934 593.262C136.799 593.499 136.731 593.798 136.731 594.159L136.731 594.739C136.731 595.233 136.805 595.695 136.953 596.123C137.103 596.551 137.31 596.931 137.576 597.263C137.842 597.593 138.151 597.859 138.503 598.062C138.731 598.195 138.938 598.277 139.122 598.31C139.309 598.341 139.471 598.32 139.606 598.248C139.741 598.172 139.846 598.043 139.92 597.858L140.761 598.616C140.672 598.895 140.524 599.099 140.315 599.228C140.105 599.354 139.847 599.398 139.54 599.36C139.232 599.319 138.886 599.187 138.503 598.966ZM143.045 597.515L143.045 601.452L142.174 600.949L142.174 594.404L143.016 594.89L143.016 595.913L143.09 595.955C143.223 595.699 143.424 595.549 143.695 595.503C143.966 595.455 144.315 595.555 144.743 595.802C145.127 596.023 145.463 596.308 145.751 596.656C146.038 597.001 146.262 597.403 146.422 597.862C146.582 598.318 146.662 598.824 146.662 599.381L146.662 603.54L145.791 603.038L145.791 598.947C145.791 598.432 145.676 597.965 145.444 597.545C145.213 597.121 144.896 596.793 144.492 596.56C144.214 596.4 143.966 596.326 143.747 596.339C143.53 596.353 143.359 596.457 143.234 596.652C143.108 596.847 143.045 597.134 143.045 597.515ZM150.719 599.337L150.719 600.189L147.781 598.493L147.781 597.641L150.719 599.337ZM148.637 596.567L149.508 597.07L149.508 603.309C149.508 603.593 149.544 603.826 149.615 604.01C149.689 604.191 149.783 604.339 149.896 604.453C150.011 604.565 150.133 604.658 150.261 604.732C150.357 604.787 150.436 604.827 150.497 604.851C150.559 604.873 150.608 604.89 150.645 604.902L150.822 605.908C150.763 605.9 150.681 605.878 150.575 605.842C150.469 605.809 150.335 605.746 150.173 605.652C149.927 605.51 149.685 605.31 149.449 605.052C149.216 604.794 149.021 604.496 148.866 604.157C148.714 603.819 148.637 603.459 148.637 603.079L148.637 596.567Z" fill="white"/>
<path d="M21.3047 414.581L21.676 381.703L214.458 494.061C225.031 500.223 238.099 500.228 248.676 494.074L439.577 383.016V413.013C439.577 418.43 436.657 423.425 431.938 426.083L247.354 530.035C236.623 536.078 223.507 536.037 212.815 529.928L26.3428 423.376C23.1919 421.576 21.2637 418.209 21.3047 414.581Z" fill="url(#paint2_linear_1421_3858)" stroke="#005F24"/>
<path d="M247.355 261.944L436.298 370.368C442.314 373.821 442.328 382.495 436.322 385.966L249.46 493.986C238.992 500.037 226.098 500.074 215.595 494.082L25.6069 385.691C19.5503 382.235 19.5542 373.502 25.6139 370.052L215.595 261.89C225.445 256.282 237.525 256.303 247.355 261.944Z" fill="url(#paint3_linear_1421_3858)" stroke="#005F24"/>
<path d="M37.4883 408.194L38.5807 408.825L41.1492 417.552L41.2378 417.603L43.8063 411.842L44.8987 412.473L44.8987 421.2L44.0425 420.706L44.0425 414.075L43.9687 414.032L41.6068 419.299L40.7802 418.822L38.4183 410.828L38.3445 410.785L38.3445 417.416L37.4883 416.921L37.4883 408.194ZM48.2838 423.308C47.9246 423.1 47.5986 422.834 47.3058 422.509C47.013 422.181 46.7805 421.818 46.6083 421.42C46.4361 421.019 46.35 420.606 46.35 420.18C46.35 419.805 46.414 419.538 46.5419 419.379C46.6698 419.217 46.8408 419.131 47.0549 419.121C47.2689 419.111 47.5051 419.148 47.7634 419.232C48.0242 419.314 48.2862 419.411 48.5495 419.524C48.8939 419.671 49.1732 419.794 49.3872 419.892C49.6037 419.989 49.7612 420.033 49.8596 420.024C49.9605 420.017 50.0109 419.933 50.0109 419.771L50.0109 419.737C50.0109 419.316 49.9113 418.932 49.712 418.584C49.5152 418.237 49.2162 417.948 48.8152 417.717C48.3994 417.477 48.0734 417.394 47.8372 417.467C47.6011 417.541 47.435 417.67 47.339 417.853L46.5124 417.035C46.66 416.722 46.8568 416.526 47.1028 416.447C47.3513 416.366 47.622 416.366 47.9147 416.447C48.21 416.526 48.5003 416.649 48.7857 416.813C48.9677 416.918 49.1769 417.065 49.4131 417.252C49.6517 417.438 49.8818 417.672 50.1032 417.953C50.3271 418.236 50.5128 418.575 50.6604 418.97C50.8081 419.364 50.8819 419.822 50.8819 420.342L50.8819 424.654L50.0109 424.151L50.0109 423.265L49.9666 423.239C49.9076 423.347 49.8092 423.443 49.6714 423.525C49.5336 423.607 49.3503 423.639 49.1215 423.621C48.8927 423.602 48.6135 423.498 48.2838 423.308ZM48.4166 422.481C48.7611 422.68 49.0514 422.769 49.2876 422.749C49.5262 422.731 49.7058 422.633 49.8264 422.455C49.9494 422.279 50.0109 422.055 50.0109 421.782L50.0109 420.862C49.974 420.891 49.8928 420.891 49.7673 420.862C49.6443 420.83 49.5016 420.784 49.3393 420.721C49.1793 420.657 49.0231 420.592 48.8706 420.527C48.7205 420.46 48.5987 420.407 48.5052 420.367C48.2789 420.271 48.0673 420.204 47.8705 420.167C47.6761 420.129 47.5186 420.15 47.3981 420.231C47.28 420.311 47.2209 420.478 47.2209 420.734C47.2209 421.083 47.3329 421.412 47.5568 421.72C47.7831 422.027 48.0697 422.281 48.4166 422.481ZM54.7744 427.038C54.2429 426.731 53.7853 426.322 53.4015 425.811C53.0177 425.299 52.7225 424.73 52.5158 424.102C52.3091 423.474 52.2058 422.833 52.2058 422.18C52.2058 421.515 52.3116 420.99 52.5232 420.603C52.7372 420.216 53.0349 419.988 53.4163 419.921C53.8001 419.853 54.2479 419.967 54.7596 420.262C55.1582 420.492 55.5174 420.785 55.8372 421.14C56.1571 421.495 56.4191 421.885 56.6233 422.31C56.8275 422.735 56.9542 423.166 57.0034 423.603L56.1324 423.1C56.066 422.764 55.9184 422.414 55.6896 422.052C55.4632 421.689 55.1582 421.396 54.7744 421.174C54.4348 420.978 54.1371 420.909 53.8813 420.966C53.6279 421.021 53.4298 421.192 53.2871 421.479C53.1469 421.765 53.0768 422.154 53.0768 422.649C53.0768 423.154 53.1456 423.635 53.2834 424.089C53.4237 424.545 53.6205 424.95 53.8739 425.304C54.1298 425.659 54.4299 425.936 54.7744 426.135C55.0007 426.265 55.2061 426.338 55.3907 426.354C55.5752 426.37 55.7314 426.329 55.8594 426.233C55.9873 426.136 56.0783 425.984 56.1324 425.777L57.0034 426.279C56.9542 426.637 56.8324 426.915 56.638 427.113C56.4461 427.309 56.1915 427.406 55.8741 427.404C55.5592 427.402 55.1926 427.279 54.7744 427.038ZM59.1475 425.489L59.1475 429.426L58.2766 428.924L58.2766 420.196L59.1475 420.699L59.1475 423.904L59.2214 423.946C59.3542 423.685 59.5535 423.532 59.8192 423.486C60.0874 423.439 60.4441 423.544 60.8894 423.801C61.2757 424.024 61.614 424.309 61.9043 424.656C62.1946 425 62.4197 425.401 62.5797 425.86C62.742 426.317 62.8232 426.827 62.8232 427.39L62.8232 431.549L61.9523 431.046L61.9523 426.955C61.9523 426.435 61.8354 425.966 61.6017 425.546C61.3704 425.126 61.0494 424.797 60.6385 424.56C60.3531 424.395 60.0972 424.317 59.8709 424.326C59.647 424.336 59.4698 424.436 59.3394 424.628C59.2115 424.821 59.1475 425.108 59.1475 425.489ZM64.4166 432.469L64.4166 425.923L65.2875 426.426L65.2875 432.971L64.4166 432.469ZM64.8594 425.088C64.6897 424.99 64.5433 424.839 64.4203 424.634C64.2997 424.431 64.2394 424.236 64.2394 424.048C64.2394 423.861 64.2997 423.735 64.4203 423.671C64.5433 423.608 64.6897 423.626 64.8594 423.724C65.0292 423.822 65.1744 423.973 65.2949 424.176C65.4179 424.38 65.4794 424.576 65.4794 424.764C65.4794 424.951 65.4179 425.076 65.2949 425.139C65.1744 425.203 65.0292 425.186 64.8594 425.088ZM67.7537 430.458L67.7537 434.395L66.8827 433.892L66.8827 427.347L67.7241 427.833L67.7241 428.855L67.798 428.898C67.9308 428.642 68.1326 428.492 68.4032 428.446C68.6738 428.398 69.0232 428.497 69.4513 428.745C69.8351 428.966 70.1709 429.251 70.4588 429.599C70.7466 429.944 70.9705 430.346 71.1304 430.805C71.2904 431.261 71.3703 431.767 71.3703 432.324L71.3703 436.483L70.4994 435.98L70.4994 431.89C70.4994 431.375 70.3837 430.908 70.1525 430.488C69.9212 430.064 69.6038 429.736 69.2003 429.503C68.9223 429.343 68.6738 429.269 68.4549 429.282C68.2384 429.296 68.0674 429.4 67.9419 429.595C67.8164 429.789 67.7537 430.077 67.7537 430.458ZM75.3385 438.911C74.7923 438.595 74.3211 438.184 73.925 437.677C73.5314 437.168 73.2275 436.601 73.0135 435.975C72.8019 435.347 72.6961 434.698 72.6961 434.027C72.6961 433.357 72.8019 432.827 73.0135 432.438C73.2275 432.047 73.5252 431.818 73.9066 431.752C74.2904 431.683 74.7382 431.797 75.2499 432.092C75.5451 432.263 75.8367 432.488 76.1245 432.768C76.4124 433.048 76.6744 433.384 76.9106 433.776C77.1468 434.165 77.335 434.609 77.4752 435.107C77.6155 435.606 77.6856 436.161 77.6856 436.771L77.6856 437.198L73.3161 434.675L73.3161 433.806L76.7999 435.817C76.7999 435.448 76.7359 435.081 76.608 434.717C76.4825 434.355 76.3029 434.023 76.0692 433.72C75.8379 433.419 75.5648 433.178 75.2499 432.996C74.903 432.796 74.6028 432.722 74.3494 432.774C74.0985 432.825 73.9053 432.97 73.77 433.207C73.6347 433.444 73.5671 433.743 73.5671 434.104L73.5671 434.683C73.5671 435.178 73.6409 435.639 73.7885 436.068C73.9386 436.496 74.1465 436.876 74.4122 437.208C74.6779 437.538 74.9866 437.804 75.3385 438.007C75.5673 438.139 75.7739 438.222 75.9585 438.254C76.1454 438.286 76.3066 438.265 76.4419 438.193C76.5772 438.117 76.6818 437.987 76.7556 437.803L77.597 438.561C77.5085 438.84 77.3596 439.043 77.1505 439.173C76.9414 439.299 76.683 439.343 76.3755 439.305C76.0679 439.264 75.7223 439.132 75.3385 438.911ZM82.0514 433.923L83.1438 434.553L85.7123 443.281L85.8009 443.332L88.3694 437.57L89.4618 438.201L89.4618 446.928L88.6056 446.434L88.6056 439.803L88.5318 439.761L86.1699 445.028L85.3433 444.551L82.9814 436.556L82.9076 436.514L82.9076 443.144L82.0514 442.65L82.0514 433.923ZM93.4816 449.386C92.9699 449.09 92.5209 448.69 92.1346 448.186C91.7508 447.683 91.4507 447.116 91.2342 446.486C91.0201 445.856 90.9131 445.204 90.9131 444.528C90.9131 443.846 91.0201 443.312 91.2342 442.928C91.4507 442.544 91.7508 442.322 92.1346 442.263C92.5209 442.205 92.9699 442.323 93.4816 442.619C93.9934 442.914 94.4412 443.313 94.825 443.816C95.2112 444.32 95.5114 444.888 95.7254 445.521C95.9419 446.154 96.0502 446.812 96.0502 447.494C96.0502 448.17 95.9419 448.698 95.7254 449.079C95.5114 449.461 95.2112 449.681 94.825 449.739C94.4412 449.799 93.9934 449.681 93.4816 449.386ZM93.4816 448.482C93.8704 448.707 94.1902 448.776 94.4412 448.691C94.6921 448.606 94.8779 448.41 94.9984 448.105C95.119 447.8 95.1792 447.428 95.1792 446.991C95.1792 446.553 95.119 446.111 94.9984 445.663C94.8779 445.216 94.6921 444.803 94.4412 444.425C94.1902 444.048 93.8704 443.746 93.4816 443.522C93.0929 443.298 92.7731 443.229 92.5221 443.317C92.2712 443.405 92.0854 443.604 91.9649 443.912C91.8443 444.22 91.784 444.593 91.784 445.03C91.784 445.468 91.8443 445.909 91.9649 446.354C92.0854 446.798 92.2712 447.208 92.5221 447.583C92.7731 447.958 93.0929 448.258 93.4816 448.482ZM98.2506 448.065L98.2506 452.003L97.3797 451.5L97.3797 444.954L98.2211 445.44L98.2211 446.463L98.2949 446.505C98.4278 446.25 98.6295 446.099 98.9001 446.054C99.1708 446.005 99.5201 446.105 99.9482 446.352C100.332 446.574 100.668 446.858 100.956 447.206C101.244 447.552 101.467 447.954 101.627 448.412C101.787 448.868 101.867 449.375 101.867 449.932L101.867 454.091L100.996 453.588L100.996 449.497C100.996 448.983 100.881 448.515 100.649 448.095C100.418 447.672 100.101 447.344 99.6973 447.111C99.4193 446.95 99.1708 446.876 98.9518 446.889C98.7353 446.903 98.5643 447.008 98.4388 447.202C98.3134 447.397 98.2506 447.684 98.2506 448.065ZM103.459 455.01L103.459 448.464L104.33 448.967L104.33 455.512L103.459 455.01ZM103.902 447.629C103.732 447.531 103.585 447.38 103.462 447.175C103.342 446.972 103.282 446.777 103.282 446.589C103.282 446.402 103.342 446.276 103.462 446.212C103.585 446.149 103.732 446.167 103.902 446.265C104.071 446.363 104.217 446.514 104.337 446.717C104.46 446.921 104.522 447.117 104.522 447.305C104.522 447.492 104.46 447.617 104.337 447.68C104.217 447.744 104.071 447.727 103.902 447.629ZM108.39 451.311L108.39 452.163L105.453 450.467L105.453 449.615L108.39 451.311ZM106.309 448.541L107.18 449.044L107.18 455.283C107.18 455.567 107.215 455.801 107.287 455.984C107.36 456.166 107.454 456.313 107.567 456.427C107.683 456.539 107.805 456.632 107.933 456.706C108.028 456.761 108.107 456.801 108.169 456.825C108.23 456.847 108.279 456.864 108.316 456.877L108.493 457.882C108.434 457.874 108.352 457.852 108.246 457.816C108.14 457.784 108.006 457.72 107.844 457.627C107.598 457.485 107.357 457.284 107.121 457.026C106.887 456.769 106.693 456.47 106.538 456.131C106.385 455.793 106.309 455.433 106.309 455.053L106.309 448.541ZM111.942 460.044C111.43 459.748 110.981 459.348 110.595 458.844C110.211 458.341 109.911 457.775 109.695 457.144C109.481 456.515 109.374 455.862 109.374 455.186C109.374 454.504 109.481 453.971 109.695 453.586C109.911 453.202 110.211 452.981 110.595 452.921C110.981 452.863 111.43 452.981 111.942 453.277C112.454 453.572 112.902 453.971 113.286 454.474C113.672 454.978 113.972 455.547 114.186 456.179C114.402 456.812 114.511 457.47 114.511 458.152C114.511 458.828 114.402 459.356 114.186 459.737C113.972 460.119 113.672 460.339 113.286 460.398C112.902 460.457 112.454 460.339 111.942 460.044ZM111.942 459.14C112.331 459.365 112.651 459.434 112.902 459.349C113.153 459.264 113.338 459.069 113.459 458.763C113.58 458.458 113.64 458.086 113.64 457.649C113.64 457.211 113.58 456.769 113.459 456.322C113.338 455.874 113.153 455.461 112.902 455.084C112.651 454.706 112.331 454.405 111.942 454.18C111.553 453.956 111.234 453.888 110.983 453.976C110.732 454.064 110.546 454.262 110.425 454.57C110.305 454.878 110.245 455.251 110.245 455.689C110.245 456.126 110.305 456.567 110.425 457.012C110.546 457.456 110.732 457.866 110.983 458.241C111.234 458.616 111.553 458.916 111.942 459.14ZM115.84 462.158L115.84 455.613L116.682 456.098L116.682 457.087L116.741 457.121C116.844 456.857 117.031 456.702 117.302 456.657C117.572 456.611 117.877 456.686 118.217 456.882C118.281 456.919 118.361 456.967 118.457 457.025C118.553 457.083 118.625 457.13 118.674 457.164L118.674 458.186C118.645 458.161 118.577 458.109 118.472 458.031C118.368 457.951 118.259 457.878 118.143 457.811C117.868 457.652 117.621 457.577 117.405 457.586C117.191 457.593 117.021 457.676 116.896 457.837C116.773 457.996 116.711 458.223 116.711 458.519L116.711 462.661L115.84 462.158ZM119.707 464.39L119.707 457.845L120.578 458.348L120.578 464.893L119.707 464.39ZM120.15 457.01C119.98 456.912 119.834 456.76 119.711 456.556C119.59 456.353 119.53 456.157 119.53 455.97C119.53 455.782 119.59 455.657 119.711 455.593C119.834 455.53 119.98 455.548 120.15 455.646C120.32 455.744 120.465 455.895 120.585 456.098C120.708 456.302 120.77 456.498 120.77 456.686C120.77 456.873 120.708 456.998 120.585 457.061C120.465 457.125 120.32 457.108 120.15 457.01ZM123.044 462.38L123.044 466.317L122.173 465.814L122.173 459.269L123.014 459.755L123.014 460.777L123.088 460.82C123.221 460.564 123.423 460.414 123.693 460.368C123.964 460.32 124.313 460.419 124.742 460.667C125.125 460.888 125.461 461.173 125.749 461.521C126.037 461.866 126.261 462.268 126.421 462.727C126.581 463.183 126.661 463.689 126.661 464.246L126.661 468.405L125.79 467.902L125.79 463.811C125.79 463.297 125.674 462.83 125.443 462.409C125.212 461.986 124.894 461.658 124.491 461.425C124.213 461.265 123.964 461.191 123.745 461.203C123.529 461.218 123.358 461.322 123.232 461.517C123.107 461.711 123.044 461.999 123.044 462.38ZM130.54 473.236C130.119 472.993 129.758 472.722 129.455 472.422C129.153 472.125 128.9 471.818 128.699 471.499C128.499 471.186 128.341 470.881 128.223 470.585L128.916 470.423C128.995 470.588 129.095 470.782 129.215 471.005C129.336 471.231 129.501 471.461 129.71 471.695C129.921 471.934 130.198 472.152 130.54 472.35C130.998 472.614 131.375 472.704 131.673 472.62C131.971 472.536 132.12 472.222 132.12 471.676L132.12 470.347L132.046 470.304C131.982 470.386 131.891 470.482 131.773 470.59C131.657 470.696 131.49 470.754 131.271 470.764C131.054 470.773 130.762 470.671 130.393 470.458C129.935 470.193 129.524 469.831 129.16 469.371C128.798 468.912 128.512 468.383 128.3 467.784C128.091 467.186 127.986 466.546 127.986 465.864C127.986 465.193 128.089 464.668 128.293 464.289C128.497 463.907 128.781 463.685 129.145 463.622C129.509 463.557 129.93 463.662 130.407 463.938C130.776 464.151 131.069 464.391 131.286 464.658C131.505 464.923 131.672 465.179 131.788 465.425C131.906 465.669 131.997 465.867 132.061 466.017L132.149 466.068L132.149 465.029L132.991 465.514L132.991 472.247C132.991 472.81 132.88 473.203 132.659 473.428C132.44 473.656 132.144 473.746 131.773 473.696C131.404 473.651 130.993 473.497 130.54 473.236ZM130.511 469.622C130.86 469.824 131.155 469.902 131.396 469.857C131.637 469.811 131.821 469.651 131.946 469.377C132.072 469.103 132.134 468.725 132.134 468.242C132.134 467.77 132.073 467.318 131.95 466.886C131.827 466.455 131.645 466.067 131.404 465.723C131.163 465.379 130.865 465.105 130.511 464.901C130.142 464.688 129.834 464.618 129.588 464.692C129.344 464.767 129.161 464.951 129.038 465.244C128.918 465.538 128.857 465.906 128.857 466.35C128.857 466.804 128.919 467.242 129.042 467.662C129.167 468.081 129.352 468.46 129.595 468.8C129.841 469.138 130.147 469.412 130.511 469.622Z" fill="white"/>
<g opacity="0.5">
<path d="M258.626 410.615L253.338 407.562C256.278 405.529 258.588 403.219 260.167 400.732L267.393 401.85C268.33 401.994 269.327 401.919 270.167 401.639C271.007 401.359 271.619 400.898 271.87 400.358C272.121 399.817 271.99 399.241 271.506 398.756C271.021 398.271 270.223 397.917 269.286 397.773L262.05 396.653C262.822 394.044 262.822 391.378 262.05 388.768L269.286 387.649C270.223 387.504 271.021 387.15 271.506 386.665C271.99 386.181 272.121 385.605 271.87 385.064C271.619 384.523 271.007 384.062 270.167 383.783C269.327 383.503 268.33 383.427 267.393 383.572L260.167 384.689C258.588 382.203 256.278 379.892 253.338 377.859L258.626 374.806C259.311 374.41 259.696 373.874 259.696 373.314C259.696 372.754 259.311 372.218 258.626 371.822C257.94 371.426 257.011 371.204 256.041 371.204C255.072 371.204 254.143 371.426 253.457 371.822L248.169 374.875C244.648 373.178 240.646 371.844 236.339 370.932L238.274 366.76C238.399 366.492 238.43 366.213 238.368 365.938C238.305 365.664 238.149 365.399 237.909 365.159C237.669 364.919 237.35 364.708 236.969 364.539C236.588 364.371 236.154 364.247 235.69 364.175C234.754 364.03 233.756 364.106 232.916 364.386C232.076 364.666 231.464 365.127 231.213 365.667L229.274 369.845C224.754 369.399 220.136 369.399 215.616 369.845L213.678 365.667C213.427 365.127 212.814 364.666 211.975 364.386C211.135 364.106 210.137 364.03 209.201 364.175C208.264 364.32 207.466 364.674 206.981 365.159C206.497 365.643 206.365 366.219 206.616 366.76L208.551 370.932C204.245 371.844 200.243 373.178 196.722 374.875L191.433 371.822C190.748 371.426 189.818 371.204 188.849 371.204C187.88 371.204 186.95 371.426 186.265 371.822C185.579 372.218 185.194 372.754 185.194 373.314C185.194 373.874 185.579 374.41 186.265 374.806L191.553 377.859C188.613 379.892 186.303 382.203 184.724 384.689L177.498 383.572C176.72 383.451 175.896 383.482 175.152 383.66C174.409 383.838 173.787 384.152 173.385 384.555C172.983 384.957 172.821 385.425 172.927 385.886C173.032 386.346 173.397 386.774 173.967 387.102C174.419 387.365 174.984 387.554 175.605 387.649L182.841 388.768C182.069 391.378 182.069 394.044 182.841 396.653L175.605 397.773C174.668 397.917 173.87 398.271 173.385 398.756C172.9 399.241 172.769 399.817 173.02 400.358C173.271 400.898 173.884 401.359 174.724 401.639C175.563 401.919 176.561 401.994 177.498 401.85L184.724 400.732C186.303 403.219 188.613 405.529 191.553 407.562L186.265 410.615C185.579 411.011 185.194 411.548 185.194 412.107C185.194 412.667 185.579 413.204 186.265 413.6C186.95 413.995 187.88 414.218 188.849 414.218C189.818 414.218 190.748 413.995 191.433 413.6L196.722 410.546C200.243 412.244 204.245 413.578 208.551 414.489L206.616 418.661C206.365 419.202 206.497 419.778 206.981 420.263C207.466 420.748 208.264 421.101 209.201 421.246C210.137 421.391 211.135 421.315 211.975 421.036C212.814 420.756 213.427 420.295 213.678 419.754L215.616 415.576C220.136 416.022 224.754 416.022 229.274 415.576L231.213 419.754C231.337 420.022 231.551 420.273 231.843 420.493C232.136 420.713 232.5 420.897 232.916 421.036C233.332 421.174 233.791 421.264 234.267 421.3C234.743 421.336 235.226 421.318 235.69 421.246C236.626 421.102 237.425 420.749 237.91 420.264C238.396 419.78 238.528 419.204 238.277 418.663L236.342 414.491C240.648 413.579 244.649 412.244 248.169 410.546L253.457 413.6C254.143 413.995 255.072 414.218 256.041 414.218C257.011 414.218 257.94 413.995 258.626 413.6C259.311 413.204 259.696 412.667 259.696 412.107C259.696 411.548 259.311 411.011 258.626 410.615ZM245.704 379.282C251.416 382.588 254.821 386.992 255.271 391.654C255.72 396.316 253.182 400.91 248.14 404.561L226.522 392.08L234.433 375.032C238.66 375.982 242.498 377.429 245.704 379.282ZM199.186 379.282C202.832 377.18 207.282 375.601 212.177 374.674C217.073 373.746 222.278 373.496 227.372 373.942L219.46 390.987L189.938 395.555C189.164 392.614 189.598 389.609 191.204 386.782C192.811 383.956 195.545 381.387 199.186 379.282ZM199.186 406.139C195.973 404.292 193.461 402.079 191.808 399.641L221.353 395.064L242.971 407.545C236.647 410.456 228.689 411.922 220.614 411.662C212.539 411.403 204.912 409.437 199.186 406.139Z" fill="white"/>
</g>
<path d="M21.3047 261.674L21.676 228.796L214.458 341.154C225.031 347.316 238.099 347.321 248.676 341.168L439.577 230.109V260.107C439.577 265.523 436.657 270.519 431.938 273.177L247.354 377.129C236.623 383.171 223.507 383.131 212.815 377.021L26.3428 270.469C23.1919 268.669 21.2637 265.303 21.3047 261.674Z" fill="#101010"/>
<path d="M21.3047 261.674L21.676 228.796L214.458 341.154C225.031 347.316 238.099 347.321 248.676 341.168L439.577 230.109V260.107C439.577 265.523 436.657 270.519 431.938 273.177L247.354 377.129C236.623 383.171 223.507 383.131 212.815 377.021L26.3428 270.469C23.1919 268.669 21.2637 265.303 21.3047 261.674Z" fill="url(#paint4_linear_1421_3858)"/>
<path d="M21.3047 261.674L21.676 228.796L214.458 341.154C225.031 347.316 238.099 347.321 248.676 341.168L439.577 230.109V260.107C439.577 265.523 436.657 270.519 431.938 273.177L247.354 377.129C236.623 383.171 223.507 383.131 212.815 377.021L26.3428 270.469C23.1919 268.669 21.2637 265.303 21.3047 261.674Z" stroke="#404040"/>
<path d="M247.355 108.607L436.298 217.031C442.314 220.484 442.328 229.158 436.322 232.629L249.46 340.649C238.992 346.7 226.098 346.737 215.595 340.745L25.6069 232.354C19.5503 228.898 19.5542 220.165 25.6139 216.715L215.595 108.553C225.445 102.945 237.525 102.966 247.355 108.607Z" fill="#131313" stroke="#404040"/>
<path d="M36.7395 255.635L37.8318 256.265L40.4004 264.993L40.4889 265.044L43.0575 259.282L44.1499 259.913L44.1499 268.64L43.2937 268.146L43.2937 261.515L43.2199 261.473L40.858 266.74L40.0313 266.262L37.6694 258.268L37.5956 258.226L37.5956 264.856L36.7394 264.362L36.7395 255.635ZM47.5349 270.748C47.1757 270.541 46.8497 270.274 46.557 269.949C46.2642 269.621 46.0317 269.258 45.8595 268.86C45.6873 268.46 45.6011 268.046 45.6011 267.62C45.6011 267.245 45.6651 266.978 45.793 266.819C45.921 266.657 46.092 266.571 46.306 266.561C46.5201 266.551 46.7563 266.588 47.0146 266.672C47.2754 266.754 47.5374 266.852 47.8006 266.964C48.1451 267.112 48.4243 267.235 48.6384 267.333C48.8549 267.429 49.0123 267.473 49.1108 267.465C49.2116 267.458 49.2621 267.373 49.2621 267.211L49.2621 267.177C49.2621 266.757 49.1624 266.372 48.9631 266.024C48.7663 265.678 48.4674 265.389 48.0664 265.157C47.6506 264.917 47.3246 264.834 47.0884 264.908C46.8522 264.982 46.6861 265.11 46.5902 265.294L45.7635 264.475C45.9111 264.163 46.108 263.967 46.354 263.887C46.6025 263.806 46.8731 263.806 47.1659 263.887C47.4611 263.967 47.7514 264.089 48.0368 264.254C48.2189 264.359 48.428 264.505 48.6642 264.693C48.9029 264.879 49.1329 265.112 49.3543 265.394C49.5782 265.676 49.764 266.015 49.9116 266.41C50.0592 266.805 50.133 267.262 50.133 267.782L50.133 272.095L49.2621 271.592L49.2621 270.705L49.2178 270.68C49.1587 270.788 49.0603 270.883 48.9225 270.965C48.7848 271.048 48.6015 271.08 48.3727 271.061C48.1439 271.043 47.8646 270.938 47.5349 270.748ZM47.6678 269.921C48.0122 270.12 48.3025 270.21 48.5387 270.19C48.7774 270.171 48.957 270.073 49.0775 269.896C49.2006 269.72 49.2621 269.495 49.2621 269.223L49.2621 268.302C49.2252 268.332 49.144 268.332 49.0185 268.302C48.8955 268.271 48.7528 268.224 48.5904 268.161C48.4305 268.098 48.2743 268.033 48.1217 267.968C47.9716 267.901 47.8499 267.848 47.7564 267.808C47.53 267.711 47.3184 267.644 47.1216 267.607C46.9272 267.569 46.7698 267.59 46.6492 267.671C46.5311 267.751 46.4721 267.919 46.4721 268.174C46.4721 268.524 46.584 268.852 46.8079 269.161C47.0343 269.468 47.3209 269.721 47.6678 269.921ZM54.1879 267.89L54.1879 268.743L51.2503 267.047L51.2503 266.194L54.1879 267.89ZM52.1065 265.12L52.9774 265.623L52.9774 271.862C52.9774 272.146 53.0131 272.38 53.0844 272.563C53.1583 272.745 53.2517 272.892 53.3649 273.006C53.4806 273.118 53.6023 273.211 53.7303 273.285C53.8262 273.341 53.905 273.38 53.9665 273.405C54.028 273.426 54.0772 273.443 54.1141 273.456L54.2912 274.461C54.2322 274.453 54.1498 274.431 54.044 274.395C53.9382 274.363 53.8041 274.299 53.6417 274.206C53.3957 274.064 53.1546 273.863 52.9184 273.605C52.6847 273.348 52.4903 273.049 52.3353 272.71C52.1827 272.372 52.1065 272.012 52.1065 271.632L52.1065 265.12ZM57.8138 276.666C57.2676 276.35 56.7964 275.939 56.4003 275.432C56.0067 274.923 55.7028 274.356 55.4888 273.729C55.2772 273.102 55.1714 272.452 55.1714 271.782C55.1714 271.112 55.2772 270.582 55.4888 270.193C55.7028 269.802 56.0005 269.573 56.3819 269.506C56.7657 269.438 57.2134 269.552 57.7252 269.847C58.0204 270.018 58.312 270.243 58.5998 270.523C58.8877 270.803 59.1497 271.139 59.3859 271.531C59.6221 271.92 59.8103 272.364 59.9505 272.862C60.0908 273.361 60.1609 273.916 60.1609 274.526L60.1609 274.952L55.7914 272.43L55.7914 271.56L59.2752 273.572C59.2752 273.202 59.2112 272.836 59.0833 272.472C58.9578 272.11 58.7782 271.778 58.5445 271.475C58.3132 271.174 58.0401 270.933 57.7252 270.751C57.3783 270.55 57.0781 270.477 56.8247 270.529C56.5738 270.58 56.3806 270.724 56.2453 270.962C56.11 271.199 56.0423 271.498 56.0423 271.859L56.0423 272.438C56.0423 272.933 56.1162 273.394 56.2638 273.823C56.4138 274.251 56.6217 274.631 56.8875 274.963C57.1532 275.293 57.4619 275.559 57.8138 275.762C58.0426 275.894 58.2492 275.977 58.4338 276.009C58.6207 276.041 58.7819 276.02 58.9172 275.947C59.0525 275.872 59.1571 275.742 59.2309 275.558L60.0723 276.316C59.9837 276.595 59.8349 276.798 59.6258 276.928C59.4166 277.054 59.1583 277.098 58.8508 277.06C58.5432 277.019 58.1976 276.887 57.8138 276.666ZM61.4858 278.649L61.4858 272.104L62.3272 272.59L62.3272 273.578L62.3862 273.612C62.4896 273.348 62.6765 273.193 62.9472 273.148C63.2178 273.102 63.5229 273.178 63.8624 273.374C63.9264 273.411 64.0063 273.458 64.1023 273.516C64.1982 273.575 64.2708 273.621 64.32 273.655L64.32 274.678C64.2905 274.652 64.2228 274.6 64.117 274.522C64.0137 274.443 63.9042 274.369 63.7886 274.303C63.513 274.144 63.267 274.068 63.0505 274.077C62.8365 274.084 62.6667 274.168 62.5412 274.328C62.4182 274.487 62.3567 274.715 62.3567 275.01L62.3567 279.152L61.4858 278.649ZM65.3524 280.882L65.3524 274.336L66.2234 274.839L66.2234 281.384L65.3524 280.882ZM65.7953 273.501C65.6255 273.403 65.4791 273.252 65.3561 273.047C65.2356 272.844 65.1753 272.649 65.1753 272.461C65.1753 272.274 65.2356 272.148 65.3561 272.084C65.4791 272.022 65.6255 272.039 65.7953 272.137C65.965 272.235 66.1102 272.386 66.2308 272.589C66.3538 272.794 66.4153 272.99 66.4153 273.177C66.4153 273.365 66.3538 273.49 66.2308 273.552C66.1102 273.616 65.965 273.599 65.7953 273.501ZM69.4866 283.422C69.1274 283.215 68.8015 282.948 68.5087 282.623C68.2159 282.295 67.9834 281.932 67.8112 281.534C67.639 281.134 67.5529 280.72 67.5529 280.294C67.5529 279.919 67.6168 279.652 67.7448 279.493C67.8727 279.331 68.0437 279.245 68.2577 279.235C68.4718 279.225 68.708 279.262 68.9663 279.346C69.2271 279.428 69.4891 279.526 69.7524 279.638C70.0968 279.786 70.376 279.908 70.5901 280.006C70.8066 280.103 70.9641 280.147 71.0625 280.139C71.1633 280.131 71.2138 280.047 71.2138 279.885L71.2138 279.851C71.2138 279.43 71.1141 279.046 70.9149 278.698C70.718 278.352 70.4191 278.063 70.0181 277.831C69.6023 277.591 69.2763 277.508 69.0401 277.582C68.8039 277.656 68.6378 277.784 68.5419 277.967L67.7152 277.149C67.8629 276.837 68.0597 276.641 68.3057 276.561C68.5542 276.48 68.8248 276.48 69.1176 276.561C69.4128 276.641 69.7032 276.763 69.9886 276.928C70.1706 277.033 70.3797 277.179 70.6159 277.367C70.8546 277.553 71.0846 277.786 71.306 278.068C71.5299 278.35 71.7157 278.689 71.8633 279.084C72.0109 279.479 72.0847 279.936 72.0847 280.456L72.0847 284.769L71.2138 284.266L71.2138 283.379L71.1695 283.354C71.1104 283.462 71.012 283.557 70.8743 283.639C70.7365 283.722 70.5532 283.754 70.3244 283.735C70.0956 283.717 69.8163 283.612 69.4866 283.422ZM69.6195 282.595C69.9639 282.794 70.2543 282.884 70.4905 282.864C70.7291 282.845 70.9087 282.747 71.0293 282.57C71.1523 282.394 71.2138 282.169 71.2138 281.896L71.2138 280.976C71.1769 281.006 71.0957 281.006 70.9702 280.976C70.8472 280.945 70.7045 280.898 70.5421 280.835C70.3822 280.771 70.226 280.707 70.0734 280.641C69.9234 280.575 69.8016 280.521 69.7081 280.482C69.4817 280.385 69.2701 280.318 69.0733 280.281C68.879 280.243 68.7215 280.264 68.6009 280.345C68.4828 280.425 68.4238 280.592 68.4238 280.848C68.4238 281.197 68.5357 281.526 68.7596 281.835C68.986 282.141 69.2726 282.395 69.6195 282.595ZM74.5453 277.462L74.5453 286.189L73.6744 285.686L73.6744 276.959L74.5453 277.462ZM80.1557 284.349L79.3734 284.153C79.3242 283.974 79.2516 283.786 79.1556 283.588C79.0621 283.389 78.9342 283.196 78.7718 283.009C78.6094 282.821 78.4015 282.654 78.1481 282.508C77.8012 282.308 77.5121 282.233 77.2809 282.284C77.0521 282.334 76.9377 282.499 76.9377 282.781C76.9377 283.031 77.0164 283.273 77.1739 283.509C77.3313 283.745 77.5773 284.008 77.9119 284.298L78.7534 285.022C79.2602 285.457 79.6378 285.892 79.8863 286.328C80.1348 286.761 80.2591 287.207 80.2591 287.664C80.2591 288.039 80.1656 288.32 79.9786 288.508C79.7941 288.697 79.5357 288.781 79.2036 288.759C78.8715 288.738 78.4852 288.6 78.0448 288.346C77.4666 288.012 76.9881 287.591 76.6092 287.082C76.2303 286.574 75.9905 286.012 75.8896 285.397L76.7162 285.636C76.795 286.033 76.9438 286.384 77.1628 286.686C77.3842 286.99 77.6733 287.245 78.03 287.451C78.436 287.685 78.7583 287.772 78.9969 287.711C79.238 287.648 79.3586 287.477 79.3586 287.195C79.3586 286.968 79.2897 286.738 79.1519 286.505C79.0142 286.269 78.8026 286.031 78.5172 285.789L77.5724 284.988C77.0533 284.546 76.672 284.106 76.4284 283.667C76.1873 283.227 76.0667 282.781 76.0667 282.329C76.0667 281.96 76.1565 281.685 76.3361 281.504C76.5182 281.325 76.7654 281.245 77.0779 281.264C77.3928 281.283 77.7496 281.408 78.1481 281.639C78.7091 281.962 79.1495 282.359 79.4693 282.827C79.7916 283.298 80.0204 283.805 80.1557 284.349ZM86.6334 293.288C86.1364 293.001 85.7083 292.648 85.3491 292.231C84.9899 291.813 84.7131 291.365 84.5188 290.886C84.3244 290.408 84.2272 289.932 84.2272 289.461C84.2272 289.097 84.2937 288.813 84.4265 288.609C84.5618 288.403 84.7476 288.247 84.9838 288.142C85.2224 288.035 85.4967 287.949 85.8067 287.884L86.8991 287.577C87.1132 287.539 87.2841 287.464 87.4121 287.354C87.5425 287.244 87.6077 287.04 87.6077 286.742C87.6077 286.52 87.5228 286.257 87.353 285.952C87.1857 285.648 86.9655 285.417 86.6924 285.259C86.5005 285.148 86.3308 285.107 86.1832 285.136C86.038 285.163 85.9236 285.239 85.84 285.364C85.7588 285.487 85.7182 285.64 85.7182 285.822C85.7182 286.026 85.7661 286.261 85.8621 286.527C85.9605 286.791 86.0848 287.076 86.2348 287.381C86.3874 287.685 86.5448 287.998 86.7072 288.319L90.1762 295.214L89.1281 294.609L86.2644 288.966C85.9986 288.444 85.7575 287.969 85.541 287.543C85.3245 287.117 85.1523 286.721 85.0244 286.354C84.8964 285.988 84.8325 285.634 84.8325 285.293C84.8325 284.901 84.9075 284.601 85.0576 284.392C85.2101 284.182 85.4229 284.073 85.696 284.066C85.9716 284.057 86.2939 284.16 86.6629 284.373C87.0418 284.591 87.3678 284.865 87.6409 285.193C87.914 285.518 88.1243 285.863 88.272 286.226C88.4196 286.587 88.4934 286.93 88.4934 287.253C88.4934 287.671 88.4036 287.981 88.224 288.185C88.0444 288.388 87.7996 288.532 87.4896 288.617L85.9839 289.043C85.6444 289.137 85.4143 289.285 85.2938 289.489C85.1732 289.692 85.1129 289.853 85.1129 289.972C85.1129 290.245 85.1744 290.535 85.2975 290.841C85.4205 291.148 85.5939 291.439 85.8178 291.713C86.0417 291.987 86.3037 292.211 86.6039 292.384C86.8893 292.549 87.1673 292.64 87.4379 292.657C87.7086 292.671 87.9533 292.608 88.1723 292.467C88.3937 292.328 88.5684 292.108 88.6964 291.807C88.8268 291.507 88.892 291.123 88.892 290.654L89.7334 291.14C89.7334 291.719 89.6756 292.159 89.5599 292.459C89.4443 292.758 89.3139 292.97 89.1687 293.094C89.0236 293.217 88.9067 293.305 88.8181 293.356C88.7886 293.381 88.7616 293.408 88.737 293.437C88.7124 293.465 88.6853 293.492 88.6558 293.518C88.4122 293.692 88.1047 293.751 87.7332 293.692C87.3616 293.631 86.9951 293.496 86.6334 293.288ZM95.0965 289.327L95.0965 298.054L94.1813 297.526L94.1813 288.799L95.0965 289.327ZM97.6844 295.611L97.6844 299.549L96.8135 299.046L96.8135 292.5L97.6549 292.986L97.6549 294.009L97.7287 294.051C97.8616 293.796 98.0633 293.645 98.334 293.6C98.6046 293.551 98.954 293.651 99.3821 293.898C99.7659 294.12 100.102 294.404 100.39 294.752C100.677 295.098 100.901 295.5 101.061 295.958C101.221 296.414 101.301 296.921 101.301 297.477L101.301 301.637L100.43 301.134L100.43 297.043C100.43 296.529 100.315 296.061 100.083 295.641C99.852 295.218 99.5346 294.889 99.1311 294.656C98.8531 294.496 98.6046 294.422 98.3856 294.435C98.1691 294.449 97.9981 294.553 97.8727 294.748C97.7472 294.943 97.6844 295.23 97.6844 295.611ZM107.325 298.569L105.229 303.904L104.343 303.393L102.247 295.637L103.192 296.183L104.756 302.302L104.815 302.336L106.38 298.023L107.325 298.569ZM110.648 307.169C110.102 306.854 109.631 306.443 109.235 305.936C108.841 305.427 108.537 304.86 108.323 304.233C108.112 303.606 108.006 302.956 108.006 302.286C108.006 301.615 108.112 301.086 108.323 300.696C108.537 300.306 108.835 300.077 109.216 300.01C109.6 299.942 110.048 300.056 110.56 300.351C110.855 300.522 111.146 300.747 111.434 301.027C111.722 301.307 111.984 301.642 112.22 302.034C112.456 302.424 112.645 302.868 112.785 303.366C112.925 303.865 112.995 304.419 112.995 305.03L112.995 305.456L108.626 302.934L108.626 302.064L112.109 304.076C112.109 303.706 112.046 303.34 111.918 302.976C111.792 302.614 111.613 302.282 111.379 301.979C111.148 301.678 110.874 301.436 110.56 301.255C110.213 301.054 109.912 300.981 109.659 301.033C109.408 301.084 109.215 301.228 109.08 301.466C108.944 301.703 108.877 302.002 108.877 302.363L108.877 302.942C108.877 303.436 108.95 303.898 109.098 304.327C109.248 304.755 109.456 305.135 109.722 305.467C109.987 305.797 110.296 306.063 110.648 306.266C110.877 306.398 111.084 306.481 111.268 306.513C111.455 306.544 111.616 306.524 111.752 306.451C111.887 306.376 111.991 306.246 112.065 306.061L112.907 306.82C112.818 307.098 112.669 307.302 112.46 307.432C112.251 307.558 111.993 307.602 111.685 307.564C111.378 307.522 111.032 307.391 110.648 307.169ZM115.191 305.718L115.191 309.656L114.32 309.153L114.32 302.608L115.161 303.093L115.161 304.116L115.235 304.159C115.368 303.903 115.57 303.753 115.841 303.707C116.111 303.659 116.461 303.758 116.889 304.005C117.272 304.227 117.608 304.512 117.896 304.86C118.184 305.205 118.408 305.607 118.568 306.066C118.728 306.522 118.808 307.028 118.808 307.585L118.808 311.744L117.937 311.241L117.937 307.15C117.937 306.636 117.821 306.169 117.59 305.748C117.359 305.325 117.041 304.997 116.638 304.764C116.36 304.603 116.111 304.53 115.892 304.542C115.676 304.557 115.505 304.661 115.379 304.856C115.254 305.05 115.191 305.338 115.191 305.718ZM122.864 307.541L122.864 308.393L119.927 306.697L119.927 305.845L122.864 307.541ZM120.783 304.771L121.654 305.274L121.654 311.512C121.654 311.796 121.69 312.03 121.761 312.213C121.835 312.395 121.928 312.543 122.041 312.656C122.157 312.769 122.279 312.862 122.407 312.936C122.503 312.991 122.581 313.031 122.643 313.055C122.704 313.076 122.754 313.093 122.791 313.106L122.968 314.112C122.909 314.103 122.826 314.081 122.72 314.046C122.615 314.013 122.481 313.95 122.318 313.856C122.072 313.714 121.831 313.514 121.595 313.255C121.361 312.998 121.167 312.7 121.012 312.36C120.859 312.022 120.783 311.663 120.783 311.282L120.783 304.771ZM126.416 316.273C125.905 315.978 125.456 315.578 125.069 315.074C124.686 314.571 124.385 314.004 124.169 313.373C123.955 312.744 123.848 312.091 123.848 311.415C123.848 310.734 123.955 310.2 124.169 309.815C124.385 309.432 124.686 309.21 125.069 309.15C125.456 309.092 125.905 309.211 126.416 309.506C126.928 309.802 127.376 310.201 127.76 310.704C128.146 311.208 128.446 311.776 128.66 312.408C128.877 313.042 128.985 313.699 128.985 314.381C128.985 315.057 128.877 315.586 128.66 315.966C128.446 316.349 128.146 316.569 127.76 316.627C127.376 316.687 126.928 316.569 126.416 316.273ZM126.416 315.37C126.805 315.594 127.125 315.664 127.376 315.579C127.627 315.493 127.813 315.298 127.933 314.993C128.054 314.687 128.114 314.316 128.114 313.878C128.114 313.441 128.054 312.998 127.933 312.551C127.813 312.104 127.627 311.691 127.376 311.313C127.125 310.935 126.805 310.634 126.416 310.41C126.028 310.185 125.708 310.117 125.457 310.205C125.206 310.293 125.02 310.491 124.9 310.8C124.779 311.108 124.719 311.481 124.719 311.918C124.719 312.356 124.779 312.797 124.9 313.241C125.02 313.686 125.206 314.096 125.457 314.471C125.708 314.846 126.028 315.145 126.416 315.37ZM130.314 318.387L130.314 311.842L131.156 312.328L131.156 313.316L131.215 313.351C131.318 313.086 131.505 312.932 131.776 312.886C132.047 312.841 132.352 312.916 132.691 313.112C132.755 313.149 132.835 313.196 132.931 313.255C133.027 313.313 133.1 313.359 133.149 313.393L133.149 314.416C133.119 314.39 133.052 314.338 132.946 314.26C132.842 314.181 132.733 314.108 132.617 314.041C132.342 313.882 132.096 313.807 131.879 313.815C131.665 313.822 131.495 313.906 131.37 314.066C131.247 314.226 131.185 314.453 131.185 314.748L131.185 318.89L130.314 318.387ZM134.915 323.498C134.767 323.413 134.635 323.322 134.52 323.227C134.404 323.135 134.324 323.063 134.28 323.012L134.501 322.254C134.713 322.438 134.9 322.569 135.062 322.646C135.225 322.722 135.369 322.722 135.494 322.644C135.622 322.57 135.739 322.397 135.845 322.126L136.007 321.708L133.911 313.918L134.856 314.464L136.42 320.583L136.479 320.617L138.044 316.305L138.989 316.85L136.583 322.961C136.474 323.237 136.34 323.439 136.18 323.568C136.021 323.7 135.835 323.759 135.623 323.745C135.414 323.732 135.178 323.65 134.915 323.498Z" fill="white"/>
<path d="M21.3047 162.601L21.676 129.723L214.458 242.081C225.031 248.243 238.099 248.248 248.676 242.095L439.577 131.037V161.034C439.577 166.45 436.657 171.446 431.938 174.104L247.354 278.056C236.623 284.099 223.507 284.058 212.815 277.948L26.3428 171.397C23.1919 169.596 21.2637 166.23 21.3047 162.601Z" fill="#101010"/>
<path d="M21.3047 162.601L21.676 129.723L214.458 242.081C225.031 248.243 238.099 248.248 248.676 242.095L439.577 131.037V161.034C439.577 166.45 436.657 171.446 431.938 174.104L247.354 278.056C236.623 284.099 223.507 284.058 212.815 277.948L26.3428 171.397C23.1919 169.596 21.2637 166.23 21.3047 162.601Z" fill="url(#paint5_linear_1421_3858)"/>
<path d="M21.3047 162.601L21.676 129.723L214.458 242.081C225.031 248.243 238.099 248.248 248.676 242.095L439.577 131.037V161.034C439.577 166.45 436.657 171.446 431.938 174.104L247.354 278.056C236.623 284.099 223.507 284.058 212.815 277.948L26.3428 171.397C23.1919 169.596 21.2637 166.23 21.3047 162.601Z" stroke="#404040"/>
<path d="M247.355 9.53393L436.298 117.959C442.314 121.411 442.328 130.085 436.322 133.557L249.46 241.576C238.992 247.628 226.098 247.664 215.595 241.673L25.6069 133.281C19.5503 129.826 19.5542 121.093 25.6139 117.643L215.595 9.47987C225.445 3.87243 237.525 3.893 247.355 9.53393Z" fill="#131313" stroke="#404040"/>
<path d="M36.7394 163.377L36.7395 154.65L39.2932 156.124C39.8862 156.467 40.3709 156.87 40.7473 157.334C41.1262 157.797 41.4066 158.29 41.5887 158.813C41.7708 159.336 41.8618 159.854 41.8618 160.369C41.8618 160.883 41.7708 161.297 41.5887 161.613C41.4091 161.93 41.1311 162.104 40.7547 162.137C40.3782 162.167 39.896 162.012 39.308 161.672L37.4775 160.616L37.4775 159.678L39.2785 160.718C39.6844 160.952 40.0104 161.06 40.2564 161.04C40.5025 161.02 40.6808 160.904 40.7916 160.692C40.9047 160.479 40.9613 160.198 40.9613 159.849C40.9613 159.499 40.9047 159.154 40.7916 158.813C40.6808 158.474 40.5012 158.154 40.2528 157.854C40.0043 157.552 39.6746 157.282 39.2637 157.045L37.6547 156.116L37.6547 163.905L36.7394 163.377ZM43.218 167.117L43.218 160.572L44.0595 161.058L44.0595 162.046L44.1185 162.081C44.2218 161.816 44.4088 161.661 44.6795 161.616C44.9501 161.571 45.2552 161.646 45.5947 161.842C45.6587 161.879 45.7386 161.926 45.8346 161.985C45.9305 162.043 46.0031 162.089 46.0523 162.123L46.0523 163.146C46.0228 163.12 45.9551 163.068 45.8493 162.99C45.746 162.911 45.6365 162.838 45.5209 162.771C45.2453 162.612 44.9993 162.536 44.7828 162.545C44.5687 162.552 44.399 162.636 44.2735 162.796C44.1505 162.956 44.089 163.183 44.089 163.478L44.089 167.62L43.218 167.117ZM49.215 170.716C48.7033 170.421 48.2543 170.021 47.868 169.517C47.4842 169.014 47.184 168.447 46.9675 167.816C46.7535 167.187 46.6465 166.534 46.6465 165.858C46.6465 165.176 46.7535 164.643 46.9675 164.258C47.184 163.875 47.4842 163.653 47.868 163.593C48.2543 163.535 48.7033 163.654 49.215 163.949C49.7268 164.245 50.1745 164.644 50.5583 165.147C50.9446 165.651 51.2448 166.219 51.4588 166.851C51.6753 167.485 51.7836 168.142 51.7836 168.824C51.7836 169.5 51.6753 170.029 51.4588 170.409C51.2448 170.791 50.9446 171.012 50.5583 171.07C50.1745 171.13 49.7268 171.012 49.215 170.716ZM49.215 169.813C49.6037 170.037 49.9236 170.107 50.1745 170.022C50.4255 169.936 50.6112 169.741 50.7318 169.436C50.8523 169.13 50.9126 168.759 50.9126 168.321C50.9126 167.884 50.8523 167.441 50.7318 166.994C50.6112 166.546 50.4255 166.134 50.1745 165.756C49.9236 165.378 49.6037 165.077 49.215 164.853C48.8263 164.628 48.5064 164.56 48.2555 164.648C48.0045 164.736 47.8188 164.934 47.6982 165.242C47.5777 165.551 47.5174 165.924 47.5174 166.361C47.5174 166.799 47.5777 167.24 47.6982 167.684C47.8188 168.129 48.0045 168.539 48.2555 168.914C48.5064 169.289 48.8263 169.588 49.215 169.813ZM55.4159 174.296C54.8845 173.989 54.4268 173.58 54.043 173.069C53.6592 172.558 53.364 171.988 53.1573 171.36C52.9507 170.732 52.8473 170.092 52.8473 169.438C52.8473 168.774 52.9531 168.248 53.1647 167.862C53.3788 167.474 53.6765 167.247 54.0578 167.18C54.4416 167.112 54.8894 167.225 55.4011 167.521C55.7997 167.751 56.1589 168.043 56.4787 168.399C56.7986 168.754 57.0606 169.144 57.2648 169.568C57.469 169.993 57.5957 170.424 57.6449 170.862L56.774 170.359C56.7075 170.022 56.5599 169.673 56.3311 169.31C56.1048 168.947 55.7997 168.654 55.4159 168.433C55.0764 168.237 54.7787 168.167 54.5228 168.224C54.2694 168.279 54.0713 168.45 53.9286 168.737C53.7884 169.023 53.7183 169.413 53.7183 169.907C53.7183 170.413 53.7872 170.893 53.9249 171.347C54.0652 171.803 54.262 172.208 54.5154 172.562C54.7713 172.917 55.0714 173.194 55.4159 173.393C55.6422 173.524 55.8477 173.597 56.0322 173.612C56.2167 173.628 56.3729 173.587 56.5009 173.491C56.6288 173.394 56.7198 173.242 56.774 173.035L57.6449 173.538C57.5957 173.896 57.4739 174.173 57.2796 174.371C57.0877 174.567 56.833 174.664 56.5156 174.663C56.2007 174.66 55.8341 174.538 55.4159 174.296ZM62.4905 175.568L62.4905 171.699L63.3614 172.202L63.3614 178.747L62.4905 178.244L62.4905 177.136L62.4314 177.102C62.2986 177.358 62.0919 177.521 61.8114 177.592C61.531 177.661 61.1767 177.571 60.7486 177.324C60.3943 177.119 60.0794 176.848 59.8038 176.51C59.5283 176.169 59.3118 175.771 59.1543 175.317C58.9969 174.859 58.9181 174.352 58.9181 173.796L58.9181 169.636L59.7891 170.139L59.7891 174.23C59.7891 174.707 59.9047 175.155 60.136 175.573C60.3697 175.992 60.6674 176.305 61.0291 176.514C61.2456 176.639 61.4658 176.703 61.6897 176.704C61.916 176.707 62.1054 176.62 62.258 176.444C62.413 176.269 62.4905 175.977 62.4905 175.568ZM64.9566 179.668L64.9566 173.123L65.798 173.609L65.798 174.597L65.8571 174.631C65.9604 174.367 66.1474 174.212 66.418 174.167C66.6887 174.121 66.9938 174.197 67.3333 174.393C67.3972 174.43 67.4772 174.477 67.5732 174.535C67.6691 174.594 67.7417 174.64 67.7909 174.674L67.7909 175.697C67.7614 175.671 67.6937 175.619 67.5879 175.541C67.4846 175.462 67.3751 175.388 67.2595 175.322C66.9839 175.163 66.7379 175.087 66.5214 175.096C66.3073 175.103 66.1376 175.187 66.0121 175.347C65.8891 175.506 65.8276 175.734 65.8276 176.029L65.8276 180.171L64.9566 179.668ZM71.0274 183.31C70.4812 182.994 70.0101 182.583 69.614 182.076C69.2203 181.567 68.9165 181 68.7024 180.373C68.4908 179.746 68.3851 179.097 68.3851 178.426C68.3851 177.756 68.4908 177.226 68.7024 176.837C68.9165 176.446 69.2142 176.217 69.5955 176.15C69.9793 176.082 70.4271 176.196 70.9388 176.491C71.2341 176.662 71.5256 176.887 71.8135 177.167C72.1013 177.447 72.3634 177.783 72.5995 178.175C72.8357 178.564 73.0239 179.008 73.1642 179.506C73.3044 180.005 73.3745 180.56 73.3745 181.17L73.3745 181.597L69.005 179.074L69.005 178.204L72.4888 180.216C72.4888 179.847 72.4249 179.48 72.2969 179.116C72.1715 178.754 71.9918 178.422 71.7581 178.119C71.5269 177.818 71.2538 177.577 70.9388 177.395C70.5919 177.195 70.2918 177.121 70.0384 177.173C69.7874 177.224 69.5943 177.369 69.459 177.606C69.3237 177.843 69.256 178.142 69.256 178.503L69.256 179.082C69.256 179.577 69.3298 180.038 69.4774 180.467C69.6275 180.895 69.8354 181.275 70.1011 181.607C70.3668 181.937 70.6756 182.203 71.0274 182.406C71.2562 182.538 71.4629 182.621 71.6474 182.653C71.8344 182.685 71.9955 182.664 72.1309 182.592C72.2662 182.516 72.3707 182.386 72.4445 182.202L73.286 182.96C73.1974 183.239 73.0485 183.442 72.8394 183.572C72.6303 183.698 72.372 183.742 72.0644 183.704C71.7569 183.663 71.4112 183.531 71.0274 183.31ZM74.6994 185.293L74.6994 178.748L75.5408 179.234L75.5408 180.256L75.6146 180.299C75.7327 180.018 75.9234 179.856 76.1867 179.815C76.4499 179.771 76.7661 179.856 77.1351 180.069C77.5091 180.285 77.8203 180.562 78.0688 180.902C78.3197 181.24 78.5153 181.624 78.6556 182.055L78.7146 182.089C78.8598 181.834 79.0775 181.692 79.3678 181.66C79.6581 181.626 80.0063 181.726 80.4122 181.961C80.919 182.253 81.3336 182.676 81.6559 183.229C81.9782 183.778 82.1394 184.438 82.1394 185.208L82.1394 189.589L81.2684 189.086L81.2684 184.705C81.2684 184.222 81.154 183.811 80.9252 183.472C80.6964 183.132 80.427 182.873 80.117 182.694C79.7184 182.464 79.4097 182.425 79.1907 182.577C78.9717 182.726 78.8622 183.012 78.8622 183.435L78.8622 187.697L77.9765 187.185L77.9765 182.702C77.9765 182.33 77.872 181.97 77.6628 181.622C77.4537 181.271 77.1843 181.001 76.8546 180.81C76.6283 180.68 76.4167 180.627 76.2199 180.653C76.0255 180.68 75.8681 180.782 75.7475 180.959C75.6294 181.136 75.5704 181.384 75.5704 181.705L75.5704 185.796L74.6994 185.293ZM86.1084 192.017C85.5622 191.701 85.0911 191.29 84.695 190.783C84.3013 190.274 83.9975 189.707 83.7834 189.081C83.5719 188.453 83.4661 187.804 83.4661 187.133C83.4661 186.463 83.5719 185.933 83.7834 185.544C83.9975 185.153 84.2952 184.924 84.6765 184.858C85.0603 184.789 85.5081 184.903 86.0199 185.198C86.3151 185.369 86.6066 185.594 86.8945 185.874C87.1824 186.154 87.4444 186.49 87.6806 186.882C87.9168 187.271 88.105 187.715 88.2452 188.213C88.3854 188.712 88.4556 189.267 88.4556 189.877L88.4556 190.304L84.0861 187.781L84.0861 186.911L87.5699 188.923C87.5699 188.554 87.5059 188.187 87.3779 187.823C87.2525 187.461 87.0729 187.129 86.8391 186.826C86.6079 186.525 86.3348 186.284 86.0199 186.102C85.673 185.902 85.3728 185.828 85.1194 185.88C84.8684 185.931 84.6753 186.076 84.54 186.313C84.4047 186.55 84.337 186.849 84.337 187.21L84.337 187.789C84.337 188.284 84.4108 188.745 84.5584 189.174C84.7085 189.602 84.9164 189.982 85.1821 190.314C85.4478 190.644 85.7566 190.91 86.1084 191.113C86.3372 191.245 86.5439 191.328 86.7284 191.36C86.9154 191.392 87.0766 191.371 87.2119 191.299C87.3472 191.223 87.4518 191.093 87.5256 190.909L88.367 191.667C88.2784 191.946 88.1296 192.149 87.9204 192.279C87.7113 192.405 87.453 192.449 87.1454 192.411C86.8379 192.37 86.4922 192.238 86.1084 192.017ZM90.6514 190.566L90.6514 194.503L89.7804 194L89.7804 187.455L90.6219 187.941L90.6219 188.963L90.6957 189.006C90.8285 188.75 91.0303 188.6 91.3009 188.554C91.5715 188.506 91.9209 188.605 92.349 188.853C92.7328 189.074 93.0686 189.359 93.3565 189.707C93.6443 190.052 93.8682 190.454 94.0281 190.913C94.1881 191.369 94.268 191.875 94.268 192.432L94.268 196.591L93.3971 196.088L93.3971 191.997C93.3971 191.483 93.2814 191.016 93.0502 190.595C92.8189 190.172 92.5015 189.844 92.098 189.611C91.82 189.451 91.5715 189.377 91.3526 189.389C91.1361 189.404 90.9651 189.508 90.8396 189.703C90.7141 189.897 90.6514 190.185 90.6514 190.566ZM98.3247 192.388L98.3247 193.24L95.3871 191.544L95.3871 190.692L98.3247 192.388ZM96.2433 189.618L97.1143 190.121L97.1143 196.359C97.1143 196.644 97.1499 196.877 97.2213 197.06C97.2951 197.242 97.3886 197.39 97.5018 197.504C97.6174 197.616 97.7392 197.709 97.8671 197.783C97.9631 197.838 98.0418 197.878 98.1033 197.902C98.1648 197.923 98.214 197.94 98.2509 197.953L98.4281 198.959C98.369 198.95 98.2866 198.928 98.1808 198.893C98.075 198.86 97.9409 198.797 97.7786 198.703C97.5325 198.561 97.2914 198.361 97.0552 198.102C96.8215 197.845 96.6271 197.547 96.4721 197.207C96.3196 196.869 96.2433 196.51 96.2433 196.129L96.2433 189.618ZM104.698 202.732C104.201 202.445 103.773 202.093 103.414 201.676C103.055 201.258 102.778 200.81 102.584 200.331C102.389 199.852 102.292 199.377 102.292 198.906C102.292 198.542 102.358 198.258 102.491 198.053C102.627 197.847 102.812 197.692 103.049 197.587C103.287 197.48 103.561 197.394 103.871 197.329L104.964 197.022C105.178 196.984 105.349 196.909 105.477 196.798C105.607 196.689 105.672 196.485 105.672 196.187C105.672 195.965 105.588 195.702 105.418 195.396C105.25 195.092 105.03 194.862 104.757 194.704C104.565 194.593 104.396 194.552 104.248 194.58C104.103 194.607 103.988 194.683 103.905 194.808C103.824 194.932 103.783 195.085 103.783 195.266C103.783 195.471 103.831 195.706 103.927 195.972C104.025 196.236 104.15 196.521 104.3 196.826C104.452 197.13 104.61 197.443 104.772 197.764L108.241 204.658L107.193 204.053L104.329 198.411C104.063 197.889 103.822 197.414 103.606 196.988C103.389 196.562 103.217 196.166 103.089 195.799C102.961 195.433 102.897 195.079 102.897 194.738C102.897 194.346 102.972 194.046 103.122 193.837C103.275 193.627 103.488 193.518 103.761 193.511C104.036 193.502 104.359 193.604 104.728 193.818C105.107 194.036 105.433 194.31 105.706 194.638C105.979 194.963 106.189 195.308 106.337 195.671C106.484 196.032 106.558 196.374 106.558 196.698C106.558 197.116 106.468 197.426 106.289 197.629C106.109 197.832 105.864 197.977 105.554 198.062L104.049 198.488C103.709 198.582 103.479 198.73 103.359 198.933C103.238 199.136 103.178 199.298 103.178 199.417C103.178 199.69 103.239 199.979 103.362 200.286C103.485 200.593 103.659 200.884 103.883 201.158C104.106 201.432 104.368 201.656 104.669 201.829C104.954 201.994 105.232 202.085 105.503 202.102C105.773 202.116 106.018 202.053 106.237 201.912C106.458 201.773 106.633 201.553 106.761 201.252C106.892 200.952 106.957 200.568 106.957 200.099L107.798 200.585C107.798 201.164 107.74 201.604 107.625 201.903C107.509 202.203 107.379 202.415 107.233 202.538C107.088 202.662 106.971 202.749 106.883 202.801C106.853 202.826 106.826 202.853 106.802 202.881C106.777 202.91 106.75 202.937 106.721 202.962C106.477 203.137 106.169 203.195 105.798 203.137C105.426 203.076 105.06 202.941 104.698 202.732ZM116.379 202.812C116.335 202.354 116.155 201.915 115.841 201.495C115.526 201.074 115.139 200.732 114.682 200.468C114.347 200.275 114.054 200.168 113.803 200.148C113.555 200.13 113.361 200.19 113.22 200.327C113.083 200.467 113.014 200.675 113.014 200.954C113.014 201.187 113.062 201.415 113.158 201.638C113.256 201.859 113.381 202.07 113.534 202.268C113.687 202.464 113.846 202.646 114.014 202.814C114.181 202.979 114.335 203.123 114.475 203.246L115.243 203.928C115.44 204.101 115.658 204.31 115.9 204.555C116.143 204.8 116.376 205.078 116.597 205.388C116.821 205.696 117.005 206.033 117.151 206.398C117.296 206.763 117.368 207.15 117.368 207.559C117.368 208.03 117.261 208.395 117.047 208.652C116.836 208.91 116.526 209.034 116.117 209.023C115.711 209.013 115.218 208.84 114.637 208.505C114.096 208.192 113.627 207.821 113.231 207.391C112.838 206.962 112.528 206.501 112.301 206.01C112.078 205.52 111.951 205.028 111.921 204.533L112.866 205.079C112.891 205.422 112.987 205.751 113.154 206.063C113.324 206.374 113.538 206.657 113.796 206.911C114.057 207.164 114.337 207.377 114.637 207.55C114.987 207.752 115.301 207.868 115.579 207.898C115.857 207.925 116.077 207.867 116.239 207.725C116.401 207.58 116.483 207.349 116.483 207.03C116.483 206.741 116.413 206.464 116.272 206.202C116.132 205.939 115.948 205.685 115.719 205.439C115.49 205.193 115.243 204.951 114.977 204.712L114.047 203.869C113.457 203.332 112.989 202.782 112.645 202.219C112.3 201.657 112.128 201.082 112.128 200.494C112.128 200.005 112.242 199.645 112.471 199.413C112.702 199.18 113.012 199.075 113.401 199.098C113.792 199.119 114.229 199.269 114.711 199.547C115.198 199.829 115.631 200.18 116.01 200.6C116.389 201.018 116.689 201.464 116.911 201.938C117.135 202.414 117.253 202.876 117.265 203.323L116.379 202.812ZM122.327 210.115L122.327 206.246L123.198 206.749L123.198 213.294L122.327 212.791L122.327 211.683L122.268 211.649C122.136 211.905 121.929 212.068 121.648 212.139C121.368 212.207 121.014 212.118 120.586 211.871C120.231 211.666 119.916 211.395 119.641 211.057C119.365 210.716 119.149 210.318 118.991 209.864C118.834 209.406 118.755 208.899 118.755 208.342L118.755 204.183L119.626 204.686L119.626 208.777C119.626 209.254 119.742 209.702 119.973 210.119C120.207 210.538 120.504 210.852 120.866 211.061C121.083 211.186 121.303 211.249 121.527 211.251C121.753 211.254 121.942 211.167 122.095 210.991C122.25 210.816 122.327 210.524 122.327 210.115ZM124.794 216.67L124.794 207.67L125.635 208.155L125.635 209.195L125.738 209.255C125.802 209.178 125.891 209.084 126.004 208.974C126.12 208.861 126.285 208.797 126.499 208.782C126.715 208.765 127.008 208.863 127.377 209.076C127.854 209.351 128.275 209.732 128.639 210.218C129.003 210.704 129.287 211.258 129.492 211.882C129.696 212.506 129.798 213.161 129.798 213.849C129.798 214.542 129.696 215.084 129.492 215.474C129.287 215.862 129.004 216.091 128.643 216.16C128.281 216.227 127.864 216.124 127.392 215.851C127.028 215.641 126.736 215.403 126.517 215.138C126.298 214.869 126.13 214.611 126.011 214.364C125.893 214.114 125.802 213.911 125.738 213.755L125.665 213.712L125.665 217.172L124.794 216.67ZM125.65 211.437C125.65 211.931 125.712 212.403 125.838 212.854C125.963 213.301 126.147 213.701 126.388 214.053C126.629 214.403 126.924 214.678 127.274 214.88C127.638 215.09 127.942 215.155 128.185 215.074C128.431 214.991 128.616 214.797 128.739 214.49C128.864 214.182 128.927 213.795 128.927 213.329C128.927 212.869 128.865 212.418 128.742 211.978C128.622 211.536 128.438 211.136 128.192 210.778C127.949 210.419 127.643 210.133 127.274 209.92C126.919 209.715 126.622 209.647 126.38 209.715C126.139 209.78 125.957 209.962 125.834 210.261C125.711 210.556 125.65 210.948 125.65 211.437ZM131.126 220.326L131.126 211.326L131.968 211.812L131.968 212.851L132.071 212.911C132.135 212.834 132.224 212.741 132.337 212.63C132.452 212.518 132.617 212.454 132.831 212.438C133.048 212.421 133.341 212.519 133.71 212.732C134.187 213.008 134.608 213.388 134.972 213.874C135.336 214.36 135.62 214.915 135.824 215.538C136.029 216.162 136.131 216.817 136.131 217.505C136.131 218.198 136.029 218.74 135.824 219.131C135.62 219.518 135.337 219.747 134.976 219.817C134.614 219.883 134.197 219.78 133.724 219.508C133.36 219.297 133.069 219.06 132.85 218.794C132.631 218.525 132.462 218.268 132.344 218.021C132.226 217.771 132.135 217.567 132.071 217.411L131.997 217.369L131.997 220.829L131.126 220.326ZM131.983 215.093C131.983 215.587 132.045 216.06 132.171 216.51C132.296 216.957 132.48 217.357 132.721 217.709C132.962 218.059 133.257 218.334 133.606 218.536C133.97 218.746 134.274 218.811 134.518 218.73C134.764 218.648 134.948 218.453 135.071 218.146C135.197 217.838 135.26 217.451 135.26 216.985C135.26 216.525 135.198 216.074 135.075 215.634C134.955 215.192 134.771 214.793 134.525 214.435C134.282 214.075 133.975 213.789 133.606 213.576C133.252 213.371 132.954 213.303 132.713 213.371C132.472 213.437 132.29 213.619 132.167 213.917C132.044 214.212 131.983 214.604 131.983 215.093ZM138.33 213.303L138.33 222.03L137.459 221.528L137.459 212.8L138.33 213.303ZM139.925 222.951L139.925 216.406L140.796 216.909L140.796 223.454L139.925 222.951ZM140.368 215.571C140.198 215.473 140.052 215.321 139.929 215.117C139.808 214.914 139.748 214.718 139.748 214.531C139.748 214.343 139.808 214.218 139.929 214.154C140.052 214.091 140.198 214.109 140.368 214.207C140.538 214.305 140.683 214.456 140.804 214.659C140.927 214.863 140.988 215.059 140.988 215.247C140.988 215.434 140.927 215.559 140.804 215.622C140.683 215.686 140.538 215.669 140.368 215.571ZM144.768 225.884C144.222 225.568 143.751 225.157 143.355 224.65C142.961 224.142 142.657 223.574 142.443 222.948C142.232 222.32 142.126 221.671 142.126 221C142.126 220.33 142.232 219.8 142.443 219.411C142.657 219.02 142.955 218.791 143.336 218.725C143.72 218.657 144.168 218.77 144.68 219.066C144.975 219.236 145.266 219.461 145.554 219.741C145.842 220.021 146.104 220.357 146.34 220.749C146.576 221.138 146.765 221.582 146.905 222.081C147.045 222.579 147.115 223.134 147.115 223.745L147.115 224.171L142.746 221.648L142.746 220.779L146.23 222.79C146.23 222.421 146.166 222.054 146.038 221.691C145.912 221.328 145.733 220.996 145.499 220.693C145.268 220.392 144.994 220.151 144.68 219.969C144.333 219.769 144.032 219.695 143.779 219.747C143.528 219.799 143.335 219.943 143.2 220.18C143.064 220.417 142.997 220.716 142.997 221.077L142.997 221.657C142.997 222.151 143.071 222.612 143.218 223.041C143.368 223.469 143.576 223.849 143.842 224.181C144.108 224.511 144.416 224.777 144.768 224.98C144.997 225.112 145.204 225.195 145.388 225.228C145.575 225.259 145.736 225.238 145.872 225.166C146.007 225.09 146.111 224.96 146.185 224.776L147.027 225.534C146.938 225.813 146.789 226.017 146.58 226.146C146.371 226.272 146.113 226.316 145.805 226.278C145.498 226.237 145.152 226.105 144.768 225.884ZM148.44 227.867L148.44 221.322L149.282 221.808L149.282 222.796L149.341 222.831C149.444 222.566 149.631 222.411 149.902 222.366C150.172 222.321 150.477 222.396 150.817 222.592C150.881 222.629 150.961 222.676 151.057 222.735C151.153 222.793 151.225 222.839 151.274 222.873L151.274 223.896C151.245 223.87 151.177 223.818 151.071 223.74C150.968 223.661 150.859 223.588 150.743 223.521C150.467 223.362 150.221 223.286 150.005 223.295C149.791 223.302 149.621 223.386 149.496 223.546C149.373 223.706 149.311 223.933 149.311 224.228L149.311 228.37L148.44 227.867ZM156.322 227.339L155.54 227.142C155.49 226.964 155.418 226.775 155.322 226.578C155.228 226.379 155.1 226.186 154.938 225.998C154.776 225.811 154.568 225.644 154.314 225.498C153.967 225.297 153.678 225.223 153.447 225.274C153.218 225.324 153.104 225.489 153.104 225.77C153.104 226.02 153.183 226.263 153.34 226.499C153.498 226.735 153.744 226.998 154.078 227.287L154.92 228.012C155.426 228.446 155.804 228.882 156.053 229.318C156.301 229.751 156.425 230.196 156.425 230.654C156.425 231.029 156.332 231.31 156.145 231.498C155.96 231.687 155.702 231.77 155.37 231.749C155.038 231.728 154.651 231.59 154.211 231.336C153.633 231.002 153.154 230.581 152.775 230.072C152.397 229.564 152.157 229.002 152.056 228.387L152.882 228.625C152.961 229.023 153.11 229.373 153.329 229.676C153.55 229.98 153.84 230.235 154.196 230.441C154.602 230.675 154.925 230.762 155.163 230.701C155.404 230.638 155.525 230.466 155.525 230.185C155.525 229.958 155.456 229.728 155.318 229.495C155.18 229.259 154.969 229.02 154.683 228.779L153.739 227.978C153.22 227.536 152.838 227.096 152.595 226.657C152.354 226.216 152.233 225.77 152.233 225.319C152.233 224.949 152.323 224.674 152.502 224.494C152.684 224.315 152.932 224.235 153.244 224.253C153.559 224.273 153.916 224.398 154.314 224.628C154.875 224.952 155.316 225.348 155.636 225.817C155.958 226.287 156.187 226.794 156.322 227.339Z" fill="white"/>
<defs>
<filter id="filter0_d_1421_3858" x="0.000782013" y="585.442" width="460.87" height="195.801" filterUnits="userSpaceOnUse" color-interpolation-filters="sRGB">
<feFlood flood-opacity="0" result="BackgroundImageFix"/>
<feColorMatrix in="SourceAlpha" type="matrix" values="0 0 0 0 0 0 0 0 0 0 0 0 0 0 0 0 0 0 127 0" result="hardAlpha"/>
<feOffset/>
<feGaussianBlur stdDeviation="10.4"/>
<feComposite in2="hardAlpha" operator="out"/>
<feColorMatrix type="matrix" values="0 0 0 0 0 0 0 0 0 0 0 0 0 0 0 0 0 0 1 0"/>
<feBlend mode="normal" in2="BackgroundImageFix" result="effect1_dropShadow_1421_3858"/>
<feBlend mode="normal" in="SourceGraphic" in2="effect1_dropShadow_1421_3858" result="shape"/>
</filter>
<linearGradient id="paint0_linear_1421_3858" x1="21.2344" y1="621.976" x2="267.389" y2="765.182" gradientUnits="userSpaceOnUse">
<stop offset="0.0213909" stop-color="#1E1E1E"/>
<stop offset="1" stop-color="#0D0D0D"/>
</linearGradient>
<linearGradient id="paint1_linear_1421_3858" x1="21.2344" y1="518.608" x2="267.389" y2="661.814" gradientUnits="userSpaceOnUse">
<stop offset="0.0213909" stop-color="#1E1E1E"/>
<stop offset="1" stop-color="#0D0D0D"/>
</linearGradient>
<linearGradient id="paint2_linear_1421_3858" x1="-19.3084" y1="460.74" x2="421.835" y2="509.627" gradientUnits="userSpaceOnUse">
<stop offset="0.0213909" stop-color="#024925"/>
<stop offset="1" stop-color="#0D0D0D"/>
</linearGradient>
<linearGradient id="paint3_linear_1421_3858" x1="462.804" y1="378.299" x2="96.688" y2="243.165" gradientUnits="userSpaceOnUse">
<stop stop-color="#042811"/>
<stop offset="1" stop-color="#00792E"/>
</linearGradient>
<linearGradient id="paint4_linear_1421_3858" x1="21.2383" y1="243.666" x2="267.393" y2="386.871" gradientUnits="userSpaceOnUse">
<stop offset="0.0213909" stop-color="#1E1E1E"/>
<stop offset="1" stop-color="#0D0D0D"/>
</linearGradient>
<linearGradient id="paint5_linear_1421_3858" x1="21.2383" y1="144.593" x2="267.393" y2="287.799" gradientUnits="userSpaceOnUse">
<stop offset="0.0213909" stop-color="#1E1E1E"/>
<stop offset="1" stop-color="#0D0D0D"/>
</linearGradient>
</defs>
</svg>
