<svg width="461" height="783" viewBox="0 0 461 783" fill="none" xmlns="http://www.w3.org/2000/svg">
<g filter="url(#filter0_d_1421_3859)">
<path d="M21.3008 641.074L21.6721 608.197L214.454 720.554C225.027 726.716 238.095 726.721 248.672 720.568L439.573 609.51V639.507C439.573 644.923 436.653 649.919 431.934 652.577L247.35 756.529C236.619 762.572 223.503 762.531 212.811 756.421L26.3389 649.87C23.188 648.069 21.2598 644.703 21.3008 641.074Z" fill="#101010"/>
<path d="M21.3008 641.074L21.6721 608.197L214.454 720.554C225.027 726.716 238.095 726.721 248.672 720.568L439.573 609.51V639.507C439.573 644.923 436.653 649.919 431.934 652.577L247.35 756.529C236.619 762.572 223.503 762.531 212.811 756.421L26.3389 649.87C23.188 648.069 21.2598 644.703 21.3008 641.074Z" fill="url(#paint0_linear_1421_3859)"/>
<path d="M21.3008 641.074L21.6721 608.197L214.454 720.554C225.027 726.716 238.095 726.721 248.672 720.568L439.573 609.51V639.507C439.573 644.923 436.653 649.919 431.934 652.577L247.35 756.529C236.619 762.572 223.503 762.531 212.811 756.421L26.3389 649.87C23.188 648.069 21.2598 644.703 21.3008 641.074Z" stroke="#404040"/>
</g>
<path d="M247.351 488.007L436.294 596.432C442.31 599.884 442.324 608.558 436.319 612.03L249.456 720.049C238.988 726.101 226.094 726.137 215.592 720.146L25.603 611.754C19.5464 608.299 19.5503 599.566 25.61 596.116L215.592 487.953C225.441 482.346 237.521 482.366 247.351 488.007Z" fill="#131313" stroke="#404040"/>
<path d="M39.682 642.962L40.6858 643.541L41.5272 645.305L41.7486 645.774L43.0034 648.425L41.9996 647.845L41.1729 646.089L40.9663 645.646L39.682 642.962ZM43.3134 643.422C43.3134 644.342 43.1695 645.055 42.8816 645.559C42.5938 646.063 42.1989 646.352 41.697 646.426C41.1951 646.5 40.6218 646.351 39.9772 645.979C39.3326 645.606 38.7594 645.094 38.2575 644.44C37.7556 643.787 37.3607 643.042 37.0729 642.205C36.785 641.369 36.6411 640.49 36.6411 639.57C36.6411 638.649 36.785 637.937 37.0729 637.432C37.3607 636.928 37.7556 636.639 38.2575 636.565C38.7594 636.491 39.3326 636.641 39.9772 637.013C40.6218 637.385 41.1951 637.898 41.697 638.551C42.1989 639.204 42.5938 639.949 42.8816 640.786C43.1695 641.623 43.3134 642.501 43.3134 643.422ZM42.4277 642.91C42.4277 642.155 42.3182 641.454 42.0992 640.807C41.8827 640.163 41.5887 639.599 41.2172 639.118C40.8482 638.638 40.4348 638.266 39.9772 638.001C39.5196 637.737 39.1051 637.631 38.7336 637.684C38.3645 637.738 38.0705 637.962 37.8515 638.355C37.635 638.75 37.5268 639.325 37.5268 640.081C37.5268 640.837 37.635 641.537 37.8515 642.182C38.0705 642.828 38.3645 643.391 38.7336 643.871C39.1051 644.353 39.5196 644.726 39.9772 644.99C40.4348 645.254 40.8482 645.359 41.2172 645.305C41.5887 645.253 41.8827 645.029 42.0992 644.634C42.3182 644.241 42.4277 643.666 42.4277 642.91ZM48.3066 647.992L48.3066 644.123L49.1775 644.626L49.1775 651.171L48.3066 650.668L48.3066 649.56L48.2475 649.526C48.1147 649.782 47.908 649.945 47.6275 650.016C47.3471 650.084 46.9928 649.995 46.5647 649.748C46.2104 649.543 45.8955 649.272 45.6199 648.934C45.3444 648.593 45.1279 648.195 44.9704 647.741C44.813 647.283 44.7342 646.776 44.7342 646.219L44.7342 642.06L45.6052 642.563L45.6052 646.654C45.6052 647.131 45.7208 647.579 45.9521 647.996C46.1858 648.415 46.4835 648.729 46.8452 648.938C47.0617 649.063 47.2819 649.126 47.5057 649.128C47.7321 649.131 47.9215 649.044 48.0741 648.868C48.2291 648.693 48.3066 648.401 48.3066 647.992ZM52.4408 653.209C52.0816 653.001 51.7556 652.735 51.4628 652.41C51.1701 652.081 50.9376 651.718 50.7653 651.321C50.5931 650.92 50.507 650.507 50.507 650.081C50.507 649.706 50.571 649.439 50.6989 649.28C50.8268 649.118 50.9978 649.032 51.2119 649.022C51.4259 649.012 51.6621 649.049 51.9204 649.133C52.1812 649.215 52.4433 649.312 52.7065 649.424C53.051 649.572 53.3302 649.695 53.5442 649.793C53.7608 649.89 53.9182 649.934 54.0166 649.925C54.1175 649.918 54.1679 649.834 54.1679 649.672L54.1679 649.638C54.1679 649.217 54.0683 648.833 53.869 648.485C53.6722 648.138 53.3733 647.849 52.9722 647.618C52.5564 647.378 52.2304 647.294 51.9943 647.368C51.7581 647.442 51.592 647.571 51.496 647.754L50.6694 646.936C50.817 646.623 51.0138 646.427 51.2599 646.348C51.5083 646.267 51.779 646.267 52.0718 646.348C52.367 646.427 52.6573 646.549 52.9427 646.714C53.1248 646.819 53.3339 646.966 53.5701 647.153C53.8087 647.339 54.0388 647.573 54.2602 647.854C54.4841 648.137 54.6698 648.476 54.8175 648.87C54.9651 649.265 55.0389 649.723 55.0389 650.243L55.0389 654.555L54.1679 654.052L54.1679 653.166L54.1236 653.14C54.0646 653.248 53.9662 653.343 53.8284 653.426C53.6906 653.508 53.5073 653.54 53.2785 653.522C53.0497 653.503 52.7705 653.399 52.4408 653.209ZM52.5737 652.382C52.9181 652.581 53.2084 652.67 53.4446 652.65C53.6833 652.632 53.8629 652.534 53.9834 652.356C54.1064 652.18 54.1679 651.956 54.1679 651.683L54.1679 650.763C54.131 650.792 54.0498 650.792 53.9244 650.763C53.8013 650.731 53.6587 650.684 53.4963 650.622C53.3364 650.558 53.1801 650.493 53.0276 650.428C52.8775 650.361 52.7557 650.308 52.6622 650.268C52.4359 650.172 52.2243 650.105 52.0275 650.068C51.8331 650.03 51.6756 650.051 51.5551 650.132C51.437 650.211 51.378 650.379 51.378 650.635C51.378 650.984 51.4899 651.313 51.7138 651.621C51.9401 651.928 52.2268 652.182 52.5737 652.382ZM57.4995 647.248L57.4995 655.976L56.6285 655.473L56.6285 646.746L57.4995 647.248ZM59.0947 656.897L59.0947 650.351L59.9656 650.854L59.9656 657.4L59.0947 656.897ZM59.5375 649.516C59.3678 649.418 59.2214 649.267 59.0984 649.062C58.9778 648.859 58.9175 648.664 58.9175 648.476C58.9175 648.289 58.9778 648.163 59.0984 648.099C59.2214 648.037 59.3678 648.054 59.5375 648.152C59.7073 648.25 59.8525 648.401 59.973 648.604C60.096 648.809 60.1575 649.005 60.1575 649.192C60.1575 649.38 60.096 649.505 59.973 649.567C59.8525 649.631 59.7073 649.614 59.5375 649.516ZM64.026 653.198L64.026 654.051L61.0884 652.355L61.0884 651.502L64.026 653.198ZM61.9446 650.429L62.8156 650.931L62.8156 657.17C62.8156 657.454 62.8513 657.688 62.9226 657.871C62.9964 658.053 63.0899 658.201 63.2031 658.314C63.3187 658.426 63.4405 658.519 63.5684 658.593C63.6644 658.649 63.7431 658.688 63.8046 658.713C63.8661 658.734 63.9153 658.751 63.9522 658.764L64.1294 659.769C64.0703 659.761 63.9879 659.739 63.8821 659.703C63.7763 659.671 63.6422 659.608 63.4799 659.514C63.2338 659.372 62.9927 659.171 62.7565 658.913C62.5228 658.656 62.3284 658.358 62.1734 658.018C62.0209 657.68 61.9446 657.321 61.9446 656.94L61.9446 650.429ZM65.8971 663.279C65.7495 663.193 65.6179 663.103 65.5022 663.008C65.3866 662.916 65.3066 662.844 65.2623 662.793L65.4838 662.034C65.6954 662.219 65.8823 662.35 66.0447 662.426C66.2071 662.503 66.351 662.502 66.4765 662.424C66.6044 662.35 66.7213 662.178 66.8271 661.907L66.9895 661.489L64.8933 653.699L65.8381 654.245L67.4028 660.364L67.4619 660.398L69.0266 656.085L69.9714 656.631L67.5652 662.742C67.4569 663.017 67.3228 663.22 67.1629 663.349C67.003 663.481 66.8173 663.54 66.6057 663.526C66.3965 663.513 66.1604 663.431 65.8971 663.279ZM80.2437 663.107L79.3285 662.579C79.2744 662.244 79.1796 661.922 79.0443 661.614C78.9115 661.307 78.7491 661.02 78.5572 660.753C78.3677 660.484 78.1574 660.244 77.9261 660.03C77.6949 659.817 77.4537 659.638 77.2028 659.494C76.7452 659.229 76.3306 659.123 75.9591 659.176C75.5901 659.23 75.2961 659.454 75.0771 659.847C74.8606 660.242 74.7523 660.817 74.7523 661.573C74.7523 662.329 74.8606 663.029 75.0771 663.674C75.2961 664.32 75.5901 664.883 75.9591 665.364C76.3306 665.845 76.7452 666.218 77.2028 666.482C77.4537 666.627 77.6949 666.726 77.9261 666.78C78.1574 666.834 78.3677 666.838 78.5572 666.791C78.7491 666.743 78.9115 666.642 79.0443 666.489C79.1796 666.334 79.2744 666.121 79.3285 665.851L80.2437 666.38C80.1748 666.786 80.0494 667.113 79.8673 667.36C79.6852 667.607 79.4589 667.776 79.1883 667.867C78.9176 667.955 78.6138 667.966 78.2767 667.899C77.9421 667.834 77.5841 667.691 77.2028 667.471C76.5582 667.099 75.9849 666.586 75.483 665.932C74.9811 665.279 74.5863 664.534 74.2984 663.697C74.0106 662.861 73.8666 661.982 73.8666 661.062C73.8666 660.141 74.0106 659.429 74.2984 658.925C74.5863 658.42 74.9811 658.131 75.483 658.057C75.9849 657.984 76.5582 658.133 77.2028 658.505C77.5841 658.725 77.9421 658.996 78.2767 659.317C78.6138 659.639 78.9176 660.002 79.1883 660.405C79.4589 660.806 79.6852 661.235 79.8673 661.692C80.0494 662.147 80.1748 662.619 80.2437 663.107ZM83.9074 671.359C83.3957 671.063 82.9467 670.663 82.5604 670.159C82.1766 669.656 81.8764 669.09 81.6599 668.459C81.4459 667.83 81.3389 667.177 81.3389 666.501C81.3389 665.819 81.4459 665.286 81.6599 664.901C81.8764 664.517 82.1766 664.296 82.5604 664.236C82.9467 664.178 83.3957 664.296 83.9074 664.592C84.4192 664.887 84.8669 665.286 85.2507 665.789C85.637 666.293 85.9372 666.862 86.1512 667.494C86.3677 668.127 86.476 668.785 86.476 669.467C86.476 670.143 86.3677 670.671 86.1512 671.052C85.9372 671.434 85.637 671.654 85.2507 671.712C84.8669 671.772 84.4192 671.654 83.9074 671.359ZM83.9074 670.455C84.2961 670.68 84.616 670.749 84.8669 670.664C85.1179 670.579 85.3036 670.384 85.4242 670.078C85.5447 669.773 85.605 669.401 85.605 668.964C85.605 668.526 85.5447 668.084 85.4242 667.636C85.3036 667.189 85.1179 666.776 84.8669 666.399C84.616 666.021 84.2961 665.72 83.9074 665.495C83.5187 665.271 83.1989 665.203 82.9479 665.291C82.6969 665.379 82.5112 665.577 82.3906 665.885C82.2701 666.193 82.2098 666.566 82.2098 667.004C82.2098 667.441 82.2701 667.882 82.3906 668.327C82.5112 668.771 82.6969 669.181 82.9479 669.556C83.1989 669.931 83.5187 670.231 83.9074 670.455ZM88.6764 670.038L88.6764 673.976L87.8055 673.473L87.8055 666.927L88.6469 667.413L88.6469 668.436L88.7207 668.479C88.8535 668.223 89.0553 668.072 89.3259 668.027C89.5966 667.979 89.9459 668.078 90.374 668.325C90.7578 668.547 91.0936 668.832 91.3815 669.18C91.6694 669.525 91.8932 669.927 92.0532 670.386C92.2131 670.842 92.293 671.348 92.293 671.905L92.293 676.064L91.4221 675.561L91.4221 671.47C91.4221 670.956 91.3065 670.489 91.0752 670.068C90.8439 669.645 90.5265 669.317 90.1231 669.084C89.845 668.923 89.5966 668.849 89.3776 668.862C89.1611 668.876 88.9901 668.981 88.8646 669.175C88.7391 669.37 88.6764 669.658 88.6764 670.038ZM96.3498 671.861L96.3498 672.713L93.4122 671.017L93.4122 670.165L96.3498 671.861ZM94.2684 669.091L95.1393 669.593L95.1393 675.832C95.1393 676.116 95.175 676.35 95.2463 676.533C95.3201 676.715 95.4136 676.863 95.5268 676.976C95.6424 677.089 95.7642 677.182 95.8922 677.255C95.9881 677.311 96.0668 677.351 96.1283 677.375C96.1898 677.396 96.2391 677.413 96.276 677.426L96.4531 678.432C96.3941 678.423 96.3116 678.401 96.2058 678.366C96.1 678.333 95.966 678.27 95.8036 678.176C95.5575 678.034 95.3164 677.834 95.0803 677.575C94.8465 677.318 94.6522 677.02 94.4972 676.68C94.3446 676.342 94.2684 675.983 94.2684 675.602L94.2684 669.091ZM97.6599 679.162L97.6599 672.617L98.5013 673.103L98.5013 674.091L98.5603 674.125C98.6637 673.861 98.8507 673.706 99.1213 673.661C99.3919 673.616 99.697 673.691 100.037 673.887C100.1 673.924 100.18 673.971 100.276 674.03C100.372 674.088 100.445 674.134 100.494 674.168L100.494 675.191C100.465 675.165 100.397 675.113 100.291 675.035C100.188 674.956 100.078 674.883 99.9627 674.816C99.6872 674.657 99.4411 674.581 99.2246 674.59C99.0106 674.597 98.8408 674.681 98.7153 674.841C98.5923 675 98.5308 675.228 98.5308 675.523L98.5308 679.665L97.6599 679.162ZM103.657 682.761C103.145 682.466 102.696 682.066 102.31 681.562C101.926 681.059 101.626 680.492 101.409 679.861C101.195 679.232 101.088 678.579 101.088 677.903C101.088 677.221 101.195 676.688 101.409 676.303C101.626 675.919 101.926 675.698 102.31 675.638C102.696 675.58 103.145 675.699 103.657 675.994C104.169 676.29 104.616 676.689 105 677.191C105.386 677.696 105.687 678.264 105.901 678.896C106.117 679.53 106.225 680.187 106.225 680.869C106.225 681.545 106.117 682.074 105.901 682.454C105.687 682.836 105.386 683.057 105 683.115C104.616 683.174 104.169 683.057 103.657 682.761ZM103.657 681.858C104.046 682.082 104.365 682.152 104.616 682.066C104.867 681.981 105.053 681.786 105.174 681.481C105.294 681.175 105.354 680.804 105.354 680.366C105.354 679.929 105.294 679.486 105.174 679.039C105.053 678.591 104.867 678.179 104.616 677.801C104.365 677.423 104.046 677.122 103.657 676.897C103.268 676.673 102.948 676.605 102.697 676.693C102.446 676.781 102.261 676.979 102.14 677.287C102.02 677.596 101.959 677.968 101.959 678.406C101.959 678.843 102.02 679.285 102.14 679.729C102.261 680.174 102.446 680.584 102.697 680.959C102.948 681.334 103.268 681.633 103.657 681.858ZM108.426 676.651L108.426 685.378L107.555 684.875L107.555 676.148L108.426 676.651Z" fill="white"/>
<path d="M21.3047 522.538L21.676 489.66L214.458 602.018C225.031 608.18 238.099 608.185 248.676 602.031L439.577 490.973V520.97C439.577 526.387 436.657 531.382 431.938 534.04L247.354 637.992C236.623 644.035 223.507 643.994 212.815 637.885L26.3428 531.333C23.1919 529.533 21.2637 526.166 21.3047 522.538Z" fill="url(#paint1_linear_1421_3859)" stroke="#005F24"/>
<path d="M247.355 369.901L436.298 478.325C442.314 481.778 442.328 490.452 436.322 493.923L249.46 601.943C238.992 607.994 226.098 608.031 215.595 602.039L25.6069 493.648C19.5503 490.192 19.5542 481.459 25.6139 478.009L215.595 369.847C225.445 364.239 237.525 364.26 247.355 369.901Z" fill="url(#paint2_linear_1421_3859)" stroke="#005F24"/>
<path d="M37.3648 523.951L37.3648 515.224L39.9186 516.698C40.5115 517.041 40.9962 517.444 41.3727 517.909C41.7515 518.372 42.032 518.865 42.2141 519.387C42.3961 519.91 42.4872 520.429 42.4872 520.943C42.4872 521.457 42.3961 521.872 42.2141 522.187C42.0345 522.504 41.7565 522.679 41.38 522.711C41.0036 522.741 40.5214 522.586 39.9334 522.247L38.1029 521.19L38.1029 520.252L39.9039 521.292C40.3098 521.527 40.6358 521.634 40.8818 521.614C41.1279 521.594 41.3062 521.478 41.4169 521.267C41.5301 521.054 41.5867 520.772 41.5867 520.423C41.5867 520.073 41.5301 519.728 41.4169 519.387C41.3062 519.048 41.1266 518.728 40.8781 518.429C40.6296 518.126 40.3 517.856 39.8891 517.619L38.2801 516.69L38.2801 524.48L37.3648 523.951ZM43.8434 527.692L43.8434 521.146L44.6848 521.632L44.6848 522.621L44.7439 522.655C44.8472 522.391 45.0342 522.236 45.3048 522.19C45.5755 522.145 45.8805 522.22 46.2201 522.416C46.284 522.453 46.364 522.501 46.4599 522.559C46.5559 522.617 46.6285 522.663 46.6777 522.697L46.6777 523.72C46.6481 523.695 46.5805 523.643 46.4747 523.565C46.3714 523.485 46.2619 523.412 46.1462 523.345C45.8707 523.186 45.6247 523.111 45.4082 523.119C45.1941 523.126 45.0244 523.21 44.8989 523.371C44.7759 523.53 44.7144 523.757 44.7144 524.052L44.7144 528.195L43.8434 527.692ZM49.8404 531.29C49.3286 530.995 48.8796 530.595 48.4934 530.091C48.1096 529.588 47.8094 529.021 47.5929 528.391C47.3789 527.761 47.2718 527.109 47.2718 526.432C47.2718 525.751 47.3789 525.217 47.5929 524.832C47.8094 524.449 48.1096 524.227 48.4934 524.168C48.8796 524.109 49.3286 524.228 49.8404 524.523C50.3521 524.819 50.7999 525.218 51.1837 525.721C51.57 526.225 51.8701 526.793 52.0842 527.425C52.3007 528.059 52.4089 528.717 52.4089 529.398C52.4089 530.074 52.3007 530.603 52.0842 530.984C51.8701 531.366 51.57 531.586 51.1837 531.644C50.7999 531.704 50.3521 531.586 49.8404 531.29ZM49.8404 530.387C50.2291 530.611 50.549 530.681 50.7999 530.596C51.0509 530.511 51.2366 530.315 51.3572 530.01C51.4777 529.704 51.538 529.333 51.538 528.896C51.538 528.458 51.4777 528.016 51.3572 527.568C51.2366 527.121 51.0509 526.708 50.7999 526.33C50.549 525.952 50.2291 525.651 49.8404 525.427C49.4517 525.202 49.1318 525.134 48.8809 525.222C48.6299 525.31 48.4442 525.508 48.3236 525.817C48.2031 526.125 48.1428 526.498 48.1428 526.935C48.1428 527.373 48.2031 527.814 48.3236 528.258C48.4442 528.703 48.6299 529.113 48.8809 529.488C49.1318 529.863 49.4517 530.163 49.8404 530.387ZM55.8789 534.777C55.4065 534.504 54.9895 534.125 54.6278 533.641C54.2662 533.154 53.9832 532.598 53.779 531.975C53.5748 531.348 53.4727 530.689 53.4727 529.995C53.4727 529.308 53.5748 528.77 53.779 528.383C53.9832 527.995 54.2674 527.768 54.6315 527.703C54.9956 527.638 55.4163 527.743 55.8936 528.018C56.2627 528.231 56.5542 528.471 56.7683 528.736C56.9848 529 57.1496 529.255 57.2628 529.499C57.3784 529.742 57.4682 529.939 57.5322 530.089L57.606 530.132L57.606 526.91L58.477 527.413L58.477 536.14L57.6355 535.655L57.6355 534.649L57.5322 534.589C57.4682 534.672 57.3772 534.77 57.2591 534.883C57.141 534.994 56.9725 535.057 56.7535 535.073C56.5346 535.086 56.243 534.987 55.8789 534.777ZM55.997 533.941C56.3463 534.143 56.6416 534.209 56.8827 534.138C57.1238 534.064 57.3071 533.875 57.4326 533.573C57.558 533.267 57.6208 532.868 57.6208 532.373C57.6208 531.885 57.5593 531.422 57.4363 530.984C57.3132 530.544 57.1312 530.152 56.8901 529.808C56.649 529.461 56.3513 529.186 55.997 528.981C55.6279 528.768 55.3204 528.7 55.0744 528.777C54.8308 528.852 54.6475 529.04 54.5245 529.341C54.4039 529.641 54.3437 530.021 54.3437 530.481C54.3437 530.947 54.4052 531.406 54.5282 531.858C54.6537 532.308 54.8382 532.716 55.0817 533.081C55.3278 533.444 55.6329 533.731 55.997 533.941ZM63.7654 536.517L63.7654 532.648L64.6363 533.151L64.6363 539.696L63.7654 539.194L63.7654 538.086L63.7063 538.052C63.5735 538.307 63.3668 538.471 63.0863 538.542C62.8059 538.61 62.4516 538.52 62.0235 538.273C61.6692 538.069 61.3543 537.797 61.0787 537.459C60.8032 537.118 60.5867 536.721 60.4292 536.266C60.2717 535.809 60.193 535.302 60.193 534.745L60.193 530.586L61.064 531.089L61.064 535.179C61.064 535.657 61.1796 536.104 61.4109 536.522C61.6446 536.941 61.9423 537.255 62.304 537.464C62.5205 537.589 62.7407 537.652 62.9645 537.653C63.1909 537.656 63.3803 537.569 63.5329 537.393C63.6879 537.218 63.7654 536.927 63.7654 536.517ZM68.6967 535.495L68.6967 536.348L65.7591 534.652L65.7591 533.799L68.6967 535.495ZM66.6153 532.725L67.4863 533.228L67.4863 539.467C67.4863 539.751 67.5219 539.985 67.5933 540.168C67.6671 540.35 67.7606 540.497 67.8738 540.611C67.9894 540.723 68.1112 540.816 68.2391 540.89C68.3351 540.946 68.4138 540.985 68.4753 541.009C68.5368 541.031 68.586 541.048 68.6229 541.061L68.8001 542.066C68.741 542.058 68.6586 542.036 68.5528 542C68.447 541.968 68.3129 541.904 68.1505 541.811C67.9045 541.669 67.6634 541.468 67.4272 541.21C67.1935 540.953 66.9991 540.654 66.8441 540.315C66.6916 539.977 66.6153 539.617 66.6153 539.237L66.6153 532.725ZM70.0068 542.797L70.0068 536.252L70.8778 536.755L70.8778 543.3L70.0068 542.797ZM70.4497 535.416C70.2799 535.318 70.1336 535.167 70.0105 534.963C69.89 534.759 69.8297 534.564 69.8297 534.377C69.8297 534.189 69.89 534.063 70.0105 534C70.1336 533.937 70.2799 533.955 70.4497 534.053C70.6195 534.151 70.7646 534.301 70.8852 534.505C71.0082 534.709 71.0697 534.905 71.0697 535.093C71.0697 535.28 71.0082 535.405 70.8852 535.468C70.7646 535.532 70.6195 535.514 70.4497 535.416ZM74.7758 545.687C74.2641 545.391 73.8151 544.992 73.4288 544.487C73.045 543.984 72.7449 543.418 72.5283 542.787C72.3143 542.158 72.2073 541.505 72.2073 540.829C72.2073 540.147 72.3143 539.614 72.5283 539.229C72.7449 538.845 73.045 538.624 73.4288 538.564C73.8151 538.506 74.2641 538.624 74.7758 538.92C75.2876 539.215 75.7353 539.614 76.1192 540.117C76.5054 540.622 76.8056 541.19 77.0196 541.822C77.2361 542.455 77.3444 543.113 77.3444 543.795C77.3444 544.471 77.2361 544.999 77.0196 545.38C76.8056 545.762 76.5054 545.982 76.1192 546.041C75.7353 546.1 75.2876 545.982 74.7758 545.687ZM74.7758 544.783C75.1646 545.008 75.4844 545.078 75.7353 544.992C75.9863 544.907 76.172 544.712 76.2926 544.406C76.4132 544.101 76.4734 543.729 76.4734 543.292C76.4734 542.854 76.4132 542.412 76.2926 541.965C76.172 541.517 75.9863 541.104 75.7353 540.727C75.4844 540.349 75.1646 540.048 74.7758 539.823C74.3871 539.599 74.0673 539.531 73.8163 539.619C73.5654 539.707 73.3796 539.905 73.2591 540.213C73.1385 540.521 73.0782 540.894 73.0782 541.332C73.0782 541.769 73.1385 542.21 73.2591 542.655C73.3796 543.1 73.5654 543.509 73.8163 543.884C74.0673 544.259 74.3871 544.559 74.7758 544.783ZM79.5448 544.366L79.5448 548.304L78.6739 547.801L78.6739 541.256L79.5153 541.741L79.5153 542.764L79.5891 542.807C79.722 542.551 79.9237 542.4 80.1943 542.355C80.465 542.307 80.8143 542.406 81.2424 542.653C81.6262 542.875 81.9621 543.16 82.2499 543.508C82.5378 543.853 82.7617 544.255 82.9216 544.714C83.0815 545.17 83.1615 545.676 83.1615 546.233L83.1615 550.392L82.2905 549.889L82.2905 545.798C82.2905 545.284 82.1749 544.817 81.9436 544.396C81.7123 543.973 81.395 543.645 80.9915 543.412C80.7135 543.251 80.465 543.177 80.246 543.19C80.0295 543.204 79.8585 543.309 79.733 543.503C79.6075 543.698 79.5448 543.986 79.5448 544.366ZM87.7939 544.339L88.8863 544.97L91.4548 553.697L91.5434 553.748L94.1119 547.987L95.2043 548.618L95.2043 557.345L94.3481 556.851L94.3481 550.22L94.2743 550.177L91.9124 555.444L91.0858 554.967L88.7239 546.973L88.6501 546.93L88.6501 553.561L87.7939 553.066L87.7939 544.339ZM98.5894 559.453C98.2302 559.245 97.9042 558.979 97.6114 558.654C97.3186 558.326 97.0861 557.963 96.9139 557.565C96.7417 557.164 96.6556 556.751 96.6556 556.325C96.6556 555.95 96.7195 555.683 96.8475 555.524C96.9754 555.362 97.1464 555.276 97.3605 555.266C97.5745 555.256 97.8107 555.293 98.069 555.377C98.3298 555.459 98.5918 555.556 98.8551 555.669C99.1995 555.816 99.4788 555.939 99.6928 556.037C99.9093 556.134 100.067 556.178 100.165 556.169C100.266 556.162 100.317 556.078 100.317 555.916L100.317 555.882C100.317 555.461 100.217 555.077 100.018 554.729C99.8208 554.382 99.5218 554.093 99.1208 553.862C98.705 553.622 98.379 553.539 98.1428 553.612C97.9066 553.686 97.7406 553.815 97.6446 553.998L96.818 553.18C96.9656 552.867 97.1624 552.671 97.4084 552.592C97.6569 552.511 97.9276 552.511 98.2203 552.592C98.5156 552.671 98.8059 552.794 99.0913 552.958C99.2733 553.063 99.4825 553.21 99.7187 553.397C99.9573 553.583 100.187 553.817 100.409 554.098C100.633 554.381 100.818 554.72 100.966 555.115C101.114 555.509 101.187 555.967 101.187 556.487L101.187 560.799L100.317 560.296L100.317 559.41L100.272 559.384C100.213 559.492 100.115 559.588 99.977 559.67C99.8392 559.752 99.6559 559.784 99.4271 559.766C99.1983 559.747 98.9191 559.643 98.5894 559.453ZM98.7222 558.626C99.0667 558.825 99.357 558.914 99.5932 558.894C99.8318 558.876 100.011 558.778 100.132 558.6C100.255 558.424 100.317 558.2 100.317 557.927L100.317 557.007C100.28 557.036 100.198 557.036 100.073 557.007C99.9499 556.975 99.8072 556.929 99.6448 556.866C99.4849 556.802 99.3287 556.737 99.1762 556.672C99.0261 556.605 98.9043 556.552 98.8108 556.512C98.5845 556.416 98.3729 556.349 98.176 556.312C97.9817 556.274 97.8242 556.295 97.7037 556.376C97.5856 556.456 97.5265 556.623 97.5265 556.879C97.5265 557.228 97.6385 557.557 97.8624 557.865C98.0887 558.172 98.3753 558.426 98.7222 558.626ZM103.648 558.282L103.648 562.22L102.777 561.717L102.777 555.172L103.619 555.657L103.619 556.68L103.692 556.723C103.825 556.467 104.027 556.316 104.298 556.271C104.568 556.223 104.918 556.322 105.346 556.569C105.729 556.791 106.065 557.076 106.353 557.424C106.641 557.769 106.865 558.171 107.025 558.63C107.185 559.086 107.265 559.592 107.265 560.149L107.265 564.308L106.394 563.805L106.394 559.714C106.394 559.2 106.278 558.733 106.047 558.312C105.816 557.889 105.498 557.561 105.095 557.328C104.817 557.167 104.568 557.093 104.349 557.106C104.133 557.12 103.962 557.225 103.836 557.419C103.711 557.614 103.648 557.902 103.648 558.282ZM110.524 566.343C110.165 566.136 109.839 565.87 109.546 565.544C109.254 565.216 109.021 564.853 108.849 564.456C108.677 564.055 108.59 563.642 108.59 563.215C108.59 562.84 108.654 562.573 108.782 562.414C108.91 562.252 109.081 562.166 109.295 562.157C109.509 562.147 109.746 562.184 110.004 562.267C110.265 562.35 110.527 562.447 110.79 562.559C111.134 562.707 111.414 562.83 111.628 562.928C111.844 563.024 112.002 563.068 112.1 563.06C112.201 563.053 112.251 562.968 112.251 562.806L112.251 562.772C112.251 562.352 112.152 561.968 111.952 561.62C111.756 561.273 111.457 560.984 111.056 560.752C110.64 560.512 110.314 560.429 110.078 560.503C109.842 560.577 109.675 560.706 109.58 560.889L108.753 560.071C108.9 559.758 109.097 559.562 109.343 559.483C109.592 559.402 109.862 559.402 110.155 559.483C110.45 559.562 110.741 559.684 111.026 559.849C111.208 559.954 111.417 560.1 111.654 560.288C111.892 560.474 112.122 560.708 112.344 560.989C112.568 561.272 112.753 561.61 112.901 562.005C113.049 562.4 113.122 562.858 113.122 563.377L113.122 567.69L112.251 567.187L112.251 566.301L112.207 566.275C112.148 566.383 112.05 566.478 111.912 566.561C111.774 566.643 111.591 566.675 111.362 566.657C111.133 566.638 110.854 566.534 110.524 566.343ZM110.657 565.517C111.002 565.715 111.292 565.805 111.528 565.785C111.767 565.767 111.946 565.669 112.067 565.491C112.19 565.315 112.251 565.09 112.251 564.818L112.251 563.897C112.215 563.927 112.133 563.927 112.008 563.897C111.885 563.866 111.742 563.819 111.58 563.757C111.42 563.693 111.264 563.628 111.111 563.563C110.961 563.496 110.839 563.443 110.746 563.403C110.519 563.306 110.308 563.24 110.111 563.203C109.917 563.164 109.759 563.186 109.639 563.267C109.52 563.346 109.461 563.514 109.461 563.769C109.461 564.119 109.573 564.448 109.797 564.756C110.024 565.063 110.31 565.316 110.657 565.517ZM117 572.52C116.579 572.277 116.218 572.005 115.915 571.706C115.612 571.409 115.36 571.101 115.159 570.783C114.959 570.469 114.801 570.165 114.682 569.869L115.376 569.707C115.455 569.872 115.555 570.066 115.675 570.289C115.796 570.515 115.961 570.745 116.17 570.979C116.381 571.218 116.658 571.436 117 571.633C117.458 571.897 117.835 571.988 118.133 571.904C118.431 571.82 118.58 571.505 118.58 570.96L118.58 569.63L118.506 569.588C118.442 569.67 118.351 569.765 118.233 569.873C118.117 569.98 117.95 570.038 117.731 570.048C117.514 570.057 117.222 569.954 116.852 569.741C116.395 569.477 115.984 569.115 115.62 568.655C115.258 568.196 114.972 567.667 114.76 567.067C114.551 566.469 114.446 565.829 114.446 565.147C114.446 564.477 114.548 563.952 114.753 563.573C114.957 563.191 115.241 562.968 115.605 562.906C115.969 562.841 116.39 562.946 116.867 563.221C117.236 563.434 117.529 563.674 117.746 563.941C117.965 564.207 118.132 564.463 118.247 564.709C118.366 564.953 118.457 565.15 118.521 565.301L118.609 565.352L118.609 564.312L119.451 564.798L119.451 571.531C119.451 572.093 119.34 572.487 119.118 572.711C118.899 572.94 118.604 573.03 118.233 572.98C117.864 572.934 117.453 572.781 117 572.52ZM116.971 568.906C117.32 569.108 117.615 569.186 117.856 569.14C118.097 569.095 118.281 568.935 118.406 568.661C118.532 568.387 118.594 568.008 118.594 567.525C118.594 567.054 118.533 566.602 118.41 566.17C118.287 565.738 118.105 565.351 117.864 565.007C117.623 564.663 117.325 564.389 116.971 564.184C116.602 563.971 116.294 563.902 116.048 563.976C115.804 564.051 115.621 564.235 115.498 564.527C115.378 564.821 115.317 565.19 115.317 565.633C115.317 566.088 115.379 566.525 115.502 566.946C115.627 567.365 115.812 567.744 116.055 568.084C116.301 568.422 116.606 568.696 116.971 568.906ZM123.421 573.772C122.875 573.457 122.404 573.046 122.008 572.539C121.614 572.03 121.311 571.463 121.096 570.836C120.885 570.209 120.779 569.559 120.779 568.889C120.779 568.218 120.885 567.689 121.096 567.299C121.311 566.909 121.608 566.68 121.99 566.613C122.373 566.545 122.821 566.659 123.333 566.954C123.628 567.125 123.92 567.35 124.208 567.63C124.495 567.91 124.757 568.245 124.994 568.638C125.23 569.027 125.418 569.471 125.558 569.969C125.698 570.468 125.769 571.022 125.769 571.633L125.769 572.059L121.399 569.537L121.399 568.667L124.883 570.679C124.883 570.309 124.819 569.943 124.691 569.579C124.566 569.217 124.386 568.885 124.152 568.582C123.921 568.281 123.648 568.04 123.333 567.858C122.986 567.657 122.686 567.584 122.432 567.636C122.181 567.687 121.988 567.831 121.853 568.069C121.718 568.306 121.65 568.605 121.65 568.966L121.65 569.545C121.65 570.04 121.724 570.501 121.871 570.93C122.022 571.358 122.229 571.738 122.495 572.07C122.761 572.4 123.07 572.666 123.421 572.869C123.65 573.001 123.857 573.084 124.041 573.116C124.228 573.147 124.39 573.127 124.525 573.054C124.66 572.979 124.765 572.849 124.839 572.665L125.68 573.423C125.591 573.701 125.443 573.905 125.233 574.035C125.024 574.161 124.766 574.205 124.458 574.167C124.151 574.125 123.805 573.994 123.421 573.772ZM127.093 575.756L127.093 569.211L127.935 569.696L127.935 570.719L128.009 570.762C128.127 570.481 128.317 570.319 128.581 570.278C128.844 570.234 129.16 570.319 129.529 570.532C129.903 570.748 130.214 571.025 130.463 571.365C130.714 571.703 130.909 572.087 131.05 572.517L131.109 572.552C131.254 572.297 131.472 572.155 131.762 572.123C132.052 572.089 132.4 572.189 132.806 572.424C133.313 572.716 133.728 573.139 134.05 573.691C134.372 574.241 134.533 574.901 134.533 575.671L134.533 580.052L133.662 579.549L133.662 575.168C133.662 574.685 133.548 574.274 133.319 573.934C133.09 573.595 132.821 573.336 132.511 573.157C132.112 572.927 131.804 572.888 131.585 573.04C131.366 573.189 131.256 573.475 131.256 573.898L131.256 578.16L130.371 577.648L130.371 573.165C130.371 572.793 130.266 572.433 130.057 572.085C129.848 571.734 129.578 571.464 129.249 571.273C129.022 571.142 128.811 571.09 128.614 571.116C128.42 571.142 128.262 571.245 128.142 571.422C128.023 571.598 127.964 571.847 127.964 572.168L127.964 576.259L127.093 575.756ZM138.503 582.479C137.956 582.164 137.485 581.753 137.089 581.246C136.695 580.737 136.392 580.17 136.178 579.543C135.966 578.916 135.86 578.266 135.86 577.596C135.86 576.926 135.966 576.396 136.178 576.006C136.392 575.616 136.689 575.387 137.071 575.32C137.454 575.252 137.902 575.366 138.414 575.661C138.709 575.832 139.001 576.057 139.289 576.337C139.576 576.617 139.838 576.953 140.075 577.345C140.311 577.734 140.499 578.178 140.639 578.676C140.78 579.175 140.85 579.729 140.85 580.34L140.85 580.766L136.48 578.244L136.48 577.374L139.964 579.386C139.964 579.016 139.9 578.65 139.772 578.286C139.647 577.924 139.467 577.592 139.233 577.289C139.002 576.988 138.729 576.747 138.414 576.565C138.067 576.364 137.767 576.291 137.513 576.343C137.263 576.394 137.069 576.538 136.934 576.776C136.799 577.013 136.731 577.312 136.731 577.673L136.731 578.252C136.731 578.747 136.805 579.208 136.953 579.637C137.103 580.065 137.31 580.445 137.576 580.777C137.842 581.107 138.151 581.373 138.503 581.576C138.731 581.708 138.938 581.791 139.122 581.823C139.309 581.854 139.471 581.834 139.606 581.761C139.741 581.686 139.846 581.556 139.92 581.372L140.761 582.13C140.672 582.408 140.524 582.612 140.315 582.742C140.105 582.868 139.847 582.912 139.54 582.874C139.232 582.832 138.886 582.701 138.503 582.479ZM143.045 581.028L143.045 584.966L142.174 584.463L142.174 577.918L143.016 578.403L143.016 579.426L143.09 579.469C143.223 579.213 143.424 579.063 143.695 579.017C143.966 578.969 144.315 579.068 144.743 579.315C145.127 579.537 145.463 579.822 145.751 580.17C146.038 580.515 146.262 580.917 146.422 581.376C146.582 581.832 146.662 582.338 146.662 582.895L146.662 587.054L145.791 586.551L145.791 582.46C145.791 581.946 145.676 581.479 145.444 581.058C145.213 580.635 144.896 580.307 144.492 580.074C144.214 579.913 143.966 579.84 143.747 579.852C143.53 579.867 143.359 579.971 143.234 580.166C143.108 580.36 143.045 580.648 143.045 581.028ZM150.719 582.851L150.719 583.703L147.781 582.007L147.781 581.155L150.719 582.851ZM148.637 580.081L149.508 580.584L149.508 586.822C149.508 587.106 149.544 587.34 149.615 587.523C149.689 587.705 149.783 587.853 149.896 587.967C150.011 588.079 150.133 588.172 150.261 588.246C150.357 588.301 150.436 588.341 150.497 588.365C150.559 588.386 150.608 588.403 150.645 588.416L150.822 589.422C150.763 589.413 150.681 589.391 150.575 589.356C150.469 589.323 150.335 589.26 150.173 589.166C149.927 589.024 149.685 588.824 149.449 588.565C149.216 588.308 149.021 588.01 148.866 587.67C148.714 587.332 148.637 586.973 148.637 586.592L148.637 580.081Z" fill="white"/>
<g opacity="0.5">
<path d="M203.063 507.382C202.378 507.778 201.448 508 200.479 508C199.509 508 198.58 507.778 197.894 507.382L188.849 502.16C188.164 501.764 187.779 501.227 187.779 500.668C187.779 500.108 188.164 499.571 188.849 499.176C189.535 498.78 190.464 498.558 191.433 498.558C192.403 498.558 193.332 498.78 194.018 499.176L203.063 504.398C203.748 504.794 204.133 505.33 204.133 505.89C204.133 506.45 203.748 506.986 203.063 507.382ZM225.03 517.08L215.985 511.858C215.299 511.462 214.369 511.24 213.4 511.24C212.431 511.24 211.501 511.462 210.816 511.858C210.13 512.254 209.745 512.791 209.745 513.35C209.745 513.91 210.13 514.447 210.816 514.842L219.861 520.064C220.546 520.46 221.476 520.683 222.445 520.683C223.415 520.683 224.344 520.46 225.03 520.064C225.715 519.669 226.1 519.132 226.1 518.572C226.1 518.013 225.715 517.476 225.03 517.08ZM230.198 537.969C229.513 538.365 228.583 538.587 227.614 538.587C226.645 538.587 225.715 538.365 225.03 537.969L157.837 499.176C157.152 498.78 156.767 498.243 156.767 497.684C156.767 497.124 157.152 496.587 157.837 496.192C158.523 495.796 159.452 495.574 160.422 495.574C161.391 495.574 162.321 495.796 163.006 496.192L165.59 497.684L204.355 475.303C204.835 475.026 205.439 474.831 206.1 474.741C206.76 474.651 207.451 474.669 208.095 474.793C208.739 474.917 209.31 475.142 209.745 475.443C210.18 475.744 210.461 476.108 210.557 476.496L214.692 493.207L225.03 487.239C225.51 486.962 226.114 486.768 226.774 486.678C227.435 486.588 228.126 486.606 228.77 486.729C229.414 486.853 229.985 487.078 230.42 487.379C230.855 487.68 231.136 488.045 231.232 488.433L234.362 501.076L264.234 488.142C265.644 487.536 267.384 487.243 269.137 487.315C270.891 487.387 272.541 487.819 273.789 488.534L279.643 491.913C280.88 492.634 281.629 493.587 281.754 494.599C281.878 495.611 281.37 496.616 280.321 497.43L251.206 519.835C251.206 519.835 250.979 519.995 250.866 520.061L227.607 533.489L230.192 534.981C230.533 535.177 230.803 535.41 230.988 535.666C231.173 535.922 231.268 536.197 231.269 536.474C231.269 536.752 231.175 537.027 230.991 537.283C230.808 537.54 230.538 537.773 230.198 537.969ZM235.541 505.841L236.229 508.626L247.894 515.361L274.474 494.897L268.621 491.518L235.541 505.841ZM170.759 500.668L222.445 530.509L243.12 518.572L230.198 511.112C229.639 510.789 229.276 510.37 229.165 509.918L228.002 505.219L225.03 493.207L214.692 499.176C214.212 499.453 213.608 499.647 212.948 499.737C212.287 499.827 211.596 499.809 210.952 499.685C210.308 499.562 209.737 499.337 209.302 499.036C208.867 498.735 208.586 498.37 208.49 497.982L204.355 481.271L170.759 500.668Z" fill="white"/>
</g>
<path d="M21.3047 361.055L21.676 328.177L214.458 440.535C225.031 446.697 238.099 446.702 248.676 440.549L439.577 329.49V359.488C439.577 364.904 436.657 369.9 431.938 372.557L247.354 476.509C236.623 482.552 223.507 482.511 212.815 476.402L26.3428 369.85C23.1919 368.05 21.2637 364.684 21.3047 361.055Z" fill="#101010"/>
<path d="M21.3047 361.055L21.676 328.177L214.458 440.535C225.031 446.697 238.099 446.702 248.676 440.549L439.577 329.49V359.488C439.577 364.904 436.657 369.9 431.938 372.557L247.354 476.509C236.623 482.552 223.507 482.511 212.815 476.402L26.3428 369.85C23.1919 368.05 21.2637 364.684 21.3047 361.055Z" fill="url(#paint3_linear_1421_3859)"/>
<path d="M21.3047 361.055L21.676 328.177L214.458 440.535C225.031 446.697 238.099 446.702 248.676 440.549L439.577 329.49V359.488C439.577 364.904 436.657 369.9 431.938 372.557L247.354 476.509C236.623 482.552 223.507 482.511 212.815 476.402L26.3428 369.85C23.1919 368.05 21.2637 364.684 21.3047 361.055Z" stroke="#404040"/>
<path d="M247.355 207.988L436.298 316.412C442.314 319.865 442.328 328.539 436.322 332.01L249.46 440.03C238.992 446.081 226.098 446.118 215.595 440.126L25.6069 331.735C19.5503 328.279 19.5542 319.546 25.6139 316.096L215.595 207.933C225.445 202.326 237.525 202.347 247.355 207.988Z" fill="#131313" stroke="#404040"/>
<path d="M37.0547 354.366L38.1471 354.997L40.7156 363.724L40.8042 363.775L43.3728 358.014L44.4651 358.644L44.4651 367.372L43.6089 366.877L43.6089 360.247L43.5351 360.204L41.1732 365.471L40.3466 364.994L37.9847 357L37.9109 356.957L37.9109 363.588L37.0547 363.093L37.0547 354.366ZM47.8502 369.48C47.491 369.272 47.165 369.006 46.8722 368.681C46.5794 368.352 46.3469 367.989 46.1747 367.592C46.0025 367.191 45.9164 366.778 45.9164 366.352C45.9164 365.977 45.9804 365.71 46.1083 365.551C46.2362 365.389 46.4072 365.303 46.6213 365.293C46.8353 365.283 47.0715 365.32 47.3298 365.404C47.5906 365.486 47.8527 365.583 48.1159 365.695C48.4603 365.843 48.7396 365.966 48.9536 366.064C49.1701 366.161 49.3276 366.205 49.426 366.196C49.5269 366.189 49.5773 366.105 49.5773 365.943L49.5773 365.909C49.5773 365.488 49.4777 365.104 49.2784 364.756C49.0816 364.409 48.7826 364.12 48.3816 363.889C47.9658 363.649 47.6398 363.565 47.4036 363.639C47.1675 363.713 47.0014 363.842 46.9054 364.025L46.0788 363.207C46.2264 362.894 46.4232 362.698 46.6692 362.619C46.9177 362.538 47.1884 362.538 47.4811 362.619C47.7764 362.698 48.0667 362.82 48.3521 362.985C48.5342 363.09 48.7433 363.237 48.9795 363.424C49.2181 363.61 49.4482 363.844 49.6696 364.125C49.8935 364.408 50.0792 364.747 50.2268 365.141C50.3745 365.536 50.4483 365.994 50.4483 366.514L50.4483 370.826L49.5773 370.323L49.5773 369.437L49.533 369.411C49.474 369.519 49.3756 369.614 49.2378 369.697C49.1 369.779 48.9167 369.811 48.6879 369.793C48.4591 369.774 48.1799 369.67 47.8502 369.48ZM47.983 368.653C48.3275 368.852 48.6178 368.941 48.854 368.921C49.0926 368.903 49.2722 368.805 49.3928 368.627C49.5158 368.451 49.5773 368.227 49.5773 367.954L49.5773 367.034C49.5404 367.063 49.4592 367.063 49.3338 367.034C49.2107 367.002 49.068 366.955 48.9057 366.893C48.7457 366.829 48.5895 366.764 48.437 366.699C48.2869 366.632 48.1651 366.579 48.0716 366.539C47.8453 366.443 47.6337 366.376 47.4369 366.339C47.2425 366.301 47.085 366.322 46.9645 366.403C46.8464 366.482 46.7873 366.65 46.7873 366.906C46.7873 367.255 46.8993 367.584 47.1232 367.892C47.3495 368.199 47.6361 368.453 47.983 368.653ZM54.3408 373.21C53.8093 372.903 53.3517 372.494 52.9679 371.983C52.5841 371.471 52.2889 370.902 52.0822 370.274C51.8755 369.646 51.7722 369.005 51.7722 368.352C51.7722 367.687 51.878 367.162 52.0896 366.775C52.3036 366.387 52.6013 366.16 52.9827 366.093C53.3665 366.025 53.8143 366.139 54.326 366.434C54.7246 366.664 55.0838 366.957 55.4036 367.312C55.7235 367.667 55.9855 368.057 56.1897 368.482C56.3939 368.907 56.5206 369.338 56.5698 369.775L55.6989 369.272C55.6324 368.936 55.4848 368.586 55.256 368.224C55.0297 367.86 54.7246 367.568 54.3408 367.346C54.0012 367.15 53.7036 367.081 53.4477 367.137C53.1943 367.193 52.9962 367.364 52.8535 367.651C52.7133 367.936 52.6432 368.326 52.6432 368.821C52.6432 369.326 52.7121 369.806 52.8498 370.261C52.9901 370.717 53.1869 371.122 53.4403 371.475C53.6962 371.831 53.9963 372.108 54.3408 372.306C54.5671 372.437 54.7726 372.51 54.9571 372.526C55.1416 372.542 55.2978 372.501 55.4258 372.404C55.5537 372.308 55.6447 372.156 55.6989 371.948L56.5698 372.451C56.5206 372.809 56.3988 373.087 56.2044 373.284C56.0125 373.48 55.7579 373.578 55.4405 373.576C55.1256 373.573 54.759 373.451 54.3408 373.21ZM58.714 371.661L58.714 375.598L57.843 375.095L57.843 366.368L58.714 366.871L58.714 370.076L58.7878 370.118C58.9206 369.857 59.1199 369.703 59.3856 369.658C59.6538 369.611 60.0105 369.716 60.4558 369.973C60.8421 370.196 61.1804 370.481 61.4707 370.828C61.761 371.171 61.9861 371.573 62.1461 372.032C62.3084 372.489 62.3896 372.999 62.3896 373.561L62.3896 377.72L61.5187 377.218L61.5187 373.127C61.5187 372.607 61.4018 372.137 61.1681 371.718C60.9368 371.298 60.6158 370.969 60.2049 370.732C59.9195 370.567 59.6636 370.489 59.4373 370.497C59.2134 370.507 59.0363 370.608 58.9059 370.8C58.7779 370.993 58.714 371.28 58.714 371.661ZM63.983 378.64L63.983 372.095L64.8539 372.598L64.8539 379.143L63.983 378.64ZM64.4258 371.26C64.2561 371.162 64.1097 371.01 63.9867 370.806C63.8661 370.603 63.8058 370.407 63.8058 370.22C63.8058 370.032 63.8661 369.907 63.9867 369.843C64.1097 369.78 64.2561 369.798 64.4258 369.896C64.5956 369.994 64.7408 370.145 64.8613 370.348C64.9843 370.552 65.0458 370.748 65.0458 370.936C65.0458 371.123 64.9843 371.248 64.8613 371.311C64.7408 371.375 64.5956 371.358 64.4258 371.26ZM67.3201 376.63L67.3201 380.567L66.4491 380.064L66.4491 373.519L67.2906 374.005L67.2906 375.027L67.3644 375.07C67.4972 374.814 67.699 374.664 67.9696 374.618C68.2402 374.57 68.5896 374.669 69.0177 374.917C69.4015 375.138 69.7373 375.423 70.0252 375.771C70.313 376.116 70.5369 376.518 70.6968 376.977C70.8568 377.433 70.9367 377.939 70.9367 378.496L70.9367 382.655L70.0658 382.152L70.0658 378.061C70.0658 377.547 69.9501 377.08 69.7189 376.659C69.4876 376.236 69.1702 375.908 68.7667 375.675C68.4887 375.515 68.2402 375.441 68.0213 375.453C67.8048 375.468 67.6338 375.572 67.5083 375.767C67.3828 375.961 67.3201 376.249 67.3201 376.63ZM74.9049 385.083C74.3587 384.767 73.8875 384.356 73.4914 383.849C73.0978 383.34 72.7939 382.773 72.5799 382.146C72.3683 381.519 72.2625 380.869 72.2625 380.199C72.2625 379.529 72.3683 378.999 72.5799 378.61C72.7939 378.219 73.0916 377.99 73.473 377.923C73.8568 377.855 74.3046 377.969 74.8163 378.264C75.1115 378.435 75.4031 378.66 75.6909 378.94C75.9788 379.22 76.2408 379.556 76.477 379.948C76.7132 380.337 76.9014 380.781 77.0416 381.279C77.1819 381.778 77.252 382.333 77.252 382.943L77.252 383.369L72.8825 380.847L72.8825 379.977L76.3663 381.989C76.3663 381.619 76.3023 381.253 76.1744 380.889C76.0489 380.527 75.8693 380.195 75.6356 379.892C75.4043 379.591 75.1312 379.35 74.8163 379.168C74.4694 378.967 74.1692 378.894 73.9158 378.946C73.6649 378.997 73.4717 379.141 73.3364 379.379C73.2011 379.616 73.1335 379.915 73.1335 380.276L73.1335 380.855C73.1335 381.35 73.2073 381.811 73.3549 382.24C73.505 382.668 73.7129 383.048 73.9786 383.38C74.2443 383.71 74.5531 383.976 74.9049 384.179C75.1337 384.311 75.3403 384.394 75.5249 384.426C75.7119 384.458 75.873 384.437 76.0083 384.364C76.1436 384.289 76.2482 384.159 76.322 383.975L77.1634 384.733C77.0749 385.011 76.926 385.215 76.7169 385.345C76.5078 385.471 76.2494 385.515 75.9419 385.477C75.6344 385.436 75.2887 385.304 74.9049 385.083ZM81.6178 380.095L82.7102 380.725L85.2787 389.453L85.3673 389.504L87.9359 383.742L89.0282 384.373L89.0282 393.1L88.172 392.606L88.172 385.975L88.0982 385.933L85.7363 391.2L84.9097 390.722L82.5478 382.728L82.474 382.686L82.474 389.316L81.6178 388.822L81.6178 380.095ZM93.048 395.557C92.5363 395.262 92.0873 394.862 91.701 394.358C91.3172 393.855 91.0171 393.288 90.8006 392.658C90.5865 392.028 90.4795 391.376 90.4795 390.7C90.4795 390.018 90.5865 389.484 90.8006 389.099C91.0171 388.716 91.3172 388.494 91.701 388.435C92.0873 388.376 92.5363 388.495 93.048 388.79C93.5598 389.086 94.0076 389.485 94.3914 389.988C94.7776 390.492 95.0778 391.06 95.2918 391.692C95.5083 392.326 95.6166 392.984 95.6166 393.665C95.6166 394.342 95.5083 394.87 95.2918 395.251C95.0778 395.633 94.7776 395.853 94.3914 395.911C94.0076 395.971 93.5598 395.853 93.048 395.557ZM93.048 394.654C93.4368 394.879 93.7566 394.948 94.0076 394.863C94.2585 394.778 94.4443 394.582 94.5648 394.277C94.6854 393.972 94.7457 393.6 94.7457 393.163C94.7457 392.725 94.6854 392.283 94.5648 391.835C94.4443 391.388 94.2585 390.975 94.0076 390.597C93.7566 390.219 93.4368 389.918 93.048 389.694C92.6593 389.469 92.3395 389.401 92.0885 389.489C91.8376 389.577 91.6518 389.776 91.5313 390.084C91.4107 390.392 91.3504 390.765 91.3504 391.202C91.3504 391.64 91.4107 392.081 91.5313 392.526C91.6518 392.97 91.8376 393.38 92.0885 393.755C92.3395 394.13 92.6593 394.43 93.048 394.654ZM97.817 394.237L97.817 398.174L96.9461 397.672L96.9461 391.126L97.7875 391.612L97.7875 392.635L97.8613 392.677C97.9942 392.422 98.1959 392.271 98.4665 392.226C98.7372 392.177 99.0865 392.277 99.5146 392.524C99.8984 392.746 100.234 393.03 100.522 393.378C100.81 393.723 101.034 394.125 101.194 394.584C101.354 395.04 101.434 395.547 101.434 396.103L101.434 400.263L100.563 399.76L100.563 395.669C100.563 395.155 100.447 394.687 100.216 394.267C99.9846 393.844 99.6672 393.515 99.2637 393.282C98.9857 393.122 98.7372 393.048 98.5182 393.061C98.3017 393.075 98.1307 393.179 98.0052 393.374C97.8798 393.569 97.817 393.856 97.817 394.237ZM103.025 401.181L103.025 394.636L103.896 395.139L103.896 401.684L103.025 401.181ZM103.468 393.801C103.298 393.703 103.152 393.551 103.029 393.347C102.908 393.144 102.848 392.948 102.848 392.761C102.848 392.573 102.908 392.448 103.029 392.384C103.152 392.321 103.298 392.339 103.468 392.437C103.638 392.535 103.783 392.686 103.904 392.889C104.027 393.093 104.088 393.289 104.088 393.477C104.088 393.664 104.027 393.789 103.904 393.852C103.783 393.916 103.638 393.899 103.468 393.801ZM107.957 397.483L107.957 398.335L105.019 396.639L105.019 395.787L107.957 397.483ZM105.875 394.713L106.746 395.216L106.746 401.455C106.746 401.739 106.782 401.972 106.853 402.156C106.927 402.337 107.02 402.485 107.134 402.599C107.249 402.711 107.371 402.804 107.499 402.878C107.595 402.933 107.674 402.973 107.735 402.997C107.797 403.019 107.846 403.036 107.883 403.048L108.06 404.054C108.001 404.046 107.918 404.024 107.813 403.988C107.707 403.955 107.573 403.892 107.41 403.798C107.164 403.656 106.923 403.456 106.687 403.198C106.453 402.94 106.259 402.642 106.104 402.303C105.951 401.965 105.875 401.605 105.875 401.225L105.875 394.713ZM111.509 406.216C110.997 405.92 110.548 405.52 110.162 405.016C109.778 404.513 109.478 403.947 109.261 403.316C109.047 402.687 108.94 402.034 108.94 401.358C108.94 400.676 109.047 400.143 109.261 399.758C109.478 399.374 109.778 399.152 110.162 399.093C110.548 399.035 110.997 399.153 111.509 399.449C112.02 399.744 112.468 400.143 112.852 400.646C113.238 401.15 113.538 401.719 113.752 402.351C113.969 402.984 114.077 403.642 114.077 404.324C114.077 405 113.969 405.528 113.752 405.909C113.538 406.291 113.238 406.511 112.852 406.569C112.468 406.629 112.02 406.511 111.509 406.216ZM111.509 405.312C111.897 405.537 112.217 405.606 112.468 405.521C112.719 405.436 112.905 405.241 113.025 404.935C113.146 404.63 113.206 404.258 113.206 403.821C113.206 403.383 113.146 402.941 113.025 402.493C112.905 402.046 112.719 401.633 112.468 401.255C112.217 400.878 111.897 400.576 111.509 400.352C111.12 400.128 110.8 400.059 110.549 400.148C110.298 400.236 110.112 400.434 109.992 400.742C109.871 401.05 109.811 401.423 109.811 401.861C109.811 402.298 109.871 402.739 109.992 403.184C110.112 403.628 110.298 404.038 110.549 404.413C110.8 404.788 111.12 405.088 111.509 405.312ZM115.407 408.33L115.407 401.784L116.248 402.27L116.248 403.259L116.307 403.293C116.41 403.029 116.597 402.874 116.868 402.828C117.139 402.783 117.444 402.858 117.783 403.054C117.847 403.091 117.927 403.139 118.023 403.197C118.119 403.255 118.192 403.301 118.241 403.336L118.241 404.358C118.211 404.333 118.144 404.281 118.038 404.203C117.935 404.123 117.825 404.05 117.709 403.983C117.434 403.824 117.188 403.749 116.971 403.757C116.757 403.765 116.588 403.848 116.462 404.009C116.339 404.168 116.278 404.395 116.278 404.691L116.278 408.833L115.407 408.33ZM119.273 410.562L119.273 404.017L120.144 404.52L120.144 411.065L119.273 410.562ZM119.716 403.182C119.546 403.084 119.4 402.932 119.277 402.728C119.156 402.525 119.096 402.329 119.096 402.142C119.096 401.954 119.156 401.829 119.277 401.765C119.4 401.702 119.546 401.72 119.716 401.818C119.886 401.916 120.031 402.067 120.152 402.27C120.275 402.474 120.336 402.67 120.336 402.858C120.336 403.045 120.275 403.17 120.152 403.233C120.031 403.297 119.886 403.28 119.716 403.182ZM122.61 408.551L122.61 412.489L121.739 411.986L121.739 405.441L122.581 405.926L122.581 406.949L122.655 406.992C122.788 406.736 122.989 406.586 123.26 406.54C123.531 406.492 123.88 406.591 124.308 406.838C124.692 407.06 125.028 407.345 125.315 407.693C125.603 408.038 125.827 408.44 125.987 408.899C126.147 409.355 126.227 409.861 126.227 410.418L126.227 414.577L125.356 414.074L125.356 409.983C125.356 409.469 125.24 409.002 125.009 408.581C124.778 408.158 124.461 407.83 124.057 407.597C123.779 407.436 123.531 407.363 123.312 407.375C123.095 407.39 122.924 407.494 122.799 407.689C122.673 407.883 122.61 408.171 122.61 408.551ZM130.107 419.408C129.686 419.165 129.324 418.894 129.022 418.594C128.719 418.297 128.467 417.989 128.265 417.671C128.066 417.357 127.907 417.053 127.789 416.757L128.483 416.595C128.562 416.76 128.661 416.954 128.782 417.177C128.902 417.403 129.067 417.633 129.276 417.867C129.488 418.106 129.765 418.324 130.107 418.521C130.564 418.786 130.942 418.876 131.24 418.792C131.537 418.708 131.686 418.394 131.686 417.848L131.686 416.519L131.612 416.476C131.548 416.558 131.457 416.654 131.339 416.761C131.224 416.868 131.056 416.926 130.837 416.936C130.621 416.945 130.328 416.842 129.959 416.629C129.501 416.365 129.091 416.003 128.726 415.543C128.365 415.084 128.078 414.555 127.867 413.955C127.657 413.357 127.553 412.717 127.553 412.036C127.553 411.365 127.655 410.84 127.859 410.461C128.063 410.079 128.347 409.857 128.712 409.794C129.076 409.729 129.496 409.834 129.974 410.11C130.343 410.323 130.636 410.563 130.852 410.83C131.071 411.095 131.238 411.351 131.354 411.597C131.472 411.841 131.563 412.038 131.627 412.189L131.716 412.24L131.716 411.2L132.557 411.686L132.557 418.419C132.557 418.982 132.446 419.375 132.225 419.6C132.006 419.828 131.711 419.918 131.339 419.868C130.97 419.823 130.559 419.669 130.107 419.408ZM130.077 415.794C130.426 415.996 130.722 416.074 130.963 416.029C131.204 415.983 131.387 415.823 131.513 415.549C131.638 415.275 131.701 414.896 131.701 414.413C131.701 413.942 131.639 413.49 131.516 413.058C131.393 412.627 131.211 412.239 130.97 411.895C130.729 411.551 130.431 411.277 130.077 411.073C129.708 410.86 129.401 410.79 129.154 410.864C128.911 410.939 128.728 411.123 128.605 411.416C128.484 411.71 128.424 412.078 128.424 412.521C128.424 412.976 128.485 413.413 128.608 413.834C128.734 414.253 128.918 414.632 129.162 414.972C129.408 415.31 129.713 415.584 130.077 415.794Z" fill="white"/>
<path d="M21.3047 261.053L21.676 228.176L214.458 340.533C225.031 346.695 238.099 346.7 248.676 340.547L439.577 229.489V259.486C439.577 264.902 436.657 269.898 431.938 272.556L247.354 376.508C236.623 382.551 223.507 382.51 212.815 376.4L26.3428 269.849C23.1919 268.048 21.2637 264.682 21.3047 261.053Z" fill="#101010"/>
<path d="M21.3047 261.053L21.676 228.176L214.458 340.533C225.031 346.695 238.099 346.7 248.676 340.547L439.577 229.489V259.486C439.577 264.902 436.657 269.898 431.938 272.556L247.354 376.508C236.623 382.551 223.507 382.51 212.815 376.4L26.3428 269.849C23.1919 268.048 21.2637 264.682 21.3047 261.053Z" fill="url(#paint4_linear_1421_3859)"/>
<path d="M21.3047 261.053L21.676 228.176L214.458 340.533C225.031 346.695 238.099 346.7 248.676 340.547L439.577 229.489V259.486C439.577 264.902 436.657 269.898 431.938 272.556L247.354 376.508C236.623 382.551 223.507 382.51 212.815 376.4L26.3428 269.849C23.1919 268.048 21.2637 264.682 21.3047 261.053Z" stroke="#404040"/>
<path d="M247.355 107.986L436.298 216.411C442.314 219.863 442.328 228.537 436.322 232.009L249.46 340.028C238.992 346.08 226.098 346.116 215.595 340.125L25.6069 231.733C19.5503 228.278 19.5542 219.545 25.6139 216.095L215.595 107.932C225.445 102.325 237.525 102.345 247.355 107.986Z" fill="#131313" stroke="#404040"/>
<path d="M36.9424 255.131L38.0348 255.762L40.6034 264.489L40.6919 264.54L43.2605 258.779L44.3528 259.41L44.3528 268.137L43.4967 267.643L43.4967 261.012L43.4229 260.969L41.061 266.236L40.2343 265.759L37.8724 257.765L37.7986 257.722L37.7986 264.353L36.9424 263.858L36.9424 255.131ZM47.7379 270.245C47.3787 270.037 47.0527 269.771 46.7599 269.446C46.4672 269.118 46.2347 268.755 46.0624 268.357C45.8902 267.956 45.8041 267.543 45.8041 267.117C45.8041 266.742 45.8681 266.475 45.996 266.316C46.124 266.154 46.2949 266.068 46.509 266.058C46.723 266.048 46.9592 266.085 47.2176 266.169C47.4783 266.251 47.7404 266.348 48.0036 266.461C48.3481 266.608 48.6273 266.731 48.8414 266.829C49.0579 266.926 49.2153 266.97 49.3137 266.961C49.4146 266.954 49.465 266.87 49.465 266.708L49.465 266.674C49.465 266.253 49.3654 265.869 49.1661 265.521C48.9693 265.174 48.6704 264.885 48.2693 264.654C47.8535 264.414 47.5276 264.331 47.2914 264.404C47.0552 264.478 46.8891 264.607 46.7932 264.79L45.9665 263.972C46.1141 263.659 46.3109 263.463 46.557 263.384C46.8055 263.303 47.0761 263.303 47.3689 263.384C47.6641 263.463 47.9544 263.586 48.2398 263.75C48.4219 263.855 48.631 264.002 48.8672 264.189C49.1058 264.375 49.3359 264.609 49.5573 264.89C49.7812 265.173 49.9669 265.512 50.1146 265.907C50.2622 266.301 50.336 266.759 50.336 267.279L50.336 271.591L49.465 271.088L49.465 270.202L49.4208 270.176C49.3617 270.284 49.2633 270.38 49.1255 270.462C48.9877 270.544 48.8045 270.576 48.5756 270.558C48.3468 270.539 48.0676 270.435 47.7379 270.245ZM47.8708 269.418C48.2152 269.617 48.5055 269.706 48.7417 269.686C48.9804 269.668 49.16 269.57 49.2805 269.392C49.4035 269.216 49.465 268.992 49.465 268.719L49.465 267.799C49.4281 267.828 49.3469 267.828 49.2215 267.799C49.0985 267.767 48.9558 267.721 48.7934 267.658C48.6335 267.594 48.4772 267.529 48.3247 267.464C48.1746 267.397 48.0528 267.344 47.9593 267.304C47.733 267.208 47.5214 267.141 47.3246 267.104C47.1302 267.066 46.9728 267.087 46.8522 267.168C46.7341 267.248 46.6751 267.415 46.6751 267.671C46.6751 268.02 46.787 268.349 47.0109 268.657C47.2372 268.964 47.5239 269.218 47.8708 269.418ZM54.3909 267.387L54.3909 268.239L51.4533 266.543L51.4533 265.691L54.3909 267.387ZM52.3095 264.617L53.1804 265.12L53.1804 271.358C53.1804 271.643 53.2161 271.876 53.2874 272.059C53.3612 272.241 53.4547 272.389 53.5679 272.503C53.6835 272.615 53.8053 272.708 53.9333 272.782C54.0292 272.837 54.1079 272.877 54.1694 272.901C54.2309 272.922 54.2802 272.939 54.3171 272.952L54.4942 273.958C54.4352 273.949 54.3527 273.927 54.2469 273.892C54.1411 273.859 54.0071 273.796 53.8447 273.702C53.5987 273.56 53.3575 273.36 53.1214 273.101C52.8876 272.844 52.6933 272.546 52.5383 272.206C52.3857 271.868 52.3095 271.509 52.3095 271.128L52.3095 264.617ZM58.0167 276.162C57.4705 275.847 56.9994 275.436 56.6033 274.928C56.2096 274.42 55.9058 273.852 55.6918 273.226C55.4802 272.598 55.3744 271.949 55.3744 271.279C55.3744 270.608 55.4802 270.078 55.6918 269.689C55.9058 269.298 56.2035 269.07 56.5848 269.003C56.9686 268.935 57.4164 269.048 57.9282 269.344C58.2234 269.514 58.5149 269.74 58.8028 270.019C59.0907 270.299 59.3527 270.635 59.5889 271.027C59.8251 271.416 60.0133 271.86 60.1535 272.359C60.2937 272.857 60.3639 273.412 60.3639 274.023L60.3639 274.449L55.9944 271.926L55.9944 271.057L59.4782 273.068C59.4782 272.699 59.4142 272.333 59.2862 271.969C59.1608 271.607 58.9812 271.274 58.7474 270.972C58.5162 270.671 58.2431 270.429 57.9282 270.247C57.5813 270.047 57.2811 269.973 57.0277 270.026C56.7767 270.077 56.5836 270.221 56.4483 270.458C56.313 270.695 56.2453 270.994 56.2453 271.355L56.2453 271.935C56.2453 272.429 56.3191 272.891 56.4667 273.32C56.6168 273.747 56.8247 274.127 57.0904 274.46C57.3561 274.789 57.6649 275.056 58.0167 275.259C58.2455 275.391 58.4522 275.473 58.6367 275.506C58.8237 275.537 58.9849 275.517 59.1202 275.444C59.2555 275.369 59.3601 275.239 59.4339 275.054L60.2753 275.813C60.1867 276.091 60.0379 276.295 59.8287 276.424C59.6196 276.551 59.3613 276.595 59.0538 276.556C58.7462 276.515 58.4005 276.384 58.0167 276.162ZM61.6887 278.146L61.6887 271.6L62.5302 272.086L62.5302 273.075L62.5892 273.109C62.6925 272.845 62.8795 272.69 63.1501 272.644C63.4208 272.599 63.7259 272.674 64.0654 272.87C64.1293 272.907 64.2093 272.955 64.3053 273.013C64.4012 273.071 64.4738 273.117 64.523 273.151L64.523 274.174C64.4935 274.149 64.4258 274.097 64.32 274.019C64.2167 273.939 64.1072 273.866 63.9916 273.799C63.716 273.64 63.47 273.565 63.2535 273.573C63.0394 273.58 62.8697 273.664 62.7442 273.825C62.6212 273.984 62.5597 274.211 62.5597 274.507L62.5597 278.649L61.6887 278.146ZM65.5554 280.378L65.5554 273.833L66.4263 274.336L66.4263 280.881L65.5554 280.378ZM65.9983 272.998C65.8285 272.9 65.6821 272.748 65.5591 272.544C65.4385 272.341 65.3783 272.145 65.3783 271.958C65.3783 271.77 65.4385 271.645 65.5591 271.581C65.6821 271.518 65.8285 271.536 65.9983 271.634C66.168 271.732 66.3132 271.882 66.4337 272.086C66.5567 272.29 66.6182 272.486 66.6182 272.674C66.6182 272.861 66.5567 272.986 66.4337 273.049C66.3132 273.113 66.168 273.096 65.9983 272.998ZM69.6896 282.919C69.3304 282.711 69.0044 282.445 68.7117 282.119C68.4189 281.791 68.1864 281.428 68.0142 281.031C67.8419 280.63 67.7558 280.217 67.7558 279.791C67.7558 279.416 67.8198 279.149 67.9477 278.99C68.0757 278.828 68.2467 278.742 68.4607 278.732C68.6748 278.722 68.9109 278.759 69.1693 278.843C69.4301 278.925 69.6921 279.022 69.9553 279.134C70.2998 279.282 70.579 279.405 70.7931 279.503C71.0096 279.6 71.167 279.644 71.2654 279.635C71.3663 279.628 71.4168 279.544 71.4168 279.382L71.4168 279.347C71.4168 278.927 71.3171 278.543 71.1178 278.195C70.921 277.848 70.6221 277.559 70.221 277.328C69.8053 277.088 69.4793 277.004 69.2431 277.078C69.0069 277.152 68.8408 277.281 68.7449 277.464L67.9182 276.646C68.0658 276.333 68.2627 276.137 68.5087 276.058C68.7572 275.977 69.0278 275.977 69.3206 276.058C69.6158 276.137 69.9061 276.259 70.1915 276.424C70.3736 276.529 70.5827 276.676 70.8189 276.863C71.0576 277.049 71.2876 277.283 71.509 277.564C71.7329 277.847 71.9187 278.186 72.0663 278.58C72.2139 278.975 72.2877 279.433 72.2877 279.953L72.2877 284.265L71.4168 283.762L71.4168 282.876L71.3725 282.85C71.3134 282.958 71.215 283.053 71.0772 283.136C70.9395 283.218 70.7562 283.25 70.5274 283.232C70.2985 283.213 70.0193 283.109 69.6896 282.919ZM69.8225 282.092C70.1669 282.291 70.4572 282.38 70.6934 282.36C70.9321 282.342 71.1117 282.244 71.2322 282.066C71.3552 281.89 71.4168 281.666 71.4168 281.393L71.4168 280.472C71.3799 280.502 71.2987 280.502 71.1732 280.472C71.0502 280.441 70.9075 280.394 70.7451 280.332C70.5852 280.268 70.4289 280.203 70.2764 280.138C70.1263 280.071 70.0045 280.018 69.9111 279.978C69.6847 279.882 69.4731 279.815 69.2763 279.778C69.0819 279.74 68.9245 279.761 68.8039 279.842C68.6858 279.921 68.6268 280.089 68.6268 280.345C68.6268 280.694 68.7387 281.023 68.9626 281.331C69.189 281.638 69.4756 281.892 69.8225 282.092ZM74.7483 276.958L74.7483 285.686L73.8774 285.183L73.8774 276.456L74.7483 276.958ZM80.3587 283.845L79.5763 283.649C79.5271 283.47 79.4546 283.282 79.3586 283.085C79.2651 282.886 79.1372 282.693 78.9748 282.505C78.8124 282.318 78.6045 282.151 78.3511 282.004C78.0042 281.804 77.7151 281.73 77.4839 281.781C77.255 281.83 77.1406 281.996 77.1406 282.277C77.1406 282.527 77.2194 282.77 77.3768 283.006C77.5343 283.242 77.7803 283.504 78.1149 283.794L78.9563 284.519C79.4632 284.953 79.8408 285.389 80.0893 285.825C80.3378 286.258 80.462 286.703 80.462 287.161C80.462 287.536 80.3686 287.817 80.1816 288.004C79.997 288.193 79.7387 288.277 79.4066 288.256C79.0744 288.235 78.6882 288.097 78.2478 287.843C77.6696 287.509 77.1911 287.088 76.8122 286.579C76.4333 286.07 76.1934 285.509 76.0926 284.894L76.9192 285.132C76.9979 285.53 77.1468 285.88 77.3658 286.183C77.5872 286.487 77.8763 286.742 78.233 286.948C78.639 287.182 78.9613 287.269 79.1999 287.208C79.441 287.145 79.5616 286.973 79.5616 286.692C79.5616 286.465 79.4927 286.235 79.3549 286.002C79.2171 285.766 79.0055 285.527 78.7202 285.286L77.7754 284.485C77.2563 284.043 76.8749 283.602 76.6314 283.164C76.3903 282.723 76.2697 282.277 76.2697 281.825C76.2697 281.456 76.3595 281.181 76.5391 281.001C76.7212 280.822 76.9684 280.742 77.2809 280.76C77.5958 280.78 77.9525 280.905 78.3511 281.135C78.9121 281.459 79.3525 281.855 79.6723 282.324C79.9946 282.794 80.2234 283.301 80.3587 283.845ZM86.8364 292.784C86.3394 292.497 85.9113 292.145 85.5521 291.727C85.1929 291.31 84.9161 290.862 84.7217 290.383C84.5274 289.904 84.4302 289.429 84.4302 288.957C84.4302 288.594 84.4966 288.31 84.6295 288.105C84.7648 287.899 84.9506 287.744 85.1867 287.638C85.4254 287.532 85.6997 287.446 86.0097 287.381L87.1021 287.074C87.3161 287.036 87.4871 286.961 87.6151 286.85C87.7455 286.741 87.8107 286.537 87.8107 286.239C87.8107 286.017 87.7258 285.754 87.556 285.448C87.3887 285.144 87.1685 284.913 86.8954 284.756C86.7035 284.645 86.5338 284.604 86.3861 284.632C86.241 284.659 86.1266 284.735 86.0429 284.86C85.9617 284.984 85.9211 285.136 85.9211 285.318C85.9211 285.523 85.9691 285.758 86.0651 286.023C86.1635 286.288 86.2877 286.572 86.4378 286.878C86.5903 287.182 86.7478 287.494 86.9102 287.815L90.3792 294.71L89.3311 294.105L86.4673 288.463C86.2016 287.94 85.9605 287.466 85.744 287.04C85.5275 286.614 85.3553 286.217 85.2273 285.851C85.0994 285.484 85.0354 285.131 85.0354 284.79C85.0354 284.398 85.1105 284.097 85.2606 283.888C85.4131 283.678 85.6259 283.57 85.899 283.562C86.1746 283.554 86.4969 283.656 86.8659 283.869C87.2448 284.088 87.5708 284.362 87.8439 284.69C88.117 285.015 88.3273 285.359 88.4749 285.723C88.6226 286.084 88.6964 286.426 88.6964 286.75C88.6964 287.168 88.6066 287.478 88.427 287.681C88.2474 287.884 88.0026 288.028 87.6926 288.114L86.1869 288.54C85.8473 288.634 85.6173 288.782 85.4967 288.985C85.3762 289.188 85.3159 289.349 85.3159 289.469C85.3159 289.741 85.3774 290.031 85.5004 290.338C85.6234 290.645 85.7969 290.935 86.0208 291.21C86.2447 291.484 86.5067 291.707 86.8069 291.881C87.0922 292.045 87.3703 292.136 87.6409 292.153C87.9115 292.168 88.1563 292.104 88.3753 291.964C88.5967 291.825 88.7714 291.604 88.8993 291.303C89.0297 291.004 89.0949 290.619 89.0949 290.151L89.9364 290.636C89.9364 291.216 89.8785 291.656 89.7629 291.955C89.6473 292.255 89.5169 292.467 89.3717 292.59C89.2266 292.714 89.1097 292.801 89.0211 292.852C88.9916 292.878 88.9645 292.905 88.9399 292.933C88.9153 292.962 88.8883 292.989 88.8587 293.014C88.6152 293.189 88.3076 293.247 87.9361 293.189C87.5646 293.128 87.198 292.993 86.8364 292.784ZM95.2995 288.824L95.2995 297.551L94.3843 297.023L94.3843 288.295L95.2995 288.824ZM97.8874 295.108L97.8874 299.045L97.0165 298.542L97.0165 291.997L97.8579 292.483L97.8579 293.505L97.9317 293.548C98.0646 293.292 98.2663 293.142 98.5369 293.096C98.8076 293.048 99.1569 293.147 99.585 293.395C99.9688 293.616 100.305 293.901 100.593 294.249C100.88 294.594 101.104 294.996 101.264 295.455C101.424 295.911 101.504 296.417 101.504 296.974L101.504 301.133L100.633 300.63L100.633 296.539C100.633 296.025 100.517 295.558 100.286 295.137C100.055 294.714 99.7376 294.386 99.3341 294.153C99.0561 293.993 98.8076 293.919 98.5886 293.931C98.3721 293.946 98.2011 294.05 98.0756 294.245C97.9502 294.439 97.8874 294.727 97.8874 295.108ZM107.528 298.066L105.432 303.401L104.546 302.889L102.45 295.134L103.394 295.679L104.959 301.798L105.018 301.833L106.583 297.52L107.528 298.066ZM110.851 306.666C110.305 306.351 109.834 305.939 109.438 305.432C109.044 304.924 108.74 304.356 108.526 303.73C108.314 303.102 108.209 302.453 108.209 301.782C108.209 301.112 108.314 300.582 108.526 300.193C108.74 299.802 109.038 299.574 109.419 299.507C109.803 299.439 110.251 299.552 110.762 299.848C111.058 300.018 111.349 300.243 111.637 300.523C111.925 300.803 112.187 301.139 112.423 301.531C112.659 301.92 112.848 302.364 112.988 302.863C113.128 303.361 113.198 303.916 113.198 304.527L113.198 304.953L108.829 302.43L108.829 301.561L112.312 303.572C112.312 303.203 112.248 302.836 112.121 302.473C111.995 302.111 111.815 301.778 111.582 301.476C111.35 301.175 111.077 300.933 110.762 300.751C110.416 300.551 110.115 300.477 109.862 300.53C109.611 300.581 109.418 300.725 109.283 300.962C109.147 301.199 109.08 301.498 109.08 301.859L109.08 302.439C109.08 302.933 109.153 303.395 109.301 303.824C109.451 304.251 109.659 304.631 109.925 304.964C110.19 305.293 110.499 305.559 110.851 305.763C111.08 305.895 111.287 305.977 111.471 306.01C111.658 306.041 111.819 306.02 111.954 305.948C112.09 305.873 112.194 305.743 112.268 305.558L113.11 306.317C113.021 306.595 112.872 306.799 112.663 306.928C112.454 307.055 112.196 307.099 111.888 307.06C111.581 307.019 111.235 306.888 110.851 306.666ZM115.394 305.215L115.394 309.153L114.523 308.65L114.523 302.104L115.364 302.59L115.364 303.613L115.438 303.655C115.571 303.4 115.773 303.249 116.044 303.204C116.314 303.155 116.664 303.255 117.092 303.502C117.475 303.724 117.811 304.008 118.099 304.356C118.387 304.702 118.611 305.104 118.771 305.562C118.931 306.018 119.011 306.525 119.011 307.081L119.011 311.241L118.14 310.738L118.14 306.647C118.14 306.133 118.024 305.665 117.793 305.245C117.562 304.822 117.244 304.493 116.841 304.26C116.563 304.1 116.314 304.026 116.095 304.039C115.879 304.053 115.708 304.157 115.582 304.352C115.457 304.547 115.394 304.834 115.394 305.215ZM123.067 307.037L123.067 307.89L120.13 306.194L120.13 305.341L123.067 307.037ZM120.986 304.267L121.857 304.77L121.857 311.009C121.857 311.293 121.893 311.527 121.964 311.71C122.038 311.892 122.131 312.039 122.244 312.153C122.36 312.265 122.482 312.358 122.61 312.432C122.706 312.488 122.784 312.527 122.846 312.551C122.907 312.573 122.957 312.59 122.994 312.603L123.171 313.608C123.112 313.6 123.029 313.578 122.923 313.542C122.818 313.51 122.684 313.446 122.521 313.353C122.275 313.211 122.034 313.01 121.798 312.752C121.564 312.495 121.37 312.196 121.215 311.857C121.062 311.519 120.986 311.159 120.986 310.779L120.986 304.267ZM126.619 315.77C126.108 315.474 125.659 315.075 125.272 314.57C124.889 314.067 124.588 313.501 124.372 312.87C124.158 312.241 124.051 311.588 124.051 310.912C124.051 310.23 124.158 309.697 124.372 309.312C124.588 308.928 124.889 308.707 125.272 308.647C125.659 308.589 126.108 308.707 126.619 309.003C127.131 309.298 127.579 309.697 127.963 310.2C128.349 310.705 128.649 311.273 128.863 311.905C129.08 312.538 129.188 313.196 129.188 313.878C129.188 314.554 129.08 315.082 128.863 315.463C128.649 315.845 128.349 316.065 127.963 316.124C127.579 316.183 127.131 316.065 126.619 315.77ZM126.619 314.866C127.008 315.091 127.328 315.161 127.579 315.075C127.83 314.99 128.016 314.795 128.136 314.489C128.257 314.184 128.317 313.812 128.317 313.375C128.317 312.938 128.257 312.495 128.136 312.048C128.016 311.6 127.83 311.187 127.579 310.81C127.328 310.432 127.008 310.131 126.619 309.906C126.231 309.682 125.911 309.614 125.66 309.702C125.409 309.79 125.223 309.988 125.103 310.296C124.982 310.604 124.922 310.977 124.922 311.415C124.922 311.852 124.982 312.293 125.103 312.738C125.223 313.183 125.409 313.592 125.66 313.967C125.911 314.342 126.231 314.642 126.619 314.866ZM130.517 317.884L130.517 311.339L131.359 311.824L131.359 312.813L131.418 312.847C131.521 312.583 131.708 312.428 131.979 312.383C132.25 312.337 132.555 312.412 132.894 312.608C132.958 312.645 133.038 312.693 133.134 312.751C133.23 312.809 133.303 312.856 133.352 312.89L133.352 313.912C133.322 313.887 133.255 313.835 133.149 313.757C133.045 313.677 132.936 313.604 132.82 313.537C132.545 313.378 132.299 313.303 132.082 313.312C131.868 313.319 131.698 313.403 131.573 313.563C131.45 313.722 131.388 313.949 131.388 314.245L131.388 318.387L130.517 317.884ZM135.118 322.994C134.97 322.909 134.838 322.819 134.723 322.724C134.607 322.632 134.527 322.56 134.483 322.509L134.704 321.75C134.916 321.935 135.103 322.066 135.265 322.142C135.428 322.219 135.572 322.218 135.697 322.14C135.825 322.066 135.942 321.894 136.048 321.622L136.21 321.205L134.114 313.415L135.059 313.96L136.623 320.08L136.682 320.114L138.247 315.801L139.192 316.347L136.786 322.458C136.677 322.733 136.543 322.936 136.383 323.065C136.224 323.197 136.038 323.256 135.826 323.242C135.617 323.229 135.381 323.146 135.118 322.994Z" fill="white"/>
<path d="M21.3047 161.98L21.676 129.103L214.458 241.461C225.031 247.623 238.099 247.628 248.676 241.474L439.577 130.416V160.413C439.577 165.83 436.657 170.825 431.938 173.483L247.354 277.435C236.623 283.478 223.507 283.437 212.815 277.328L26.3428 170.776C23.1919 168.975 21.2637 165.609 21.3047 161.98Z" fill="#101010"/>
<path d="M21.3047 161.98L21.676 129.103L214.458 241.461C225.031 247.623 238.099 247.628 248.676 241.474L439.577 130.416V160.413C439.577 165.83 436.657 170.825 431.938 173.483L247.354 277.435C236.623 283.478 223.507 283.437 212.815 277.328L26.3428 170.776C23.1919 168.975 21.2637 165.609 21.3047 161.98Z" fill="url(#paint5_linear_1421_3859)"/>
<path d="M21.3047 161.98L21.676 129.103L214.458 241.461C225.031 247.623 238.099 247.628 248.676 241.474L439.577 130.416V160.413C439.577 165.83 436.657 170.825 431.938 173.483L247.354 277.435C236.623 283.478 223.507 283.437 212.815 277.328L26.3428 170.776C23.1919 168.975 21.2637 165.609 21.3047 161.98Z" stroke="#404040"/>
<path d="M247.355 8.91333L436.298 117.338C442.314 120.791 442.328 129.464 436.322 132.936L249.46 240.956C238.992 247.007 226.098 247.044 215.595 241.052L25.6069 132.661C19.5503 129.205 19.5542 120.472 25.6139 117.022L215.595 8.85926C225.445 3.25182 237.525 3.2724 247.355 8.91333Z" fill="#131313" stroke="#404040"/>
<path d="M36.7394 162.756L36.7395 154.029L39.2932 155.504C39.8862 155.846 40.3709 156.249 40.7473 156.714C41.1262 157.177 41.4066 157.67 41.5887 158.193C41.7708 158.715 41.8618 159.234 41.8618 159.748C41.8618 160.262 41.7708 160.677 41.5887 160.992C41.4091 161.309 41.1311 161.484 40.7547 161.516C40.3782 161.546 39.896 161.391 39.308 161.052L37.4775 159.995L37.4775 159.058L39.2785 160.097C39.6844 160.332 40.0104 160.439 40.2564 160.419C40.5025 160.399 40.6808 160.283 40.7916 160.072C40.9047 159.859 40.9613 159.577 40.9613 159.228C40.9613 158.879 40.9047 158.533 40.7916 158.193C40.6808 157.853 40.5012 157.533 40.2528 157.234C40.0043 156.931 39.6746 156.661 39.2637 156.424L37.6547 155.495L37.6547 163.285L36.7394 162.756ZM43.218 166.497L43.218 159.951L44.0595 160.437L44.0595 161.426L44.1185 161.46C44.2218 161.196 44.4088 161.041 44.6795 160.995C44.9501 160.95 45.2552 161.025 45.5947 161.221C45.6587 161.258 45.7386 161.306 45.8346 161.364C45.9305 161.422 46.0031 161.468 46.0523 161.503L46.0523 162.525C46.0228 162.5 45.9551 162.448 45.8493 162.37C45.746 162.29 45.6365 162.217 45.5209 162.15C45.2453 161.991 44.9993 161.916 44.7828 161.924C44.5687 161.932 44.399 162.015 44.2735 162.176C44.1505 162.335 44.089 162.562 44.089 162.858L44.089 167L43.218 166.497ZM49.215 170.096C48.7033 169.8 48.2543 169.4 47.868 168.896C47.4842 168.393 47.184 167.826 46.9675 167.196C46.7535 166.566 46.6465 165.914 46.6465 165.238C46.6465 164.556 46.7535 164.022 46.9675 163.637C47.184 163.254 47.4842 163.032 47.868 162.973C48.2543 162.914 48.7033 163.033 49.215 163.329C49.7268 163.624 50.1745 164.023 50.5583 164.526C50.9446 165.03 51.2448 165.598 51.4588 166.231C51.6753 166.864 51.7836 167.522 51.7836 168.204C51.7836 168.88 51.6753 169.408 51.4588 169.789C51.2448 170.171 50.9446 170.391 50.5583 170.449C50.1745 170.509 49.7268 170.391 49.215 170.096ZM49.215 169.192C49.6037 169.417 49.9236 169.486 50.1745 169.401C50.4255 169.316 50.6112 169.12 50.7318 168.815C50.8523 168.51 50.9126 168.138 50.9126 167.701C50.9126 167.263 50.8523 166.821 50.7318 166.373C50.6112 165.926 50.4255 165.513 50.1745 165.135C49.9236 164.758 49.6037 164.456 49.215 164.232C48.8263 164.008 48.5064 163.939 48.2555 164.027C48.0045 164.115 47.8188 164.314 47.6982 164.622C47.5777 164.93 47.5174 165.303 47.5174 165.74C47.5174 166.178 47.5777 166.619 47.6982 167.064C47.8188 167.508 48.0045 167.918 48.2555 168.293C48.5064 168.668 48.8263 168.968 49.215 169.192ZM55.4159 173.676C54.8845 173.369 54.4268 172.96 54.043 172.448C53.6592 171.937 53.364 171.367 53.1573 170.74C52.9507 170.112 52.8473 169.471 52.8473 168.818C52.8473 168.153 52.9531 167.627 53.1647 167.241C53.3788 166.853 53.6765 166.626 54.0578 166.559C54.4416 166.491 54.8894 166.605 55.4011 166.9C55.7997 167.13 56.1589 167.423 56.4787 167.778C56.7986 168.133 57.0606 168.523 57.2648 168.948C57.469 169.372 57.5957 169.803 57.6449 170.241L56.774 169.738C56.7075 169.402 56.5599 169.052 56.3311 168.69C56.1048 168.326 55.7997 168.034 55.4159 167.812C55.0764 167.616 54.7787 167.546 54.5228 167.603C54.2694 167.659 54.0713 167.83 53.9286 168.117C53.7884 168.402 53.7183 168.792 53.7183 169.286C53.7183 169.792 53.7872 170.272 53.9249 170.727C54.0652 171.183 54.262 171.588 54.5154 171.941C54.7713 172.296 55.0714 172.573 55.4159 172.772C55.6422 172.903 55.8477 172.976 56.0322 172.992C56.2167 173.007 56.3729 172.967 56.5009 172.87C56.6288 172.774 56.7198 172.622 56.774 172.414L57.6449 172.917C57.5957 173.275 57.4739 173.553 57.2796 173.75C57.0877 173.946 56.833 174.044 56.5156 174.042C56.2007 174.039 55.8341 173.917 55.4159 173.676ZM62.4905 174.948L62.4905 171.078L63.3614 171.581L63.3614 178.127L62.4905 177.624L62.4905 176.516L62.4314 176.482C62.2986 176.737 62.0919 176.901 61.8114 176.972C61.531 177.04 61.1767 176.951 60.7486 176.703C60.3943 176.499 60.0794 176.227 59.8038 175.889C59.5283 175.549 59.3118 175.151 59.1543 174.696C58.9969 174.239 58.9181 173.732 58.9181 173.175L58.9181 169.016L59.7891 169.519L59.7891 173.61C59.7891 174.087 59.9047 174.534 60.136 174.952C60.3697 175.371 60.6674 175.685 61.0291 175.894C61.2456 176.019 61.4658 176.082 61.6897 176.083C61.916 176.086 62.1054 176 62.258 175.823C62.413 175.649 62.4905 175.357 62.4905 174.948ZM64.9566 179.048L64.9566 172.502L65.798 172.988L65.798 173.977L65.8571 174.011C65.9604 173.746 66.1474 173.592 66.418 173.546C66.6887 173.501 66.9938 173.576 67.3333 173.772C67.3972 173.809 67.4772 173.857 67.5732 173.915C67.6691 173.973 67.7417 174.019 67.7909 174.053L67.7909 175.076C67.7614 175.05 67.6937 174.999 67.5879 174.92C67.4846 174.841 67.3751 174.768 67.2595 174.701C66.9839 174.542 66.7379 174.467 66.5214 174.475C66.3073 174.482 66.1376 174.566 66.0121 174.727C65.8891 174.886 65.8276 175.113 65.8276 175.408L65.8276 179.55L64.9566 179.048ZM71.0274 182.689C70.4812 182.374 70.0101 181.962 69.614 181.455C69.2203 180.947 68.9165 180.379 68.7024 179.753C68.4908 179.125 68.3851 178.476 68.3851 177.805C68.3851 177.135 68.4908 176.605 68.7024 176.216C68.9165 175.825 69.2142 175.597 69.5955 175.53C69.9793 175.462 70.4271 175.575 70.9388 175.871C71.2341 176.041 71.5256 176.266 71.8135 176.546C72.1013 176.826 72.3634 177.162 72.5995 177.554C72.8357 177.943 73.0239 178.387 73.1642 178.886C73.3044 179.384 73.3745 179.939 73.3745 180.55L73.3745 180.976L69.005 178.453L69.005 177.584L72.4888 179.595C72.4888 179.226 72.4249 178.859 72.2969 178.496C72.1715 178.134 71.9918 177.801 71.7581 177.499C71.5269 177.197 71.2538 176.956 70.9388 176.774C70.5919 176.574 70.2918 176.5 70.0384 176.553C69.7874 176.604 69.5943 176.748 69.459 176.985C69.3237 177.222 69.256 177.521 69.256 177.882L69.256 178.462C69.256 178.956 69.3298 179.418 69.4774 179.847C69.6275 180.274 69.8354 180.654 70.1011 180.987C70.3668 181.316 70.6756 181.582 71.0274 181.786C71.2562 181.918 71.4629 182 71.6474 182.033C71.8344 182.064 71.9955 182.043 72.1309 181.971C72.2662 181.896 72.3707 181.766 72.4445 181.581L73.286 182.34C73.1974 182.618 73.0485 182.822 72.8394 182.951C72.6303 183.077 72.372 183.121 72.0644 183.083C71.7569 183.042 71.4112 182.911 71.0274 182.689ZM74.6994 184.673L74.6994 178.127L75.5408 178.613L75.5408 179.636L75.6146 179.678C75.7327 179.397 75.9234 179.236 76.1867 179.195C76.4499 179.151 76.7661 179.235 77.1351 179.448C77.5091 179.664 77.8203 179.942 78.0688 180.281C78.3197 180.619 78.5153 181.004 78.6556 181.434L78.7146 181.468C78.8598 181.214 79.0775 181.071 79.3678 181.04C79.6581 181.006 80.0063 181.106 80.4122 181.34C80.919 181.633 81.3336 182.055 81.6559 182.608C81.9782 183.158 82.1394 183.818 82.1394 184.587L82.1394 188.968L81.2684 188.465L81.2684 184.085C81.2684 183.602 81.154 183.19 80.9252 182.851C80.6964 182.511 80.427 182.252 80.117 182.073C79.7184 181.843 79.4097 181.804 79.1907 181.956C78.9717 182.105 78.8622 182.391 78.8622 182.815L78.8622 187.076L77.9765 186.565L77.9765 182.082C77.9765 181.71 77.872 181.349 77.6628 181.001C77.4537 180.651 77.1843 180.38 76.8546 180.19C76.6283 180.059 76.4167 180.006 76.2199 180.032C76.0255 180.059 75.8681 180.161 75.7475 180.339C75.6294 180.515 75.5704 180.764 75.5704 181.085L75.5704 185.175L74.6994 184.673ZM86.1084 191.396C85.5622 191.081 85.0911 190.669 84.695 190.162C84.3013 189.654 83.9975 189.086 83.7834 188.46C83.5719 187.832 83.4661 187.183 83.4661 186.512C83.4661 185.842 83.5719 185.312 83.7834 184.923C83.9975 184.532 84.2952 184.304 84.6765 184.237C85.0603 184.169 85.5081 184.282 86.0199 184.578C86.3151 184.748 86.6066 184.973 86.8945 185.253C87.1824 185.533 87.4444 185.869 87.6806 186.261C87.9168 186.65 88.105 187.094 88.2452 187.593C88.3854 188.091 88.4556 188.646 88.4556 189.257L88.4556 189.683L84.0861 187.16L84.0861 186.291L87.5699 188.302C87.5699 187.933 87.5059 187.566 87.3779 187.203C87.2525 186.841 87.0729 186.508 86.8391 186.206C86.6079 185.905 86.3348 185.663 86.0199 185.481C85.673 185.281 85.3728 185.207 85.1194 185.26C84.8684 185.311 84.6753 185.455 84.54 185.692C84.4047 185.929 84.337 186.228 84.337 186.589L84.337 187.169C84.337 187.663 84.4108 188.125 84.5584 188.554C84.7085 188.981 84.9164 189.361 85.1821 189.694C85.4478 190.023 85.7566 190.289 86.1084 190.493C86.3372 190.625 86.5439 190.707 86.7284 190.74C86.9154 190.771 87.0766 190.75 87.2119 190.678C87.3472 190.603 87.4518 190.473 87.5256 190.288L88.367 191.047C88.2784 191.325 88.1296 191.529 87.9204 191.658C87.7113 191.784 87.453 191.829 87.1454 191.79C86.8379 191.749 86.4922 191.618 86.1084 191.396ZM90.6514 189.945L90.6514 193.883L89.7804 193.38L89.7804 186.834L90.6219 187.32L90.6219 188.343L90.6957 188.385C90.8285 188.13 91.0303 187.979 91.3009 187.934C91.5715 187.885 91.9209 187.985 92.349 188.232C92.7328 188.454 93.0686 188.738 93.3565 189.086C93.6443 189.432 93.8682 189.833 94.0281 190.292C94.1881 190.748 94.268 191.255 94.268 191.811L94.268 195.971L93.3971 195.468L93.3971 191.377C93.3971 190.863 93.2814 190.395 93.0502 189.975C92.8189 189.552 92.5015 189.223 92.098 188.99C91.82 188.83 91.5715 188.756 91.3526 188.769C91.1361 188.783 90.9651 188.887 90.8396 189.082C90.7141 189.277 90.6514 189.564 90.6514 189.945ZM98.3247 191.767L98.3247 192.62L95.3871 190.924L95.3871 190.071L98.3247 191.767ZM96.2433 188.997L97.1143 189.5L97.1143 195.739C97.1143 196.023 97.1499 196.257 97.2213 196.44C97.2951 196.622 97.3886 196.769 97.5018 196.883C97.6174 196.995 97.7392 197.088 97.8671 197.162C97.9631 197.218 98.0418 197.257 98.1033 197.281C98.1648 197.303 98.214 197.32 98.2509 197.333L98.4281 198.338C98.369 198.33 98.2866 198.308 98.1808 198.272C98.075 198.24 97.9409 198.176 97.7786 198.083C97.5325 197.941 97.2914 197.74 97.0552 197.482C96.8215 197.225 96.6271 196.926 96.4721 196.587C96.3196 196.249 96.2433 195.889 96.2433 195.509L96.2433 188.997ZM104.698 202.112C104.201 201.825 103.773 201.473 103.414 201.055C103.055 200.637 102.778 200.189 102.584 199.71C102.389 199.232 102.292 198.757 102.292 198.285C102.292 197.921 102.358 197.637 102.491 197.433C102.627 197.227 102.812 197.071 103.049 196.966C103.287 196.86 103.561 196.774 103.871 196.708L104.964 196.402C105.178 196.363 105.349 196.289 105.477 196.178C105.607 196.068 105.672 195.865 105.672 195.566C105.672 195.345 105.588 195.081 105.418 194.776C105.25 194.472 105.03 194.241 104.757 194.083C104.565 193.973 104.396 193.931 104.248 193.96C104.103 193.987 103.988 194.063 103.905 194.188C103.824 194.311 103.783 194.464 103.783 194.646C103.783 194.85 103.831 195.085 103.927 195.351C104.025 195.615 104.15 195.9 104.3 196.205C104.452 196.509 104.61 196.822 104.772 197.143L108.241 204.038L107.193 203.433L104.329 197.791C104.063 197.268 103.822 196.794 103.606 196.367C103.389 195.941 103.217 195.545 103.089 195.178C102.961 194.812 102.897 194.458 102.897 194.117C102.897 193.725 102.972 193.425 103.122 193.216C103.275 193.006 103.488 192.897 103.761 192.89C104.036 192.882 104.359 192.984 104.728 193.197C105.107 193.416 105.433 193.689 105.706 194.017C105.979 194.343 106.189 194.687 106.337 195.051C106.484 195.411 106.558 195.754 106.558 196.078C106.558 196.495 106.468 196.806 106.289 197.009C106.109 197.212 105.864 197.356 105.554 197.441L104.049 197.867C103.709 197.961 103.479 198.11 103.359 198.313C103.238 198.516 103.178 198.677 103.178 198.796C103.178 199.069 103.239 199.359 103.362 199.666C103.485 199.973 103.659 200.263 103.883 200.537C104.106 200.811 104.368 201.035 104.669 201.208C104.954 201.373 105.232 201.464 105.503 201.481C105.773 201.495 106.018 201.432 106.237 201.291C106.458 201.152 106.633 200.932 106.761 200.631C106.892 200.331 106.957 199.947 106.957 199.478L107.798 199.964C107.798 200.544 107.74 200.983 107.625 201.283C107.509 201.583 107.379 201.794 107.233 201.918C107.088 202.041 106.971 202.129 106.883 202.18C106.853 202.205 106.826 202.232 106.802 202.261C106.777 202.289 106.75 202.316 106.721 202.342C106.477 202.517 106.169 202.575 105.798 202.517C105.426 202.455 105.06 202.321 104.698 202.112ZM116.379 202.191C116.335 201.734 116.155 201.295 115.841 200.874C115.526 200.454 115.139 200.112 114.682 199.847C114.347 199.654 114.054 199.548 113.803 199.528C113.555 199.509 113.361 199.569 113.22 199.707C113.083 199.846 113.014 200.055 113.014 200.333C113.014 200.566 113.062 200.794 113.158 201.017C113.256 201.239 113.381 201.449 113.534 201.648C113.687 201.844 113.846 202.026 114.014 202.193C114.181 202.358 114.335 202.502 114.475 202.626L115.243 203.308C115.44 203.481 115.658 203.69 115.9 203.934C116.143 204.18 116.376 204.457 116.597 204.767C116.821 205.075 117.005 205.412 117.151 205.777C117.296 206.142 117.368 206.529 117.368 206.938C117.368 207.41 117.261 207.774 117.047 208.031C116.836 208.29 116.526 208.413 116.117 208.402C115.711 208.392 115.218 208.22 114.637 207.884C114.096 207.572 113.627 207.2 113.231 206.77C112.838 206.341 112.528 205.881 112.301 205.389C112.078 204.899 111.951 204.407 111.921 203.913L112.866 204.458C112.891 204.802 112.987 205.13 113.154 205.443C113.324 205.754 113.538 206.036 113.796 206.291C114.057 206.543 114.337 206.756 114.637 206.93C114.987 207.131 115.301 207.247 115.579 207.277C115.857 207.304 116.077 207.246 116.239 207.104C116.401 206.96 116.483 206.728 116.483 206.41C116.483 206.12 116.413 205.844 116.272 205.581C116.132 205.318 115.948 205.064 115.719 204.818C115.49 204.572 115.243 204.33 114.977 204.092L114.047 203.248C113.457 202.711 112.989 202.161 112.645 201.599C112.3 201.036 112.128 200.461 112.128 199.873C112.128 199.384 112.242 199.024 112.471 198.793C112.702 198.56 113.012 198.455 113.401 198.477C113.792 198.499 114.229 198.648 114.711 198.927C115.198 199.208 115.631 199.559 116.01 199.979C116.389 200.397 116.689 200.843 116.911 201.318C117.135 201.793 117.253 202.255 117.265 202.702L116.379 202.191ZM122.327 209.495L122.327 205.625L123.198 206.128L123.198 212.674L122.327 212.171L122.327 211.063L122.268 211.029C122.136 211.284 121.929 211.448 121.648 211.519C121.368 211.587 121.014 211.497 120.586 211.25C120.231 211.046 119.916 210.774 119.641 210.436C119.365 210.095 119.149 209.698 118.991 209.243C118.834 208.786 118.755 208.279 118.755 207.722L118.755 203.563L119.626 204.066L119.626 208.156C119.626 208.634 119.742 209.081 119.973 209.499C120.207 209.918 120.504 210.232 120.866 210.441C121.083 210.566 121.303 210.629 121.527 210.63C121.753 210.633 121.942 210.546 122.095 210.37C122.25 210.196 122.327 209.904 122.327 209.495ZM124.794 216.049L124.794 207.049L125.635 207.535L125.635 208.575L125.738 208.634C125.802 208.558 125.891 208.464 126.004 208.353C126.12 208.241 126.285 208.177 126.499 208.161C126.715 208.144 127.008 208.242 127.377 208.455C127.854 208.731 128.275 209.112 128.639 209.597C129.003 210.083 129.287 210.638 129.492 211.261C129.696 211.885 129.798 212.541 129.798 213.228C129.798 213.921 129.696 214.463 129.492 214.854C129.287 215.242 129.004 215.47 128.643 215.54C128.281 215.607 127.864 215.504 127.392 215.231C127.028 215.021 126.736 214.783 126.517 214.517C126.298 214.249 126.13 213.991 126.011 213.744C125.893 213.494 125.802 213.291 125.738 213.134L125.665 213.092L125.665 216.552L124.794 216.049ZM125.65 210.816C125.65 211.31 125.712 211.783 125.838 212.233C125.963 212.68 126.147 213.08 126.388 213.433C126.629 213.782 126.924 214.058 127.274 214.259C127.638 214.47 127.942 214.534 128.185 214.453C128.431 214.371 128.616 214.176 128.739 213.869C128.864 213.561 128.927 213.174 128.927 212.708C128.927 212.248 128.865 211.798 128.742 211.357C128.622 210.916 128.438 210.516 128.192 210.158C127.949 209.798 127.643 209.512 127.274 209.299C126.919 209.095 126.622 209.026 126.38 209.095C126.139 209.16 125.957 209.342 125.834 209.64C125.711 209.935 125.65 210.327 125.65 210.816ZM131.126 219.705L131.126 210.705L131.968 211.191L131.968 212.231L132.071 212.291C132.135 212.214 132.224 212.12 132.337 212.009C132.452 211.897 132.617 211.833 132.831 211.818C133.048 211.8 133.341 211.898 133.71 212.112C134.187 212.387 134.608 212.768 134.972 213.254C135.336 213.739 135.62 214.294 135.824 214.918C136.029 215.541 136.131 216.197 136.131 216.884C136.131 217.577 136.029 218.119 135.824 218.51C135.62 218.898 135.337 219.126 134.976 219.196C134.614 219.263 134.197 219.16 133.724 218.887C133.36 218.677 133.069 218.439 132.85 218.173C132.631 217.905 132.462 217.647 132.344 217.4C132.226 217.15 132.135 216.947 132.071 216.791L131.997 216.748L131.997 220.208L131.126 219.705ZM131.983 214.472C131.983 214.967 132.045 215.439 132.171 215.889C132.296 216.337 132.48 216.737 132.721 217.089C132.962 217.438 133.257 217.714 133.606 217.916C133.97 218.126 134.274 218.19 134.518 218.109C134.764 218.027 134.948 217.832 135.071 217.526C135.197 217.217 135.26 216.83 135.26 216.364C135.26 215.904 135.198 215.454 135.075 215.014C134.955 214.572 134.771 214.172 134.525 213.814C134.282 213.455 133.975 213.168 133.606 212.955C133.252 212.751 132.954 212.683 132.713 212.751C132.472 212.816 132.29 212.998 132.167 213.296C132.044 213.592 131.983 213.984 131.983 214.472ZM138.33 212.683L138.33 221.41L137.459 220.907L137.459 212.18L138.33 212.683ZM139.925 222.331L139.925 215.785L140.796 216.288L140.796 222.834L139.925 222.331ZM140.368 214.95C140.198 214.852 140.052 214.701 139.929 214.496C139.808 214.293 139.748 214.098 139.748 213.91C139.748 213.723 139.808 213.597 139.929 213.533C140.052 213.471 140.198 213.489 140.368 213.587C140.538 213.685 140.683 213.835 140.804 214.038C140.927 214.243 140.988 214.439 140.988 214.626C140.988 214.814 140.927 214.939 140.804 215.001C140.683 215.065 140.538 215.048 140.368 214.95ZM144.768 225.263C144.222 224.948 143.751 224.537 143.355 224.03C142.961 223.521 142.657 222.954 142.443 222.327C142.232 221.699 142.126 221.05 142.126 220.38C142.126 219.709 142.232 219.179 142.443 218.79C142.657 218.4 142.955 218.171 143.336 218.104C143.72 218.036 144.168 218.15 144.68 218.445C144.975 218.615 145.266 218.841 145.554 219.12C145.842 219.4 146.104 219.736 146.34 220.128C146.576 220.517 146.765 220.961 146.905 221.46C147.045 221.958 147.115 222.513 147.115 223.124L147.115 223.55L142.746 221.027L142.746 220.158L146.23 222.169C146.23 221.8 146.166 221.434 146.038 221.07C145.912 220.708 145.733 220.375 145.499 220.073C145.268 219.772 144.994 219.53 144.68 219.348C144.333 219.148 144.032 219.074 143.779 219.127C143.528 219.178 143.335 219.322 143.2 219.559C143.064 219.797 142.997 220.096 142.997 220.456L142.997 221.036C142.997 221.53 143.071 221.992 143.218 222.421C143.368 222.848 143.576 223.228 143.842 223.561C144.108 223.89 144.416 224.157 144.768 224.36C144.997 224.492 145.204 224.574 145.388 224.607C145.575 224.638 145.736 224.618 145.872 224.545C146.007 224.47 146.111 224.34 146.185 224.155L147.027 224.914C146.938 225.192 146.789 225.396 146.58 225.525C146.371 225.652 146.113 225.696 145.805 225.657C145.498 225.616 145.152 225.485 144.768 225.263ZM148.44 227.247L148.44 220.701L149.282 221.187L149.282 222.176L149.341 222.21C149.444 221.946 149.631 221.791 149.902 221.745C150.172 221.7 150.477 221.775 150.817 221.971C150.881 222.008 150.961 222.056 151.057 222.114C151.153 222.172 151.225 222.218 151.274 222.253L151.274 223.275C151.245 223.25 151.177 223.198 151.071 223.12C150.968 223.04 150.859 222.967 150.743 222.9C150.467 222.741 150.221 222.666 150.005 222.674C149.791 222.682 149.621 222.765 149.496 222.926C149.373 223.085 149.311 223.312 149.311 223.608L149.311 227.75L148.44 227.247ZM156.322 226.718L155.54 226.522C155.49 226.343 155.418 226.155 155.322 225.957C155.228 225.758 155.1 225.565 154.938 225.378C154.776 225.19 154.568 225.023 154.314 224.877C153.967 224.677 153.678 224.602 153.447 224.653C153.218 224.703 153.104 224.868 153.104 225.15C153.104 225.4 153.183 225.643 153.34 225.878C153.498 226.114 153.744 226.377 154.078 226.667L154.92 227.391C155.426 227.826 155.804 228.261 156.053 228.697C156.301 229.131 156.425 229.576 156.425 230.033C156.425 230.408 156.332 230.689 156.145 230.877C155.96 231.066 155.702 231.15 155.37 231.128C155.038 231.107 154.651 230.969 154.211 230.715C153.633 230.381 153.154 229.96 152.775 229.452C152.397 228.943 152.157 228.381 152.056 227.766L152.882 228.005C152.961 228.403 153.11 228.753 153.329 229.055C153.55 229.359 153.84 229.614 154.196 229.82C154.602 230.055 154.925 230.141 155.163 230.08C155.404 230.018 155.525 229.846 155.525 229.564C155.525 229.337 155.456 229.107 155.318 228.874C155.18 228.638 154.969 228.4 154.683 228.158L153.739 227.357C153.22 226.915 152.838 226.475 152.595 226.036C152.354 225.596 152.233 225.15 152.233 224.698C152.233 224.329 152.323 224.054 152.502 223.873C152.684 223.694 152.932 223.614 153.244 223.633C153.559 223.653 153.916 223.778 154.314 224.008C154.875 224.332 155.316 224.728 155.636 225.197C155.958 225.667 156.187 226.174 156.322 226.718Z" fill="white"/>
<defs>
<filter id="filter0_d_1421_3859" x="0.000782013" y="586.532" width="460.87" height="195.801" filterUnits="userSpaceOnUse" color-interpolation-filters="sRGB">
<feFlood flood-opacity="0" result="BackgroundImageFix"/>
<feColorMatrix in="SourceAlpha" type="matrix" values="0 0 0 0 0 0 0 0 0 0 0 0 0 0 0 0 0 0 127 0" result="hardAlpha"/>
<feOffset/>
<feGaussianBlur stdDeviation="10.4"/>
<feComposite in2="hardAlpha" operator="out"/>
<feColorMatrix type="matrix" values="0 0 0 0 0 0 0 0 0 0 0 0 0 0 0 0 0 0 1 0"/>
<feBlend mode="normal" in2="BackgroundImageFix" result="effect1_dropShadow_1421_3859"/>
<feBlend mode="normal" in="SourceGraphic" in2="effect1_dropShadow_1421_3859" result="shape"/>
</filter>
<linearGradient id="paint0_linear_1421_3859" x1="21.2344" y1="623.066" x2="267.389" y2="766.272" gradientUnits="userSpaceOnUse">
<stop offset="0.0213909" stop-color="#1E1E1E"/>
<stop offset="1" stop-color="#0D0D0D"/>
</linearGradient>
<linearGradient id="paint1_linear_1421_3859" x1="-19.3084" y1="568.697" x2="421.835" y2="617.584" gradientUnits="userSpaceOnUse">
<stop offset="0.0213909" stop-color="#024925"/>
<stop offset="1" stop-color="#0D0D0D"/>
</linearGradient>
<linearGradient id="paint2_linear_1421_3859" x1="462.804" y1="486.256" x2="96.688" y2="351.122" gradientUnits="userSpaceOnUse">
<stop stop-color="#042811"/>
<stop offset="1" stop-color="#00792E"/>
</linearGradient>
<linearGradient id="paint3_linear_1421_3859" x1="21.2383" y1="343.047" x2="267.393" y2="486.252" gradientUnits="userSpaceOnUse">
<stop offset="0.0213909" stop-color="#1E1E1E"/>
<stop offset="1" stop-color="#0D0D0D"/>
</linearGradient>
<linearGradient id="paint4_linear_1421_3859" x1="21.2383" y1="243.045" x2="267.393" y2="386.251" gradientUnits="userSpaceOnUse">
<stop offset="0.0213909" stop-color="#1E1E1E"/>
<stop offset="1" stop-color="#0D0D0D"/>
</linearGradient>
<linearGradient id="paint5_linear_1421_3859" x1="21.2383" y1="143.972" x2="267.393" y2="287.178" gradientUnits="userSpaceOnUse">
<stop offset="0.0213909" stop-color="#1E1E1E"/>
<stop offset="1" stop-color="#0D0D0D"/>
</linearGradient>
</defs>
</svg>
