<svg width="461" height="784" viewBox="0 0 461 784" fill="none" xmlns="http://www.w3.org/2000/svg">
<path d="M21.3008 635.677L21.6721 602.799L214.454 715.157C225.027 721.319 238.095 721.324 248.672 715.171L439.573 604.112V634.11C439.573 639.526 436.653 644.522 431.934 647.179L247.35 751.131C236.619 757.174 223.503 757.133 212.811 751.024L26.3389 644.472C23.188 642.672 21.2598 639.306 21.3008 635.677Z" fill="url(#paint0_linear_1421_3860)" stroke="#005F24"/>
<path d="M247.351 483.04L436.294 591.465C442.31 594.918 442.324 603.591 436.319 607.063L249.456 715.083C238.988 721.134 226.094 721.171 215.592 715.179L25.603 606.787C19.5464 603.332 19.5503 594.599 25.61 591.149L215.592 482.986C225.441 477.379 237.521 477.399 247.351 483.04Z" fill="url(#paint1_linear_1421_3860)" stroke="#005F24"/>
<path d="M40.1117 637.258L41.1155 637.838L41.9569 639.602L42.1783 640.071L43.4331 642.722L42.4293 642.142L41.6026 640.386L41.396 639.943L40.1117 637.258ZM43.7431 637.719C43.7431 638.639 43.5992 639.351 43.3113 639.856C43.0234 640.36 42.6286 640.649 42.1267 640.723C41.6248 640.797 41.0515 640.648 40.4069 640.275C39.7623 639.903 39.1891 639.391 38.6872 638.737C38.1853 638.084 37.7904 637.339 37.5025 636.502C37.2147 635.665 37.0708 634.787 37.0708 633.866C37.0708 632.946 37.2147 632.234 37.5025 631.729C37.7904 631.225 38.1853 630.936 38.6872 630.862C39.1891 630.788 39.7623 630.937 40.4069 631.31C41.0515 631.682 41.6248 632.195 42.1267 632.848C42.6286 633.501 43.0234 634.246 43.3113 635.083C43.5992 635.92 43.7431 636.798 43.7431 637.719ZM42.8574 637.207C42.8574 636.452 42.7479 635.751 42.5289 635.104C42.3124 634.459 42.0184 633.896 41.6469 633.415C41.2779 632.935 40.8645 632.562 40.4069 632.298C39.9493 632.034 39.5347 631.928 39.1632 631.981C38.7942 632.035 38.5002 632.258 38.2812 632.652C38.0647 633.047 37.9565 633.622 37.9565 634.378C37.9565 635.133 38.0647 635.834 38.2812 636.479C38.5002 637.125 38.7942 637.688 39.1632 638.168C39.5347 638.65 39.9493 639.023 40.4069 639.287C40.8645 639.551 41.2779 639.656 41.6469 639.602C42.0184 639.55 42.3124 639.326 42.5289 638.931C42.7479 638.538 42.8574 637.963 42.8574 637.207ZM48.7363 642.289L48.7363 638.42L49.6072 638.922L49.6072 645.468L48.7363 644.965L48.7363 643.857L48.6772 643.823C48.5444 644.079 48.3377 644.242 48.0572 644.313C47.7767 644.381 47.4225 644.292 46.9944 644.045C46.6401 643.84 46.3252 643.569 46.0496 643.231C45.7741 642.89 45.5576 642.492 45.4001 642.038C45.2426 641.58 45.1639 641.073 45.1639 640.516L45.1639 636.357L46.0349 636.86L46.0349 640.951C46.0349 641.428 46.1505 641.876 46.3818 642.293C46.6155 642.712 46.9132 643.026 47.2748 643.235C47.4914 643.36 47.7116 643.423 47.9354 643.425C48.1618 643.427 48.3512 643.341 48.5038 643.165C48.6588 642.99 48.7363 642.698 48.7363 642.289ZM52.8705 647.505C52.5113 647.298 52.1853 647.032 51.8925 646.706C51.5997 646.378 51.3672 646.015 51.195 645.618C51.0228 645.217 50.9367 644.804 50.9367 644.378C50.9367 644.003 51.0007 643.736 51.1286 643.576C51.2565 643.415 51.4275 643.329 51.6416 643.319C51.8556 643.309 52.0918 643.346 52.3501 643.429C52.6109 643.512 52.873 643.609 53.1362 643.721C53.4806 643.869 53.7599 643.992 53.9739 644.09C54.1904 644.187 54.3479 644.231 54.4463 644.222C54.5472 644.215 54.5976 644.13 54.5976 643.968L54.5976 643.934C54.5976 643.514 54.498 643.13 54.2987 642.782C54.1019 642.435 53.8029 642.146 53.4019 641.915C52.9861 641.674 52.6601 641.591 52.4239 641.665C52.1878 641.739 52.0217 641.868 51.9257 642.051L51.0991 641.233C51.2467 640.92 51.4435 640.724 51.6895 640.645C51.938 640.564 52.2087 640.564 52.5014 640.645C52.7967 640.724 53.087 640.846 53.3724 641.011C53.5545 641.116 53.7636 641.263 53.9998 641.45C54.2384 641.636 54.4685 641.87 54.6899 642.151C54.9138 642.434 55.0995 642.772 55.2471 643.167C55.3948 643.562 55.4686 644.02 55.4686 644.54L55.4686 648.852L54.5976 648.349L54.5976 647.463L54.5533 647.437C54.4943 647.545 54.3959 647.64 54.2581 647.723C54.1203 647.805 53.937 647.837 53.7082 647.819C53.4794 647.8 53.2002 647.696 52.8705 647.505ZM53.0033 646.679C53.3478 646.878 53.6381 646.967 53.8743 646.947C54.1129 646.929 54.2925 646.831 54.4131 646.653C54.5361 646.477 54.5976 646.253 54.5976 645.98L54.5976 645.059C54.5607 645.089 54.4795 645.089 54.3541 645.059C54.231 645.028 54.0883 644.981 53.926 644.919C53.766 644.855 53.6098 644.79 53.4573 644.725C53.3072 644.658 53.1854 644.605 53.0919 644.565C52.8656 644.468 52.654 644.402 52.4572 644.365C52.2628 644.326 52.1053 644.348 51.9848 644.429C51.8667 644.508 51.8076 644.676 51.8076 644.932C51.8076 645.281 51.9196 645.61 52.1435 645.918C52.3698 646.225 52.6564 646.478 53.0033 646.679ZM57.9292 641.545L57.9292 650.273L57.0582 649.77L57.0582 641.043L57.9292 641.545ZM59.5244 651.194L59.5244 644.648L60.3953 645.151L60.3953 651.696L59.5244 651.194ZM59.9672 643.813C59.7975 643.715 59.6511 643.564 59.5281 643.359C59.4075 643.156 59.3472 642.961 59.3472 642.773C59.3472 642.586 59.4075 642.46 59.5281 642.396C59.6511 642.334 59.7975 642.351 59.9672 642.449C60.137 642.547 60.2821 642.698 60.4027 642.901C60.5257 643.106 60.5872 643.302 60.5872 643.489C60.5872 643.677 60.5257 643.802 60.4027 643.864C60.2821 643.928 60.137 643.911 59.9672 643.813ZM64.4557 647.495L64.4557 648.348L61.5181 646.652L61.5181 645.799L64.4557 647.495ZM62.3743 644.725L63.2453 645.228L63.2453 651.467C63.2453 651.751 63.2809 651.985 63.3523 652.168C63.4261 652.35 63.5196 652.497 63.6328 652.611C63.7484 652.723 63.8702 652.816 63.9981 652.89C64.0941 652.946 64.1728 652.985 64.2343 653.009C64.2958 653.031 64.345 653.048 64.3819 653.061L64.5591 654.066C64.5 654.058 64.4176 654.036 64.3118 654C64.206 653.968 64.0719 653.904 63.9095 653.811C63.6635 653.669 63.4224 653.468 63.1862 653.21C62.9525 652.953 62.7581 652.654 62.6031 652.315C62.4506 651.977 62.3743 651.617 62.3743 651.237L62.3743 644.725ZM66.3268 657.576C66.1792 657.49 66.0475 657.4 65.9319 657.305C65.8163 657.213 65.7363 657.141 65.692 657.09L65.9135 656.331C66.125 656.516 66.312 656.647 66.4744 656.723C66.6368 656.8 66.7807 656.799 66.9062 656.721C67.0341 656.647 67.151 656.475 67.2568 656.203L67.4192 655.786L65.323 647.996L66.2677 648.541L67.8325 654.661L67.8915 654.695L69.4563 650.382L70.401 650.928L67.9949 657.039C67.8866 657.314 67.7525 657.517 67.5926 657.646C67.4327 657.778 67.2469 657.837 67.0354 657.823C66.8262 657.81 66.59 657.728 66.3268 657.576ZM80.6734 657.404L79.7582 656.876C79.7041 656.54 79.6093 656.219 79.474 655.91C79.3412 655.604 79.1788 655.317 78.9869 655.05C78.7974 654.781 78.5871 654.54 78.3558 654.327C78.1245 654.114 77.8834 653.935 77.6325 653.79C77.1749 653.526 76.7603 653.42 76.3888 653.473C76.0198 653.527 75.7257 653.751 75.5068 654.144C75.2903 654.539 75.182 655.114 75.182 655.87C75.182 656.626 75.2903 657.326 75.5068 657.971C75.7257 658.617 76.0198 659.18 76.3888 659.66C76.7603 660.142 77.1749 660.515 77.6325 660.779C77.8834 660.924 78.1245 661.023 78.3558 661.077C78.5871 661.131 78.7974 661.135 78.9869 661.088C79.1788 661.04 79.3412 660.939 79.474 660.785C79.6093 660.631 79.7041 660.418 79.7582 660.148L80.6734 660.677C80.6045 661.083 80.479 661.41 80.297 661.657C80.1149 661.904 79.8886 662.073 79.6179 662.164C79.3473 662.252 79.0435 662.263 78.7064 662.196C78.3718 662.131 78.0138 661.988 77.6325 661.768C76.9879 661.396 76.4146 660.883 75.9127 660.229C75.4108 659.576 75.016 658.831 74.7281 657.994C74.4402 657.158 74.2963 656.279 74.2963 655.359C74.2963 654.438 74.4402 653.726 74.7281 653.222C75.016 652.717 75.4108 652.428 75.9127 652.354C76.4146 652.28 76.9879 652.43 77.6325 652.802C78.0138 653.022 78.3718 653.293 78.7064 653.614C79.0435 653.936 79.3473 654.299 79.6179 654.702C79.8886 655.103 80.1149 655.532 80.297 655.989C80.479 656.444 80.6045 656.915 80.6734 657.404ZM84.3371 665.656C83.8254 665.36 83.3764 664.96 82.9901 664.456C82.6063 663.953 82.3061 663.386 82.0896 662.756C81.8756 662.127 81.7686 661.474 81.7686 660.798C81.7686 660.116 81.8756 659.582 82.0896 659.198C82.3061 658.814 82.6063 658.592 82.9901 658.533C83.3764 658.475 83.8254 658.593 84.3371 658.889C84.8488 659.184 85.2966 659.583 85.6804 660.086C86.0667 660.59 86.3669 661.158 86.5809 661.791C86.7974 662.424 86.9057 663.082 86.9057 663.764C86.9057 664.44 86.7974 664.968 86.5809 665.349C86.3669 665.731 86.0667 665.951 85.6804 666.009C85.2966 666.069 84.8488 665.951 84.3371 665.656ZM84.3371 664.752C84.7258 664.977 85.0457 665.046 85.2966 664.961C85.5476 664.876 85.7333 664.68 85.8539 664.375C85.9744 664.07 86.0347 663.698 86.0347 663.261C86.0347 662.823 85.9744 662.381 85.8539 661.933C85.7333 661.486 85.5476 661.073 85.2966 660.695C85.0457 660.318 84.7258 660.016 84.3371 659.792C83.9484 659.568 83.6285 659.499 83.3776 659.587C83.1266 659.676 82.9409 659.874 82.8203 660.182C82.6998 660.49 82.6395 660.863 82.6395 661.301C82.6395 661.738 82.6998 662.179 82.8203 662.624C82.9409 663.068 83.1266 663.478 83.3776 663.853C83.6285 664.228 83.9484 664.528 84.3371 664.752ZM89.1061 664.335L89.1061 668.273L88.2351 667.77L88.2351 661.224L89.0766 661.71L89.0766 662.733L89.1504 662.775C89.2832 662.52 89.485 662.369 89.7556 662.324C90.0262 662.275 90.3756 662.375 90.8037 662.622C91.1875 662.844 91.5233 663.128 91.8112 663.476C92.099 663.822 92.3229 664.224 92.4828 664.682C92.6428 665.138 92.7227 665.645 92.7227 666.202L92.7227 670.361L91.8518 669.858L91.8518 665.767C91.8518 665.253 91.7361 664.785 91.5049 664.365C91.2736 663.942 90.9562 663.614 90.5527 663.381C90.2747 663.22 90.0262 663.146 89.8073 663.159C89.5908 663.173 89.4198 663.278 89.2943 663.472C89.1688 663.667 89.1061 663.954 89.1061 664.335ZM96.7795 666.157L96.7795 667.01L93.8419 665.314L93.8419 664.461L96.7795 666.157ZM94.698 663.388L95.569 663.89L95.569 670.129C95.569 670.413 95.6047 670.647 95.676 670.83C95.7498 671.012 95.8433 671.16 95.9565 671.273C96.0721 671.385 96.1939 671.478 96.3218 671.552C96.4178 671.608 96.4965 671.647 96.558 671.672C96.6195 671.693 96.6687 671.71 96.7056 671.723L96.8828 672.728C96.8237 672.72 96.7413 672.698 96.6355 672.662C96.5297 672.63 96.3956 672.566 96.2333 672.473C95.9872 672.331 95.7461 672.13 95.5099 671.872C95.2762 671.615 95.0818 671.316 94.9268 670.977C94.7743 670.639 94.698 670.28 94.698 669.899L94.698 663.388ZM98.0896 673.459L98.0896 666.914L98.931 667.4L98.931 668.388L98.99 668.422C99.0934 668.158 99.2803 668.003 99.551 667.958C99.8216 667.912 100.127 667.988 100.466 668.184C100.53 668.221 100.61 668.268 100.706 668.326C100.802 668.385 100.875 668.431 100.924 668.465L100.924 669.488C100.894 669.462 100.827 669.41 100.721 669.332C100.618 669.253 100.508 669.179 100.392 669.113C100.117 668.954 99.8708 668.878 99.6543 668.887C99.4403 668.894 99.2705 668.978 99.145 669.138C99.022 669.297 98.9605 669.525 98.9605 669.82L98.9605 673.962L98.0896 673.459ZM104.087 677.058C103.575 676.763 103.126 676.363 102.74 675.858C102.356 675.356 102.056 674.789 101.839 674.158C101.625 673.529 101.518 672.876 101.518 672.2C101.518 671.518 101.625 670.985 101.839 670.6C102.056 670.216 102.356 669.995 102.74 669.935C103.126 669.877 103.575 669.995 104.087 670.291C104.598 670.586 105.046 670.986 105.43 671.488C105.816 671.993 106.116 672.561 106.33 673.193C106.547 673.826 106.655 674.484 106.655 675.166C106.655 675.842 106.547 676.37 106.33 676.751C106.116 677.133 105.816 677.353 105.43 677.412C105.046 677.471 104.598 677.353 104.087 677.058ZM104.087 676.155C104.475 676.379 104.795 676.449 105.046 676.363C105.297 676.278 105.483 676.083 105.603 675.777C105.724 675.472 105.784 675.101 105.784 674.663C105.784 674.226 105.724 673.783 105.603 673.336C105.483 672.888 105.297 672.476 105.046 672.098C104.795 671.72 104.475 671.419 104.087 671.194C103.698 670.97 103.378 670.902 103.127 670.99C102.876 671.078 102.69 671.276 102.57 671.584C102.449 671.892 102.389 672.265 102.389 672.703C102.389 673.14 102.449 673.581 102.57 674.026C102.69 674.471 102.876 674.88 103.127 675.255C103.378 675.63 103.698 675.93 104.087 676.155ZM108.856 670.948L108.856 679.675L107.985 679.172L107.985 670.445L108.856 670.948Z" fill="white"/>
<g opacity="0.5">
<path d="M227.611 625.743C226.926 626.139 225.996 626.362 225.027 626.362C224.058 626.362 223.128 626.139 222.443 625.743L201.768 613.807C201.083 613.411 200.698 612.875 200.698 612.315C200.698 611.755 201.083 611.219 201.768 610.823C202.454 610.427 203.383 610.205 204.353 610.205C205.322 610.205 206.252 610.427 206.937 610.823L227.611 622.759C228.297 623.155 228.682 623.692 228.682 624.251C228.682 624.811 228.297 625.348 227.611 625.743ZM237.949 616.791L217.274 604.855C216.589 604.459 215.659 604.237 214.69 604.237C213.721 604.237 212.791 604.459 212.106 604.855C211.42 605.25 211.035 605.787 211.035 606.347C211.035 606.906 211.42 607.443 212.106 607.839L232.78 619.775C233.466 620.171 234.395 620.393 235.364 620.393C236.334 620.393 237.263 620.171 237.949 619.775C238.634 619.38 239.019 618.843 239.019 618.283C239.019 617.724 238.634 617.187 237.949 616.791ZM276.714 615.299L222.443 646.632C221.072 647.424 219.213 647.868 217.274 647.868C215.336 647.868 213.476 647.424 212.106 646.632L165.588 619.775C164.217 618.984 163.447 617.91 163.447 616.791C163.447 615.672 164.217 614.598 165.588 613.807L219.859 582.474C221.229 581.682 223.089 581.238 225.027 581.238C226.966 581.238 228.825 581.682 230.196 582.474L241.909 589.237C244.987 589.136 248.067 589.412 250.947 590.047C253.827 590.681 256.443 591.66 258.623 592.918C260.803 594.177 262.498 595.687 263.597 597.35C264.696 599.013 265.174 600.791 265 602.568L276.714 609.331C278.084 610.122 278.854 611.196 278.854 612.315C278.854 613.434 278.084 614.508 276.714 615.299ZM232.78 595.902L253.455 607.839C256.196 606.256 257.736 604.109 257.736 601.871C257.736 599.632 256.196 597.485 253.455 595.902C250.713 594.319 246.995 593.43 243.117 593.43C239.24 593.43 235.522 594.319 232.78 595.902ZM271.545 612.315L262.904 607.326C261.832 608.624 260.384 609.806 258.623 610.823L256.039 612.315C255.354 612.711 254.424 612.933 253.455 612.933C252.485 612.933 251.556 612.711 250.87 612.315L225.027 597.394C224.342 596.999 223.957 596.462 223.957 595.902C223.957 595.343 224.342 594.806 225.027 594.41L227.611 592.918C229.372 591.902 231.421 591.066 233.668 590.447L225.027 585.458L170.756 616.791L217.274 643.648L271.545 612.315Z" fill="white"/>
</g>
<g filter="url(#filter0_d_1421_3860)">
<path d="M21.3008 487.862L21.6721 454.985L214.454 567.343C225.027 573.504 238.095 573.51 248.672 567.356L439.573 456.298V486.295C439.573 491.712 436.653 496.707 431.934 499.365L247.35 603.317C236.619 609.36 223.503 609.319 212.811 603.209L26.3389 496.658C23.188 494.857 21.2598 491.491 21.3008 487.862Z" fill="#101010"/>
<path d="M21.3008 487.862L21.6721 454.985L214.454 567.343C225.027 573.504 238.095 573.51 248.672 567.356L439.573 456.298V486.295C439.573 491.712 436.653 496.707 431.934 499.365L247.35 603.317C236.619 609.36 223.503 609.319 212.811 603.209L26.3389 496.658C23.188 494.857 21.2598 491.491 21.3008 487.862Z" fill="url(#paint2_linear_1421_3860)"/>
<path d="M21.3008 487.862L21.6721 454.985L214.454 567.343C225.027 573.504 238.095 573.51 248.672 567.356L439.573 456.298V486.295C439.573 491.712 436.653 496.707 431.934 499.365L247.35 603.317C236.619 609.36 223.503 609.319 212.811 603.209L26.3389 496.658C23.188 494.857 21.2598 491.491 21.3008 487.862Z" stroke="#404040"/>
</g>
<path d="M247.351 334.795L436.294 443.22C442.31 446.672 442.324 455.346 436.319 458.818L249.456 566.838C238.988 572.889 226.094 572.925 215.592 566.934L25.603 458.542C19.5464 455.087 19.5503 446.354 25.61 442.904L215.592 334.741C225.441 329.134 237.521 329.154 247.351 334.795Z" fill="#131313" stroke="#404040"/>
<path d="M36.7355 488.774L36.7355 480.046L39.2893 481.521C39.8823 481.863 40.3669 482.266 40.7434 482.731C41.1223 483.194 41.4027 483.687 41.5848 484.21C41.7669 484.732 41.8579 485.251 41.8579 485.765C41.8579 486.279 41.7669 486.694 41.5848 487.009C41.4052 487.326 41.1272 487.501 40.7508 487.533C40.3743 487.563 39.8921 487.408 39.3041 487.069L37.4736 486.012L37.4736 485.075L39.2746 486.114C39.6805 486.349 40.0065 486.456 40.2525 486.436C40.4986 486.416 40.6769 486.301 40.7877 486.089C40.9008 485.876 40.9574 485.595 40.9574 485.245C40.9574 484.896 40.9008 484.551 40.7877 484.21C40.6769 483.87 40.4973 483.551 40.2489 483.251C40.0004 482.948 39.6707 482.678 39.2598 482.441L37.6508 481.512L37.6508 489.302L36.7355 488.774ZM43.2141 492.514L43.2141 485.968L44.0555 486.454L44.0555 487.443L44.1146 487.477C44.2179 487.213 44.4049 487.058 44.6755 487.013C44.9462 486.967 45.2513 487.042 45.5908 487.238C45.6547 487.275 45.7347 487.323 45.8307 487.381C45.9266 487.439 45.9992 487.486 46.0484 487.52L46.0484 488.542C46.0189 488.517 45.9512 488.465 45.8454 488.387C45.7421 488.307 45.6326 488.234 45.517 488.167C45.2414 488.008 44.9954 487.933 44.7789 487.941C44.5648 487.949 44.3951 488.032 44.2696 488.193C44.1466 488.352 44.0851 488.579 44.0851 488.875L44.0851 493.017L43.2141 492.514ZM49.2111 496.113C48.6994 495.817 48.2504 495.417 47.8641 494.913C47.4803 494.41 47.1801 493.843 46.9636 493.213C46.7496 492.584 46.6426 491.931 46.6426 491.255C46.6426 490.573 46.7496 490.04 46.9636 489.655C47.1801 489.271 47.4803 489.049 47.8641 488.99C48.2504 488.932 48.6994 489.05 49.2111 489.346C49.7228 489.641 50.1706 490.04 50.5544 490.543C50.9407 491.047 51.2409 491.616 51.4549 492.248C51.6714 492.881 51.7797 493.539 51.7797 494.221C51.7797 494.897 51.6714 495.425 51.4549 495.806C51.2409 496.188 50.9407 496.408 50.5544 496.466C50.1706 496.526 49.7228 496.408 49.2111 496.113ZM49.2111 495.209C49.5998 495.434 49.9197 495.503 50.1706 495.418C50.4216 495.333 50.6073 495.138 50.7279 494.832C50.8484 494.527 50.9087 494.155 50.9087 493.718C50.9087 493.28 50.8484 492.838 50.7279 492.39C50.6073 491.943 50.4216 491.53 50.1706 491.152C49.9197 490.775 49.5998 490.473 49.2111 490.249C48.8224 490.025 48.5025 489.956 48.2516 490.044C48.0006 490.133 47.8149 490.331 47.6943 490.639C47.5738 490.947 47.5135 491.32 47.5135 491.758C47.5135 492.195 47.5738 492.636 47.6943 493.081C47.8149 493.525 48.0006 493.935 48.2516 494.31C48.5025 494.685 48.8224 494.985 49.2111 495.209ZM55.2496 499.599C54.7772 499.326 54.3602 498.948 53.9985 498.463C53.6369 497.976 53.3539 497.421 53.1497 496.797C52.9455 496.171 52.8434 495.511 52.8434 494.818C52.8434 494.13 52.9455 493.593 53.1497 493.205C53.3539 492.817 53.6381 492.59 54.0022 492.525C54.3664 492.46 54.7871 492.565 55.2644 492.84C55.6334 493.054 55.925 493.293 56.139 493.559C56.3555 493.823 56.5203 494.077 56.6335 494.321C56.7492 494.564 56.839 494.761 56.9029 494.911L56.9767 494.954L56.9767 491.733L57.8477 492.235L57.8477 500.963L57.0063 500.477L57.0063 499.471L56.9029 499.411C56.839 499.494 56.7479 499.592 56.6298 499.706C56.5117 499.816 56.3432 499.88 56.1242 499.895C55.9053 499.908 55.6137 499.809 55.2496 499.599ZM55.3677 498.764C55.7171 498.965 56.0123 499.031 56.2534 498.96C56.4945 498.886 56.6778 498.698 56.8033 498.395C56.9288 498.09 56.9915 497.69 56.9915 497.196C56.9915 496.707 56.93 496.244 56.807 495.806C56.684 495.366 56.5019 494.974 56.2608 494.63C56.0197 494.284 55.722 494.008 55.3677 493.804C54.9987 493.59 54.6911 493.522 54.4451 493.599C54.2015 493.674 54.0182 493.862 53.8952 494.164C53.7747 494.463 53.7144 494.843 53.7144 495.304C53.7144 495.769 53.7759 496.228 53.8989 496.68C54.0244 497.13 54.2089 497.538 54.4525 497.903C54.6985 498.267 55.0036 498.554 55.3677 498.764ZM63.1361 501.34L63.1361 497.47L64.007 497.973L64.007 504.519L63.1361 504.016L63.1361 502.908L63.077 502.874C62.9442 503.13 62.7375 503.293 62.4571 503.364C62.1766 503.432 61.8223 503.343 61.3942 503.095C61.0399 502.891 60.725 502.62 60.4494 502.282C60.1739 501.941 59.9574 501.543 59.7999 501.088C59.6425 500.631 59.5637 500.124 59.5637 499.567L59.5637 495.408L60.4347 495.911L60.4347 500.002C60.4347 500.479 60.5503 500.926 60.7816 501.344C61.0153 501.763 61.313 502.077 61.6747 502.286C61.8912 502.411 62.1114 502.474 62.3353 502.475C62.5616 502.478 62.7511 502.392 62.9036 502.215C63.0586 502.041 63.1361 501.749 63.1361 501.34ZM67.9051 506.906C67.3737 506.599 66.916 506.19 66.5322 505.678C66.1484 505.167 65.8532 504.597 65.6465 503.97C65.4399 503.342 65.3365 502.701 65.3365 502.048C65.3365 501.383 65.4423 500.857 65.6539 500.471C65.8679 500.083 66.1656 499.856 66.547 499.789C66.9308 499.721 67.3786 499.835 67.8903 500.13C68.2889 500.36 68.6481 500.653 68.9679 501.008C69.2878 501.363 69.5498 501.753 69.754 502.178C69.9582 502.602 70.0849 503.033 70.1341 503.471L69.2632 502.968C69.1967 502.631 69.0491 502.282 68.8203 501.92C68.594 501.556 68.2889 501.264 67.9051 501.042C67.5656 500.846 67.2679 500.776 67.012 500.833C66.7586 500.889 66.5605 501.06 66.4178 501.347C66.2776 501.632 66.2075 502.022 66.2075 502.516C66.2075 503.022 66.2764 503.502 66.4141 503.957C66.5544 504.413 66.7512 504.818 67.0046 505.171C67.2605 505.526 67.5606 505.803 67.9051 506.002C68.1314 506.133 68.3369 506.206 68.5214 506.222C68.7059 506.237 68.8621 506.197 68.9901 506.1C69.118 506.004 69.209 505.852 69.2632 505.644L70.1341 506.147C70.0849 506.505 69.9631 506.783 69.7688 506.98C69.5769 507.176 69.3222 507.274 69.0048 507.272C68.6899 507.269 68.3233 507.147 67.9051 506.906ZM73.8725 503.669L73.8725 504.521L70.9349 502.825L70.9349 501.973L73.8725 503.669ZM71.7911 500.899L72.6621 501.402L72.6621 507.641C72.6621 507.925 72.6977 508.158 72.7691 508.342C72.8429 508.524 72.9364 508.671 73.0496 508.785C73.1652 508.897 73.287 508.99 73.4149 509.064C73.5109 509.119 73.5896 509.159 73.6511 509.183C73.7126 509.205 73.7618 509.222 73.7987 509.234L73.9759 510.24C73.9168 510.232 73.8344 510.21 73.7286 510.174C73.6228 510.141 73.4887 510.078 73.3263 509.984C73.0803 509.842 72.8392 509.642 72.603 509.384C72.3693 509.127 72.1749 508.828 72.0199 508.489C71.8674 508.151 71.7911 507.791 71.7911 507.411L71.7911 500.899ZM75.1826 510.971L75.1826 504.426L76.0536 504.928L76.0536 511.474L75.1826 510.971ZM75.6255 503.59C75.4557 503.492 75.3093 503.341 75.1863 503.136C75.0658 502.933 75.0055 502.738 75.0055 502.551C75.0055 502.363 75.0658 502.237 75.1863 502.173C75.3093 502.111 75.4557 502.129 75.6255 502.227C75.7953 502.325 75.9404 502.475 76.061 502.678C76.184 502.883 76.2455 503.079 76.2455 503.266C76.2455 503.454 76.184 503.579 76.061 503.641C75.9404 503.705 75.7953 503.688 75.6255 503.59ZM79.9516 513.861C79.4399 513.565 78.9909 513.165 78.6046 512.661C78.2208 512.158 77.9206 511.592 77.7041 510.961C77.4901 510.332 77.3831 509.679 77.3831 509.003C77.3831 508.321 77.4901 507.788 77.7041 507.403C77.9206 507.019 78.2208 506.797 78.6046 506.738C78.9909 506.68 79.4399 506.798 79.9516 507.094C80.4634 507.389 80.9111 507.788 81.2949 508.291C81.6812 508.795 81.9814 509.364 82.1954 509.996C82.4119 510.629 82.5202 511.287 82.5202 511.969C82.5202 512.645 82.4119 513.173 82.1954 513.554C81.9814 513.936 81.6812 514.156 81.2949 514.214C80.9111 514.274 80.4634 514.156 79.9516 513.861ZM79.9516 512.957C80.3404 513.182 80.6602 513.251 80.9111 513.166C81.1621 513.081 81.3478 512.886 81.4684 512.58C81.589 512.275 81.6492 511.903 81.6492 511.466C81.6492 511.028 81.589 510.586 81.4684 510.138C81.3478 509.691 81.1621 509.278 80.9111 508.9C80.6602 508.523 80.3404 508.222 79.9516 507.997C79.5629 507.773 79.2431 507.704 78.9921 507.793C78.7412 507.881 78.5554 508.079 78.4349 508.387C78.3143 508.695 78.254 509.068 78.254 509.506C78.254 509.943 78.3143 510.384 78.4349 510.829C78.5554 511.273 78.7412 511.683 78.9921 512.058C79.2431 512.433 79.5629 512.733 79.9516 512.957ZM84.7206 512.54L84.7206 516.478L83.8497 515.975L83.8497 509.429L84.6911 509.915L84.6911 510.938L84.7649 510.981C84.8977 510.725 85.0995 510.574 85.3701 510.529C85.6408 510.481 85.9901 510.58 86.4182 510.827C86.802 511.049 87.1379 511.334 87.4257 511.682C87.7136 512.027 87.9374 512.429 88.0974 512.888C88.2573 513.343 88.3372 513.85 88.3372 514.407L88.3372 518.566L87.4663 518.063L87.4663 513.972C87.4663 513.458 87.3507 512.991 87.1194 512.57C86.8881 512.147 86.5708 511.819 86.1673 511.586C85.8893 511.425 85.6408 511.351 85.4218 511.364C85.2053 511.378 85.0343 511.483 84.9088 511.677C84.7833 511.872 84.7206 512.16 84.7206 512.54ZM92.9697 512.513L94.0621 513.144L96.6306 521.871L96.7192 521.922L99.2877 516.161L100.38 516.791L100.38 525.519L99.5239 525.024L99.5239 518.394L99.4501 518.351L97.0882 523.618L96.2616 523.141L93.8997 515.147L93.8259 515.104L93.8259 521.735L92.9697 521.24L92.9697 512.513ZM103.765 527.627C103.406 527.419 103.08 527.153 102.787 526.828C102.494 526.499 102.262 526.136 102.09 525.739C101.917 525.338 101.831 524.925 101.831 524.499C101.831 524.124 101.895 523.857 102.023 523.698C102.151 523.536 102.322 523.45 102.536 523.44C102.75 523.43 102.986 523.467 103.245 523.551C103.506 523.633 103.768 523.73 104.031 523.842C104.375 523.99 104.655 524.113 104.869 524.211C105.085 524.308 105.243 524.352 105.341 524.343C105.442 524.336 105.492 524.252 105.492 524.09L105.492 524.055C105.492 523.635 105.393 523.251 105.193 522.903C104.997 522.556 104.698 522.267 104.297 522.036C103.881 521.796 103.555 521.712 103.319 521.786C103.082 521.86 102.916 521.989 102.82 522.172L101.994 521.354C102.141 521.041 102.338 520.845 102.584 520.766C102.833 520.685 103.103 520.685 103.396 520.766C103.691 520.845 103.982 520.967 104.267 521.132C104.449 521.237 104.658 521.384 104.894 521.571C105.133 521.757 105.363 521.991 105.585 522.272C105.808 522.555 105.994 522.894 106.142 523.288C106.289 523.683 106.363 524.141 106.363 524.661L106.363 528.973L105.492 528.47L105.492 527.584L105.448 527.558C105.389 527.666 105.291 527.761 105.153 527.844C105.015 527.926 104.832 527.958 104.603 527.94C104.374 527.921 104.095 527.817 103.765 527.627ZM103.898 526.8C104.242 526.999 104.533 527.088 104.769 527.068C105.008 527.05 105.187 526.952 105.308 526.774C105.431 526.598 105.492 526.374 105.492 526.101L105.492 525.18C105.455 525.21 105.374 525.21 105.249 525.18C105.126 525.149 104.983 525.102 104.821 525.04C104.661 524.976 104.504 524.911 104.352 524.846C104.202 524.779 104.08 524.726 103.987 524.686C103.76 524.59 103.549 524.523 103.352 524.486C103.157 524.448 103 524.469 102.879 524.55C102.761 524.629 102.702 524.797 102.702 525.053C102.702 525.402 102.814 525.731 103.038 526.039C103.264 526.346 103.551 526.6 103.898 526.8ZM108.824 526.456L108.824 530.394L107.953 529.891L107.953 523.345L108.794 523.831L108.794 524.854L108.868 524.897C109.001 524.641 109.203 524.49 109.473 524.445C109.744 524.397 110.093 524.496 110.521 524.743C110.905 524.965 111.241 525.25 111.529 525.598C111.817 525.943 112.041 526.345 112.201 526.804C112.361 527.259 112.44 527.766 112.44 528.323L112.44 532.482L111.57 531.979L111.57 527.888C111.57 527.374 111.454 526.907 111.223 526.486C110.991 526.063 110.674 525.735 110.271 525.502C109.992 525.341 109.744 525.267 109.525 525.28C109.309 525.294 109.138 525.399 109.012 525.593C108.887 525.788 108.824 526.076 108.824 526.456ZM115.7 534.517C115.341 534.31 115.015 534.043 114.722 533.718C114.429 533.39 114.197 533.027 114.025 532.629C113.852 532.229 113.766 531.815 113.766 531.389C113.766 531.014 113.83 530.747 113.958 530.588C114.086 530.426 114.257 530.34 114.471 530.33C114.685 530.32 114.921 530.357 115.18 530.441C115.441 530.524 115.703 530.621 115.966 530.733C116.31 530.881 116.589 531.004 116.804 531.102C117.02 531.198 117.177 531.242 117.276 531.234C117.377 531.227 117.427 531.142 117.427 530.98L117.427 530.946C117.427 530.526 117.328 530.141 117.128 529.793C116.931 529.447 116.633 529.158 116.232 528.926C115.816 528.686 115.49 528.603 115.254 528.677C115.017 528.751 114.851 528.879 114.755 529.063L113.929 528.244C114.076 527.932 114.273 527.736 114.519 527.656C114.768 527.575 115.038 527.575 115.331 527.656C115.626 527.736 115.917 527.858 116.202 528.023C116.384 528.128 116.593 528.274 116.829 528.462C117.068 528.648 117.298 528.881 117.519 529.163C117.743 529.445 117.929 529.784 118.077 530.179C118.224 530.574 118.298 531.031 118.298 531.551L118.298 535.864L117.427 535.361L117.427 534.475L117.383 534.449C117.324 534.557 117.225 534.652 117.088 534.734C116.95 534.817 116.767 534.849 116.538 534.83C116.309 534.812 116.03 534.707 115.7 534.517ZM115.833 533.69C116.177 533.889 116.468 533.979 116.704 533.959C116.943 533.94 117.122 533.842 117.243 533.665C117.366 533.489 117.427 533.264 117.427 532.992L117.427 532.071C117.39 532.101 117.309 532.101 117.184 532.071C117.061 532.04 116.918 531.993 116.756 531.93C116.596 531.867 116.439 531.802 116.287 531.737C116.137 531.67 116.015 531.617 115.922 531.577C115.695 531.48 115.484 531.413 115.287 531.377C115.092 531.338 114.935 531.359 114.814 531.44C114.696 531.52 114.637 531.688 114.637 531.943C114.637 532.293 114.749 532.622 114.973 532.93C115.199 533.237 115.486 533.49 115.833 533.69ZM122.176 540.693C121.755 540.451 121.394 540.179 121.091 539.88C120.788 539.583 120.536 539.275 120.334 538.957C120.135 538.643 119.976 538.338 119.858 538.043L120.552 537.881C120.631 538.046 120.73 538.24 120.851 538.463C120.972 538.688 121.136 538.919 121.346 539.153C121.557 539.392 121.834 539.61 122.176 539.807C122.634 540.071 123.011 540.161 123.309 540.078C123.607 539.994 123.755 539.679 123.755 539.134L123.755 537.804L123.682 537.762C123.618 537.844 123.527 537.939 123.409 538.047C123.293 538.154 123.126 538.212 122.907 538.222C122.69 538.23 122.397 538.128 122.028 537.915C121.571 537.651 121.16 537.289 120.796 536.828C120.434 536.37 120.147 535.84 119.936 535.241C119.727 534.643 119.622 534.003 119.622 533.321C119.622 532.651 119.724 532.126 119.928 531.747C120.133 531.365 120.417 531.142 120.781 531.08C121.145 531.014 121.566 531.12 122.043 531.395C122.412 531.608 122.705 531.848 122.921 532.115C123.14 532.381 123.308 532.637 123.423 532.882C123.541 533.127 123.632 533.324 123.696 533.475L123.785 533.526L123.785 532.486L124.626 532.972L124.626 539.705C124.626 540.267 124.516 540.661 124.294 540.885C124.075 541.114 123.78 541.203 123.409 541.154C123.039 541.108 122.629 540.955 122.176 540.693ZM122.146 537.08C122.496 537.282 122.791 537.36 123.032 537.314C123.273 537.269 123.456 537.109 123.582 536.835C123.707 536.561 123.77 536.182 123.77 535.699C123.77 535.228 123.709 534.776 123.586 534.344C123.463 533.912 123.281 533.524 123.039 533.181C122.798 532.837 122.501 532.563 122.146 532.358C121.777 532.145 121.47 532.076 121.224 532.149C120.98 532.225 120.797 532.409 120.674 532.701C120.553 532.995 120.493 533.364 120.493 533.807C120.493 534.262 120.555 534.699 120.678 535.12C120.803 535.539 120.988 535.918 121.231 536.257C121.477 536.595 121.782 536.87 122.146 537.08ZM128.597 541.946C128.051 541.631 127.58 541.22 127.184 540.713C126.79 540.204 126.486 539.637 126.272 539.01C126.061 538.382 125.955 537.733 125.955 537.063C125.955 536.392 126.061 535.862 126.272 535.473C126.486 535.083 126.784 534.854 127.165 534.787C127.549 534.719 127.997 534.833 128.509 535.128C128.804 535.299 129.095 535.524 129.383 535.804C129.671 536.083 129.933 536.419 130.169 536.811C130.406 537.201 130.594 537.644 130.734 538.143C130.874 538.642 130.944 539.196 130.944 539.807L130.944 540.233L126.575 537.71L126.575 536.841L130.059 538.853C130.059 538.483 129.995 538.117 129.867 537.753C129.741 537.391 129.562 537.059 129.328 536.756C129.097 536.455 128.824 536.213 128.509 536.032C128.162 535.831 127.862 535.757 127.608 535.81C127.357 535.861 127.164 536.005 127.029 536.242C126.894 536.48 126.826 536.779 126.826 537.139L126.826 537.719C126.826 538.213 126.9 538.675 127.047 539.104C127.197 539.532 127.405 539.911 127.671 540.244C127.937 540.573 128.245 540.84 128.597 541.043C128.826 541.175 129.033 541.257 129.217 541.29C129.404 541.321 129.565 541.301 129.701 541.228C129.836 541.153 129.941 541.023 130.014 540.838L130.856 541.597C130.767 541.875 130.618 542.079 130.409 542.208C130.2 542.335 129.942 542.379 129.634 542.34C129.327 542.299 128.981 542.168 128.597 541.946ZM132.269 543.93L132.269 537.384L133.111 537.87L133.111 538.893L133.185 538.936C133.303 538.654 133.493 538.493 133.757 538.452C134.02 538.408 134.336 538.492 134.705 538.706C135.079 538.921 135.39 539.199 135.639 539.539C135.89 539.877 136.085 540.261 136.225 540.691L136.284 540.725C136.43 540.471 136.647 540.328 136.938 540.297C137.228 540.263 137.576 540.363 137.982 540.598C138.489 540.89 138.903 541.313 139.226 541.865C139.548 542.415 139.709 543.075 139.709 543.845L139.709 548.225L138.838 547.723L138.838 543.342C138.838 542.859 138.724 542.448 138.495 542.108C138.266 541.769 137.997 541.509 137.687 541.331C137.288 541.1 136.98 541.061 136.761 541.213C136.542 541.362 136.432 541.649 136.432 542.072L136.432 546.333L135.546 545.822L135.546 541.339C135.546 540.967 135.442 540.607 135.233 540.259C135.024 539.908 134.754 539.637 134.424 539.447C134.198 539.316 133.987 539.264 133.79 539.289C133.595 539.316 133.438 539.419 133.317 539.596C133.199 539.772 133.14 540.021 133.14 540.342L133.14 544.433L132.269 543.93ZM143.678 550.653C143.132 550.338 142.661 549.927 142.265 549.42C141.871 548.911 141.567 548.344 141.353 547.717C141.142 547.089 141.036 546.44 141.036 545.77C141.036 545.099 141.142 544.57 141.353 544.18C141.567 543.79 141.865 543.561 142.246 543.494C142.63 543.426 143.078 543.54 143.59 543.835C143.885 544.006 144.177 544.231 144.464 544.511C144.752 544.79 145.014 545.126 145.25 545.518C145.487 545.908 145.675 546.351 145.815 546.85C145.955 547.349 146.025 547.903 146.025 548.514L146.025 548.94L141.656 546.418L141.656 545.548L145.14 547.56C145.14 547.19 145.076 546.824 144.948 546.46C144.822 546.098 144.643 545.766 144.409 545.463C144.178 545.162 143.905 544.92 143.59 544.739C143.243 544.538 142.943 544.464 142.689 544.517C142.438 544.568 142.245 544.712 142.11 544.949C141.975 545.187 141.907 545.486 141.907 545.847L141.907 546.426C141.907 546.92 141.981 547.382 142.128 547.811C142.278 548.239 142.486 548.619 142.752 548.951C143.018 549.28 143.326 549.547 143.678 549.75C143.907 549.882 144.114 549.964 144.298 549.997C144.485 550.028 144.646 550.008 144.782 549.935C144.917 549.86 145.022 549.73 145.095 549.545L145.937 550.304C145.848 550.582 145.699 550.786 145.49 550.915C145.281 551.042 145.023 551.086 144.715 551.047C144.408 551.006 144.062 550.875 143.678 550.653ZM148.221 549.202L148.221 553.14L147.35 552.637L147.35 546.092L148.192 546.577L148.192 547.6L148.266 547.643C148.398 547.387 148.6 547.236 148.871 547.191C149.141 547.143 149.491 547.242 149.919 547.489C150.303 547.711 150.638 547.996 150.926 548.344C151.214 548.689 151.438 549.091 151.598 549.55C151.758 550.006 151.838 550.512 151.838 551.069L151.838 555.228L150.967 554.725L150.967 550.634C150.967 550.12 150.851 549.653 150.62 549.232C150.389 548.809 150.071 548.481 149.668 548.248C149.39 548.087 149.141 548.013 148.922 548.026C148.706 548.04 148.535 548.145 148.409 548.339C148.284 548.534 148.221 548.822 148.221 549.202ZM155.895 551.025L155.895 551.877L152.957 550.181L152.957 549.329L155.895 551.025ZM153.813 548.255L154.684 548.758L154.684 554.996C154.684 555.28 154.72 555.514 154.791 555.697C154.865 555.879 154.958 556.027 155.072 556.14C155.187 556.253 155.309 556.346 155.437 556.419C155.533 556.475 155.612 556.515 155.673 556.539C155.735 556.56 155.784 556.577 155.821 556.59L155.998 557.596C155.939 557.587 155.856 557.565 155.751 557.53C155.645 557.497 155.511 557.434 155.348 557.34C155.102 557.198 154.861 556.998 154.625 556.739C154.391 556.482 154.197 556.184 154.042 555.844C153.889 555.506 153.813 555.147 153.813 554.766L153.813 548.255Z" fill="white"/>
<path d="M21.3008 384.452L21.6721 351.574L214.454 463.932C225.027 470.094 238.095 470.099 248.672 463.946L439.573 352.888V382.885C439.573 388.301 436.653 393.297 431.934 395.955L247.35 499.907C236.619 505.95 223.503 505.909 212.811 499.799L26.3389 393.248C23.188 391.447 21.2598 388.081 21.3008 384.452Z" fill="#101010"/>
<path d="M21.3008 384.452L21.6721 351.574L214.454 463.932C225.027 470.094 238.095 470.099 248.672 463.946L439.573 352.888V382.885C439.573 388.301 436.653 393.297 431.934 395.955L247.35 499.907C236.619 505.95 223.503 505.909 212.811 499.799L26.3389 393.248C23.188 391.447 21.2598 388.081 21.3008 384.452Z" fill="url(#paint3_linear_1421_3860)"/>
<path d="M21.3008 384.452L21.6721 351.574L214.454 463.932C225.027 470.094 238.095 470.099 248.672 463.946L439.573 352.888V382.885C439.573 388.301 436.653 393.297 431.934 395.955L247.35 499.907C236.619 505.95 223.503 505.909 212.811 499.799L26.3389 393.248C23.188 391.447 21.2598 388.081 21.3008 384.452Z" stroke="#404040"/>
<path d="M247.351 231.385L436.294 339.81C442.31 343.262 442.324 351.936 436.319 355.408L249.456 463.427C238.988 469.479 226.094 469.515 215.592 463.524L25.603 355.132C19.5464 351.677 19.5503 342.944 25.61 339.494L215.592 231.331C225.441 225.724 237.521 225.744 247.351 231.385Z" fill="#131313" stroke="#404040"/>
<path d="M36.7355 376.963L37.8279 377.594L40.3965 386.321L40.485 386.372L43.0536 380.611L44.146 381.242L44.146 389.969L43.2898 389.475L43.2898 382.844L43.216 382.801L40.8541 388.068L40.0274 387.591L37.6655 379.597L37.5917 379.554L37.5917 386.185L36.7355 385.691L36.7355 376.963ZM47.531 392.077C47.1718 391.869 46.8458 391.603 46.5531 391.278C46.2603 390.95 46.0278 390.587 45.8556 390.189C45.6833 389.788 45.5972 389.375 45.5972 388.949C45.5972 388.574 45.6612 388.307 45.7891 388.148C45.9171 387.986 46.0881 387.9 46.3021 387.89C46.5162 387.88 46.7523 387.917 47.0107 388.001C47.2715 388.083 47.5335 388.18 47.7967 388.293C48.1412 388.44 48.4204 388.563 48.6345 388.661C48.851 388.758 49.0084 388.802 49.1069 388.793C49.2077 388.786 49.2582 388.702 49.2582 388.54L49.2582 388.506C49.2582 388.085 49.1585 387.701 48.9592 387.353C48.7624 387.006 48.4635 386.717 48.0625 386.486C47.6467 386.246 47.3207 386.163 47.0845 386.237C46.8483 386.31 46.6822 386.439 46.5863 386.622L45.7596 385.804C45.9072 385.491 46.1041 385.295 46.3501 385.216C46.5986 385.135 46.8692 385.135 47.162 385.216C47.4572 385.295 47.7475 385.418 48.0329 385.582C48.215 385.688 48.4241 385.834 48.6603 386.021C48.899 386.207 49.129 386.441 49.3504 386.722C49.5743 387.005 49.7601 387.344 49.9077 387.739C50.0553 388.134 50.1291 388.591 50.1291 389.111L50.1291 393.423L49.2582 392.92L49.2582 392.034L49.2139 392.009C49.1548 392.116 49.0564 392.212 48.9186 392.294C48.7809 392.376 48.5976 392.408 48.3688 392.39C48.14 392.371 47.8607 392.267 47.531 392.077ZM47.6639 391.25C48.0083 391.449 48.2986 391.538 48.5348 391.518C48.7735 391.5 48.9531 391.402 49.0736 391.224C49.1967 391.048 49.2582 390.824 49.2582 390.551L49.2582 389.631C49.2213 389.661 49.1401 389.661 49.0146 389.631C48.8916 389.599 48.7489 389.553 48.5865 389.49C48.4266 389.426 48.2703 389.362 48.1178 389.296C47.9677 389.229 47.8459 389.176 47.7525 389.136C47.5261 389.04 47.3145 388.973 47.1177 388.936C46.9233 388.898 46.7659 388.919 46.6453 389C46.5272 389.08 46.4682 389.247 46.4682 389.503C46.4682 389.852 46.5801 390.181 46.804 390.489C47.0304 390.796 47.317 391.05 47.6639 391.25ZM54.0216 395.807C53.4902 395.5 53.0326 395.091 52.6488 394.58C52.265 394.068 51.9697 393.499 51.7631 392.871C51.5564 392.243 51.4531 391.602 51.4531 390.949C51.4531 390.284 51.5588 389.759 51.7704 389.372C51.9845 388.985 52.2822 388.757 52.6635 388.691C53.0473 388.622 53.4951 388.736 54.0068 389.031C54.4054 389.262 54.7646 389.554 55.0845 389.909C55.4043 390.264 55.6663 390.654 55.8705 391.079C56.0747 391.504 56.2014 391.935 56.2506 392.372L55.3797 391.869C55.3133 391.533 55.1656 391.183 54.9368 390.821C54.7105 390.458 54.4054 390.165 54.0216 389.943C53.6821 389.747 53.3844 389.678 53.1285 389.735C52.8751 389.79 52.6771 389.961 52.5344 390.248C52.3941 390.534 52.324 390.923 52.324 391.418C52.324 391.923 52.3929 392.404 52.5307 392.858C52.6709 393.314 52.8677 393.719 53.1211 394.073C53.377 394.428 53.6772 394.705 54.0216 394.904C54.248 395.034 54.4534 395.107 54.6379 395.123C54.8224 395.139 54.9787 395.098 55.1066 395.002C55.2345 394.905 55.3256 394.753 55.3797 394.546L56.2506 395.048C56.2014 395.406 56.0796 395.684 55.8853 395.882C55.6934 396.078 55.4387 396.175 55.1214 396.173C54.8064 396.171 54.4399 396.048 54.0216 395.807ZM58.3948 394.258L58.3948 398.195L57.5238 397.693L57.5238 388.965L58.3948 389.468L58.3948 392.673L58.4686 392.715C58.6015 392.454 58.8007 392.301 59.0665 392.255C59.3346 392.208 59.6914 392.313 60.1367 392.57C60.5229 392.794 60.8612 393.078 61.1516 393.425C61.4419 393.769 61.667 394.17 61.8269 394.629C61.9893 395.086 62.0705 395.596 62.0705 396.159L62.0705 400.318L61.1995 399.815L61.1995 395.724C61.1995 395.204 61.0827 394.735 60.8489 394.316C60.6177 393.895 60.2966 393.566 59.8857 393.329C59.6003 393.164 59.3445 393.086 59.1181 393.095C58.8942 393.105 58.7171 393.205 58.5867 393.397C58.4588 393.59 58.3948 393.877 58.3948 394.258ZM63.6638 401.238L63.6638 394.692L64.5348 395.195L64.5348 401.74L63.6638 401.238ZM64.1067 393.857C63.9369 393.759 63.7905 393.608 63.6675 393.403C63.547 393.2 63.4867 393.005 63.4867 392.817C63.4867 392.63 63.547 392.504 63.6675 392.44C63.7905 392.377 63.9369 392.395 64.1067 392.493C64.2764 392.591 64.4216 392.742 64.5422 392.945C64.6652 393.15 64.7267 393.346 64.7267 393.533C64.7267 393.721 64.6652 393.846 64.5422 393.908C64.4216 393.972 64.2764 393.955 64.1067 393.857ZM67.0009 399.227L67.0009 403.164L66.13 402.661L66.13 396.116L66.9714 396.602L66.9714 397.624L67.0452 397.667C67.1781 397.411 67.3798 397.261 67.6504 397.215C67.9211 397.167 68.2704 397.267 68.6985 397.514C69.0823 397.735 69.4182 398.02 69.706 398.368C69.9939 398.713 70.2178 399.115 70.3777 399.574C70.5376 400.03 70.6176 400.536 70.6176 401.093L70.6176 405.252L69.7466 404.749L69.7466 400.659C69.7466 400.144 69.631 399.677 69.3997 399.257C69.1684 398.833 68.8511 398.505 68.4476 398.272C68.1696 398.112 67.9211 398.038 67.7021 398.051C67.4856 398.065 67.3146 398.169 67.1891 398.364C67.0637 398.558 67.0009 398.846 67.0009 399.227ZM74.5857 407.68C74.0395 407.364 73.5684 406.953 73.1723 406.446C72.7786 405.938 72.4748 405.37 72.2607 404.744C72.0491 404.116 71.9434 403.467 71.9434 402.796C71.9434 402.126 72.0491 401.596 72.2607 401.207C72.4748 400.816 72.7725 400.587 73.1538 400.521C73.5376 400.452 73.9854 400.566 74.4971 400.862C74.7924 401.032 75.0839 401.257 75.3718 401.537C75.6596 401.817 75.9217 402.153 76.1578 402.545C76.394 402.934 76.5822 403.378 76.7225 403.876C76.8627 404.375 76.9328 404.93 76.9328 405.54L76.9328 405.967L72.5633 403.444L72.5633 402.575L76.0471 404.586C76.0471 404.217 75.9832 403.85 75.8552 403.487C75.7298 403.124 75.5501 402.792 75.3164 402.489C75.0852 402.188 74.8121 401.947 74.4971 401.765C74.1502 401.565 73.8501 401.491 73.5967 401.543C73.3457 401.594 73.1526 401.739 73.0173 401.976C72.882 402.213 72.8143 402.512 72.8143 402.873L72.8143 403.452C72.8143 403.947 72.8881 404.408 73.0357 404.837C73.1858 405.265 73.3937 405.645 73.6594 405.977C73.9251 406.307 74.2339 406.573 74.5857 406.776C74.8145 406.908 75.0212 406.991 75.2057 407.023C75.3927 407.055 75.5538 407.034 75.6892 406.962C75.8245 406.886 75.929 406.756 76.0028 406.572L76.8443 407.33C76.7557 407.609 76.6068 407.813 76.3977 407.942C76.1886 408.068 75.9303 408.112 75.6227 408.074C75.3152 408.033 74.9695 407.901 74.5857 407.68ZM81.2986 402.692L82.391 403.322L84.9596 412.05L85.0481 412.101L87.6167 406.339L88.7091 406.97L88.7091 415.697L87.8529 415.203L87.8529 408.572L87.7791 408.53L85.4172 413.797L84.5905 413.32L82.2286 405.325L82.1548 405.283L82.1548 411.913L81.2986 411.419L81.2986 402.692ZM92.7289 418.155C92.2171 417.859 91.7681 417.459 91.3819 416.955C90.9981 416.452 90.6979 415.885 90.4814 415.255C90.2674 414.626 90.1603 413.973 90.1603 413.297C90.1603 412.615 90.2674 412.081 90.4814 411.697C90.6979 411.313 90.9981 411.091 91.3819 411.032C91.7681 410.974 92.2171 411.092 92.7289 411.388C93.2406 411.683 93.6884 412.082 94.0722 412.585C94.4585 413.089 94.7586 413.657 94.9727 414.29C95.1892 414.923 95.2974 415.581 95.2974 416.263C95.2974 416.939 95.1892 417.467 94.9727 417.848C94.7586 418.23 94.4585 418.45 94.0722 418.508C93.6884 418.568 93.2406 418.45 92.7289 418.155ZM92.7289 417.251C93.1176 417.476 93.4374 417.545 93.6884 417.46C93.9393 417.375 94.1251 417.18 94.2457 416.874C94.3662 416.569 94.4265 416.197 94.4265 415.76C94.4265 415.322 94.3662 414.88 94.2457 414.432C94.1251 413.985 93.9393 413.572 93.6884 413.194C93.4374 412.817 93.1176 412.515 92.7289 412.291C92.3402 412.067 92.0203 411.998 91.7694 412.086C91.5184 412.175 91.3327 412.373 91.2121 412.681C91.0916 412.989 91.0313 413.362 91.0313 413.8C91.0313 414.237 91.0916 414.678 91.2121 415.123C91.3327 415.567 91.5184 415.977 91.7694 416.352C92.0203 416.727 92.3402 417.027 92.7289 417.251ZM97.4979 416.834L97.4979 420.772L96.6269 420.269L96.6269 413.723L97.4683 414.209L97.4683 415.232L97.5422 415.275C97.675 415.019 97.8768 414.868 98.1474 414.823C98.418 414.775 98.7674 414.874 99.1955 415.121C99.5793 415.343 99.9151 415.627 100.203 415.975C100.491 416.321 100.715 416.723 100.875 417.181C101.035 417.637 101.115 418.144 101.115 418.701L101.115 422.86L100.244 422.357L100.244 418.266C100.244 417.752 100.128 417.284 99.8967 416.864C99.6654 416.441 99.348 416.113 98.9445 415.88C98.6665 415.719 98.418 415.645 98.1991 415.658C97.9825 415.672 97.8116 415.777 97.6861 415.971C97.5606 416.166 97.4979 416.453 97.4979 416.834ZM102.706 423.779L102.706 417.233L103.577 417.736L103.577 424.281L102.706 423.779ZM103.149 416.398C102.979 416.3 102.833 416.149 102.71 415.944C102.589 415.741 102.529 415.546 102.529 415.358C102.529 415.171 102.589 415.045 102.71 414.981C102.833 414.919 102.979 414.936 103.149 415.034C103.319 415.132 103.464 415.283 103.584 415.486C103.707 415.691 103.769 415.887 103.769 416.074C103.769 416.262 103.707 416.387 103.584 416.449C103.464 416.513 103.319 416.496 103.149 416.398ZM107.637 420.08L107.637 420.933L104.7 419.237L104.7 418.384L107.637 420.08ZM105.556 417.31L106.427 417.813L106.427 424.052C106.427 424.336 106.463 424.57 106.534 424.753C106.608 424.935 106.701 425.082 106.814 425.196C106.93 425.308 107.052 425.401 107.18 425.475C107.276 425.531 107.354 425.57 107.416 425.594C107.477 425.616 107.527 425.633 107.564 425.646L107.741 426.651C107.682 426.643 107.599 426.621 107.493 426.585C107.388 426.553 107.254 426.489 107.091 426.396C106.845 426.254 106.604 426.053 106.368 425.795C106.134 425.538 105.94 425.239 105.785 424.9C105.632 424.562 105.556 424.202 105.556 423.822L105.556 417.31ZM111.189 428.813C110.678 428.517 110.229 428.118 109.842 427.613C109.459 427.11 109.158 426.544 108.942 425.913C108.728 425.284 108.621 424.631 108.621 423.955C108.621 423.273 108.728 422.74 108.942 422.355C109.158 421.971 109.459 421.75 109.842 421.69C110.229 421.632 110.678 421.75 111.189 422.046C111.701 422.341 112.149 422.74 112.533 423.243C112.919 423.748 113.219 424.316 113.433 424.948C113.65 425.581 113.758 426.239 113.758 426.921C113.758 427.597 113.65 428.125 113.433 428.506C113.219 428.888 112.919 429.108 112.533 429.167C112.149 429.226 111.701 429.108 111.189 428.813ZM111.189 427.909C111.578 428.134 111.898 428.203 112.149 428.118C112.4 428.033 112.586 427.838 112.706 427.532C112.827 427.227 112.887 426.855 112.887 426.418C112.887 425.98 112.827 425.538 112.706 425.091C112.586 424.643 112.4 424.23 112.149 423.853C111.898 423.475 111.578 423.174 111.189 422.949C110.801 422.725 110.481 422.657 110.23 422.745C109.979 422.833 109.793 423.031 109.673 423.339C109.552 423.647 109.492 424.02 109.492 424.458C109.492 424.895 109.552 425.336 109.673 425.781C109.793 426.225 109.979 426.635 110.23 427.01C110.481 427.385 110.801 427.685 111.189 427.909ZM115.087 430.927L115.087 424.382L115.929 424.867L115.929 425.856L115.988 425.89C116.091 425.626 116.278 425.471 116.549 425.426C116.82 425.38 117.125 425.455 117.464 425.651C117.528 425.688 117.608 425.736 117.704 425.794C117.8 425.852 117.873 425.899 117.922 425.933L117.922 426.955C117.892 426.93 117.825 426.878 117.719 426.8C117.615 426.72 117.506 426.647 117.39 426.58C117.115 426.421 116.869 426.346 116.652 426.355C116.438 426.362 116.268 426.445 116.143 426.606C116.02 426.765 115.958 426.992 115.958 427.288L115.958 431.43L115.087 430.927ZM118.954 433.159L118.954 426.614L119.825 427.117L119.825 433.662L118.954 433.159ZM119.397 425.779C119.227 425.681 119.081 425.529 118.958 425.325C118.837 425.122 118.777 424.926 118.777 424.739C118.777 424.551 118.837 424.426 118.958 424.362C119.081 424.299 119.227 424.317 119.397 424.415C119.567 424.513 119.712 424.664 119.832 424.867C119.955 425.071 120.017 425.267 120.017 425.455C120.017 425.642 119.955 425.767 119.832 425.83C119.712 425.894 119.567 425.877 119.397 425.779ZM122.291 431.149L122.291 435.086L121.42 434.583L121.42 428.038L122.262 428.524L122.262 429.546L122.336 429.589C122.468 429.333 122.67 429.183 122.941 429.137C123.211 429.089 123.561 429.188 123.989 429.436C124.373 429.657 124.708 429.942 124.996 430.29C125.284 430.635 125.508 431.037 125.668 431.496C125.828 431.952 125.908 432.458 125.908 433.015L125.908 437.174L125.037 436.671L125.037 432.58C125.037 432.066 124.921 431.599 124.69 431.178C124.459 430.755 124.141 430.427 123.738 430.194C123.46 430.034 123.211 429.96 122.992 429.972C122.776 429.987 122.605 430.091 122.479 430.286C122.354 430.48 122.291 430.768 122.291 431.149ZM129.787 442.005C129.367 441.762 129.005 441.491 128.702 441.191C128.4 440.894 128.148 440.587 127.946 440.268C127.747 439.955 127.588 439.65 127.47 439.354L128.164 439.192C128.242 439.357 128.342 439.551 128.463 439.774C128.583 440 128.748 440.23 128.957 440.464C129.169 440.703 129.445 440.921 129.787 441.119C130.245 441.383 130.623 441.473 130.92 441.389C131.218 441.305 131.367 440.991 131.367 440.445L131.367 439.116L131.293 439.073C131.229 439.156 131.138 439.251 131.02 439.359C130.904 439.465 130.737 439.523 130.518 439.533C130.302 439.542 130.009 439.44 129.64 439.227C129.182 438.962 128.771 438.6 128.407 438.14C128.046 437.681 127.759 437.152 127.547 436.553C127.338 435.955 127.234 435.315 127.234 434.633C127.234 433.962 127.336 433.437 127.54 433.058C127.744 432.676 128.028 432.454 128.392 432.391C128.757 432.326 129.177 432.431 129.655 432.707C130.024 432.92 130.316 433.16 130.533 433.427C130.752 433.692 130.919 433.948 131.035 434.194C131.153 434.438 131.244 434.636 131.308 434.786L131.396 434.837L131.396 433.798L132.238 434.283L132.238 441.016C132.238 441.579 132.127 441.972 131.906 442.197C131.687 442.425 131.392 442.515 131.02 442.465C130.651 442.42 130.24 442.266 129.787 442.005ZM129.758 438.391C130.107 438.593 130.403 438.671 130.644 438.626C130.885 438.58 131.068 438.42 131.194 438.146C131.319 437.872 131.382 437.494 131.382 437.011C131.382 436.539 131.32 436.087 131.197 435.656C131.074 435.224 130.892 434.836 130.651 434.492C130.41 434.148 130.112 433.874 129.758 433.67C129.389 433.457 129.081 433.387 128.835 433.461C128.592 433.536 128.408 433.72 128.285 434.013C128.165 434.307 128.105 434.675 128.105 435.119C128.105 435.573 128.166 436.011 128.289 436.431C128.415 436.85 128.599 437.229 128.843 437.569C129.089 437.907 129.394 438.181 129.758 438.391Z" fill="white"/>
<path d="M21.3008 284.442L21.6721 251.565L214.454 363.923C225.027 370.084 238.095 370.09 248.672 363.936L439.573 252.878V282.875C439.573 288.292 436.653 293.287 431.934 295.945L247.35 399.897C236.619 405.94 223.503 405.899 212.811 399.789L26.3389 293.238C23.188 291.437 21.2598 288.071 21.3008 284.442Z" fill="#101010"/>
<path d="M21.3008 284.442L21.6721 251.565L214.454 363.923C225.027 370.084 238.095 370.09 248.672 363.936L439.573 252.878V282.875C439.573 288.292 436.653 293.287 431.934 295.945L247.35 399.897C236.619 405.94 223.503 405.899 212.811 399.789L26.3389 293.238C23.188 291.437 21.2598 288.071 21.3008 284.442Z" fill="url(#paint4_linear_1421_3860)"/>
<path d="M21.3008 284.442L21.6721 251.565L214.454 363.923C225.027 370.084 238.095 370.09 248.672 363.936L439.573 252.878V282.875C439.573 288.292 436.653 293.287 431.934 295.945L247.35 399.897C236.619 405.94 223.503 405.899 212.811 399.789L26.3389 293.238C23.188 291.437 21.2598 288.071 21.3008 284.442Z" stroke="#404040"/>
<path d="M247.351 131.375L436.294 239.8C442.31 243.252 442.324 251.926 436.319 255.398L249.456 363.418C238.988 369.469 226.094 369.506 215.592 363.514L25.603 255.122C19.5464 251.667 19.5503 242.934 25.61 239.484L215.592 131.321C225.441 125.714 237.521 125.734 247.351 131.375Z" fill="#131313" stroke="#404040"/>
<path d="M36.9385 278.52L38.0309 279.151L40.5994 287.878L40.688 287.929L43.2566 282.168L44.3489 282.798L44.3489 291.526L43.4928 291.031L43.4928 284.401L43.4189 284.358L41.0571 289.625L40.2304 289.148L37.8685 281.153L37.7947 281.111L37.7947 287.741L36.9385 287.247L36.9385 278.52ZM47.734 293.633C47.3748 293.426 47.0488 293.16 46.756 292.834C46.4633 292.506 46.2308 292.143 46.0585 291.746C45.8863 291.345 45.8002 290.932 45.8002 290.506C45.8002 290.131 45.8642 289.863 45.9921 289.704C46.12 289.542 46.291 289.456 46.5051 289.447C46.7191 289.437 46.9553 289.474 47.2137 289.557C47.4744 289.64 47.7365 289.737 47.9997 289.849C48.3442 289.997 48.6234 290.12 48.8374 290.218C49.054 290.314 49.2114 290.358 49.3098 290.35C49.4107 290.343 49.4611 290.258 49.4611 290.096L49.4611 290.062C49.4611 289.642 49.3615 289.258 49.1622 288.91C48.9654 288.563 48.6665 288.274 48.2654 288.042C47.8496 287.802 47.5236 287.719 47.2875 287.793C47.0513 287.867 46.8852 287.996 46.7892 288.179L45.9626 287.361C46.1102 287.048 46.307 286.852 46.5531 286.773C46.8016 286.692 47.0722 286.692 47.365 286.773C47.6602 286.852 47.9505 286.974 48.2359 287.139C48.418 287.244 48.6271 287.39 48.8633 287.578C49.1019 287.764 49.332 287.998 49.5534 288.279C49.7773 288.562 49.963 288.9 50.1107 289.295C50.2583 289.69 50.3321 290.148 50.3321 290.667L50.3321 294.98L49.4611 294.477L49.4611 293.591L49.4168 293.565C49.3578 293.673 49.2594 293.768 49.1216 293.851C48.9838 293.933 48.8005 293.965 48.5717 293.947C48.3429 293.928 48.0637 293.824 47.734 293.633ZM47.8669 292.807C48.2113 293.006 48.5016 293.095 48.7378 293.075C48.9765 293.057 49.1561 292.959 49.2766 292.781C49.3996 292.605 49.4611 292.381 49.4611 292.108L49.4611 291.187C49.4242 291.217 49.343 291.217 49.2176 291.187C49.0946 291.156 48.9519 291.109 48.7895 291.047C48.6296 290.983 48.4733 290.918 48.3208 290.853C48.1707 290.786 48.0489 290.733 47.9554 290.693C47.7291 290.596 47.5175 290.53 47.3207 290.493C47.1263 290.454 46.9689 290.476 46.8483 290.557C46.7302 290.636 46.6712 290.804 46.6712 291.059C46.6712 291.409 46.7831 291.738 47.007 292.046C47.2333 292.353 47.52 292.606 47.8669 292.807ZM54.387 290.776L54.387 291.628L51.4494 289.932L51.4494 289.08L54.387 290.776ZM52.3055 288.006L53.1765 288.509L53.1765 294.747C53.1765 295.031 53.2122 295.265 53.2835 295.448C53.3573 295.63 53.4508 295.778 53.564 295.891C53.6796 296.004 53.8014 296.097 53.9293 296.17C54.0253 296.226 54.104 296.266 54.1655 296.29C54.227 296.311 54.2762 296.328 54.3132 296.341L54.4903 297.347C54.4312 297.338 54.3488 297.316 54.243 297.281C54.1372 297.248 54.0032 297.185 53.8408 297.091C53.5947 296.949 53.3536 296.749 53.1174 296.49C52.8837 296.233 52.6894 295.935 52.5344 295.595C52.3818 295.257 52.3055 294.898 52.3055 294.517L52.3055 288.006ZM58.0128 299.551C57.4666 299.235 56.9955 298.824 56.5994 298.317C56.2057 297.809 55.9019 297.241 55.6878 296.615C55.4763 295.987 55.3705 295.338 55.3705 294.667C55.3705 293.997 55.4763 293.467 55.6878 293.078C55.9019 292.687 56.1996 292.458 56.5809 292.392C56.9647 292.324 57.4125 292.437 57.9243 292.733C58.2195 292.903 58.511 293.128 58.7989 293.408C59.0867 293.688 59.3488 294.024 59.585 294.416C59.8211 294.805 60.0094 295.249 60.1496 295.748C60.2898 296.246 60.36 296.801 60.36 297.412L60.36 297.838L55.9905 295.315L55.9905 294.446L59.4742 296.457C59.4742 296.088 59.4103 295.721 59.2823 295.358C59.1569 294.995 58.9773 294.663 58.7435 294.36C58.5123 294.059 58.2392 293.818 57.9243 293.636C57.5774 293.436 57.2772 293.362 57.0238 293.414C56.7728 293.466 56.5797 293.61 56.4444 293.847C56.3091 294.084 56.2414 294.383 56.2414 294.744L56.2414 295.324C56.2414 295.818 56.3152 296.279 56.4628 296.708C56.6129 297.136 56.8208 297.516 57.0865 297.848C57.3522 298.178 57.661 298.444 58.0128 298.647C58.2416 298.779 58.4483 298.862 58.6328 298.895C58.8198 298.926 58.981 298.905 59.1163 298.833C59.2516 298.757 59.3562 298.627 59.43 298.443L60.2714 299.201C60.1828 299.48 60.034 299.684 59.8248 299.813C59.6157 299.939 59.3574 299.983 59.0498 299.945C58.7423 299.904 58.3966 299.772 58.0128 299.551ZM61.6848 301.534L61.6848 294.989L62.5262 295.475L62.5262 296.463L62.5853 296.498C62.6886 296.233 62.8756 296.078 63.1462 296.033C63.4169 295.988 63.722 296.063 64.0615 296.259C64.1254 296.296 64.2054 296.343 64.3014 296.402C64.3973 296.46 64.4699 296.506 64.5191 296.54L64.5191 297.563C64.4896 297.537 64.4219 297.485 64.3161 297.407C64.2128 297.328 64.1033 297.255 63.9877 297.188C63.7121 297.029 63.4661 296.953 63.2496 296.962C63.0355 296.969 62.8658 297.053 62.7403 297.213C62.6173 297.373 62.5558 297.6 62.5558 297.895L62.5558 302.037L61.6848 301.534ZM65.5515 303.767L65.5515 297.221L66.4224 297.724L66.4224 304.27L65.5515 303.767ZM65.9943 296.386C65.8246 296.288 65.6782 296.137 65.5552 295.932C65.4346 295.729 65.3744 295.534 65.3744 295.346C65.3744 295.159 65.4346 295.033 65.5552 294.969C65.6782 294.907 65.8246 294.925 65.9943 295.023C66.1641 295.121 66.3093 295.271 66.4298 295.474C66.5528 295.679 66.6143 295.875 66.6143 296.062C66.6143 296.25 66.5528 296.375 66.4298 296.437C66.3093 296.501 66.1641 296.484 65.9943 296.386ZM69.6857 306.307C69.3265 306.1 69.0005 305.833 68.7077 305.508C68.415 305.18 68.1825 304.817 68.0103 304.419C67.838 304.019 67.7519 303.605 67.7519 303.179C67.7519 302.804 67.8159 302.537 67.9438 302.378C68.0718 302.216 68.2428 302.13 68.4568 302.12C68.6708 302.11 68.907 302.147 69.1654 302.231C69.4262 302.314 69.6882 302.411 69.9514 302.523C70.2959 302.671 70.5751 302.794 70.7892 302.892C71.0057 302.988 71.1631 303.032 71.2615 303.024C71.3624 303.017 71.4128 302.932 71.4128 302.77L71.4128 302.736C71.4128 302.316 71.3132 301.931 71.1139 301.583C70.9171 301.237 70.6182 300.948 70.2171 300.716C69.8014 300.476 69.4754 300.393 69.2392 300.467C69.003 300.541 68.8369 300.669 68.741 300.853L67.9143 300.034C68.0619 299.722 68.2587 299.526 68.5048 299.446C68.7533 299.365 69.0239 299.365 69.3167 299.446C69.6119 299.526 69.9022 299.648 70.1876 299.813C70.3697 299.918 70.5788 300.064 70.815 300.252C71.0536 300.438 71.2837 300.672 71.5051 300.953C71.729 301.235 71.9147 301.574 72.0624 301.969C72.21 302.364 72.2838 302.821 72.2838 303.341L72.2838 307.654L71.4128 307.151L71.4128 306.265L71.3686 306.239C71.3095 306.347 71.2111 306.442 71.0733 306.525C70.9356 306.607 70.7523 306.639 70.5235 306.62C70.2946 306.602 70.0154 306.498 69.6857 306.307ZM69.8186 305.48C70.163 305.679 70.4533 305.769 70.6895 305.749C70.9282 305.73 71.1078 305.632 71.2283 305.455C71.3513 305.279 71.4128 305.054 71.4128 304.782L71.4128 303.861C71.3759 303.891 71.2948 303.891 71.1693 303.861C71.0463 303.83 70.9036 303.783 70.7412 303.721C70.5813 303.657 70.425 303.592 70.2725 303.527C70.1224 303.46 70.0006 303.407 69.9071 303.367C69.6808 303.27 69.4692 303.203 69.2724 303.167C69.078 303.128 68.9206 303.15 68.8 303.23C68.6819 303.31 68.6229 303.478 68.6229 303.733C68.6229 304.083 68.7348 304.412 68.9587 304.72C69.185 305.027 69.4717 305.28 69.8186 305.48ZM74.7444 300.347L74.7444 309.074L73.8735 308.572L73.8735 299.844L74.7444 300.347ZM80.3548 307.234L79.5724 307.038C79.5232 306.859 79.4506 306.671 79.3547 306.473C79.2612 306.275 79.1333 306.081 78.9709 305.894C78.8085 305.706 78.6006 305.539 78.3472 305.393C78.0003 305.193 77.7112 305.118 77.4799 305.169C77.2511 305.219 77.1367 305.385 77.1367 305.666C77.1367 305.916 77.2155 306.159 77.3729 306.395C77.5304 306.63 77.7764 306.893 78.111 307.183L78.9524 307.907C79.4593 308.342 79.8369 308.777 80.0854 309.213C80.3339 309.647 80.4581 310.092 80.4581 310.549C80.4581 310.924 80.3646 311.206 80.1777 311.393C79.9931 311.582 79.7348 311.666 79.4027 311.645C79.0705 311.623 78.6843 311.485 78.2439 311.231C77.6657 310.897 77.1872 310.476 76.8083 309.968C76.4294 309.459 76.1895 308.897 76.0886 308.282L76.9153 308.521C76.994 308.919 77.1429 309.269 77.3619 309.571C77.5833 309.875 77.8724 310.13 78.2291 310.336C78.6351 310.571 78.9574 310.657 79.196 310.596C79.4371 310.534 79.5577 310.362 79.5577 310.081C79.5577 309.853 79.4888 309.623 79.351 309.39C79.2132 309.154 79.0016 308.916 78.7162 308.674L77.7715 307.873C77.2524 307.431 76.871 306.991 76.6275 306.552C76.3863 306.112 76.2658 305.666 76.2658 305.214C76.2658 304.845 76.3556 304.57 76.5352 304.39C76.7173 304.211 76.9645 304.13 77.277 304.149C77.5919 304.169 77.9486 304.294 78.3472 304.524C78.9082 304.848 79.3485 305.244 79.6684 305.713C79.9907 306.183 80.2195 306.69 80.3548 307.234ZM86.8325 316.173C86.3355 315.886 85.9074 315.534 85.5482 315.116C85.189 314.698 84.9122 314.25 84.7178 313.771C84.5235 313.293 84.4263 312.818 84.4263 312.346C84.4263 311.982 84.4927 311.698 84.6256 311.494C84.7609 311.288 84.9466 311.132 85.1828 311.027C85.4215 310.921 85.6958 310.835 86.0058 310.769L87.0982 310.463C87.3122 310.424 87.4832 310.35 87.6112 310.239C87.7415 310.129 87.8067 309.926 87.8067 309.627C87.8067 309.406 87.7219 309.142 87.5521 308.837C87.3848 308.533 87.1646 308.302 86.8915 308.144C86.6996 308.034 86.5299 307.992 86.3822 308.021C86.2371 308.048 86.1227 308.124 86.039 308.249C85.9578 308.372 85.9172 308.525 85.9172 308.707C85.9172 308.911 85.9652 309.146 86.0612 309.412C86.1596 309.676 86.2838 309.961 86.4339 310.267C86.5864 310.57 86.7439 310.883 86.9063 311.204L90.3753 318.099L89.3272 317.494L86.4634 311.852C86.1977 311.329 85.9566 310.855 85.7401 310.428C85.5236 310.002 85.3514 309.606 85.2234 309.24C85.0955 308.873 85.0315 308.519 85.0315 308.178C85.0315 307.786 85.1066 307.486 85.2566 307.277C85.4092 307.067 85.622 306.958 85.8951 306.951C86.1706 306.943 86.4929 307.045 86.862 307.258C87.2409 307.477 87.5669 307.75 87.84 308.078C88.1131 308.404 88.3234 308.748 88.471 309.112C88.6186 309.472 88.6925 309.815 88.6925 310.139C88.6925 310.556 88.6027 310.867 88.4231 311.07C88.2434 311.273 87.9986 311.417 87.6887 311.502L86.1829 311.928C85.8434 312.022 85.6134 312.171 85.4928 312.374C85.3723 312.577 85.312 312.738 85.312 312.857C85.312 313.13 85.3735 313.42 85.4965 313.727C85.6195 314.034 85.793 314.324 86.0169 314.598C86.2408 314.872 86.5028 315.096 86.8029 315.269C87.0883 315.434 87.3664 315.525 87.637 315.542C87.9076 315.556 88.1524 315.493 88.3714 315.352C88.5928 315.213 88.7675 314.993 88.8954 314.692C89.0258 314.392 89.091 314.008 89.091 313.539L89.9324 314.025C89.9324 314.605 89.8746 315.044 89.759 315.344C89.6434 315.644 89.513 315.855 89.3678 315.979C89.2226 316.102 89.1058 316.19 89.0172 316.241C88.9877 316.267 88.9606 316.294 88.936 316.322C88.9114 316.35 88.8844 316.377 88.8548 316.403C88.6113 316.578 88.3037 316.636 87.9322 316.578C87.5607 316.517 87.1941 316.382 86.8325 316.173ZM95.2956 312.212L95.2956 320.94L94.3804 320.411L94.3804 311.684L95.2956 312.212ZM97.8835 318.496L97.8835 322.434L97.0126 321.931L97.0126 315.385L97.854 315.871L97.854 316.894L97.9278 316.937C98.0607 316.681 98.2624 316.53 98.533 316.485C98.8037 316.437 99.153 316.536 99.5811 316.783C99.9649 317.005 100.301 317.29 100.589 317.638C100.876 317.983 101.1 318.385 101.26 318.844C101.42 319.3 101.5 319.806 101.5 320.363L101.5 324.522L100.629 324.019L100.629 319.928C100.629 319.414 100.514 318.947 100.282 318.526C100.051 318.103 99.7337 317.775 99.3302 317.542C99.0522 317.381 98.8037 317.307 98.5847 317.32C98.3682 317.334 98.1972 317.439 98.0717 317.633C97.9463 317.828 97.8835 318.116 97.8835 318.496ZM107.524 321.454L105.428 326.789L104.542 326.278L102.446 318.522L103.391 319.068L104.955 325.187L105.014 325.221L106.579 320.909L107.524 321.454ZM110.847 330.055C110.301 329.739 109.83 329.328 109.434 328.821C109.04 328.312 108.736 327.745 108.522 327.119C108.311 326.491 108.205 325.842 108.205 325.171C108.205 324.501 108.311 323.971 108.522 323.582C108.736 323.191 109.034 322.962 109.415 322.896C109.799 322.827 110.247 322.941 110.759 323.237C111.054 323.407 111.345 323.632 111.633 323.912C111.921 324.192 112.183 324.528 112.419 324.92C112.655 325.309 112.844 325.753 112.984 326.251C113.124 326.75 113.194 327.305 113.194 327.915L113.194 328.342L108.825 325.819L108.825 324.95L112.309 326.961C112.309 326.592 112.245 326.225 112.117 325.862C111.991 325.499 111.812 325.167 111.578 324.864C111.347 324.563 111.073 324.322 110.759 324.14C110.412 323.94 110.112 323.866 109.858 323.918C109.607 323.969 109.414 324.114 109.279 324.351C109.143 324.588 109.076 324.887 109.076 325.248L109.076 325.827C109.076 326.322 109.15 326.783 109.297 327.212C109.447 327.64 109.655 328.02 109.921 328.352C110.187 328.682 110.495 328.948 110.847 329.151C111.076 329.283 111.283 329.366 111.467 329.398C111.654 329.43 111.815 329.409 111.951 329.337C112.086 329.261 112.19 329.131 112.264 328.947L113.106 329.705C113.017 329.984 112.868 330.188 112.659 330.317C112.45 330.443 112.192 330.487 111.884 330.449C111.577 330.408 111.231 330.276 110.847 330.055ZM115.39 328.604L115.39 332.541L114.519 332.038L114.519 325.493L115.361 325.979L115.361 327.001L115.434 327.044C115.567 326.788 115.769 326.638 116.04 326.592C116.31 326.544 116.66 326.643 117.088 326.891C117.471 327.112 117.807 327.397 118.095 327.745C118.383 328.09 118.607 328.492 118.767 328.951C118.927 329.407 119.007 329.913 119.007 330.47L119.007 334.629L118.136 334.126L118.136 330.036C118.136 329.521 118.02 329.054 117.789 328.634C117.558 328.21 117.24 327.882 116.837 327.649C116.559 327.489 116.31 327.415 116.091 327.428C115.875 327.442 115.704 327.546 115.578 327.741C115.453 327.935 115.39 328.223 115.39 328.604ZM123.063 330.426L123.063 331.278L120.126 329.582L120.126 328.73L123.063 330.426ZM120.982 327.656L121.853 328.159L121.853 334.398C121.853 334.682 121.889 334.915 121.96 335.099C122.034 335.28 122.127 335.428 122.24 335.542C122.356 335.654 122.478 335.747 122.606 335.821C122.702 335.876 122.781 335.916 122.842 335.94C122.904 335.961 122.953 335.979 122.99 335.991L123.167 336.997C123.108 336.988 123.025 336.966 122.92 336.931C122.814 336.898 122.68 336.835 122.517 336.741C122.271 336.599 122.03 336.399 121.794 336.14C121.56 335.883 121.366 335.585 121.211 335.246C121.058 334.907 120.982 334.548 120.982 334.167L120.982 327.656ZM126.616 339.159C126.104 338.863 125.655 338.463 125.268 337.959C124.885 337.456 124.585 336.889 124.368 336.259C124.154 335.629 124.047 334.977 124.047 334.301C124.047 333.619 124.154 333.085 124.368 332.7C124.585 332.317 124.885 332.095 125.268 332.036C125.655 331.977 126.104 332.096 126.616 332.392C127.127 332.687 127.575 333.086 127.959 333.589C128.345 334.093 128.645 334.661 128.859 335.294C129.076 335.927 129.184 336.585 129.184 337.267C129.184 337.943 129.076 338.471 128.859 338.852C128.645 339.234 128.345 339.454 127.959 339.512C127.575 339.572 127.127 339.454 126.616 339.159ZM126.616 338.255C127.004 338.48 127.324 338.549 127.575 338.464C127.826 338.379 128.012 338.183 128.132 337.878C128.253 337.573 128.313 337.201 128.313 336.764C128.313 336.326 128.253 335.884 128.132 335.436C128.012 334.989 127.826 334.576 127.575 334.198C127.324 333.82 127.004 333.519 126.616 333.295C126.227 333.07 125.907 333.002 125.656 333.09C125.405 333.178 125.219 333.377 125.099 333.685C124.978 333.993 124.918 334.366 124.918 334.803C124.918 335.241 124.978 335.682 125.099 336.127C125.219 336.571 125.405 336.981 125.656 337.356C125.907 337.731 126.227 338.031 126.616 338.255ZM130.514 341.273L130.514 334.727L131.355 335.213L131.355 336.202L131.414 336.236C131.517 335.972 131.704 335.817 131.975 335.771C132.246 335.726 132.551 335.801 132.89 335.997C132.954 336.034 133.034 336.082 133.13 336.14C133.226 336.198 133.299 336.244 133.348 336.278L133.348 337.301C133.318 337.276 133.251 337.224 133.145 337.146C133.042 337.066 132.932 336.993 132.816 336.926C132.541 336.767 132.295 336.692 132.078 336.7C131.864 336.707 131.694 336.791 131.569 336.952C131.446 337.111 131.384 337.338 131.384 337.634L131.384 341.776L130.514 341.273ZM135.114 346.383C134.966 346.298 134.834 346.208 134.719 346.113C134.603 346.02 134.523 345.949 134.479 345.897L134.7 345.139C134.912 345.324 135.099 345.454 135.261 345.531C135.424 345.608 135.568 345.607 135.693 345.529C135.821 345.455 135.938 345.282 136.044 345.011L136.206 344.593L134.11 336.804L135.055 337.349L136.619 343.468L136.678 343.502L138.243 339.19L139.188 339.735L136.782 345.846C136.674 346.122 136.539 346.324 136.38 346.453C136.22 346.586 136.034 346.645 135.822 346.63C135.613 346.618 135.377 346.535 135.114 346.383Z" fill="white"/>
<path d="M21.3008 185.369L21.6721 152.491L214.454 264.849C225.027 271.011 238.095 271.016 248.672 264.863L439.573 153.805V183.802C439.573 189.218 436.653 194.214 431.934 196.872L247.35 300.824C236.619 306.867 223.503 306.826 212.811 300.716L26.3389 194.165C23.188 192.364 21.2598 188.998 21.3008 185.369Z" fill="#101010"/>
<path d="M21.3008 185.369L21.6721 152.491L214.454 264.849C225.027 271.011 238.095 271.016 248.672 264.863L439.573 153.805V183.802C439.573 189.218 436.653 194.214 431.934 196.872L247.35 300.824C236.619 306.867 223.503 306.826 212.811 300.716L26.3389 194.165C23.188 192.364 21.2598 188.998 21.3008 185.369Z" fill="url(#paint5_linear_1421_3860)"/>
<path d="M21.3008 185.369L21.6721 152.491L214.454 264.849C225.027 271.011 238.095 271.016 248.672 264.863L439.573 153.805V183.802C439.573 189.218 436.653 194.214 431.934 196.872L247.35 300.824C236.619 306.867 223.503 306.826 212.811 300.716L26.3389 194.165C23.188 192.364 21.2598 188.998 21.3008 185.369Z" stroke="#404040"/>
<path d="M247.351 32.302L436.294 140.727C442.31 144.179 442.324 152.853 436.319 156.325L249.456 264.344C238.988 270.396 226.094 270.432 215.592 264.441L25.603 156.049C19.5464 152.594 19.5503 143.861 25.61 140.411L215.592 32.2479C225.441 26.6405 237.521 26.6611 247.351 32.302Z" fill="#131313" stroke="#404040"/>
<path d="M36.7355 186.146L36.7355 177.418L39.2893 178.893C39.8823 179.235 40.3669 179.638 40.7434 180.103C41.1223 180.566 41.4027 181.059 41.5848 181.582C41.7669 182.104 41.8579 182.623 41.8579 183.137C41.8579 183.651 41.7669 184.066 41.5848 184.381C41.4052 184.698 41.1272 184.873 40.7508 184.906C40.3743 184.935 39.8921 184.781 39.3041 184.441L37.4736 183.384L37.4736 182.447L39.2746 183.487C39.6805 183.721 40.0065 183.828 40.2525 183.808C40.4986 183.788 40.6769 183.673 40.7877 183.461C40.9008 183.248 40.9574 182.967 40.9574 182.617C40.9574 182.268 40.9008 181.923 40.7877 181.582C40.6769 181.242 40.4973 180.923 40.2489 180.623C40.0004 180.32 39.6707 180.05 39.2598 179.813L37.6508 178.884L37.6508 186.674L36.7355 186.146ZM43.2141 189.886L43.2141 183.341L44.0555 183.826L44.0555 184.815L44.1146 184.849C44.2179 184.585 44.4049 184.43 44.6755 184.385C44.9462 184.339 45.2513 184.414 45.5908 184.61C45.6547 184.647 45.7347 184.695 45.8307 184.753C45.9266 184.811 45.9992 184.858 46.0484 184.892L46.0484 185.914C46.0189 185.889 45.9512 185.837 45.8454 185.759C45.7421 185.679 45.6326 185.606 45.517 185.539C45.2414 185.38 44.9954 185.305 44.7789 185.314C44.5648 185.321 44.3951 185.404 44.2696 185.565C44.1466 185.724 44.0851 185.951 44.0851 186.247L44.0851 190.389L43.2141 189.886ZM49.2111 193.485C48.6994 193.189 48.2504 192.789 47.8641 192.285C47.4803 191.782 47.1801 191.216 46.9636 190.585C46.7496 189.956 46.6426 189.303 46.6426 188.627C46.6426 187.945 46.7496 187.412 46.9636 187.027C47.1801 186.643 47.4803 186.422 47.8641 186.362C48.2504 186.304 48.6994 186.422 49.2111 186.718C49.7228 187.013 50.1706 187.412 50.5544 187.915C50.9407 188.419 51.2409 188.988 51.4549 189.62C51.6714 190.253 51.7797 190.911 51.7797 191.593C51.7797 192.269 51.6714 192.797 51.4549 193.178C51.2409 193.56 50.9407 193.78 50.5544 193.838C50.1706 193.898 49.7228 193.78 49.2111 193.485ZM49.2111 192.581C49.5998 192.806 49.9197 192.875 50.1706 192.79C50.4216 192.705 50.6073 192.51 50.7279 192.204C50.8484 191.899 50.9087 191.527 50.9087 191.09C50.9087 190.652 50.8484 190.21 50.7279 189.762C50.6073 189.315 50.4216 188.902 50.1706 188.525C49.9197 188.147 49.5998 187.846 49.2111 187.621C48.8224 187.397 48.5025 187.328 48.2516 187.417C48.0006 187.505 47.8149 187.703 47.6943 188.011C47.5738 188.319 47.5135 188.692 47.5135 189.13C47.5135 189.567 47.5738 190.008 47.6943 190.453C47.8149 190.897 48.0006 191.307 48.2516 191.682C48.5025 192.057 48.8224 192.357 49.2111 192.581ZM55.412 197.065C54.8806 196.758 54.4229 196.349 54.0391 195.838C53.6553 195.326 53.3601 194.757 53.1534 194.129C52.9468 193.501 52.8434 192.86 52.8434 192.207C52.8434 191.542 52.9492 191.017 53.1608 190.63C53.3749 190.242 53.6726 190.015 54.0539 189.948C54.4377 189.88 54.8855 189.994 55.3972 190.289C55.7958 190.519 56.155 190.812 56.4748 191.167C56.7947 191.522 57.0567 191.912 57.2609 192.337C57.4651 192.762 57.5918 193.193 57.641 193.63L56.7701 193.127C56.7036 192.791 56.556 192.441 56.3272 192.079C56.1009 191.715 55.7958 191.423 55.412 191.201C55.0725 191.005 54.7748 190.936 54.5189 190.992C54.2655 191.048 54.0674 191.219 53.9247 191.506C53.7845 191.791 53.7144 192.181 53.7144 192.676C53.7144 193.181 53.7833 193.661 53.921 194.116C54.0613 194.572 54.2581 194.977 54.5115 195.33C54.7674 195.686 55.0675 195.963 55.412 196.161C55.6383 196.292 55.8438 196.365 56.0283 196.381C56.2128 196.396 56.369 196.356 56.497 196.259C56.6249 196.163 56.7159 196.011 56.7701 195.803L57.641 196.306C57.5918 196.664 57.47 196.942 57.2757 197.139C57.0838 197.335 56.8291 197.433 56.5117 197.431C56.1968 197.428 55.8302 197.306 55.412 197.065ZM62.4866 198.337L62.4866 194.468L63.3575 194.97L63.3575 201.516L62.4866 201.013L62.4866 199.905L62.4275 199.871C62.2947 200.127 62.088 200.29 61.8075 200.361C61.5271 200.429 61.1728 200.34 60.7447 200.093C60.3904 199.888 60.0755 199.617 59.7999 199.279C59.5244 198.938 59.3079 198.54 59.1504 198.085C58.9929 197.628 58.9142 197.121 58.9142 196.564L58.9142 192.405L59.7852 192.908L59.7852 196.999C59.7852 197.476 59.9008 197.923 60.1321 198.341C60.3658 198.76 60.6635 199.074 61.0252 199.283C61.2417 199.408 61.4619 199.471 61.6857 199.472C61.9121 199.475 62.1015 199.389 62.2541 199.213C62.4091 199.038 62.4866 198.746 62.4866 198.337ZM64.9527 202.437L64.9527 195.891L65.7941 196.377L65.7941 197.366L65.8532 197.4C65.9565 197.136 66.1435 196.981 66.4141 196.935C66.6848 196.89 66.9898 196.965 67.3294 197.161C67.3933 197.198 67.4733 197.246 67.5692 197.304C67.6652 197.362 67.7378 197.408 67.787 197.442L67.787 198.465C67.7575 198.44 67.6898 198.388 67.584 198.31C67.4807 198.23 67.3712 198.157 67.2556 198.09C66.98 197.931 66.734 197.856 66.5175 197.864C66.3034 197.871 66.1337 197.955 66.0082 198.116C65.8852 198.275 65.8237 198.502 65.8237 198.798L65.8237 202.94L64.9527 202.437ZM71.0235 206.078C70.4773 205.763 70.0062 205.352 69.6101 204.844C69.2164 204.336 68.9126 203.768 68.6985 203.142C68.4869 202.514 68.3811 201.865 68.3811 201.195C68.3811 200.524 68.4869 199.994 68.6985 199.605C68.9126 199.214 69.2103 198.986 69.5916 198.919C69.9754 198.851 70.4232 198.964 70.9349 199.26C71.2302 199.43 71.5217 199.656 71.8096 199.935C72.0974 200.215 72.3594 200.551 72.5956 200.943C72.8318 201.332 73.02 201.776 73.1603 202.275C73.3005 202.773 73.3706 203.328 73.3706 203.939L73.3706 204.365L69.0011 201.842L69.0011 200.973L72.4849 202.984C72.4849 202.615 72.421 202.249 72.293 201.885C72.1675 201.523 71.9879 201.19 71.7542 200.888C71.5229 200.587 71.2499 200.345 70.9349 200.163C70.588 199.963 70.2879 199.889 70.0345 199.942C69.7835 199.993 69.5904 200.137 69.4551 200.374C69.3197 200.612 69.2521 200.911 69.2521 201.271L69.2521 201.851C69.2521 202.345 69.3259 202.807 69.4735 203.236C69.6236 203.663 69.8315 204.043 70.0972 204.376C70.3629 204.705 70.6717 204.972 71.0235 205.175C71.2523 205.307 71.459 205.389 71.6435 205.422C71.8305 205.453 71.9916 205.433 72.127 205.36C72.2623 205.285 72.3668 205.155 72.4406 204.97L73.2821 205.729C73.1935 206.007 73.0446 206.211 72.8355 206.34C72.6264 206.467 72.3681 206.511 72.0605 206.472C71.753 206.431 71.4073 206.3 71.0235 206.078ZM74.6955 208.062L74.6955 201.516L75.5369 202.002L75.5369 203.025L75.6107 203.067C75.7288 202.786 75.9195 202.625 76.1828 202.584C76.446 202.54 76.7622 202.624 77.1312 202.837C77.5052 203.053 77.8164 203.331 78.0649 203.67C78.3158 204.009 78.5114 204.393 78.6517 204.823L78.7107 204.857C78.8559 204.603 79.0736 204.46 79.3639 204.429C79.6542 204.395 80.0024 204.495 80.4083 204.729C80.9151 205.022 81.3297 205.445 81.652 205.997C81.9743 206.547 82.1354 207.207 82.1354 207.977L82.1354 212.357L81.2645 211.854L81.2645 207.474C81.2645 206.991 81.1501 206.58 80.9213 206.24C80.6925 205.901 80.4231 205.641 80.1131 205.462C79.7145 205.232 79.4057 205.193 79.1868 205.345C78.9678 205.494 78.8583 205.781 78.8583 206.204L78.8583 210.465L77.9726 209.954L77.9726 205.471C77.9726 205.099 77.8681 204.739 77.6589 204.391C77.4498 204.04 77.1804 203.769 76.8507 203.579C76.6244 203.448 76.4128 203.396 76.216 203.421C76.0216 203.448 75.8641 203.55 75.7436 203.728C75.6255 203.904 75.5664 204.153 75.5664 204.474L75.5664 208.565L74.6955 208.062ZM86.1045 214.785C85.5583 214.47 85.0872 214.059 84.6911 213.551C84.2974 213.043 83.9936 212.475 83.7795 211.849C83.568 211.221 83.4622 210.572 83.4622 209.902C83.4622 209.231 83.568 208.701 83.7795 208.312C83.9936 207.922 84.2913 207.693 84.6726 207.626C85.0564 207.558 85.5042 207.672 86.016 207.967C86.3112 208.137 86.6027 208.363 86.8906 208.642C87.1784 208.922 87.4405 209.258 87.6767 209.65C87.9128 210.039 88.1011 210.483 88.2413 210.982C88.3815 211.48 88.4517 212.035 88.4517 212.646L88.4517 213.072L84.0822 210.549L84.0822 209.68L87.5659 211.691C87.5659 211.322 87.502 210.956 87.374 210.592C87.2486 210.23 87.069 209.897 86.8352 209.595C86.604 209.294 86.3309 209.052 86.016 208.87C85.6691 208.67 85.3689 208.596 85.1155 208.649C84.8645 208.7 84.6714 208.844 84.5361 209.081C84.4008 209.319 84.3331 209.618 84.3331 209.978L84.3331 210.558C84.3331 211.052 84.4069 211.514 84.5545 211.943C84.7046 212.37 84.9125 212.75 85.1782 213.083C85.4439 213.412 85.7527 213.679 86.1045 213.882C86.3333 214.014 86.54 214.096 86.7245 214.129C86.9115 214.16 87.0727 214.14 87.208 214.067C87.3433 213.992 87.4478 213.862 87.5217 213.677L88.3631 214.436C88.2745 214.714 88.1257 214.918 87.9165 215.047C87.7074 215.174 87.4491 215.218 87.1415 215.179C86.834 215.138 86.4883 215.007 86.1045 214.785ZM90.6475 213.334L90.6475 217.272L89.7765 216.769L89.7765 210.223L90.6179 210.709L90.6179 211.732L90.6918 211.775C90.8246 211.519 91.0264 211.368 91.297 211.323C91.5676 211.275 91.917 211.374 92.3451 211.621C92.7289 211.843 93.0647 212.127 93.3526 212.475C93.6404 212.821 93.8643 213.223 94.0242 213.681C94.1841 214.137 94.2641 214.644 94.2641 215.201L94.2641 219.36L93.3932 218.857L93.3932 214.766C93.3932 214.252 93.2775 213.784 93.0463 213.364C92.815 212.941 92.4976 212.613 92.0941 212.38C91.8161 212.219 91.5676 212.145 91.3487 212.158C91.1321 212.172 90.9612 212.277 90.8357 212.471C90.7102 212.666 90.6475 212.953 90.6475 213.334ZM98.3208 215.156L98.3208 216.009L95.3832 214.313L95.3832 213.46L98.3208 215.156ZM96.2394 212.387L97.1104 212.889L97.1104 219.128C97.1104 219.412 97.146 219.646 97.2174 219.829C97.2912 220.011 97.3847 220.159 97.4979 220.272C97.6135 220.384 97.7353 220.477 97.8632 220.551C97.9592 220.607 98.0379 220.646 98.0994 220.671C98.1609 220.692 98.2101 220.709 98.247 220.722L98.4242 221.727C98.3651 221.719 98.2827 221.697 98.1769 221.661C98.0711 221.629 97.937 221.566 97.7746 221.472C97.5286 221.33 97.2875 221.129 97.0513 220.871C96.8176 220.614 96.6232 220.316 96.4682 219.976C96.3157 219.638 96.2394 219.279 96.2394 218.898L96.2394 212.387ZM104.694 225.501C104.197 225.214 103.769 224.862 103.41 224.444C103.051 224.026 102.774 223.578 102.58 223.1C102.385 222.621 102.288 222.146 102.288 221.674C102.288 221.311 102.354 221.026 102.487 220.822C102.623 220.616 102.808 220.46 103.045 220.355C103.283 220.249 103.558 220.163 103.868 220.097L104.96 219.791C105.174 219.752 105.345 219.678 105.473 219.567C105.603 219.458 105.669 219.254 105.669 218.955C105.669 218.734 105.584 218.47 105.414 218.165C105.247 217.861 105.026 217.63 104.753 217.472C104.561 217.362 104.392 217.32 104.244 217.349C104.099 217.376 103.984 217.452 103.901 217.577C103.82 217.7 103.779 217.853 103.779 218.035C103.779 218.24 103.827 218.475 103.923 218.74C104.021 219.004 104.146 219.289 104.296 219.595C104.448 219.899 104.606 220.211 104.768 220.532L108.237 227.427L107.189 226.822L104.325 221.18C104.059 220.657 103.818 220.183 103.602 219.757C103.385 219.33 103.213 218.934 103.085 218.568C102.957 218.201 102.893 217.847 102.893 217.507C102.893 217.115 102.968 216.814 103.118 216.605C103.271 216.395 103.484 216.286 103.757 216.279C104.032 216.271 104.355 216.373 104.724 216.586C105.103 216.805 105.429 217.078 105.702 217.406C105.975 217.732 106.185 218.076 106.333 218.44C106.48 218.801 106.554 219.143 106.554 219.467C106.554 219.884 106.464 220.195 106.285 220.398C106.105 220.601 105.86 220.745 105.55 220.83L104.045 221.257C103.705 221.35 103.475 221.499 103.355 221.702C103.234 221.905 103.174 222.066 103.174 222.186C103.174 222.458 103.235 222.748 103.358 223.055C103.481 223.362 103.655 223.652 103.879 223.926C104.103 224.2 104.365 224.424 104.665 224.597C104.95 224.762 105.228 224.853 105.499 224.87C105.769 224.884 106.014 224.821 106.233 224.681C106.455 224.541 106.629 224.321 106.757 224.02C106.888 223.72 106.953 223.336 106.953 222.867L107.794 223.353C107.794 223.933 107.736 224.372 107.621 224.672C107.505 224.972 107.375 225.183 107.23 225.307C107.084 225.431 106.968 225.518 106.879 225.569C106.849 225.595 106.822 225.622 106.798 225.65C106.773 225.678 106.746 225.705 106.717 225.731C106.473 225.906 106.166 225.964 105.794 225.906C105.422 225.845 105.056 225.71 104.694 225.501ZM116.375 225.58C116.331 225.123 116.152 224.684 115.837 224.263C115.522 223.843 115.135 223.501 114.678 223.237C114.343 223.043 114.05 222.937 113.8 222.917C113.551 222.898 113.357 222.958 113.216 223.096C113.079 223.235 113.01 223.444 113.01 223.722C113.01 223.955 113.058 224.183 113.154 224.406C113.252 224.628 113.378 224.838 113.53 225.037C113.683 225.233 113.843 225.415 114.01 225.582C114.177 225.747 114.331 225.891 114.471 226.015L115.239 226.697C115.436 226.87 115.655 227.079 115.896 227.323C116.139 227.569 116.372 227.847 116.593 228.156C116.817 228.464 117.002 228.801 117.147 229.166C117.292 229.531 117.364 229.918 117.364 230.327C117.364 230.799 117.257 231.163 117.043 231.42C116.832 231.679 116.522 231.803 116.113 231.791C115.707 231.781 115.214 231.609 114.634 231.273C114.092 230.961 113.624 230.589 113.227 230.159C112.834 229.73 112.524 229.27 112.297 228.778C112.074 228.288 111.947 227.796 111.917 227.302L112.862 227.847C112.887 228.191 112.983 228.519 113.15 228.832C113.32 229.143 113.534 229.425 113.792 229.68C114.053 229.933 114.333 230.146 114.634 230.319C114.983 230.521 115.297 230.636 115.575 230.666C115.853 230.693 116.073 230.636 116.235 230.494C116.398 230.349 116.479 230.117 116.479 229.799C116.479 229.509 116.409 229.233 116.268 228.97C116.128 228.707 115.944 228.453 115.715 228.207C115.486 227.962 115.239 227.719 114.973 227.481L114.043 226.637C113.453 226.1 112.985 225.55 112.641 224.988C112.296 224.425 112.124 223.85 112.124 223.262C112.124 222.773 112.238 222.413 112.467 222.182C112.699 221.949 113.009 221.844 113.397 221.866C113.788 221.888 114.225 222.038 114.707 222.316C115.194 222.597 115.628 222.948 116.006 223.369C116.385 223.786 116.685 224.232 116.907 224.707C117.131 225.183 117.249 225.644 117.261 226.092L116.375 225.58ZM122.324 232.884L122.324 229.014L123.194 229.517L123.194 236.063L122.324 235.56L122.324 234.452L122.264 234.418C122.132 234.673 121.925 234.837 121.644 234.908C121.364 234.976 121.01 234.887 120.582 234.639C120.227 234.435 119.912 234.164 119.637 233.825C119.361 233.485 119.145 233.087 118.987 232.632C118.83 232.175 118.751 231.668 118.751 231.111L118.751 226.952L119.622 227.455L119.622 231.546C119.622 232.023 119.738 232.47 119.969 232.888C120.203 233.307 120.5 233.621 120.862 233.83C121.079 233.955 121.299 234.018 121.523 234.019C121.749 234.022 121.938 233.936 122.091 233.759C122.246 233.585 122.324 233.293 122.324 232.884ZM124.79 239.438L124.79 230.438L125.631 230.924L125.631 231.964L125.734 232.023C125.798 231.947 125.887 231.853 126 231.742C126.116 231.63 126.281 231.566 126.495 231.55C126.711 231.533 127.004 231.631 127.373 231.844C127.85 232.12 128.271 232.501 128.635 232.987C128.999 233.472 129.283 234.027 129.488 234.651C129.692 235.274 129.794 235.93 129.794 236.617C129.794 237.31 129.692 237.852 129.488 238.243C129.283 238.631 129 238.859 128.639 238.929C128.277 238.996 127.86 238.893 127.388 238.62C127.024 238.41 126.732 238.172 126.513 237.906C126.294 237.638 126.126 237.38 126.008 237.133C125.889 236.883 125.798 236.68 125.734 236.523L125.661 236.481L125.661 239.941L124.79 239.438ZM125.646 234.205C125.646 234.7 125.709 235.172 125.834 235.622C125.96 236.07 126.143 236.469 126.384 236.822C126.625 237.171 126.92 237.447 127.27 237.648C127.634 237.859 127.938 237.923 128.181 237.842C128.427 237.76 128.612 237.565 128.735 237.259C128.86 236.95 128.923 236.563 128.923 236.097C128.923 235.637 128.861 235.187 128.738 234.746C128.618 234.305 128.435 233.905 128.189 233.547C127.945 233.187 127.639 232.901 127.27 232.688C126.915 232.484 126.618 232.415 126.377 232.484C126.135 232.549 125.953 232.731 125.83 233.029C125.707 233.325 125.646 233.717 125.646 234.205ZM131.122 243.094L131.122 234.094L131.964 234.58L131.964 235.62L132.067 235.68C132.131 235.603 132.22 235.509 132.333 235.398C132.449 235.286 132.613 235.222 132.827 235.207C133.044 235.19 133.337 235.288 133.706 235.501C134.183 235.776 134.604 236.157 134.968 236.643C135.332 237.129 135.616 237.683 135.82 238.307C136.025 238.93 136.127 239.586 136.127 240.273C136.127 240.967 136.025 241.509 135.82 241.899C135.616 242.287 135.333 242.516 134.972 242.585C134.61 242.652 134.193 242.549 133.721 242.276C133.356 242.066 133.065 241.828 132.846 241.563C132.627 241.294 132.458 241.036 132.34 240.789C132.222 240.539 132.131 240.336 132.067 240.18L131.993 240.137L131.993 243.597L131.122 243.094ZM131.979 237.862C131.979 238.356 132.041 238.828 132.167 239.278C132.292 239.726 132.476 240.126 132.717 240.478C132.958 240.827 133.253 241.103 133.602 241.305C133.967 241.515 134.27 241.58 134.514 241.499C134.76 241.416 134.945 241.222 135.068 240.915C135.193 240.607 135.256 240.219 135.256 239.754C135.256 239.293 135.194 238.843 135.071 238.403C134.951 237.961 134.767 237.561 134.521 237.203C134.278 236.844 133.971 236.558 133.602 236.344C133.248 236.14 132.95 236.072 132.709 236.14C132.468 236.205 132.286 236.387 132.163 236.685C132.04 236.981 131.979 237.373 131.979 237.862ZM138.326 236.072L138.326 244.799L137.455 244.296L137.455 235.569L138.326 236.072ZM139.921 245.72L139.921 239.175L140.792 239.677L140.792 246.223L139.921 245.72ZM140.364 238.339C140.195 238.241 140.048 238.09 139.925 237.885C139.805 237.682 139.744 237.487 139.744 237.3C139.744 237.112 139.805 236.986 139.925 236.922C140.048 236.86 140.195 236.878 140.364 236.976C140.534 237.074 140.679 237.224 140.8 237.427C140.923 237.632 140.984 237.828 140.984 238.015C140.984 238.203 140.923 238.328 140.8 238.39C140.679 238.454 140.534 238.437 140.364 238.339ZM144.764 248.652C144.218 248.337 143.747 247.926 143.351 247.419C142.957 246.91 142.653 246.343 142.439 245.716C142.228 245.088 142.122 244.439 142.122 243.769C142.122 243.098 142.228 242.569 142.439 242.179C142.653 241.789 142.951 241.56 143.332 241.493C143.716 241.425 144.164 241.539 144.676 241.834C144.971 242.005 145.262 242.23 145.55 242.51C145.838 242.789 146.1 243.125 146.336 243.517C146.573 243.907 146.761 244.35 146.901 244.849C147.041 245.348 147.111 245.902 147.111 246.513L147.111 246.939L142.742 244.417L142.742 243.547L146.226 245.559C146.226 245.189 146.162 244.823 146.034 244.459C145.908 244.097 145.729 243.765 145.495 243.462C145.264 243.161 144.991 242.919 144.676 242.738C144.329 242.537 144.029 242.463 143.775 242.516C143.524 242.567 143.331 242.711 143.196 242.949C143.06 243.186 142.993 243.485 142.993 243.846L142.993 244.425C142.993 244.919 143.067 245.381 143.214 245.81C143.364 246.238 143.572 246.618 143.838 246.95C144.104 247.279 144.412 247.546 144.764 247.749C144.993 247.881 145.2 247.963 145.384 247.996C145.571 248.027 145.732 248.007 145.868 247.934C146.003 247.859 146.108 247.729 146.181 247.544L147.023 248.303C146.934 248.581 146.785 248.785 146.576 248.914C146.367 249.041 146.109 249.085 145.801 249.047C145.494 249.005 145.148 248.874 144.764 248.652ZM148.436 250.636L148.436 244.091L149.278 244.576L149.278 245.565L149.337 245.599C149.44 245.335 149.627 245.18 149.898 245.135C150.168 245.089 150.473 245.164 150.813 245.36C150.877 245.397 150.957 245.445 151.053 245.503C151.149 245.561 151.221 245.608 151.27 245.642L151.27 246.664C151.241 246.639 151.173 246.587 151.068 246.509C150.964 246.429 150.855 246.356 150.739 246.289C150.463 246.13 150.217 246.055 150.001 246.064C149.787 246.071 149.617 246.154 149.492 246.315C149.369 246.474 149.307 246.701 149.307 246.997L149.307 251.139L148.436 250.636ZM156.318 250.107L155.536 249.911C155.487 249.732 155.414 249.544 155.318 249.346C155.224 249.148 155.097 248.954 154.934 248.767C154.772 248.579 154.564 248.412 154.31 248.266C153.964 248.066 153.674 247.991 153.443 248.042C153.214 248.092 153.1 248.258 153.1 248.539C153.1 248.789 153.179 249.032 153.336 249.268C153.494 249.503 153.74 249.766 154.074 250.056L154.916 250.78C155.423 251.215 155.8 251.65 156.049 252.086C156.297 252.52 156.421 252.965 156.421 253.422C156.421 253.797 156.328 254.079 156.141 254.266C155.956 254.455 155.698 254.539 155.366 254.518C155.034 254.496 154.648 254.358 154.207 254.104C153.629 253.77 153.15 253.349 152.772 252.841C152.393 252.332 152.153 251.77 152.052 251.155L152.879 251.394C152.957 251.792 153.106 252.142 153.325 252.444C153.547 252.748 153.836 253.003 154.192 253.209C154.598 253.444 154.921 253.53 155.159 253.469C155.4 253.407 155.521 253.235 155.521 252.954C155.521 252.726 155.452 252.496 155.314 252.263C155.177 252.028 154.965 251.789 154.68 251.547L153.735 250.746C153.216 250.305 152.834 249.864 152.591 249.425C152.35 248.985 152.229 248.539 152.229 248.087C152.229 247.718 152.319 247.443 152.498 247.263C152.681 247.084 152.928 247.003 153.24 247.022C153.555 247.042 153.912 247.167 154.31 247.397C154.871 247.721 155.312 248.117 155.632 248.586C155.954 249.056 156.183 249.563 156.318 250.107Z" fill="white"/>
<defs>
<filter id="filter0_d_1421_3860" x="0.000782013" y="433.32" width="460.873" height="195.8" filterUnits="userSpaceOnUse" color-interpolation-filters="sRGB">
<feFlood flood-opacity="0" result="BackgroundImageFix"/>
<feColorMatrix in="SourceAlpha" type="matrix" values="0 0 0 0 0 0 0 0 0 0 0 0 0 0 0 0 0 0 127 0" result="hardAlpha"/>
<feOffset/>
<feGaussianBlur stdDeviation="10.4"/>
<feComposite in2="hardAlpha" operator="out"/>
<feColorMatrix type="matrix" values="0 0 0 0 0 0 0 0 0 0 0 0 0 0 0 0 0 0 1 0"/>
<feBlend mode="normal" in2="BackgroundImageFix" result="effect1_dropShadow_1421_3860"/>
<feBlend mode="normal" in="SourceGraphic" in2="effect1_dropShadow_1421_3860" result="shape"/>
</filter>
<linearGradient id="paint0_linear_1421_3860" x1="-19.3123" y1="681.837" x2="421.831" y2="730.724" gradientUnits="userSpaceOnUse">
<stop offset="0.0213909" stop-color="#024925"/>
<stop offset="1" stop-color="#0D0D0D"/>
</linearGradient>
<linearGradient id="paint1_linear_1421_3860" x1="462.8" y1="599.396" x2="96.6841" y2="464.262" gradientUnits="userSpaceOnUse">
<stop stop-color="#042811"/>
<stop offset="1" stop-color="#00792E"/>
</linearGradient>
<linearGradient id="paint2_linear_1421_3860" x1="21.2344" y1="469.854" x2="267.389" y2="613.06" gradientUnits="userSpaceOnUse">
<stop offset="0.0213909" stop-color="#1E1E1E"/>
<stop offset="1" stop-color="#0D0D0D"/>
</linearGradient>
<linearGradient id="paint3_linear_1421_3860" x1="21.2344" y1="366.444" x2="267.389" y2="509.65" gradientUnits="userSpaceOnUse">
<stop offset="0.0213909" stop-color="#1E1E1E"/>
<stop offset="1" stop-color="#0D0D0D"/>
</linearGradient>
<linearGradient id="paint4_linear_1421_3860" x1="21.2344" y1="266.434" x2="267.389" y2="409.64" gradientUnits="userSpaceOnUse">
<stop offset="0.0213909" stop-color="#1E1E1E"/>
<stop offset="1" stop-color="#0D0D0D"/>
</linearGradient>
<linearGradient id="paint5_linear_1421_3860" x1="21.2344" y1="167.361" x2="267.389" y2="310.567" gradientUnits="userSpaceOnUse">
<stop offset="0.0213909" stop-color="#1E1E1E"/>
<stop offset="1" stop-color="#0D0D0D"/>
</linearGradient>
</defs>
</svg>
