<svg width="595" height="385" viewBox="0 0 595 385" fill="none" xmlns="http://www.w3.org/2000/svg">
<g clip-path="url(#clip0_1099_2563)">
<rect width="600.576" height="384.798" fill="url(#paint0_linear_1099_2563)"/>
<g filter="url(#filter0_f_1099_2563)">
<circle cx="100.872" cy="68.6194" r="38.9974" fill="url(#paint1_linear_1099_2563)" fill-opacity="0.6"/>
</g>
<path d="M155.13 119.5V106.74H150.46V105.04H161.4V106.74H156.99V119.5H155.13ZM166.388 119.7C165.428 119.7 164.582 119.49 163.848 119.07C163.115 118.65 162.542 118.047 162.128 117.26C161.715 116.473 161.508 115.53 161.508 114.43C161.508 113.343 161.695 112.39 162.068 111.57C162.442 110.75 162.982 110.11 163.688 109.65C164.402 109.19 165.258 108.96 166.258 108.96C167.232 108.96 168.055 109.17 168.728 109.59C169.402 110.01 169.912 110.603 170.258 111.37C170.612 112.13 170.788 113.033 170.788 114.08V114.76H163.378C163.378 115.413 163.485 116.007 163.698 116.54C163.918 117.067 164.248 117.487 164.688 117.8C165.128 118.113 165.685 118.27 166.358 118.27C167.018 118.27 167.585 118.117 168.058 117.81C168.538 117.503 168.845 117.06 168.978 116.48H170.718C170.598 117.18 170.318 117.77 169.878 118.25C169.445 118.73 168.922 119.093 168.308 119.34C167.702 119.58 167.062 119.7 166.388 119.7ZM163.388 113.51H169.008C169.008 112.917 168.908 112.383 168.708 111.91C168.508 111.43 168.202 111.053 167.788 110.78C167.382 110.5 166.868 110.36 166.248 110.36C165.602 110.36 165.065 110.517 164.638 110.83C164.212 111.137 163.895 111.533 163.688 112.02C163.482 112.5 163.382 112.997 163.388 113.51ZM175.956 119.63C175.396 119.63 174.943 119.553 174.596 119.4C174.256 119.247 173.993 119.04 173.806 118.78C173.626 118.52 173.503 118.223 173.436 117.89C173.376 117.55 173.346 117.2 173.346 116.84V104.64H175.166V116.66C175.166 117.18 175.266 117.57 175.466 117.83C175.673 118.09 175.96 118.233 176.326 118.26L176.886 118.27V119.47C176.733 119.517 176.573 119.553 176.406 119.58C176.24 119.613 176.09 119.63 175.956 119.63ZM181.718 119.63C181.158 119.63 180.705 119.553 180.358 119.4C180.018 119.247 179.755 119.04 179.568 118.78C179.388 118.52 179.265 118.223 179.198 117.89C179.138 117.55 179.108 117.2 179.108 116.84V104.64H180.928V116.66C180.928 117.18 181.028 117.57 181.228 117.83C181.435 118.09 181.721 118.233 182.088 118.26L182.648 118.27V119.47C182.495 119.517 182.335 119.553 182.168 119.58C182.001 119.613 181.851 119.63 181.718 119.63ZM193.826 119.7C193.286 119.693 192.776 119.617 192.296 119.47C191.823 119.317 191.403 119.093 191.036 118.8C190.669 118.507 190.379 118.143 190.166 117.71C189.959 117.27 189.856 116.76 189.856 116.18V109.16H191.706V115.99C191.706 116.663 191.913 117.21 192.326 117.63C192.746 118.05 193.376 118.26 194.216 118.26C194.976 118.26 195.586 118.063 196.046 117.67C196.513 117.27 196.746 116.677 196.746 115.89V109.16H198.586V119.5H197.116L196.926 117.52C196.799 118.04 196.583 118.46 196.276 118.78C195.976 119.1 195.613 119.337 195.186 119.49C194.766 119.637 194.313 119.707 193.826 119.7ZM205.348 119.7C204.628 119.7 203.958 119.59 203.338 119.37C202.724 119.143 202.214 118.793 201.808 118.32C201.401 117.84 201.148 117.23 201.048 116.49H202.728C202.814 116.897 202.981 117.237 203.228 117.51C203.474 117.777 203.778 117.98 204.138 118.12C204.504 118.253 204.904 118.32 205.338 118.32C206.038 118.32 206.601 118.19 207.028 117.93C207.454 117.67 207.668 117.27 207.668 116.73C207.668 116.35 207.554 116.047 207.328 115.82C207.108 115.587 206.761 115.417 206.288 115.31L204.148 114.78C203.314 114.58 202.648 114.267 202.148 113.84C201.654 113.413 201.404 112.817 201.398 112.05C201.398 111.443 201.544 110.91 201.838 110.45C202.131 109.99 202.568 109.627 203.148 109.36C203.734 109.093 204.464 108.96 205.338 108.96C206.464 108.96 207.371 109.213 208.058 109.72C208.744 110.22 209.104 110.957 209.138 111.93H207.498C207.431 111.437 207.211 111.047 206.838 110.76C206.464 110.467 205.958 110.32 205.318 110.32C204.664 110.32 204.128 110.453 203.708 110.72C203.294 110.98 203.088 111.387 203.088 111.94C203.088 112.307 203.234 112.597 203.528 112.81C203.828 113.017 204.261 113.19 204.828 113.33L206.908 113.85C207.381 113.977 207.774 114.143 208.088 114.35C208.401 114.557 208.648 114.787 208.828 115.04C209.008 115.293 209.134 115.56 209.208 115.84C209.288 116.113 209.328 116.377 209.328 116.63C209.328 117.263 209.171 117.81 208.858 118.27C208.544 118.723 208.091 119.077 207.498 119.33C206.904 119.577 206.188 119.7 205.348 119.7ZM219.43 119.7C218.757 119.7 218.163 119.583 217.65 119.35C217.143 119.11 216.743 118.767 216.45 118.32C216.163 117.873 216.02 117.333 216.02 116.7C216.02 115.553 216.42 114.7 217.22 114.14C218.02 113.58 219.303 113.28 221.07 113.24L222.91 113.19V112.38C222.91 111.747 222.72 111.247 222.34 110.88C221.96 110.507 221.373 110.32 220.58 110.32C219.987 110.327 219.463 110.467 219.01 110.74C218.557 111.013 218.267 111.46 218.14 112.08H216.51C216.55 111.407 216.737 110.84 217.07 110.38C217.41 109.913 217.887 109.56 218.5 109.32C219.113 109.08 219.837 108.96 220.67 108.96C221.57 108.96 222.317 109.087 222.91 109.34C223.51 109.593 223.957 109.967 224.25 110.46C224.55 110.953 224.7 111.56 224.7 112.28V119.5H223.12L222.98 117.56C222.587 118.367 222.08 118.927 221.46 119.24C220.847 119.547 220.17 119.7 219.43 119.7ZM219.98 118.37C220.333 118.37 220.68 118.307 221.02 118.18C221.367 118.053 221.68 117.883 221.96 117.67C222.247 117.45 222.477 117.207 222.65 116.94C222.823 116.667 222.91 116.387 222.91 116.1V114.33L221.38 114.36C220.587 114.373 219.927 114.453 219.4 114.6C218.873 114.747 218.477 114.977 218.21 115.29C217.943 115.603 217.81 116.013 217.81 116.52C217.81 117.1 218.013 117.553 218.42 117.88C218.827 118.207 219.347 118.37 219.98 118.37ZM232.695 119.7C232.088 119.7 231.575 119.62 231.155 119.46C230.741 119.3 230.401 119.097 230.135 118.85C229.868 118.597 229.661 118.34 229.515 118.08C229.368 117.813 229.261 117.58 229.195 117.38L228.995 119.5H227.585V104.64H229.445V110.8C229.531 110.627 229.661 110.437 229.835 110.23C230.015 110.023 230.245 109.823 230.525 109.63C230.805 109.437 231.135 109.277 231.515 109.15C231.901 109.023 232.341 108.96 232.835 108.96C234.128 108.96 235.155 109.41 235.915 110.31C236.681 111.21 237.065 112.537 237.065 114.29C237.065 115.377 236.901 116.327 236.575 117.14C236.248 117.947 235.761 118.577 235.115 119.03C234.468 119.477 233.661 119.7 232.695 119.7ZM232.365 118.28C233.205 118.28 233.888 117.957 234.415 117.31C234.941 116.657 235.205 115.62 235.205 114.2C235.205 112.993 234.958 112.06 234.465 111.4C233.978 110.733 233.265 110.4 232.325 110.4C231.638 110.4 231.085 110.55 230.665 110.85C230.251 111.143 229.945 111.573 229.745 112.14C229.551 112.707 229.451 113.393 229.445 114.2C229.445 115.647 229.668 116.69 230.115 117.33C230.568 117.963 231.318 118.28 232.365 118.28ZM243.658 119.7C242.705 119.7 241.872 119.497 241.158 119.09C240.452 118.677 239.902 118.073 239.508 117.28C239.115 116.487 238.918 115.517 238.918 114.37C238.918 113.29 239.102 112.343 239.468 111.53C239.835 110.717 240.372 110.087 241.078 109.64C241.785 109.187 242.648 108.96 243.668 108.96C244.622 108.96 245.448 109.17 246.148 109.59C246.848 110.003 247.392 110.613 247.778 111.42C248.172 112.227 248.368 113.21 248.368 114.37C248.368 115.423 248.188 116.35 247.828 117.15C247.468 117.95 246.938 118.577 246.238 119.03C245.545 119.477 244.685 119.7 243.658 119.7ZM243.668 118.24C244.282 118.24 244.802 118.083 245.228 117.77C245.655 117.457 245.978 117.007 246.198 116.42C246.425 115.833 246.538 115.137 246.538 114.33C246.538 113.59 246.438 112.927 246.238 112.34C246.045 111.747 245.738 111.277 245.318 110.93C244.898 110.583 244.348 110.41 243.668 110.41C243.042 110.41 242.512 110.567 242.078 110.88C241.645 111.187 241.315 111.633 241.088 112.22C240.868 112.807 240.758 113.51 240.758 114.33C240.758 115.057 240.855 115.717 241.048 116.31C241.248 116.903 241.562 117.373 241.988 117.72C242.422 118.067 242.982 118.24 243.668 118.24ZM254.588 119.7C254.048 119.693 253.538 119.617 253.058 119.47C252.584 119.317 252.164 119.093 251.798 118.8C251.431 118.507 251.141 118.143 250.928 117.71C250.721 117.27 250.618 116.76 250.618 116.18V109.16H252.468V115.99C252.468 116.663 252.674 117.21 253.088 117.63C253.508 118.05 254.138 118.26 254.978 118.26C255.738 118.26 256.348 118.063 256.808 117.67C257.274 117.27 257.508 116.677 257.508 115.89V109.16H259.348V119.5H257.878L257.688 117.52C257.561 118.04 257.344 118.46 257.038 118.78C256.738 119.1 256.374 119.337 255.948 119.49C255.528 119.637 255.074 119.707 254.588 119.7ZM266.179 119.55C265.466 119.55 264.913 119.453 264.519 119.26C264.126 119.067 263.849 118.78 263.689 118.4C263.536 118.02 263.459 117.553 263.459 117V110.51H261.779V109.16H263.509L263.959 106.15H265.319V109.15H267.649V110.51H265.319V116.94C265.319 117.307 265.356 117.577 265.429 117.75C265.509 117.917 265.639 118.023 265.819 118.07C265.999 118.117 266.253 118.14 266.579 118.14H267.709V119.38C267.583 119.427 267.389 119.467 267.129 119.5C266.876 119.533 266.559 119.55 266.179 119.55ZM275.939 122.8C275.332 122.8 274.916 122.757 274.689 122.67C274.462 122.583 274.349 122.54 274.349 122.54V121.34L275.409 121.36C275.789 121.373 276.106 121.347 276.359 121.28C276.612 121.213 276.816 121.123 276.969 121.01C277.122 120.897 277.239 120.77 277.319 120.63C277.406 120.49 277.476 120.357 277.529 120.23L277.889 119.25L273.849 109.16H275.719L278.769 117.14L281.799 109.16H283.609L279.259 120.28C278.986 120.933 278.682 121.443 278.349 121.81C278.022 122.177 277.656 122.433 277.249 122.58C276.849 122.727 276.412 122.8 275.939 122.8ZM289.557 119.7C288.603 119.7 287.77 119.497 287.057 119.09C286.35 118.677 285.8 118.073 285.407 117.28C285.013 116.487 284.817 115.517 284.817 114.37C284.817 113.29 285 112.343 285.367 111.53C285.733 110.717 286.27 110.087 286.977 109.64C287.683 109.187 288.547 108.96 289.567 108.96C290.52 108.96 291.347 109.17 292.047 109.59C292.747 110.003 293.29 110.613 293.677 111.42C294.07 112.227 294.267 113.21 294.267 114.37C294.267 115.423 294.087 116.35 293.727 117.15C293.367 117.95 292.837 118.577 292.137 119.03C291.443 119.477 290.583 119.7 289.557 119.7ZM289.567 118.24C290.18 118.24 290.7 118.083 291.127 117.77C291.553 117.457 291.877 117.007 292.097 116.42C292.323 115.833 292.437 115.137 292.437 114.33C292.437 113.59 292.337 112.927 292.137 112.34C291.943 111.747 291.637 111.277 291.217 110.93C290.797 110.583 290.247 110.41 289.567 110.41C288.94 110.41 288.41 110.567 287.977 110.88C287.543 111.187 287.213 111.633 286.987 112.22C286.767 112.807 286.657 113.51 286.657 114.33C286.657 115.057 286.753 115.717 286.947 116.31C287.147 116.903 287.46 117.373 287.887 117.72C288.32 118.067 288.88 118.24 289.567 118.24ZM300.486 119.7C299.946 119.693 299.436 119.617 298.956 119.47C298.483 119.317 298.063 119.093 297.696 118.8C297.33 118.507 297.04 118.143 296.826 117.71C296.62 117.27 296.516 116.76 296.516 116.18V109.16H298.366V115.99C298.366 116.663 298.573 117.21 298.986 117.63C299.406 118.05 300.036 118.26 300.876 118.26C301.636 118.26 302.246 118.063 302.706 117.67C303.173 117.27 303.406 116.677 303.406 115.89V109.16H305.246V119.5H303.776L303.586 117.52C303.46 118.04 303.243 118.46 302.936 118.78C302.636 119.1 302.273 119.337 301.846 119.49C301.426 119.637 300.973 119.707 300.486 119.7Z" fill="white"/>
<path d="M155.448 152.66C154.883 152.66 154.347 152.593 153.84 152.46C153.333 152.321 152.872 152.116 152.456 151.844C152.045 151.572 151.704 151.236 151.432 150.836C151.165 150.431 150.997 149.961 150.928 149.428H152.48C152.576 149.865 152.765 150.233 153.048 150.532C153.336 150.831 153.691 151.055 154.112 151.204C154.539 151.353 155.005 151.428 155.512 151.428C156.003 151.428 156.453 151.351 156.864 151.196C157.28 151.041 157.613 150.817 157.864 150.524C158.115 150.225 158.24 149.868 158.24 149.452C158.24 148.993 158.091 148.625 157.792 148.348C157.493 148.065 157.032 147.839 156.408 147.668L154.024 147.052C153.485 146.919 153.008 146.732 152.592 146.492C152.181 146.247 151.859 145.927 151.624 145.532C151.389 145.132 151.272 144.636 151.272 144.044C151.272 143.388 151.453 142.817 151.816 142.332C152.179 141.841 152.669 141.463 153.288 141.196C153.912 140.924 154.616 140.788 155.4 140.788C156.307 140.788 157.069 140.945 157.688 141.26C158.312 141.575 158.784 141.988 159.104 142.5C159.424 143.012 159.584 143.559 159.584 144.14H158.064C158.016 143.612 157.861 143.196 157.6 142.892C157.339 142.583 157.013 142.361 156.624 142.228C156.235 142.089 155.811 142.02 155.352 142.02C154.525 142.02 153.899 142.209 153.472 142.588C153.051 142.961 152.84 143.407 152.84 143.924C152.84 144.399 152.992 144.772 153.296 145.044C153.6 145.316 154.048 145.527 154.64 145.676L156.96 146.276C157.648 146.436 158.195 146.668 158.6 146.972C159.011 147.276 159.304 147.631 159.48 148.036C159.661 148.436 159.752 148.871 159.752 149.34C159.752 149.98 159.573 150.551 159.216 151.052C158.859 151.553 158.357 151.948 157.712 152.236C157.072 152.519 156.317 152.66 155.448 152.66ZM165.255 152.66C164.492 152.66 163.825 152.497 163.255 152.172C162.689 151.841 162.249 151.359 161.935 150.724C161.62 150.089 161.463 149.313 161.463 148.396C161.463 147.532 161.609 146.775 161.903 146.124C162.196 145.473 162.625 144.969 163.191 144.612C163.756 144.249 164.447 144.068 165.263 144.068C166.025 144.068 166.687 144.236 167.247 144.572C167.807 144.903 168.241 145.391 168.551 146.036C168.865 146.681 169.023 147.468 169.023 148.396C169.023 149.239 168.879 149.98 168.591 150.62C168.303 151.26 167.879 151.761 167.319 152.124C166.764 152.481 166.076 152.66 165.255 152.66ZM165.263 151.492C165.753 151.492 166.169 151.367 166.511 151.116C166.852 150.865 167.111 150.505 167.287 150.036C167.468 149.567 167.559 149.009 167.559 148.364C167.559 147.772 167.479 147.241 167.319 146.772C167.164 146.297 166.919 145.921 166.583 145.644C166.247 145.367 165.807 145.228 165.263 145.228C164.761 145.228 164.337 145.353 163.991 145.604C163.644 145.849 163.38 146.207 163.199 146.676C163.023 147.145 162.935 147.708 162.935 148.364C162.935 148.945 163.012 149.473 163.167 149.948C163.327 150.423 163.577 150.799 163.919 151.076C164.265 151.353 164.713 151.492 165.263 151.492ZM170.99 152.5V144.228H172.414V145.428C172.643 145.065 172.958 144.748 173.358 144.476C173.758 144.204 174.278 144.068 174.918 144.068C175.216 144.068 175.52 144.119 175.83 144.22C176.144 144.321 176.432 144.473 176.694 144.676C176.955 144.879 177.158 145.127 177.302 145.42C177.558 145.015 177.904 144.689 178.342 144.444C178.779 144.193 179.272 144.068 179.822 144.068C180.11 144.068 180.411 144.113 180.726 144.204C181.04 144.289 181.331 144.444 181.598 144.668C181.87 144.887 182.091 145.193 182.262 145.588C182.432 145.977 182.518 146.479 182.518 147.092V152.5H181.03V147.236C181.03 146.735 180.95 146.348 180.79 146.076C180.63 145.799 180.419 145.604 180.158 145.492C179.902 145.38 179.627 145.324 179.334 145.324C179.078 145.324 178.806 145.375 178.518 145.476C178.23 145.577 177.984 145.748 177.782 145.988C177.579 146.228 177.478 146.556 177.478 146.972V152.5H176.006V146.804C176.006 146.479 175.918 146.207 175.742 145.988C175.571 145.769 175.355 145.604 175.094 145.492C174.838 145.38 174.582 145.324 174.326 145.324C174.043 145.324 173.758 145.38 173.47 145.492C173.187 145.604 172.947 145.783 172.75 146.028C172.558 146.268 172.462 146.583 172.462 146.972V152.5H170.99ZM188.329 152.66C187.561 152.66 186.884 152.492 186.297 152.156C185.711 151.82 185.252 151.337 184.921 150.708C184.591 150.079 184.425 149.324 184.425 148.444C184.425 147.575 184.575 146.812 184.873 146.156C185.172 145.5 185.604 144.988 186.169 144.62C186.74 144.252 187.425 144.068 188.225 144.068C189.004 144.068 189.663 144.236 190.201 144.572C190.74 144.908 191.148 145.383 191.425 145.996C191.708 146.604 191.849 147.327 191.849 148.164V148.708H185.921C185.921 149.231 186.007 149.705 186.177 150.132C186.353 150.553 186.617 150.889 186.969 151.14C187.321 151.391 187.767 151.516 188.305 151.516C188.833 151.516 189.287 151.393 189.665 151.148C190.049 150.903 190.295 150.548 190.401 150.084H191.793C191.697 150.644 191.473 151.116 191.121 151.5C190.775 151.884 190.356 152.175 189.865 152.372C189.38 152.564 188.868 152.66 188.329 152.66ZM185.929 147.708H190.425C190.425 147.233 190.345 146.807 190.185 146.428C190.025 146.044 189.78 145.743 189.449 145.524C189.124 145.3 188.713 145.188 188.217 145.188C187.7 145.188 187.271 145.313 186.929 145.564C186.588 145.809 186.335 146.127 186.169 146.516C186.004 146.9 185.924 147.297 185.929 147.708ZM201.781 152.66C201.295 152.66 200.885 152.596 200.549 152.468C200.218 152.34 199.946 152.177 199.733 151.98C199.519 151.777 199.354 151.572 199.237 151.364C199.119 151.151 199.034 150.964 198.981 150.804L198.821 152.5H197.693V140.612H199.181V145.54C199.25 145.401 199.354 145.249 199.493 145.084C199.637 144.919 199.821 144.759 200.045 144.604C200.269 144.449 200.533 144.321 200.837 144.22C201.146 144.119 201.498 144.068 201.893 144.068C202.927 144.068 203.749 144.428 204.357 145.148C204.97 145.868 205.277 146.929 205.277 148.332C205.277 149.201 205.146 149.961 204.885 150.612C204.623 151.257 204.234 151.761 203.717 152.124C203.199 152.481 202.554 152.66 201.781 152.66ZM201.517 151.524C202.189 151.524 202.735 151.265 203.157 150.748C203.578 150.225 203.789 149.396 203.789 148.26C203.789 147.295 203.591 146.548 203.197 146.02C202.807 145.487 202.237 145.22 201.485 145.22C200.935 145.22 200.493 145.34 200.157 145.58C199.826 145.815 199.581 146.159 199.421 146.612C199.266 147.065 199.186 147.615 199.181 148.26C199.181 149.417 199.359 150.252 199.717 150.764C200.079 151.271 200.679 151.524 201.517 151.524ZM209.466 152.66C208.927 152.66 208.453 152.567 208.042 152.38C207.637 152.188 207.317 151.913 207.082 151.556C206.853 151.199 206.738 150.767 206.738 150.26C206.738 149.343 207.058 148.66 207.698 148.212C208.338 147.764 209.365 147.524 210.778 147.492L212.25 147.452V146.804C212.25 146.297 212.098 145.897 211.794 145.604C211.49 145.305 211.021 145.156 210.386 145.156C209.911 145.161 209.493 145.273 209.13 145.492C208.767 145.711 208.535 146.068 208.434 146.564H207.13C207.162 146.025 207.311 145.572 207.578 145.204C207.85 144.831 208.231 144.548 208.722 144.356C209.213 144.164 209.791 144.068 210.458 144.068C211.178 144.068 211.775 144.169 212.25 144.372C212.73 144.575 213.087 144.873 213.322 145.268C213.562 145.663 213.682 146.148 213.682 146.724V152.5H212.418L212.306 150.948C211.991 151.593 211.586 152.041 211.09 152.292C210.599 152.537 210.058 152.66 209.466 152.66ZM209.906 151.596C210.189 151.596 210.466 151.545 210.738 151.444C211.015 151.343 211.266 151.207 211.49 151.036C211.719 150.86 211.903 150.665 212.042 150.452C212.181 150.233 212.25 150.009 212.25 149.78V148.364L211.026 148.388C210.391 148.399 209.863 148.463 209.442 148.58C209.021 148.697 208.703 148.881 208.49 149.132C208.277 149.383 208.17 149.711 208.17 150.116C208.17 150.58 208.333 150.943 208.658 151.204C208.983 151.465 209.399 151.596 209.906 151.596ZM218.888 152.66C218.312 152.66 217.776 152.572 217.28 152.396C216.789 152.215 216.381 151.935 216.056 151.556C215.73 151.172 215.528 150.684 215.448 150.092H216.792C216.861 150.417 216.994 150.689 217.192 150.908C217.389 151.121 217.632 151.284 217.92 151.396C218.213 151.503 218.533 151.556 218.88 151.556C219.44 151.556 219.89 151.452 220.232 151.244C220.573 151.036 220.744 150.716 220.744 150.284C220.744 149.98 220.653 149.737 220.472 149.556C220.296 149.369 220.018 149.233 219.64 149.148L217.928 148.724C217.261 148.564 216.728 148.313 216.328 147.972C215.933 147.631 215.733 147.153 215.728 146.54C215.728 146.055 215.845 145.628 216.08 145.26C216.314 144.892 216.664 144.601 217.128 144.388C217.597 144.175 218.181 144.068 218.88 144.068C219.781 144.068 220.506 144.271 221.056 144.676C221.605 145.076 221.893 145.665 221.92 146.444H220.608C220.554 146.049 220.378 145.737 220.08 145.508C219.781 145.273 219.376 145.156 218.864 145.156C218.341 145.156 217.912 145.263 217.576 145.476C217.245 145.684 217.08 146.009 217.08 146.452C217.08 146.745 217.197 146.977 217.432 147.148C217.672 147.313 218.018 147.452 218.472 147.564L220.136 147.98C220.514 148.081 220.829 148.215 221.08 148.38C221.33 148.545 221.528 148.729 221.672 148.932C221.816 149.135 221.917 149.348 221.976 149.572C222.04 149.791 222.072 150.001 222.072 150.204C222.072 150.711 221.946 151.148 221.696 151.516C221.445 151.879 221.082 152.161 220.608 152.364C220.133 152.561 219.56 152.66 218.888 152.66ZM224.045 152.5V144.228H225.477V152.5H224.045ZM224.005 142.476V140.94H225.517V142.476H224.005ZM231.286 152.66C230.54 152.66 229.878 152.497 229.302 152.172C228.732 151.847 228.284 151.367 227.958 150.732C227.638 150.097 227.478 149.319 227.478 148.396C227.478 147.532 227.625 146.777 227.918 146.132C228.217 145.481 228.649 144.975 229.214 144.612C229.785 144.249 230.476 144.068 231.286 144.068C231.878 144.068 232.409 144.183 232.878 144.412C233.353 144.636 233.742 144.956 234.046 145.372C234.35 145.788 234.537 146.279 234.606 146.844H233.294C233.246 146.556 233.134 146.292 232.958 146.052C232.788 145.812 232.561 145.62 232.278 145.476C232.001 145.332 231.673 145.26 231.294 145.26C230.585 145.26 230.006 145.516 229.558 146.028C229.116 146.54 228.894 147.324 228.894 148.38C228.894 149.335 229.097 150.1 229.502 150.676C229.913 151.247 230.516 151.532 231.31 151.532C231.689 151.532 232.02 151.46 232.302 151.316C232.585 151.167 232.812 150.972 232.982 150.732C233.153 150.487 233.262 150.225 233.31 149.948H234.598C234.529 150.503 234.34 150.983 234.03 151.388C233.726 151.793 233.337 152.108 232.862 152.332C232.393 152.551 231.868 152.66 231.286 152.66ZM243.271 152.66C242.194 152.66 241.341 152.292 240.711 151.556C240.087 150.82 239.775 149.745 239.775 148.332C239.775 147.473 239.901 146.724 240.151 146.084C240.402 145.444 240.778 144.948 241.279 144.596C241.781 144.244 242.405 144.068 243.151 144.068C243.551 144.068 243.903 144.119 244.207 144.22C244.511 144.321 244.775 144.449 244.999 144.604C245.223 144.759 245.405 144.919 245.543 145.084C245.687 145.249 245.794 145.401 245.863 145.54V140.612H247.359V152.5H246.223L246.063 150.804C246.01 150.964 245.925 151.151 245.807 151.364C245.69 151.572 245.525 151.777 245.311 151.98C245.103 152.177 244.831 152.34 244.495 152.468C244.159 152.596 243.751 152.66 243.271 152.66ZM243.535 151.524C244.367 151.524 244.962 151.271 245.319 150.764C245.682 150.252 245.863 149.417 245.863 148.26C245.858 147.615 245.778 147.065 245.623 146.612C245.469 146.159 245.223 145.815 244.887 145.58C244.557 145.34 244.114 145.22 243.559 145.22C242.882 145.22 242.33 145.463 241.903 145.948C241.477 146.433 241.263 147.204 241.263 148.26C241.263 149.295 241.455 150.097 241.839 150.668C242.223 151.239 242.789 151.524 243.535 151.524ZM253.298 152.66C252.53 152.66 251.853 152.492 251.266 152.156C250.679 151.82 250.221 151.337 249.89 150.708C249.559 150.079 249.394 149.324 249.394 148.444C249.394 147.575 249.543 146.812 249.842 146.156C250.141 145.5 250.573 144.988 251.138 144.62C251.709 144.252 252.394 144.068 253.194 144.068C253.973 144.068 254.631 144.236 255.17 144.572C255.709 144.908 256.117 145.383 256.394 145.996C256.677 146.604 256.818 147.327 256.818 148.164V148.708H250.89C250.89 149.231 250.975 149.705 251.146 150.132C251.322 150.553 251.586 150.889 251.938 151.14C252.29 151.391 252.735 151.516 253.274 151.516C253.802 151.516 254.255 151.393 254.634 151.148C255.018 150.903 255.263 150.548 255.37 150.084H256.762C256.666 150.644 256.442 151.116 256.09 151.5C255.743 151.884 255.325 152.175 254.834 152.372C254.349 152.564 253.837 152.66 253.298 152.66ZM250.898 147.708H255.394C255.394 147.233 255.314 146.807 255.154 146.428C254.994 146.044 254.749 145.743 254.418 145.524C254.093 145.3 253.682 145.188 253.186 145.188C252.669 145.188 252.239 145.313 251.898 145.564C251.557 145.809 251.303 146.127 251.138 146.516C250.973 146.9 250.893 147.297 250.898 147.708ZM261.522 152.54C260.951 152.54 260.508 152.463 260.194 152.308C259.879 152.153 259.658 151.924 259.53 151.62C259.407 151.316 259.346 150.943 259.346 150.5V145.308H258.002V144.228H259.386L259.746 141.82H260.834V144.22H262.698V145.308H260.834V150.452C260.834 150.745 260.863 150.961 260.922 151.1C260.986 151.233 261.09 151.319 261.234 151.356C261.378 151.393 261.58 151.412 261.842 151.412H262.746V152.404C262.644 152.441 262.49 152.473 262.282 152.5C262.079 152.527 261.826 152.54 261.522 152.54ZM266.982 152.66C266.443 152.66 265.968 152.567 265.558 152.38C265.152 152.188 264.832 151.913 264.598 151.556C264.368 151.199 264.254 150.767 264.254 150.26C264.254 149.343 264.574 148.66 265.214 148.212C265.854 147.764 266.88 147.524 268.294 147.492L269.766 147.452V146.804C269.766 146.297 269.614 145.897 269.31 145.604C269.006 145.305 268.536 145.156 267.902 145.156C267.427 145.161 267.008 145.273 266.646 145.492C266.283 145.711 266.051 146.068 265.95 146.564H264.646C264.678 146.025 264.827 145.572 265.094 145.204C265.366 144.831 265.747 144.548 266.238 144.356C266.728 144.164 267.307 144.068 267.974 144.068C268.694 144.068 269.291 144.169 269.766 144.372C270.246 144.575 270.603 144.873 270.838 145.268C271.078 145.663 271.198 146.148 271.198 146.724V152.5H269.934L269.822 150.948C269.507 151.593 269.102 152.041 268.606 152.292C268.115 152.537 267.574 152.66 266.982 152.66ZM267.422 151.596C267.704 151.596 267.982 151.545 268.254 151.444C268.531 151.343 268.782 151.207 269.006 151.036C269.235 150.86 269.419 150.665 269.558 150.452C269.696 150.233 269.766 150.009 269.766 149.78V148.364L268.542 148.388C267.907 148.399 267.379 148.463 266.958 148.58C266.536 148.697 266.219 148.881 266.006 149.132C265.792 149.383 265.686 149.711 265.686 150.116C265.686 150.58 265.848 150.943 266.174 151.204C266.499 151.465 266.915 151.596 267.422 151.596ZM273.545 152.5V144.228H274.977V152.5H273.545ZM273.505 142.476V140.94H275.017V142.476H273.505ZM279.64 152.604C279.192 152.604 278.829 152.543 278.552 152.42C278.28 152.297 278.069 152.132 277.92 151.924C277.776 151.716 277.677 151.479 277.624 151.212C277.576 150.94 277.552 150.66 277.552 150.372V140.612H279.008V150.228C279.008 150.644 279.088 150.956 279.248 151.164C279.413 151.372 279.643 151.487 279.936 151.508L280.384 151.516V152.476C280.261 152.513 280.133 152.543 280 152.564C279.867 152.591 279.747 152.604 279.64 152.604ZM285.138 152.66C284.562 152.66 284.026 152.572 283.53 152.396C283.039 152.215 282.631 151.935 282.306 151.556C281.98 151.172 281.778 150.684 281.698 150.092H283.042C283.111 150.417 283.244 150.689 283.442 150.908C283.639 151.121 283.882 151.284 284.17 151.396C284.463 151.503 284.783 151.556 285.13 151.556C285.69 151.556 286.14 151.452 286.482 151.244C286.823 151.036 286.994 150.716 286.994 150.284C286.994 149.98 286.903 149.737 286.722 149.556C286.546 149.369 286.268 149.233 285.89 149.148L284.178 148.724C283.511 148.564 282.978 148.313 282.578 147.972C282.183 147.631 281.983 147.153 281.978 146.54C281.978 146.055 282.095 145.628 282.33 145.26C282.564 144.892 282.914 144.601 283.378 144.388C283.847 144.175 284.431 144.068 285.13 144.068C286.031 144.068 286.756 144.271 287.306 144.676C287.855 145.076 288.143 145.665 288.17 146.444H286.858C286.804 146.049 286.628 145.737 286.33 145.508C286.031 145.273 285.626 145.156 285.114 145.156C284.591 145.156 284.162 145.263 283.826 145.476C283.495 145.684 283.33 146.009 283.33 146.452C283.33 146.745 283.447 146.977 283.682 147.148C283.922 147.313 284.268 147.452 284.722 147.564L286.386 147.98C286.764 148.081 287.079 148.215 287.33 148.38C287.58 148.545 287.778 148.729 287.922 148.932C288.066 149.135 288.167 149.348 288.226 149.572C288.29 149.791 288.322 150.001 288.322 150.204C288.322 150.711 288.196 151.148 287.946 151.516C287.695 151.879 287.332 152.161 286.858 152.364C286.383 152.561 285.81 152.66 285.138 152.66ZM297.115 152.54C296.545 152.54 296.102 152.463 295.787 152.308C295.473 152.153 295.251 151.924 295.123 151.62C295.001 151.316 294.939 150.943 294.939 150.5V145.308H293.595V144.228H294.979L295.339 141.82H296.427V144.22H298.291V145.308H296.427V150.452C296.427 150.745 296.457 150.961 296.515 151.1C296.579 151.233 296.683 151.319 296.827 151.356C296.971 151.393 297.174 151.412 297.435 151.412H298.339V152.404C298.238 152.441 298.083 152.473 297.875 152.5C297.673 152.527 297.419 152.54 297.115 152.54ZM303.395 152.66C302.633 152.66 301.966 152.497 301.395 152.172C300.83 151.841 300.39 151.359 300.075 150.724C299.761 150.089 299.603 149.313 299.603 148.396C299.603 147.532 299.75 146.775 300.043 146.124C300.337 145.473 300.766 144.969 301.331 144.612C301.897 144.249 302.587 144.068 303.403 144.068C304.166 144.068 304.827 144.236 305.387 144.572C305.947 144.903 306.382 145.391 306.691 146.036C307.006 146.681 307.163 147.468 307.163 148.396C307.163 149.239 307.019 149.98 306.731 150.62C306.443 151.26 306.019 151.761 305.459 152.124C304.905 152.481 304.217 152.66 303.395 152.66ZM303.403 151.492C303.894 151.492 304.31 151.367 304.651 151.116C304.993 150.865 305.251 150.505 305.427 150.036C305.609 149.567 305.699 149.009 305.699 148.364C305.699 147.772 305.619 147.241 305.459 146.772C305.305 146.297 305.059 145.921 304.723 145.644C304.387 145.367 303.947 145.228 303.403 145.228C302.902 145.228 302.478 145.353 302.131 145.604C301.785 145.849 301.521 146.207 301.339 146.676C301.163 147.145 301.075 147.708 301.075 148.364C301.075 148.945 301.153 149.473 301.307 149.948C301.467 150.423 301.718 150.799 302.059 151.076C302.406 151.353 302.854 151.492 303.403 151.492ZM316.423 155.236C315.127 155.236 314.116 155.047 313.391 154.668C312.666 154.295 312.303 153.759 312.303 153.06C312.303 152.761 312.372 152.508 312.511 152.3C312.65 152.087 312.815 151.911 313.007 151.772C313.199 151.633 313.378 151.524 313.543 151.444C313.708 151.359 313.818 151.297 313.871 151.26C313.775 151.207 313.66 151.14 313.527 151.06C313.394 150.98 313.274 150.873 313.167 150.74C313.066 150.607 313.015 150.433 313.015 150.22C313.015 149.959 313.138 149.719 313.383 149.5C313.628 149.281 313.994 149.119 314.479 149.012C313.994 148.767 313.615 148.441 313.343 148.036C313.071 147.631 312.935 147.191 312.935 146.716C312.935 146.183 313.079 145.719 313.367 145.324C313.655 144.929 314.068 144.628 314.607 144.42C315.146 144.207 315.788 144.1 316.535 144.1C317.074 144.1 317.524 144.164 317.887 144.292C318.255 144.415 318.596 144.591 318.911 144.82C318.996 144.783 319.132 144.727 319.319 144.652C319.506 144.572 319.708 144.487 319.927 144.396C320.151 144.305 320.359 144.22 320.551 144.14C320.748 144.055 320.906 143.991 321.023 143.948L321.015 145.316L319.567 145.588C319.652 145.759 319.719 145.945 319.767 146.148C319.815 146.351 319.839 146.54 319.839 146.716C319.839 147.201 319.711 147.641 319.455 148.036C319.204 148.431 318.823 148.745 318.311 148.98C317.799 149.215 317.159 149.332 316.391 149.332C316.327 149.332 316.244 149.332 316.143 149.332C316.047 149.327 315.964 149.321 315.895 149.316C315.33 149.332 314.94 149.396 314.727 149.508C314.519 149.615 314.415 149.735 314.415 149.868C314.415 150.023 314.535 150.129 314.775 150.188C315.015 150.247 315.42 150.297 315.991 150.34C316.199 150.351 316.455 150.364 316.759 150.38C317.068 150.396 317.412 150.417 317.791 150.444C318.655 150.497 319.322 150.719 319.791 151.108C320.26 151.497 320.495 152.023 320.495 152.684C320.495 153.436 320.159 154.049 319.487 154.524C318.82 154.999 317.799 155.236 316.423 155.236ZM316.687 154.284C317.45 154.284 318.034 154.169 318.439 153.94C318.85 153.711 319.055 153.364 319.055 152.9C319.055 152.569 318.93 152.3 318.679 152.092C318.428 151.879 318.05 151.756 317.543 151.724L315.223 151.572C315.015 151.561 314.799 151.615 314.575 151.732C314.351 151.844 314.162 152.001 314.007 152.204C313.852 152.407 313.775 152.636 313.775 152.892C313.775 153.329 314.012 153.671 314.487 153.916C314.962 154.161 315.695 154.284 316.687 154.284ZM316.439 148.38C317.031 148.38 317.508 148.241 317.871 147.964C318.239 147.687 318.423 147.276 318.423 146.732C318.423 146.172 318.239 145.745 317.871 145.452C317.508 145.159 317.031 145.012 316.439 145.012C315.831 145.012 315.34 145.161 314.967 145.46C314.599 145.753 314.415 146.177 314.415 146.732C314.415 147.255 314.591 147.66 314.943 147.948C315.3 148.236 315.799 148.38 316.439 148.38ZM326.126 152.66C325.358 152.66 324.681 152.492 324.094 152.156C323.508 151.82 323.049 151.337 322.718 150.708C322.388 150.079 322.222 149.324 322.222 148.444C322.222 147.575 322.372 146.812 322.67 146.156C322.969 145.5 323.401 144.988 323.966 144.62C324.537 144.252 325.222 144.068 326.022 144.068C326.801 144.068 327.46 144.236 327.998 144.572C328.537 144.908 328.945 145.383 329.222 145.996C329.505 146.604 329.646 147.327 329.646 148.164V148.708H323.718C323.718 149.231 323.804 149.705 323.974 150.132C324.15 150.553 324.414 150.889 324.766 151.14C325.118 151.391 325.564 151.516 326.102 151.516C326.63 151.516 327.084 151.393 327.462 151.148C327.846 150.903 328.092 150.548 328.198 150.084H329.59C329.494 150.644 329.27 151.116 328.918 151.5C328.572 151.884 328.153 152.175 327.662 152.372C327.177 152.564 326.665 152.66 326.126 152.66ZM323.726 147.708H328.222C328.222 147.233 328.142 146.807 327.982 146.428C327.822 146.044 327.577 145.743 327.246 145.524C326.921 145.3 326.51 145.188 326.014 145.188C325.497 145.188 325.068 145.313 324.726 145.564C324.385 145.809 324.132 146.127 323.966 146.516C323.801 146.9 323.721 147.297 323.726 147.708ZM334.35 152.54C333.779 152.54 333.336 152.463 333.022 152.308C332.707 152.153 332.486 151.924 332.358 151.62C332.235 151.316 332.174 150.943 332.174 150.5V145.308H330.83V144.228H332.214L332.574 141.82H333.662V144.22H335.526V145.308H333.662V150.452C333.662 150.745 333.691 150.961 333.75 151.1C333.814 151.233 333.918 151.319 334.062 151.356C334.206 151.393 334.408 151.412 334.67 151.412H335.574V152.404C335.472 152.441 335.318 152.473 335.11 152.5C334.907 152.527 334.654 152.54 334.35 152.54ZM344.403 152.66C343.827 152.66 343.291 152.572 342.795 152.396C342.304 152.215 341.896 151.935 341.571 151.556C341.246 151.172 341.043 150.684 340.963 150.092H342.307C342.376 150.417 342.51 150.689 342.707 150.908C342.904 151.121 343.147 151.284 343.435 151.396C343.728 151.503 344.048 151.556 344.395 151.556C344.955 151.556 345.406 151.452 345.747 151.244C346.088 151.036 346.259 150.716 346.259 150.284C346.259 149.98 346.168 149.737 345.987 149.556C345.811 149.369 345.534 149.233 345.155 149.148L343.443 148.724C342.776 148.564 342.243 148.313 341.843 147.972C341.448 147.631 341.248 147.153 341.243 146.54C341.243 146.055 341.36 145.628 341.595 145.26C341.83 144.892 342.179 144.601 342.643 144.388C343.112 144.175 343.696 144.068 344.395 144.068C345.296 144.068 346.022 144.271 346.571 144.676C347.12 145.076 347.408 145.665 347.435 146.444H346.123C346.07 146.049 345.894 145.737 345.595 145.508C345.296 145.273 344.891 145.156 344.379 145.156C343.856 145.156 343.427 145.263 343.091 145.476C342.76 145.684 342.595 146.009 342.595 146.452C342.595 146.745 342.712 146.977 342.947 147.148C343.187 147.313 343.534 147.452 343.987 147.564L345.651 147.98C346.03 148.081 346.344 148.215 346.595 148.38C346.846 148.545 347.043 148.729 347.187 148.932C347.331 149.135 347.432 149.348 347.491 149.572C347.555 149.791 347.587 150.001 347.587 150.204C347.587 150.711 347.462 151.148 347.211 151.516C346.96 151.879 346.598 152.161 346.123 152.364C345.648 152.561 345.075 152.66 344.403 152.66ZM352.381 152.54C351.81 152.54 351.368 152.463 351.053 152.308C350.738 152.153 350.517 151.924 350.389 151.62C350.266 151.316 350.205 150.943 350.205 150.5V145.308H348.861V144.228H350.245L350.605 141.82H351.693V144.22H353.557V145.308H351.693V150.452C351.693 150.745 351.722 150.961 351.781 151.1C351.845 151.233 351.949 151.319 352.093 151.356C352.237 151.393 352.44 151.412 352.701 151.412H353.605V152.404C353.504 152.441 353.349 152.473 353.141 152.5C352.938 152.527 352.685 152.54 352.381 152.54ZM357.841 152.66C357.302 152.66 356.828 152.567 356.417 152.38C356.012 152.188 355.692 151.913 355.457 151.556C355.228 151.199 355.113 150.767 355.113 150.26C355.113 149.343 355.433 148.66 356.073 148.212C356.713 147.764 357.74 147.524 359.153 147.492L360.625 147.452V146.804C360.625 146.297 360.473 145.897 360.169 145.604C359.865 145.305 359.396 145.156 358.761 145.156C358.286 145.161 357.868 145.273 357.505 145.492C357.142 145.711 356.91 146.068 356.809 146.564H355.505C355.537 146.025 355.686 145.572 355.953 145.204C356.225 144.831 356.606 144.548 357.097 144.356C357.588 144.164 358.166 144.068 358.833 144.068C359.553 144.068 360.15 144.169 360.625 144.372C361.105 144.575 361.462 144.873 361.697 145.268C361.937 145.663 362.057 146.148 362.057 146.724V152.5H360.793L360.681 150.948C360.366 151.593 359.961 152.041 359.465 152.292C358.974 152.537 358.433 152.66 357.841 152.66ZM358.281 151.596C358.564 151.596 358.841 151.545 359.113 151.444C359.39 151.343 359.641 151.207 359.865 151.036C360.094 150.86 360.278 150.665 360.417 150.452C360.556 150.233 360.625 150.009 360.625 149.78V148.364L359.401 148.388C358.766 148.399 358.238 148.463 357.817 148.58C357.396 148.697 357.078 148.881 356.865 149.132C356.652 149.383 356.545 149.711 356.545 150.116C356.545 150.58 356.708 150.943 357.033 151.204C357.358 151.465 357.774 151.596 358.281 151.596ZM364.365 152.5V144.228H365.773V145.82C365.911 145.425 366.106 145.1 366.357 144.844C366.607 144.583 366.893 144.388 367.213 144.26C367.538 144.132 367.874 144.068 368.221 144.068C368.343 144.068 368.463 144.076 368.581 144.092C368.698 144.108 368.789 144.135 368.853 144.172V145.604C368.773 145.567 368.669 145.543 368.541 145.532C368.418 145.516 368.314 145.508 368.229 145.508C367.898 145.487 367.589 145.508 367.301 145.572C367.013 145.631 366.759 145.735 366.541 145.884C366.322 146.033 366.149 146.231 366.021 146.476C365.898 146.716 365.837 147.009 365.837 147.356V152.5H364.365ZM373.412 152.54C372.842 152.54 372.399 152.463 372.084 152.308C371.77 152.153 371.548 151.924 371.42 151.62C371.298 151.316 371.236 150.943 371.236 150.5V145.308H369.892V144.228H371.276L371.636 141.82H372.724V144.22H374.588V145.308H372.724V150.452C372.724 150.745 372.754 150.961 372.812 151.1C372.876 151.233 372.98 151.319 373.124 151.356C373.268 151.393 373.471 151.412 373.732 151.412H374.636V152.404C374.535 152.441 374.38 152.473 374.172 152.5C373.97 152.527 373.716 152.54 373.412 152.54ZM379.876 152.66C379.108 152.66 378.431 152.492 377.844 152.156C377.258 151.82 376.799 151.337 376.468 150.708C376.138 150.079 375.972 149.324 375.972 148.444C375.972 147.575 376.122 146.812 376.42 146.156C376.719 145.5 377.151 144.988 377.716 144.62C378.287 144.252 378.972 144.068 379.772 144.068C380.551 144.068 381.21 144.236 381.748 144.572C382.287 144.908 382.695 145.383 382.972 145.996C383.255 146.604 383.396 147.327 383.396 148.164V148.708H377.468C377.468 149.231 377.554 149.705 377.724 150.132C377.9 150.553 378.164 150.889 378.516 151.14C378.868 151.391 379.314 151.516 379.852 151.516C380.38 151.516 380.834 151.393 381.212 151.148C381.596 150.903 381.842 150.548 381.948 150.084H383.34C383.244 150.644 383.02 151.116 382.668 151.5C382.322 151.884 381.903 152.175 381.412 152.372C380.927 152.564 380.415 152.66 379.876 152.66ZM377.476 147.708H381.972C381.972 147.233 381.892 146.807 381.732 146.428C381.572 146.044 381.327 145.743 380.996 145.524C380.671 145.3 380.26 145.188 379.764 145.188C379.247 145.188 378.818 145.313 378.476 145.564C378.135 145.809 377.882 146.127 377.716 146.516C377.551 146.9 377.471 147.297 377.476 147.708ZM388.459 152.66C387.381 152.66 386.528 152.292 385.899 151.556C385.275 150.82 384.963 149.745 384.963 148.332C384.963 147.473 385.088 146.724 385.339 146.084C385.589 145.444 385.965 144.948 386.467 144.596C386.968 144.244 387.592 144.068 388.339 144.068C388.739 144.068 389.091 144.119 389.395 144.22C389.699 144.321 389.963 144.449 390.187 144.604C390.411 144.759 390.592 144.919 390.731 145.084C390.875 145.249 390.981 145.401 391.051 145.54V140.612H392.547V152.5H391.411L391.251 150.804C391.197 150.964 391.112 151.151 390.995 151.364C390.877 151.572 390.712 151.777 390.499 151.98C390.291 152.177 390.019 152.34 389.683 152.468C389.347 152.596 388.939 152.66 388.459 152.66ZM388.723 151.524C389.555 151.524 390.149 151.271 390.507 150.764C390.869 150.252 391.051 149.417 391.051 148.26C391.045 147.615 390.965 147.065 390.811 146.612C390.656 146.159 390.411 145.815 390.075 145.58C389.744 145.34 389.301 145.22 388.747 145.22C388.069 145.22 387.517 145.463 387.091 145.948C386.664 146.433 386.451 147.204 386.451 148.26C386.451 149.295 386.643 150.097 387.027 150.668C387.411 151.239 387.976 151.524 388.723 151.524Z" fill="#737373"/>
<path d="M151.337 209.5V199.378H157.721L157.714 200.519H152.639V203.823H157.21V204.957H152.632V208.331L157.854 208.345V209.5H151.337ZM159.575 209.5V202.262H160.821V203.312C161.022 202.995 161.297 202.717 161.647 202.479C161.997 202.241 162.452 202.122 163.012 202.122C163.273 202.122 163.539 202.166 163.81 202.255C164.085 202.344 164.337 202.477 164.566 202.654C164.795 202.831 164.972 203.048 165.098 203.305C165.322 202.95 165.625 202.666 166.008 202.451C166.391 202.232 166.822 202.122 167.303 202.122C167.555 202.122 167.819 202.162 168.094 202.241C168.369 202.316 168.624 202.451 168.857 202.647C169.095 202.838 169.289 203.107 169.438 203.452C169.587 203.793 169.662 204.231 169.662 204.768V209.5H168.36V204.894C168.36 204.455 168.29 204.117 168.15 203.879C168.01 203.636 167.826 203.466 167.597 203.368C167.373 203.27 167.133 203.221 166.876 203.221C166.652 203.221 166.414 203.265 166.162 203.354C165.91 203.443 165.695 203.592 165.518 203.802C165.341 204.012 165.252 204.299 165.252 204.663V209.5H163.964V204.516C163.964 204.231 163.887 203.993 163.733 203.802C163.584 203.611 163.395 203.466 163.166 203.368C162.942 203.27 162.718 203.221 162.494 203.221C162.247 203.221 161.997 203.27 161.745 203.368C161.498 203.466 161.288 203.622 161.115 203.837C160.947 204.047 160.863 204.322 160.863 204.663V209.5H159.575ZM173.691 209.64C173.22 209.64 172.804 209.558 172.445 209.395C172.09 209.227 171.81 208.987 171.605 208.674C171.404 208.361 171.304 207.983 171.304 207.54C171.304 206.737 171.584 206.14 172.144 205.748C172.704 205.356 173.602 205.146 174.839 205.118L176.127 205.083V204.516C176.127 204.073 175.994 203.723 175.728 203.466C175.462 203.205 175.051 203.074 174.496 203.074C174.081 203.079 173.714 203.177 173.397 203.368C173.08 203.559 172.877 203.872 172.788 204.306H171.647C171.675 203.835 171.806 203.438 172.039 203.116C172.277 202.789 172.611 202.542 173.04 202.374C173.469 202.206 173.976 202.122 174.559 202.122C175.189 202.122 175.712 202.211 176.127 202.388C176.547 202.565 176.86 202.827 177.065 203.172C177.275 203.517 177.38 203.942 177.38 204.446V209.5H176.274L176.176 208.142C175.901 208.707 175.546 209.099 175.112 209.318C174.683 209.533 174.209 209.64 173.691 209.64ZM174.076 208.709C174.323 208.709 174.566 208.665 174.804 208.576C175.047 208.487 175.266 208.368 175.462 208.219C175.663 208.065 175.824 207.895 175.945 207.708C176.066 207.517 176.127 207.321 176.127 207.12V205.881L175.056 205.902C174.501 205.911 174.039 205.967 173.67 206.07C173.301 206.173 173.024 206.334 172.837 206.553C172.65 206.772 172.557 207.059 172.557 207.414C172.557 207.82 172.699 208.137 172.984 208.366C173.269 208.595 173.633 208.709 174.076 208.709ZM179.434 209.5V202.262H180.687V209.5H179.434ZM179.399 200.729V199.385H180.722V200.729H179.399ZM184.767 209.591C184.375 209.591 184.058 209.537 183.815 209.43C183.577 209.323 183.393 209.178 183.262 208.996C183.136 208.814 183.05 208.606 183.003 208.373C182.961 208.135 182.94 207.89 182.94 207.638V199.098H184.214V207.512C184.214 207.876 184.284 208.149 184.424 208.331C184.569 208.513 184.769 208.613 185.026 208.632L185.418 208.639V209.479C185.311 209.512 185.199 209.537 185.082 209.556C184.965 209.579 184.86 209.591 184.767 209.591Z" fill="#A3A3A3"/>
<path d="M150 230.5C150 226.082 153.582 222.5 158 222.5H587C591.418 222.5 595 226.082 595 230.5V262.5C595 266.918 591.418 270.5 587 270.5H158C153.582 270.5 150 266.918 150 262.5V230.5Z" fill="#272727"/>
<path d="M162.672 255.156C162.219 255.156 161.933 255.124 161.816 255.06C161.693 254.996 161.632 254.964 161.632 254.964V253.98L162.448 253.94C162.821 253.913 163.083 253.815 163.232 253.644C163.381 253.473 163.456 253.199 163.456 252.82V244.228H164.936V252.868C164.936 253.641 164.768 254.215 164.432 254.588C164.101 254.967 163.515 255.156 162.672 255.156ZM163.408 242.476V240.94H164.976V242.476H163.408ZM170.739 252.66C169.976 252.66 169.31 252.497 168.739 252.172C168.174 251.841 167.734 251.359 167.419 250.724C167.104 250.089 166.947 249.313 166.947 248.396C166.947 247.532 167.094 246.775 167.387 246.124C167.68 245.473 168.11 244.969 168.675 244.612C169.24 244.249 169.931 244.068 170.747 244.068C171.51 244.068 172.171 244.236 172.731 244.572C173.291 244.903 173.726 245.391 174.035 246.036C174.35 246.681 174.507 247.468 174.507 248.396C174.507 249.239 174.363 249.98 174.075 250.62C173.787 251.26 173.363 251.761 172.803 252.124C172.248 252.481 171.56 252.66 170.739 252.66ZM170.747 251.492C171.238 251.492 171.654 251.367 171.995 251.116C172.336 250.865 172.595 250.505 172.771 250.036C172.952 249.567 173.043 249.009 173.043 248.364C173.043 247.772 172.963 247.241 172.803 246.772C172.648 246.297 172.403 245.921 172.067 245.644C171.731 245.367 171.291 245.228 170.747 245.228C170.246 245.228 169.822 245.353 169.475 245.604C169.128 245.849 168.864 246.207 168.683 246.676C168.507 247.145 168.419 247.708 168.419 248.364C168.419 248.945 168.496 249.473 168.651 249.948C168.811 250.423 169.062 250.799 169.403 251.076C169.75 251.353 170.198 251.492 170.747 251.492ZM176.474 252.5V240.612H177.914V245.444C178.053 245.215 178.239 245.001 178.474 244.804C178.709 244.601 178.994 244.439 179.33 244.316C179.666 244.188 180.055 244.124 180.498 244.124C181.037 244.124 181.525 244.225 181.962 244.428C182.399 244.625 182.746 244.908 183.002 245.276C183.258 245.644 183.386 246.081 183.386 246.588V252.5H181.906V246.884C181.906 246.388 181.735 246.007 181.394 245.74C181.058 245.468 180.618 245.332 180.074 245.332C179.706 245.332 179.359 245.393 179.034 245.516C178.709 245.633 178.445 245.815 178.242 246.06C178.045 246.3 177.946 246.607 177.946 246.98V252.5H176.474ZM185.693 252.5V244.228H187.125V245.428C187.258 245.199 187.442 244.983 187.677 244.78C187.917 244.577 188.205 244.415 188.541 244.292C188.882 244.169 189.274 244.108 189.717 244.108C190.239 244.108 190.719 244.212 191.157 244.42C191.599 244.628 191.951 244.953 192.213 245.396C192.479 245.833 192.613 246.399 192.613 247.092V252.5H191.133V247.236C191.133 246.591 190.962 246.113 190.621 245.804C190.285 245.489 189.847 245.332 189.309 245.332C188.935 245.332 188.586 245.393 188.261 245.516C187.935 245.633 187.671 245.815 187.469 246.06C187.266 246.3 187.165 246.604 187.165 246.972V252.5H185.693ZM197.943 252.66C196.866 252.66 196.012 252.292 195.383 251.556C194.759 250.82 194.447 249.745 194.447 248.332C194.447 247.473 194.572 246.724 194.823 246.084C195.074 245.444 195.45 244.948 195.951 244.596C196.452 244.244 197.076 244.068 197.823 244.068C198.223 244.068 198.575 244.119 198.879 244.22C199.183 244.321 199.447 244.449 199.671 244.604C199.895 244.759 200.076 244.919 200.215 245.084C200.359 245.249 200.466 245.401 200.535 245.54V240.612H202.031V252.5H200.895L200.735 250.804C200.682 250.964 200.596 251.151 200.479 251.364C200.362 251.572 200.196 251.777 199.983 251.98C199.775 252.177 199.503 252.34 199.167 252.468C198.831 252.596 198.423 252.66 197.943 252.66ZM198.207 251.524C199.039 251.524 199.634 251.271 199.991 250.764C200.354 250.252 200.535 249.417 200.535 248.26C200.53 247.615 200.45 247.065 200.295 246.612C200.14 246.159 199.895 245.815 199.559 245.58C199.228 245.34 198.786 245.22 198.231 245.22C197.554 245.22 197.002 245.463 196.575 245.948C196.148 246.433 195.935 247.204 195.935 248.26C195.935 249.295 196.127 250.097 196.511 250.668C196.895 251.239 197.46 251.524 198.207 251.524ZM207.786 252.66C207.023 252.66 206.357 252.497 205.786 252.172C205.221 251.841 204.781 251.359 204.466 250.724C204.151 250.089 203.994 249.313 203.994 248.396C203.994 247.532 204.141 246.775 204.434 246.124C204.727 245.473 205.157 244.969 205.722 244.612C206.287 244.249 206.978 244.068 207.794 244.068C208.557 244.068 209.218 244.236 209.778 244.572C210.338 244.903 210.773 245.391 211.082 246.036C211.397 246.681 211.554 247.468 211.554 248.396C211.554 249.239 211.41 249.98 211.122 250.62C210.834 251.26 210.41 251.761 209.85 252.124C209.295 252.481 208.607 252.66 207.786 252.66ZM207.794 251.492C208.285 251.492 208.701 251.367 209.042 251.116C209.383 250.865 209.642 250.505 209.818 250.036C209.999 249.567 210.09 249.009 210.09 248.364C210.09 247.772 210.01 247.241 209.85 246.772C209.695 246.297 209.45 245.921 209.114 245.644C208.778 245.367 208.338 245.228 207.794 245.228C207.293 245.228 206.869 245.353 206.522 245.604C206.175 245.849 205.911 246.207 205.73 246.676C205.554 247.145 205.466 247.708 205.466 248.364C205.466 248.945 205.543 249.473 205.698 249.948C205.858 250.423 206.109 250.799 206.45 251.076C206.797 251.353 207.245 251.492 207.794 251.492ZM217.017 252.66C216.249 252.66 215.572 252.492 214.985 252.156C214.398 251.82 213.94 251.337 213.609 250.708C213.278 250.079 213.113 249.324 213.113 248.444C213.113 247.575 213.262 246.812 213.561 246.156C213.86 245.5 214.292 244.988 214.857 244.62C215.428 244.252 216.113 244.068 216.913 244.068C217.692 244.068 218.35 244.236 218.889 244.572C219.428 244.908 219.836 245.383 220.113 245.996C220.396 246.604 220.537 247.327 220.537 248.164V248.708H214.609C214.609 249.231 214.694 249.705 214.865 250.132C215.041 250.553 215.305 250.889 215.657 251.14C216.009 251.391 216.454 251.516 216.993 251.516C217.521 251.516 217.974 251.393 218.353 251.148C218.737 250.903 218.982 250.548 219.089 250.084H220.481C220.385 250.644 220.161 251.116 219.809 251.5C219.462 251.884 219.044 252.175 218.553 252.372C218.068 252.564 217.556 252.66 217.017 252.66ZM214.617 247.708H219.113C219.113 247.233 219.033 246.807 218.873 246.428C218.713 246.044 218.468 245.743 218.137 245.524C217.812 245.3 217.401 245.188 216.905 245.188C216.388 245.188 215.958 245.313 215.617 245.564C215.276 245.809 215.022 246.127 214.857 246.516C214.692 246.9 214.612 247.297 214.617 247.708ZM228.143 254.26C227.194 254.26 226.346 254.108 225.599 253.804C224.858 253.5 224.226 253.081 223.703 252.548C223.181 252.015 222.783 251.396 222.511 250.692C222.239 249.988 222.103 249.233 222.103 248.428C222.103 247.585 222.25 246.791 222.543 246.044C222.842 245.292 223.269 244.628 223.823 244.052C224.383 243.476 225.047 243.023 225.815 242.692C226.589 242.361 227.45 242.196 228.399 242.196C229.077 242.196 229.743 242.295 230.399 242.492C231.055 242.684 231.647 242.983 232.175 243.388C232.709 243.788 233.133 244.305 233.447 244.94C233.762 245.569 233.919 246.321 233.919 247.196C233.919 247.996 233.786 248.7 233.519 249.308C233.258 249.911 232.898 250.383 232.439 250.724C231.986 251.065 231.469 251.236 230.887 251.236C230.477 251.236 230.159 251.167 229.935 251.028C229.711 250.884 229.557 250.681 229.471 250.42C229.445 250.351 229.421 250.316 229.399 250.316C229.378 250.316 229.341 250.345 229.287 250.404C229.058 250.703 228.765 250.953 228.407 251.156C228.055 251.359 227.631 251.46 227.135 251.46C226.735 251.46 226.365 251.348 226.023 251.124C225.687 250.895 225.415 250.575 225.207 250.164C225.005 249.748 224.906 249.26 224.911 248.7C224.911 248.044 225.039 247.444 225.295 246.9C225.551 246.351 225.906 245.913 226.359 245.588C226.818 245.257 227.346 245.092 227.943 245.092C228.375 245.092 228.735 245.18 229.023 245.356C229.317 245.532 229.551 245.764 229.727 246.052C229.749 246.073 229.77 246.081 229.791 246.076C229.818 246.065 229.834 246.039 229.839 245.996L229.975 245.492H230.975L230.383 249.044C230.309 249.497 230.325 249.809 230.431 249.98C230.538 250.151 230.719 250.236 230.975 250.236C231.306 250.236 231.61 250.121 231.887 249.892C232.165 249.657 232.389 249.321 232.559 248.884C232.735 248.441 232.823 247.911 232.823 247.292C232.823 246.54 232.695 245.903 232.439 245.38C232.183 244.852 231.839 244.425 231.407 244.1C230.975 243.775 230.498 243.537 229.975 243.388C229.453 243.239 228.922 243.164 228.383 243.164C227.546 243.164 226.805 243.305 226.159 243.588C225.514 243.865 224.973 244.247 224.535 244.732C224.098 245.217 223.765 245.777 223.535 246.412C223.311 247.047 223.199 247.721 223.199 248.436C223.199 249.129 223.311 249.772 223.535 250.364C223.759 250.956 224.09 251.473 224.527 251.916C224.97 252.359 225.511 252.703 226.151 252.948C226.797 253.193 227.535 253.316 228.367 253.316C228.847 253.316 229.253 253.271 229.583 253.18C229.919 253.089 230.218 252.967 230.479 252.812C230.746 252.657 231.015 252.489 231.287 252.308L231.855 253.052C231.397 253.409 230.85 253.7 230.215 253.924C229.581 254.148 228.89 254.26 228.143 254.26ZM227.383 250.412C227.719 250.412 228.029 250.313 228.311 250.116C228.599 249.913 228.837 249.649 229.023 249.324C229.215 248.999 229.335 248.644 229.383 248.26C229.447 247.796 229.418 247.407 229.295 247.092C229.178 246.777 229.005 246.54 228.775 246.38C228.546 246.22 228.295 246.14 228.023 246.14C227.65 246.14 227.319 246.252 227.031 246.476C226.749 246.7 226.527 246.999 226.367 247.372C226.207 247.745 226.127 248.159 226.127 248.612C226.127 249.151 226.234 249.585 226.447 249.916C226.666 250.247 226.978 250.412 227.383 250.412ZM239.314 255.236C238.018 255.236 237.007 255.047 236.282 254.668C235.556 254.295 235.194 253.759 235.194 253.06C235.194 252.761 235.263 252.508 235.402 252.3C235.54 252.087 235.706 251.911 235.898 251.772C236.09 251.633 236.268 251.524 236.434 251.444C236.599 251.359 236.708 251.297 236.762 251.26C236.666 251.207 236.551 251.14 236.418 251.06C236.284 250.98 236.164 250.873 236.058 250.74C235.956 250.607 235.906 250.433 235.906 250.22C235.906 249.959 236.028 249.719 236.274 249.5C236.519 249.281 236.884 249.119 237.37 249.012C236.884 248.767 236.506 248.441 236.234 248.036C235.962 247.631 235.826 247.191 235.826 246.716C235.826 246.183 235.97 245.719 236.258 245.324C236.546 244.929 236.959 244.628 237.498 244.42C238.036 244.207 238.679 244.1 239.426 244.1C239.964 244.1 240.415 244.164 240.778 244.292C241.146 244.415 241.487 244.591 241.802 244.82C241.887 244.783 242.023 244.727 242.21 244.652C242.396 244.572 242.599 244.487 242.818 244.396C243.042 244.305 243.25 244.22 243.442 244.14C243.639 244.055 243.796 243.991 243.914 243.948L243.906 245.316L242.458 245.588C242.543 245.759 242.61 245.945 242.658 246.148C242.706 246.351 242.73 246.54 242.73 246.716C242.73 247.201 242.602 247.641 242.346 248.036C242.095 248.431 241.714 248.745 241.202 248.98C240.69 249.215 240.05 249.332 239.282 249.332C239.218 249.332 239.135 249.332 239.034 249.332C238.938 249.327 238.855 249.321 238.786 249.316C238.22 249.332 237.831 249.396 237.618 249.508C237.41 249.615 237.306 249.735 237.306 249.868C237.306 250.023 237.426 250.129 237.666 250.188C237.906 250.247 238.311 250.297 238.882 250.34C239.09 250.351 239.346 250.364 239.65 250.38C239.959 250.396 240.303 250.417 240.682 250.444C241.546 250.497 242.212 250.719 242.682 251.108C243.151 251.497 243.386 252.023 243.386 252.684C243.386 253.436 243.05 254.049 242.378 254.524C241.711 254.999 240.69 255.236 239.314 255.236ZM239.578 254.284C240.34 254.284 240.924 254.169 241.33 253.94C241.74 253.711 241.946 253.364 241.946 252.9C241.946 252.569 241.82 252.3 241.57 252.092C241.319 251.879 240.94 251.756 240.434 251.724L238.114 251.572C237.906 251.561 237.69 251.615 237.466 251.732C237.242 251.844 237.052 252.001 236.898 252.204C236.743 252.407 236.666 252.636 236.666 252.892C236.666 253.329 236.903 253.671 237.378 253.916C237.852 254.161 238.586 254.284 239.578 254.284ZM239.33 248.38C239.922 248.38 240.399 248.241 240.762 247.964C241.13 247.687 241.314 247.276 241.314 246.732C241.314 246.172 241.13 245.745 240.762 245.452C240.399 245.159 239.922 245.012 239.33 245.012C238.722 245.012 238.231 245.161 237.858 245.46C237.49 245.753 237.306 246.177 237.306 246.732C237.306 247.255 237.482 247.66 237.834 247.948C238.191 248.236 238.69 248.38 239.33 248.38ZM245.771 252.5V244.228H247.195V245.428C247.424 245.065 247.739 244.748 248.139 244.476C248.539 244.204 249.059 244.068 249.699 244.068C249.998 244.068 250.302 244.119 250.611 244.22C250.926 244.321 251.214 244.473 251.475 244.676C251.736 244.879 251.939 245.127 252.083 245.42C252.339 245.015 252.686 244.689 253.123 244.444C253.56 244.193 254.054 244.068 254.603 244.068C254.891 244.068 255.192 244.113 255.507 244.204C255.822 244.289 256.112 244.444 256.379 244.668C256.651 244.887 256.872 245.193 257.043 245.588C257.214 245.977 257.299 246.479 257.299 247.092V252.5H255.811V247.236C255.811 246.735 255.731 246.348 255.571 246.076C255.411 245.799 255.2 245.604 254.939 245.492C254.683 245.38 254.408 245.324 254.115 245.324C253.859 245.324 253.587 245.375 253.299 245.476C253.011 245.577 252.766 245.748 252.563 245.988C252.36 246.228 252.259 246.556 252.259 246.972V252.5H250.787V246.804C250.787 246.479 250.699 246.207 250.523 245.988C250.352 245.769 250.136 245.604 249.875 245.492C249.619 245.38 249.363 245.324 249.107 245.324C248.824 245.324 248.539 245.38 248.251 245.492C247.968 245.604 247.728 245.783 247.531 246.028C247.339 246.268 247.243 246.583 247.243 246.972V252.5H245.771ZM261.903 252.66C261.365 252.66 260.89 252.567 260.479 252.38C260.074 252.188 259.754 251.913 259.519 251.556C259.29 251.199 259.175 250.767 259.175 250.26C259.175 249.343 259.495 248.66 260.135 248.212C260.775 247.764 261.802 247.524 263.215 247.492L264.687 247.452V246.804C264.687 246.297 264.535 245.897 264.231 245.604C263.927 245.305 263.458 245.156 262.823 245.156C262.349 245.161 261.93 245.273 261.567 245.492C261.205 245.711 260.973 246.068 260.871 246.564H259.567C259.599 246.025 259.749 245.572 260.015 245.204C260.287 244.831 260.669 244.548 261.159 244.356C261.65 244.164 262.229 244.068 262.895 244.068C263.615 244.068 264.213 244.169 264.687 244.372C265.167 244.575 265.525 244.873 265.759 245.268C265.999 245.663 266.119 246.148 266.119 246.724V252.5H264.855L264.743 250.948C264.429 251.593 264.023 252.041 263.527 252.292C263.037 252.537 262.495 252.66 261.903 252.66ZM262.343 251.596C262.626 251.596 262.903 251.545 263.175 251.444C263.453 251.343 263.703 251.207 263.927 251.036C264.157 250.86 264.341 250.665 264.479 250.452C264.618 250.233 264.687 250.009 264.687 249.78V248.364L263.463 248.388C262.829 248.399 262.301 248.463 261.879 248.58C261.458 248.697 261.141 248.881 260.927 249.132C260.714 249.383 260.607 249.711 260.607 250.116C260.607 250.58 260.77 250.943 261.095 251.204C261.421 251.465 261.837 251.596 262.343 251.596ZM268.467 252.5V244.228H269.899V252.5H268.467ZM268.427 242.476V240.94H269.939V242.476H268.427ZM274.562 252.604C274.114 252.604 273.751 252.543 273.474 252.42C273.202 252.297 272.991 252.132 272.842 251.924C272.698 251.716 272.599 251.479 272.546 251.212C272.498 250.94 272.474 250.66 272.474 250.372V240.612H273.93V250.228C273.93 250.644 274.01 250.956 274.17 251.164C274.335 251.372 274.565 251.487 274.858 251.508L275.306 251.516V252.476C275.183 252.513 275.055 252.543 274.922 252.564C274.789 252.591 274.669 252.604 274.562 252.604ZM277.052 252.5V250.612H278.812V252.5H277.052ZM284.318 252.66C283.571 252.66 282.91 252.497 282.334 252.172C281.763 251.847 281.315 251.367 280.99 250.732C280.67 250.097 280.51 249.319 280.51 248.396C280.51 247.532 280.656 246.777 280.95 246.132C281.248 245.481 281.68 244.975 282.246 244.612C282.816 244.249 283.507 244.068 284.318 244.068C284.91 244.068 285.44 244.183 285.91 244.412C286.384 244.636 286.774 244.956 287.078 245.372C287.382 245.788 287.568 246.279 287.638 246.844H286.326C286.278 246.556 286.166 246.292 285.99 246.052C285.819 245.812 285.592 245.62 285.31 245.476C285.032 245.332 284.704 245.26 284.326 245.26C283.616 245.26 283.038 245.516 282.59 246.028C282.147 246.54 281.926 247.324 281.926 248.38C281.926 249.335 282.128 250.1 282.534 250.676C282.944 251.247 283.547 251.532 284.342 251.532C284.72 251.532 285.051 251.46 285.334 251.316C285.616 251.167 285.843 250.972 286.014 250.732C286.184 250.487 286.294 250.225 286.342 249.948H287.63C287.56 250.503 287.371 250.983 287.062 251.388C286.758 251.793 286.368 252.108 285.894 252.332C285.424 252.551 284.899 252.66 284.318 252.66ZM292.958 252.66C292.195 252.66 291.529 252.497 290.958 252.172C290.393 251.841 289.953 251.359 289.638 250.724C289.323 250.089 289.166 249.313 289.166 248.396C289.166 247.532 289.313 246.775 289.606 246.124C289.899 245.473 290.329 244.969 290.894 244.612C291.459 244.249 292.15 244.068 292.966 244.068C293.729 244.068 294.39 244.236 294.95 244.572C295.51 244.903 295.945 245.391 296.254 246.036C296.569 246.681 296.726 247.468 296.726 248.396C296.726 249.239 296.582 249.98 296.294 250.62C296.006 251.26 295.582 251.761 295.022 252.124C294.467 252.481 293.779 252.66 292.958 252.66ZM292.966 251.492C293.457 251.492 293.873 251.367 294.214 251.116C294.555 250.865 294.814 250.505 294.99 250.036C295.171 249.567 295.262 249.009 295.262 248.364C295.262 247.772 295.182 247.241 295.022 246.772C294.867 246.297 294.622 245.921 294.286 245.644C293.95 245.367 293.51 245.228 292.966 245.228C292.465 245.228 292.041 245.353 291.694 245.604C291.347 245.849 291.083 246.207 290.902 246.676C290.726 247.145 290.638 247.708 290.638 248.364C290.638 248.945 290.715 249.473 290.87 249.948C291.03 250.423 291.281 250.799 291.622 251.076C291.969 251.353 292.417 251.492 292.966 251.492ZM298.693 252.5V244.228H300.117V245.428C300.346 245.065 300.661 244.748 301.061 244.476C301.461 244.204 301.981 244.068 302.621 244.068C302.919 244.068 303.223 244.119 303.533 244.22C303.847 244.321 304.135 244.473 304.397 244.676C304.658 244.879 304.861 245.127 305.005 245.42C305.261 245.015 305.607 244.689 306.045 244.444C306.482 244.193 306.975 244.068 307.525 244.068C307.813 244.068 308.114 244.113 308.429 244.204C308.743 244.289 309.034 244.444 309.301 244.668C309.573 244.887 309.794 245.193 309.965 245.588C310.135 245.977 310.221 246.479 310.221 247.092V252.5H308.733V247.236C308.733 246.735 308.653 246.348 308.493 246.076C308.333 245.799 308.122 245.604 307.861 245.492C307.605 245.38 307.33 245.324 307.037 245.324C306.781 245.324 306.509 245.375 306.221 245.476C305.933 245.577 305.687 245.748 305.485 245.988C305.282 246.228 305.181 246.556 305.181 246.972V252.5H303.709V246.804C303.709 246.479 303.621 246.207 303.445 245.988C303.274 245.769 303.058 245.604 302.797 245.492C302.541 245.38 302.285 245.324 302.029 245.324C301.746 245.324 301.461 245.38 301.173 245.492C300.89 245.604 300.65 245.783 300.453 246.028C300.261 246.268 300.165 246.583 300.165 246.972V252.5H298.693Z" fill="#A3A3A3"/>
<path d="M151.337 321.5V311.378H154.76C155.483 311.378 156.127 311.499 156.692 311.742C157.257 311.985 157.7 312.344 158.022 312.82C158.349 313.296 158.512 313.882 158.512 314.577C158.512 315.249 158.36 315.823 158.057 316.299C157.758 316.775 157.341 317.137 156.804 317.384C156.267 317.631 155.644 317.755 154.935 317.755H152.667V321.5H151.337ZM152.66 316.663H154.907C155.602 316.663 156.167 316.469 156.601 316.082C157.035 315.695 157.252 315.167 157.252 314.5C157.252 313.828 157.028 313.319 156.58 312.974C156.132 312.629 155.553 312.456 154.844 312.456H152.66V316.663ZM161.878 321.64C161.407 321.64 160.992 321.558 160.632 321.395C160.278 321.227 159.998 320.987 159.792 320.674C159.592 320.361 159.491 319.983 159.491 319.54C159.491 318.737 159.771 318.14 160.331 317.748C160.891 317.356 161.79 317.146 163.026 317.118L164.314 317.083V316.516C164.314 316.073 164.181 315.723 163.915 315.466C163.649 315.205 163.239 315.074 162.683 315.074C162.268 315.079 161.902 315.177 161.584 315.368C161.267 315.559 161.064 315.872 160.975 316.306H159.834C159.862 315.835 159.993 315.438 160.226 315.116C160.464 314.789 160.798 314.542 161.227 314.374C161.657 314.206 162.163 314.122 162.746 314.122C163.376 314.122 163.899 314.211 164.314 314.388C164.734 314.565 165.047 314.827 165.252 315.172C165.462 315.517 165.567 315.942 165.567 316.446V321.5H164.461L164.363 320.142C164.088 320.707 163.733 321.099 163.299 321.318C162.87 321.533 162.396 321.64 161.878 321.64ZM162.263 320.709C162.511 320.709 162.753 320.665 162.991 320.576C163.234 320.487 163.453 320.368 163.649 320.219C163.85 320.065 164.011 319.895 164.132 319.708C164.254 319.517 164.314 319.321 164.314 319.12V317.881L163.243 317.902C162.688 317.911 162.226 317.967 161.857 318.07C161.489 318.173 161.211 318.334 161.024 318.553C160.838 318.772 160.744 319.059 160.744 319.414C160.744 319.82 160.887 320.137 161.171 320.366C161.456 320.595 161.82 320.709 162.263 320.709ZM170.122 321.64C169.618 321.64 169.149 321.563 168.715 321.409C168.286 321.25 167.929 321.005 167.644 320.674C167.36 320.338 167.182 319.911 167.112 319.393H168.288C168.349 319.678 168.466 319.916 168.638 320.107C168.811 320.294 169.023 320.436 169.275 320.534C169.532 320.627 169.812 320.674 170.115 320.674C170.605 320.674 171 320.583 171.298 320.401C171.597 320.219 171.746 319.939 171.746 319.561C171.746 319.295 171.667 319.083 171.508 318.924C171.354 318.761 171.112 318.642 170.78 318.567L169.282 318.196C168.699 318.056 168.232 317.837 167.882 317.538C167.537 317.239 167.362 316.822 167.357 316.285C167.357 315.86 167.46 315.487 167.665 315.165C167.871 314.843 168.176 314.589 168.582 314.402C168.993 314.215 169.504 314.122 170.115 314.122C170.904 314.122 171.539 314.299 172.019 314.654C172.5 315.004 172.752 315.52 172.775 316.201H171.627C171.581 315.856 171.427 315.583 171.165 315.382C170.904 315.177 170.549 315.074 170.101 315.074C169.644 315.074 169.268 315.167 168.974 315.354C168.685 315.536 168.54 315.821 168.54 316.208C168.54 316.465 168.643 316.668 168.848 316.817C169.058 316.962 169.362 317.083 169.758 317.181L171.214 317.545C171.546 317.634 171.821 317.75 172.04 317.895C172.26 318.04 172.432 318.201 172.558 318.378C172.684 318.555 172.773 318.742 172.824 318.938C172.88 319.129 172.908 319.314 172.908 319.491C172.908 319.934 172.799 320.317 172.579 320.639C172.36 320.956 172.043 321.204 171.627 321.381C171.212 321.554 170.71 321.64 170.122 321.64ZM177.177 321.64C176.673 321.64 176.204 321.563 175.77 321.409C175.341 321.25 174.984 321.005 174.699 320.674C174.414 320.338 174.237 319.911 174.167 319.393H175.343C175.404 319.678 175.52 319.916 175.693 320.107C175.866 320.294 176.078 320.436 176.33 320.534C176.587 320.627 176.867 320.674 177.17 320.674C177.66 320.674 178.054 320.583 178.353 320.401C178.652 320.219 178.801 319.939 178.801 319.561C178.801 319.295 178.722 319.083 178.563 318.924C178.409 318.761 178.166 318.642 177.835 318.567L176.337 318.196C175.754 318.056 175.287 317.837 174.937 317.538C174.592 317.239 174.417 316.822 174.412 316.285C174.412 315.86 174.515 315.487 174.72 315.165C174.925 314.843 175.231 314.589 175.637 314.402C176.048 314.215 176.559 314.122 177.17 314.122C177.959 314.122 178.593 314.299 179.074 314.654C179.555 315.004 179.807 315.52 179.83 316.201H178.682C178.635 315.856 178.481 315.583 178.22 315.382C177.959 315.177 177.604 315.074 177.156 315.074C176.699 315.074 176.323 315.167 176.029 315.354C175.74 315.536 175.595 315.821 175.595 316.208C175.595 316.465 175.698 316.668 175.903 316.817C176.113 316.962 176.416 317.083 176.813 317.181L178.269 317.545C178.6 317.634 178.876 317.75 179.095 317.895C179.314 318.04 179.487 318.201 179.613 318.378C179.739 318.555 179.828 318.742 179.879 318.938C179.935 319.129 179.963 319.314 179.963 319.491C179.963 319.934 179.853 320.317 179.634 320.639C179.415 320.956 179.097 321.204 178.682 321.381C178.267 321.554 177.765 321.64 177.177 321.64ZM183.161 321.5L180.921 314.262H182.125L183.777 319.827H183.889L185.52 314.262H186.5L188.194 319.813H188.313L189.895 314.262H191.113L188.915 321.5H187.641L185.996 316.159L184.421 321.5H183.161ZM195.313 321.64C194.645 321.64 194.062 321.498 193.563 321.213C193.068 320.924 192.683 320.501 192.408 319.946C192.132 319.391 191.995 318.712 191.995 317.909C191.995 317.153 192.123 316.49 192.38 315.921C192.636 315.352 193.012 314.911 193.507 314.598C194.001 314.281 194.606 314.122 195.32 314.122C195.987 314.122 196.566 314.269 197.056 314.563C197.546 314.852 197.926 315.279 198.197 315.844C198.472 316.409 198.61 317.097 198.61 317.909C198.61 318.646 198.484 319.295 198.232 319.855C197.98 320.415 197.609 320.854 197.119 321.171C196.633 321.484 196.031 321.64 195.313 321.64ZM195.32 320.618C195.749 320.618 196.113 320.508 196.412 320.289C196.71 320.07 196.937 319.755 197.091 319.344C197.249 318.933 197.329 318.446 197.329 317.881C197.329 317.363 197.259 316.899 197.119 316.488C196.983 316.073 196.769 315.744 196.475 315.501C196.181 315.258 195.796 315.137 195.32 315.137C194.881 315.137 194.51 315.247 194.207 315.466C193.903 315.681 193.672 315.993 193.514 316.404C193.36 316.815 193.283 317.307 193.283 317.881C193.283 318.39 193.35 318.852 193.486 319.267C193.626 319.682 193.845 320.011 194.144 320.254C194.447 320.497 194.839 320.618 195.32 320.618ZM200.331 321.5V314.262H201.563V315.655C201.684 315.31 201.854 315.025 202.074 314.801C202.293 314.572 202.543 314.402 202.823 314.29C203.107 314.178 203.401 314.122 203.705 314.122C203.812 314.122 203.917 314.129 204.02 314.143C204.122 314.157 204.202 314.18 204.258 314.213V315.466C204.188 315.433 204.097 315.412 203.985 315.403C203.877 315.389 203.786 315.382 203.712 315.382C203.422 315.363 203.152 315.382 202.9 315.438C202.648 315.489 202.426 315.58 202.235 315.711C202.043 315.842 201.892 316.014 201.78 316.229C201.672 316.439 201.619 316.696 201.619 316.999V321.5H200.331ZM208.329 321.64C207.386 321.64 206.64 321.318 206.089 320.674C205.543 320.03 205.27 319.09 205.27 317.853C205.27 317.102 205.38 316.446 205.599 315.886C205.818 315.326 206.147 314.892 206.586 314.584C207.025 314.276 207.571 314.122 208.224 314.122C208.574 314.122 208.882 314.166 209.148 314.255C209.414 314.344 209.645 314.456 209.841 314.591C210.037 314.726 210.196 314.866 210.317 315.011C210.443 315.156 210.536 315.289 210.597 315.41V311.098H211.906V321.5H210.912L210.772 320.016C210.725 320.156 210.651 320.319 210.548 320.506C210.445 320.688 210.301 320.868 210.114 321.045C209.932 321.218 209.694 321.36 209.4 321.472C209.106 321.584 208.749 321.64 208.329 321.64ZM208.56 320.646C209.288 320.646 209.808 320.424 210.121 319.981C210.438 319.533 210.597 318.803 210.597 317.79C210.592 317.225 210.522 316.745 210.387 316.348C210.252 315.951 210.037 315.65 209.743 315.445C209.454 315.235 209.066 315.13 208.581 315.13C207.988 315.13 207.505 315.342 207.132 315.767C206.759 316.192 206.572 316.866 206.572 317.79C206.572 318.695 206.74 319.398 207.076 319.897C207.412 320.396 207.907 320.646 208.56 320.646Z" fill="#A3A3A3"/>
<path d="M150 342.5C150 338.082 153.582 334.5 158 334.5H587C591.418 334.5 595 338.082 595 342.5V374.5C595 378.918 591.418 382.5 587 382.5H158C153.582 382.5 150 378.918 150 374.5V342.5Z" fill="#272727"/>
<path d="M163.896 358.38L163.016 357.78L164.528 355.9L162.424 355.308L162.76 354.372L164.768 355.18L164.624 352.932H165.712L165.568 355.188L167.6 354.308L167.904 355.244L165.848 355.892L167.32 357.7L166.432 358.332L165.184 356.308L163.896 358.38ZM170.193 358.38L169.313 357.78L170.825 355.9L168.721 355.308L169.057 354.372L171.065 355.18L170.921 352.932H172.009L171.865 355.188L173.897 354.308L174.201 355.244L172.145 355.892L173.617 357.7L172.729 358.332L171.481 356.308L170.193 358.38ZM176.49 358.38L175.61 357.78L177.122 355.9L175.018 355.308L175.354 354.372L177.362 355.18L177.218 352.932H178.306L178.162 355.188L180.194 354.308L180.498 355.244L178.442 355.892L179.914 357.7L179.026 358.332L177.778 356.308L176.49 358.38ZM182.787 358.38L181.907 357.78L183.419 355.9L181.315 355.308L181.651 354.372L183.659 355.18L183.515 352.932H184.603L184.459 355.188L186.491 354.308L186.795 355.244L184.739 355.892L186.211 357.7L185.323 358.332L184.075 356.308L182.787 358.38ZM189.084 358.38L188.204 357.78L189.716 355.9L187.612 355.308L187.948 354.372L189.956 355.18L189.812 352.932H190.9L190.756 355.188L192.788 354.308L193.092 355.244L191.036 355.892L192.508 357.7L191.62 358.332L190.372 356.308L189.084 358.38ZM195.38 358.38L194.5 357.78L196.012 355.9L193.908 355.308L194.244 354.372L196.252 355.18L196.108 352.932H197.196L197.052 355.188L199.084 354.308L199.388 355.244L197.332 355.892L198.804 357.7L197.916 358.332L196.668 356.308L195.38 358.38ZM201.677 358.38L200.797 357.78L202.309 355.9L200.205 355.308L200.541 354.372L202.549 355.18L202.405 352.932H203.493L203.349 355.188L205.381 354.308L205.685 355.244L203.629 355.892L205.101 357.7L204.213 358.332L202.965 356.308L201.677 358.38ZM207.974 358.38L207.094 357.78L208.606 355.9L206.502 355.308L206.838 354.372L208.846 355.18L208.702 352.932H209.79L209.646 355.188L211.678 354.308L211.982 355.244L209.926 355.892L211.398 357.7L210.51 358.332L209.262 356.308L207.974 358.38ZM214.271 358.38L213.391 357.78L214.903 355.9L212.799 355.308L213.135 354.372L215.143 355.18L214.999 352.932H216.087L215.943 355.188L217.975 354.308L218.279 355.244L216.223 355.892L217.695 357.7L216.807 358.332L215.559 356.308L214.271 358.38ZM220.568 358.38L219.688 357.78L221.2 355.9L219.096 355.308L219.432 354.372L221.44 355.18L221.296 352.932H222.384L222.24 355.188L224.272 354.308L224.576 355.244L222.52 355.892L223.992 357.7L223.104 358.332L221.856 356.308L220.568 358.38ZM226.865 358.38L225.985 357.78L227.497 355.9L225.393 355.308L225.729 354.372L227.737 355.18L227.593 352.932H228.681L228.537 355.188L230.569 354.308L230.873 355.244L228.817 355.892L230.289 357.7L229.401 358.332L228.153 356.308L226.865 358.38ZM233.162 358.38L232.282 357.78L233.794 355.9L231.69 355.308L232.026 354.372L234.034 355.18L233.89 352.932H234.978L234.834 355.188L236.866 354.308L237.17 355.244L235.114 355.892L236.586 357.7L235.698 358.332L234.45 356.308L233.162 358.38ZM239.459 358.38L238.579 357.78L240.091 355.9L237.987 355.308L238.323 354.372L240.331 355.18L240.187 352.932H241.275L241.131 355.188L243.163 354.308L243.467 355.244L241.411 355.892L242.883 357.7L241.995 358.332L240.747 356.308L239.459 358.38ZM245.755 358.38L244.875 357.78L246.387 355.9L244.283 355.308L244.619 354.372L246.627 355.18L246.483 352.932H247.571L247.427 355.188L249.459 354.308L249.763 355.244L247.707 355.892L249.179 357.7L248.291 358.332L247.043 356.308L245.755 358.38ZM252.052 358.38L251.172 357.78L252.684 355.9L250.58 355.308L250.916 354.372L252.924 355.18L252.78 352.932H253.868L253.724 355.188L255.756 354.308L256.06 355.244L254.004 355.892L255.476 357.7L254.588 358.332L253.34 356.308L252.052 358.38ZM258.349 358.38L257.469 357.78L258.981 355.9L256.877 355.308L257.213 354.372L259.221 355.18L259.077 352.932H260.165L260.021 355.188L262.053 354.308L262.357 355.244L260.301 355.892L261.773 357.7L260.885 358.332L259.637 356.308L258.349 358.38ZM264.646 358.38L263.766 357.78L265.278 355.9L263.174 355.308L263.51 354.372L265.518 355.18L265.374 352.932H266.462L266.318 355.188L268.35 354.308L268.654 355.244L266.598 355.892L268.07 357.7L267.182 358.332L265.934 356.308L264.646 358.38ZM270.943 358.38L270.063 357.78L271.575 355.9L269.471 355.308L269.807 354.372L271.815 355.18L271.671 352.932H272.759L272.615 355.188L274.647 354.308L274.951 355.244L272.895 355.892L274.367 357.7L273.479 358.332L272.231 356.308L270.943 358.38ZM277.24 358.38L276.36 357.78L277.872 355.9L275.768 355.308L276.104 354.372L278.112 355.18L277.968 352.932H279.056L278.912 355.188L280.944 354.308L281.248 355.244L279.192 355.892L280.664 357.7L279.776 358.332L278.528 356.308L277.24 358.38ZM283.537 358.38L282.657 357.78L284.169 355.9L282.065 355.308L282.401 354.372L284.409 355.18L284.265 352.932H285.353L285.209 355.188L287.241 354.308L287.545 355.244L285.489 355.892L286.961 357.7L286.073 358.332L284.825 356.308L283.537 358.38Z" fill="#A3A3A3"/>
<path d="M113.828 59.4133H599.578V425.382H98.8281V74.4133C98.8281 66.1291 105.544 59.4133 113.828 59.4133Z" stroke="url(#paint2_linear_1099_2563)" stroke-width="2"/>
<rect x="-2.78906" y="314.76" width="600.576" height="70.0378" fill="url(#paint3_linear_1099_2563)"/>
<path d="M113.828 59.4133H599.578V425.382H98.8281V74.4133C98.8281 66.1291 105.544 59.4133 113.828 59.4133Z" stroke="url(#paint4_linear_1099_2563)" stroke-width="2"/>
<circle cx="100.87" cy="68.6223" r="29.8776" fill="#404040"/>
<circle cx="100.87" cy="68.6223" r="29.8776" fill="url(#paint5_linear_1099_2563)" fill-opacity="0.6"/>
<path d="M100.085 79.1226V62.9643H96.1739V61.0659C97.392 61.0659 98.3484 60.9707 99.043 60.7804C99.7472 60.5806 100.252 60.2903 100.556 59.9097C100.87 59.5195 101.046 59.0437 101.084 58.4823H103.211V79.1226H100.085Z" fill="white"/>
</g>
<defs>
<filter id="filter0_f_1099_2563" x="-5.90884" y="-38.1618" width="213.564" height="213.562" filterUnits="userSpaceOnUse" color-interpolation-filters="sRGB">
<feFlood flood-opacity="0" result="BackgroundImageFix"/>
<feBlend mode="normal" in="SourceGraphic" in2="BackgroundImageFix" result="shape"/>
<feGaussianBlur stdDeviation="33.8919" result="effect1_foregroundBlur_1099_2563"/>
</filter>
<linearGradient id="paint0_linear_1099_2563" x1="11.4041" y1="-84.0296" x2="674.023" y2="429.872" gradientUnits="userSpaceOnUse">
<stop stop-color="#181818"/>
<stop offset="1" stop-color="#0D0B11"/>
</linearGradient>
<linearGradient id="paint1_linear_1099_2563" x1="103.335" y1="107.617" x2="128.961" y2="41.4554" gradientUnits="userSpaceOnUse">
<stop stop-color="#39D373"/>
<stop offset="1" stop-color="#005F24"/>
</linearGradient>
<linearGradient id="paint2_linear_1099_2563" x1="649.507" y1="78.8565" x2="134.616" y2="87.7618" gradientUnits="userSpaceOnUse">
<stop stop-color="#3B3B3B"/>
<stop offset="1" stop-color="#A1A1A1"/>
</linearGradient>
<linearGradient id="paint3_linear_1099_2563" x1="393.628" y1="369.983" x2="393.628" y2="280.696" gradientUnits="userSpaceOnUse">
<stop stop-color="#171717"/>
<stop offset="1" stop-color="#131216" stop-opacity="0"/>
</linearGradient>
<linearGradient id="paint4_linear_1099_2563" x1="362.561" y1="187.18" x2="172.64" y2="23.9417" gradientUnits="userSpaceOnUse">
<stop stop-color="#3B3B3B"/>
<stop offset="1" stop-color="#A1A1A1"/>
</linearGradient>
<linearGradient id="paint5_linear_1099_2563" x1="102.757" y1="98.4999" x2="122.39" y2="47.8107" gradientUnits="userSpaceOnUse">
<stop stop-color="#39D373"/>
<stop offset="1" stop-color="#005F24"/>
</linearGradient>
<clipPath id="clip0_1099_2563">
<rect width="595" height="385" rx="12" fill="white"/>
</clipPath>
</defs>
</svg>
