<svg width="595" height="385" viewBox="0 0 595 385" fill="none" xmlns="http://www.w3.org/2000/svg">
<g clip-path="url(#clip0_1099_2614)">
<rect width="600.576" height="384.798" fill="url(#paint0_linear_1099_2614)"/>
<g filter="url(#filter0_f_1099_2614)">
<circle cx="100.872" cy="68.6194" r="38.9974" fill="url(#paint1_linear_1099_2614)" fill-opacity="0.6"/>
</g>
<path d="M113.828 59.4131H599.578V425.382H98.8281V74.4131C98.8281 66.1288 105.544 59.4131 113.828 59.4131Z" stroke="url(#paint2_linear_1099_2614)" stroke-width="2"/>
<rect x="-2.78906" y="314.962" width="600.576" height="70.0378" fill="url(#paint3_linear_1099_2614)"/>
<path d="M113.828 59.4131H599.578V425.382H98.8281V74.4131C98.8281 66.1288 105.544 59.4131 113.828 59.4131Z" stroke="url(#paint4_linear_1099_2614)" stroke-width="2"/>
<circle cx="100.87" cy="68.6223" r="29.8776" fill="#404040"/>
<circle cx="100.87" cy="68.6223" r="29.8776" fill="url(#paint5_linear_1099_2614)" fill-opacity="0.6"/>
<path d="M100.664 79.4361C99.1794 79.4266 97.8852 79.1649 96.7814 78.651C95.6775 78.1276 94.8163 77.3902 94.1978 76.4385C93.5792 75.4869 93.2509 74.3641 93.2129 73.0699H96.2247C96.4245 74.3165 96.9289 75.2633 97.7377 75.9104C98.5561 76.548 99.56 76.8668 100.75 76.8668C101.72 76.8668 102.558 76.7193 103.262 76.4243C103.975 76.1198 104.527 75.7058 104.918 75.1824C105.308 74.6495 105.503 74.031 105.503 73.3268C105.503 72.5655 105.289 71.9184 104.86 71.3855C104.442 70.8526 103.861 70.4482 103.119 70.1722C102.386 69.8868 101.563 69.7345 100.65 69.7155L98.7512 69.6727V67.1319L100.521 67.0748C101.387 67.0557 102.153 66.894 102.819 66.5895C103.495 66.2754 104.023 65.8662 104.404 65.3619C104.784 64.8575 104.975 64.3009 104.975 63.6918C104.975 63.1399 104.803 62.6355 104.461 62.1788C104.128 61.722 103.642 61.3604 103.005 61.0939C102.377 60.818 101.62 60.68 100.735 60.68C100.022 60.68 99.3412 60.8132 98.6941 61.0797C98.0565 61.3461 97.5284 61.7696 97.1097 62.3501C96.7005 62.921 96.4769 63.668 96.4388 64.5911H93.4412C93.4412 63.2113 93.7695 62.0503 94.4261 61.1082C95.0923 60.1566 95.9773 59.4334 97.0811 58.9386C98.1945 58.4437 99.4268 58.1963 100.778 58.1963C102.234 58.1963 103.523 58.4009 104.646 58.8101C105.769 59.2193 106.649 59.8236 107.287 60.6229C107.934 61.4223 108.258 62.4072 108.258 63.5776C108.258 64.5958 107.939 65.5141 107.301 66.3325C106.673 67.1414 105.693 67.7742 104.361 68.231C105.227 68.4689 105.993 68.821 106.659 69.2873C107.325 69.744 107.844 70.315 108.215 71.0001C108.596 71.6853 108.786 72.4799 108.786 73.3839C108.786 74.345 108.581 75.2015 108.172 75.9532C107.763 76.705 107.192 77.3426 106.459 77.866C105.726 78.3893 104.865 78.7843 103.876 79.0507C102.886 79.3171 101.815 79.4456 100.664 79.4361Z" fill="white"/>
<mask id="path-9-inside-1_1099_2614" fill="white">
<path d="M146 406.018C145.448 406.018 145 405.57 145 405.018L145 369.58C145 369.028 145.448 368.58 146 368.58L632.565 368.58C633.117 368.58 633.565 369.028 633.565 369.58L633.565 405.018C633.565 405.57 633.117 406.018 632.565 406.018L146 406.018Z"/>
</mask>
<path d="M631.566 367.58C632.67 367.581 633.564 368.476 633.564 369.58L631.566 369.58L631.566 367.58ZM627.578 367.58L629.572 367.58L629.572 369.58L627.578 369.58L627.578 367.58ZM623.59 367.58L625.584 367.58L625.584 369.58L623.59 369.58L623.59 367.58ZM619.602 367.58L621.596 367.58L621.596 369.58L619.602 369.58L619.602 367.58ZM615.613 367.58L617.607 367.58L617.607 369.58L615.613 369.58L615.613 367.58ZM611.625 367.58L613.619 367.58L613.619 369.58L611.625 369.58L611.625 367.58ZM607.637 367.58L609.631 367.58L609.631 369.58L607.637 369.58L607.637 367.58ZM603.648 367.58L605.643 367.58L605.643 369.58L603.648 369.58L603.648 367.58ZM599.66 367.58L601.654 367.58L601.654 369.58L599.66 369.58L599.66 367.58ZM595.672 367.58L597.666 367.58L597.666 369.58L595.672 369.58L595.672 367.58ZM591.684 367.58L593.678 367.58L593.678 369.58L591.684 369.58L591.684 367.58ZM587.696 367.58L589.69 367.58L589.69 369.58L587.696 369.58L587.696 367.58ZM583.708 367.58L585.702 367.58L585.702 369.58L583.708 369.58L583.708 367.58ZM579.72 367.58L581.714 367.58L581.714 369.58L579.72 369.58L579.72 367.58ZM575.731 367.58L577.726 367.58L577.726 369.58L575.731 369.58L575.731 367.58ZM571.743 367.58L573.737 367.58L573.737 369.58L571.743 369.58L571.743 367.58ZM567.755 367.58L569.749 367.58L569.749 369.58L567.755 369.58L567.755 367.58ZM563.767 367.58L565.761 367.58L565.761 369.58L563.767 369.58L563.767 367.58ZM559.778 367.58L561.772 367.58L561.772 369.58L559.778 369.58L559.778 367.58ZM555.79 367.58L557.784 367.58L557.784 369.58L555.79 369.58L555.79 367.58ZM551.802 367.58L553.796 367.58L553.796 369.58L551.802 369.58L551.802 367.58ZM547.813 367.58L549.808 367.58L549.808 369.58L547.813 369.58L547.813 367.58ZM543.825 367.58L545.819 367.58L545.819 369.58L543.825 369.58L543.825 367.58ZM539.837 367.58L541.831 367.58L541.831 369.58L539.837 369.58L539.837 367.58ZM535.849 367.58L537.843 367.58L537.843 369.58L535.849 369.58L535.849 367.58ZM531.86 367.58L533.854 367.58L533.854 369.58L531.86 369.58L531.86 367.58ZM527.872 367.58L529.866 367.58L529.866 369.58L527.872 369.58L527.872 367.58ZM523.885 367.58L525.879 367.58L525.879 369.58L523.885 369.58L523.885 367.58ZM519.896 367.58L521.891 367.58L521.891 369.58L519.896 369.58L519.896 367.58ZM515.908 367.58L517.902 367.58L517.902 369.58L515.908 369.58L515.908 367.58ZM511.92 367.58L513.914 367.58L513.914 369.58L511.92 369.58L511.92 367.58ZM507.932 367.58L509.926 367.58L509.926 369.58L507.932 369.58L507.932 367.58ZM503.943 367.58L505.937 367.58L505.937 369.58L503.943 369.58L503.943 367.58ZM499.955 367.58L501.949 367.58L501.949 369.58L499.955 369.58L499.955 367.58ZM495.967 367.58L497.961 367.58L497.961 369.58L495.967 369.58L495.967 367.58ZM491.979 367.58L493.973 367.58L493.973 369.58L491.979 369.58L491.979 367.58ZM487.99 367.58L489.984 367.58L489.984 369.58L487.99 369.58L487.99 367.58ZM484.002 367.58L485.996 367.58L485.996 369.58L484.002 369.58L484.002 367.58ZM480.014 367.58L482.008 367.58L482.008 369.58L480.014 369.58L480.014 367.58ZM476.025 367.58L478.02 367.58L478.02 369.58L476.025 369.58L476.025 367.58ZM472.037 367.58L474.031 367.58L474.031 369.58L472.037 369.58L472.037 367.58ZM468.049 367.58L470.043 367.58L470.043 369.58L468.049 369.58L468.049 367.58ZM464.061 367.58L466.055 367.58L466.055 369.58L464.061 369.58L464.061 367.58ZM460.073 367.58L462.067 367.58L462.067 369.58L460.073 369.58L460.073 367.58ZM456.085 367.58L458.079 367.58L458.079 369.58L456.085 369.58L456.085 367.58ZM452.097 367.58L454.091 367.58L454.091 369.58L452.097 369.58L452.097 367.58ZM448.108 367.58L450.103 367.58L450.103 369.58L448.108 369.58L448.108 367.58ZM444.12 367.58L446.114 367.58L446.114 369.58L444.12 369.58L444.12 367.58ZM440.132 367.58L442.126 367.58L442.126 369.58L440.132 369.58L440.132 367.58ZM436.144 367.58L438.138 367.58L438.138 369.58L436.144 369.58L436.144 367.58ZM432.155 367.58L434.149 367.58L434.149 369.58L432.155 369.58L432.155 367.58ZM428.167 367.58L430.161 367.58L430.161 369.58L428.167 369.58L428.167 367.58ZM424.179 367.58L426.173 367.58L426.173 369.58L424.179 369.58L424.179 367.58ZM420.19 367.58L422.185 367.58L422.185 369.58L420.19 369.58L420.19 367.58ZM416.202 367.58L418.196 367.58L418.196 369.58L416.202 369.58L416.202 367.58ZM412.214 367.58L414.208 367.58L414.208 369.58L412.214 369.58L412.214 367.58ZM408.226 367.58L410.22 367.58L410.22 369.58L408.226 369.58L408.226 367.58ZM404.237 367.58L406.231 367.58L406.231 369.58L404.237 369.58L404.237 367.58ZM400.249 367.58L402.243 367.58L402.243 369.58L400.249 369.58L400.249 367.58ZM396.262 367.58L398.256 367.58L398.256 369.58L396.262 369.58L396.262 367.58ZM392.273 367.58L394.268 367.58L394.268 369.58L392.273 369.58L392.273 367.58ZM388.285 367.58L390.279 367.58L390.279 369.58L388.285 369.58L388.285 367.58ZM384.297 367.58L386.291 367.58L386.291 369.58L384.297 369.58L384.297 367.58ZM380.309 367.58L382.303 367.58L382.303 369.58L380.309 369.58L380.309 367.58ZM376.32 367.58L378.314 367.58L378.314 369.58L376.32 369.58L376.32 367.58ZM372.332 367.58L374.326 367.58L374.326 369.58L372.332 369.58L372.332 367.58ZM368.344 367.58L370.338 367.58L370.338 369.58L368.344 369.58L368.344 367.58ZM364.355 367.58L366.35 367.58L366.35 369.58L364.355 369.58L364.355 367.58ZM360.367 367.58L362.361 367.58L362.361 369.58L360.367 369.58L360.367 367.58ZM356.379 367.58L358.373 367.58L358.373 369.58L356.379 369.58L356.379 367.58ZM352.391 367.58L354.385 367.58L354.385 369.58L352.391 369.58L352.391 367.58ZM348.402 367.58L350.396 367.58L350.396 369.58L348.402 369.58L348.402 367.58ZM344.414 367.58L346.408 367.58L346.408 369.58L344.414 369.58L344.414 367.58ZM340.426 367.58L342.42 367.58L342.42 369.58L340.426 369.58L340.426 367.58ZM336.437 367.58L338.432 367.58L338.432 369.58L336.437 369.58L336.437 367.58ZM332.45 367.58L334.444 367.58L334.444 369.58L332.45 369.58L332.45 367.58ZM328.462 367.58L330.456 367.58L330.456 369.58L328.462 369.58L328.462 367.58ZM324.474 367.58L326.468 367.58L326.468 369.58L324.474 369.58L324.474 367.58ZM320.485 367.58L322.479 367.58L322.479 369.58L320.485 369.58L320.485 367.58ZM316.497 367.58L318.491 367.58L318.491 369.58L316.497 369.58L316.497 367.58ZM312.509 367.58L314.503 367.58L314.503 369.58L312.509 369.58L312.509 367.58ZM308.521 367.58L310.515 367.58L310.515 369.58L308.521 369.58L308.521 367.58ZM304.532 367.58L306.526 367.58L306.526 369.58L304.532 369.58L304.532 367.58ZM300.544 367.58L302.538 367.58L302.538 369.58L300.544 369.58L300.544 367.58ZM296.556 367.58L298.55 367.58L298.55 369.58L296.556 369.58L296.556 367.58ZM292.567 367.58L294.562 367.58L294.562 369.58L292.567 369.58L292.567 367.58ZM288.579 367.58L290.573 367.58L290.573 369.58L288.579 369.58L288.579 367.58ZM284.591 367.58L286.585 367.58L286.585 369.58L284.591 369.58L284.591 367.58ZM280.603 367.58L282.597 367.58L282.597 369.58L280.603 369.58L280.603 367.58ZM276.614 367.58L278.608 367.58L278.608 369.58L276.614 369.58L276.614 367.58ZM272.626 367.58L274.62 367.58L274.62 369.58L272.626 369.58L272.626 367.58ZM268.639 367.58L270.633 367.58L270.633 369.58L268.639 369.58L268.639 367.58ZM264.65 367.58L266.645 367.58L266.645 369.58L264.65 369.58L264.65 367.58ZM260.662 367.58L262.656 367.58L262.656 369.58L260.662 369.58L260.662 367.58ZM256.674 367.58L258.668 367.58L258.668 369.58L256.674 369.58L256.674 367.58ZM252.686 367.58L254.68 367.58L254.68 369.58L252.686 369.58L252.686 367.58ZM248.697 367.58L250.691 367.58L250.691 369.58L248.697 369.58L248.697 367.58ZM244.709 367.58L246.703 367.58L246.703 369.58L244.709 369.58L244.709 367.58ZM240.721 367.58L242.715 367.58L242.715 369.58L240.721 369.58L240.721 367.58ZM236.732 367.58L238.727 367.58L238.727 369.58L236.732 369.58L236.732 367.58ZM232.744 367.58L234.738 367.58L234.738 369.58L232.744 369.58L232.744 367.58ZM228.756 367.58L230.75 367.58L230.75 369.58L228.756 369.58L228.756 367.58ZM224.768 367.58L226.762 367.58L226.762 369.58L224.768 369.58L224.768 367.58ZM220.779 367.58L222.773 367.58L222.773 369.58L220.779 369.58L220.779 367.58ZM216.791 367.58L218.785 367.58L218.785 369.58L216.791 369.58L216.791 367.58ZM212.803 367.58L214.797 367.58L214.797 369.58L212.803 369.58L212.803 367.58ZM208.814 367.58L210.809 367.58L210.809 369.58L208.814 369.58L208.814 367.58ZM204.826 367.58L206.82 367.58L206.82 369.58L204.826 369.58L204.826 367.58ZM200.838 367.58L202.832 367.58L202.832 369.58L200.838 369.58L200.838 367.58ZM196.85 367.58L198.844 367.58L198.844 369.58L196.85 369.58L196.85 367.58ZM192.861 367.58L194.855 367.58L194.855 369.58L192.861 369.58L192.861 367.58ZM188.873 367.58L190.867 367.58L190.867 369.58L188.873 369.58L188.873 367.58ZM184.886 367.58L186.88 367.58L186.88 369.58L184.886 369.58L184.886 367.58ZM180.897 367.58L182.892 367.58L182.892 369.58L180.897 369.58L180.897 367.58ZM176.909 367.58L178.903 367.58L178.903 369.58L176.909 369.58L176.909 367.58ZM172.921 367.58L174.915 367.58L174.915 369.58L172.921 369.58L172.921 367.58ZM168.933 367.58L170.927 367.58L170.927 369.58L168.933 369.58L168.933 367.58ZM164.944 367.58L166.938 367.58L166.938 369.58L164.944 369.58L164.944 367.58ZM160.956 367.58L162.95 367.58L162.95 369.58L160.956 369.58L160.956 367.58ZM156.968 367.58L158.962 367.58L158.962 369.58L156.968 369.58L156.968 367.58ZM152.979 367.58L154.974 367.58L154.974 369.58L152.979 369.58L152.979 367.58ZM148.991 367.58L150.985 367.58L150.985 369.58L148.991 369.58L148.991 367.58ZM145.011 369.376C145.113 368.368 145.963 367.582 146.997 367.58L146.997 369.58L145 369.58L145.011 369.376Z" fill="#3B3B3B" mask="url(#path-9-inside-1_1099_2614)"/>
<mask id="path-11-inside-2_1099_2614" fill="white">
<path d="M146 355.056C145.448 355.056 145 354.608 145 354.056L145 318.618C145 318.066 145.448 317.618 146 317.618L632.565 317.618C633.117 317.618 633.565 318.066 633.565 318.618L633.565 354.056C633.565 354.608 633.117 355.056 632.565 355.056L146 355.056Z"/>
</mask>
<path d="M631.566 316.618C632.67 316.619 633.564 317.514 633.564 318.618L631.566 318.618L631.566 316.618ZM627.578 316.618L629.572 316.618L629.572 318.618L627.578 318.618L627.578 316.618ZM623.59 316.618L625.584 316.618L625.584 318.618L623.59 318.618L623.59 316.618ZM619.602 316.618L621.596 316.618L621.596 318.618L619.602 318.618L619.602 316.618ZM615.613 316.618L617.607 316.618L617.607 318.618L615.613 318.618L615.613 316.618ZM611.625 316.618L613.619 316.618L613.619 318.618L611.625 318.618L611.625 316.618ZM607.637 316.618L609.631 316.618L609.631 318.618L607.637 318.618L607.637 316.618ZM603.648 316.618L605.643 316.618L605.643 318.618L603.648 318.618L603.648 316.618ZM599.66 316.618L601.654 316.618L601.654 318.618L599.66 318.618L599.66 316.618ZM595.672 316.618L597.666 316.618L597.666 318.618L595.672 318.618L595.672 316.618ZM591.684 316.618L593.678 316.618L593.678 318.618L591.684 318.618L591.684 316.618ZM587.696 316.618L589.69 316.618L589.69 318.618L587.696 318.618L587.696 316.618ZM583.708 316.618L585.702 316.618L585.702 318.618L583.708 318.618L583.708 316.618ZM579.72 316.618L581.714 316.618L581.714 318.618L579.72 318.618L579.72 316.618ZM575.731 316.618L577.726 316.618L577.726 318.618L575.731 318.618L575.731 316.618ZM571.743 316.618L573.737 316.618L573.737 318.618L571.743 318.618L571.743 316.618ZM567.755 316.618L569.749 316.618L569.749 318.618L567.755 318.618L567.755 316.618ZM563.767 316.618L565.761 316.618L565.761 318.618L563.767 318.618L563.767 316.618ZM559.778 316.618L561.772 316.618L561.772 318.618L559.778 318.618L559.778 316.618ZM555.79 316.618L557.784 316.618L557.784 318.618L555.79 318.618L555.79 316.618ZM551.802 316.618L553.796 316.618L553.796 318.618L551.802 318.618L551.802 316.618ZM547.813 316.618L549.808 316.618L549.808 318.618L547.813 318.618L547.813 316.618ZM543.825 316.618L545.819 316.618L545.819 318.618L543.825 318.618L543.825 316.618ZM539.837 316.618L541.831 316.618L541.831 318.618L539.837 318.618L539.837 316.618ZM535.849 316.618L537.843 316.618L537.843 318.618L535.849 318.618L535.849 316.618ZM531.86 316.618L533.854 316.618L533.854 318.618L531.86 318.618L531.86 316.618ZM527.872 316.618L529.866 316.618L529.866 318.618L527.872 318.618L527.872 316.618ZM523.885 316.618L525.879 316.618L525.879 318.618L523.885 318.618L523.885 316.618ZM519.896 316.618L521.891 316.618L521.891 318.618L519.896 318.618L519.896 316.618ZM515.908 316.618L517.902 316.618L517.902 318.618L515.908 318.618L515.908 316.618ZM511.92 316.618L513.914 316.618L513.914 318.618L511.92 318.618L511.92 316.618ZM507.932 316.618L509.926 316.618L509.926 318.618L507.932 318.618L507.932 316.618ZM503.943 316.618L505.937 316.618L505.937 318.618L503.943 318.618L503.943 316.618ZM499.955 316.618L501.949 316.618L501.949 318.618L499.955 318.618L499.955 316.618ZM495.967 316.618L497.961 316.618L497.961 318.618L495.967 318.618L495.967 316.618ZM491.979 316.618L493.973 316.618L493.973 318.618L491.979 318.618L491.979 316.618ZM487.99 316.618L489.984 316.618L489.984 318.618L487.99 318.618L487.99 316.618ZM484.002 316.618L485.996 316.618L485.996 318.618L484.002 318.618L484.002 316.618ZM480.014 316.618L482.008 316.618L482.008 318.618L480.014 318.618L480.014 316.618ZM476.025 316.618L478.02 316.618L478.02 318.618L476.025 318.618L476.025 316.618ZM472.037 316.618L474.031 316.618L474.031 318.618L472.037 318.618L472.037 316.618ZM468.049 316.618L470.043 316.618L470.043 318.618L468.049 318.618L468.049 316.618ZM464.061 316.618L466.055 316.618L466.055 318.618L464.061 318.618L464.061 316.618ZM460.073 316.618L462.067 316.618L462.067 318.618L460.073 318.618L460.073 316.618ZM456.085 316.618L458.079 316.618L458.079 318.618L456.085 318.618L456.085 316.618ZM452.097 316.618L454.091 316.618L454.091 318.618L452.097 318.618L452.097 316.618ZM448.108 316.618L450.103 316.618L450.103 318.618L448.108 318.618L448.108 316.618ZM444.12 316.618L446.114 316.618L446.114 318.618L444.12 318.618L444.12 316.618ZM440.132 316.618L442.126 316.618L442.126 318.618L440.132 318.618L440.132 316.618ZM436.144 316.618L438.138 316.618L438.138 318.618L436.144 318.618L436.144 316.618ZM432.155 316.618L434.149 316.618L434.149 318.618L432.155 318.618L432.155 316.618ZM428.167 316.618L430.161 316.618L430.161 318.618L428.167 318.618L428.167 316.618ZM424.179 316.618L426.173 316.618L426.173 318.618L424.179 318.618L424.179 316.618ZM420.19 316.618L422.185 316.618L422.185 318.618L420.19 318.618L420.19 316.618ZM416.202 316.618L418.196 316.618L418.196 318.618L416.202 318.618L416.202 316.618ZM412.214 316.618L414.208 316.618L414.208 318.618L412.214 318.618L412.214 316.618ZM408.226 316.618L410.22 316.618L410.22 318.618L408.226 318.618L408.226 316.618ZM404.237 316.618L406.231 316.618L406.231 318.618L404.237 318.618L404.237 316.618ZM400.249 316.618L402.243 316.618L402.243 318.618L400.249 318.618L400.249 316.618ZM396.262 316.618L398.256 316.618L398.256 318.618L396.262 318.618L396.262 316.618ZM392.273 316.618L394.268 316.618L394.268 318.618L392.273 318.618L392.273 316.618ZM388.285 316.618L390.279 316.618L390.279 318.618L388.285 318.618L388.285 316.618ZM384.297 316.618L386.291 316.618L386.291 318.618L384.297 318.618L384.297 316.618ZM380.309 316.618L382.303 316.618L382.303 318.618L380.309 318.618L380.309 316.618ZM376.32 316.618L378.314 316.618L378.314 318.618L376.32 318.618L376.32 316.618ZM372.332 316.618L374.326 316.618L374.326 318.618L372.332 318.618L372.332 316.618ZM368.344 316.618L370.338 316.618L370.338 318.618L368.344 318.618L368.344 316.618ZM364.355 316.618L366.35 316.618L366.35 318.618L364.355 318.618L364.355 316.618ZM360.367 316.618L362.361 316.618L362.361 318.618L360.367 318.618L360.367 316.618ZM356.379 316.618L358.373 316.618L358.373 318.618L356.379 318.618L356.379 316.618ZM352.391 316.618L354.385 316.618L354.385 318.618L352.391 318.618L352.391 316.618ZM348.402 316.618L350.396 316.618L350.396 318.618L348.402 318.618L348.402 316.618ZM344.414 316.618L346.408 316.618L346.408 318.618L344.414 318.618L344.414 316.618ZM340.426 316.618L342.42 316.618L342.42 318.618L340.426 318.618L340.426 316.618ZM336.437 316.618L338.432 316.618L338.432 318.618L336.437 318.618L336.437 316.618ZM332.45 316.618L334.444 316.618L334.444 318.618L332.45 318.618L332.45 316.618ZM328.462 316.618L330.456 316.618L330.456 318.618L328.462 318.618L328.462 316.618ZM324.474 316.618L326.468 316.618L326.468 318.618L324.474 318.618L324.474 316.618ZM320.485 316.618L322.479 316.618L322.479 318.618L320.485 318.618L320.485 316.618ZM316.497 316.618L318.491 316.618L318.491 318.618L316.497 318.618L316.497 316.618ZM312.509 316.618L314.503 316.618L314.503 318.618L312.509 318.618L312.509 316.618ZM308.521 316.618L310.515 316.618L310.515 318.618L308.521 318.618L308.521 316.618ZM304.532 316.618L306.526 316.618L306.526 318.618L304.532 318.618L304.532 316.618ZM300.544 316.618L302.538 316.618L302.538 318.618L300.544 318.618L300.544 316.618ZM296.556 316.618L298.55 316.618L298.55 318.618L296.556 318.618L296.556 316.618ZM292.567 316.618L294.562 316.618L294.562 318.618L292.567 318.618L292.567 316.618ZM288.579 316.618L290.573 316.618L290.573 318.618L288.579 318.618L288.579 316.618ZM284.591 316.618L286.585 316.618L286.585 318.618L284.591 318.618L284.591 316.618ZM280.603 316.618L282.597 316.618L282.597 318.618L280.603 318.618L280.603 316.618ZM276.614 316.618L278.608 316.618L278.608 318.618L276.614 318.618L276.614 316.618ZM272.626 316.618L274.62 316.618L274.62 318.618L272.626 318.618L272.626 316.618ZM268.639 316.618L270.633 316.618L270.633 318.618L268.639 318.618L268.639 316.618ZM264.65 316.618L266.645 316.618L266.645 318.618L264.65 318.618L264.65 316.618ZM260.662 316.618L262.656 316.618L262.656 318.618L260.662 318.618L260.662 316.618ZM256.674 316.618L258.668 316.618L258.668 318.618L256.674 318.618L256.674 316.618ZM252.686 316.618L254.68 316.618L254.68 318.618L252.686 318.618L252.686 316.618ZM248.697 316.618L250.691 316.618L250.691 318.618L248.697 318.618L248.697 316.618ZM244.709 316.618L246.703 316.618L246.703 318.618L244.709 318.618L244.709 316.618ZM240.721 316.618L242.715 316.618L242.715 318.618L240.721 318.618L240.721 316.618ZM236.732 316.618L238.727 316.618L238.727 318.618L236.732 318.618L236.732 316.618ZM232.744 316.618L234.738 316.618L234.738 318.618L232.744 318.618L232.744 316.618ZM228.756 316.618L230.75 316.618L230.75 318.618L228.756 318.618L228.756 316.618ZM224.768 316.618L226.762 316.618L226.762 318.618L224.768 318.618L224.768 316.618ZM220.779 316.618L222.773 316.618L222.773 318.618L220.779 318.618L220.779 316.618ZM216.791 316.618L218.785 316.618L218.785 318.618L216.791 318.618L216.791 316.618ZM212.803 316.618L214.797 316.618L214.797 318.618L212.803 318.618L212.803 316.618ZM208.814 316.618L210.809 316.618L210.809 318.618L208.814 318.618L208.814 316.618ZM204.826 316.618L206.82 316.618L206.82 318.618L204.826 318.618L204.826 316.618ZM200.838 316.618L202.832 316.618L202.832 318.618L200.838 318.618L200.838 316.618ZM196.85 316.618L198.844 316.618L198.844 318.618L196.85 318.618L196.85 316.618ZM192.861 316.618L194.855 316.618L194.855 318.618L192.861 318.618L192.861 316.618ZM188.873 316.618L190.867 316.618L190.867 318.618L188.873 318.618L188.873 316.618ZM184.886 316.618L186.88 316.618L186.88 318.618L184.886 318.618L184.886 316.618ZM180.897 316.618L182.892 316.618L182.892 318.618L180.897 318.618L180.897 316.618ZM176.909 316.618L178.903 316.618L178.903 318.618L176.909 318.618L176.909 316.618ZM172.921 316.618L174.915 316.618L174.915 318.618L172.921 318.618L172.921 316.618ZM168.933 316.618L170.927 316.618L170.927 318.618L168.933 318.618L168.933 316.618ZM164.944 316.618L166.938 316.618L166.938 318.618L164.944 318.618L164.944 316.618ZM160.956 316.618L162.95 316.618L162.95 318.618L160.956 318.618L160.956 316.618ZM156.968 316.618L158.962 316.618L158.962 318.618L156.968 318.618L156.968 316.618ZM152.979 316.618L154.974 316.618L154.974 318.618L152.979 318.618L152.979 316.618ZM148.991 316.618L150.985 316.618L150.985 318.618L148.991 318.618L148.991 316.618ZM145.011 318.414C145.113 317.406 145.963 316.62 146.997 316.618L146.997 318.618L145 318.618L145.011 318.414Z" fill="#3B3B3B" mask="url(#path-11-inside-2_1099_2614)"/>
<mask id="path-13-inside-3_1099_2614" fill="white">
<path d="M146 304.094C145.448 304.094 145 303.646 145 303.094L145 267.656C145 267.104 145.448 266.656 146 266.656L632.565 266.656C633.117 266.656 633.565 267.104 633.565 267.656L633.565 303.094C633.565 303.646 633.117 304.094 632.565 304.094L146 304.094Z"/>
</mask>
<path d="M631.566 265.656C632.67 265.657 633.564 266.552 633.564 267.656L631.566 267.656L631.566 265.656ZM627.578 265.656L629.572 265.656L629.572 267.656L627.578 267.656L627.578 265.656ZM623.59 265.656L625.584 265.656L625.584 267.656L623.59 267.656L623.59 265.656ZM619.602 265.656L621.596 265.656L621.596 267.656L619.602 267.656L619.602 265.656ZM615.613 265.656L617.607 265.656L617.607 267.656L615.613 267.656L615.613 265.656ZM611.625 265.656L613.619 265.656L613.619 267.656L611.625 267.656L611.625 265.656ZM607.637 265.656L609.631 265.656L609.631 267.656L607.637 267.656L607.637 265.656ZM603.648 265.656L605.643 265.656L605.643 267.656L603.648 267.656L603.648 265.656ZM599.66 265.656L601.654 265.656L601.654 267.656L599.66 267.656L599.66 265.656ZM595.672 265.656L597.666 265.656L597.666 267.656L595.672 267.656L595.672 265.656ZM591.684 265.656L593.678 265.656L593.678 267.656L591.684 267.656L591.684 265.656ZM587.696 265.656L589.69 265.656L589.69 267.656L587.696 267.656L587.696 265.656ZM583.708 265.656L585.702 265.656L585.702 267.656L583.708 267.656L583.708 265.656ZM579.72 265.656L581.714 265.656L581.714 267.656L579.72 267.656L579.72 265.656ZM575.731 265.656L577.726 265.656L577.726 267.656L575.731 267.656L575.731 265.656ZM571.743 265.656L573.737 265.656L573.737 267.656L571.743 267.656L571.743 265.656ZM567.755 265.656L569.749 265.656L569.749 267.656L567.755 267.656L567.755 265.656ZM563.767 265.656L565.761 265.656L565.761 267.656L563.767 267.656L563.767 265.656ZM559.778 265.656L561.772 265.656L561.772 267.656L559.778 267.656L559.778 265.656ZM555.79 265.656L557.784 265.656L557.784 267.656L555.79 267.656L555.79 265.656ZM551.802 265.656L553.796 265.656L553.796 267.656L551.802 267.656L551.802 265.656ZM547.813 265.656L549.808 265.656L549.808 267.656L547.813 267.656L547.813 265.656ZM543.825 265.656L545.819 265.656L545.819 267.656L543.825 267.656L543.825 265.656ZM539.837 265.656L541.831 265.656L541.831 267.656L539.837 267.656L539.837 265.656ZM535.849 265.656L537.843 265.656L537.843 267.656L535.849 267.656L535.849 265.656ZM531.86 265.656L533.854 265.656L533.854 267.656L531.86 267.656L531.86 265.656ZM527.872 265.656L529.866 265.656L529.866 267.656L527.872 267.656L527.872 265.656ZM523.885 265.656L525.879 265.656L525.879 267.656L523.885 267.656L523.885 265.656ZM519.896 265.656L521.891 265.656L521.891 267.656L519.896 267.656L519.896 265.656ZM515.908 265.656L517.902 265.656L517.902 267.656L515.908 267.656L515.908 265.656ZM511.92 265.656L513.914 265.656L513.914 267.656L511.92 267.656L511.92 265.656ZM507.932 265.656L509.926 265.656L509.926 267.656L507.932 267.656L507.932 265.656ZM503.943 265.656L505.937 265.656L505.937 267.656L503.943 267.656L503.943 265.656ZM499.955 265.656L501.949 265.656L501.949 267.656L499.955 267.656L499.955 265.656ZM495.967 265.656L497.961 265.656L497.961 267.656L495.967 267.656L495.967 265.656ZM491.979 265.656L493.973 265.656L493.973 267.656L491.979 267.656L491.979 265.656ZM487.99 265.656L489.984 265.656L489.984 267.656L487.99 267.656L487.99 265.656ZM484.002 265.656L485.996 265.656L485.996 267.656L484.002 267.656L484.002 265.656ZM480.014 265.656L482.008 265.656L482.008 267.656L480.014 267.656L480.014 265.656ZM476.025 265.656L478.02 265.656L478.02 267.656L476.025 267.656L476.025 265.656ZM472.037 265.656L474.031 265.656L474.031 267.656L472.037 267.656L472.037 265.656ZM468.049 265.656L470.043 265.656L470.043 267.656L468.049 267.656L468.049 265.656ZM464.061 265.656L466.055 265.656L466.055 267.656L464.061 267.656L464.061 265.656ZM460.073 265.656L462.067 265.656L462.067 267.656L460.073 267.656L460.073 265.656ZM456.085 265.656L458.079 265.656L458.079 267.656L456.085 267.656L456.085 265.656ZM452.097 265.656L454.091 265.656L454.091 267.656L452.097 267.656L452.097 265.656ZM448.108 265.656L450.103 265.656L450.103 267.656L448.108 267.656L448.108 265.656ZM444.12 265.656L446.114 265.656L446.114 267.656L444.12 267.656L444.12 265.656ZM440.132 265.656L442.126 265.656L442.126 267.656L440.132 267.656L440.132 265.656ZM436.144 265.656L438.138 265.656L438.138 267.656L436.144 267.656L436.144 265.656ZM432.155 265.656L434.149 265.656L434.149 267.656L432.155 267.656L432.155 265.656ZM428.167 265.656L430.161 265.656L430.161 267.656L428.167 267.656L428.167 265.656ZM424.179 265.656L426.173 265.656L426.173 267.656L424.179 267.656L424.179 265.656ZM420.19 265.656L422.185 265.656L422.185 267.656L420.19 267.656L420.19 265.656ZM416.202 265.656L418.196 265.656L418.196 267.656L416.202 267.656L416.202 265.656ZM412.214 265.656L414.208 265.656L414.208 267.656L412.214 267.656L412.214 265.656ZM408.226 265.656L410.22 265.656L410.22 267.656L408.226 267.656L408.226 265.656ZM404.237 265.656L406.231 265.656L406.231 267.656L404.237 267.656L404.237 265.656ZM400.249 265.656L402.243 265.656L402.243 267.656L400.249 267.656L400.249 265.656ZM396.262 265.656L398.256 265.656L398.256 267.656L396.262 267.656L396.262 265.656ZM392.273 265.656L394.268 265.656L394.268 267.656L392.273 267.656L392.273 265.656ZM388.285 265.656L390.279 265.656L390.279 267.656L388.285 267.656L388.285 265.656ZM384.297 265.656L386.291 265.656L386.291 267.656L384.297 267.656L384.297 265.656ZM380.309 265.656L382.303 265.656L382.303 267.656L380.309 267.656L380.309 265.656ZM376.32 265.656L378.314 265.656L378.314 267.656L376.32 267.656L376.32 265.656ZM372.332 265.656L374.326 265.656L374.326 267.656L372.332 267.656L372.332 265.656ZM368.344 265.656L370.338 265.656L370.338 267.656L368.344 267.656L368.344 265.656ZM364.355 265.656L366.35 265.656L366.35 267.656L364.355 267.656L364.355 265.656ZM360.367 265.656L362.361 265.656L362.361 267.656L360.367 267.656L360.367 265.656ZM356.379 265.656L358.373 265.656L358.373 267.656L356.379 267.656L356.379 265.656ZM352.391 265.656L354.385 265.656L354.385 267.656L352.391 267.656L352.391 265.656ZM348.402 265.656L350.396 265.656L350.396 267.656L348.402 267.656L348.402 265.656ZM344.414 265.656L346.408 265.656L346.408 267.656L344.414 267.656L344.414 265.656ZM340.426 265.656L342.42 265.656L342.42 267.656L340.426 267.656L340.426 265.656ZM336.437 265.656L338.432 265.656L338.432 267.656L336.437 267.656L336.437 265.656ZM332.45 265.656L334.444 265.656L334.444 267.656L332.45 267.656L332.45 265.656ZM328.462 265.656L330.456 265.656L330.456 267.656L328.462 267.656L328.462 265.656ZM324.474 265.656L326.468 265.656L326.468 267.656L324.474 267.656L324.474 265.656ZM320.485 265.656L322.479 265.656L322.479 267.656L320.485 267.656L320.485 265.656ZM316.497 265.656L318.491 265.656L318.491 267.656L316.497 267.656L316.497 265.656ZM312.509 265.656L314.503 265.656L314.503 267.656L312.509 267.656L312.509 265.656ZM308.521 265.656L310.515 265.656L310.515 267.656L308.521 267.656L308.521 265.656ZM304.532 265.656L306.526 265.656L306.526 267.656L304.532 267.656L304.532 265.656ZM300.544 265.656L302.538 265.656L302.538 267.656L300.544 267.656L300.544 265.656ZM296.556 265.656L298.55 265.656L298.55 267.656L296.556 267.656L296.556 265.656ZM292.567 265.656L294.562 265.656L294.562 267.656L292.567 267.656L292.567 265.656ZM288.579 265.656L290.573 265.656L290.573 267.656L288.579 267.656L288.579 265.656ZM284.591 265.656L286.585 265.656L286.585 267.656L284.591 267.656L284.591 265.656ZM280.603 265.656L282.597 265.656L282.597 267.656L280.603 267.656L280.603 265.656ZM276.614 265.656L278.608 265.656L278.608 267.656L276.614 267.656L276.614 265.656ZM272.626 265.656L274.62 265.656L274.62 267.656L272.626 267.656L272.626 265.656ZM268.639 265.656L270.633 265.656L270.633 267.656L268.639 267.656L268.639 265.656ZM264.65 265.656L266.645 265.656L266.645 267.656L264.65 267.656L264.65 265.656ZM260.662 265.656L262.656 265.656L262.656 267.656L260.662 267.656L260.662 265.656ZM256.674 265.656L258.668 265.656L258.668 267.656L256.674 267.656L256.674 265.656ZM252.686 265.656L254.68 265.656L254.68 267.656L252.686 267.656L252.686 265.656ZM248.697 265.656L250.691 265.656L250.691 267.656L248.697 267.656L248.697 265.656ZM244.709 265.656L246.703 265.656L246.703 267.656L244.709 267.656L244.709 265.656ZM240.721 265.656L242.715 265.656L242.715 267.656L240.721 267.656L240.721 265.656ZM236.732 265.656L238.727 265.656L238.727 267.656L236.732 267.656L236.732 265.656ZM232.744 265.656L234.738 265.656L234.738 267.656L232.744 267.656L232.744 265.656ZM228.756 265.656L230.75 265.656L230.75 267.656L228.756 267.656L228.756 265.656ZM224.768 265.656L226.762 265.656L226.762 267.656L224.768 267.656L224.768 265.656ZM220.779 265.656L222.773 265.656L222.773 267.656L220.779 267.656L220.779 265.656ZM216.791 265.656L218.785 265.656L218.785 267.656L216.791 267.656L216.791 265.656ZM212.803 265.656L214.797 265.656L214.797 267.656L212.803 267.656L212.803 265.656ZM208.814 265.656L210.809 265.656L210.809 267.656L208.814 267.656L208.814 265.656ZM204.826 265.656L206.82 265.656L206.82 267.656L204.826 267.656L204.826 265.656ZM200.838 265.656L202.832 265.656L202.832 267.656L200.838 267.656L200.838 265.656ZM196.85 265.656L198.844 265.656L198.844 267.656L196.85 267.656L196.85 265.656ZM192.861 265.656L194.855 265.656L194.855 267.656L192.861 267.656L192.861 265.656ZM188.873 265.656L190.867 265.656L190.867 267.656L188.873 267.656L188.873 265.656ZM184.886 265.656L186.88 265.656L186.88 267.656L184.886 267.656L184.886 265.656ZM180.897 265.656L182.892 265.656L182.892 267.656L180.897 267.656L180.897 265.656ZM176.909 265.656L178.903 265.656L178.903 267.656L176.909 267.656L176.909 265.656ZM172.921 265.656L174.915 265.656L174.915 267.656L172.921 267.656L172.921 265.656ZM168.933 265.656L170.927 265.656L170.927 267.656L168.933 267.656L168.933 265.656ZM164.944 265.656L166.938 265.656L166.938 267.656L164.944 267.656L164.944 265.656ZM160.956 265.656L162.95 265.656L162.95 267.656L160.956 267.656L160.956 265.656ZM156.968 265.656L158.962 265.656L158.962 267.656L156.968 267.656L156.968 265.656ZM152.979 265.656L154.974 265.656L154.974 267.656L152.979 267.656L152.979 265.656ZM148.991 265.656L150.985 265.656L150.985 267.656L148.991 267.656L148.991 265.656ZM145.011 267.452C145.113 266.445 145.963 265.658 146.997 265.656L146.997 267.656L145 267.656L145.011 267.452Z" fill="#3B3B3B" mask="url(#path-13-inside-3_1099_2614)"/>
<mask id="path-15-inside-4_1099_2614" fill="white">
<path d="M146 253.133C145.448 253.133 145 252.685 145 252.133L145 216.696C145 216.143 145.448 215.696 146 215.696L632.565 215.696C633.117 215.696 633.565 216.143 633.565 216.696L633.565 252.133C633.565 252.685 633.117 253.133 632.565 253.133L146 253.133Z"/>
</mask>
<path d="M631.566 214.695C632.67 214.696 633.564 215.591 633.564 216.695L631.566 216.695L631.566 214.695ZM627.578 214.695L629.572 214.695L629.572 216.695L627.578 216.695L627.578 214.695ZM623.59 214.695L625.584 214.695L625.584 216.695L623.59 216.695L623.59 214.695ZM619.602 214.695L621.596 214.695L621.596 216.695L619.602 216.695L619.602 214.695ZM615.613 214.695L617.607 214.695L617.607 216.695L615.613 216.695L615.613 214.695ZM611.625 214.695L613.619 214.695L613.619 216.695L611.625 216.695L611.625 214.695ZM607.637 214.695L609.631 214.695L609.631 216.695L607.637 216.695L607.637 214.695ZM603.648 214.695L605.643 214.695L605.643 216.695L603.648 216.695L603.648 214.695ZM599.66 214.695L601.654 214.695L601.654 216.695L599.66 216.695L599.66 214.695ZM595.672 214.695L597.666 214.695L597.666 216.695L595.672 216.695L595.672 214.695ZM591.684 214.695L593.678 214.695L593.678 216.695L591.684 216.695L591.684 214.695ZM587.696 214.695L589.69 214.695L589.69 216.695L587.696 216.695L587.696 214.695ZM583.708 214.695L585.702 214.695L585.702 216.695L583.708 216.695L583.708 214.695ZM579.72 214.695L581.714 214.695L581.714 216.695L579.72 216.695L579.72 214.695ZM575.731 214.695L577.726 214.695L577.726 216.695L575.731 216.695L575.731 214.695ZM571.743 214.695L573.737 214.695L573.737 216.695L571.743 216.695L571.743 214.695ZM567.755 214.695L569.749 214.695L569.749 216.695L567.755 216.695L567.755 214.695ZM563.767 214.695L565.761 214.695L565.761 216.695L563.767 216.695L563.767 214.695ZM559.778 214.695L561.772 214.695L561.772 216.695L559.778 216.695L559.778 214.695ZM555.79 214.695L557.784 214.695L557.784 216.695L555.79 216.695L555.79 214.695ZM551.802 214.695L553.796 214.695L553.796 216.695L551.802 216.695L551.802 214.695ZM547.813 214.695L549.808 214.695L549.808 216.695L547.813 216.695L547.813 214.695ZM543.825 214.695L545.819 214.695L545.819 216.695L543.825 216.695L543.825 214.695ZM539.837 214.695L541.831 214.695L541.831 216.695L539.837 216.695L539.837 214.695ZM535.849 214.695L537.843 214.695L537.843 216.695L535.849 216.695L535.849 214.695ZM531.86 214.695L533.854 214.695L533.854 216.695L531.86 216.695L531.86 214.695ZM527.872 214.695L529.866 214.695L529.866 216.695L527.872 216.695L527.872 214.695ZM523.885 214.695L525.879 214.695L525.879 216.695L523.885 216.695L523.885 214.695ZM519.896 214.695L521.891 214.695L521.891 216.695L519.896 216.695L519.896 214.695ZM515.908 214.695L517.902 214.695L517.902 216.695L515.908 216.695L515.908 214.695ZM511.92 214.695L513.914 214.695L513.914 216.695L511.92 216.695L511.92 214.695ZM507.932 214.695L509.926 214.695L509.926 216.695L507.932 216.695L507.932 214.695ZM503.943 214.695L505.937 214.695L505.937 216.695L503.943 216.695L503.943 214.695ZM499.955 214.695L501.949 214.695L501.949 216.695L499.955 216.695L499.955 214.695ZM495.967 214.695L497.961 214.695L497.961 216.695L495.967 216.695L495.967 214.695ZM491.979 214.695L493.973 214.695L493.973 216.695L491.979 216.695L491.979 214.695ZM487.99 214.695L489.984 214.695L489.984 216.695L487.99 216.695L487.99 214.695ZM484.002 214.695L485.996 214.695L485.996 216.695L484.002 216.695L484.002 214.695ZM480.014 214.695L482.008 214.695L482.008 216.695L480.014 216.695L480.014 214.695ZM476.025 214.695L478.02 214.695L478.02 216.695L476.025 216.695L476.025 214.695ZM472.037 214.695L474.031 214.695L474.031 216.695L472.037 216.695L472.037 214.695ZM468.049 214.695L470.043 214.695L470.043 216.695L468.049 216.695L468.049 214.695ZM464.061 214.695L466.055 214.695L466.055 216.695L464.061 216.695L464.061 214.695ZM460.073 214.695L462.067 214.695L462.067 216.695L460.073 216.695L460.073 214.695ZM456.085 214.695L458.079 214.695L458.079 216.695L456.085 216.695L456.085 214.695ZM452.097 214.695L454.091 214.695L454.091 216.695L452.097 216.695L452.097 214.695ZM448.108 214.695L450.103 214.695L450.103 216.695L448.108 216.695L448.108 214.695ZM444.12 214.695L446.114 214.695L446.114 216.695L444.12 216.695L444.12 214.695ZM440.132 214.695L442.126 214.695L442.126 216.695L440.132 216.695L440.132 214.695ZM436.144 214.695L438.138 214.695L438.138 216.695L436.144 216.695L436.144 214.695ZM432.155 214.695L434.149 214.695L434.149 216.695L432.155 216.695L432.155 214.695ZM428.167 214.695L430.161 214.695L430.161 216.695L428.167 216.695L428.167 214.695ZM424.179 214.695L426.173 214.695L426.173 216.695L424.179 216.695L424.179 214.695ZM420.19 214.695L422.185 214.695L422.185 216.695L420.19 216.695L420.19 214.695ZM416.202 214.695L418.196 214.695L418.196 216.695L416.202 216.695L416.202 214.695ZM412.214 214.695L414.208 214.695L414.208 216.695L412.214 216.695L412.214 214.695ZM408.226 214.695L410.22 214.695L410.22 216.695L408.226 216.695L408.226 214.695ZM404.237 214.695L406.231 214.695L406.231 216.695L404.237 216.695L404.237 214.695ZM400.249 214.695L402.243 214.695L402.243 216.695L400.249 216.695L400.249 214.695ZM396.262 214.695L398.256 214.695L398.256 216.695L396.262 216.695L396.262 214.695ZM392.273 214.695L394.268 214.695L394.268 216.695L392.273 216.695L392.273 214.695ZM388.285 214.695L390.279 214.695L390.279 216.695L388.285 216.695L388.285 214.695ZM384.297 214.695L386.291 214.695L386.291 216.695L384.297 216.695L384.297 214.695ZM380.309 214.695L382.303 214.695L382.303 216.695L380.309 216.695L380.309 214.695ZM376.32 214.695L378.314 214.695L378.314 216.695L376.32 216.695L376.32 214.695ZM372.332 214.695L374.326 214.695L374.326 216.695L372.332 216.695L372.332 214.695ZM368.344 214.695L370.338 214.695L370.338 216.695L368.344 216.695L368.344 214.695ZM364.355 214.695L366.35 214.695L366.35 216.695L364.355 216.695L364.355 214.695ZM360.367 214.695L362.361 214.695L362.361 216.695L360.367 216.695L360.367 214.695ZM356.379 214.695L358.373 214.695L358.373 216.695L356.379 216.695L356.379 214.695ZM352.391 214.695L354.385 214.695L354.385 216.695L352.391 216.695L352.391 214.695ZM348.402 214.695L350.396 214.695L350.396 216.695L348.402 216.695L348.402 214.695ZM344.414 214.695L346.408 214.695L346.408 216.695L344.414 216.695L344.414 214.695ZM340.426 214.695L342.42 214.695L342.42 216.695L340.426 216.695L340.426 214.695ZM336.437 214.695L338.432 214.695L338.432 216.695L336.437 216.695L336.437 214.695ZM332.45 214.695L334.444 214.695L334.444 216.695L332.45 216.695L332.45 214.695ZM328.462 214.695L330.456 214.695L330.456 216.695L328.462 216.695L328.462 214.695ZM324.474 214.695L326.468 214.695L326.468 216.695L324.474 216.695L324.474 214.695ZM320.485 214.695L322.479 214.695L322.479 216.695L320.485 216.695L320.485 214.695ZM316.497 214.695L318.491 214.695L318.491 216.695L316.497 216.695L316.497 214.695ZM312.509 214.695L314.503 214.695L314.503 216.695L312.509 216.695L312.509 214.695ZM308.521 214.695L310.515 214.695L310.515 216.695L308.521 216.695L308.521 214.695ZM304.532 214.695L306.526 214.695L306.526 216.695L304.532 216.695L304.532 214.695ZM300.544 214.695L302.538 214.695L302.538 216.695L300.544 216.695L300.544 214.695ZM296.556 214.695L298.55 214.695L298.55 216.695L296.556 216.695L296.556 214.695ZM292.567 214.695L294.562 214.695L294.562 216.695L292.567 216.695L292.567 214.695ZM288.579 214.695L290.573 214.695L290.573 216.695L288.579 216.695L288.579 214.695ZM284.591 214.695L286.585 214.695L286.585 216.695L284.591 216.695L284.591 214.695ZM280.603 214.695L282.597 214.695L282.597 216.695L280.603 216.695L280.603 214.695ZM276.614 214.695L278.608 214.695L278.608 216.695L276.614 216.695L276.614 214.695ZM272.626 214.695L274.62 214.695L274.62 216.695L272.626 216.695L272.626 214.695ZM268.639 214.695L270.633 214.695L270.633 216.695L268.639 216.695L268.639 214.695ZM264.65 214.695L266.645 214.695L266.645 216.695L264.65 216.695L264.65 214.695ZM260.662 214.695L262.656 214.695L262.656 216.695L260.662 216.695L260.662 214.695ZM256.674 214.695L258.668 214.695L258.668 216.695L256.674 216.695L256.674 214.695ZM252.686 214.695L254.68 214.695L254.68 216.695L252.686 216.695L252.686 214.695ZM248.697 214.695L250.691 214.695L250.691 216.695L248.697 216.695L248.697 214.695ZM244.709 214.695L246.703 214.695L246.703 216.695L244.709 216.695L244.709 214.695ZM240.721 214.695L242.715 214.695L242.715 216.695L240.721 216.695L240.721 214.695ZM236.732 214.695L238.727 214.695L238.727 216.695L236.732 216.695L236.732 214.695ZM232.744 214.695L234.738 214.695L234.738 216.695L232.744 216.695L232.744 214.695ZM228.756 214.695L230.75 214.695L230.75 216.695L228.756 216.695L228.756 214.695ZM224.768 214.695L226.762 214.695L226.762 216.695L224.768 216.695L224.768 214.695ZM220.779 214.695L222.773 214.695L222.773 216.695L220.779 216.695L220.779 214.695ZM216.791 214.695L218.785 214.695L218.785 216.695L216.791 216.695L216.791 214.695ZM212.803 214.695L214.797 214.695L214.797 216.695L212.803 216.695L212.803 214.695ZM208.814 214.695L210.809 214.695L210.809 216.695L208.814 216.695L208.814 214.695ZM204.826 214.695L206.82 214.695L206.82 216.695L204.826 216.695L204.826 214.695ZM200.838 214.695L202.832 214.695L202.832 216.695L200.838 216.695L200.838 214.695ZM196.85 214.695L198.844 214.695L198.844 216.695L196.85 216.695L196.85 214.695ZM192.861 214.695L194.855 214.695L194.855 216.695L192.861 216.695L192.861 214.695ZM188.873 214.695L190.867 214.695L190.867 216.695L188.873 216.695L188.873 214.695ZM184.886 214.695L186.88 214.695L186.88 216.695L184.886 216.695L184.886 214.695ZM180.897 214.695L182.892 214.695L182.892 216.695L180.897 216.695L180.897 214.695ZM176.909 214.695L178.903 214.695L178.903 216.695L176.909 216.695L176.909 214.695ZM172.921 214.695L174.915 214.695L174.915 216.695L172.921 216.695L172.921 214.695ZM168.933 214.695L170.927 214.695L170.927 216.695L168.933 216.695L168.933 214.695ZM164.944 214.695L166.938 214.695L166.938 216.695L164.944 216.695L164.944 214.695ZM160.956 214.695L162.95 214.695L162.95 216.695L160.956 216.695L160.956 214.695ZM156.968 214.695L158.962 214.695L158.962 216.695L156.968 216.695L156.968 214.695ZM152.979 214.695L154.974 214.695L154.974 216.695L152.979 216.695L152.979 214.695ZM148.991 214.695L150.985 214.695L150.985 216.695L148.991 216.695L148.991 214.695ZM145.011 216.491C145.113 215.484 145.963 214.697 146.997 214.695L146.997 216.695L145 216.695L145.011 216.491Z" fill="#3B3B3B" mask="url(#path-15-inside-4_1099_2614)"/>
<path d="M234.245 335.834L197.816 360.228C188.049 366.769 184.983 379.738 190.787 389.96C194.722 396.89 202.036 401.214 210.004 401.321L425.137 404.209C450.865 404.554 471.873 383.729 471.754 357.999L470.931 180.566V176.788C470.931 176.191 470.236 175.863 469.775 176.243L458.486 185.544L441.059 201.387C437.172 204.921 434.359 209.478 432.944 214.537C428.898 228.995 414.154 237.674 399.549 234.195L391.318 232.235C388.528 231.57 385.67 231.234 382.802 231.234H371.156C355.767 231.234 341.398 238.93 332.868 251.738L332.374 252.481C326.509 261.289 317.785 267.806 307.675 270.932L305.478 271.611L285.148 280.907C276.648 284.794 269.534 291.177 264.753 299.208L256.866 312.454C254.915 315.731 252.564 318.752 249.868 321.448L241.177 330.139C239.057 332.259 236.735 334.166 234.245 335.834Z" fill="url(#paint6_linear_1099_2614)"/>
<mask id="path-18-inside-5_1099_2614" fill="white">
<path d="M146 202.171C145.448 202.171 145 201.723 145 201.171L145 165.734C145 165.181 145.448 164.734 146 164.734L632.565 164.734C633.117 164.734 633.565 165.181 633.565 165.734L633.565 201.171C633.565 201.723 633.117 202.171 632.565 202.171L146 202.171Z"/>
</mask>
<path d="M631.566 163.733C632.67 163.734 633.564 164.63 633.564 165.733L631.566 165.733L631.566 163.733ZM627.578 163.733L629.572 163.733L629.572 165.733L627.578 165.733L627.578 163.733ZM623.59 163.733L625.584 163.733L625.584 165.733L623.59 165.733L623.59 163.733ZM619.602 163.733L621.596 163.733L621.596 165.733L619.602 165.733L619.602 163.733ZM615.613 163.733L617.607 163.733L617.607 165.733L615.613 165.733L615.613 163.733ZM611.625 163.733L613.619 163.733L613.619 165.733L611.625 165.733L611.625 163.733ZM607.637 163.733L609.631 163.733L609.631 165.733L607.637 165.733L607.637 163.733ZM603.648 163.733L605.643 163.733L605.643 165.733L603.648 165.733L603.648 163.733ZM599.66 163.733L601.654 163.733L601.654 165.733L599.66 165.733L599.66 163.733ZM595.672 163.733L597.666 163.733L597.666 165.733L595.672 165.733L595.672 163.733ZM591.684 163.733L593.678 163.733L593.678 165.733L591.684 165.733L591.684 163.733ZM587.696 163.733L589.69 163.733L589.69 165.733L587.696 165.733L587.696 163.733ZM583.708 163.733L585.702 163.733L585.702 165.733L583.708 165.733L583.708 163.733ZM579.72 163.733L581.714 163.733L581.714 165.733L579.72 165.733L579.72 163.733ZM575.731 163.733L577.726 163.733L577.726 165.733L575.731 165.733L575.731 163.733ZM571.743 163.733L573.737 163.733L573.737 165.733L571.743 165.733L571.743 163.733ZM567.755 163.733L569.749 163.733L569.749 165.733L567.755 165.733L567.755 163.733ZM563.767 163.733L565.761 163.733L565.761 165.733L563.767 165.733L563.767 163.733ZM559.778 163.733L561.772 163.733L561.772 165.733L559.778 165.733L559.778 163.733ZM555.79 163.733L557.784 163.733L557.784 165.733L555.79 165.733L555.79 163.733ZM551.802 163.733L553.796 163.733L553.796 165.733L551.802 165.733L551.802 163.733ZM547.813 163.733L549.808 163.733L549.808 165.733L547.813 165.733L547.813 163.733ZM543.825 163.733L545.819 163.733L545.819 165.733L543.825 165.733L543.825 163.733ZM539.837 163.733L541.831 163.733L541.831 165.733L539.837 165.733L539.837 163.733ZM535.849 163.733L537.843 163.733L537.843 165.733L535.849 165.733L535.849 163.733ZM531.86 163.733L533.854 163.733L533.854 165.733L531.86 165.733L531.86 163.733ZM527.872 163.733L529.866 163.733L529.866 165.733L527.872 165.733L527.872 163.733ZM523.885 163.733L525.879 163.733L525.879 165.733L523.885 165.733L523.885 163.733ZM519.896 163.733L521.891 163.733L521.891 165.733L519.896 165.733L519.896 163.733ZM515.908 163.733L517.902 163.733L517.902 165.733L515.908 165.733L515.908 163.733ZM511.92 163.733L513.914 163.733L513.914 165.733L511.92 165.733L511.92 163.733ZM507.932 163.733L509.926 163.733L509.926 165.733L507.932 165.733L507.932 163.733ZM503.943 163.733L505.937 163.733L505.937 165.733L503.943 165.733L503.943 163.733ZM499.955 163.733L501.949 163.733L501.949 165.733L499.955 165.733L499.955 163.733ZM495.967 163.733L497.961 163.733L497.961 165.733L495.967 165.733L495.967 163.733ZM491.979 163.733L493.973 163.733L493.973 165.733L491.979 165.733L491.979 163.733ZM487.99 163.733L489.984 163.733L489.984 165.733L487.99 165.733L487.99 163.733ZM484.002 163.733L485.996 163.733L485.996 165.733L484.002 165.733L484.002 163.733ZM480.014 163.733L482.008 163.733L482.008 165.733L480.014 165.733L480.014 163.733ZM476.025 163.733L478.02 163.733L478.02 165.733L476.025 165.733L476.025 163.733ZM472.037 163.733L474.031 163.733L474.031 165.733L472.037 165.733L472.037 163.733ZM468.049 163.733L470.043 163.733L470.043 165.733L468.049 165.733L468.049 163.733ZM464.061 163.733L466.055 163.733L466.055 165.733L464.061 165.733L464.061 163.733ZM460.073 163.733L462.067 163.733L462.067 165.733L460.073 165.733L460.073 163.733ZM456.085 163.733L458.079 163.733L458.079 165.733L456.085 165.733L456.085 163.733ZM452.097 163.733L454.091 163.733L454.091 165.733L452.097 165.733L452.097 163.733ZM448.108 163.733L450.103 163.733L450.103 165.733L448.108 165.733L448.108 163.733ZM444.12 163.733L446.114 163.733L446.114 165.733L444.12 165.733L444.12 163.733ZM440.132 163.733L442.126 163.733L442.126 165.733L440.132 165.733L440.132 163.733ZM436.144 163.733L438.138 163.733L438.138 165.733L436.144 165.733L436.144 163.733ZM432.155 163.733L434.149 163.733L434.149 165.733L432.155 165.733L432.155 163.733ZM428.167 163.733L430.161 163.733L430.161 165.733L428.167 165.733L428.167 163.733ZM424.179 163.733L426.173 163.733L426.173 165.733L424.179 165.733L424.179 163.733ZM420.19 163.733L422.185 163.733L422.185 165.733L420.19 165.733L420.19 163.733ZM416.202 163.733L418.196 163.733L418.196 165.733L416.202 165.733L416.202 163.733ZM412.214 163.733L414.208 163.733L414.208 165.733L412.214 165.733L412.214 163.733ZM408.226 163.733L410.22 163.733L410.22 165.733L408.226 165.733L408.226 163.733ZM404.237 163.733L406.231 163.733L406.231 165.733L404.237 165.733L404.237 163.733ZM400.249 163.733L402.243 163.733L402.243 165.733L400.249 165.733L400.249 163.733ZM396.262 163.733L398.256 163.733L398.256 165.733L396.262 165.733L396.262 163.733ZM392.273 163.733L394.268 163.733L394.268 165.733L392.273 165.733L392.273 163.733ZM388.285 163.733L390.279 163.733L390.279 165.733L388.285 165.733L388.285 163.733ZM384.297 163.733L386.291 163.733L386.291 165.733L384.297 165.733L384.297 163.733ZM380.309 163.733L382.303 163.733L382.303 165.733L380.309 165.733L380.309 163.733ZM376.32 163.733L378.314 163.733L378.314 165.733L376.32 165.733L376.32 163.733ZM372.332 163.733L374.326 163.733L374.326 165.733L372.332 165.733L372.332 163.733ZM368.344 163.733L370.338 163.733L370.338 165.733L368.344 165.733L368.344 163.733ZM364.355 163.733L366.35 163.733L366.35 165.733L364.355 165.733L364.355 163.733ZM360.367 163.733L362.361 163.733L362.361 165.733L360.367 165.733L360.367 163.733ZM356.379 163.733L358.373 163.733L358.373 165.733L356.379 165.733L356.379 163.733ZM352.391 163.733L354.385 163.733L354.385 165.733L352.391 165.733L352.391 163.733ZM348.402 163.733L350.396 163.733L350.396 165.733L348.402 165.733L348.402 163.733ZM344.414 163.733L346.408 163.733L346.408 165.733L344.414 165.733L344.414 163.733ZM340.426 163.733L342.42 163.733L342.42 165.733L340.426 165.733L340.426 163.733ZM336.437 163.733L338.432 163.733L338.432 165.733L336.437 165.733L336.437 163.733ZM332.45 163.733L334.444 163.733L334.444 165.733L332.45 165.733L332.45 163.733ZM328.462 163.733L330.456 163.733L330.456 165.733L328.462 165.733L328.462 163.733ZM324.474 163.733L326.468 163.733L326.468 165.733L324.474 165.733L324.474 163.733ZM320.485 163.733L322.479 163.733L322.479 165.733L320.485 165.733L320.485 163.733ZM316.497 163.733L318.491 163.733L318.491 165.733L316.497 165.733L316.497 163.733ZM312.509 163.733L314.503 163.733L314.503 165.733L312.509 165.733L312.509 163.733ZM308.521 163.733L310.515 163.733L310.515 165.733L308.521 165.733L308.521 163.733ZM304.532 163.733L306.526 163.733L306.526 165.733L304.532 165.733L304.532 163.733ZM300.544 163.733L302.538 163.733L302.538 165.733L300.544 165.733L300.544 163.733ZM296.556 163.733L298.55 163.733L298.55 165.733L296.556 165.733L296.556 163.733ZM292.567 163.733L294.562 163.733L294.562 165.733L292.567 165.733L292.567 163.733ZM288.579 163.733L290.573 163.733L290.573 165.733L288.579 165.733L288.579 163.733ZM284.591 163.733L286.585 163.733L286.585 165.733L284.591 165.733L284.591 163.733ZM280.603 163.733L282.597 163.733L282.597 165.733L280.603 165.733L280.603 163.733ZM276.614 163.733L278.608 163.733L278.608 165.733L276.614 165.733L276.614 163.733ZM272.626 163.733L274.62 163.733L274.62 165.733L272.626 165.733L272.626 163.733ZM268.639 163.733L270.633 163.733L270.633 165.733L268.639 165.733L268.639 163.733ZM264.65 163.733L266.645 163.733L266.645 165.733L264.65 165.733L264.65 163.733ZM260.662 163.733L262.656 163.733L262.656 165.733L260.662 165.733L260.662 163.733ZM256.674 163.733L258.668 163.733L258.668 165.733L256.674 165.733L256.674 163.733ZM252.686 163.733L254.68 163.733L254.68 165.733L252.686 165.733L252.686 163.733ZM248.697 163.733L250.691 163.733L250.691 165.733L248.697 165.733L248.697 163.733ZM244.709 163.733L246.703 163.733L246.703 165.733L244.709 165.733L244.709 163.733ZM240.721 163.733L242.715 163.733L242.715 165.733L240.721 165.733L240.721 163.733ZM236.732 163.733L238.727 163.733L238.727 165.733L236.732 165.733L236.732 163.733ZM232.744 163.733L234.738 163.733L234.738 165.733L232.744 165.733L232.744 163.733ZM228.756 163.733L230.75 163.733L230.75 165.733L228.756 165.733L228.756 163.733ZM224.768 163.733L226.762 163.733L226.762 165.733L224.768 165.733L224.768 163.733ZM220.779 163.733L222.773 163.733L222.773 165.733L220.779 165.733L220.779 163.733ZM216.791 163.733L218.785 163.733L218.785 165.733L216.791 165.733L216.791 163.733ZM212.803 163.733L214.797 163.733L214.797 165.733L212.803 165.733L212.803 163.733ZM208.814 163.733L210.809 163.733L210.809 165.733L208.814 165.733L208.814 163.733ZM204.826 163.733L206.82 163.733L206.82 165.733L204.826 165.733L204.826 163.733ZM200.838 163.733L202.832 163.733L202.832 165.733L200.838 165.733L200.838 163.733ZM196.85 163.733L198.844 163.733L198.844 165.733L196.85 165.733L196.85 163.733ZM192.861 163.733L194.855 163.733L194.855 165.733L192.861 165.733L192.861 163.733ZM188.873 163.733L190.867 163.733L190.867 165.733L188.873 165.733L188.873 163.733ZM184.886 163.733L186.88 163.733L186.88 165.733L184.886 165.733L184.886 163.733ZM180.897 163.733L182.892 163.733L182.892 165.733L180.897 165.733L180.897 163.733ZM176.909 163.733L178.903 163.733L178.903 165.733L176.909 165.733L176.909 163.733ZM172.921 163.733L174.915 163.733L174.915 165.733L172.921 165.733L172.921 163.733ZM168.933 163.733L170.927 163.733L170.927 165.733L168.933 165.733L168.933 163.733ZM164.944 163.733L166.938 163.733L166.938 165.733L164.944 165.733L164.944 163.733ZM160.956 163.733L162.95 163.733L162.95 165.733L160.956 165.733L160.956 163.733ZM156.968 163.733L158.962 163.733L158.962 165.733L156.968 165.733L156.968 163.733ZM152.979 163.733L154.974 163.733L154.974 165.733L152.979 165.733L152.979 163.733ZM148.991 163.733L150.985 163.733L150.985 165.733L148.991 165.733L148.991 163.733ZM145.011 165.529C145.113 164.522 145.963 163.735 146.997 163.733L146.997 165.733L145 165.733L145.011 165.529Z" fill="#3B3B3B" mask="url(#path-18-inside-5_1099_2614)"/>
<path d="M187.133 366.113L233.674 333.594C235.881 332.051 237.949 330.318 239.854 328.413L248.87 319.397C251.566 316.701 253.917 313.68 255.868 310.403L263.754 297.157C268.536 289.126 275.65 282.743 284.15 278.856L304.48 269.56L306.677 268.881C316.787 265.755 325.51 259.238 331.376 250.43L331.87 249.687C340.4 236.879 354.769 229.183 370.158 229.183H381.804C384.672 229.183 387.53 229.519 390.32 230.184L398.551 232.144C413.156 235.623 427.9 226.944 431.945 212.486C433.361 207.427 436.174 202.87 440.061 199.336L451.342 189.081C455.407 185.385 460.1 182.448 465.201 180.408L513.017 161.282C518.45 159.108 524.249 157.991 530.101 157.991H551.179C566.942 157.991 581.607 149.921 590.041 136.604L596.684 126.115" stroke="#2D7B4B" stroke-width="7"/>
<line x1="471.695" y1="94.0391" x2="471.695" y2="387.299" stroke="#3B3B3B" stroke-width="2"/>
<mask id="path-22-inside-6_1099_2614" fill="white">
<path d="M146 151.209C145.448 151.209 145 150.761 145 150.209L145 114.772C145 114.219 145.448 113.772 146 113.772L632.565 113.772C633.117 113.772 633.565 114.219 633.565 114.772L633.565 150.209C633.565 150.761 633.117 151.209 632.565 151.209L146 151.209Z"/>
</mask>
<path d="M631.566 112.771C632.67 112.772 633.564 113.668 633.564 114.771L631.566 114.771L631.566 112.771ZM627.578 112.771L629.572 112.771L629.572 114.771L627.578 114.771L627.578 112.771ZM623.59 112.771L625.584 112.771L625.584 114.771L623.59 114.771L623.59 112.771ZM619.602 112.771L621.596 112.771L621.596 114.771L619.602 114.771L619.602 112.771ZM615.613 112.771L617.607 112.771L617.607 114.771L615.613 114.771L615.613 112.771ZM611.625 112.771L613.619 112.771L613.619 114.771L611.625 114.771L611.625 112.771ZM607.637 112.771L609.631 112.771L609.631 114.771L607.637 114.771L607.637 112.771ZM603.648 112.771L605.643 112.771L605.643 114.771L603.648 114.771L603.648 112.771ZM599.66 112.771L601.654 112.771L601.654 114.771L599.66 114.771L599.66 112.771ZM595.672 112.771L597.666 112.771L597.666 114.771L595.672 114.771L595.672 112.771ZM591.684 112.771L593.678 112.771L593.678 114.771L591.684 114.771L591.684 112.771ZM587.696 112.771L589.69 112.771L589.69 114.771L587.696 114.771L587.696 112.771ZM583.708 112.771L585.702 112.771L585.702 114.771L583.708 114.771L583.708 112.771ZM579.72 112.771L581.714 112.771L581.714 114.771L579.72 114.771L579.72 112.771ZM575.731 112.771L577.726 112.771L577.726 114.771L575.731 114.771L575.731 112.771ZM571.743 112.771L573.737 112.771L573.737 114.771L571.743 114.771L571.743 112.771ZM567.755 112.771L569.749 112.771L569.749 114.771L567.755 114.771L567.755 112.771ZM563.767 112.771L565.761 112.771L565.761 114.771L563.767 114.771L563.767 112.771ZM559.778 112.771L561.772 112.771L561.772 114.771L559.778 114.771L559.778 112.771ZM555.79 112.771L557.784 112.771L557.784 114.771L555.79 114.771L555.79 112.771ZM551.802 112.771L553.796 112.771L553.796 114.771L551.802 114.771L551.802 112.771ZM547.813 112.771L549.808 112.771L549.808 114.771L547.813 114.771L547.813 112.771ZM543.825 112.771L545.819 112.771L545.819 114.771L543.825 114.771L543.825 112.771ZM539.837 112.771L541.831 112.771L541.831 114.771L539.837 114.771L539.837 112.771ZM535.849 112.771L537.843 112.771L537.843 114.771L535.849 114.771L535.849 112.771ZM531.86 112.771L533.854 112.771L533.854 114.771L531.86 114.771L531.86 112.771ZM527.872 112.771L529.866 112.771L529.866 114.771L527.872 114.771L527.872 112.771ZM523.885 112.771L525.879 112.771L525.879 114.771L523.885 114.771L523.885 112.771ZM519.896 112.771L521.891 112.771L521.891 114.771L519.896 114.771L519.896 112.771ZM515.908 112.771L517.902 112.771L517.902 114.771L515.908 114.771L515.908 112.771ZM511.92 112.771L513.914 112.771L513.914 114.771L511.92 114.771L511.92 112.771ZM507.932 112.771L509.926 112.771L509.926 114.771L507.932 114.771L507.932 112.771ZM503.943 112.771L505.937 112.771L505.937 114.771L503.943 114.771L503.943 112.771ZM499.955 112.771L501.949 112.771L501.949 114.771L499.955 114.771L499.955 112.771ZM495.967 112.771L497.961 112.771L497.961 114.771L495.967 114.771L495.967 112.771ZM491.979 112.771L493.973 112.771L493.973 114.771L491.979 114.771L491.979 112.771ZM487.99 112.771L489.984 112.771L489.984 114.771L487.99 114.771L487.99 112.771ZM484.002 112.771L485.996 112.771L485.996 114.771L484.002 114.771L484.002 112.771ZM480.014 112.771L482.008 112.771L482.008 114.771L480.014 114.771L480.014 112.771ZM476.025 112.771L478.02 112.771L478.02 114.771L476.025 114.771L476.025 112.771ZM472.037 112.771L474.031 112.771L474.031 114.771L472.037 114.771L472.037 112.771ZM468.049 112.771L470.043 112.771L470.043 114.771L468.049 114.771L468.049 112.771ZM464.061 112.771L466.055 112.771L466.055 114.771L464.061 114.771L464.061 112.771ZM460.073 112.771L462.067 112.771L462.067 114.771L460.073 114.771L460.073 112.771ZM456.085 112.771L458.079 112.771L458.079 114.771L456.085 114.771L456.085 112.771ZM452.097 112.771L454.091 112.771L454.091 114.771L452.097 114.771L452.097 112.771ZM448.108 112.771L450.103 112.771L450.103 114.771L448.108 114.771L448.108 112.771ZM444.12 112.771L446.114 112.771L446.114 114.771L444.12 114.771L444.12 112.771ZM440.132 112.771L442.126 112.771L442.126 114.771L440.132 114.771L440.132 112.771ZM436.144 112.771L438.138 112.771L438.138 114.771L436.144 114.771L436.144 112.771ZM432.155 112.771L434.149 112.771L434.149 114.771L432.155 114.771L432.155 112.771ZM428.167 112.771L430.161 112.771L430.161 114.771L428.167 114.771L428.167 112.771ZM424.179 112.771L426.173 112.771L426.173 114.771L424.179 114.771L424.179 112.771ZM420.19 112.771L422.185 112.771L422.185 114.771L420.19 114.771L420.19 112.771ZM416.202 112.771L418.196 112.771L418.196 114.771L416.202 114.771L416.202 112.771ZM412.214 112.771L414.208 112.771L414.208 114.771L412.214 114.771L412.214 112.771ZM408.226 112.771L410.22 112.771L410.22 114.771L408.226 114.771L408.226 112.771ZM404.237 112.771L406.231 112.771L406.231 114.771L404.237 114.771L404.237 112.771ZM400.249 112.771L402.243 112.771L402.243 114.771L400.249 114.771L400.249 112.771ZM396.262 112.771L398.256 112.771L398.256 114.771L396.262 114.771L396.262 112.771ZM392.273 112.771L394.268 112.771L394.268 114.771L392.273 114.771L392.273 112.771ZM388.285 112.771L390.279 112.771L390.279 114.771L388.285 114.771L388.285 112.771ZM384.297 112.771L386.291 112.771L386.291 114.771L384.297 114.771L384.297 112.771ZM380.309 112.771L382.303 112.771L382.303 114.771L380.309 114.771L380.309 112.771ZM376.32 112.771L378.314 112.771L378.314 114.771L376.32 114.771L376.32 112.771ZM372.332 112.771L374.326 112.771L374.326 114.771L372.332 114.771L372.332 112.771ZM368.344 112.771L370.338 112.771L370.338 114.771L368.344 114.771L368.344 112.771ZM364.355 112.771L366.35 112.771L366.35 114.771L364.355 114.771L364.355 112.771ZM360.367 112.771L362.361 112.771L362.361 114.771L360.367 114.771L360.367 112.771ZM356.379 112.771L358.373 112.771L358.373 114.771L356.379 114.771L356.379 112.771ZM352.391 112.771L354.385 112.771L354.385 114.771L352.391 114.771L352.391 112.771ZM348.402 112.771L350.396 112.771L350.396 114.771L348.402 114.771L348.402 112.771ZM344.414 112.771L346.408 112.771L346.408 114.771L344.414 114.771L344.414 112.771ZM340.426 112.771L342.42 112.771L342.42 114.771L340.426 114.771L340.426 112.771ZM336.437 112.771L338.432 112.771L338.432 114.771L336.437 114.771L336.437 112.771ZM332.45 112.771L334.444 112.771L334.444 114.771L332.45 114.771L332.45 112.771ZM328.462 112.771L330.456 112.771L330.456 114.771L328.462 114.771L328.462 112.771ZM324.474 112.771L326.468 112.771L326.468 114.771L324.474 114.771L324.474 112.771ZM320.485 112.771L322.479 112.771L322.479 114.771L320.485 114.771L320.485 112.771ZM316.497 112.771L318.491 112.771L318.491 114.771L316.497 114.771L316.497 112.771ZM312.509 112.771L314.503 112.771L314.503 114.771L312.509 114.771L312.509 112.771ZM308.521 112.771L310.515 112.771L310.515 114.771L308.521 114.771L308.521 112.771ZM304.532 112.771L306.526 112.771L306.526 114.771L304.532 114.771L304.532 112.771ZM300.544 112.771L302.538 112.771L302.538 114.771L300.544 114.771L300.544 112.771ZM296.556 112.771L298.55 112.771L298.55 114.771L296.556 114.771L296.556 112.771ZM292.567 112.771L294.562 112.771L294.562 114.771L292.567 114.771L292.567 112.771ZM288.579 112.771L290.573 112.771L290.573 114.771L288.579 114.771L288.579 112.771ZM284.591 112.771L286.585 112.771L286.585 114.771L284.591 114.771L284.591 112.771ZM280.603 112.771L282.597 112.771L282.597 114.771L280.603 114.771L280.603 112.771ZM276.614 112.771L278.608 112.771L278.608 114.771L276.614 114.771L276.614 112.771ZM272.626 112.771L274.62 112.771L274.62 114.771L272.626 114.771L272.626 112.771ZM268.639 112.771L270.633 112.771L270.633 114.771L268.639 114.771L268.639 112.771ZM264.65 112.771L266.645 112.771L266.645 114.771L264.65 114.771L264.65 112.771ZM260.662 112.771L262.656 112.771L262.656 114.771L260.662 114.771L260.662 112.771ZM256.674 112.771L258.668 112.771L258.668 114.771L256.674 114.771L256.674 112.771ZM252.686 112.771L254.68 112.771L254.68 114.771L252.686 114.771L252.686 112.771ZM248.697 112.771L250.691 112.771L250.691 114.771L248.697 114.771L248.697 112.771ZM244.709 112.771L246.703 112.771L246.703 114.771L244.709 114.771L244.709 112.771ZM240.721 112.771L242.715 112.771L242.715 114.771L240.721 114.771L240.721 112.771ZM236.732 112.771L238.727 112.771L238.727 114.771L236.732 114.771L236.732 112.771ZM232.744 112.771L234.738 112.771L234.738 114.771L232.744 114.771L232.744 112.771ZM228.756 112.771L230.75 112.771L230.75 114.771L228.756 114.771L228.756 112.771ZM224.768 112.771L226.762 112.771L226.762 114.771L224.768 114.771L224.768 112.771ZM220.779 112.771L222.773 112.771L222.773 114.771L220.779 114.771L220.779 112.771ZM216.791 112.771L218.785 112.771L218.785 114.771L216.791 114.771L216.791 112.771ZM212.803 112.771L214.797 112.771L214.797 114.771L212.803 114.771L212.803 112.771ZM208.814 112.771L210.809 112.771L210.809 114.771L208.814 114.771L208.814 112.771ZM204.826 112.771L206.82 112.771L206.82 114.771L204.826 114.771L204.826 112.771ZM200.838 112.771L202.832 112.771L202.832 114.771L200.838 114.771L200.838 112.771ZM196.85 112.771L198.844 112.771L198.844 114.771L196.85 114.771L196.85 112.771ZM192.861 112.771L194.855 112.771L194.855 114.771L192.861 114.771L192.861 112.771ZM188.873 112.771L190.867 112.771L190.867 114.771L188.873 114.771L188.873 112.771ZM184.886 112.771L186.88 112.771L186.88 114.771L184.886 114.771L184.886 112.771ZM180.897 112.771L182.892 112.771L182.892 114.771L180.897 114.771L180.897 112.771ZM176.909 112.771L178.903 112.771L178.903 114.771L176.909 114.771L176.909 112.771ZM172.921 112.771L174.915 112.771L174.915 114.771L172.921 114.771L172.921 112.771ZM168.933 112.771L170.927 112.771L170.927 114.771L168.933 114.771L168.933 112.771ZM164.944 112.771L166.938 112.771L166.938 114.771L164.944 114.771L164.944 112.771ZM160.956 112.771L162.95 112.771L162.95 114.771L160.956 114.771L160.956 112.771ZM156.968 112.771L158.962 112.771L158.962 114.771L156.968 114.771L156.968 112.771ZM152.979 112.771L154.974 112.771L154.974 114.771L152.979 114.771L152.979 112.771ZM148.991 112.771L150.985 112.771L150.985 114.771L148.991 114.771L148.991 112.771ZM145.011 114.567C145.113 113.56 145.963 112.773 146.997 112.771L146.997 114.771L145 114.771L145.011 114.567Z" fill="#3B3B3B" mask="url(#path-22-inside-6_1099_2614)"/>
<circle cx="470.695" cy="177.881" r="9" fill="#004119" stroke="white" stroke-width="2"/>
<path d="M164.949 159.209C164.949 154.791 168.531 151.209 172.949 151.209H442.949C447.367 151.209 450.949 154.791 450.949 159.209V191.209C450.949 195.627 447.367 199.209 442.949 199.209H172.949C168.531 199.209 164.949 195.627 164.949 191.209V159.209Z" fill="white"/>
<path d="M177.893 181.209V180.169V179.633C177.893 179.041 178.003 178.532 178.221 178.105C178.44 177.673 178.731 177.297 179.093 176.977C179.456 176.657 179.853 176.374 180.285 176.129C180.723 175.878 181.155 175.644 181.581 175.425C182.013 175.201 182.411 174.972 182.773 174.737C183.136 174.497 183.427 174.23 183.645 173.937C183.869 173.644 183.981 173.294 183.981 172.889C183.981 172.372 183.797 171.95 183.429 171.625C183.067 171.294 182.573 171.129 181.949 171.129C181.288 171.129 180.741 171.318 180.309 171.697C179.883 172.076 179.629 172.609 179.549 173.297H177.661C177.672 172.593 177.84 171.953 178.165 171.377C178.491 170.801 178.973 170.342 179.613 170.001C180.253 169.654 181.051 169.481 182.005 169.481C182.832 169.481 183.544 169.625 184.141 169.913C184.744 170.196 185.208 170.593 185.533 171.105C185.864 171.612 186.029 172.204 186.029 172.881C186.029 173.473 185.92 173.98 185.701 174.401C185.488 174.822 185.203 175.188 184.845 175.497C184.493 175.801 184.104 176.07 183.677 176.305C183.256 176.54 182.832 176.761 182.405 176.969C181.984 177.172 181.595 177.385 181.237 177.609C180.885 177.828 180.6 178.078 180.381 178.361C180.168 178.644 180.061 178.982 180.061 179.377V179.545H186.053V181.209H177.893ZM192.912 181.209L192.92 178.465H187.536V176.809L192.864 169.641H194.8V176.809H196.648V178.465H194.8V181.209H192.912ZM189.36 176.809H192.904V172.057L189.36 176.809ZM202.121 181.385C201.252 181.38 200.502 181.23 199.873 180.937C199.244 180.644 198.753 180.225 198.401 179.681C198.054 179.137 197.873 178.492 197.857 177.745H199.753C199.865 178.433 200.137 178.945 200.569 179.281C201.006 179.612 201.537 179.777 202.161 179.777C202.678 179.777 203.126 179.7 203.505 179.545C203.884 179.385 204.174 179.166 204.377 178.889C204.585 178.612 204.689 178.289 204.689 177.921C204.689 177.532 204.577 177.198 204.353 176.921C204.134 176.644 203.833 176.43 203.449 176.281C203.065 176.132 202.633 176.052 202.153 176.041L201.081 176.009V174.425L202.073 174.385C202.532 174.369 202.934 174.281 203.281 174.121C203.633 173.961 203.908 173.75 204.105 173.489C204.302 173.228 204.401 172.934 204.401 172.609C204.401 172.31 204.308 172.041 204.121 171.801C203.94 171.561 203.681 171.374 203.345 171.241C203.009 171.102 202.612 171.033 202.153 171.033C201.764 171.033 201.398 171.102 201.057 171.241C200.716 171.38 200.433 171.604 200.209 171.913C199.99 172.217 199.87 172.617 199.849 173.113H197.961C197.961 172.324 198.15 171.66 198.529 171.121C198.908 170.577 199.414 170.169 200.049 169.897C200.689 169.62 201.398 169.481 202.177 169.481C203.014 169.481 203.756 169.596 204.401 169.825C205.052 170.049 205.561 170.388 205.929 170.841C206.302 171.294 206.489 171.857 206.489 172.529C206.489 173.1 206.316 173.609 205.969 174.057C205.622 174.505 205.076 174.857 204.329 175.113C204.793 175.241 205.209 175.433 205.577 175.689C205.945 175.94 206.236 176.254 206.449 176.633C206.668 177.012 206.777 177.457 206.777 177.969C206.777 178.518 206.657 179.006 206.417 179.433C206.182 179.86 205.852 180.22 205.425 180.513C205.004 180.801 204.51 181.02 203.945 181.169C203.38 181.313 202.772 181.385 202.121 181.385ZM208.456 181.209V180.169V179.633C208.456 179.041 208.565 178.532 208.784 178.105C209.002 177.673 209.293 177.297 209.656 176.977C210.018 176.657 210.416 176.374 210.848 176.129C211.285 175.878 211.717 175.644 212.144 175.425C212.576 175.201 212.973 174.972 213.336 174.737C213.698 174.497 213.989 174.23 214.208 173.937C214.432 173.644 214.544 173.294 214.544 172.889C214.544 172.372 214.36 171.95 213.992 171.625C213.629 171.294 213.136 171.129 212.512 171.129C211.85 171.129 211.304 171.318 210.872 171.697C210.445 172.076 210.192 172.609 210.112 173.297H208.224C208.234 172.593 208.402 171.953 208.728 171.377C209.053 170.801 209.536 170.342 210.176 170.001C210.816 169.654 211.613 169.481 212.568 169.481C213.394 169.481 214.106 169.625 214.704 169.913C215.306 170.196 215.77 170.593 216.096 171.105C216.426 171.612 216.592 172.204 216.592 172.881C216.592 173.473 216.482 173.98 216.264 174.401C216.05 174.822 215.765 175.188 215.408 175.497C215.056 175.801 214.666 176.07 214.24 176.305C213.818 176.54 213.394 176.761 212.968 176.969C212.546 177.172 212.157 177.385 211.8 177.609C211.448 177.828 211.162 178.078 210.944 178.361C210.73 178.644 210.624 178.982 210.624 179.377V179.545H216.616V181.209H208.456ZM222.521 181.209V169.641H225.305L228.337 178.481L231.401 169.641H234.169V181.209H232.193V172.137L229.145 181.209H227.521L224.497 172.193V181.209H222.521ZM239.51 181.209V171.393H235.91V169.641H244.934V171.393H241.462V181.209H239.51Z" fill="#16A34A"/>
<path d="M250.696 181.209V169.641H257.904L257.896 170.937H252.216V174.761H257.32V176.041H252.216V181.209H250.696ZM259.932 181.209V172.937H261.364V181.209H259.932ZM259.892 171.185V169.649H261.404V171.185H259.892ZM263.939 181.209V172.937H265.371V174.137C265.504 173.908 265.688 173.692 265.923 173.489C266.163 173.286 266.451 173.124 266.787 173.001C267.128 172.878 267.52 172.817 267.963 172.817C268.486 172.817 268.966 172.921 269.403 173.129C269.846 173.337 270.198 173.662 270.459 174.105C270.726 174.542 270.859 175.108 270.859 175.801V181.209H269.379V175.945C269.379 175.3 269.208 174.822 268.867 174.513C268.531 174.198 268.094 174.041 267.555 174.041C267.182 174.041 266.832 174.102 266.507 174.225C266.182 174.342 265.918 174.524 265.715 174.769C265.512 175.009 265.411 175.313 265.411 175.681V181.209H263.939ZM273.213 181.209V172.937H274.645V181.209H273.213ZM273.173 171.185V169.649H274.685V171.185H273.173ZM280.102 181.369C279.526 181.369 278.99 181.281 278.494 181.105C278.004 180.924 277.596 180.644 277.27 180.265C276.945 179.881 276.742 179.393 276.662 178.801H278.006C278.076 179.126 278.209 179.398 278.406 179.617C278.604 179.83 278.846 179.993 279.134 180.105C279.428 180.212 279.748 180.265 280.094 180.265C280.654 180.265 281.105 180.161 281.446 179.953C281.788 179.745 281.958 179.425 281.958 178.993C281.958 178.689 281.868 178.446 281.686 178.265C281.51 178.078 281.233 177.942 280.854 177.857L279.142 177.433C278.476 177.273 277.942 177.022 277.542 176.681C277.148 176.34 276.948 175.862 276.942 175.249C276.942 174.764 277.06 174.337 277.294 173.969C277.529 173.601 277.878 173.31 278.342 173.097C278.812 172.884 279.396 172.777 280.094 172.777C280.996 172.777 281.721 172.98 282.27 173.385C282.82 173.785 283.108 174.374 283.134 175.153H281.822C281.769 174.758 281.593 174.446 281.294 174.217C280.996 173.982 280.59 173.865 280.078 173.865C279.556 173.865 279.126 173.972 278.79 174.185C278.46 174.393 278.294 174.718 278.294 175.161C278.294 175.454 278.412 175.686 278.646 175.857C278.886 176.022 279.233 176.161 279.686 176.273L281.35 176.689C281.729 176.79 282.044 176.924 282.294 177.089C282.545 177.254 282.742 177.438 282.886 177.641C283.03 177.844 283.132 178.057 283.19 178.281C283.254 178.5 283.286 178.71 283.286 178.913C283.286 179.42 283.161 179.857 282.91 180.225C282.66 180.588 282.297 180.87 281.822 181.073C281.348 181.27 280.774 181.369 280.102 181.369ZM285.22 181.209V169.321H286.66V174.153C286.799 173.924 286.985 173.71 287.22 173.513C287.455 173.31 287.74 173.148 288.076 173.025C288.412 172.897 288.801 172.833 289.244 172.833C289.783 172.833 290.271 172.934 290.708 173.137C291.145 173.334 291.492 173.617 291.748 173.985C292.004 174.353 292.132 174.79 292.132 175.297V181.209H290.652V175.593C290.652 175.097 290.481 174.716 290.14 174.449C289.804 174.177 289.364 174.041 288.82 174.041C288.452 174.041 288.105 174.102 287.78 174.225C287.455 174.342 287.191 174.524 286.988 174.769C286.791 175.009 286.692 175.316 286.692 175.689V181.209H285.22ZM297.935 181.369C297.167 181.369 296.49 181.201 295.903 180.865C295.316 180.529 294.858 180.046 294.527 179.417C294.196 178.788 294.031 178.033 294.031 177.153C294.031 176.284 294.18 175.521 294.479 174.865C294.778 174.209 295.21 173.697 295.775 173.329C296.346 172.961 297.031 172.777 297.831 172.777C298.61 172.777 299.268 172.945 299.807 173.281C300.346 173.617 300.754 174.092 301.031 174.705C301.314 175.313 301.455 176.036 301.455 176.873V177.417H295.527C295.527 177.94 295.612 178.414 295.783 178.841C295.959 179.262 296.223 179.598 296.575 179.849C296.927 180.1 297.372 180.225 297.911 180.225C298.439 180.225 298.892 180.102 299.271 179.857C299.655 179.612 299.9 179.257 300.007 178.793H301.399C301.303 179.353 301.079 179.825 300.727 180.209C300.38 180.593 299.962 180.884 299.471 181.081C298.986 181.273 298.474 181.369 297.935 181.369ZM295.535 176.417H300.031C300.031 175.942 299.951 175.516 299.791 175.137C299.631 174.753 299.386 174.452 299.055 174.233C298.73 174.009 298.319 173.897 297.823 173.897C297.306 173.897 296.876 174.022 296.535 174.273C296.194 174.518 295.94 174.836 295.775 175.225C295.61 175.609 295.53 176.006 295.535 176.417ZM306.517 181.369C305.44 181.369 304.587 181.001 303.957 180.265C303.333 179.529 303.021 178.454 303.021 177.041C303.021 176.182 303.147 175.433 303.397 174.793C303.648 174.153 304.024 173.657 304.525 173.305C305.027 172.953 305.651 172.777 306.397 172.777C306.797 172.777 307.149 172.828 307.453 172.929C307.757 173.03 308.021 173.158 308.245 173.313C308.469 173.468 308.651 173.628 308.789 173.793C308.933 173.958 309.04 174.11 309.109 174.249V169.321H310.605V181.209H309.469L309.309 179.513C309.256 179.673 309.171 179.86 309.053 180.073C308.936 180.281 308.771 180.486 308.557 180.689C308.349 180.886 308.077 181.049 307.741 181.177C307.405 181.305 306.997 181.369 306.517 181.369ZM306.781 180.233C307.613 180.233 308.208 179.98 308.565 179.473C308.928 178.961 309.109 178.126 309.109 176.969C309.104 176.324 309.024 175.774 308.869 175.321C308.715 174.868 308.469 174.524 308.133 174.289C307.803 174.049 307.36 173.929 306.805 173.929C306.128 173.929 305.576 174.172 305.149 174.657C304.723 175.142 304.509 175.913 304.509 176.969C304.509 178.004 304.701 178.806 305.085 179.377C305.469 179.948 306.035 180.233 306.781 180.233ZM321.491 181.369C320.478 181.369 319.603 181.137 318.867 180.673C318.131 180.204 317.566 179.529 317.171 178.649C316.776 177.769 316.579 176.705 316.579 175.457C316.579 174.198 316.779 173.124 317.179 172.233C317.584 171.342 318.16 170.662 318.907 170.193C319.654 169.718 320.536 169.481 321.555 169.481C322.136 169.481 322.683 169.582 323.195 169.785C323.707 169.988 324.16 170.265 324.555 170.617C324.95 170.964 325.264 171.361 325.499 171.809C325.739 172.257 325.875 172.724 325.907 173.209H324.323C324.248 172.782 324.083 172.385 323.827 172.017C323.571 171.649 323.246 171.353 322.851 171.129C322.462 170.905 322.022 170.793 321.531 170.793C320.864 170.793 320.278 170.958 319.771 171.289C319.27 171.614 318.878 172.118 318.595 172.801C318.318 173.484 318.179 174.358 318.179 175.425C318.179 176.246 318.264 176.95 318.435 177.537C318.606 178.124 318.843 178.601 319.147 178.969C319.456 179.332 319.816 179.601 320.227 179.777C320.643 179.948 321.091 180.033 321.571 180.033C322.056 180.033 322.478 179.948 322.835 179.777C323.198 179.606 323.499 179.388 323.739 179.121C323.979 178.849 324.163 178.558 324.291 178.249C324.424 177.934 324.496 177.633 324.507 177.345L324.555 176.321H321.739V175.233L326.091 175.241V181.209H324.979V179.449C324.776 179.78 324.52 180.092 324.211 180.385C323.902 180.678 323.523 180.916 323.075 181.097C322.632 181.278 322.104 181.369 321.491 181.369ZM331.985 181.369C331.223 181.369 330.556 181.206 329.985 180.881C329.42 180.55 328.98 180.068 328.665 179.433C328.351 178.798 328.193 178.022 328.193 177.105C328.193 176.241 328.34 175.484 328.633 174.833C328.927 174.182 329.356 173.678 329.921 173.321C330.487 172.958 331.177 172.777 331.993 172.777C332.756 172.777 333.417 172.945 333.977 173.281C334.537 173.612 334.972 174.1 335.281 174.745C335.596 175.39 335.753 176.177 335.753 177.105C335.753 177.948 335.609 178.689 335.321 179.329C335.033 179.969 334.609 180.47 334.049 180.833C333.495 181.19 332.807 181.369 331.985 181.369ZM331.993 180.201C332.484 180.201 332.9 180.076 333.241 179.825C333.583 179.574 333.841 179.214 334.017 178.745C334.199 178.276 334.289 177.718 334.289 177.073C334.289 176.481 334.209 175.95 334.049 175.481C333.895 175.006 333.649 174.63 333.313 174.353C332.977 174.076 332.537 173.937 331.993 173.937C331.492 173.937 331.068 174.062 330.721 174.313C330.375 174.558 330.111 174.916 329.929 175.385C329.753 175.854 329.665 176.417 329.665 177.073C329.665 177.654 329.743 178.182 329.897 178.657C330.057 179.132 330.308 179.508 330.649 179.785C330.996 180.062 331.444 180.201 331.993 180.201ZM341.032 181.369C340.269 181.369 339.603 181.206 339.032 180.881C338.467 180.55 338.027 180.068 337.712 179.433C337.397 178.798 337.24 178.022 337.24 177.105C337.24 176.241 337.387 175.484 337.68 174.833C337.973 174.182 338.403 173.678 338.968 173.321C339.533 172.958 340.224 172.777 341.04 172.777C341.803 172.777 342.464 172.945 343.024 173.281C343.584 173.612 344.019 174.1 344.328 174.745C344.643 175.39 344.8 176.177 344.8 177.105C344.8 177.948 344.656 178.689 344.368 179.329C344.08 179.969 343.656 180.47 343.096 180.833C342.541 181.19 341.853 181.369 341.032 181.369ZM341.04 180.201C341.531 180.201 341.947 180.076 342.288 179.825C342.629 179.574 342.888 179.214 343.064 178.745C343.245 178.276 343.336 177.718 343.336 177.073C343.336 176.481 343.256 175.95 343.096 175.481C342.941 175.006 342.696 174.63 342.36 174.353C342.024 174.076 341.584 173.937 341.04 173.937C340.539 173.937 340.115 174.062 339.768 174.313C339.421 174.558 339.157 174.916 338.976 175.385C338.8 175.854 338.712 176.417 338.712 177.073C338.712 177.654 338.789 178.182 338.944 178.657C339.104 179.132 339.355 179.508 339.696 179.785C340.043 180.062 340.491 180.201 341.04 180.201ZM349.783 181.369C348.706 181.369 347.852 181.001 347.223 180.265C346.599 179.529 346.287 178.454 346.287 177.041C346.287 176.182 346.412 175.433 346.663 174.793C346.914 174.153 347.29 173.657 347.791 173.305C348.292 172.953 348.916 172.777 349.663 172.777C350.063 172.777 350.415 172.828 350.719 172.929C351.023 173.03 351.287 173.158 351.511 173.313C351.735 173.468 351.916 173.628 352.055 173.793C352.199 173.958 352.306 174.11 352.375 174.249V169.321H353.871V181.209H352.735L352.575 179.513C352.522 179.673 352.436 179.86 352.319 180.073C352.202 180.281 352.036 180.486 351.823 180.689C351.615 180.886 351.343 181.049 351.007 181.177C350.671 181.305 350.263 181.369 349.783 181.369ZM350.047 180.233C350.879 180.233 351.474 179.98 351.831 179.473C352.194 178.961 352.375 178.126 352.375 176.969C352.37 176.324 352.29 175.774 352.135 175.321C351.98 174.868 351.735 174.524 351.399 174.289C351.068 174.049 350.626 173.929 350.071 173.929C349.394 173.929 348.842 174.172 348.415 174.657C347.988 175.142 347.775 175.913 347.775 176.969C347.775 178.004 347.967 178.806 348.351 179.377C348.735 179.948 349.3 180.233 350.047 180.233ZM359.29 181.369C358.714 181.369 358.178 181.281 357.682 181.105C357.191 180.924 356.783 180.644 356.458 180.265C356.133 179.881 355.93 179.393 355.85 178.801H357.194C357.263 179.126 357.397 179.398 357.594 179.617C357.791 179.83 358.034 179.993 358.322 180.105C358.615 180.212 358.935 180.265 359.282 180.265C359.842 180.265 360.293 180.161 360.634 179.953C360.975 179.745 361.146 179.425 361.146 178.993C361.146 178.689 361.055 178.446 360.874 178.265C360.698 178.078 360.421 177.942 360.042 177.857L358.33 177.433C357.663 177.273 357.13 177.022 356.73 176.681C356.335 176.34 356.135 175.862 356.13 175.249C356.13 174.764 356.247 174.337 356.482 173.969C356.717 173.601 357.066 173.31 357.53 173.097C357.999 172.884 358.583 172.777 359.282 172.777C360.183 172.777 360.909 172.98 361.458 173.385C362.007 173.785 362.295 174.374 362.322 175.153H361.01C360.957 174.758 360.781 174.446 360.482 174.217C360.183 173.982 359.778 173.865 359.266 173.865C358.743 173.865 358.314 173.972 357.978 174.185C357.647 174.393 357.482 174.718 357.482 175.161C357.482 175.454 357.599 175.686 357.834 175.857C358.074 176.022 358.421 176.161 358.874 176.273L360.538 176.689C360.917 176.79 361.231 176.924 361.482 177.089C361.733 177.254 361.93 177.438 362.074 177.641C362.218 177.844 362.319 178.057 362.378 178.281C362.442 178.5 362.474 178.71 362.474 178.913C362.474 179.42 362.349 179.857 362.098 180.225C361.847 180.588 361.485 180.87 361.01 181.073C360.535 181.27 359.962 181.369 359.29 181.369ZM368.54 181.209V169.641H372.452C373.278 169.641 374.014 169.78 374.66 170.057C375.305 170.334 375.812 170.745 376.18 171.289C376.553 171.833 376.74 172.502 376.74 173.297C376.74 174.065 376.566 174.721 376.22 175.265C375.878 175.809 375.401 176.222 374.788 176.505C374.174 176.788 373.462 176.929 372.652 176.929H370.06V181.209H368.54ZM370.052 175.681H372.62C373.414 175.681 374.06 175.46 374.556 175.017C375.052 174.574 375.3 173.972 375.3 173.209C375.3 172.441 375.044 171.86 374.532 171.465C374.02 171.07 373.358 170.873 372.548 170.873H370.052V175.681ZM378.423 181.209V172.937H379.831V174.529C379.97 174.134 380.165 173.809 380.415 173.553C380.666 173.292 380.951 173.097 381.271 172.969C381.597 172.841 381.933 172.777 382.279 172.777C382.402 172.777 382.522 172.785 382.639 172.801C382.757 172.817 382.847 172.844 382.911 172.881V174.313C382.831 174.276 382.727 174.252 382.599 174.241C382.477 174.225 382.373 174.217 382.287 174.217C381.957 174.196 381.647 174.217 381.359 174.281C381.071 174.34 380.818 174.444 380.599 174.593C380.381 174.742 380.207 174.94 380.079 175.185C379.957 175.425 379.895 175.718 379.895 176.065V181.209H378.423ZM387.86 181.369C387.098 181.369 386.431 181.206 385.86 180.881C385.295 180.55 384.855 180.068 384.54 179.433C384.226 178.798 384.068 178.022 384.068 177.105C384.068 176.241 384.215 175.484 384.508 174.833C384.802 174.182 385.231 173.678 385.796 173.321C386.362 172.958 387.052 172.777 387.868 172.777C388.631 172.777 389.292 172.945 389.852 173.281C390.412 173.612 390.847 174.1 391.156 174.745C391.471 175.39 391.628 176.177 391.628 177.105C391.628 177.948 391.484 178.689 391.196 179.329C390.908 179.969 390.484 180.47 389.924 180.833C389.37 181.19 388.682 181.369 387.86 181.369ZM387.868 180.201C388.359 180.201 388.775 180.076 389.116 179.825C389.458 179.574 389.716 179.214 389.892 178.745C390.074 178.276 390.164 177.718 390.164 177.073C390.164 176.481 390.084 175.95 389.924 175.481C389.77 175.006 389.524 174.63 389.188 174.353C388.852 174.076 388.412 173.937 387.868 173.937C387.367 173.937 386.943 174.062 386.596 174.313C386.25 174.558 385.986 174.916 385.804 175.385C385.628 175.854 385.54 176.417 385.54 177.073C385.54 177.654 385.618 178.182 385.772 178.657C385.932 179.132 386.183 179.508 386.524 179.785C386.871 180.062 387.319 180.201 387.868 180.201ZM396.611 181.369C395.534 181.369 394.68 181.001 394.051 180.265C393.427 179.529 393.115 178.454 393.115 177.041C393.115 176.182 393.24 175.433 393.491 174.793C393.742 174.153 394.118 173.657 394.619 173.305C395.12 172.953 395.744 172.777 396.491 172.777C396.891 172.777 397.243 172.828 397.547 172.929C397.851 173.03 398.115 173.158 398.339 173.313C398.563 173.468 398.744 173.628 398.883 173.793C399.027 173.958 399.134 174.11 399.203 174.249V169.321H400.699V181.209H399.563L399.403 179.513C399.35 179.673 399.264 179.86 399.147 180.073C399.03 180.281 398.864 180.486 398.651 180.689C398.443 180.886 398.171 181.049 397.835 181.177C397.499 181.305 397.091 181.369 396.611 181.369ZM396.875 180.233C397.707 180.233 398.302 179.98 398.659 179.473C399.022 178.961 399.203 178.126 399.203 176.969C399.198 176.324 399.118 175.774 398.963 175.321C398.808 174.868 398.563 174.524 398.227 174.289C397.896 174.049 397.454 173.929 396.899 173.929C396.222 173.929 395.67 174.172 395.243 174.657C394.816 175.142 394.603 175.913 394.603 176.969C394.603 178.004 394.795 178.806 395.179 179.377C395.563 179.948 396.128 180.233 396.875 180.233ZM406.182 181.369C405.75 181.364 405.342 181.302 404.958 181.185C404.579 181.062 404.243 180.884 403.95 180.649C403.657 180.414 403.425 180.124 403.254 179.777C403.089 179.425 403.006 179.017 403.006 178.553V172.937H404.486V178.401C404.486 178.94 404.651 179.377 404.982 179.713C405.318 180.049 405.822 180.217 406.494 180.217C407.102 180.217 407.59 180.06 407.958 179.745C408.331 179.425 408.518 178.95 408.518 178.321V172.937H409.99V181.209H408.814L408.662 179.625C408.561 180.041 408.387 180.377 408.142 180.633C407.902 180.889 407.611 181.078 407.27 181.201C406.934 181.318 406.571 181.374 406.182 181.369ZM415.751 181.369C415.005 181.369 414.343 181.206 413.767 180.881C413.197 180.556 412.749 180.076 412.423 179.441C412.103 178.806 411.943 178.028 411.943 177.105C411.943 176.241 412.09 175.486 412.383 174.841C412.682 174.19 413.114 173.684 413.679 173.321C414.25 172.958 414.941 172.777 415.751 172.777C416.343 172.777 416.874 172.892 417.343 173.121C417.818 173.345 418.207 173.665 418.511 174.081C418.815 174.497 419.002 174.988 419.071 175.553H417.759C417.711 175.265 417.599 175.001 417.423 174.761C417.253 174.521 417.026 174.329 416.743 174.185C416.466 174.041 416.138 173.969 415.759 173.969C415.05 173.969 414.471 174.225 414.023 174.737C413.581 175.249 413.359 176.033 413.359 177.089C413.359 178.044 413.562 178.809 413.967 179.385C414.378 179.956 414.981 180.241 415.775 180.241C416.154 180.241 416.485 180.169 416.767 180.025C417.05 179.876 417.277 179.681 417.447 179.441C417.618 179.196 417.727 178.934 417.775 178.657H419.063C418.994 179.212 418.805 179.692 418.495 180.097C418.191 180.502 417.802 180.817 417.327 181.041C416.858 181.26 416.333 181.369 415.751 181.369ZM424.575 181.369C423.807 181.369 423.13 181.201 422.543 180.865C421.957 180.529 421.498 180.046 421.167 179.417C420.837 178.788 420.671 178.033 420.671 177.153C420.671 176.284 420.821 175.521 421.119 174.865C421.418 174.209 421.85 173.697 422.415 173.329C422.986 172.961 423.671 172.777 424.471 172.777C425.25 172.777 425.909 172.945 426.447 173.281C426.986 173.617 427.394 174.092 427.671 174.705C427.954 175.313 428.095 176.036 428.095 176.873V177.417H422.167C422.167 177.94 422.253 178.414 422.423 178.841C422.599 179.262 422.863 179.598 423.215 179.849C423.567 180.1 424.013 180.225 424.551 180.225C425.079 180.225 425.533 180.102 425.911 179.857C426.295 179.612 426.541 179.257 426.647 178.793H428.039C427.943 179.353 427.719 179.825 427.367 180.209C427.021 180.593 426.602 180.884 426.111 181.081C425.626 181.273 425.114 181.369 424.575 181.369ZM422.175 176.417H426.671C426.671 175.942 426.591 175.516 426.431 175.137C426.271 174.753 426.026 174.452 425.695 174.233C425.37 174.009 424.959 173.897 424.463 173.897C423.946 173.897 423.517 174.022 423.175 174.273C422.834 174.518 422.581 174.836 422.415 175.225C422.25 175.609 422.17 176.006 422.175 176.417ZM433.158 181.369C432.081 181.369 431.227 181.001 430.598 180.265C429.974 179.529 429.662 178.454 429.662 177.041C429.662 176.182 429.787 175.433 430.038 174.793C430.289 174.153 430.665 173.657 431.166 173.305C431.667 172.953 432.291 172.777 433.038 172.777C433.438 172.777 433.79 172.828 434.094 172.929C434.398 173.03 434.662 173.158 434.886 173.313C435.11 173.468 435.291 173.628 435.43 173.793C435.574 173.958 435.681 174.11 435.75 174.249V169.321H437.246V181.209H436.11L435.95 179.513C435.897 179.673 435.811 179.86 435.694 180.073C435.577 180.281 435.411 180.486 435.198 180.689C434.99 180.886 434.718 181.049 434.382 181.177C434.046 181.305 433.638 181.369 433.158 181.369ZM433.422 180.233C434.254 180.233 434.849 179.98 435.206 179.473C435.569 178.961 435.75 178.126 435.75 176.969C435.745 176.324 435.665 175.774 435.51 175.321C435.355 174.868 435.11 174.524 434.774 174.289C434.443 174.049 434.001 173.929 433.446 173.929C432.769 173.929 432.217 174.172 431.79 174.657C431.363 175.142 431.15 175.913 431.15 176.969C431.15 178.004 431.342 178.806 431.726 179.377C432.11 179.948 432.675 180.233 433.422 180.233Z" fill="#171717"/>
</g>
<defs>
<filter id="filter0_f_1099_2614" x="-5.90884" y="-38.1618" width="213.564" height="213.562" filterUnits="userSpaceOnUse" color-interpolation-filters="sRGB">
<feFlood flood-opacity="0" result="BackgroundImageFix"/>
<feBlend mode="normal" in="SourceGraphic" in2="BackgroundImageFix" result="shape"/>
<feGaussianBlur stdDeviation="33.8919" result="effect1_foregroundBlur_1099_2614"/>
</filter>
<linearGradient id="paint0_linear_1099_2614" x1="11.4041" y1="-84.0296" x2="674.023" y2="429.872" gradientUnits="userSpaceOnUse">
<stop stop-color="#181818"/>
<stop offset="1" stop-color="#0D0B11"/>
</linearGradient>
<linearGradient id="paint1_linear_1099_2614" x1="103.335" y1="107.617" x2="128.961" y2="41.4554" gradientUnits="userSpaceOnUse">
<stop stop-color="#39D373"/>
<stop offset="1" stop-color="#005F24"/>
</linearGradient>
<linearGradient id="paint2_linear_1099_2614" x1="649.507" y1="78.8562" x2="134.616" y2="87.7616" gradientUnits="userSpaceOnUse">
<stop stop-color="#3B3B3B"/>
<stop offset="1" stop-color="#A1A1A1"/>
</linearGradient>
<linearGradient id="paint3_linear_1099_2614" x1="393.628" y1="370.184" x2="393.628" y2="280.897" gradientUnits="userSpaceOnUse">
<stop stop-color="#171717"/>
<stop offset="1" stop-color="#131216" stop-opacity="0"/>
</linearGradient>
<linearGradient id="paint4_linear_1099_2614" x1="362.561" y1="187.18" x2="172.64" y2="23.9414" gradientUnits="userSpaceOnUse">
<stop stop-color="#3B3B3B"/>
<stop offset="1" stop-color="#A1A1A1"/>
</linearGradient>
<linearGradient id="paint5_linear_1099_2614" x1="102.757" y1="98.4999" x2="122.39" y2="47.8107" gradientUnits="userSpaceOnUse">
<stop stop-color="#39D373"/>
<stop offset="1" stop-color="#005F24"/>
</linearGradient>
<linearGradient id="paint6_linear_1099_2614" x1="397.41" y1="237.668" x2="397.41" y2="401.148" gradientUnits="userSpaceOnUse">
<stop stop-color="#003313"/>
<stop offset="1" stop-color="#151517" stop-opacity="0"/>
</linearGradient>
<clipPath id="clip0_1099_2614">
<rect width="595" height="385" rx="12" fill="white"/>
</clipPath>
</defs>
</svg>
