<svg width="317" height="246" viewBox="0 0 317 246" fill="none" xmlns="http://www.w3.org/2000/svg">
<g opacity="0.6">
<mask id="path-1-outside-1_632_2021" maskUnits="userSpaceOnUse" x="-0.160156" y="-0.827881" width="383" height="256" fill="black">
<rect fill="white" x="-0.160156" y="-0.827881" width="383" height="256"/>
<path d="M82.8661 253.915C69.255 253.915 56.5514 251.363 44.7552 246.259C33.0724 241.041 23.2611 233.669 15.3213 224.141C7.49499 214.613 2.67442 203.214 0.859613 189.943H31.4844C34.3201 201.172 40.2182 210.303 49.1788 217.336C58.1394 224.254 69.0282 227.714 81.8453 227.714C96.3637 227.714 108.784 223.914 119.105 216.315C129.541 208.715 137.31 196.976 142.414 181.096C147.518 165.217 149.447 144.857 148.199 120.017C145.363 128.637 140.883 136.236 134.758 142.815C128.633 149.28 121.261 154.384 112.64 158.128C104.02 161.871 94.4922 163.742 84.057 163.742C67.8372 163.742 53.5457 160.566 41.1823 154.214C28.8189 147.863 19.1778 138.789 12.2589 126.992C5.45334 115.196 2.05058 101.075 2.05058 84.6279C2.05058 68.1813 5.45334 53.6628 12.2589 41.0726C19.0644 28.4824 28.8189 18.6144 41.5226 11.4686C54.2262 4.32285 69.3118 0.749953 86.7793 0.749953C105.835 0.749953 122.338 5.68395 136.289 15.552C150.241 25.3065 161.016 39.3713 168.616 57.7462C176.215 76.0076 180.015 97.9554 180.015 123.59C180.015 151.152 176.215 174.631 168.616 194.027C161.13 213.422 150.127 228.281 135.609 238.603C121.204 248.811 103.623 253.915 82.8661 253.915ZM87.4598 137.03C96.5338 137.03 105.154 134.932 113.321 130.735C121.487 126.539 128.123 120.981 133.227 114.062C138.444 107.029 141.053 99.3732 141.053 91.0932C141.167 78.3895 139.012 67.2172 134.588 57.576C130.164 47.8214 123.869 40.222 115.703 34.7775C107.536 29.2197 98.0084 26.4408 87.1195 26.4408C77.1381 26.4408 68.2909 28.8227 60.578 33.5866C52.9785 38.3504 46.967 44.9858 42.5434 53.4927C38.2332 61.9996 36.0782 71.8676 36.0782 83.0967C36.0782 99.5434 40.445 112.644 49.1788 122.399C57.9125 132.153 70.6729 137.03 87.4598 137.03ZM287.428 253.915C268.599 253.915 252.152 251.023 238.088 245.238C224.023 239.34 213.077 231.117 205.251 220.568C197.538 210.02 193.682 197.656 193.682 183.478C193.682 173.95 196.064 164.82 200.827 156.086C205.705 147.352 211.943 139.923 219.543 133.798C227.142 127.673 235.082 123.816 243.362 122.228C232.133 117.465 222.832 110.546 215.459 101.472C208.2 92.3976 204.57 81.1685 204.57 67.7843C204.57 53.4927 208.2 41.3562 215.459 31.3748C222.719 21.3934 232.587 13.7939 245.063 8.5763C257.654 3.35873 271.775 0.749953 287.428 0.749953C303.194 0.749953 317.315 3.35873 329.792 8.5763C342.269 13.7939 352.137 21.3934 359.396 31.3748C366.655 41.3562 370.285 53.4927 370.285 67.7843C370.285 81.1685 366.655 92.3976 359.396 101.472C352.25 110.546 343.006 117.465 331.664 122.228C339.944 123.816 347.827 127.673 355.313 133.798C362.912 139.923 369.151 147.352 374.028 156.086C378.905 164.82 381.344 173.95 381.344 183.478C381.344 197.656 377.431 210.02 369.604 220.568C361.891 231.117 351.003 239.34 336.938 245.238C322.873 251.023 306.37 253.915 287.428 253.915ZM287.428 228.394C305.689 228.394 320.264 224.311 331.153 216.145C342.042 207.864 347.486 196.919 347.486 183.308C347.486 174.347 344.991 166.351 340 159.318C335.123 152.286 328.204 146.785 319.243 142.815C310.283 138.732 299.678 136.69 287.428 136.69C275.291 136.69 264.743 138.732 255.782 142.815C246.935 146.785 240.016 152.286 235.025 159.318C230.148 166.351 227.709 174.347 227.709 183.308C227.709 196.919 233.097 207.864 243.872 216.145C254.761 224.311 269.28 228.394 287.428 228.394ZM287.428 108.958C302.4 108.958 314.536 105.271 323.837 97.8987C333.251 90.5261 337.959 80.2611 337.959 67.1037C337.959 53.833 333.251 43.3979 323.837 35.7984C314.423 28.0854 302.286 24.229 287.428 24.229C272.569 24.229 260.432 28.0854 251.018 35.7984C241.604 43.5113 236.897 53.9464 236.897 67.1037C236.897 80.2611 241.604 90.5261 251.018 97.8987C260.432 105.271 272.569 108.958 287.428 108.958Z"/>
</mask>
<path d="M44.7552 246.259L44.4493 246.944L44.4574 246.947L44.7552 246.259ZM15.3213 224.141L14.7418 224.617L14.7452 224.621L15.3213 224.141ZM0.859613 189.943V189.193H6.86646e-05L0.116529 190.045L0.859613 189.943ZM31.4844 189.943L32.2116 189.76L32.0686 189.193H31.4844V189.943ZM49.1788 217.336L48.7157 217.926L48.7204 217.929L49.1788 217.336ZM119.105 216.315L118.664 215.708L118.661 215.711L119.105 216.315ZM142.414 181.096L141.7 180.867L142.414 181.096ZM148.199 120.017L148.948 119.979L147.487 119.782L148.199 120.017ZM134.758 142.815L135.303 143.331L135.307 143.326L134.758 142.815ZM112.64 158.128L112.939 158.815L112.64 158.128ZM41.1823 154.214L41.525 153.547L41.1823 154.214ZM12.2589 126.992L11.6092 127.367L11.6119 127.372L12.2589 126.992ZM12.2589 41.0726L11.5991 40.716L12.2589 41.0726ZM41.5226 11.4686L41.1549 10.815L41.5226 11.4686ZM136.289 15.5519L135.856 16.1643L135.86 16.1666L136.289 15.5519ZM168.616 57.7462L167.923 58.0328L167.923 58.0343L168.616 57.7462ZM168.616 194.027L167.917 193.753L167.916 193.757L168.616 194.027ZM135.609 238.603L136.042 239.215L136.043 239.214L135.609 238.603ZM113.321 130.735L113.664 131.402L113.321 130.735ZM133.227 114.062L132.625 113.615L132.623 113.617L133.227 114.062ZM141.053 91.0932L140.303 91.0865V91.0932H141.053ZM134.588 57.576L133.905 57.8858L133.906 57.8888L134.588 57.576ZM115.703 34.7775L115.281 35.3976L115.287 35.4016L115.703 34.7775ZM60.578 33.5866L60.1839 32.9485L60.1797 32.9511L60.578 33.5866ZM42.5434 53.4927L41.8779 53.1467L41.8744 53.1537L42.5434 53.4927ZM49.1788 122.399L49.7375 121.898L49.1788 122.399ZM82.8661 253.915V253.165C69.3514 253.165 56.7498 250.632 45.053 245.571L44.7552 246.259L44.4574 246.947C56.3531 252.094 69.1587 254.665 82.8661 254.665V253.915ZM44.7552 246.259L45.061 245.574C33.4794 240.402 23.7616 233.098 15.8975 223.661L15.3213 224.141L14.7452 224.621C22.7606 234.24 32.6654 241.681 44.4494 246.944L44.7552 246.259ZM15.3213 224.141L15.9009 223.665C8.17022 214.254 3.40038 202.987 1.6027 189.842L0.859613 189.943L0.116529 190.045C1.94846 203.441 6.81977 214.973 14.7418 224.617L15.3213 224.141ZM0.859613 189.943V190.693H31.4844V189.943V189.193H0.859613V189.943ZM31.4844 189.943L30.7573 190.127C33.6328 201.514 39.6222 210.789 48.7157 217.926L49.1788 217.336L49.6418 216.746C40.8142 209.817 35.0073 200.831 32.2116 189.76L31.4844 189.943ZM49.1788 217.336L48.7204 217.929C57.8294 224.963 68.8853 228.464 81.8453 228.464V227.714V226.964C69.1711 226.964 58.4493 223.546 49.6371 216.742L49.1788 217.336ZM81.8453 227.714V228.464C96.5015 228.464 109.083 224.625 119.55 216.919L119.105 216.315L118.661 215.711C108.485 223.203 96.2259 226.964 81.8453 226.964V227.714ZM119.105 216.315L119.547 216.921C130.144 209.204 137.99 197.312 143.128 181.326L142.414 181.096L141.7 180.867C136.631 196.639 128.938 208.227 118.664 215.708L119.105 216.315ZM142.414 181.096L143.128 181.326C148.27 165.329 150.198 144.869 148.948 119.979L148.199 120.017L147.45 120.054C148.695 144.844 146.767 165.105 141.7 180.867L142.414 181.096ZM148.199 120.017L147.487 119.782C144.684 128.301 140.26 135.805 134.209 142.304L134.758 142.815L135.307 143.326C141.507 136.667 146.042 128.973 148.911 120.251L148.199 120.017ZM134.758 142.815L134.214 142.299C128.162 148.687 120.874 153.735 112.342 157.44L112.64 158.128L112.939 158.815C121.647 155.034 129.104 149.874 135.303 143.331L134.758 142.815ZM112.64 158.128L112.342 157.44C103.825 161.137 94.4008 162.992 84.057 162.992V163.742V164.492C94.5835 164.492 104.214 162.604 112.939 158.815L112.64 158.128ZM84.057 163.742V162.992C67.9365 162.992 53.766 159.836 41.525 153.547L41.1823 154.214L40.8396 154.881C53.3253 161.296 67.7379 164.492 84.057 164.492V163.742ZM41.1823 154.214L41.525 153.547C29.2861 147.259 19.7514 138.284 12.9058 126.613L12.2589 126.992L11.6119 127.372C18.6041 139.293 28.3518 148.466 40.8396 154.881L41.1823 154.214ZM12.2589 126.992L12.9085 126.617C6.18114 114.957 2.80058 100.97 2.80058 84.6279H2.05058H1.30058C1.30058 101.179 4.72553 115.435 11.6092 127.367L12.2589 126.992ZM2.05058 84.6279H2.80058C2.80058 68.2871 6.18064 53.8946 12.9186 41.4293L12.2589 41.0726L11.5991 40.716C4.72603 53.4311 1.30058 68.0755 1.30058 84.6279H2.05058ZM12.2589 41.0726L12.9186 41.4293C19.6555 28.9661 29.3077 19.2 41.8903 12.1223L41.5226 11.4686L41.1549 10.815C28.3302 18.0288 18.4732 27.9988 11.5991 40.716L12.2589 41.0726ZM41.5226 11.4686L41.8903 12.1223C54.4613 5.05112 69.415 1.49995 86.7793 1.49995V0.749954V-4.57764e-05C69.2085 -4.57764e-05 53.9911 3.59458 41.1549 10.815L41.5226 11.4686ZM86.7793 0.749954V1.49995C105.698 1.49995 122.046 6.39604 135.856 16.1643L136.289 15.5519L136.722 14.9396C122.63 4.97186 105.971 -4.57764e-05 86.7793 -4.57764e-05V0.749954ZM136.289 15.5519L135.86 16.1666C149.675 25.8262 160.368 39.7675 167.923 58.0328L168.616 57.7462L169.309 57.4595C161.664 38.975 150.806 24.7868 136.719 14.9373L136.289 15.5519ZM168.616 57.7462L167.923 58.0343C175.475 76.1818 179.265 98.0264 179.265 123.59H180.015H180.765C180.765 97.8844 176.955 75.8335 169.308 57.458L168.616 57.7462ZM180.015 123.59H179.265C179.265 151.087 175.474 174.468 167.917 193.753L168.616 194.027L169.314 194.3C176.957 174.794 180.765 151.217 180.765 123.59H180.015ZM168.616 194.027L167.916 193.757C160.474 213.038 149.554 227.769 135.174 237.991L135.609 238.603L136.043 239.214C150.701 228.794 161.785 213.806 169.315 194.297L168.616 194.027ZM135.609 238.603L135.175 237.991C120.918 248.094 103.496 253.165 82.8661 253.165V253.915V254.665C103.75 254.665 121.49 249.528 136.042 239.215L135.609 238.603ZM87.4598 137.03V137.78C96.6545 137.78 105.392 135.653 113.664 131.402L113.321 130.735L112.978 130.068C104.916 134.211 96.4131 136.28 87.4598 136.28V137.03ZM113.321 130.735L113.664 131.402C121.926 127.156 128.653 121.525 133.83 114.507L133.227 114.062L132.623 113.617C127.592 120.436 121.049 125.921 112.978 130.068L113.321 130.735ZM133.227 114.062L133.829 114.509C139.137 107.355 141.803 99.5438 141.803 91.0932H141.053H140.303C140.303 99.2027 137.752 106.704 132.625 113.615L133.227 114.062ZM141.053 91.0932L141.803 91.0999C141.917 78.3075 139.747 67.0224 135.27 57.2632L134.588 57.576L133.906 57.8888C138.276 67.4119 140.416 78.4716 140.303 91.0865L141.053 91.0932ZM134.588 57.576L135.271 57.2663C130.795 47.3961 124.413 39.6827 116.119 34.1535L115.703 34.7775L115.287 35.4016C123.326 40.7612 129.534 48.2468 133.905 57.8858L134.588 57.576ZM115.703 34.7775L116.125 34.1575C107.821 28.5064 98.1428 25.6908 87.1195 25.6908V26.4408V27.1908C97.8739 27.1908 107.251 29.933 115.281 35.3976L115.703 34.7775ZM87.1195 26.4408V25.6908C77.0134 25.6908 68.027 28.1042 60.1839 32.9485L60.578 33.5866L60.9721 34.2247C68.5548 29.5412 77.2628 27.1908 87.1195 27.1908V26.4408ZM60.578 33.5866L60.1797 32.9511C52.4591 37.7908 46.3588 44.5297 41.878 53.1467L42.5434 53.4927L43.2088 53.8387C47.5752 45.4419 53.4979 38.91 60.9764 34.222L60.578 33.5866ZM42.5434 53.4927L41.8744 53.1537C37.5023 61.7828 35.3282 71.7706 35.3282 83.0967H36.0782H36.8282C36.8282 71.9645 38.9642 62.2164 43.2124 53.8317L42.5434 53.4927ZM36.0782 83.0967H35.3282C35.3282 99.6789 39.7339 112.974 48.62 122.899L49.1788 122.399L49.7375 121.898C41.1561 112.314 36.8282 99.4078 36.8282 83.0967H36.0782ZM49.1788 122.399L48.62 122.899C57.5339 132.855 70.5237 137.78 87.4598 137.78V137.03V136.28C70.822 136.28 58.2912 131.452 49.7375 121.898L49.1788 122.399ZM238.088 245.238L237.798 245.93L237.802 245.932L238.088 245.238ZM205.251 220.568L204.646 221.011L204.649 221.015L205.251 220.568ZM200.827 156.086L200.173 155.72L200.169 155.727L200.827 156.086ZM219.543 133.798L220.013 134.382L219.543 133.798ZM243.362 122.228L243.503 122.965L245.924 122.501L243.655 121.538L243.362 122.228ZM215.459 101.472L214.874 101.94L214.877 101.945L215.459 101.472ZM215.459 31.3748L216.066 31.8159L215.459 31.3748ZM245.063 8.57629L244.776 7.88343L244.774 7.88436L245.063 8.57629ZM359.396 31.3748L358.789 31.8159L359.396 31.3748ZM359.396 101.472L358.81 101.003L358.807 101.008L359.396 101.472ZM331.664 122.228L331.373 121.537L329.086 122.498L331.522 122.965L331.664 122.228ZM355.313 133.798L354.838 134.378L354.842 134.382L355.313 133.798ZM369.604 220.568L369.002 220.121L368.999 220.125L369.604 220.568ZM336.938 245.238L337.223 245.932L337.228 245.93L336.938 245.238ZM331.153 216.145L331.603 216.745L331.607 216.742L331.153 216.145ZM340 159.318L339.384 159.746L339.389 159.753L340 159.318ZM319.243 142.815L318.932 143.498L318.94 143.501L319.243 142.815ZM255.782 142.815L256.089 143.499L256.093 143.498L255.782 142.815ZM235.025 159.318L234.414 158.884L234.409 158.891L235.025 159.318ZM243.872 216.145L243.415 216.739L243.422 216.745L243.872 216.145ZM323.837 97.8987L323.375 97.3082L323.371 97.311L323.837 97.8987ZM323.837 35.7984L323.362 36.3785L323.366 36.3819L323.837 35.7984ZM251.018 35.7984L250.543 35.2182L251.018 35.7984ZM287.428 253.915V253.165C268.674 253.165 252.328 250.284 238.373 244.544L238.088 245.238L237.802 245.932C251.976 251.761 268.524 254.665 287.428 254.665V253.915ZM238.088 245.238L238.378 244.546C224.417 238.692 213.587 230.545 205.853 220.121L205.251 220.568L204.649 221.015C212.567 231.688 223.629 239.988 237.798 245.93L238.088 245.238ZM205.251 220.568L205.856 220.125C198.246 209.716 194.432 197.511 194.432 183.478H193.682H192.932C192.932 197.801 196.831 210.323 204.646 221.011L205.251 220.568ZM193.682 183.478H194.432C194.432 174.081 196.779 165.074 201.486 156.445L200.827 156.086L200.169 155.727C195.348 164.566 192.932 173.819 192.932 183.478H193.682ZM200.827 156.086L201.482 156.452C206.314 147.8 212.49 140.445 220.013 134.382L219.543 133.798L219.072 133.214C211.396 139.401 205.096 146.905 200.173 155.72L200.827 156.086ZM219.543 133.798L220.013 134.382C227.532 128.322 235.362 124.526 243.503 122.965L243.362 122.228L243.221 121.492C234.802 123.106 226.752 127.024 219.072 133.214L219.543 133.798ZM243.362 122.228L243.655 121.538C232.533 116.82 223.333 109.973 216.041 100.999L215.459 101.472L214.877 101.945C222.33 111.118 231.732 118.109 243.069 122.919L243.362 122.228ZM215.459 101.472L216.045 101.003C208.908 92.0818 205.32 81.0253 205.32 67.7843H204.57H203.82C203.82 81.3116 207.492 92.7134 214.874 101.94L215.459 101.472ZM204.57 67.7843H205.32C205.32 53.6253 208.914 41.6496 216.066 31.8159L215.459 31.3748L214.853 30.9337C207.486 41.0628 203.82 53.3601 203.82 67.7843H204.57ZM215.459 31.3748L216.066 31.8159C223.237 21.956 232.99 14.438 245.353 9.26823L245.063 8.57629L244.774 7.88436C232.183 13.1497 222.2 20.8307 214.853 30.9337L215.459 31.3748ZM245.063 8.57629L245.35 9.26916C257.837 4.09451 271.859 1.49995 287.428 1.49995V0.749954V-4.57764e-05C271.691 -4.57764e-05 257.47 2.62297 244.776 7.88344L245.063 8.57629ZM287.428 0.749954V1.49995C303.111 1.49995 317.131 4.09481 329.503 9.26823L329.792 8.57629L330.081 7.88436C317.499 2.62266 303.277 -4.57764e-05 287.428 -4.57764e-05V0.749954ZM329.792 8.57629L329.503 9.26823C341.865 14.438 351.619 21.956 358.789 31.8159L359.396 31.3748L360.003 30.9337C352.655 20.8307 342.672 13.1497 330.081 7.88436L329.792 8.57629ZM359.396 31.3748L358.789 31.8159C365.941 41.6496 369.535 53.6253 369.535 67.7843H370.285H371.035C371.035 53.3601 367.369 41.0628 360.003 30.9337L359.396 31.3748ZM370.285 67.7843H369.535C369.535 81.0253 365.947 92.0818 358.81 101.003L359.396 101.472L359.982 101.94C367.363 92.7134 371.035 81.3116 371.035 67.7843H370.285ZM359.396 101.472L358.807 101.008C351.745 109.975 342.606 116.819 331.373 121.537L331.664 122.228L331.954 122.92C343.406 118.11 352.756 111.116 359.985 101.936L359.396 101.472ZM331.664 122.228L331.522 122.965C339.663 124.526 347.434 128.321 354.838 134.378L355.313 133.798L355.788 133.217C348.219 127.025 340.224 123.107 331.805 121.492L331.664 122.228ZM355.313 133.798L354.842 134.382C362.365 140.445 368.541 147.8 373.373 156.452L374.028 156.086L374.683 155.72C369.76 146.905 363.46 139.401 355.783 133.214L355.313 133.798ZM374.028 156.086L373.373 156.452C378.191 165.079 380.594 174.085 380.594 183.478H381.344H382.094C382.094 173.816 379.619 164.56 374.683 155.72L374.028 156.086ZM381.344 183.478H380.594C380.594 197.509 376.725 209.712 369.002 220.121L369.604 220.568L370.207 221.015C378.137 210.327 382.094 197.804 382.094 183.478H381.344ZM369.604 220.568L368.999 220.125C361.379 230.547 350.608 238.692 336.648 244.546L336.938 245.238L337.228 245.93C351.397 239.988 362.404 231.687 370.21 221.011L369.604 220.568ZM336.938 245.238L336.652 244.544C322.698 250.284 306.295 253.165 287.428 253.165V253.915V254.665C306.444 254.665 323.049 251.762 337.223 245.932L336.938 245.238ZM287.428 228.394V229.144C305.796 229.144 320.546 225.037 331.603 216.745L331.153 216.145L330.703 215.545C319.982 223.585 305.582 227.644 287.428 227.644V228.394ZM331.153 216.145L331.607 216.742C342.681 208.32 348.236 197.155 348.236 183.308H347.486H346.736C346.736 196.683 341.403 207.408 330.699 215.548L331.153 216.145ZM347.486 183.308H348.236C348.236 174.198 345.696 166.049 340.612 158.884L340 159.318L339.389 159.753C344.286 166.653 346.736 174.496 346.736 183.308H347.486ZM340 159.318L340.617 158.891C335.65 151.73 328.615 146.147 319.547 142.129L319.243 142.815L318.94 143.501C327.793 147.423 334.596 152.842 339.384 159.746L340 159.318ZM319.243 142.815L319.554 142.133C310.475 137.995 299.759 135.94 287.428 135.94V136.69V137.44C299.596 137.44 310.09 139.468 318.932 143.498L319.243 142.815ZM287.428 136.69V135.94C275.208 135.94 264.549 137.996 255.471 142.133L255.782 142.815L256.093 143.498C264.936 139.468 275.374 137.44 287.428 137.44V136.69ZM255.782 142.815L255.475 142.131C246.521 146.148 239.491 151.73 234.414 158.884L235.025 159.318L235.637 159.753C240.541 152.842 247.348 147.421 256.089 143.499L255.782 142.815ZM235.025 159.318L234.409 158.891C229.44 166.055 226.959 174.202 226.959 183.308H227.709H228.459C228.459 174.492 230.855 166.647 235.641 159.746L235.025 159.318ZM227.709 183.308H226.959C226.959 197.151 232.455 208.317 243.415 216.739L243.872 216.145L244.329 215.55C233.739 207.412 228.459 196.686 228.459 183.308H227.709ZM243.872 216.145L243.422 216.745C254.478 225.036 269.171 229.144 287.428 229.144V228.394V227.644C269.388 227.644 255.044 223.586 244.322 215.545L243.872 216.145ZM287.428 108.958V109.708C302.524 109.708 314.838 105.989 324.303 98.4864L323.837 97.8987L323.371 97.311C314.234 104.554 302.276 108.208 287.428 108.208V108.958ZM323.837 97.8987L324.3 98.4892C333.915 90.9588 338.709 80.4651 338.709 67.1037H337.959H337.209C337.209 80.057 332.588 90.0933 323.375 97.3082L323.837 97.8987ZM337.959 67.1037H338.709C338.709 53.6313 333.918 42.9717 324.308 35.2148L323.837 35.7984L323.366 36.3819C332.585 43.8241 337.209 54.0346 337.209 67.1037H337.959ZM323.837 35.7984L324.312 35.2182C314.736 27.3727 302.42 23.479 287.428 23.479V24.229V24.979C302.153 24.979 314.109 28.7981 323.362 36.3785L323.837 35.7984ZM287.428 24.229V23.479C272.435 23.479 260.119 27.3727 250.543 35.2182L251.018 35.7984L251.493 36.3785C260.746 28.7981 272.703 24.979 287.428 24.979V24.229ZM251.018 35.7984L250.543 35.2182C240.939 43.0863 236.147 53.7424 236.147 67.1037H236.897H237.647C237.647 54.1504 242.269 43.9363 251.493 36.3785L251.018 35.7984ZM236.897 67.1037H236.147C236.147 80.4651 240.94 90.9588 250.556 98.4892L251.018 97.8987L251.481 97.3082C242.268 90.0933 237.647 80.057 237.647 67.1037H236.897ZM251.018 97.8987L250.556 98.4892C260.131 105.988 272.443 109.708 287.428 109.708V108.958V108.208C272.695 108.208 260.734 104.554 251.481 97.3082L251.018 97.8987Z" fill="white" mask="url(#path-1-outside-1_632_2021)"/>
</g>
</svg>
