<svg width="327" height="307" viewBox="0 0 327 307" fill="none" xmlns="http://www.w3.org/2000/svg">
<g clip-path="url(#clip0_787_8356)">
<rect width="327" height="307" rx="8.92559" fill="#0A0A0A"/>
<g filter="url(#filter0_f_787_8356)">
<ellipse cx="212.262" cy="316.65" rx="186.972" ry="84.5845" fill="url(#paint0_linear_787_8356)" fill-opacity="0.3"/>
</g>
<g opacity="0.6">
<mask id="path-3-outside-1_787_8356" maskUnits="userSpaceOnUse" x="9" y="129.173" width="409" height="156" fill="black">
<rect fill="white" x="9" y="129.173" width="409" height="156"/>
<path d="M60.2734 284.452C51.9867 284.452 44.2526 282.898 37.0708 279.791C29.9581 276.614 23.9849 272.126 19.151 266.325C14.3862 260.525 11.4514 253.584 10.3465 245.505H28.9914C30.7178 252.342 34.3086 257.9 39.764 262.182C45.2193 266.394 51.8486 268.5 59.6519 268.5C68.4909 268.5 76.0525 266.187 82.3365 261.56C88.6896 256.934 93.4198 249.786 96.5273 240.119C99.6348 230.451 100.809 218.056 100.049 202.933C98.3228 208.181 95.5951 212.807 91.8661 216.813C88.1371 220.749 83.6485 223.856 78.4003 226.135C73.1522 228.414 67.3515 229.553 60.9984 229.553C51.1236 229.553 42.4226 227.62 34.8956 223.753C27.3686 219.886 21.4989 214.361 17.2865 207.179C13.1432 199.998 11.0716 191.4 11.0716 181.387C11.0716 171.374 13.1432 162.535 17.2865 154.87C21.4298 147.205 27.3686 141.197 35.1028 136.847C42.8369 132.496 52.0213 130.321 62.6558 130.321C74.257 130.321 84.3046 133.325 92.7984 139.333C101.292 145.271 107.852 153.834 112.479 165.021C117.106 176.139 119.419 189.501 119.419 205.108C119.419 221.888 117.106 236.183 112.479 247.991C107.921 259.799 101.223 268.846 92.384 275.13C83.614 281.345 72.9105 284.452 60.2734 284.452ZM63.0701 213.291C68.5945 213.291 73.8427 212.013 78.8147 209.458C83.7867 206.903 87.8264 203.519 90.9339 199.307C94.1104 195.026 95.6987 190.364 95.6987 185.323C95.7677 177.589 94.4557 170.787 91.7625 164.918C89.0694 158.979 85.2368 154.352 80.2648 151.038C75.2929 147.654 69.4922 145.962 62.8629 145.962C56.7861 145.962 51.3998 147.412 46.704 150.312C42.0773 153.213 38.4174 157.253 35.7243 162.432C33.1002 167.611 31.7881 173.619 31.7881 180.455C31.7881 190.468 34.4467 198.444 39.764 204.383C45.0812 210.321 52.8499 213.291 63.0701 213.291ZM184.814 284.452C173.351 284.452 163.338 282.691 154.775 279.169C146.212 275.579 139.548 270.572 134.783 264.15C130.088 257.728 127.74 250.201 127.74 241.569C127.74 235.768 129.19 230.209 132.09 224.892C135.06 219.575 138.858 215.052 143.484 211.323C148.111 207.594 152.945 205.246 157.986 204.279C151.149 201.379 145.487 197.166 140.998 191.642C136.579 186.118 134.369 179.281 134.369 171.133C134.369 162.432 136.579 155.043 140.998 148.966C145.418 142.889 151.426 138.262 159.022 135.086C166.687 131.909 175.284 130.321 184.814 130.321C194.412 130.321 203.01 131.909 210.606 135.086C218.202 138.262 224.21 142.889 228.629 148.966C233.049 155.043 235.259 162.432 235.259 171.133C235.259 179.281 233.049 186.118 228.629 191.642C224.279 197.166 218.651 201.379 211.745 204.279C216.786 205.246 221.586 207.594 226.143 211.323C230.77 215.052 234.568 219.575 237.537 224.892C240.507 230.209 241.992 235.768 241.992 241.569C241.992 250.201 239.609 257.728 234.844 264.15C230.149 270.572 223.519 275.579 214.956 279.169C206.394 282.691 196.346 284.452 184.814 284.452ZM184.814 268.915C195.932 268.915 204.805 266.429 211.435 261.457C218.064 256.416 221.379 249.752 221.379 241.465C221.379 236.01 219.859 231.142 216.821 226.86C213.852 222.579 209.639 219.23 204.184 216.813C198.728 214.327 192.272 213.084 184.814 213.084C177.425 213.084 171.003 214.327 165.547 216.813C160.161 219.23 155.949 222.579 152.91 226.86C149.941 231.142 148.456 236.01 148.456 241.465C148.456 249.752 151.736 256.416 158.297 261.457C164.926 266.429 173.765 268.915 184.814 268.915ZM184.814 196.2C193.929 196.2 201.318 193.955 206.981 189.467C212.712 184.978 215.578 178.729 215.578 170.718C215.578 162.639 212.712 156.286 206.981 151.659C201.249 146.963 193.86 144.615 184.814 144.615C175.768 144.615 168.379 146.963 162.647 151.659C156.916 156.355 154.05 162.708 154.05 170.718C154.05 178.729 156.916 184.978 162.647 189.467C168.379 193.955 175.768 196.2 184.814 196.2ZM276.787 283.002L377.988 130.735H390.521L289.839 283.002H276.787ZM288.181 215.57C281.345 215.57 275.233 213.809 269.847 210.287C264.53 206.696 260.318 201.724 257.21 195.371C254.103 188.949 252.549 181.491 252.549 172.997C252.549 164.434 254.103 156.942 257.21 150.52C260.318 144.098 264.53 139.091 269.847 135.5C275.233 131.909 281.345 130.114 288.181 130.114C294.88 130.114 300.887 131.909 306.205 135.5C311.522 139.091 315.7 144.098 318.738 150.52C321.777 156.942 323.296 164.434 323.296 172.997C323.296 181.491 321.777 188.949 318.738 195.371C315.769 201.724 311.626 206.696 306.308 210.287C300.991 213.809 294.949 215.57 288.181 215.57ZM287.974 204.901C294.603 204.901 299.714 202.173 303.304 196.718C306.964 191.262 308.794 183.355 308.794 172.997C308.794 162.501 306.964 154.525 303.304 149.069C299.644 143.545 294.534 140.783 287.974 140.783C281.345 140.783 276.2 143.545 272.54 149.069C268.949 154.594 267.154 162.57 267.154 172.997C267.154 183.286 268.949 191.193 272.54 196.718C276.2 202.173 281.345 204.901 287.974 204.901ZM381.924 284.245C375.087 284.245 368.976 282.519 363.59 279.066C358.203 275.544 353.991 270.572 350.952 264.15C347.914 257.728 346.395 250.166 346.395 241.465C346.395 232.833 347.914 225.306 350.952 218.884C354.06 212.462 358.307 207.49 363.693 203.968C369.079 200.377 375.156 198.582 381.924 198.582C388.691 198.582 394.733 200.377 400.051 203.968C405.368 207.49 409.546 212.462 412.584 218.884C415.623 225.306 417.142 232.833 417.142 241.465C417.142 250.166 415.623 257.728 412.584 264.15C409.615 270.572 405.472 275.544 400.154 279.066C394.837 282.519 388.76 284.245 381.924 284.245ZM381.717 273.472C388.415 273.472 393.56 270.745 397.15 265.289C400.741 259.834 402.537 251.962 402.537 241.672C402.537 231.107 400.707 223.097 397.047 217.641C393.456 212.117 388.346 209.355 381.717 209.355C375.156 209.355 370.046 212.117 366.386 217.641C362.795 223.166 361 231.176 361 241.672C361 251.893 362.795 259.765 366.386 265.289C369.977 270.745 375.087 273.472 381.717 273.472Z"/>
</mask>
<path d="M37.0708 279.791L36.8846 280.208L36.8895 280.21L37.0708 279.791ZM19.151 266.325L18.7982 266.615L18.8002 266.617L19.151 266.325ZM10.3465 245.505V245.048H9.82317L9.89407 245.567L10.3465 245.505ZM28.9914 245.505L29.4341 245.393L29.347 245.048H28.9914V245.505ZM39.764 262.182L39.4821 262.541L39.4849 262.543L39.764 262.182ZM82.3365 261.56L82.0677 261.191L82.0658 261.193L82.3365 261.56ZM96.5273 240.119L96.0926 239.979V239.979L96.5273 240.119ZM100.049 202.933L100.505 202.91L99.6154 202.79L100.049 202.933ZM91.8661 216.813L92.1976 217.127L92.2003 217.124L91.8661 216.813ZM78.4004 226.135L78.5822 226.554V226.554L78.4004 226.135ZM34.8956 223.753L35.1043 223.347V223.347L34.8956 223.753ZM17.2865 207.179L16.891 207.408L16.8927 207.41L17.2865 207.179ZM17.2865 154.87L16.8848 154.653H16.8848L17.2865 154.87ZM35.1028 136.847L34.8789 136.449H34.8789L35.1028 136.847ZM92.7984 139.333L92.5347 139.706L92.5367 139.707L92.7984 139.333ZM112.479 165.021L112.057 165.196L112.058 165.197L112.479 165.021ZM112.479 247.991L112.054 247.824L112.053 247.827L112.479 247.991ZM92.384 275.13L92.648 275.502L92.6486 275.502L92.384 275.13ZM78.8147 209.458L79.0234 209.864V209.864L78.8147 209.458ZM90.9339 199.307L90.5672 199.035L90.5664 199.036L90.9339 199.307ZM95.6987 185.323L95.2421 185.319V185.323H95.6987ZM91.7625 164.918L91.3467 165.106L91.3475 165.108L91.7625 164.918ZM80.2648 151.038L80.0079 151.415L80.0116 151.417L80.2648 151.038ZM46.704 150.312L46.4641 149.924L46.4615 149.926L46.704 150.312ZM35.7243 162.432L35.3191 162.221L35.3169 162.225L35.7243 162.432ZM39.764 204.383L40.1042 204.078V204.078L39.764 204.383ZM60.2734 284.452V283.996C52.0454 283.996 44.3733 282.453 37.2522 279.372L37.0708 279.791L36.8895 280.21C44.1318 283.344 51.9281 284.909 60.2734 284.909V284.452ZM37.0708 279.791L37.257 279.374C30.2059 276.225 24.2896 271.778 19.5018 266.033L19.151 266.325L18.8002 266.617C23.6802 272.473 29.7104 277.004 36.8846 280.208L37.0708 279.791ZM19.151 266.325L19.5038 266.035C14.7973 260.306 11.8933 253.446 10.7989 245.443L10.3465 245.505L9.89407 245.567C11.0094 253.723 13.9751 260.743 18.7982 266.615L19.151 266.325ZM10.3465 245.505V245.962H28.9914V245.505V245.048H10.3465V245.505ZM28.9914 245.505L28.5487 245.617C30.2993 252.55 33.9458 258.196 39.4821 262.541L39.764 262.182L40.0459 261.823C34.6715 257.605 31.1362 252.133 29.4341 245.393L28.9914 245.505ZM39.764 262.182L39.4849 262.543C45.0306 266.825 51.7617 268.957 59.6519 268.957V268.5V268.044C51.9356 268.044 45.408 265.963 40.043 261.82L39.764 262.182ZM59.6519 268.5V268.957C68.5748 268.957 76.2345 266.62 82.6072 261.928L82.3365 261.56L82.0658 261.193C75.8704 265.754 68.407 268.044 59.6519 268.044V268.5ZM82.3365 261.56L82.6053 261.929C89.0567 257.231 93.8336 249.991 96.962 240.258L96.5273 240.119L96.0926 239.979C93.0061 249.582 88.3224 256.636 82.0677 261.191L82.3365 261.56ZM96.5273 240.119L96.962 240.258C100.093 230.519 101.266 218.063 100.505 202.91L100.049 202.933L99.5931 202.955C100.351 218.048 99.1771 230.383 96.0926 239.979L96.5273 240.119ZM100.049 202.933L99.6154 202.79C97.9094 207.976 95.2155 212.545 91.5319 216.501L91.8661 216.813L92.2003 217.124C95.9747 213.07 98.7361 208.385 100.483 203.075L100.049 202.933ZM91.8661 216.813L91.5346 216.499C87.8503 220.388 83.4134 223.461 78.2185 225.716L78.4004 226.135L78.5822 226.554C83.8837 224.252 88.424 221.11 92.1976 217.127L91.8661 216.813ZM78.4004 226.135L78.2185 225.716C73.0337 227.968 67.2959 229.097 60.9984 229.097V229.553V230.01C67.4072 230.01 73.2706 228.86 78.5822 226.554L78.4004 226.135ZM60.9984 229.553V229.097C51.184 229.097 42.5567 227.175 35.1043 223.347L34.8956 223.753L34.6869 224.159C42.2885 228.064 51.0631 230.01 60.9984 230.01V229.553ZM34.8956 223.753L35.1043 223.347C27.653 219.518 21.8481 214.054 17.6804 206.948L17.2865 207.179L16.8927 207.41C21.1496 214.668 27.0841 220.253 34.6869 224.159L34.8956 223.753ZM17.2865 207.179L17.682 206.951C13.5863 199.852 11.5282 191.337 11.5282 181.387H11.0716H10.6149C10.6149 191.464 12.7001 200.143 16.891 207.408L17.2865 207.179ZM11.0716 181.387H11.5282C11.5282 171.439 13.586 162.676 17.6882 155.087L17.2865 154.87L16.8848 154.653C12.7004 162.394 10.6149 171.31 10.6149 181.387H11.0716ZM17.2865 154.87L17.6882 155.087C21.7897 147.499 27.6661 141.554 35.3266 137.245L35.1028 136.847L34.8789 136.449C27.071 140.841 21.0699 146.911 16.8848 154.653L17.2865 154.87ZM35.1028 136.847L35.3266 137.245C42.9801 132.94 52.0841 130.778 62.6558 130.778V130.321V129.864C51.9584 129.864 42.6938 132.053 34.8789 136.449L35.1028 136.847ZM62.6558 130.321V130.778C74.1739 130.778 84.1268 133.758 92.5347 139.705L92.7984 139.333L93.062 138.96C84.4824 132.891 74.3401 129.864 62.6558 129.864V130.321ZM92.7984 139.333L92.5367 139.707C100.948 145.588 107.458 154.076 112.057 165.196L112.479 165.021L112.901 164.847C108.247 153.593 101.636 144.955 93.06 138.958L92.7984 139.333ZM112.479 165.021L112.058 165.197C116.655 176.245 118.963 189.545 118.963 205.108H119.419H119.876C119.876 189.458 117.556 176.033 112.901 164.846L112.479 165.021ZM119.419 205.108H118.963C118.963 221.849 116.654 236.083 112.054 247.824L112.479 247.991L112.904 248.158C117.557 236.282 119.876 221.928 119.876 205.108H119.419ZM112.479 247.991L112.053 247.827C107.522 259.566 100.874 268.534 92.1194 274.758L92.384 275.13L92.6486 275.502C101.572 269.158 108.321 260.033 112.905 248.155L112.479 247.991ZM92.384 275.13L92.12 274.757C83.44 280.908 72.833 283.996 60.2734 283.996V284.452V284.909C72.988 284.909 83.788 281.781 92.648 275.502L92.384 275.13ZM63.0701 213.291V213.747C68.668 213.747 73.9876 212.452 79.0234 209.864L78.8147 209.458L78.606 209.052C73.6978 211.574 68.521 212.834 63.0701 212.834V213.291ZM78.8147 209.458L79.0234 209.864C84.0536 207.279 88.1492 203.851 91.3013 199.578L90.9339 199.307L90.5664 199.036C87.5035 203.188 83.5197 206.527 78.606 209.052L78.8147 209.458ZM90.9339 199.307L91.3006 199.579C94.5319 195.224 96.1553 190.468 96.1553 185.323H95.6987H95.2421C95.2421 190.261 93.6889 194.828 90.5672 199.035L90.9339 199.307ZM95.6987 185.323L96.1553 185.328C96.2248 177.539 94.9037 170.669 92.1775 164.727L91.7625 164.918L91.3475 165.108C94.0077 170.906 95.3106 177.639 95.2421 185.319L95.6987 185.323ZM91.7625 164.918L92.1784 164.729C89.4533 158.72 85.5675 154.024 80.5181 150.658L80.2648 151.038L80.0116 151.417C84.9061 154.681 88.6854 159.238 91.3467 165.106L91.7625 164.918ZM80.2648 151.038L80.5217 150.66C75.4663 147.22 69.5741 145.505 62.8629 145.505V145.962V146.419C69.4104 146.419 75.1194 148.088 80.0079 151.415L80.2648 151.038ZM62.8629 145.962V145.505C56.7102 145.505 51.2391 146.975 46.4641 149.924L46.704 150.312L46.944 150.701C51.5604 147.85 56.862 146.419 62.8629 146.419V145.962ZM46.704 150.312L46.4615 149.926C41.7611 152.872 38.0471 156.975 35.3191 162.221L35.7243 162.432L36.1294 162.642C38.7877 157.53 42.3936 153.553 46.9465 150.699L46.704 150.312ZM35.7243 162.432L35.3169 162.225C32.6551 167.479 31.3315 173.56 31.3315 180.455H31.7881H32.2447C32.2447 173.678 33.5452 167.743 36.1316 162.638L35.7243 162.432ZM31.7881 180.455H31.3315C31.3315 190.551 34.0138 198.645 39.4238 204.687L39.764 204.383L40.1042 204.078C34.8797 198.243 32.2447 190.386 32.2447 180.455H31.7881ZM39.764 204.383L39.4238 204.687C44.8507 210.748 52.7591 213.747 63.0701 213.747V213.291V212.834C52.9407 212.834 45.3118 209.894 40.1042 204.078L39.764 204.383ZM154.775 279.169L154.598 279.591L154.601 279.592L154.775 279.169ZM134.783 264.15L134.415 264.419L134.417 264.422L134.783 264.15ZM132.09 224.892L131.692 224.669L131.689 224.673L132.09 224.892ZM143.484 211.323L143.771 211.678V211.678L143.484 211.323ZM157.986 204.279L158.072 204.728L159.546 204.445L158.164 203.859L157.986 204.279ZM140.998 191.642L140.642 191.927L140.644 191.93L140.998 191.642ZM140.998 148.966L141.368 149.234V149.234L140.998 148.966ZM159.022 135.086L158.847 134.664L158.846 134.665L159.022 135.086ZM228.629 148.966L228.26 149.234V149.234L228.629 148.966ZM228.629 191.642L228.273 191.357L228.271 191.36L228.629 191.642ZM211.745 204.279L211.569 203.858L210.176 204.443L211.659 204.728L211.745 204.279ZM226.143 211.323L225.854 211.676L225.857 211.678L226.143 211.323ZM234.844 264.15L234.478 263.878L234.476 263.88L234.844 264.15ZM214.956 279.169L215.13 279.592L215.133 279.591L214.956 279.169ZM211.435 261.457L211.709 261.822L211.711 261.82L211.435 261.457ZM216.821 226.86L216.446 227.12L216.449 227.124L216.821 226.86ZM204.184 216.813L203.994 217.228L203.999 217.23L204.184 216.813ZM165.547 216.813L165.734 217.229L165.737 217.228L165.547 216.813ZM152.91 226.86L152.538 226.596L152.535 226.6L152.91 226.86ZM158.297 261.457L158.018 261.819L158.023 261.822L158.297 261.457ZM206.981 189.467L206.699 189.107L206.697 189.109L206.981 189.467ZM206.981 151.659L206.691 152.012L206.694 152.014L206.981 151.659ZM162.647 151.659L162.358 151.306V151.306L162.647 151.659ZM184.814 284.452V283.996C173.397 283.996 163.445 282.242 154.949 278.747L154.775 279.169L154.601 279.592C163.23 283.141 173.305 284.909 184.814 284.909V284.452ZM154.775 279.169L154.951 278.748C146.452 275.184 139.859 270.224 135.15 263.878L134.783 264.15L134.417 264.422C139.238 270.92 145.972 275.973 154.598 279.591L154.775 279.169ZM134.783 264.15L135.152 263.88C130.518 257.543 128.196 250.113 128.196 241.569H127.74H127.283C127.283 250.289 129.657 257.912 134.415 264.419L134.783 264.15ZM127.74 241.569H128.196C128.196 235.848 129.626 230.364 132.491 225.111L132.09 224.892L131.689 224.673C128.754 230.055 127.283 235.688 127.283 241.569H127.74ZM132.09 224.892L132.489 225.115C135.43 219.847 139.191 215.37 143.771 211.678L143.484 211.323L143.198 210.967C138.524 214.734 134.689 219.302 131.692 224.669L132.09 224.892ZM143.484 211.323L143.771 211.678C148.349 207.989 153.115 205.678 158.072 204.728L157.986 204.279L157.9 203.831C152.775 204.814 147.873 207.199 143.198 210.967L143.484 211.323ZM157.986 204.279L158.164 203.859C151.393 200.986 145.792 196.818 141.353 191.354L140.998 191.642L140.644 191.93C145.182 197.515 150.906 201.771 157.808 204.699L157.986 204.279ZM140.998 191.642L141.355 191.357C137.01 185.925 134.826 179.194 134.826 171.133H134.369H133.912C133.912 179.368 136.148 186.31 140.642 191.927L140.998 191.642ZM134.369 171.133H134.826C134.826 162.512 137.013 155.221 141.368 149.234L140.998 148.966L140.629 148.697C136.144 154.864 133.912 162.351 133.912 171.133H134.369ZM140.998 148.966L141.368 149.234C145.733 143.232 151.671 138.655 159.198 135.507L159.022 135.086L158.846 134.665C151.18 137.87 145.102 142.546 140.629 148.697L140.998 148.966ZM159.022 135.086L159.197 135.508C166.799 132.357 175.335 130.778 184.814 130.778V130.321V129.864C175.233 129.864 166.575 131.461 158.847 134.664L159.022 135.086ZM184.814 130.321V130.778C194.362 130.778 202.898 132.357 210.43 135.507L210.606 135.086L210.782 134.665C203.122 131.461 194.463 129.864 184.814 129.864V130.321ZM210.606 135.086L210.43 135.507C217.956 138.655 223.894 143.232 228.26 149.234L228.629 148.966L228.999 148.697C224.525 142.546 218.448 137.87 210.782 134.665L210.606 135.086ZM228.629 148.966L228.26 149.234C232.614 155.221 234.802 162.512 234.802 171.133H235.259H235.715C235.715 162.351 233.484 154.864 228.999 148.697L228.629 148.966ZM235.259 171.133H234.802C234.802 179.194 232.618 185.925 228.273 191.357L228.629 191.642L228.986 191.927C233.48 186.31 235.715 179.368 235.715 171.133H235.259ZM228.629 191.642L228.271 191.36C223.971 196.819 218.407 200.986 211.569 203.858L211.745 204.279L211.922 204.7C218.894 201.772 224.587 197.514 228.988 191.925L228.629 191.642ZM211.745 204.279L211.659 204.728C216.615 205.678 221.347 207.988 225.854 211.676L226.143 211.323L226.432 210.969C221.825 207.199 216.957 204.814 211.831 203.831L211.745 204.279ZM226.143 211.323L225.857 211.678C230.437 215.37 234.197 219.847 237.139 225.115L237.537 224.892L237.936 224.669C234.939 219.302 231.103 214.734 226.43 210.967L226.143 211.323ZM237.537 224.892L237.139 225.115C240.072 230.367 241.535 235.85 241.535 241.569H241.992H242.448C242.448 235.686 240.942 230.051 237.936 224.669L237.537 224.892ZM241.992 241.569H241.535C241.535 250.111 239.179 257.541 234.478 263.878L234.844 264.15L235.211 264.422C240.039 257.915 242.448 250.291 242.448 241.569H241.992ZM234.844 264.15L234.476 263.88C229.837 270.225 223.279 275.184 214.78 278.748L214.956 279.169L215.133 279.591C223.759 275.973 230.46 270.919 235.213 264.419L234.844 264.15ZM214.956 279.169L214.783 278.747C206.287 282.241 196.301 283.996 184.814 283.996V284.452V284.909C196.391 284.909 206.5 283.141 215.13 279.592L214.956 279.169ZM184.814 268.915V269.371C195.997 269.371 204.977 266.871 211.709 261.822L211.435 261.457L211.161 261.091C204.633 265.987 195.866 268.458 184.814 268.458V268.915ZM211.435 261.457L211.711 261.82C218.453 256.693 221.835 249.895 221.835 241.465H221.379H220.922C220.922 249.608 217.675 256.138 211.158 261.093L211.435 261.457ZM221.379 241.465H221.835C221.835 235.919 220.289 230.958 217.193 226.596L216.821 226.86L216.449 227.124C219.43 231.325 220.922 236.101 220.922 241.465H221.379ZM216.821 226.86L217.196 226.6C214.172 222.24 209.889 218.841 204.369 216.395L204.184 216.813L203.999 217.23C209.389 219.618 213.531 222.917 216.446 227.12L216.821 226.86ZM204.184 216.813L204.373 216.397C198.846 213.878 192.322 212.627 184.814 212.627V213.084V213.54C192.222 213.54 198.611 214.775 203.994 217.228L204.184 216.813ZM184.814 213.084V212.627C177.374 212.627 170.885 213.879 165.358 216.397L165.547 216.813L165.737 217.228C171.121 214.775 177.475 213.54 184.814 213.54V213.084ZM165.547 216.813L165.361 216.396C159.909 218.842 155.629 222.24 152.538 226.596L152.91 226.86L153.283 227.124C156.268 222.917 160.413 219.617 165.734 217.229L165.547 216.813ZM152.91 226.86L152.535 226.6C149.51 230.961 148 235.922 148 241.465H148.456H148.913C148.913 236.098 150.372 231.322 153.286 227.12L152.91 226.86ZM148.456 241.465H148C148 249.894 151.345 256.691 158.018 261.819L158.297 261.457L158.575 261.095C152.127 256.14 148.913 249.61 148.913 241.465H148.456ZM158.297 261.457L158.023 261.822C164.754 266.87 173.699 269.371 184.814 269.371V268.915V268.458C173.831 268.458 165.098 265.987 158.571 261.091L158.297 261.457ZM184.814 196.2V196.656C194.005 196.656 201.502 194.392 207.264 189.825L206.981 189.467L206.697 189.109C201.134 193.518 193.854 195.743 184.814 195.743V196.2ZM206.981 189.467L207.262 189.826C213.116 185.242 216.035 178.853 216.035 170.718H215.578H215.121C215.121 178.604 212.308 184.715 206.699 189.107L206.981 189.467ZM215.578 170.718H216.035C216.035 162.516 213.118 156.026 207.267 151.304L206.981 151.659L206.694 152.014C212.307 156.545 215.121 162.762 215.121 170.718H215.578ZM206.981 151.659L207.27 151.306C201.44 146.529 193.941 144.159 184.814 144.159V144.615V145.072C193.779 145.072 201.058 147.397 206.691 152.012L206.981 151.659ZM184.814 144.615V144.159C175.686 144.159 168.188 146.529 162.358 151.306L162.647 151.659L162.936 152.012C168.57 147.397 175.849 145.072 184.814 145.072V144.615ZM162.647 151.659L162.358 151.306C156.511 156.096 153.593 162.584 153.593 170.718H154.05H154.506C154.506 162.832 157.32 156.614 162.936 152.012L162.647 151.659ZM154.05 170.718H153.593C153.593 178.853 156.511 185.242 162.366 189.826L162.647 189.467L162.929 189.107C157.32 184.715 154.506 178.604 154.506 170.718H154.05ZM162.647 189.467L162.366 189.826C168.195 194.392 175.691 196.656 184.814 196.656V196.2V195.743C175.844 195.743 168.562 193.519 162.929 189.107L162.647 189.467ZM276.787 283.002L276.407 282.749L275.935 283.459H276.787V283.002ZM377.988 130.735V130.279H377.743L377.607 130.483L377.988 130.735ZM390.521 130.735L390.902 130.987L391.37 130.279H390.521V130.735ZM289.839 283.002V283.459H290.084L290.22 283.254L289.839 283.002ZM269.847 210.287L269.592 210.665L269.597 210.669L269.847 210.287ZM257.21 195.371L256.799 195.57L256.8 195.572L257.21 195.371ZM257.21 150.52L257.621 150.719V150.719L257.21 150.52ZM269.847 135.5L269.594 135.12L269.592 135.122L269.847 135.5ZM306.205 135.5L305.949 135.879V135.879L306.205 135.5ZM318.738 150.52L319.151 150.324V150.324L318.738 150.52ZM318.738 195.371L318.326 195.176L318.325 195.178L318.738 195.371ZM306.308 210.287L306.56 210.668L306.564 210.665L306.308 210.287ZM303.304 196.718L302.925 196.463L302.923 196.467L303.304 196.718ZM303.304 149.069L302.924 149.322L302.925 149.324L303.304 149.069ZM272.54 149.069L272.16 148.817L272.157 148.821L272.54 149.069ZM272.54 196.718L272.157 196.966L272.161 196.972L272.54 196.718ZM363.59 279.066L363.34 279.448L363.343 279.45L363.59 279.066ZM350.952 264.15L350.54 264.345V264.345L350.952 264.15ZM350.952 218.884L350.541 218.685L350.54 218.689L350.952 218.884ZM363.693 203.968L363.943 204.351L363.946 204.348L363.693 203.968ZM400.051 203.968L399.795 204.347L399.799 204.349L400.051 203.968ZM412.584 218.884L412.171 219.08V219.08L412.584 218.884ZM412.584 264.15L412.171 263.955L412.17 263.958L412.584 264.15ZM400.154 279.066L400.403 279.449L400.406 279.447L400.154 279.066ZM397.15 265.289L397.532 265.54V265.54L397.15 265.289ZM397.047 217.641L396.664 217.89L396.668 217.896L397.047 217.641ZM366.386 217.641L366.006 217.389L366.003 217.392L366.386 217.641ZM366.386 265.289L366.003 265.538L366.005 265.54L366.386 265.289ZM276.787 283.002L277.167 283.255L378.368 130.988L377.988 130.735L377.607 130.483L276.407 282.749L276.787 283.002ZM377.988 130.735V131.192H390.521V130.735V130.279H377.988V130.735ZM390.521 130.735L390.14 130.484L289.458 282.75L289.839 283.002L290.22 283.254L390.902 130.987L390.521 130.735ZM289.839 283.002V282.545H276.787V283.002V283.459H289.839V283.002ZM288.181 215.57V215.113C281.428 215.113 275.404 213.375 270.097 209.905L269.847 210.287L269.597 210.669C275.063 214.243 281.262 216.026 288.181 216.026V215.57ZM269.847 210.287L270.103 209.909C264.858 206.367 260.696 201.459 257.62 195.17L257.21 195.371L256.8 195.572C259.939 201.989 264.202 207.025 269.592 210.665L269.847 210.287ZM257.21 195.371L257.621 195.172C254.549 188.823 253.005 181.435 253.005 172.997H252.549H252.092C252.092 181.547 253.656 189.075 256.799 195.57L257.21 195.371ZM252.549 172.997H253.005C253.005 164.49 254.549 157.067 257.621 150.719L257.21 150.52L256.799 150.321C253.656 156.816 252.092 164.379 252.092 172.997H252.549ZM257.21 150.52L257.621 150.719C260.698 144.361 264.859 139.419 270.103 135.879L269.847 135.5L269.592 135.122C264.2 138.763 259.938 143.834 256.799 150.321L257.21 150.52ZM269.847 135.5L270.1 135.88C275.407 132.342 281.43 130.57 288.181 130.57V130.114V129.657C281.26 129.657 275.06 131.476 269.594 135.12L269.847 135.5ZM288.181 130.114V130.57C294.793 130.57 300.711 132.341 305.949 135.879L306.205 135.5L306.46 135.122C301.064 131.478 294.967 129.657 288.181 129.657V130.114ZM306.205 135.5L305.949 135.879C311.191 139.419 315.318 144.359 318.326 150.715L318.738 150.52L319.151 150.324C316.081 143.836 311.853 138.763 306.46 135.122L306.205 135.5ZM318.738 150.52L318.326 150.715C321.33 157.065 322.839 164.488 322.839 172.997H323.296H323.753C323.753 164.38 322.224 156.819 319.151 150.324L318.738 150.52ZM323.296 172.997H322.839C322.839 181.436 321.33 188.825 318.326 195.176L318.738 195.371L319.151 195.566C322.223 189.072 323.753 181.545 323.753 172.997H323.296ZM318.738 195.371L318.325 195.178C315.387 201.463 311.295 206.368 306.053 209.909L306.308 210.287L306.564 210.665C311.956 207.024 316.151 201.985 319.152 195.564L318.738 195.371ZM306.308 210.287L306.056 209.906C300.818 213.375 294.865 215.113 288.181 215.113V215.57V216.026C295.033 216.026 301.164 214.242 306.56 210.668L306.308 210.287ZM287.974 204.901V205.357C294.754 205.357 300.009 202.555 303.686 196.969L303.304 196.718L302.923 196.467C299.418 201.791 294.453 204.444 287.974 204.444V204.901ZM303.304 196.718L303.684 196.972C307.415 191.409 309.251 183.398 309.251 172.997H308.794H308.338C308.338 183.313 306.513 191.115 302.925 196.463L303.304 196.718ZM308.794 172.997H309.251C309.251 162.46 307.416 154.378 303.684 148.815L303.304 149.069L302.925 149.324C306.513 154.671 308.338 162.542 308.338 172.997H308.794ZM303.304 149.069L303.685 148.817C299.942 143.167 294.689 140.326 287.974 140.326V140.783V141.239C294.379 141.239 299.347 143.923 302.924 149.322L303.304 149.069ZM287.974 140.783V140.326C281.192 140.326 275.904 143.165 272.16 148.817L272.54 149.069L272.921 149.322C276.496 143.925 281.498 141.239 287.974 141.239V140.783ZM272.54 149.069L272.157 148.821C268.498 154.451 266.697 162.529 266.697 172.997H267.154H267.611C267.611 162.611 269.401 154.737 272.923 149.318L272.54 149.069ZM267.154 172.997H266.697C266.697 183.329 268.498 191.337 272.157 196.966L272.54 196.718L272.923 196.469C269.4 191.049 267.611 183.244 267.611 172.997H267.154ZM272.54 196.718L272.161 196.972C275.907 202.555 281.194 205.357 287.974 205.357V204.901V204.444C281.495 204.444 276.494 201.791 272.919 196.463L272.54 196.718ZM381.924 284.245V283.788C375.168 283.788 369.144 282.084 363.836 278.681L363.59 279.066L363.343 279.45C368.808 282.953 375.006 284.702 381.924 284.702V284.245ZM363.59 279.066L363.839 278.684C358.531 275.213 354.371 270.309 351.365 263.955L350.952 264.15L350.54 264.345C353.61 270.835 357.876 275.875 363.34 279.448L363.59 279.066ZM350.952 264.15L351.365 263.955C348.361 257.606 346.851 250.114 346.851 241.465H346.395H345.938C345.938 250.219 347.467 257.85 350.54 264.345L350.952 264.15ZM346.395 241.465H346.851C346.851 232.887 348.361 225.429 351.365 219.08L350.952 218.884L350.54 218.689C347.467 225.184 345.938 232.78 345.938 241.465H346.395ZM350.952 218.884L351.363 219.083C354.439 212.727 358.633 207.822 363.943 204.351L363.693 203.968L363.443 203.586C357.98 207.158 353.681 212.197 350.541 218.685L350.952 218.884ZM363.693 203.968L363.946 204.348C369.254 200.81 375.242 199.039 381.924 199.039V198.582V198.125C375.07 198.125 368.905 199.945 363.44 203.588L363.693 203.968ZM381.924 198.582V199.039C388.605 199.039 394.558 200.81 399.795 204.347L400.051 203.968L400.306 203.59C394.909 199.945 388.777 198.125 381.924 198.125V198.582ZM400.051 203.968L399.799 204.349C405.039 207.82 409.164 212.724 412.171 219.08L412.584 218.884L412.997 218.689C409.927 212.2 405.697 207.161 400.303 203.588L400.051 203.968ZM412.584 218.884L412.171 219.08C415.175 225.429 416.685 232.887 416.685 241.465H417.142H417.598C417.598 232.78 416.07 225.184 412.997 218.689L412.584 218.884ZM417.142 241.465H416.685C416.685 250.114 415.175 257.606 412.171 263.955L412.584 264.15L412.997 264.345C416.07 257.85 417.598 250.219 417.598 241.465H417.142ZM412.584 264.15L412.17 263.958C409.232 270.312 405.141 275.215 399.902 278.685L400.154 279.066L400.406 279.447C405.802 275.873 409.998 270.832 412.999 264.342L412.584 264.15ZM400.154 279.066L399.906 278.683C394.668 282.084 388.679 283.788 381.924 283.788V284.245V284.702C388.841 284.702 395.006 282.953 400.403 279.449L400.154 279.066ZM381.717 273.472V273.929C388.564 273.929 393.854 271.128 397.532 265.54L397.15 265.289L396.769 265.038C393.265 270.361 388.266 273.016 381.717 273.016V273.472ZM397.15 265.289L397.532 265.54C401.192 259.979 402.993 252.004 402.993 241.672H402.537H402.08C402.08 251.92 400.29 259.689 396.769 265.038L397.15 265.289ZM402.537 241.672H402.993C402.993 231.067 401.159 222.951 397.426 217.387L397.047 217.641L396.668 217.896C400.255 223.243 402.08 231.147 402.08 241.672H402.537ZM397.047 217.641L397.43 217.392C393.754 211.737 388.499 208.898 381.717 208.898V209.355V209.811C388.192 209.811 393.158 212.496 396.664 217.89L397.047 217.641ZM381.717 209.355V208.898C375.001 208.898 369.749 211.739 366.006 217.389L366.386 217.641L366.767 217.893C370.343 212.495 375.311 209.811 381.717 209.811V209.355ZM366.386 217.641L366.003 217.392C362.344 223.023 360.543 231.136 360.543 241.672H361H361.457C361.457 231.217 363.247 223.309 366.769 217.89L366.386 217.641ZM361 241.672H360.543C360.543 251.936 362.345 259.909 366.003 265.538L366.386 265.289L366.769 265.04C363.246 259.621 361.457 251.849 361.457 241.672H361ZM366.386 265.289L366.005 265.54C369.682 271.126 374.936 273.929 381.717 273.929V273.472V273.016C375.238 273.016 370.273 270.363 366.768 265.038L366.386 265.289Z" fill="white" mask="url(#path-3-outside-1_787_8356)"/>
</g>
</g>
<defs>
<filter id="filter0_f_787_8356" x="-121.733" y="85.0436" width="667.989" height="463.213" filterUnits="userSpaceOnUse" color-interpolation-filters="sRGB">
<feFlood flood-opacity="0" result="BackgroundImageFix"/>
<feBlend mode="normal" in="SourceGraphic" in2="BackgroundImageFix" result="shape"/>
<feGaussianBlur stdDeviation="73.5109" result="effect1_foregroundBlur_787_8356"/>
</filter>
<linearGradient id="paint0_linear_787_8356" x1="224.069" y1="401.234" x2="252.125" y2="241.119" gradientUnits="userSpaceOnUse">
<stop stop-color="#39D373"/>
<stop offset="1" stop-color="#005F24"/>
</linearGradient>
<clipPath id="clip0_787_8356">
<rect width="327" height="307" rx="8.92559" fill="white"/>
</clipPath>
</defs>
</svg>
