<svg width="707" height="303" viewBox="0 0 707 303" fill="none" xmlns="http://www.w3.org/2000/svg">
<g clip-path="url(#clip0_787_8254)">
<rect width="707" height="303" rx="8.92559" fill="#0A0A0A"/>
<g filter="url(#filter0_f_787_8254)">
<ellipse cx="212.262" cy="335.245" rx="186.972" ry="84.5845" fill="url(#paint0_linear_787_8254)" fill-opacity="0.3"/>
</g>
<rect x="51" y="235" width="606" height="42" rx="21" fill="#444444"/>
<rect x="51" y="235" width="606" height="42" rx="21" stroke="url(#paint1_linear_787_8254)" stroke-width="1.67355"/>
<path d="M75.9316 262.656L75.9249 249.441H76.8956V262.656H75.9316Z" fill="white"/>
<path d="M78.719 260.5L82.2201 250.82H83.6192L87.1202 260.5H85.855L84.9044 257.849H80.9348L79.9775 260.5H78.719ZM81.2628 256.711H84.563L82.9163 252.032L81.2628 256.711ZM90.987 260.634C90.505 260.634 90.0565 260.56 89.6414 260.413C89.2308 260.261 88.8894 260.027 88.6172 259.71C88.345 259.389 88.1754 258.98 88.1084 258.485H89.2331C89.2911 258.757 89.4027 258.985 89.5678 259.168C89.7329 259.346 89.936 259.482 90.177 259.576C90.4224 259.665 90.6902 259.71 90.9803 259.71C91.4489 259.71 91.826 259.623 92.1116 259.449C92.3972 259.275 92.54 259.007 92.54 258.646C92.54 258.391 92.4641 258.188 92.3124 258.037C92.1651 257.88 91.9331 257.767 91.6162 257.695L90.1836 257.34C89.6258 257.206 89.1795 256.997 88.8448 256.711C88.5146 256.425 88.3472 256.026 88.3427 255.513C88.3427 255.107 88.4409 254.75 88.6373 254.442C88.8337 254.134 89.126 253.891 89.5142 253.712C89.907 253.534 90.3956 253.444 90.9803 253.444C91.7345 253.444 92.3414 253.614 92.8011 253.953C93.2607 254.288 93.5017 254.781 93.5241 255.432H92.4262C92.3816 255.102 92.2343 254.841 91.9844 254.649C91.7345 254.453 91.3953 254.355 90.9669 254.355C90.5295 254.355 90.1703 254.444 89.8891 254.623C89.6124 254.797 89.4741 255.069 89.4741 255.439C89.4741 255.685 89.5722 255.879 89.7686 256.022C89.9694 256.16 90.2595 256.276 90.6389 256.37L92.0312 256.718C92.3481 256.803 92.6114 256.914 92.8212 257.052C93.0309 257.191 93.196 257.345 93.3165 257.514C93.437 257.684 93.5218 257.862 93.5709 258.05C93.6245 258.233 93.6512 258.409 93.6512 258.579C93.6512 259.003 93.5464 259.369 93.3366 259.677C93.1269 259.98 92.8234 260.217 92.4262 260.386C92.029 260.551 91.5493 260.634 90.987 260.634ZM95.2694 260.5V250.552H96.5011V257.039L99.7545 253.578H101.174L98.6767 256.216L101.348 260.5H100.036L97.8667 257.026L96.5011 258.438V260.5H95.2694ZM106.043 260.5V253.578H107.234V254.582C107.426 254.279 107.69 254.013 108.024 253.786C108.359 253.558 108.794 253.444 109.33 253.444C109.58 253.444 109.834 253.487 110.093 253.572C110.356 253.656 110.597 253.783 110.816 253.953C111.034 254.123 111.204 254.33 111.325 254.576C111.539 254.236 111.829 253.964 112.195 253.759C112.561 253.549 112.974 253.444 113.433 253.444C113.674 253.444 113.926 253.482 114.19 253.558C114.453 253.63 114.696 253.759 114.919 253.946C115.147 254.129 115.332 254.386 115.475 254.716C115.618 255.042 115.689 255.462 115.689 255.975V260.5H114.444V256.095C114.444 255.676 114.377 255.352 114.243 255.125C114.109 254.892 113.933 254.73 113.714 254.636C113.5 254.542 113.27 254.495 113.025 254.495C112.811 254.495 112.583 254.538 112.342 254.623C112.101 254.707 111.896 254.85 111.726 255.051C111.557 255.252 111.472 255.526 111.472 255.874V260.5H110.24V255.734C110.24 255.462 110.166 255.234 110.019 255.051C109.876 254.868 109.696 254.73 109.477 254.636C109.263 254.542 109.049 254.495 108.834 254.495C108.598 254.495 108.359 254.542 108.118 254.636C107.881 254.73 107.681 254.879 107.516 255.084C107.355 255.285 107.275 255.549 107.275 255.874V260.5H106.043ZM120.552 260.634C119.91 260.634 119.343 260.493 118.852 260.212C118.361 259.931 117.977 259.527 117.701 259.001C117.424 258.474 117.285 257.842 117.285 257.106C117.285 256.379 117.41 255.74 117.66 255.192C117.91 254.643 118.272 254.214 118.745 253.906C119.222 253.598 119.796 253.444 120.465 253.444C121.117 253.444 121.668 253.585 122.119 253.866C122.569 254.147 122.911 254.544 123.143 255.058C123.379 255.566 123.498 256.171 123.498 256.872V257.327H118.537C118.537 257.764 118.609 258.161 118.752 258.519C118.899 258.871 119.12 259.152 119.414 259.362C119.709 259.572 120.081 259.677 120.532 259.677C120.974 259.677 121.353 259.574 121.67 259.369C121.992 259.163 122.197 258.867 122.286 258.478H123.451C123.371 258.947 123.183 259.342 122.889 259.663C122.598 259.985 122.248 260.228 121.838 260.393C121.431 260.554 121.003 260.634 120.552 260.634ZM118.544 256.49H122.306C122.306 256.093 122.239 255.736 122.105 255.419C121.971 255.098 121.766 254.846 121.489 254.663C121.217 254.475 120.874 254.382 120.459 254.382C120.026 254.382 119.666 254.486 119.381 254.696C119.095 254.901 118.883 255.167 118.745 255.493C118.606 255.814 118.54 256.147 118.544 256.49ZM130.329 260.634C129.878 260.634 129.481 260.556 129.137 260.4C128.798 260.239 128.53 260.009 128.334 259.71C128.142 259.411 128.046 259.05 128.046 258.626C128.046 257.858 128.314 257.287 128.849 256.912C129.385 256.537 130.244 256.336 131.426 256.309L132.658 256.276V255.734C132.658 255.31 132.531 254.975 132.277 254.73C132.022 254.48 131.63 254.355 131.098 254.355C130.701 254.359 130.351 254.453 130.047 254.636C129.744 254.819 129.55 255.118 129.465 255.533H128.374C128.401 255.082 128.526 254.703 128.749 254.395C128.976 254.083 129.295 253.846 129.706 253.685C130.117 253.525 130.601 253.444 131.159 253.444C131.761 253.444 132.261 253.529 132.658 253.699C133.06 253.868 133.359 254.118 133.555 254.448C133.756 254.779 133.856 255.185 133.856 255.667V260.5H132.799L132.705 259.201C132.442 259.741 132.103 260.116 131.688 260.326C131.277 260.531 130.824 260.634 130.329 260.634ZM130.697 259.744C130.933 259.744 131.165 259.701 131.393 259.616C131.625 259.532 131.835 259.418 132.022 259.275C132.214 259.128 132.368 258.965 132.484 258.786C132.6 258.603 132.658 258.416 132.658 258.224V257.039L131.634 257.059C131.103 257.068 130.661 257.122 130.309 257.22C129.956 257.318 129.69 257.472 129.512 257.682C129.333 257.891 129.244 258.166 129.244 258.505C129.244 258.893 129.38 259.197 129.652 259.416C129.925 259.634 130.273 259.744 130.697 259.744ZM135.788 260.5V253.578H136.986V254.582C137.097 254.39 137.251 254.21 137.448 254.04C137.648 253.871 137.889 253.734 138.171 253.632C138.456 253.529 138.784 253.478 139.155 253.478C139.592 253.478 139.994 253.565 140.36 253.739C140.73 253.913 141.025 254.185 141.243 254.556C141.466 254.922 141.578 255.395 141.578 255.975V260.5H140.34V256.095C140.34 255.555 140.197 255.156 139.911 254.897C139.63 254.634 139.264 254.502 138.813 254.502C138.501 254.502 138.209 254.553 137.936 254.656C137.664 254.754 137.443 254.906 137.274 255.111C137.104 255.312 137.019 255.566 137.019 255.874V260.5H135.788ZM143.982 262.709C143.576 262.709 143.297 262.68 143.145 262.622C142.993 262.564 142.917 262.535 142.917 262.535V261.732L143.627 261.745C143.881 261.754 144.093 261.736 144.263 261.692C144.433 261.647 144.569 261.587 144.671 261.511C144.774 261.435 144.852 261.35 144.906 261.256C144.964 261.163 145.01 261.073 145.046 260.989L145.287 260.333L142.583 253.578H143.835L145.876 258.92L147.905 253.578H149.116L146.204 261.022C146.021 261.46 145.818 261.801 145.595 262.046C145.376 262.292 145.131 262.464 144.859 262.562C144.591 262.66 144.299 262.709 143.982 262.709ZM153.034 260.533C152.556 260.533 152.186 260.469 151.922 260.339C151.659 260.21 151.474 260.018 151.367 259.764C151.264 259.509 151.213 259.197 151.213 258.826V254.482H150.088V253.578H151.246L151.547 251.563H152.458V253.572H154.018V254.482H152.458V258.786C152.458 259.032 152.482 259.212 152.531 259.329C152.585 259.44 152.672 259.511 152.793 259.543C152.913 259.574 153.083 259.59 153.301 259.59H154.058V260.42C153.973 260.451 153.844 260.478 153.669 260.5C153.5 260.522 153.288 260.533 153.034 260.533ZM155.7 260.5V250.552H156.905V254.596C157.021 254.404 157.177 254.225 157.374 254.06C157.57 253.891 157.809 253.754 158.09 253.652C158.371 253.545 158.697 253.491 159.067 253.491C159.518 253.491 159.926 253.576 160.292 253.746C160.658 253.911 160.948 254.147 161.163 254.455C161.377 254.763 161.484 255.129 161.484 255.553V260.5H160.245V255.801C160.245 255.386 160.103 255.067 159.817 254.843C159.536 254.616 159.168 254.502 158.713 254.502C158.405 254.502 158.114 254.553 157.842 254.656C157.57 254.754 157.349 254.906 157.18 255.111C157.014 255.312 156.932 255.569 156.932 255.881V260.5H155.7ZM163.448 260.5V253.578H164.646V260.5H163.448ZM163.414 252.112V250.827H164.679V252.112H163.414ZM166.8 260.5V253.578H167.999V254.582C168.11 254.39 168.264 254.21 168.461 254.04C168.661 253.871 168.902 253.734 169.184 253.632C169.469 253.529 169.797 253.478 170.168 253.478C170.605 253.478 171.007 253.565 171.373 253.739C171.743 253.913 172.038 254.185 172.256 254.556C172.479 254.922 172.591 255.395 172.591 255.975V260.5H171.352V256.095C171.352 255.555 171.21 255.156 170.924 254.897C170.643 254.634 170.277 254.502 169.826 254.502C169.514 254.502 169.222 254.553 168.949 254.656C168.677 254.754 168.456 254.906 168.287 255.111C168.117 255.312 168.032 255.566 168.032 255.874V260.5H166.8ZM177.453 262.789C176.368 262.789 175.523 262.631 174.916 262.314C174.309 262.002 174.005 261.553 174.005 260.969C174.005 260.719 174.063 260.507 174.179 260.333C174.295 260.154 174.434 260.007 174.594 259.891C174.755 259.775 174.905 259.683 175.043 259.616C175.181 259.545 175.273 259.494 175.317 259.462C175.237 259.418 175.141 259.362 175.03 259.295C174.918 259.228 174.818 259.139 174.728 259.027C174.644 258.916 174.601 258.771 174.601 258.592C174.601 258.373 174.704 258.173 174.909 257.99C175.114 257.807 175.42 257.671 175.826 257.581C175.42 257.376 175.103 257.104 174.876 256.765C174.648 256.425 174.534 256.057 174.534 255.66C174.534 255.214 174.655 254.826 174.896 254.495C175.137 254.165 175.483 253.913 175.933 253.739C176.384 253.56 176.922 253.471 177.547 253.471C177.997 253.471 178.374 253.525 178.678 253.632C178.986 253.734 179.271 253.882 179.535 254.074C179.606 254.042 179.72 253.995 179.876 253.933C180.032 253.866 180.202 253.795 180.385 253.719C180.572 253.643 180.746 253.572 180.907 253.505C181.072 253.433 181.204 253.38 181.302 253.344L181.295 254.489L180.084 254.716C180.155 254.859 180.211 255.015 180.251 255.185C180.291 255.354 180.311 255.513 180.311 255.66C180.311 256.066 180.204 256.434 179.99 256.765C179.78 257.095 179.461 257.358 179.033 257.555C178.604 257.751 178.069 257.849 177.426 257.849C177.373 257.849 177.303 257.849 177.219 257.849C177.138 257.845 177.069 257.84 177.011 257.836C176.538 257.849 176.212 257.903 176.034 257.996C175.86 258.086 175.773 258.186 175.773 258.298C175.773 258.427 175.873 258.516 176.074 258.565C176.275 258.614 176.614 258.657 177.091 258.693C177.265 258.701 177.48 258.713 177.734 258.726C177.993 258.739 178.281 258.757 178.598 258.78C179.321 258.824 179.878 259.009 180.271 259.335C180.664 259.661 180.86 260.101 180.86 260.654C180.86 261.283 180.579 261.796 180.017 262.194C179.459 262.591 178.604 262.789 177.453 262.789ZM177.674 261.993C178.312 261.993 178.801 261.897 179.14 261.705C179.483 261.513 179.655 261.223 179.655 260.835C179.655 260.558 179.55 260.333 179.341 260.159C179.131 259.98 178.814 259.877 178.39 259.851L176.449 259.723C176.275 259.715 176.094 259.759 175.907 259.857C175.719 259.951 175.561 260.083 175.431 260.252C175.302 260.422 175.237 260.614 175.237 260.828C175.237 261.194 175.436 261.48 175.833 261.685C176.23 261.89 176.844 261.993 177.674 261.993ZM177.466 257.052C177.962 257.052 178.361 256.936 178.665 256.704C178.972 256.472 179.126 256.129 179.126 255.673C179.126 255.205 178.972 254.848 178.665 254.602C178.361 254.357 177.962 254.234 177.466 254.234C176.958 254.234 176.547 254.359 176.235 254.609C175.927 254.855 175.773 255.209 175.773 255.673C175.773 256.111 175.92 256.45 176.214 256.691C176.513 256.932 176.931 257.052 177.466 257.052ZM182.568 260.5V258.92H184.041V260.5H182.568ZM186.255 260.5V258.92H187.728V260.5H186.255ZM189.942 260.5V258.92H191.415V260.5H189.942Z" fill="#A3A3A3"/>
<rect x="82" y="151.735" width="33.471" height="33.471" rx="16.7355" fill="#444444"/>
<path d="M104.313 169.586C104.315 169.814 104.245 170.036 104.115 170.223C103.985 170.409 103.8 170.551 103.586 170.628L99.9898 171.957L98.6649 175.557C98.5864 175.77 98.4445 175.954 98.2582 176.084C98.0719 176.214 97.8502 176.283 97.6231 176.283C97.396 176.283 97.1743 176.214 96.988 176.084C96.8017 175.954 96.6598 175.77 96.5813 175.557L95.248 171.957L91.6485 170.632C91.4354 170.554 91.2514 170.412 91.1215 170.226C90.9915 170.039 90.9219 169.818 90.9219 169.591C90.9219 169.364 90.9915 169.142 91.1215 168.956C91.2514 168.769 91.4354 168.627 91.6485 168.549L95.248 167.216L96.5729 163.616C96.6514 163.403 96.7933 163.219 96.9796 163.089C97.1659 162.959 97.3876 162.889 97.6147 162.889C97.8418 162.889 98.0635 162.959 98.2498 163.089C98.4361 163.219 98.578 163.403 98.6565 163.616L99.9898 167.216L103.589 168.54C103.803 168.618 103.988 168.761 104.118 168.948C104.247 169.136 104.316 169.359 104.313 169.586ZM100.408 162.892H101.524V164.008C101.524 164.156 101.583 164.298 101.687 164.402C101.792 164.507 101.934 164.566 102.082 164.566C102.23 164.566 102.372 164.507 102.476 164.402C102.581 164.298 102.64 164.156 102.64 164.008V162.892H103.755C103.903 162.892 104.045 162.833 104.15 162.729C104.254 162.624 104.313 162.482 104.313 162.334C104.313 162.186 104.254 162.045 104.15 161.94C104.045 161.835 103.903 161.777 103.755 161.777H102.64V160.661C102.64 160.513 102.581 160.371 102.476 160.266C102.372 160.162 102.23 160.103 102.082 160.103C101.934 160.103 101.792 160.162 101.687 160.266C101.583 160.371 101.524 160.513 101.524 160.661V161.777H100.408C100.26 161.777 100.118 161.835 100.014 161.94C99.9091 162.045 99.8503 162.186 99.8503 162.334C99.8503 162.482 99.9091 162.624 100.014 162.729C100.118 162.833 100.26 162.892 100.408 162.892ZM106.544 165.124H105.987V164.566C105.987 164.418 105.928 164.276 105.823 164.171C105.719 164.067 105.577 164.008 105.429 164.008C105.281 164.008 105.139 164.067 105.034 164.171C104.93 164.276 104.871 164.418 104.871 164.566V165.124H104.313C104.165 165.124 104.023 165.182 103.919 165.287C103.814 165.392 103.755 165.534 103.755 165.682C103.755 165.829 103.814 165.971 103.919 166.076C104.023 166.181 104.165 166.239 104.313 166.239H104.871V166.797C104.871 166.945 104.93 167.087 105.034 167.192C105.139 167.296 105.281 167.355 105.429 167.355C105.577 167.355 105.719 167.296 105.823 167.192C105.928 167.087 105.987 166.945 105.987 166.797V166.239H106.544C106.692 166.239 106.834 166.181 106.939 166.076C107.044 165.971 107.102 165.829 107.102 165.682C107.102 165.534 107.044 165.392 106.939 165.287C106.834 165.182 106.692 165.124 106.544 165.124Z" fill="white"/>
<circle cx="135.074" cy="180.664" r="4.54254" fill="#D9D9D9" fill-opacity="0.3"/>
<circle cx="147.507" cy="180.664" r="4.54254" fill="#D9D9D9" fill-opacity="0.6"/>
<circle cx="159.937" cy="180.664" r="4.54254" fill="#D9D9D9"/>
<rect x="436" y="49.6455" width="146.916" height="32.9162" rx="11.2775" fill="#444444"/>
<path d="M445.523 70.1035L445.528 62.037H446.582V69.1775H450.393V70.1035H445.523ZM451.778 70.1035V64.3354H452.776V70.1035H451.778ZM451.75 63.1137V62.0426H452.804V63.1137H451.75ZM456.582 70.2151C456.18 70.2151 455.806 70.1537 455.46 70.031C455.118 69.9045 454.834 69.7093 454.607 69.4453C454.38 69.1775 454.239 68.8372 454.183 68.4244H455.12C455.168 68.6512 455.261 68.8409 455.399 68.9934C455.536 69.1422 455.706 69.2556 455.907 69.3337C456.111 69.4081 456.334 69.4453 456.576 69.4453C456.966 69.4453 457.281 69.3727 457.519 69.2277C457.757 69.0827 457.876 68.8595 457.876 68.5583C457.876 68.3463 457.813 68.1771 457.686 68.0506C457.563 67.9205 457.37 67.8256 457.106 67.7661L455.912 67.4705C455.447 67.3589 455.075 67.1841 454.796 66.9461C454.521 66.7081 454.382 66.3752 454.378 65.9475C454.378 65.6091 454.46 65.3116 454.623 65.055C454.787 64.7984 455.031 64.5957 455.354 64.4469C455.682 64.2982 456.089 64.2238 456.576 64.2238C457.204 64.2238 457.71 64.3651 458.093 64.6478C458.476 64.9267 458.677 65.3376 458.696 65.8806H457.781C457.744 65.6054 457.621 65.3878 457.413 65.2279C457.204 65.0643 456.922 64.9825 456.565 64.9825C456.2 64.9825 455.901 65.0568 455.667 65.2056C455.436 65.3506 455.321 65.5775 455.321 65.8862C455.321 66.0907 455.403 66.2525 455.566 66.3715C455.734 66.4868 455.975 66.5835 456.291 66.6616L457.452 66.9517C457.716 67.0223 457.935 67.1153 458.11 67.2306C458.285 67.3459 458.422 67.4742 458.523 67.6155C458.623 67.7568 458.694 67.9056 458.735 68.0618C458.779 68.2143 458.802 68.3612 458.802 68.5025C458.802 68.8558 458.714 69.1608 458.54 69.4174C458.365 69.6703 458.112 69.8674 457.781 70.0087C457.45 70.1463 457.05 70.2151 456.582 70.2151ZM462.145 70.1314C461.747 70.1314 461.438 70.0775 461.219 69.9696C460.999 69.8618 460.845 69.7019 460.756 69.4899C460.67 69.2779 460.627 69.0176 460.627 68.7089V65.0885H459.69V64.3354H460.655L460.906 62.6562H461.665V64.3298H462.965V65.0885H461.665V68.6754C461.665 68.88 461.685 69.0306 461.726 69.1273C461.771 69.2203 461.843 69.2798 461.944 69.3058C462.044 69.3318 462.186 69.3448 462.368 69.3448H462.998V70.0366C462.927 70.0626 462.82 70.0849 462.675 70.1035C462.533 70.1221 462.357 70.1314 462.145 70.1314ZM467.108 70.1035V64.3354H468.106V70.1035H467.108ZM467.08 63.1137V62.0426H468.134V63.1137H467.08ZM471.951 70.1314C471.553 70.1314 471.244 70.0775 471.025 69.9696C470.805 69.8618 470.651 69.7019 470.561 69.4899C470.476 69.2779 470.433 69.0176 470.433 68.7089V65.0885H469.496V64.3354H470.461L470.712 62.6562H471.471V64.3298H472.771V65.0885H471.471V68.6754C471.471 68.88 471.491 69.0306 471.532 69.1273C471.577 69.2203 471.649 69.2798 471.75 69.3058C471.85 69.3318 471.991 69.3448 472.174 69.3448H472.804V70.0366C472.733 70.0626 472.626 70.0849 472.48 70.1035C472.339 70.1221 472.163 70.1314 471.951 70.1314ZM476.458 70.2151C475.922 70.2151 475.45 70.0979 475.041 69.8636C474.632 69.6293 474.312 69.2928 474.082 68.8539C473.851 68.4151 473.736 67.8889 473.736 67.2752C473.736 66.669 473.84 66.1372 474.048 65.6798C474.256 65.2223 474.558 64.8653 474.952 64.6087C475.35 64.3521 475.828 64.2238 476.385 64.2238C476.928 64.2238 477.388 64.3409 477.763 64.5752C478.139 64.8095 478.423 65.1405 478.617 65.5682C478.814 65.9922 478.913 66.4961 478.913 67.08V67.4593H474.779C474.779 67.8238 474.838 68.1548 474.957 68.4523C475.08 68.7461 475.264 68.9804 475.51 69.1552C475.755 69.33 476.066 69.4174 476.441 69.4174C476.809 69.4174 477.126 69.3318 477.39 69.1608C477.657 68.9897 477.828 68.7424 477.903 68.4188H478.873C478.807 68.8093 478.65 69.1384 478.405 69.4062C478.163 69.674 477.871 69.8767 477.529 70.0143C477.191 70.1481 476.834 70.2151 476.458 70.2151ZM474.784 66.762H477.92C477.92 66.431 477.864 66.1335 477.752 65.8694C477.641 65.6017 477.47 65.3915 477.239 65.2391C477.012 65.0829 476.726 65.0048 476.38 65.0048C476.019 65.0048 475.72 65.0922 475.482 65.267C475.244 65.438 475.067 65.6593 474.952 65.9308C474.836 66.1986 474.781 66.4756 474.784 66.762ZM480.34 70.1035V64.3354H481.333V65.1721C481.492 64.9192 481.712 64.698 481.991 64.5083C482.27 64.3186 482.632 64.2238 483.079 64.2238C483.287 64.2238 483.499 64.2591 483.715 64.3298C483.934 64.4004 484.135 64.5064 484.317 64.6478C484.499 64.7891 484.641 64.962 484.741 65.1665C484.919 64.8839 485.161 64.657 485.466 64.486C485.771 64.3112 486.115 64.2238 486.498 64.2238C486.699 64.2238 486.909 64.2554 487.129 64.3186C487.348 64.3781 487.551 64.486 487.737 64.6422C487.926 64.7947 488.081 65.0085 488.2 65.2837C488.319 65.5552 488.378 65.9048 488.378 66.3325V70.1035H487.341V66.4329C487.341 66.0833 487.285 65.8137 487.173 65.624C487.062 65.4306 486.915 65.2949 486.732 65.2168C486.554 65.1387 486.362 65.0996 486.158 65.0996C485.979 65.0996 485.79 65.1349 485.589 65.2056C485.388 65.2763 485.217 65.3953 485.076 65.5626C484.934 65.73 484.864 65.9587 484.864 66.2488V70.1035H483.837V66.1316C483.837 65.9048 483.776 65.7151 483.653 65.5626C483.534 65.4101 483.384 65.2949 483.201 65.2168C483.023 65.1387 482.844 65.0996 482.666 65.0996C482.469 65.0996 482.27 65.1387 482.069 65.2168C481.872 65.2949 481.704 65.4194 481.567 65.5905C481.433 65.7579 481.366 65.9773 481.366 66.2488V70.1035H480.34ZM492.014 70.2151C491.612 70.2151 491.238 70.1537 490.892 70.031C490.55 69.9045 490.266 69.7093 490.039 69.4453C489.812 69.1775 489.671 68.8372 489.615 68.4244H490.552C490.6 68.6512 490.693 68.8409 490.831 68.9934C490.969 69.1422 491.138 69.2556 491.339 69.3337C491.543 69.4081 491.766 69.4453 492.008 69.4453C492.399 69.4453 492.713 69.3727 492.951 69.2277C493.189 69.0827 493.308 68.8595 493.308 68.5583C493.308 68.3463 493.245 68.1771 493.118 68.0506C492.995 67.9205 492.802 67.8256 492.538 67.7661L491.344 67.4705C490.879 67.3589 490.507 67.1841 490.229 66.9461C489.953 66.7081 489.814 66.3752 489.81 65.9475C489.81 65.6091 489.892 65.3116 490.056 65.055C490.219 64.7984 490.463 64.5957 490.786 64.4469C491.114 64.2982 491.521 64.2238 492.008 64.2238C492.637 64.2238 493.142 64.3651 493.525 64.6478C493.909 64.9267 494.109 65.3376 494.128 65.8806H493.213C493.176 65.6054 493.053 65.3878 492.845 65.2279C492.637 65.0643 492.354 64.9825 491.997 64.9825C491.632 64.9825 491.333 65.0568 491.099 65.2056C490.868 65.3506 490.753 65.5775 490.753 65.8862C490.753 66.0907 490.835 66.2525 490.998 66.3715C491.166 66.4868 491.407 66.5835 491.724 66.6616L492.884 66.9517C493.148 67.0223 493.367 67.1153 493.542 67.2306C493.717 67.3459 493.855 67.4742 493.955 67.6155C494.055 67.7568 494.126 67.9056 494.167 68.0618C494.212 68.2143 494.234 68.3612 494.234 68.5025C494.234 68.8558 494.147 69.1608 493.972 69.4174C493.797 69.6703 493.544 69.8674 493.213 70.0087C492.882 70.1463 492.482 70.2151 492.014 70.2151ZM500.372 70.2151C500.07 70.2114 499.786 70.1686 499.518 70.0868C499.254 70.0012 499.02 69.8767 498.815 69.713C498.611 69.5494 498.449 69.3467 498.33 69.105C498.215 68.8595 498.157 68.575 498.157 68.2515V64.3354H499.189V68.1455C499.189 68.5211 499.304 68.826 499.535 69.0603C499.769 69.2946 500.121 69.4118 500.589 69.4118C501.013 69.4118 501.353 69.3021 501.61 69.0827C501.87 68.8595 502 68.5285 502 68.0897V64.3354H503.027V70.1035H502.207L502.101 68.999C502.03 69.2891 501.909 69.5234 501.738 69.7019C501.571 69.8804 501.368 70.0124 501.13 70.0979C500.896 70.1798 500.643 70.2188 500.372 70.2151ZM504.789 70.1035V64.3354H505.788V65.1721C505.881 65.0122 506.009 64.8616 506.172 64.7203C506.34 64.5789 506.541 64.4655 506.775 64.38C507.013 64.2944 507.286 64.2517 507.595 64.2517C507.959 64.2517 508.294 64.3242 508.599 64.4692C508.908 64.6143 509.153 64.8411 509.336 65.1498C509.521 65.4548 509.614 65.849 509.614 66.3325V70.1035H508.582V66.4329C508.582 65.9829 508.463 65.65 508.225 65.4343C507.991 65.2149 507.686 65.1052 507.311 65.1052C507.05 65.1052 506.807 65.148 506.58 65.2335C506.353 65.3153 506.169 65.4418 506.027 65.6128C505.886 65.7802 505.815 65.9922 505.815 66.2488V70.1035H504.789ZM513.331 70.2151C512.58 70.2151 511.985 69.9585 511.546 69.4453C511.111 68.932 510.894 68.1827 510.894 67.1971C510.894 66.5984 510.981 66.0758 511.156 65.6296C511.331 65.1833 511.593 64.8374 511.942 64.592C512.292 64.3465 512.727 64.2238 513.248 64.2238C513.527 64.2238 513.772 64.2591 513.984 64.3298C514.196 64.4004 514.38 64.4897 514.536 64.5975C514.693 64.7054 514.819 64.817 514.916 64.9323C515.016 65.0475 515.09 65.1535 515.139 65.2502V61.8139H516.182V70.1035H515.39L515.278 68.9209C515.241 69.0324 515.182 69.1626 515.1 69.3114C515.018 69.4564 514.903 69.5996 514.754 69.7409C514.609 69.8785 514.419 69.9919 514.185 70.0812C513.951 70.1705 513.666 70.2151 513.331 70.2151ZM513.515 69.4229C514.096 69.4229 514.51 69.2463 514.759 68.893C515.012 68.536 515.139 67.9539 515.139 67.1469C515.135 66.6969 515.079 66.3139 514.971 65.9977C514.864 65.6816 514.693 65.4418 514.458 65.2781C514.228 65.1108 513.919 65.0271 513.532 65.0271C513.06 65.0271 512.675 65.1963 512.377 65.5347C512.08 65.8732 511.931 66.4106 511.931 67.1469C511.931 67.8684 512.065 68.4281 512.333 68.826C512.601 69.224 512.995 69.4229 513.515 69.4229ZM520.323 70.2151C519.788 70.2151 519.315 70.0979 518.906 69.8636C518.497 69.6293 518.177 69.2928 517.947 68.8539C517.716 68.4151 517.601 67.8889 517.601 67.2752C517.601 66.669 517.705 66.1372 517.913 65.6798C518.122 65.2223 518.423 64.8653 518.817 64.6087C519.215 64.3521 519.693 64.2238 520.251 64.2238C520.794 64.2238 521.253 64.3409 521.629 64.5752C522.004 64.8095 522.289 65.1405 522.482 65.5682C522.679 65.9922 522.778 66.4961 522.778 67.08V67.4593H518.644C518.644 67.8238 518.704 68.1548 518.823 68.4523C518.945 68.7461 519.129 68.9804 519.375 69.1552C519.62 69.33 519.931 69.4174 520.306 69.4174C520.675 69.4174 520.991 69.3318 521.255 69.1608C521.523 68.9897 521.694 68.7424 521.768 68.4188H522.739C522.672 68.8093 522.516 69.1384 522.27 69.4062C522.028 69.674 521.736 69.8767 521.394 70.0143C521.056 70.1481 520.699 70.2151 520.323 70.2151ZM518.65 66.762H521.785C521.785 66.431 521.729 66.1335 521.617 65.8694C521.506 65.6017 521.335 65.3915 521.104 65.2391C520.877 65.0829 520.591 65.0048 520.245 65.0048C519.884 65.0048 519.585 65.0922 519.347 65.267C519.109 65.438 518.932 65.6593 518.817 65.9308C518.702 66.1986 518.646 66.4756 518.65 66.762ZM524.205 70.1035V64.3354H525.187V65.4455C525.283 65.1703 525.419 64.9434 525.594 64.7649C525.769 64.5827 525.968 64.4469 526.191 64.3577C526.418 64.2684 526.652 64.2238 526.894 64.2238C526.979 64.2238 527.063 64.2294 527.145 64.2405C527.226 64.2517 527.29 64.2703 527.334 64.2963V65.2949C527.279 65.2688 527.206 65.2521 527.117 65.2446C527.031 65.2335 526.959 65.2279 526.899 65.2279C526.669 65.213 526.453 65.2279 526.252 65.2725C526.051 65.3135 525.875 65.386 525.722 65.4901C525.57 65.5942 525.449 65.7318 525.36 65.9029C525.274 66.0703 525.231 66.2748 525.231 66.5165V70.1035H524.205ZM537.948 71.4535C537.684 71.4535 537.405 71.42 537.111 71.3531C536.817 71.2899 536.529 71.1616 536.246 70.9682C535.967 70.7785 535.711 70.494 535.477 70.1147C535.291 70.1481 535.123 70.1723 534.975 70.1872C534.826 70.2058 534.675 70.2151 534.523 70.2151C533.812 70.2151 533.195 70.057 532.671 69.7409C532.146 69.4211 531.741 68.9543 531.454 68.3407C531.168 67.7271 531.025 66.9758 531.025 66.087C531.025 65.2019 531.166 64.4488 531.449 63.8277C531.735 63.2066 532.141 62.7343 532.665 62.4108C533.189 62.0872 533.809 61.9254 534.523 61.9254C535.24 61.9254 535.86 62.0872 536.38 62.4108C536.905 62.7343 537.306 63.2066 537.585 63.8277C537.868 64.4488 538.009 65.2019 538.009 66.087C538.009 66.9201 537.885 67.636 537.635 68.2347C537.39 68.8298 536.99 69.3058 536.436 69.6628C536.574 69.9678 536.776 70.1928 537.044 70.3378C537.316 70.4866 537.617 70.5665 537.948 70.5777V71.4535ZM534.523 69.3169C535.274 69.3169 535.854 69.0585 536.263 68.5415C536.676 68.0246 536.882 67.2083 536.882 66.0926C536.882 64.988 536.678 64.168 536.269 63.6325C535.863 63.0932 535.281 62.8236 534.523 62.8236C533.768 62.8236 533.186 63.0932 532.777 63.6325C532.371 64.1717 532.169 64.9973 532.169 66.1093C532.169 67.2176 532.373 68.0302 532.782 68.5471C533.195 69.0603 533.775 69.3169 534.523 69.3169ZM542.747 70.2151C542.022 70.2151 541.403 70.0496 540.89 69.7186C540.38 69.3876 539.99 68.9116 539.718 68.2905C539.45 67.6694 539.316 66.9201 539.316 66.0424C539.316 65.1684 539.45 64.4246 539.718 63.811C539.986 63.1973 540.374 62.7306 540.884 62.4108C541.397 62.0872 542.018 61.9254 542.747 61.9254C543.316 61.9254 543.82 62.0445 544.259 62.2825C544.698 62.5168 545.051 62.831 545.319 63.2252C545.587 63.6194 545.745 64.0527 545.793 64.525H544.694C544.635 64.2089 544.521 63.9225 544.354 63.6659C544.186 63.4093 543.967 63.2048 543.696 63.0523C543.424 62.8998 543.099 62.8236 542.719 62.8236C542.232 62.8236 541.819 62.9389 541.481 63.1694C541.146 63.3963 540.891 63.7478 540.717 64.2238C540.546 64.6998 540.46 65.3097 540.46 66.0535C540.46 67.1767 540.652 68.0023 541.035 68.5304C541.421 69.0548 541.983 69.3169 542.719 69.3169C543.099 69.3169 543.424 69.237 543.696 69.0771C543.967 68.9172 544.186 68.7033 544.354 68.4355C544.521 68.1678 544.635 67.8777 544.694 67.5653H545.793C545.752 67.9074 545.659 68.2384 545.514 68.5583C545.373 68.8744 545.178 69.157 544.928 69.4062C544.679 69.6554 544.372 69.8525 544.008 69.9975C543.647 70.1426 543.227 70.2151 542.747 70.2151ZM550.174 70.1035V62.037H551.206V65.4734H555.557V62.037H556.589V70.1035H555.557V66.3827H551.206V70.1035H550.174ZM560.737 70.2151C560.205 70.2151 559.74 70.1017 559.342 69.8748C558.948 69.6442 558.641 69.3077 558.422 68.8651C558.203 68.4225 558.093 67.8814 558.093 67.2417C558.093 66.6393 558.195 66.1112 558.4 65.6575C558.604 65.2037 558.904 64.8523 559.298 64.6031C559.692 64.3502 560.174 64.2238 560.743 64.2238C561.274 64.2238 561.736 64.3409 562.126 64.5752C562.517 64.8058 562.82 65.1461 563.035 65.5961C563.255 66.0461 563.365 66.5946 563.365 67.2417C563.365 67.8294 563.264 68.3463 563.063 68.7926C562.862 69.2388 562.567 69.5884 562.176 69.8413C561.79 70.0905 561.31 70.2151 560.737 70.2151ZM560.743 69.4006C561.085 69.4006 561.375 69.3132 561.613 69.1384C561.851 68.9636 562.031 68.7126 562.154 68.3853C562.28 68.0581 562.344 67.6694 562.344 67.2194C562.344 66.8066 562.288 66.4366 562.176 66.1093C562.068 65.7783 561.897 65.5161 561.663 65.3227C561.429 65.1294 561.122 65.0327 560.743 65.0327C560.393 65.0327 560.097 65.1201 559.856 65.2949C559.614 65.4659 559.43 65.7151 559.303 66.0424C559.181 66.3696 559.119 66.762 559.119 67.2194C559.119 67.6248 559.173 67.993 559.281 68.324C559.393 68.655 559.567 68.9172 559.805 69.1105C560.047 69.3039 560.36 69.4006 560.743 69.4006ZM566.192 70.176C565.88 70.176 565.627 70.1333 565.433 70.0477C565.244 69.9622 565.097 69.8469 564.993 69.7019C564.892 69.5568 564.823 69.3913 564.786 69.2054C564.753 69.0157 564.736 68.8205 564.736 68.6196V61.8139H565.751V68.5192C565.751 68.8093 565.807 69.0269 565.919 69.1719C566.034 69.3169 566.194 69.3969 566.398 69.4118L566.711 69.4174V70.0868C566.625 70.1128 566.536 70.1333 566.443 70.1481C566.35 70.1667 566.266 70.176 566.192 70.176ZM569.944 70.2151C569.193 70.2151 568.598 69.9585 568.159 69.4453C567.724 68.932 567.507 68.1827 567.507 67.1971C567.507 66.5984 567.594 66.0758 567.769 65.6296C567.944 65.1833 568.206 64.8374 568.555 64.592C568.905 64.3465 569.34 64.2238 569.861 64.2238C570.14 64.2238 570.385 64.2591 570.597 64.3298C570.809 64.4004 570.993 64.4897 571.149 64.5975C571.305 64.7054 571.432 64.817 571.529 64.9323C571.629 65.0475 571.703 65.1535 571.752 65.2502V61.8139H572.795V70.1035H572.003L571.891 68.9209C571.854 69.0324 571.795 69.1626 571.713 69.3114C571.631 69.4564 571.516 69.5996 571.367 69.7409C571.222 69.8785 571.032 69.9919 570.798 70.0812C570.564 70.1705 570.279 70.2151 569.944 70.2151ZM570.128 69.4229C570.709 69.4229 571.123 69.2463 571.372 68.893C571.625 68.536 571.752 67.9539 571.752 67.1469C571.748 66.6969 571.692 66.3139 571.584 65.9977C571.477 65.6816 571.305 65.4418 571.071 65.2781C570.841 65.1108 570.532 65.0271 570.145 65.0271C569.673 65.0271 569.288 65.1963 568.99 65.5347C568.693 65.8732 568.544 66.4106 568.544 67.1469C568.544 67.8684 568.678 68.4281 568.946 68.826C569.214 69.224 569.608 69.4229 570.128 69.4229Z" fill="white"/>
<rect x="595.188" y="49.0908" width="33.471" height="33.471" rx="16.7355" fill="#444444"/>
<path d="M619.101 72.242C619.052 72.3268 618.981 72.3972 618.897 72.4462C618.812 72.4951 618.715 72.5209 618.618 72.5209H605.229C605.131 72.5208 605.035 72.4949 604.95 72.4459C604.866 72.3969 604.795 72.3265 604.746 72.2417C604.698 72.1569 604.672 72.0608 604.672 71.9629C604.672 71.865 604.698 71.7689 604.747 71.6841C605.809 69.8481 607.445 68.5316 609.355 67.9075C608.41 67.3451 607.676 66.4881 607.266 65.4681C606.855 64.4482 606.791 63.3217 607.083 62.2616C607.374 61.2015 608.006 60.2665 608.88 59.6001C609.755 58.9337 610.824 58.5728 611.923 58.5728C613.023 58.5728 614.092 58.9337 614.966 59.6001C615.841 60.2665 616.472 61.2015 616.764 62.2616C617.056 63.3217 616.991 64.4482 616.581 65.4681C616.17 66.4881 615.436 67.3451 614.492 67.9075C616.401 68.5316 618.038 69.8481 619.1 71.6841C619.149 71.7688 619.175 71.865 619.175 71.9629C619.175 72.0609 619.15 72.1571 619.101 72.242Z" fill="white"/>
</g>
<defs>
<filter id="filter0_f_787_8254" x="-121.733" y="103.639" width="667.989" height="463.213" filterUnits="userSpaceOnUse" color-interpolation-filters="sRGB">
<feFlood flood-opacity="0" result="BackgroundImageFix"/>
<feBlend mode="normal" in="SourceGraphic" in2="BackgroundImageFix" result="shape"/>
<feGaussianBlur stdDeviation="73.5109" result="effect1_foregroundBlur_787_8254"/>
</filter>
<linearGradient id="paint0_linear_787_8254" x1="224.069" y1="419.83" x2="252.125" y2="259.715" gradientUnits="userSpaceOnUse">
<stop stop-color="#39D373"/>
<stop offset="1" stop-color="#005F24"/>
</linearGradient>
<linearGradient id="paint1_linear_787_8254" x1="428.27" y1="276.915" x2="431.947" y2="255.745" gradientUnits="userSpaceOnUse">
<stop stop-color="#1C984B"/>
<stop offset="1" stop-color="#171717"/>
</linearGradient>
<clipPath id="clip0_787_8254">
<rect width="707" height="303" rx="8.92559" fill="white"/>
</clipPath>
</defs>
</svg>
