<svg width="549" height="287" viewBox="0 0 549 287" fill="none" xmlns="http://www.w3.org/2000/svg">
<g clip-path="url(#clip0_632_2046)">
<rect x="0.5" y="0.5" width="548" height="285.159" rx="23.5" fill="#171717" stroke="#404040"/>
<g filter="url(#filter0_f_632_2046)">
<circle cx="20.7092" cy="275.975" r="81.2092" fill="url(#paint0_linear_632_2046)" fill-opacity="0.3"/>
</g>
<path opacity="0.5" fill-rule="evenodd" clip-rule="evenodd" d="M124.472 262.474C124.472 262.474 183.369 224.426 203.371 228.885C241.412 237.365 241.802 216.057 254.726 204.733C266.55 194.372 277.438 199.201 292.383 209.446C303.406 217.002 319.621 229.874 335.035 226.315C349.124 223.062 357.88 205.674 377.301 199.834C392.693 195.205 406.172 203.322 423.945 198.595C448.056 192.182 456.872 165.409 474.361 163.967C495.946 162.186 509.355 139.052 528.992 137.432C548.512 135.822 552.213 148.47 574.302 155.724C591.19 161.269 598.481 153.729 598.481 153.729L604.515 227.578L110.702 263.475L124.472 262.474Z" fill="url(#paint1_linear_632_2046)"/>
<path d="M166.346 227.541C166.346 227.541 183.299 223.637 203.293 228.008C241.321 236.322 241.736 215.32 254.672 204.143C266.507 193.917 277.389 198.663 292.32 208.743C303.332 216.178 319.531 228.846 334.947 225.32C349.039 222.097 357.815 204.948 377.24 199.169C392.636 194.588 406.105 202.573 423.882 197.892C447.998 191.543 456.845 165.145 474.334 163.702C495.919 161.922 509.35 139.052 528.986 137.433C548.506 135.823 550.584 148.47 572.663 155.592C589.542 161.038 598.454 153.465 598.454 153.465" stroke="#16A34A" stroke-width="6.27999" stroke-linecap="round" stroke-linejoin="round"/>
<rect x="31.3906" y="133.709" width="203.749" height="45" rx="7.5" fill="#444444"/>
<rect x="31.3906" y="214.358" width="203.749" height="45" rx="7.5" fill="#444444"/>
<circle cx="457.99" cy="165.55" r="10.8241" transform="rotate(-4.69278 457.99 165.55)" fill="white" stroke="#16A34A" stroke-width="7.607"/>
<path d="M63.9515 160.435L57.8027 149.756C57.6491 149.495 57.4297 149.278 57.1664 149.127C56.9031 148.976 56.6049 148.897 56.3015 148.897C55.9981 148.897 55.7 148.976 55.4367 149.127C55.1734 149.278 54.954 149.495 54.8004 149.756L48.6515 160.435C48.5037 160.688 48.4258 160.975 48.4258 161.268C48.4258 161.562 48.5037 161.849 48.6515 162.102C48.8032 162.366 49.0222 162.584 49.286 162.734C49.5498 162.885 49.8489 162.963 50.1527 162.959H62.4504C62.7539 162.962 63.0527 162.885 63.3163 162.734C63.5798 162.583 63.7986 162.365 63.9501 162.102C64.0982 161.849 64.1763 161.562 64.1766 161.269C64.1768 160.976 64.0992 160.688 63.9515 160.435ZM62.9763 161.539C62.9227 161.631 62.8457 161.706 62.7533 161.758C62.6609 161.81 62.5563 161.836 62.4504 161.834H50.1527C50.0467 161.836 49.9422 161.81 49.8498 161.758C49.7573 161.706 49.6804 161.631 49.6268 161.539C49.5782 161.457 49.5526 161.363 49.5526 161.268C49.5526 161.172 49.5782 161.079 49.6268 160.996L55.7756 150.318C55.8303 150.227 55.9076 150.152 56 150.099C56.0924 150.047 56.1968 150.02 56.3029 150.02C56.4091 150.02 56.5135 150.047 56.6059 150.099C56.6983 150.152 56.7756 150.227 56.8303 150.318L62.9791 160.996C63.0272 161.079 63.0524 161.173 63.0519 161.268C63.0514 161.364 63.0253 161.457 62.9763 161.539ZM55.739 157.334V154.522C55.739 154.373 55.7983 154.23 55.9038 154.124C56.0093 154.019 56.1523 153.959 56.3015 153.959C56.4507 153.959 56.5938 154.019 56.6993 154.124C56.8048 154.23 56.864 154.373 56.864 154.522V157.334C56.864 157.484 56.8048 157.627 56.6993 157.732C56.5938 157.838 56.4507 157.897 56.3015 157.897C56.1523 157.897 56.0093 157.838 55.9038 157.732C55.7983 157.627 55.739 157.484 55.739 157.334ZM57.1453 159.866C57.1453 160.033 57.0958 160.196 57.0031 160.334C56.9104 160.473 56.7786 160.581 56.6244 160.645C56.4702 160.709 56.3006 160.726 56.1369 160.693C55.9733 160.661 55.8229 160.58 55.7049 160.462C55.5869 160.344 55.5066 160.194 55.474 160.03C55.4414 159.867 55.4581 159.697 55.522 159.543C55.5859 159.389 55.694 159.257 55.8328 159.164C55.9715 159.071 56.1347 159.022 56.3015 159.022C56.5253 159.022 56.7399 159.111 56.8982 159.269C57.0564 159.427 57.1453 159.642 57.1453 159.866Z" fill="white"/>
<path d="M71.9492 161.709L75.8642 150.864H77.6342L81.5417 161.709H79.9217L78.9017 158.867H74.6042L73.5767 161.709H71.9492ZM75.0017 157.412H78.4817L76.7417 152.424L75.0017 157.412ZM83.1969 161.709V153.954H84.7644V155.072C84.8894 154.862 85.0569 154.664 85.2669 154.479C85.4819 154.294 85.7444 154.144 86.0544 154.029C86.3694 153.914 86.7319 153.857 87.1419 153.857C87.6269 153.857 88.0744 153.954 88.4844 154.149C88.8994 154.339 89.2319 154.639 89.4819 155.049C89.7319 155.454 89.8569 155.979 89.8569 156.624V161.709H88.2519V156.797C88.2519 156.242 88.1019 155.829 87.8019 155.559C87.5069 155.289 87.1244 155.154 86.6544 155.154C86.3394 155.154 86.0394 155.207 85.7544 155.312C85.4694 155.417 85.2394 155.577 85.0644 155.792C84.8894 156.002 84.8019 156.267 84.8019 156.587V161.709H83.1969ZM95.0927 161.859C94.3677 161.859 93.7352 161.704 93.1952 161.394C92.6552 161.079 92.2352 160.624 91.9352 160.029C91.6352 159.434 91.4852 158.714 91.4852 157.869C91.4852 157.054 91.6277 156.342 91.9127 155.732C92.1977 155.122 92.6077 154.649 93.1427 154.314C93.6827 153.974 94.3352 153.804 95.1002 153.804C95.8302 153.804 96.4627 153.964 96.9977 154.284C97.5327 154.599 97.9477 155.062 98.2427 155.672C98.5377 156.277 98.6852 157.009 98.6852 157.869C98.6852 158.654 98.5477 159.347 98.2727 159.947C97.9977 160.547 97.5927 161.017 97.0577 161.357C96.5277 161.692 95.8727 161.859 95.0927 161.859ZM95.1002 160.622C95.5452 160.622 95.9152 160.507 96.2102 160.277C96.5052 160.042 96.7277 159.714 96.8777 159.294C97.0277 158.869 97.1027 158.379 97.1027 157.824C97.1027 157.309 97.0352 156.842 96.9002 156.422C96.7702 155.997 96.5577 155.659 96.2627 155.409C95.9727 155.159 95.5852 155.034 95.1002 155.034C94.6552 155.034 94.2802 155.149 93.9752 155.379C93.6752 155.604 93.4502 155.927 93.3002 156.347C93.1502 156.762 93.0752 157.254 93.0752 157.824C93.0752 158.329 93.1427 158.794 93.2777 159.219C93.4127 159.644 93.6277 159.984 93.9227 160.239C94.2227 160.494 94.6152 160.622 95.1002 160.622ZM100.438 161.709V153.954H101.998V155.072C102.218 154.732 102.518 154.437 102.898 154.187C103.278 153.932 103.768 153.804 104.368 153.804C104.648 153.804 104.931 153.852 105.216 153.947C105.506 154.042 105.771 154.184 106.011 154.374C106.256 154.559 106.448 154.789 106.588 155.064C106.833 154.694 107.161 154.392 107.571 154.157C107.981 153.922 108.441 153.804 108.951 153.804C109.226 153.804 109.511 153.849 109.806 153.939C110.101 154.024 110.373 154.172 110.623 154.382C110.878 154.587 111.083 154.872 111.238 155.237C111.398 155.602 111.478 156.064 111.478 156.624V161.709H109.866V156.797C109.866 156.372 109.793 156.039 109.648 155.799C109.508 155.559 109.323 155.392 109.093 155.297C108.868 155.197 108.628 155.147 108.373 155.147C108.143 155.147 107.903 155.192 107.653 155.282C107.403 155.372 107.191 155.522 107.016 155.732C106.841 155.942 106.753 156.227 106.753 156.587V161.709H105.148V156.452C105.148 156.167 105.071 155.927 104.916 155.732C104.766 155.537 104.576 155.392 104.346 155.297C104.121 155.197 103.896 155.147 103.671 155.147C103.421 155.147 103.171 155.197 102.921 155.297C102.671 155.397 102.461 155.554 102.291 155.769C102.126 155.979 102.043 156.252 102.043 156.587V161.709H100.438ZM115.717 161.859C115.217 161.859 114.772 161.769 114.382 161.589C113.997 161.409 113.694 161.149 113.474 160.809C113.254 160.469 113.144 160.059 113.144 159.579C113.144 158.719 113.447 158.077 114.052 157.652C114.662 157.227 115.637 157.002 116.977 156.977L118.252 156.939V156.377C118.252 155.932 118.119 155.582 117.854 155.327C117.589 155.072 117.179 154.947 116.624 154.952C116.214 154.952 115.847 155.047 115.522 155.237C115.197 155.427 114.984 155.739 114.884 156.174H113.497C113.527 155.659 113.674 155.227 113.939 154.877C114.209 154.522 114.579 154.254 115.049 154.074C115.519 153.894 116.069 153.804 116.699 153.804C117.409 153.804 117.992 153.902 118.447 154.097C118.902 154.287 119.239 154.567 119.459 154.937C119.684 155.307 119.797 155.757 119.797 156.287V161.709H118.432L118.312 160.284C118.022 160.879 117.654 161.292 117.209 161.522C116.764 161.747 116.267 161.859 115.717 161.859ZM116.219 160.742C116.464 160.742 116.707 160.699 116.947 160.614C117.187 160.524 117.404 160.404 117.599 160.254C117.794 160.099 117.949 159.927 118.064 159.737C118.184 159.547 118.247 159.352 118.252 159.152V157.869L117.202 157.892C116.667 157.897 116.212 157.952 115.837 158.057C115.467 158.162 115.182 158.324 114.982 158.544C114.787 158.764 114.689 159.057 114.689 159.422C114.689 159.837 114.832 160.162 115.117 160.397C115.407 160.627 115.774 160.742 116.219 160.742ZM123.954 161.814C123.494 161.814 123.124 161.754 122.844 161.634C122.569 161.514 122.359 161.354 122.214 161.154C122.069 160.949 121.972 160.719 121.922 160.464C121.877 160.204 121.854 159.937 121.854 159.662V150.564H123.437V159.497C123.437 159.857 123.507 160.132 123.647 160.322C123.792 160.512 124.012 160.619 124.307 160.644L124.712 160.659V161.679C124.587 161.719 124.457 161.752 124.322 161.777C124.192 161.802 124.069 161.814 123.954 161.814ZM127.068 164.184C126.593 164.184 126.263 164.149 126.078 164.079C125.898 164.009 125.808 163.974 125.808 163.974V162.939L126.595 162.954C126.895 162.969 127.143 162.952 127.338 162.902C127.533 162.852 127.685 162.782 127.795 162.692C127.91 162.607 127.995 162.514 128.05 162.414C128.11 162.314 128.155 162.222 128.185 162.137L128.425 161.484L125.403 153.954H127.008L129.183 159.684L131.35 153.954H132.918L129.685 162.144C129.465 162.684 129.223 163.102 128.958 163.397C128.698 163.692 128.41 163.897 128.095 164.012C127.78 164.127 127.438 164.184 127.068 164.184ZM138.121 161.709V150.864H145.051L145.043 152.244H139.756V155.597H144.458V156.962H139.756V161.709H138.121ZM149.746 161.859C149.021 161.859 148.389 161.704 147.849 161.394C147.309 161.079 146.889 160.624 146.589 160.029C146.289 159.434 146.139 158.714 146.139 157.869C146.139 157.054 146.281 156.342 146.566 155.732C146.851 155.122 147.261 154.649 147.796 154.314C148.336 153.974 148.989 153.804 149.754 153.804C150.484 153.804 151.116 153.964 151.651 154.284C152.186 154.599 152.601 155.062 152.896 155.672C153.191 156.277 153.339 157.009 153.339 157.869C153.339 158.654 153.201 159.347 152.926 159.947C152.651 160.547 152.246 161.017 151.711 161.357C151.181 161.692 150.526 161.859 149.746 161.859ZM149.754 160.622C150.199 160.622 150.569 160.507 150.864 160.277C151.159 160.042 151.381 159.714 151.531 159.294C151.681 158.869 151.756 158.379 151.756 157.824C151.756 157.309 151.689 156.842 151.554 156.422C151.424 155.997 151.211 155.659 150.916 155.409C150.626 155.159 150.239 155.034 149.754 155.034C149.309 155.034 148.934 155.149 148.629 155.379C148.329 155.604 148.104 155.927 147.954 156.347C147.804 156.762 147.729 157.254 147.729 157.824C147.729 158.329 147.796 158.794 147.931 159.219C148.066 159.644 148.281 159.984 148.576 160.239C148.876 160.494 149.269 160.622 149.754 160.622ZM155.091 161.709V153.954H156.629V155.544C156.759 155.164 156.939 154.847 157.169 154.592C157.404 154.332 157.676 154.137 157.986 154.007C158.296 153.872 158.624 153.804 158.969 153.804C159.074 153.804 159.174 153.812 159.269 153.827C159.364 153.837 159.439 153.857 159.494 153.887V155.432C159.429 155.402 159.344 155.382 159.239 155.372C159.139 155.362 159.051 155.354 158.976 155.349C158.636 155.324 158.326 155.342 158.046 155.402C157.766 155.462 157.524 155.562 157.319 155.702C157.119 155.842 156.964 156.024 156.854 156.249C156.749 156.474 156.696 156.739 156.696 157.044V161.709H155.091ZM164.311 161.859C163.576 161.859 162.928 161.702 162.368 161.387C161.808 161.067 161.371 160.612 161.056 160.022C160.746 159.432 160.591 158.729 160.591 157.914C160.591 157.109 160.733 156.399 161.018 155.784C161.303 155.164 161.716 154.679 162.256 154.329C162.796 153.979 163.446 153.804 164.206 153.804C164.951 153.804 165.581 153.964 166.096 154.284C166.611 154.604 167.001 155.054 167.266 155.634C167.531 156.209 167.663 156.889 167.663 157.674V158.207H162.203C162.198 158.672 162.273 159.089 162.428 159.459C162.583 159.824 162.813 160.114 163.118 160.329C163.428 160.539 163.813 160.644 164.273 160.644C164.738 160.644 165.138 160.539 165.473 160.329C165.813 160.119 166.036 159.807 166.141 159.392H167.626C167.536 159.922 167.323 160.372 166.988 160.742C166.653 161.112 166.251 161.392 165.781 161.582C165.311 161.767 164.821 161.859 164.311 161.859ZM162.203 157.164H166.133C166.133 156.759 166.063 156.392 165.923 156.062C165.783 155.727 165.568 155.464 165.278 155.274C164.993 155.079 164.633 154.982 164.198 154.982C163.753 154.982 163.383 155.089 163.088 155.304C162.793 155.519 162.571 155.794 162.421 156.129C162.276 156.464 162.203 156.809 162.203 157.164ZM172.678 161.859C171.978 161.859 171.356 161.707 170.811 161.402C170.266 161.092 169.838 160.639 169.528 160.044C169.218 159.444 169.063 158.717 169.063 157.862C169.063 157.057 169.206 156.349 169.491 155.739C169.781 155.129 170.196 154.654 170.736 154.314C171.276 153.974 171.923 153.804 172.678 153.804C173.263 153.804 173.781 153.919 174.231 154.149C174.681 154.374 175.046 154.689 175.326 155.094C175.611 155.499 175.783 155.972 175.843 156.512H174.448C174.408 156.257 174.313 156.019 174.163 155.799C174.013 155.579 173.816 155.404 173.571 155.274C173.326 155.139 173.033 155.072 172.693 155.072C172.068 155.072 171.561 155.299 171.171 155.754C170.781 156.209 170.586 156.907 170.586 157.847C170.586 158.707 170.768 159.392 171.133 159.902C171.498 160.412 172.026 160.667 172.716 160.667C173.056 160.667 173.348 160.597 173.593 160.457C173.838 160.317 174.033 160.137 174.178 159.917C174.328 159.697 174.423 159.469 174.463 159.234H175.828C175.768 159.754 175.596 160.212 175.311 160.607C175.031 161.002 174.666 161.309 174.216 161.529C173.766 161.749 173.253 161.859 172.678 161.859ZM179.789 161.859C179.289 161.859 178.844 161.769 178.454 161.589C178.069 161.409 177.767 161.149 177.547 160.809C177.327 160.469 177.217 160.059 177.217 159.579C177.217 158.719 177.519 158.077 178.124 157.652C178.734 157.227 179.709 157.002 181.049 156.977L182.324 156.939V156.377C182.324 155.932 182.192 155.582 181.927 155.327C181.662 155.072 181.252 154.947 180.697 154.952C180.287 154.952 179.919 155.047 179.594 155.237C179.269 155.427 179.057 155.739 178.957 156.174H177.569C177.599 155.659 177.747 155.227 178.012 154.877C178.282 154.522 178.652 154.254 179.122 154.074C179.592 153.894 180.142 153.804 180.772 153.804C181.482 153.804 182.064 153.902 182.519 154.097C182.974 154.287 183.312 154.567 183.532 154.937C183.757 155.307 183.869 155.757 183.869 156.287V161.709H182.504L182.384 160.284C182.094 160.879 181.727 161.292 181.282 161.522C180.837 161.747 180.339 161.859 179.789 161.859ZM180.292 160.742C180.537 160.742 180.779 160.699 181.019 160.614C181.259 160.524 181.477 160.404 181.672 160.254C181.867 160.099 182.022 159.927 182.137 159.737C182.257 159.547 182.319 159.352 182.324 159.152V157.869L181.274 157.892C180.739 157.897 180.284 157.952 179.909 158.057C179.539 158.162 179.254 158.324 179.054 158.544C178.859 158.764 178.762 159.057 178.762 159.422C178.762 159.837 178.904 160.162 179.189 160.397C179.479 160.627 179.847 160.742 180.292 160.742ZM188.741 161.859C188.201 161.859 187.693 161.774 187.218 161.604C186.748 161.434 186.353 161.167 186.033 160.802C185.718 160.437 185.521 159.969 185.441 159.399H186.873C186.938 159.694 187.061 159.939 187.241 160.134C187.426 160.324 187.646 160.467 187.901 160.562C188.161 160.652 188.438 160.697 188.733 160.697C189.223 160.697 189.621 160.609 189.926 160.434C190.231 160.254 190.383 159.979 190.383 159.609C190.383 159.344 190.301 159.132 190.136 158.972C189.971 158.812 189.713 158.694 189.363 158.619L187.818 158.252C187.178 158.102 186.666 157.864 186.281 157.539C185.896 157.209 185.701 156.749 185.696 156.159C185.696 155.704 185.808 155.299 186.033 154.944C186.263 154.589 186.603 154.312 187.053 154.112C187.508 153.907 188.068 153.804 188.733 153.804C189.608 153.804 190.311 153.999 190.841 154.389C191.376 154.779 191.651 155.344 191.666 156.084H190.278C190.228 155.729 190.066 155.452 189.791 155.252C189.521 155.047 189.163 154.944 188.718 154.944C188.258 154.944 187.881 155.037 187.586 155.222C187.291 155.402 187.143 155.679 187.143 156.054C187.143 156.309 187.251 156.512 187.466 156.662C187.686 156.807 188.008 156.927 188.433 157.022L189.903 157.389C190.283 157.489 190.596 157.622 190.841 157.787C191.086 157.947 191.278 158.124 191.418 158.319C191.558 158.514 191.656 158.717 191.711 158.927C191.771 159.137 191.801 159.334 191.801 159.519C191.801 160.009 191.676 160.429 191.426 160.779C191.181 161.124 190.831 161.392 190.376 161.582C189.921 161.767 189.376 161.859 188.741 161.859ZM196.375 161.762C195.8 161.762 195.355 161.684 195.04 161.529C194.725 161.374 194.505 161.152 194.38 160.862C194.255 160.567 194.192 160.212 194.192 159.797V155.109H192.932V153.954H194.245L194.635 151.674H195.805V153.947H197.545V155.109H195.805L195.812 159.737C195.812 159.992 195.837 160.179 195.887 160.299C195.942 160.414 196.032 160.489 196.157 160.524C196.287 160.554 196.462 160.569 196.682 160.569H197.582V161.612C197.487 161.652 197.34 161.687 197.14 161.717C196.945 161.747 196.69 161.762 196.375 161.762ZM199.382 161.709V153.954H200.927V161.709H199.382ZM199.344 152.454V150.872H200.957V152.454H199.344ZM203.226 161.709V153.954H204.794V155.072C204.919 154.862 205.086 154.664 205.296 154.479C205.511 154.294 205.774 154.144 206.084 154.029C206.399 153.914 206.761 153.857 207.171 153.857C207.656 153.857 208.104 153.954 208.514 154.149C208.929 154.339 209.261 154.639 209.511 155.049C209.761 155.454 209.886 155.979 209.886 156.624V161.709H208.281V156.797C208.281 156.242 208.131 155.829 207.831 155.559C207.536 155.289 207.154 155.154 206.684 155.154C206.369 155.154 206.069 155.207 205.784 155.312C205.499 155.417 205.269 155.577 205.094 155.792C204.919 156.002 204.831 156.267 204.831 156.587V161.709H203.226ZM215.309 164.274C214.049 164.274 213.074 164.097 212.384 163.742C211.694 163.392 211.349 162.902 211.349 162.272C211.349 161.997 211.414 161.764 211.544 161.574C211.679 161.379 211.837 161.219 212.017 161.094C212.202 160.969 212.372 160.872 212.527 160.802C212.682 160.727 212.782 160.674 212.827 160.644C212.742 160.594 212.632 160.532 212.497 160.457C212.367 160.377 212.249 160.272 212.144 160.142C212.039 160.007 211.987 159.832 211.987 159.617C211.987 159.367 212.104 159.137 212.339 158.927C212.579 158.712 212.939 158.554 213.419 158.454C212.949 158.224 212.584 157.914 212.324 157.524C212.064 157.134 211.934 156.719 211.934 156.279C211.934 155.774 212.077 155.339 212.362 154.974C212.647 154.604 213.047 154.322 213.562 154.127C214.082 153.932 214.692 153.834 215.392 153.834C215.907 153.834 216.334 153.892 216.674 154.007C217.019 154.122 217.337 154.282 217.627 154.487C217.722 154.452 217.857 154.399 218.032 154.329C218.212 154.254 218.407 154.174 218.617 154.089C218.827 154.004 219.027 153.922 219.217 153.842C219.412 153.762 219.569 153.697 219.689 153.647L219.682 155.042L218.332 155.289C218.402 155.439 218.457 155.604 218.497 155.784C218.542 155.964 218.564 156.129 218.564 156.279C218.564 156.729 218.442 157.144 218.197 157.524C217.952 157.899 217.584 158.199 217.094 158.424C216.604 158.649 215.992 158.762 215.257 158.762C215.187 158.762 215.097 158.762 214.987 158.762C214.877 158.757 214.784 158.749 214.709 158.739C214.244 158.754 213.924 158.809 213.749 158.904C213.574 158.994 213.487 159.094 213.487 159.204C213.487 159.344 213.599 159.439 213.824 159.489C214.049 159.539 214.419 159.582 214.934 159.617C215.119 159.632 215.354 159.647 215.639 159.662C215.929 159.677 216.249 159.697 216.599 159.722C217.449 159.772 218.097 159.984 218.542 160.359C218.992 160.734 219.217 161.232 219.217 161.852C219.217 162.562 218.894 163.142 218.249 163.592C217.604 164.047 216.624 164.274 215.309 164.274ZM215.587 163.292C216.272 163.292 216.789 163.192 217.139 162.992C217.489 162.797 217.664 162.504 217.664 162.114C217.664 161.824 217.552 161.587 217.327 161.402C217.102 161.217 216.764 161.109 216.314 161.079L214.244 160.944C214.039 160.934 213.834 160.979 213.629 161.079C213.429 161.179 213.264 161.319 213.134 161.499C213.004 161.674 212.939 161.869 212.939 162.084C212.939 162.474 213.154 162.772 213.584 162.977C214.014 163.187 214.682 163.292 215.587 163.292ZM215.302 157.779C215.822 157.779 216.239 157.654 216.554 157.404C216.874 157.149 217.034 156.784 217.034 156.309C217.034 155.819 216.874 155.442 216.554 155.177C216.239 154.907 215.822 154.772 215.302 154.772C214.777 154.772 214.352 154.907 214.027 155.177C213.707 155.447 213.547 155.824 213.547 156.309C213.547 156.769 213.699 157.129 214.004 157.389C214.314 157.649 214.747 157.779 215.302 157.779Z" fill="#D4D4D4"/>
<path d="M64.1761 231.795V236.295C64.1761 236.445 64.1168 236.588 64.0113 236.693C63.9059 236.799 63.7628 236.858 63.6136 236.858C63.4644 236.858 63.3213 236.799 63.2158 236.693C63.1104 236.588 63.0511 236.445 63.0511 236.295V233.153L57.2616 238.943C57.2093 238.996 57.1473 239.037 57.079 239.065C57.0107 239.094 56.9375 239.108 56.8636 239.108C56.7897 239.108 56.7165 239.094 56.6482 239.065C56.5799 239.037 56.5179 238.996 56.4656 238.943L54.0511 236.528L49.3866 241.193C49.281 241.299 49.1379 241.358 48.9886 241.358C48.8393 241.358 48.6962 241.299 48.5906 241.193C48.4851 241.088 48.4258 240.945 48.4258 240.795C48.4258 240.646 48.4851 240.503 48.5906 240.397L53.6531 235.335C53.7054 235.283 53.7674 235.241 53.8357 235.213C53.904 235.185 53.9772 235.17 54.0511 235.17C54.125 235.17 54.1982 235.185 54.2665 235.213C54.3348 235.241 54.3968 235.283 54.4491 235.335L56.8636 237.75L62.2559 232.358H59.1136C58.9644 232.358 58.8213 232.299 58.7158 232.193C58.6104 232.088 58.5511 231.945 58.5511 231.795C58.5511 231.646 58.6104 231.503 58.7158 231.398C58.8213 231.292 58.9644 231.233 59.1136 231.233H63.6136C63.7628 231.233 63.9059 231.292 64.0113 231.398C64.1168 231.503 64.1761 231.646 64.1761 231.795Z" fill="white"/>
<path d="M73.0683 242.358V231.513C73.1083 231.513 73.2258 231.515 73.4208 231.52C73.6208 231.52 73.8608 231.52 74.1408 231.52C74.4208 231.515 74.7058 231.515 74.9958 231.52C75.2908 231.52 75.5533 231.523 75.7833 231.528C77.1083 231.548 78.1858 231.768 79.0158 232.188C79.8458 232.608 80.4533 233.213 80.8383 234.003C81.2283 234.788 81.4233 235.745 81.4233 236.875C81.4233 238.05 81.2158 239.048 80.8008 239.868C80.3858 240.683 79.7508 241.303 78.8958 241.728C78.0458 242.148 76.9683 242.358 75.6633 242.358H73.0683ZM74.7033 241.008H75.6783C76.4983 241.008 77.2108 240.875 77.8158 240.61C78.4258 240.34 78.8983 239.905 79.2333 239.305C79.5683 238.7 79.7358 237.893 79.7358 236.883C79.7358 235.893 79.5758 235.105 79.2558 234.52C78.9358 233.93 78.4758 233.508 77.8758 233.253C77.2808 232.993 76.5633 232.863 75.7233 232.863H74.7033V241.008ZM86.6462 242.508C85.9112 242.508 85.2637 242.35 84.7037 242.035C84.1437 241.715 83.7062 241.26 83.3912 240.67C83.0812 240.08 82.9262 239.378 82.9262 238.563C82.9262 237.758 83.0687 237.048 83.3537 236.433C83.6387 235.813 84.0512 235.328 84.5912 234.978C85.1312 234.628 85.7812 234.453 86.5412 234.453C87.2862 234.453 87.9162 234.613 88.4312 234.933C88.9462 235.253 89.3362 235.703 89.6012 236.283C89.8662 236.858 89.9987 237.538 89.9987 238.323V238.855H84.5387C84.5337 239.32 84.6087 239.738 84.7637 240.108C84.9187 240.473 85.1487 240.763 85.4537 240.978C85.7637 241.188 86.1487 241.293 86.6087 241.293C87.0737 241.293 87.4737 241.188 87.8087 240.978C88.1487 240.768 88.3712 240.455 88.4762 240.04H89.9612C89.8712 240.57 89.6587 241.02 89.3237 241.39C88.9887 241.76 88.5862 242.04 88.1162 242.23C87.6462 242.415 87.1562 242.508 86.6462 242.508ZM84.5387 237.813H88.4687C88.4687 237.408 88.3987 237.04 88.2587 236.71C88.1187 236.375 87.9037 236.113 87.6137 235.923C87.3287 235.728 86.9687 235.63 86.5337 235.63C86.0887 235.63 85.7187 235.738 85.4237 235.953C85.1287 236.168 84.9062 236.443 84.7562 236.778C84.6112 237.113 84.5387 237.458 84.5387 237.813ZM91.8263 242.358V234.603H93.3863V235.72C93.6063 235.38 93.9063 235.085 94.2863 234.835C94.6663 234.58 95.1563 234.453 95.7563 234.453C96.0363 234.453 96.3188 234.5 96.6038 234.595C96.8938 234.69 97.1588 234.833 97.3988 235.023C97.6438 235.208 97.8363 235.438 97.9763 235.713C98.2213 235.343 98.5488 235.04 98.9588 234.805C99.3688 234.57 99.8288 234.453 100.339 234.453C100.614 234.453 100.899 234.498 101.194 234.588C101.489 234.673 101.761 234.82 102.011 235.03C102.266 235.235 102.471 235.52 102.626 235.885C102.786 236.25 102.866 236.713 102.866 237.273V242.358H101.254V237.445C101.254 237.02 101.181 236.688 101.036 236.448C100.896 236.208 100.711 236.04 100.481 235.945C100.256 235.845 100.016 235.795 99.7613 235.795C99.5313 235.795 99.2913 235.84 99.0413 235.93C98.7913 236.02 98.5788 236.17 98.4038 236.38C98.2288 236.59 98.1413 236.875 98.1413 237.235V242.358H96.5363V237.1C96.5363 236.815 96.4588 236.575 96.3038 236.38C96.1538 236.185 95.9638 236.04 95.7338 235.945C95.5088 235.845 95.2838 235.795 95.0588 235.795C94.8088 235.795 94.5588 235.845 94.3088 235.945C94.0588 236.045 93.8488 236.203 93.6788 236.418C93.5138 236.628 93.4313 236.9 93.4313 237.235V242.358H91.8263ZM107.105 242.508C106.605 242.508 106.16 242.418 105.77 242.238C105.385 242.058 105.083 241.798 104.863 241.458C104.643 241.118 104.533 240.708 104.533 240.228C104.533 239.368 104.835 238.725 105.44 238.3C106.05 237.875 107.025 237.65 108.365 237.625L109.64 237.588V237.025C109.64 236.58 109.508 236.23 109.243 235.975C108.978 235.72 108.568 235.595 108.013 235.6C107.603 235.6 107.235 235.695 106.91 235.885C106.585 236.075 106.373 236.388 106.273 236.823H104.885C104.915 236.308 105.063 235.875 105.328 235.525C105.598 235.17 105.968 234.903 106.438 234.723C106.908 234.543 107.458 234.453 108.088 234.453C108.798 234.453 109.38 234.55 109.835 234.745C110.29 234.935 110.628 235.215 110.848 235.585C111.073 235.955 111.185 236.405 111.185 236.935V242.358H109.82L109.7 240.933C109.41 241.528 109.043 241.94 108.598 242.17C108.153 242.395 107.655 242.508 107.105 242.508ZM107.608 241.39C107.853 241.39 108.095 241.348 108.335 241.263C108.575 241.173 108.793 241.053 108.988 240.903C109.183 240.748 109.338 240.575 109.453 240.385C109.573 240.195 109.635 240 109.64 239.8V238.518L108.59 238.54C108.055 238.545 107.6 238.6 107.225 238.705C106.855 238.81 106.57 238.973 106.37 239.193C106.175 239.413 106.078 239.705 106.078 240.07C106.078 240.485 106.22 240.81 106.505 241.045C106.795 241.275 107.163 241.39 107.608 241.39ZM113.242 242.358V234.603H114.81V235.72C114.935 235.51 115.102 235.313 115.312 235.128C115.527 234.943 115.79 234.793 116.1 234.678C116.415 234.563 116.777 234.505 117.187 234.505C117.672 234.505 118.12 234.603 118.53 234.798C118.945 234.988 119.277 235.288 119.527 235.698C119.777 236.103 119.902 236.628 119.902 237.273V242.358H118.297V237.445C118.297 236.89 118.147 236.478 117.847 236.208C117.552 235.938 117.17 235.803 116.7 235.803C116.385 235.803 116.085 235.855 115.8 235.96C115.515 236.065 115.285 236.225 115.11 236.44C114.935 236.65 114.847 236.915 114.847 237.235V242.358H113.242ZM124.816 242.508C123.801 242.508 122.998 242.16 122.408 241.465C121.823 240.765 121.531 239.758 121.531 238.443C121.531 237.638 121.648 236.938 121.883 236.343C122.123 235.743 122.476 235.278 122.941 234.948C123.406 234.618 123.986 234.453 124.681 234.453C125.026 234.453 125.336 234.495 125.611 234.58C125.886 234.665 126.126 234.775 126.331 234.91C126.536 235.045 126.708 235.19 126.848 235.345C126.988 235.5 127.093 235.645 127.163 235.78V231.213H128.783V242.358H127.576L127.396 240.768C127.341 240.938 127.256 241.123 127.141 241.323C127.031 241.523 126.876 241.713 126.676 241.893C126.481 242.073 126.231 242.22 125.926 242.335C125.621 242.45 125.251 242.508 124.816 242.508ZM125.123 241.3C125.843 241.3 126.363 241.075 126.683 240.625C127.003 240.17 127.163 239.425 127.163 238.39C127.158 237.805 127.086 237.31 126.946 236.905C126.811 236.5 126.596 236.195 126.301 235.99C126.011 235.78 125.628 235.675 125.153 235.675C124.558 235.675 124.071 235.89 123.691 236.32C123.316 236.745 123.128 237.435 123.128 238.39C123.128 239.33 123.298 240.05 123.638 240.55C123.983 241.05 124.478 241.3 125.123 241.3ZM134.811 242.358V231.513H141.741L141.734 232.893H136.446V236.245H141.149V237.61H136.446V242.358H134.811ZM146.437 242.508C145.712 242.508 145.079 242.353 144.539 242.043C143.999 241.728 143.579 241.273 143.279 240.678C142.979 240.083 142.829 239.363 142.829 238.518C142.829 237.703 142.972 236.99 143.257 236.38C143.542 235.77 143.952 235.298 144.487 234.963C145.027 234.623 145.679 234.453 146.444 234.453C147.174 234.453 147.807 234.613 148.342 234.933C148.877 235.248 149.292 235.71 149.587 236.32C149.882 236.925 150.029 237.658 150.029 238.518C150.029 239.303 149.892 239.995 149.617 240.595C149.342 241.195 148.937 241.665 148.402 242.005C147.872 242.34 147.217 242.508 146.437 242.508ZM146.444 241.27C146.889 241.27 147.259 241.155 147.554 240.925C147.849 240.69 148.072 240.363 148.222 239.943C148.372 239.518 148.447 239.028 148.447 238.473C148.447 237.958 148.379 237.49 148.244 237.07C148.114 236.645 147.902 236.308 147.607 236.058C147.317 235.808 146.929 235.683 146.444 235.683C145.999 235.683 145.624 235.798 145.319 236.028C145.019 236.253 144.794 236.575 144.644 236.995C144.494 237.41 144.419 237.903 144.419 238.473C144.419 238.978 144.487 239.443 144.622 239.868C144.757 240.293 144.972 240.633 145.267 240.888C145.567 241.143 145.959 241.27 146.444 241.27ZM151.782 242.358V234.603H153.32V236.193C153.45 235.813 153.63 235.495 153.86 235.24C154.095 234.98 154.367 234.785 154.677 234.655C154.987 234.52 155.315 234.453 155.66 234.453C155.765 234.453 155.865 234.46 155.96 234.475C156.055 234.485 156.13 234.505 156.185 234.535V236.08C156.12 236.05 156.035 236.03 155.93 236.02C155.83 236.01 155.742 236.003 155.667 235.998C155.327 235.973 155.017 235.99 154.737 236.05C154.457 236.11 154.215 236.21 154.01 236.35C153.81 236.49 153.655 236.673 153.545 236.898C153.44 237.123 153.387 237.388 153.387 237.693V242.358H151.782ZM161.002 242.508C160.267 242.508 159.619 242.35 159.059 242.035C158.499 241.715 158.062 241.26 157.747 240.67C157.437 240.08 157.282 239.378 157.282 238.563C157.282 237.758 157.424 237.048 157.709 236.433C157.994 235.813 158.407 235.328 158.947 234.978C159.487 234.628 160.137 234.453 160.897 234.453C161.642 234.453 162.272 234.613 162.787 234.933C163.302 235.253 163.692 235.703 163.957 236.283C164.222 236.858 164.354 237.538 164.354 238.323V238.855H158.894C158.889 239.32 158.964 239.738 159.119 240.108C159.274 240.473 159.504 240.763 159.809 240.978C160.119 241.188 160.504 241.293 160.964 241.293C161.429 241.293 161.829 241.188 162.164 240.978C162.504 240.768 162.727 240.455 162.832 240.04H164.317C164.227 240.57 164.014 241.02 163.679 241.39C163.344 241.76 162.942 242.04 162.472 242.23C162.002 242.415 161.512 242.508 161.002 242.508ZM158.894 237.813H162.824C162.824 237.408 162.754 237.04 162.614 236.71C162.474 236.375 162.259 236.113 161.969 235.923C161.684 235.728 161.324 235.63 160.889 235.63C160.444 235.63 160.074 235.738 159.779 235.953C159.484 236.168 159.262 236.443 159.112 236.778C158.967 237.113 158.894 237.458 158.894 237.813ZM169.369 242.508C168.669 242.508 168.047 242.355 167.502 242.05C166.957 241.74 166.529 241.288 166.219 240.693C165.909 240.093 165.754 239.365 165.754 238.51C165.754 237.705 165.897 236.998 166.182 236.388C166.472 235.778 166.887 235.303 167.427 234.963C167.967 234.623 168.614 234.453 169.369 234.453C169.954 234.453 170.472 234.568 170.922 234.798C171.372 235.023 171.737 235.338 172.017 235.743C172.302 236.148 172.474 236.62 172.534 237.16H171.139C171.099 236.905 171.004 236.668 170.854 236.448C170.704 236.228 170.507 236.053 170.262 235.923C170.017 235.788 169.724 235.72 169.384 235.72C168.759 235.72 168.252 235.948 167.862 236.403C167.472 236.858 167.277 237.555 167.277 238.495C167.277 239.355 167.459 240.04 167.824 240.55C168.189 241.06 168.717 241.315 169.407 241.315C169.747 241.315 170.039 241.245 170.284 241.105C170.529 240.965 170.724 240.785 170.869 240.565C171.019 240.345 171.114 240.118 171.154 239.883H172.519C172.459 240.403 172.287 240.86 172.002 241.255C171.722 241.65 171.357 241.958 170.907 242.178C170.457 242.398 169.944 242.508 169.369 242.508ZM176.48 242.508C175.98 242.508 175.535 242.418 175.145 242.238C174.76 242.058 174.458 241.798 174.238 241.458C174.018 241.118 173.908 240.708 173.908 240.228C173.908 239.368 174.21 238.725 174.815 238.3C175.425 237.875 176.4 237.65 177.74 237.625L179.015 237.588V237.025C179.015 236.58 178.883 236.23 178.618 235.975C178.353 235.72 177.943 235.595 177.388 235.6C176.978 235.6 176.61 235.695 176.285 235.885C175.96 236.075 175.748 236.388 175.648 236.823H174.26C174.29 236.308 174.438 235.875 174.703 235.525C174.973 235.17 175.343 234.903 175.813 234.723C176.283 234.543 176.833 234.453 177.463 234.453C178.173 234.453 178.755 234.55 179.21 234.745C179.665 234.935 180.003 235.215 180.223 235.585C180.448 235.955 180.56 236.405 180.56 236.935V242.358H179.195L179.075 240.933C178.785 241.528 178.418 241.94 177.973 242.17C177.528 242.395 177.03 242.508 176.48 242.508ZM176.983 241.39C177.228 241.39 177.47 241.348 177.71 241.263C177.95 241.173 178.168 241.053 178.363 240.903C178.558 240.748 178.713 240.575 178.828 240.385C178.948 240.195 179.01 240 179.015 239.8V238.518L177.965 238.54C177.43 238.545 176.975 238.6 176.6 238.705C176.23 238.81 175.945 238.973 175.745 239.193C175.55 239.413 175.453 239.705 175.453 240.07C175.453 240.485 175.595 240.81 175.88 241.045C176.17 241.275 176.538 241.39 176.983 241.39ZM185.432 242.508C184.892 242.508 184.384 242.423 183.909 242.253C183.439 242.083 183.044 241.815 182.724 241.45C182.409 241.085 182.212 240.618 182.132 240.048H183.564C183.629 240.343 183.752 240.588 183.932 240.783C184.117 240.973 184.337 241.115 184.592 241.21C184.852 241.3 185.129 241.345 185.424 241.345C185.914 241.345 186.312 241.258 186.617 241.083C186.922 240.903 187.074 240.628 187.074 240.258C187.074 239.993 186.992 239.78 186.827 239.62C186.662 239.46 186.404 239.343 186.054 239.268L184.509 238.9C183.869 238.75 183.357 238.513 182.972 238.188C182.587 237.858 182.392 237.398 182.387 236.808C182.387 236.353 182.499 235.948 182.724 235.593C182.954 235.238 183.294 234.96 183.744 234.76C184.199 234.555 184.759 234.453 185.424 234.453C186.299 234.453 187.002 234.648 187.532 235.038C188.067 235.428 188.342 235.993 188.357 236.733H186.969C186.919 236.378 186.757 236.1 186.482 235.9C186.212 235.695 185.854 235.593 185.409 235.593C184.949 235.593 184.572 235.685 184.277 235.87C183.982 236.05 183.834 236.328 183.834 236.703C183.834 236.958 183.942 237.16 184.157 237.31C184.377 237.455 184.699 237.575 185.124 237.67L186.594 238.038C186.974 238.138 187.287 238.27 187.532 238.435C187.777 238.595 187.969 238.773 188.109 238.968C188.249 239.163 188.347 239.365 188.402 239.575C188.462 239.785 188.492 239.983 188.492 240.168C188.492 240.658 188.367 241.078 188.117 241.428C187.872 241.773 187.522 242.04 187.067 242.23C186.612 242.415 186.067 242.508 185.432 242.508ZM193.065 242.41C192.49 242.41 192.045 242.333 191.73 242.178C191.415 242.023 191.195 241.8 191.07 241.51C190.945 241.215 190.883 240.86 190.883 240.445V235.758H189.623V234.603H190.935L191.325 232.323H192.495V234.595H194.235V235.758H192.495L192.503 240.385C192.503 240.64 192.528 240.828 192.578 240.948C192.633 241.063 192.723 241.138 192.848 241.173C192.978 241.203 193.153 241.218 193.373 241.218H194.273V242.26C194.178 242.3 194.03 242.335 193.83 242.365C193.635 242.395 193.38 242.41 193.065 242.41ZM196.073 242.358V234.603H197.618V242.358H196.073ZM196.035 233.103V231.52H197.648V233.103H196.035ZM199.917 242.358V234.603H201.485V235.72C201.61 235.51 201.777 235.313 201.987 235.128C202.202 234.943 202.465 234.793 202.775 234.678C203.09 234.563 203.452 234.505 203.862 234.505C204.347 234.505 204.795 234.603 205.205 234.798C205.62 234.988 205.952 235.288 206.202 235.698C206.452 236.103 206.577 236.628 206.577 237.273V242.358H204.972V237.445C204.972 236.89 204.822 236.478 204.522 236.208C204.227 235.938 203.845 235.803 203.375 235.803C203.06 235.803 202.76 235.855 202.475 235.96C202.19 236.065 201.96 236.225 201.785 236.44C201.61 236.65 201.522 236.915 201.522 237.235V242.358H199.917ZM212 244.923C210.74 244.923 209.765 244.745 209.075 244.39C208.385 244.04 208.04 243.55 208.04 242.92C208.04 242.645 208.105 242.413 208.235 242.223C208.37 242.028 208.528 241.868 208.708 241.743C208.893 241.618 209.063 241.52 209.218 241.45C209.373 241.375 209.473 241.323 209.518 241.293C209.433 241.243 209.323 241.18 209.188 241.105C209.058 241.025 208.94 240.92 208.835 240.79C208.73 240.655 208.678 240.48 208.678 240.265C208.678 240.015 208.795 239.785 209.03 239.575C209.27 239.36 209.63 239.203 210.11 239.103C209.64 238.873 209.275 238.563 209.015 238.173C208.755 237.783 208.625 237.368 208.625 236.928C208.625 236.423 208.768 235.988 209.053 235.623C209.338 235.253 209.738 234.97 210.253 234.775C210.773 234.58 211.383 234.483 212.083 234.483C212.598 234.483 213.025 234.54 213.365 234.655C213.71 234.77 214.028 234.93 214.318 235.135C214.413 235.1 214.548 235.048 214.723 234.978C214.903 234.903 215.098 234.823 215.308 234.738C215.518 234.653 215.718 234.57 215.908 234.49C216.103 234.41 216.26 234.345 216.38 234.295L216.373 235.69L215.023 235.938C215.093 236.088 215.148 236.253 215.188 236.433C215.233 236.613 215.255 236.778 215.255 236.928C215.255 237.378 215.133 237.793 214.888 238.173C214.643 238.548 214.275 238.848 213.785 239.073C213.295 239.298 212.683 239.41 211.948 239.41C211.878 239.41 211.788 239.41 211.678 239.41C211.568 239.405 211.475 239.398 211.4 239.388C210.935 239.403 210.615 239.458 210.44 239.553C210.265 239.643 210.178 239.743 210.178 239.853C210.178 239.993 210.29 240.088 210.515 240.138C210.74 240.188 211.11 240.23 211.625 240.265C211.81 240.28 212.045 240.295 212.33 240.31C212.62 240.325 212.94 240.345 213.29 240.37C214.14 240.42 214.788 240.633 215.233 241.008C215.683 241.383 215.908 241.88 215.908 242.5C215.908 243.21 215.585 243.79 214.94 244.24C214.295 244.695 213.315 244.923 212 244.923ZM212.278 243.94C212.963 243.94 213.48 243.84 213.83 243.64C214.18 243.445 214.355 243.153 214.355 242.763C214.355 242.473 214.243 242.235 214.018 242.05C213.793 241.865 213.455 241.758 213.005 241.728L210.935 241.593C210.73 241.583 210.525 241.628 210.32 241.728C210.12 241.828 209.955 241.968 209.825 242.148C209.695 242.323 209.63 242.518 209.63 242.733C209.63 243.123 209.845 243.42 210.275 243.625C210.705 243.835 211.373 243.94 212.278 243.94ZM211.993 238.428C212.513 238.428 212.93 238.303 213.245 238.053C213.565 237.798 213.725 237.433 213.725 236.958C213.725 236.468 213.565 236.09 213.245 235.825C212.93 235.555 212.513 235.42 211.993 235.42C211.468 235.42 211.043 235.555 210.718 235.825C210.398 236.095 210.238 236.473 210.238 236.958C210.238 237.418 210.39 237.778 210.695 238.038C211.005 238.298 211.438 238.428 211.993 238.428Z" fill="#D4D4D4"/>
</g>
<defs>
<filter id="filter0_f_632_2046" x="-248" y="7.26564" width="537.418" height="537.418" filterUnits="userSpaceOnUse" color-interpolation-filters="sRGB">
<feFlood flood-opacity="0" result="BackgroundImageFix"/>
<feBlend mode="normal" in="SourceGraphic" in2="BackgroundImageFix" result="shape"/>
<feGaussianBlur stdDeviation="93.75" result="effect1_foregroundBlur_632_2046"/>
</filter>
<linearGradient id="paint0_linear_632_2046" x1="25.8377" y1="357.184" x2="79.2019" y2="219.408" gradientUnits="userSpaceOnUse">
<stop stop-color="#39D373"/>
<stop offset="1" stop-color="#005F24"/>
</linearGradient>
<linearGradient id="paint1_linear_632_2046" x1="244.092" y1="209.831" x2="247.981" y2="256.984" gradientUnits="userSpaceOnUse">
<stop stop-color="#1A974A"/>
<stop offset="1" stop-color="#171717"/>
</linearGradient>
<clipPath id="clip0_632_2046">
<rect width="549" height="287" rx="22.5" fill="white"/>
</clipPath>
</defs>
</svg>
