<svg width="549" height="215" viewBox="0 0 549 215" fill="none" xmlns="http://www.w3.org/2000/svg">
<g clip-path="url(#clip0_632_2063)">
<rect x="0.5" y="0.228516" width="547.945" height="213.347" rx="23.5" fill="#171717" stroke="#404040"/>
<g filter="url(#filter0_f_632_2063)">
<circle cx="439.286" cy="172.733" r="107.872" fill="url(#paint0_linear_632_2063)" fill-opacity="0.3"/>
</g>
<g clip-path="url(#clip1_632_2063)">
<rect x="369.031" y="91.2266" width="329.004" height="220.12" rx="15" transform="rotate(-2.88652 369.031 91.2266)" fill="#444444"/>
<path d="M383.032 146.074L383.011 145.66L384.552 143.814C384.745 143.581 384.896 143.389 385.005 143.239C385.113 143.086 385.188 142.95 385.229 142.829C385.269 142.709 385.286 142.579 385.279 142.438L385.279 142.432C385.27 142.262 385.226 142.113 385.146 141.983C385.066 141.853 384.956 141.753 384.816 141.682C384.676 141.61 384.512 141.58 384.322 141.589C384.131 141.599 383.965 141.647 383.824 141.735C383.683 141.82 383.577 141.936 383.504 142.083C383.43 142.227 383.399 142.394 383.408 142.583L383.405 142.59L382.831 142.615L382.824 142.612C382.812 142.327 382.868 142.071 382.993 141.844C383.117 141.614 383.296 141.431 383.527 141.294C383.759 141.156 384.029 141.078 384.336 141.063C384.617 141.049 384.872 141.095 385.103 141.202C385.334 141.306 385.519 141.456 385.658 141.652C385.8 141.848 385.877 142.077 385.89 142.337L385.891 142.344C385.9 142.526 385.876 142.704 385.82 142.876C385.767 143.049 385.665 143.242 385.515 143.458C385.365 143.671 385.152 143.935 384.875 144.25L383.694 145.599L383.831 145.314L383.845 145.591L383.693 145.498L386.124 145.376L386.151 145.917L383.032 146.074ZM388.778 145.898C388.422 145.916 388.112 145.829 387.848 145.637C387.586 145.445 387.378 145.164 387.223 144.794C387.068 144.423 386.977 143.979 386.951 143.462L386.951 143.456C386.925 142.939 386.97 142.489 387.087 142.106C387.204 141.723 387.383 141.423 387.624 141.205C387.868 140.987 388.168 140.87 388.524 140.852C388.88 140.834 389.19 140.921 389.455 141.113C389.719 141.305 389.928 141.586 390.083 141.955C390.24 142.324 390.331 142.767 390.358 143.284L390.358 143.29C390.384 143.807 390.337 144.258 390.219 144.643C390.102 145.027 389.922 145.327 389.678 145.545C389.435 145.762 389.135 145.88 388.778 145.898ZM388.752 145.374C388.984 145.362 389.176 145.271 389.331 145.1C389.487 144.929 389.602 144.692 389.673 144.39C389.747 144.087 389.774 143.731 389.753 143.321L389.753 143.314C389.732 142.905 389.67 142.554 389.566 142.262C389.464 141.968 389.327 141.745 389.154 141.593C388.983 141.439 388.782 141.368 388.551 141.379C388.321 141.391 388.128 141.482 387.972 141.653C387.817 141.821 387.704 142.057 387.632 142.36C387.561 142.66 387.535 143.015 387.556 143.425L387.556 143.432C387.577 143.841 387.638 144.193 387.74 144.487C387.842 144.781 387.978 145.005 388.149 145.16C388.322 145.314 388.523 145.385 388.752 145.374ZM395.414 145.563C394.978 145.585 394.595 145.502 394.267 145.313C393.938 145.124 393.677 144.846 393.485 144.479C393.294 144.111 393.186 143.669 393.16 143.153L393.16 143.146C393.134 142.627 393.197 142.175 393.349 141.79C393.504 141.405 393.734 141.102 394.04 140.882C394.348 140.661 394.72 140.539 395.157 140.517C395.495 140.5 395.806 140.552 396.088 140.671C396.373 140.789 396.612 140.961 396.804 141.188C396.996 141.412 397.123 141.677 397.186 141.982L397.183 141.989L396.578 142.019L396.575 142.013C396.511 141.808 396.412 141.635 396.277 141.492C396.143 141.347 395.982 141.238 395.795 141.165C395.611 141.091 395.407 141.06 395.185 141.072C394.877 141.087 394.614 141.181 394.395 141.353C394.178 141.524 394.016 141.76 393.908 142.06C393.801 142.36 393.757 142.712 393.778 143.115L393.778 143.121C393.798 143.522 393.877 143.866 394.014 144.154C394.151 144.442 394.336 144.66 394.569 144.809C394.805 144.958 395.077 145.025 395.386 145.009C395.611 144.998 395.813 144.952 395.992 144.871C396.171 144.789 396.319 144.677 396.437 144.537C396.555 144.395 396.634 144.231 396.674 144.043L396.68 144.036L397.288 144.006L397.288 144.012C397.249 144.309 397.147 144.571 396.98 144.798C396.812 145.023 396.595 145.202 396.327 145.337C396.061 145.47 395.757 145.546 395.414 145.563ZM398.364 145.301L398.121 140.482L399.961 140.389C400.271 140.373 400.543 140.42 400.779 140.528C401.016 140.635 401.204 140.792 401.341 140.999C401.479 141.206 401.555 141.455 401.57 141.744L401.57 141.751C401.587 142.085 401.516 142.379 401.357 142.632C401.198 142.886 400.969 143.068 400.671 143.179L401.888 145.123L401.183 145.159L400.055 143.304C400.05 143.304 400.045 143.304 400.038 143.305C400.031 143.305 400.026 143.305 400.021 143.305L398.869 143.364L398.965 145.27L398.364 145.301ZM398.842 142.829L400.028 142.769C400.337 142.754 400.572 142.663 400.731 142.496C400.892 142.327 400.965 142.096 400.95 141.802L400.95 141.795C400.935 141.508 400.836 141.288 400.652 141.134C400.468 140.981 400.22 140.912 399.908 140.927L398.749 140.986L398.842 142.829Z" fill="white"/>
<path d="M387.095 182.643L386.886 178.492L386.832 178.494L385.651 179.445L385.619 178.81L386.855 177.824L387.453 177.794L387.696 182.613L387.095 182.643ZM390.677 182.576C390.379 182.591 390.11 182.546 389.87 182.439C389.631 182.333 389.434 182.182 389.282 181.987C389.131 181.789 389.037 181.563 389 181.308L388.995 181.272L389.572 181.242L389.577 181.269C389.605 181.422 389.667 181.559 389.765 181.681C389.865 181.801 389.991 181.894 390.144 181.96C390.299 182.026 390.47 182.054 390.657 182.045C390.871 182.034 391.057 181.978 391.215 181.876C391.372 181.772 391.493 181.634 391.576 181.463C391.658 181.291 391.694 181.097 391.684 180.881L391.683 180.875C391.672 180.661 391.616 180.474 391.514 180.314C391.415 180.152 391.282 180.028 391.117 179.942C390.952 179.857 390.765 179.82 390.556 179.83C390.395 179.838 390.249 179.87 390.115 179.926C389.984 179.982 389.869 180.061 389.769 180.164C389.729 180.207 389.691 180.252 389.655 180.301C389.622 180.349 389.591 180.403 389.563 180.463L389.042 180.489L389.156 177.708L391.838 177.572L391.865 178.11L389.658 178.221L389.576 179.859L389.63 179.857C389.695 179.744 389.779 179.648 389.88 179.57C389.981 179.491 390.095 179.429 390.222 179.385C390.351 179.338 390.488 179.311 390.633 179.304C390.936 179.289 391.208 179.345 391.448 179.474C391.689 179.6 391.882 179.781 392.028 180.017C392.174 180.251 392.255 180.523 392.27 180.835L392.271 180.842C392.287 181.165 392.229 181.454 392.097 181.711C391.967 181.965 391.78 182.169 391.535 182.322C391.291 182.475 391.005 182.56 390.677 182.576ZM397.263 182.244C396.827 182.266 396.444 182.183 396.116 181.994C395.787 181.805 395.526 181.527 395.334 181.159C395.143 180.792 395.035 180.35 395.009 179.833L395.009 179.827C394.982 179.308 395.046 178.856 395.198 178.471C395.353 178.086 395.583 177.783 395.889 177.562C396.197 177.341 396.569 177.22 397.005 177.198C397.344 177.181 397.655 177.232 397.937 177.352C398.222 177.469 398.461 177.641 398.653 177.868C398.845 178.093 398.972 178.358 399.035 178.663L399.032 178.669L398.427 178.7L398.423 178.693C398.36 178.489 398.26 178.316 398.126 178.173C397.992 178.028 397.831 177.919 397.644 177.845C397.46 177.772 397.256 177.741 397.033 177.752C396.726 177.768 396.463 177.862 396.244 178.033C396.027 178.205 395.865 178.441 395.757 178.741C395.65 179.041 395.606 179.392 395.626 179.795L395.627 179.802C395.647 180.203 395.726 180.547 395.863 180.835C396 181.123 396.185 181.341 396.418 181.49C396.654 181.639 396.926 181.705 397.235 181.69C397.46 181.678 397.662 181.632 397.841 181.552C398.02 181.469 398.168 181.358 398.286 181.218C398.404 181.076 398.483 180.911 398.523 180.724L398.529 180.717L399.137 180.686L399.137 180.693C399.098 180.99 398.996 181.252 398.828 181.479C398.661 181.704 398.444 181.883 398.176 182.017C397.91 182.151 397.606 182.227 397.263 182.244ZM400.213 181.981L399.97 177.162L401.81 177.07C402.12 177.054 402.392 177.101 402.628 177.209C402.865 177.316 403.053 177.472 403.19 177.68C403.328 177.887 403.404 178.135 403.419 178.425L403.419 178.432C403.436 178.765 403.365 179.059 403.206 179.313C403.047 179.566 402.818 179.749 402.52 179.86L403.736 181.804L403.032 181.839L401.904 179.984C401.899 179.985 401.894 179.985 401.887 179.985C401.88 179.986 401.875 179.986 401.87 179.986L400.718 180.044L400.814 181.951L400.213 181.981ZM400.691 179.51L401.877 179.45C402.186 179.435 402.42 179.343 402.579 179.177C402.741 179.008 402.814 178.777 402.799 178.483L402.799 178.476C402.784 178.189 402.685 177.969 402.501 177.815C402.317 177.661 402.069 177.592 401.757 177.608L400.598 177.666L400.691 179.51Z" fill="white"/>
<path d="M388.862 219.328L388.653 215.177L388.6 215.179L387.419 216.129L387.387 215.495L388.623 214.508L389.221 214.478L389.464 219.297L388.862 219.328ZM392.475 219.259C392.119 219.277 391.809 219.19 391.544 218.998C391.283 218.806 391.074 218.525 390.919 218.156C390.765 217.784 390.674 217.34 390.648 216.824L390.648 216.817C390.622 216.301 390.667 215.851 390.784 215.468C390.901 215.084 391.08 214.784 391.321 214.567C391.564 214.349 391.864 214.231 392.221 214.213C392.577 214.195 392.887 214.282 393.151 214.474C393.415 214.666 393.625 214.947 393.78 215.317C393.937 215.686 394.028 216.129 394.054 216.645L394.054 216.652C394.08 217.168 394.034 217.619 393.915 218.005C393.798 218.388 393.618 218.688 393.375 218.906C393.131 219.124 392.831 219.241 392.475 219.259ZM392.449 218.735C392.68 218.723 392.873 218.632 393.027 218.462C393.184 218.291 393.298 218.054 393.37 217.751C393.444 217.448 393.471 217.092 393.45 216.682L393.45 216.676C393.429 216.266 393.367 215.915 393.263 215.624C393.161 215.33 393.023 215.107 392.851 214.955C392.68 214.801 392.479 214.729 392.247 214.741C392.018 214.752 391.825 214.844 391.668 215.014C391.514 215.183 391.401 215.419 391.329 215.721C391.257 216.022 391.231 216.377 391.252 216.787L391.252 216.793C391.273 217.203 391.334 217.555 391.436 217.849C391.538 218.143 391.674 218.367 391.845 218.521C392.018 218.675 392.219 218.747 392.449 218.735ZM399.111 218.925C398.675 218.947 398.292 218.863 397.963 218.675C397.635 218.486 397.374 218.208 397.181 217.84C396.991 217.473 396.883 217.031 396.857 216.514L396.856 216.507C396.83 215.989 396.893 215.537 397.046 215.152C397.2 214.767 397.431 214.464 397.736 214.243C398.045 214.022 398.417 213.901 398.853 213.879C399.192 213.862 399.502 213.913 399.785 214.033C400.07 214.15 400.309 214.322 400.501 214.549C400.693 214.774 400.82 215.039 400.882 215.343L400.879 215.35L400.275 215.381L400.271 215.374C400.207 215.17 400.108 214.996 399.974 214.854C399.839 214.709 399.679 214.599 399.492 214.526C399.307 214.453 399.104 214.422 398.881 214.433C398.574 214.449 398.311 214.542 398.092 214.714C397.875 214.886 397.713 215.122 397.605 215.422C397.497 215.722 397.454 216.073 397.474 216.476L397.474 216.483C397.495 216.884 397.573 217.228 397.711 217.516C397.848 217.803 398.033 218.022 398.266 218.171C398.501 218.319 398.773 218.386 399.083 218.37C399.308 218.359 399.51 218.313 399.689 218.233C399.868 218.15 400.016 218.039 400.134 217.899C400.252 217.757 400.331 217.592 400.37 217.405L400.377 217.398L400.984 217.367L400.985 217.374C400.946 217.671 400.843 217.932 400.676 218.16C400.509 218.385 400.291 218.564 400.024 218.698C399.758 218.832 399.454 218.908 399.111 218.925ZM402.061 218.662L401.818 213.843L403.658 213.75C403.967 213.735 404.24 213.781 404.475 213.89C404.713 213.996 404.9 214.153 405.038 214.36C405.176 214.568 405.252 214.816 405.266 215.106L405.267 215.112C405.284 215.446 405.212 215.74 405.053 215.994C404.894 216.247 404.666 216.429 404.368 216.54L405.584 218.485L404.879 218.52L403.751 216.665C403.747 216.665 403.741 216.666 403.735 216.666C403.728 216.666 403.722 216.667 403.718 216.667L402.566 216.725L402.662 218.632L402.061 218.662ZM402.539 216.191L403.724 216.131C404.034 216.115 404.268 216.024 404.427 215.858C404.588 215.689 404.661 215.458 404.647 215.164L404.646 215.157C404.632 214.87 404.533 214.649 404.348 214.496C404.164 214.342 403.916 214.273 403.605 214.289L402.446 214.347L402.539 216.191Z" fill="white"/>
<path d="M411.68 143.783L688.542 129.823" stroke="white" stroke-width="0.396547" stroke-dasharray="1.98 1.98"/>
<path d="M413.5 179.887L690.362 165.927" stroke="white" stroke-width="0.396547" stroke-dasharray="1.98 1.98"/>
<path d="M415.32 215.991L692.183 202.031" stroke="white" stroke-width="0.396547" stroke-dasharray="1.98 1.98"/>
<g clip-path="url(#clip2_632_2063)">
<path d="M537.316 172.038L560.115 170.889L559.375 156.202C559.248 153.683 557.103 151.745 554.585 151.872L540.906 152.561C538.387 152.688 536.449 154.833 536.576 157.351L537.316 172.038Z" fill="#16A34A"/>
<rect width="22.8277" height="22.6141" transform="matrix(0.998731 -0.0503579 -0.0503579 -0.998731 538.457 194.624)" fill="#DC2626"/>
<rect x="538.457" y="194.624" width="22.8277" height="61.9458" transform="rotate(-2.88652 538.457 194.624)" fill="#155DFC"/>
</g>
<g clip-path="url(#clip3_632_2063)">
<path d="M428.035 203.263L450.834 202.113L450.093 187.426C449.966 184.907 447.822 182.969 445.304 183.096L431.624 183.786C429.106 183.913 427.168 186.057 427.295 188.575L428.035 203.263Z" fill="#16A34A"/>
<path d="M429.176 225.848L451.975 224.698L450.836 202.113L428.037 203.263L429.176 225.848Z" fill="#DC2626"/>
</g>
</g>
<rect x="369.331" y="91.4972" width="328.434" height="219.549" rx="14.7147" transform="rotate(-2.88652 369.331 91.4972)" stroke="black" stroke-opacity="0.1" stroke-width="0.570692"/>
<g filter="url(#filter1_d_632_2063)">
<g clip-path="url(#clip4_632_2063)">
<rect x="237.062" y="113.695" width="153" height="162.75" rx="15" transform="rotate(5.57276 237.062 113.695)" fill="#444444"/>
<path d="M306.884 161.209C301.113 160.637 295.286 161.034 289.645 162.384L294.503 182.684C297.881 181.876 301.369 181.638 304.825 181.981L306.884 161.209Z" fill="#16A34A"/>
<path d="M289.653 162.382C277.634 165.256 267.03 172.315 259.741 182.294L276.598 194.606C280.962 188.631 287.311 184.404 294.508 182.683L289.653 162.382Z" fill="#39D373"/>
<path d="M259.893 182.088C255.891 187.511 252.981 193.659 251.325 200.191L271.558 205.322C272.55 201.411 274.292 197.73 276.688 194.483L259.893 182.088Z" fill="#D97706"/>
<path d="M251.724 198.708C249.811 205.417 249.266 212.443 250.122 219.366C250.979 226.29 253.219 232.971 256.71 239.011C260.202 245.052 264.872 250.328 270.444 254.527C276.015 258.726 282.375 261.761 289.143 263.452L294.203 243.2C290.15 242.188 286.342 240.371 283.006 237.857C279.67 235.343 276.873 232.183 274.783 228.566C272.693 224.95 271.351 220.949 270.838 216.804C270.325 212.658 270.651 208.451 271.797 204.434L251.724 198.708Z" fill="#155DFC"/>
<path d="M352.971 203.859C350.982 192.691 345.398 182.479 337.068 174.778C328.738 167.077 318.12 162.311 306.83 161.203L304.793 181.977C311.553 182.64 317.911 185.495 322.898 190.105C327.886 194.716 331.23 200.831 332.421 207.518L352.971 203.859Z" fill="#16A34A"/>
<path d="M333.829 253.938C341.298 248.088 347.026 240.308 350.392 231.438C353.758 222.568 354.635 212.946 352.927 203.614L332.394 207.372C333.417 212.959 332.892 218.72 330.876 224.031C328.861 229.342 325.431 234.001 320.959 237.504L333.829 253.938Z" fill="#16A34A"/>
<path d="M293.535 216.363L293.655 215.141L297.317 212.065C298.83 210.808 299.266 210.333 299.342 209.553L299.345 209.532C299.436 208.597 298.862 207.86 297.808 207.758C296.733 207.653 295.94 208.292 295.838 209.339L295.828 209.366L294.143 209.195L294.138 209.173C294.322 207.283 295.926 206.106 298.041 206.312C300.016 206.505 301.318 207.845 301.151 209.552L301.149 209.573C301.037 210.725 300.393 211.585 298.371 213.182L296.149 214.951L296.134 215.099L300.723 215.547L300.576 217.05L293.535 216.363ZM306.278 217.862C303.868 217.627 302.62 215.441 302.939 212.167L302.94 212.153C303.26 208.878 304.906 206.982 307.316 207.217C309.726 207.452 310.989 209.632 310.67 212.907L310.668 212.921C310.349 216.195 308.688 218.097 306.278 217.862ZM306.421 216.393C307.714 216.52 308.607 215.146 308.841 212.742L308.843 212.728C309.077 210.325 308.465 208.819 307.172 208.693C305.879 208.566 305.002 209.928 304.767 212.331L304.766 212.345C304.532 214.748 305.128 216.267 306.421 216.393Z" fill="white"/>
</g>
<rect x="237.232" y="113.901" width="152.622" height="162.372" rx="14.8109" transform="rotate(5.57276 237.232 113.901)" stroke="black" stroke-opacity="0.1" stroke-width="0.378282"/>
</g>
<path d="M387.521 116.903C387.144 116.924 386.78 116.899 386.429 116.828C386.077 116.753 385.753 116.633 385.457 116.467C385.163 116.298 384.916 116.083 384.715 115.821C384.514 115.555 384.383 115.24 384.32 114.875L385.641 114.801C385.711 115.053 385.833 115.261 386.008 115.427C386.185 115.592 386.404 115.713 386.664 115.789C386.925 115.865 387.212 115.895 387.526 115.877C387.806 115.861 388.064 115.804 388.3 115.707C388.537 115.609 388.725 115.474 388.866 115.302C389.007 115.125 389.071 114.915 389.057 114.67C389.041 114.394 388.931 114.185 388.727 114.042C388.526 113.896 388.242 113.787 387.877 113.717L386.374 113.45C385.985 113.384 385.642 113.276 385.346 113.124C385.054 112.972 384.821 112.765 384.648 112.501C384.475 112.234 384.378 111.901 384.355 111.503C384.329 111.048 384.431 110.648 384.66 110.302C384.893 109.956 385.22 109.682 385.639 109.479C386.059 109.273 386.538 109.155 387.076 109.124C387.691 109.09 388.216 109.163 388.65 109.345C389.084 109.524 389.421 109.779 389.661 110.109C389.9 110.439 390.033 110.808 390.06 111.217L388.771 111.29C388.725 110.987 388.623 110.753 388.463 110.587C388.302 110.417 388.105 110.298 387.869 110.231C387.634 110.164 387.377 110.138 387.097 110.154C386.601 110.182 386.238 110.309 386.009 110.536C385.78 110.763 385.674 111.02 385.69 111.306C385.705 111.575 385.807 111.783 385.994 111.931C386.181 112.078 386.46 112.185 386.832 112.251L388.261 112.502C388.738 112.573 389.126 112.701 389.424 112.888C389.722 113.074 389.943 113.304 390.088 113.576C390.237 113.844 390.321 114.146 390.34 114.482C390.365 114.922 390.261 115.319 390.028 115.672C389.8 116.025 389.47 116.31 389.041 116.527C388.612 116.744 388.105 116.87 387.521 116.903ZM393.269 116.577C392.923 116.597 392.608 116.551 392.325 116.441C392.045 116.327 391.82 116.156 391.649 115.927C391.482 115.695 391.389 115.408 391.369 115.065C391.335 114.468 391.525 114.005 391.937 113.676C392.353 113.348 393.033 113.15 393.976 113.082L394.787 113.015L394.766 112.648C394.75 112.362 394.651 112.143 394.471 111.992C394.294 111.837 394.028 111.772 393.671 111.796C393.406 111.814 393.168 111.891 392.959 112.025C392.749 112.156 392.617 112.365 392.563 112.652L391.478 112.714C391.478 112.342 391.567 112.027 391.745 111.768C391.927 111.505 392.183 111.303 392.515 111.162C392.847 111.017 393.235 110.932 393.679 110.906C394.196 110.877 394.621 110.921 394.954 111.039C395.286 111.157 395.537 111.341 395.705 111.591C395.873 111.837 395.968 112.142 395.988 112.506L396.204 116.306L395.129 116.367L394.969 115.398C394.8 115.817 394.57 116.114 394.278 116.289C393.99 116.459 393.653 116.555 393.269 116.577ZM393.634 115.689C393.791 115.68 393.945 115.643 394.096 115.579C394.246 115.51 394.38 115.424 394.497 115.319C394.617 115.211 394.71 115.093 394.776 114.967C394.846 114.84 394.879 114.71 394.875 114.577L394.827 113.723L394.162 113.771C393.833 113.793 393.547 113.845 393.303 113.925C393.062 114.005 392.878 114.123 392.75 114.277C392.621 114.428 392.564 114.624 392.578 114.865C392.593 115.141 392.702 115.353 392.903 115.499C393.104 115.642 393.348 115.705 393.634 115.689ZM399.128 116.219C398.779 116.239 398.497 116.211 398.282 116.136C398.068 116.06 397.904 115.952 397.791 115.811C397.677 115.67 397.6 115.51 397.558 115.33C397.516 115.146 397.49 114.959 397.479 114.766L397.121 108.44L398.368 108.369L398.718 114.549C398.732 114.783 398.789 114.962 398.891 115.086C398.996 115.21 399.157 115.276 399.375 115.285L399.648 115.28L399.694 116.082C399.601 116.115 399.506 116.145 399.41 116.172C399.313 116.198 399.219 116.214 399.128 116.219ZM403.004 116.026C402.483 116.055 402.017 115.971 401.607 115.774C401.199 115.572 400.872 115.272 400.625 114.872C400.381 114.472 400.243 113.988 400.211 113.418C400.18 112.863 400.251 112.364 400.426 111.923C400.604 111.478 400.877 111.121 401.244 110.851C401.614 110.582 402.07 110.431 402.612 110.401C403.146 110.37 403.602 110.458 403.978 110.665C404.354 110.872 404.648 111.174 404.86 111.572C405.072 111.967 405.193 112.437 405.224 112.982L405.246 113.37L401.498 113.582C401.512 113.89 401.576 114.159 401.691 114.391C401.806 114.623 401.967 114.802 402.174 114.927C402.38 115.048 402.631 115.101 402.924 115.084C403.225 115.067 403.481 114.986 403.694 114.841C403.91 114.692 404.047 114.477 404.104 114.197L405.268 114.131C405.226 114.512 405.094 114.84 404.872 115.116C404.652 115.391 404.377 115.606 404.046 115.762C403.718 115.917 403.371 116.005 403.004 116.026ZM401.448 112.791L403.996 112.646C403.981 112.384 403.92 112.151 403.814 111.947C403.711 111.739 403.563 111.579 403.371 111.467C403.179 111.352 402.941 111.302 402.658 111.318C402.379 111.334 402.147 111.415 401.962 111.563C401.778 111.71 401.643 111.895 401.557 112.117C401.471 112.335 401.435 112.56 401.448 112.791ZM408.663 115.705C408.285 115.727 407.924 115.688 407.578 115.588C407.236 115.485 406.942 115.31 406.697 115.065C406.455 114.819 406.293 114.494 406.21 114.088L407.332 114.025C407.392 114.221 407.487 114.379 407.616 114.497C407.749 114.616 407.901 114.7 408.072 114.75C408.247 114.797 408.425 114.815 408.606 114.804C408.931 114.786 409.19 114.715 409.383 114.592C409.576 114.469 409.666 114.29 409.653 114.056C409.643 113.885 409.579 113.752 409.462 113.657C409.348 113.562 409.165 113.495 408.914 113.456L407.873 113.279C407.406 113.204 407.028 113.057 406.739 112.838C406.449 112.62 406.291 112.297 406.263 111.871C406.242 111.55 406.306 111.259 406.456 110.998C406.606 110.737 406.839 110.526 407.156 110.364C407.473 110.199 407.869 110.103 408.344 110.076C408.976 110.04 409.491 110.153 409.888 110.414C410.288 110.672 410.508 111.061 410.548 111.581L409.463 111.643C409.412 111.411 409.291 111.235 409.102 111.116C408.913 110.994 408.673 110.941 408.383 110.957C408.083 110.974 407.84 111.046 407.654 111.172C407.468 111.298 407.382 111.48 407.396 111.718C407.405 111.882 407.484 112.007 407.633 112.093C407.785 112.179 408.011 112.247 408.312 112.297L409.3 112.478C409.584 112.532 409.818 112.613 410.003 112.722C410.188 112.83 410.333 112.954 410.439 113.091C410.549 113.225 410.627 113.366 410.674 113.515C410.724 113.659 410.753 113.794 410.76 113.92C410.779 114.269 410.705 114.573 410.538 114.832C410.373 115.086 410.131 115.289 409.81 115.441C409.492 115.592 409.11 115.68 408.663 115.705ZM416.58 115.194C416.15 115.218 415.814 115.181 415.57 115.083C415.329 114.981 415.157 114.828 415.054 114.623C414.952 114.419 414.892 114.171 414.876 113.881L414.697 110.726L413.817 110.776L413.765 109.874L414.683 109.822L414.911 108.195L415.829 108.143L415.919 109.747L417.13 109.678L417.182 110.585L415.971 110.654L416.152 113.762C416.161 113.922 416.185 114.04 416.225 114.115C416.267 114.186 416.329 114.232 416.411 114.252C416.496 114.268 416.607 114.272 416.743 114.265L417.414 114.227L417.46 115.034C417.388 115.066 417.281 115.097 417.139 115.126C417.001 115.158 416.814 115.181 416.58 115.194ZM418.641 115.035L418.2 107.246L419.458 107.175L419.637 110.33C419.716 110.189 419.824 110.052 419.96 109.918C420.096 109.78 420.265 109.666 420.467 109.574C420.671 109.478 420.919 109.422 421.209 109.405C421.555 109.386 421.875 109.434 422.169 109.551C422.463 109.667 422.703 109.847 422.888 110.088C423.074 110.327 423.176 110.619 423.196 110.965L423.411 114.765L422.132 114.838L421.929 111.252C421.913 110.973 421.801 110.762 421.593 110.619C421.389 110.477 421.136 110.414 420.836 110.431C420.637 110.442 420.448 110.488 420.27 110.568C420.093 110.648 419.952 110.761 419.848 110.907C419.747 111.05 419.703 111.224 419.715 111.43L419.915 114.963L418.641 115.035ZM424.794 114.687L424.487 109.267L425.709 109.198L426.015 114.618L424.794 114.687ZM424.413 108.319L424.344 107.114L425.607 107.042L425.676 108.248L424.413 108.319ZM429.557 114.522C429.18 114.544 428.819 114.505 428.473 114.405C428.13 114.302 427.837 114.127 427.591 113.882C427.35 113.636 427.187 113.31 427.105 112.905L428.227 112.841C428.287 113.038 428.382 113.195 428.511 113.314C428.644 113.433 428.796 113.517 428.967 113.567C429.141 113.613 429.319 113.631 429.501 113.621C429.826 113.603 430.085 113.532 430.278 113.409C430.471 113.286 430.561 113.107 430.547 112.873C430.538 112.702 430.474 112.569 430.356 112.474C430.242 112.378 430.06 112.312 429.809 112.273L428.768 112.096C428.301 112.02 427.923 111.873 427.634 111.655C427.344 111.436 427.186 111.114 427.158 110.688C427.136 110.367 427.201 110.076 427.351 109.815C427.501 109.554 427.734 109.343 428.051 109.181C428.368 109.016 428.763 108.92 429.239 108.893C429.871 108.857 430.386 108.97 430.783 109.231C431.183 109.489 431.403 109.878 431.443 110.398L430.358 110.46C430.306 110.228 430.186 110.052 429.997 109.933C429.808 109.811 429.568 109.758 429.278 109.774C428.978 109.791 428.734 109.863 428.549 109.989C428.363 110.115 428.277 110.297 428.291 110.535C428.3 110.699 428.379 110.824 428.527 110.91C428.679 110.996 428.906 111.064 429.207 111.114L430.195 111.294C430.479 111.348 430.713 111.43 430.898 111.538C431.083 111.647 431.228 111.77 431.334 111.908C431.443 112.042 431.521 112.183 431.568 112.331C431.619 112.476 431.647 112.611 431.654 112.737C431.674 113.086 431.6 113.39 431.433 113.648C431.268 113.903 431.026 114.106 430.705 114.258C430.387 114.409 430.005 114.497 429.557 114.522ZM435.297 114.092L434.99 108.672L436.233 108.602L436.277 109.378C436.42 109.131 436.622 108.913 436.881 108.723C437.144 108.533 437.485 108.426 437.904 108.402C438.096 108.391 438.292 108.413 438.492 108.469C438.694 108.524 438.883 108.611 439.059 108.731C439.237 108.851 439.382 109.004 439.495 109.19C439.651 108.925 439.867 108.703 440.14 108.523C440.418 108.342 440.735 108.242 441.091 108.222C441.287 108.211 441.489 108.231 441.699 108.282C441.912 108.333 442.11 108.427 442.293 108.564C442.476 108.701 442.629 108.894 442.752 109.142C442.875 109.388 442.947 109.701 442.968 110.082L443.17 113.646L441.897 113.718L441.703 110.306C441.688 110.037 441.629 109.828 441.526 109.68C441.423 109.531 441.294 109.43 441.141 109.376C440.99 109.318 440.831 109.293 440.663 109.303C440.513 109.311 440.357 109.35 440.196 109.419C440.039 109.487 439.907 109.593 439.799 109.736C439.695 109.878 439.649 110.065 439.662 110.295L439.863 113.834L438.589 113.906L438.384 110.289C438.374 110.1 438.316 109.946 438.211 109.826C438.106 109.705 437.976 109.618 437.823 109.564C437.672 109.505 437.52 109.481 437.366 109.49C437.209 109.498 437.05 109.541 436.89 109.616C436.733 109.692 436.604 109.801 436.503 109.943C436.403 110.086 436.358 110.265 436.371 110.482L436.571 114.02L435.297 114.092ZM446.823 113.545C446.305 113.574 445.848 113.489 445.452 113.291C445.055 113.089 444.738 112.786 444.501 112.383C444.268 111.979 444.135 111.485 444.102 110.901C444.069 110.335 444.144 109.833 444.326 109.395C444.509 108.957 444.783 108.609 445.151 108.349C445.522 108.09 445.974 107.945 446.509 107.915C447.026 107.886 447.482 107.974 447.875 108.179C448.269 108.385 448.581 108.693 448.811 109.104C449.045 109.515 449.178 110.018 449.212 110.612C449.243 111.16 449.171 111.65 448.996 112.081C448.823 112.508 448.554 112.851 448.186 113.11C447.822 113.369 447.368 113.514 446.823 113.545ZM446.773 112.575C447.066 112.558 447.303 112.464 447.483 112.293C447.666 112.121 447.796 111.893 447.875 111.608C447.954 111.323 447.983 111.002 447.963 110.646C447.944 110.314 447.884 110.01 447.785 109.736C447.685 109.461 447.534 109.245 447.333 109.088C447.134 108.928 446.878 108.856 446.563 108.874C446.266 108.891 446.024 108.983 445.838 109.152C445.654 109.316 445.523 109.541 445.445 109.826C445.366 110.107 445.337 110.43 445.357 110.793C445.376 111.122 445.435 111.425 445.535 111.703C445.635 111.978 445.786 112.198 445.988 112.361C446.19 112.522 446.451 112.593 446.773 112.575ZM450.531 113.229L450.224 107.81L451.471 107.739L451.515 108.515C451.591 108.37 451.697 108.229 451.833 108.092C451.973 107.954 452.147 107.839 452.355 107.747C452.564 107.654 452.811 107.6 453.098 107.584C453.433 107.565 453.748 107.614 454.042 107.73C454.34 107.847 454.584 108.041 454.775 108.314C454.969 108.587 455.079 108.948 455.104 109.395L455.306 112.959L454.027 113.032L453.834 109.619C453.813 109.263 453.701 109.005 453.495 108.844C453.29 108.681 453.038 108.607 452.741 108.624C452.539 108.636 452.349 108.681 452.171 108.762C451.993 108.838 451.85 108.95 451.743 109.096C451.639 109.239 451.592 109.413 451.604 109.619L451.804 113.157L450.531 113.229ZM458.636 112.813C458.206 112.837 457.869 112.8 457.625 112.702C457.385 112.599 457.213 112.446 457.11 112.242C457.007 112.037 456.948 111.79 456.931 111.5L456.753 108.344L455.872 108.394L455.821 107.493L456.738 107.441L456.967 105.813L457.884 105.762L457.975 107.365L459.186 107.297L459.237 108.204L458.026 108.272L458.208 111.38C458.217 111.541 458.241 111.659 458.28 111.734C458.323 111.805 458.385 111.85 458.467 111.87C458.552 111.887 458.663 111.891 458.799 111.883L459.47 111.845L459.515 112.652C459.444 112.684 459.337 112.715 459.195 112.744C459.056 112.777 458.87 112.799 458.636 112.813ZM460.697 112.654L460.256 104.865L461.513 104.794L461.692 107.949C461.772 107.808 461.88 107.67 462.016 107.536C462.152 107.399 462.321 107.284 462.522 107.192C462.727 107.096 462.975 107.04 463.265 107.024C463.611 107.004 463.931 107.053 464.225 107.169C464.519 107.286 464.758 107.465 464.944 107.707C465.129 107.945 465.232 108.238 465.251 108.584L465.466 112.384L464.187 112.456L463.984 108.871C463.969 108.591 463.857 108.38 463.649 108.238C463.444 108.095 463.192 108.032 462.892 108.049C462.692 108.061 462.504 108.106 462.326 108.187C462.148 108.267 462.008 108.38 461.904 108.526C461.803 108.668 461.759 108.843 461.77 109.049L461.97 112.582L460.697 112.654Z" fill="white"/>
<path d="M249.847 140.248L250.527 132.687L253.21 132.929C253.753 132.978 254.231 133.116 254.643 133.342C255.059 133.566 255.374 133.87 255.589 134.255C255.804 134.64 255.887 135.097 255.84 135.627C255.795 136.126 255.643 136.542 255.384 136.878C255.129 137.213 254.793 137.457 254.375 137.609C253.957 137.761 253.48 137.813 252.943 137.765L251.385 137.625L251.138 140.364L249.847 140.248ZM251.466 136.604L253.003 136.742C253.446 136.782 253.819 136.682 254.121 136.442C254.428 136.203 254.6 135.87 254.638 135.445C254.677 135.013 254.561 134.665 254.289 134.402C254.018 134.135 253.661 133.981 253.219 133.942L251.718 133.807L251.466 136.604ZM259.61 141.233C258.913 141.17 258.323 140.962 257.842 140.61C257.364 140.257 257.012 139.779 256.785 139.175C256.562 138.572 256.486 137.866 256.559 137.057C256.633 136.241 256.835 135.555 257.166 134.998C257.498 134.441 257.932 134.03 258.469 133.766C259.009 133.502 259.622 133.401 260.309 133.462C260.996 133.524 261.576 133.733 262.05 134.088C262.528 134.444 262.878 134.925 263.101 135.532C263.324 136.139 263.399 136.851 263.325 137.666C263.253 138.475 263.054 139.157 262.73 139.711C262.407 140.261 261.978 140.669 261.445 140.934C260.912 141.195 260.3 141.295 259.61 141.233ZM259.706 140.166C260.117 140.203 260.479 140.139 260.793 139.974C261.107 139.805 261.361 139.524 261.554 139.13C261.752 138.734 261.88 138.209 261.938 137.557C261.998 136.895 261.966 136.347 261.844 135.915C261.721 135.478 261.521 135.148 261.243 134.922C260.964 134.697 260.621 134.566 260.213 134.529C259.802 134.492 259.437 134.561 259.119 134.736C258.805 134.908 258.547 135.198 258.345 135.605C258.144 136.009 258.013 136.54 257.954 137.199C257.895 137.85 257.929 138.389 258.056 138.815C258.183 139.238 258.386 139.56 258.665 139.782C258.947 140.001 259.294 140.129 259.706 140.166ZM266.871 141.781L267.552 134.22C267.583 134.223 267.675 134.231 267.829 134.245C267.982 134.259 268.163 134.275 268.373 134.294C268.585 134.313 268.799 134.334 269.015 134.357C269.235 134.377 269.425 134.396 269.585 134.413C270.503 134.514 271.237 134.74 271.785 135.091C272.337 135.44 272.722 135.901 272.941 136.476C273.164 137.048 273.24 137.721 273.171 138.495C273.098 139.303 272.891 139.979 272.551 140.521C272.214 141.063 271.735 141.46 271.115 141.71C270.499 141.956 269.736 142.039 268.827 141.957L266.871 141.781ZM268.257 140.846L268.942 140.908C269.461 140.955 269.928 140.907 270.341 140.765C270.755 140.619 271.092 140.354 271.351 139.97C271.614 139.586 271.776 139.056 271.837 138.38C271.896 137.725 271.839 137.19 271.665 136.778C271.491 136.365 271.217 136.054 270.842 135.844C270.468 135.632 270.009 135.501 269.465 135.452L268.749 135.387L268.257 140.846ZM274.103 142.432L274.589 137.025L275.808 137.135L275.321 142.542L274.103 142.432ZM274.654 136.077L274.762 134.874L276.022 134.988L275.914 136.19L274.654 136.077ZM278.839 142.964C278.462 142.93 278.111 142.838 277.783 142.689C277.459 142.537 277.194 142.322 276.987 142.043C276.784 141.765 276.671 141.419 276.648 141.006L277.767 141.107C277.798 141.31 277.869 141.479 277.98 141.616C278.094 141.753 278.232 141.858 278.394 141.933C278.56 142.004 278.733 142.048 278.915 142.064C279.239 142.093 279.505 142.061 279.714 141.967C279.923 141.873 280.038 141.71 280.059 141.476C280.074 141.305 280.031 141.165 279.928 141.053C279.829 140.943 279.658 140.85 279.415 140.775L278.412 140.448C277.961 140.305 277.608 140.105 277.354 139.846C277.099 139.588 276.99 139.246 277.024 138.821C277.05 138.5 277.156 138.221 277.342 137.985C277.529 137.748 277.79 137.573 278.127 137.46C278.465 137.342 278.87 137.305 279.345 137.348C279.975 137.405 280.468 137.591 280.823 137.908C281.181 138.221 281.342 138.638 281.306 139.159L280.223 139.061C280.206 138.824 280.113 138.633 279.943 138.488C279.774 138.339 279.544 138.251 279.255 138.225C278.955 138.198 278.704 138.234 278.502 138.332C278.3 138.429 278.188 138.597 278.167 138.834C278.152 138.998 278.212 139.133 278.347 139.24C278.485 139.347 278.699 139.447 278.989 139.54L279.94 139.863C280.213 139.958 280.433 140.073 280.6 140.207C280.767 140.342 280.893 140.485 280.978 140.637C281.066 140.785 281.123 140.936 281.148 141.089C281.176 141.24 281.185 141.377 281.174 141.503C281.142 141.851 281.025 142.141 280.821 142.373C280.622 142.601 280.352 142.766 280.012 142.869C279.676 142.972 279.285 143.004 278.839 142.964ZM284.295 143.392C283.867 143.353 283.539 143.267 283.312 143.134C283.089 142.998 282.941 142.822 282.869 142.604C282.797 142.387 282.775 142.134 282.801 141.844L283.084 138.697L282.206 138.618L282.286 137.718L283.202 137.801L283.665 136.224L284.58 136.306L284.436 137.906L285.644 138.015L285.562 138.92L284.355 138.811L284.081 141.912C284.066 142.073 284.073 142.193 284.101 142.272C284.133 142.349 284.188 142.403 284.266 142.435C284.347 142.463 284.456 142.484 284.592 142.496L285.261 142.556L285.189 143.361C285.113 143.383 285.003 143.397 284.858 143.405C284.717 143.417 284.529 143.413 284.295 143.392ZM286.357 143.535L286.844 138.128L288.062 138.238L287.957 139.409C288.068 139.149 288.212 138.932 288.39 138.758C288.571 138.581 288.776 138.452 289.004 138.37C289.233 138.289 289.476 138.26 289.734 138.283C289.797 138.289 289.858 138.298 289.916 138.31C289.975 138.322 290.018 138.339 290.044 138.359L289.934 139.577C289.897 139.556 289.848 139.539 289.786 139.527C289.727 139.514 289.675 139.506 289.63 139.502C289.37 139.458 289.138 139.447 288.932 139.471C288.729 139.495 288.554 139.551 288.405 139.64C288.26 139.725 288.146 139.841 288.063 139.988C287.98 140.132 287.929 140.305 287.911 140.507L287.628 143.649L286.357 143.535ZM290.586 143.916L291.072 138.509L292.291 138.619L291.804 144.025L290.586 143.916ZM291.137 137.561L291.245 136.358L292.505 136.472L292.397 137.674L291.137 137.561ZM296.157 144.523C295.868 144.497 295.624 144.436 295.425 144.341C295.227 144.246 295.063 144.131 294.935 143.996C294.81 143.862 294.712 143.721 294.64 143.574C294.573 143.424 294.524 143.283 294.494 143.15L294.248 144.245L293.312 144.161L294.011 136.391L295.287 136.506L295.003 139.659C295.069 139.559 295.155 139.462 295.262 139.366C295.372 139.27 295.503 139.186 295.654 139.111C295.804 139.037 295.973 138.982 296.159 138.946C296.349 138.907 296.555 138.897 296.778 138.917C297.451 138.978 297.961 139.265 298.308 139.777C298.656 140.29 298.789 140.996 298.708 141.895C298.657 142.464 298.525 142.953 298.312 143.362C298.103 143.772 297.817 144.08 297.454 144.286C297.095 144.489 296.663 144.568 296.157 144.523ZM295.98 143.563C296.36 143.597 296.686 143.474 296.957 143.193C297.229 142.911 297.395 142.431 297.456 141.751C297.509 141.158 297.435 140.7 297.232 140.376C297.029 140.049 296.719 139.866 296.301 139.828C296.001 139.801 295.749 139.847 295.545 139.966C295.345 140.085 295.185 140.275 295.067 140.534C294.952 140.795 294.875 141.122 294.836 141.515C294.774 142.205 294.834 142.71 295.016 143.028C295.202 143.344 295.524 143.522 295.98 143.563ZM301.56 145.009C301.295 144.985 301.042 144.924 300.802 144.825C300.565 144.723 300.356 144.588 300.174 144.421C299.993 144.25 299.854 144.047 299.759 143.814C299.665 143.58 299.63 143.316 299.657 143.019L299.991 139.312L301.267 139.427L300.946 142.988C300.92 143.281 300.99 143.529 301.158 143.734C301.33 143.939 301.603 144.059 301.98 144.093C302.322 144.124 302.603 144.059 302.825 143.9C303.047 143.737 303.173 143.487 303.203 143.149L303.52 139.63L304.786 139.744L304.299 145.15L303.321 145.062L303.275 143.993C303.182 144.284 303.044 144.507 302.862 144.662C302.683 144.815 302.479 144.916 302.249 144.966C302.023 145.016 301.794 145.03 301.56 145.009ZM307.907 145.517C307.478 145.479 307.15 145.393 306.923 145.26C306.7 145.124 306.553 144.947 306.481 144.73C306.409 144.513 306.386 144.259 306.412 143.97L306.695 140.822L305.817 140.743L305.898 139.844L306.813 139.926L307.277 138.35L308.192 138.432L308.048 140.032L309.255 140.141L309.174 141.045L307.966 140.937L307.692 144.038C307.678 144.198 307.685 144.318 307.712 144.398C307.744 144.475 307.799 144.529 307.877 144.561C307.959 144.589 308.068 144.609 308.204 144.622L308.873 144.682L308.8 145.487C308.725 145.508 308.614 145.523 308.47 145.531C308.328 145.543 308.14 145.538 307.907 145.517ZM309.99 145.663L310.476 140.256L311.695 140.366L311.208 145.772L309.99 145.663ZM310.541 139.308L310.649 138.105L311.909 138.218L311.801 139.421L310.541 139.308ZM314.925 146.212C314.409 146.166 313.969 146.016 313.605 145.761C313.242 145.504 312.973 145.158 312.797 144.724C312.626 144.29 312.566 143.783 312.618 143.2C312.669 142.636 312.817 142.15 313.06 141.743C313.304 141.336 313.627 141.032 314.028 140.829C314.433 140.626 314.902 140.549 315.436 140.597C315.951 140.643 316.389 140.797 316.749 141.058C317.108 141.319 317.372 141.669 317.54 142.11C317.711 142.55 317.77 143.067 317.716 143.659C317.667 144.207 317.524 144.681 317.288 145.081C317.055 145.478 316.738 145.778 316.337 145.981C315.939 146.184 315.469 146.261 314.925 146.212ZM315.017 145.245C315.31 145.272 315.558 145.213 315.76 145.07C315.966 144.927 316.129 144.72 316.248 144.45C316.368 144.179 316.443 143.866 316.475 143.511C316.505 143.18 316.491 142.871 316.432 142.584C316.374 142.298 316.256 142.062 316.079 141.878C315.906 141.69 315.663 141.582 315.349 141.554C315.053 141.527 314.8 141.584 314.591 141.723C314.385 141.859 314.223 142.062 314.104 142.333C313.985 142.6 313.909 142.914 313.876 143.277C313.847 143.604 313.861 143.913 313.92 144.203C313.978 144.49 314.095 144.729 314.271 144.92C314.448 145.108 314.696 145.217 315.017 145.245ZM318.639 146.441L319.126 141.035L320.37 141.147L320.301 141.921C320.397 141.789 320.522 141.665 320.677 141.549C320.835 141.433 321.024 141.344 321.244 141.283C321.464 141.222 321.716 141.205 322.002 141.23C322.337 141.26 322.641 141.355 322.915 141.513C323.192 141.671 323.406 141.9 323.555 142.198C323.707 142.496 323.763 142.868 323.723 143.315L323.403 146.87L322.127 146.755L322.433 143.351C322.465 142.996 322.391 142.724 322.212 142.535C322.032 142.344 321.794 142.234 321.498 142.208C321.296 142.189 321.101 142.207 320.913 142.26C320.726 142.31 320.569 142.4 320.441 142.529C320.317 142.655 320.246 142.821 320.228 143.026L319.91 146.556L318.639 146.441Z" fill="white"/>
</g>
<defs>
<filter id="filter0_f_632_2063" x="143.914" y="-122.64" width="590.746" height="590.745" filterUnits="userSpaceOnUse" color-interpolation-filters="sRGB">
<feFlood flood-opacity="0" result="BackgroundImageFix"/>
<feBlend mode="normal" in="SourceGraphic" in2="BackgroundImageFix" result="shape"/>
<feGaussianBlur stdDeviation="93.75" result="effect1_foregroundBlur_632_2063"/>
</filter>
<filter id="filter1_d_632_2063" x="212.483" y="104.92" width="193.132" height="201.889" filterUnits="userSpaceOnUse" color-interpolation-filters="sRGB">
<feFlood flood-opacity="0" result="BackgroundImageFix"/>
<feColorMatrix in="SourceAlpha" type="matrix" values="0 0 0 0 0 0 0 0 0 0 0 0 0 0 0 0 0 0 127 0" result="hardAlpha"/>
<feMorphology radius="2.25" operator="dilate" in="SourceAlpha" result="effect1_dropShadow_632_2063"/>
<feOffset dx="3.75" dy="3.75"/>
<feGaussianBlur stdDeviation="5.1375"/>
<feComposite in2="hardAlpha" operator="out"/>
<feColorMatrix type="matrix" values="0 0 0 0 0 0 0 0 0 0 0 0 0 0 0 0 0 0 0.25 0"/>
<feBlend mode="normal" in2="BackgroundImageFix" result="effect1_dropShadow_632_2063"/>
<feBlend mode="normal" in="SourceGraphic" in2="effect1_dropShadow_632_2063" result="shape"/>
</filter>
<linearGradient id="paint0_linear_632_2063" x1="446.099" y1="280.605" x2="516.984" y2="97.5931" gradientUnits="userSpaceOnUse">
<stop stop-color="#39D373"/>
<stop offset="1" stop-color="#005F24"/>
</linearGradient>
<clipPath id="clip0_632_2063">
<rect width="549" height="215" rx="24" fill="white"/>
</clipPath>
<clipPath id="clip1_632_2063">
<rect x="369.031" y="91.2266" width="329.004" height="220.12" rx="15" transform="rotate(-2.88652 369.031 91.2266)" fill="white"/>
</clipPath>
<clipPath id="clip2_632_2063">
<rect width="22.8277" height="121.558" fill="white" transform="translate(536.348 152.792) rotate(-2.88652)"/>
</clipPath>
<clipPath id="clip3_632_2063">
<rect width="22.8277" height="95.8763" fill="white" transform="translate(427.066 184.016) rotate(-2.88652)"/>
</clipPath>
<clipPath id="clip4_632_2063">
<rect x="237.062" y="113.695" width="153" height="162.75" rx="15" transform="rotate(5.57276 237.062 113.695)" fill="white"/>
</clipPath>
</defs>
</svg>
