<svg width="509" height="213" viewBox="0 0 509 213" fill="none" xmlns="http://www.w3.org/2000/svg">
<g clip-path="url(#clip0_787_8178)">
<rect x="-0.410156" y="-0.183105" width="512.074" height="213.381" rx="5.95039" fill="#0A0A0A"/>
<g filter="url(#filter0_f_787_8178)">
<circle cx="288.85" cy="165.843" r="84.5845" fill="url(#paint0_linear_787_8178)" fill-opacity="0.3"/>
</g>
<path opacity="0.5" fill-rule="evenodd" clip-rule="evenodd" d="M-110.725 215.794C-110.725 215.794 -43.366 197.195 -16.4057 199.527C34.8713 203.963 34.1766 181.143 50.7871 167.468C65.9838 154.956 80.7971 158.792 101.336 167.924C116.484 174.658 138.869 186.443 159.246 180.765C177.873 175.574 188.572 155.925 214.17 147.321C234.457 140.501 252.918 147.537 276.379 140.323C308.206 130.536 318.452 100.85 341.72 97.1811C370.439 92.6527 387.024 66.2967 413.15 62.1771C439.122 58.0819 444.785 71.1492 474.692 76.214C497.557 80.0861 506.863 71.1413 506.863 71.1413L539.378 210.414L-138.165 247.768L-110.725 215.794Z" fill="url(#paint1_linear_787_8178)"/>
<path d="M-65.63 232.705C-65.63 232.705 -43.5147 196.363 -16.0709 198.523C36.1256 202.633 35.5358 180.129 52.522 166.554C68.0626 154.135 83.1283 157.842 103.997 166.742C119.389 173.306 142.125 184.814 162.906 179.108C181.902 173.891 192.899 154.455 219.011 145.836C239.707 139.005 258.47 145.848 282.4 138.611C314.863 128.793 325.449 99.4601 349.165 95.7206C378.435 91.1053 395.452 64.9683 422.079 60.7696C448.549 56.5958 452.071 69.8551 482.503 74.6958C505.768 78.3965 517.477 69.1811 517.477 69.1811" stroke="#017D2F" stroke-width="6.70827" stroke-linecap="round" stroke-linejoin="round"/>
<circle cx="299.691" cy="130.752" r="11.5623" transform="rotate(-8.93847 299.691 130.752)" fill="white" stroke="#16A34A" stroke-width="8.12578"/>
<rect x="12.375" y="47.7876" width="151.548" height="33.471" rx="5.57849" fill="#444444"/>
<path d="M35.9152 67.8556L31.3417 59.913C31.2274 59.7185 31.0643 59.5571 30.8684 59.445C30.6726 59.3329 30.4508 59.2739 30.2252 59.2739C29.9995 59.2739 29.7777 59.3329 29.5819 59.445C29.386 59.5571 29.2229 59.7185 29.1086 59.913L24.5351 67.8556C24.4251 68.0438 24.3672 68.2579 24.3672 68.4759C24.3672 68.6938 24.4251 68.9079 24.5351 69.0961C24.6479 69.2919 24.8108 69.4541 25.007 69.5661C25.2032 69.6782 25.4257 69.736 25.6517 69.7336H34.7987C35.0244 69.7358 35.2467 69.6779 35.4427 69.5659C35.6387 69.4538 35.8014 69.2917 35.9142 69.0961C36.0243 68.908 36.0824 68.694 36.0826 68.476C36.0828 68.258 36.025 68.0439 35.9152 67.8556ZM35.1898 68.6772C35.15 68.7452 35.0927 68.8014 35.024 68.84C34.9553 68.8786 34.8775 68.8982 34.7987 68.8969H25.6517C25.5728 68.8982 25.4951 68.8786 25.4263 68.84C25.3576 68.8014 25.3004 68.7452 25.2605 68.6772C25.2244 68.6161 25.2053 68.5463 25.2053 68.4753C25.2053 68.4043 25.2244 68.3346 25.2605 68.2735L29.834 60.3309C29.8746 60.2632 29.9321 60.2072 30.0009 60.1683C30.0696 60.1294 30.1472 60.109 30.2262 60.109C30.3052 60.109 30.3828 60.1294 30.4515 60.1683C30.5203 60.2072 30.5778 60.2632 30.6184 60.3309L35.1919 68.2735C35.2277 68.3348 35.2464 68.4046 35.2461 68.4756C35.2457 68.5466 35.2263 68.6162 35.1898 68.6772ZM29.8068 65.5498V63.4578C29.8068 63.3469 29.8509 63.2404 29.9293 63.162C30.0078 63.0835 30.1142 63.0394 30.2252 63.0394C30.3361 63.0394 30.4425 63.0835 30.521 63.162C30.5995 63.2404 30.6436 63.3469 30.6436 63.4578V65.5498C30.6436 65.6607 30.5995 65.7671 30.521 65.8456C30.4425 65.9241 30.3361 65.9682 30.2252 65.9682C30.1142 65.9682 30.0078 65.9241 29.9293 65.8456C29.8509 65.7671 29.8068 65.6607 29.8068 65.5498ZM30.8527 67.4325C30.8527 67.5566 30.8159 67.678 30.747 67.7812C30.678 67.8844 30.58 67.9648 30.4653 68.0123C30.3507 68.0598 30.2245 68.0722 30.1027 68.048C29.981 68.0238 29.8692 67.964 29.7814 67.8763C29.6936 67.7885 29.6339 67.6767 29.6096 67.5549C29.5854 67.4332 29.5979 67.307 29.6454 67.1923C29.6929 67.0777 29.7733 66.9797 29.8765 66.9107C29.9797 66.8417 30.101 66.8049 30.2252 66.8049C30.3916 66.8049 30.5512 66.871 30.6689 66.9887C30.7866 67.1064 30.8527 67.2661 30.8527 67.4325Z" fill="white"/>
<path d="M41.9521 68.7134L44.8641 60.6469H46.1806L49.087 68.7134H47.882L47.1234 66.5991H43.9269L43.1626 68.7134H41.9521ZM44.2225 65.5169H46.811L45.5168 61.8072L44.2225 65.5169ZM50.3181 68.7134V62.9452H51.484V63.7764C51.577 63.6202 51.7016 63.4733 51.8578 63.3357C52.0177 63.1981 52.2129 63.0865 52.4435 63.001C52.6778 62.9155 52.9474 62.8727 53.2524 62.8727C53.6131 62.8727 53.946 62.9452 54.2509 63.0903C54.5596 63.2316 54.8069 63.4547 54.9929 63.7597C55.1788 64.0609 55.2718 64.4514 55.2718 64.9312V68.7134H54.078V65.0595C54.078 64.6467 53.9664 64.3398 53.7433 64.139C53.5239 63.9382 53.2394 63.8378 52.8898 63.8378C52.6555 63.8378 52.4323 63.8768 52.2204 63.9549C52.0084 64.033 51.8373 64.152 51.7071 64.3119C51.577 64.4681 51.5119 64.6653 51.5119 64.9033V68.7134H50.3181ZM59.1662 68.8249C58.6269 68.8249 58.1565 68.7097 57.7548 68.4791C57.3532 68.2448 57.0408 67.9064 56.8176 67.4638C56.5945 67.0212 56.4829 66.4857 56.4829 65.8572C56.4829 65.251 56.5889 64.721 56.8009 64.2673C57.0129 63.8136 57.3179 63.4622 57.7158 63.213C58.1174 62.9601 58.6028 62.8336 59.1718 62.8336C59.7147 62.8336 60.1852 62.9527 60.5831 63.1907C60.9811 63.425 61.2897 63.769 61.5092 64.2227C61.7286 64.6727 61.8383 65.2175 61.8383 65.8572C61.8383 66.4411 61.736 66.9562 61.5315 67.4024C61.3269 67.8487 61.0257 68.1983 60.6278 68.4512C60.2335 68.7004 59.7464 68.8249 59.1662 68.8249ZM59.1718 67.9045C59.5028 67.9045 59.778 67.819 59.9974 67.6479C60.2168 67.4731 60.3823 67.2295 60.4939 66.9171C60.6054 66.601 60.6612 66.2365 60.6612 65.8237C60.6612 65.4407 60.611 65.0929 60.5106 64.7805C60.4139 64.4644 60.2559 64.2134 60.0364 64.0274C59.8207 63.8415 59.5325 63.7485 59.1718 63.7485C58.8408 63.7485 58.5619 63.8341 58.335 64.0051C58.1119 64.1725 57.9445 64.4124 57.8329 64.7248C57.7214 65.0334 57.6656 65.3998 57.6656 65.8237C57.6656 66.1993 57.7158 66.5452 57.8162 66.8613C57.9166 67.1774 58.0765 67.4303 58.2959 67.62C58.5191 67.8097 58.811 67.9045 59.1718 67.9045ZM63.1421 68.7134V62.9452H64.3024V63.7764C64.466 63.5235 64.6892 63.3041 64.9718 63.1182C65.2545 62.9285 65.6189 62.8336 66.0652 62.8336C66.2735 62.8336 66.4836 62.869 66.6956 62.9396C66.9113 63.0103 67.1084 63.1163 67.2869 63.2576C67.4691 63.3952 67.6123 63.5663 67.7165 63.7708C67.8987 63.4956 68.1423 63.2706 68.4472 63.0958C68.7522 62.921 69.0943 62.8336 69.4737 62.8336C69.6782 62.8336 69.8902 62.8671 70.1096 62.9341C70.329 62.9973 70.5317 63.107 70.7177 63.2632C70.9073 63.4157 71.0598 63.6277 71.1751 63.8991C71.2941 64.1706 71.3536 64.5146 71.3536 64.9312V68.7134H70.1543V65.0595C70.1543 64.7434 70.1003 64.496 69.9925 64.3175C69.8883 64.139 69.7507 64.0144 69.5797 63.9438C69.4123 63.8694 69.2338 63.8322 69.0441 63.8322C68.8731 63.8322 68.6945 63.8657 68.5086 63.9326C68.3226 63.9996 68.1646 64.1111 68.0344 64.2673C67.9043 64.4235 67.8392 64.6355 67.8392 64.9033V68.7134H66.6454V64.8029C66.6454 64.5909 66.5877 64.4124 66.4724 64.2673C66.3609 64.1223 66.2196 64.0144 66.0485 63.9438C65.8811 63.8694 65.7138 63.8322 65.5464 63.8322C65.3605 63.8322 65.1745 63.8694 64.9886 63.9438C64.8026 64.0181 64.6464 64.1353 64.52 64.2952C64.3972 64.4514 64.3359 64.6541 64.3359 64.9033V68.7134H63.1421ZM74.5065 68.8249C74.1346 68.8249 73.8036 68.758 73.5135 68.6241C73.2272 68.4902 73.0022 68.2969 72.8386 68.044C72.6749 67.7911 72.5931 67.4861 72.5931 67.1291C72.5931 66.4894 72.8181 66.0115 73.2681 65.6954C73.7218 65.3793 74.447 65.2119 75.4437 65.1934L76.3921 65.1655V64.7471C76.3921 64.4161 76.2935 64.1558 76.0964 63.9661C75.8993 63.7764 75.5943 63.6834 75.1815 63.6872C74.8766 63.6872 74.6032 63.7578 74.3615 63.8991C74.1197 64.0405 73.9617 64.2729 73.8873 64.5965H72.8553C72.8776 64.2134 72.9873 63.8917 73.1844 63.6314C73.3852 63.3673 73.6605 63.1684 74.01 63.0345C74.3596 62.9006 74.7687 62.8336 75.2373 62.8336C75.7654 62.8336 76.1987 62.9062 76.5371 63.0512C76.8755 63.1925 77.1266 63.4008 77.2902 63.676C77.4575 63.9512 77.5412 64.2859 77.5412 64.6801V68.7134H76.5259L76.4367 67.6535C76.221 68.096 75.9476 68.4028 75.6166 68.5739C75.2857 68.7413 74.9156 68.8249 74.5065 68.8249ZM74.8803 67.9938C75.0625 67.9938 75.2429 67.9621 75.4214 67.8989C75.5999 67.832 75.7617 67.7427 75.9067 67.6312C76.0518 67.5159 76.1671 67.3876 76.2526 67.2462C76.3418 67.1049 76.3883 66.9599 76.3921 66.8111V65.8572L75.6111 65.8739C75.2131 65.8776 74.8747 65.9186 74.5958 65.9967C74.3206 66.0748 74.1086 66.1956 73.9598 66.3593C73.8148 66.5229 73.7423 66.7405 73.7423 67.0119C73.7423 67.3206 73.8483 67.5623 74.0602 67.7371C74.2759 67.9082 74.5493 67.9938 74.8803 67.9938ZM80.6333 68.7915C80.2911 68.7915 80.0159 68.7468 79.8077 68.6576C79.6031 68.5683 79.4469 68.4493 79.3391 68.3006C79.2312 68.1481 79.1587 67.977 79.1215 67.7873C79.088 67.594 79.0713 67.395 79.0713 67.1905V60.4237H80.2484V67.0677C80.2484 67.3355 80.3004 67.54 80.4046 67.6814C80.5124 67.8227 80.676 67.9026 80.8955 67.9212L81.1967 67.9324V68.6911C81.1037 68.7208 81.007 68.745 80.9066 68.7636C80.8099 68.7822 80.7188 68.7915 80.6333 68.7915ZM82.9493 70.5543C82.596 70.5543 82.3505 70.5282 82.2129 70.4762C82.0791 70.4241 82.0121 70.3981 82.0121 70.3981V69.6283L82.5979 69.6394C82.821 69.6506 83.0051 69.6375 83.1501 69.6004C83.2952 69.5632 83.4086 69.5111 83.4904 69.4442C83.576 69.3809 83.6392 69.3121 83.6801 69.2378C83.7247 69.1634 83.7582 69.0946 83.7805 69.0314L83.959 68.546L81.7109 62.9452H82.9047L84.5224 67.2072L86.1346 62.9452H87.3005L84.8962 69.0369C84.7326 69.4386 84.5522 69.7491 84.3551 69.9685C84.1617 70.188 83.9479 70.3404 83.7136 70.426C83.4793 70.5115 83.2245 70.5543 82.9493 70.5543ZM91.1703 68.7134V60.6469H96.3248L96.3192 61.6733H92.3864V64.1669H95.8841V65.1822H92.3864V68.7134H91.1703ZM99.8173 68.8249C99.278 68.8249 98.8076 68.7097 98.4059 68.4791C98.0043 68.2448 97.6919 67.9064 97.4687 67.4638C97.2456 67.0212 97.134 66.4857 97.134 65.8572C97.134 65.251 97.24 64.721 97.452 64.2673C97.664 63.8136 97.9689 63.4622 98.3669 63.213C98.7685 62.9601 99.2538 62.8336 99.8229 62.8336C100.366 62.8336 100.836 62.9527 101.234 63.1907C101.632 63.425 101.941 63.769 102.16 64.2227C102.38 64.6727 102.489 65.2175 102.489 65.8572C102.489 66.4411 102.387 66.9562 102.183 67.4024C101.978 67.8487 101.677 68.1983 101.279 68.4512C100.885 68.7004 100.397 68.8249 99.8173 68.8249ZM99.8229 67.9045C100.154 67.9045 100.429 67.819 100.648 67.6479C100.868 67.4731 101.033 67.2295 101.145 66.9171C101.257 66.601 101.312 66.2365 101.312 65.8237C101.312 65.4407 101.262 65.0929 101.162 64.7805C101.065 64.4644 100.907 64.2134 100.688 64.0274C100.472 63.8415 100.184 63.7485 99.8229 63.7485C99.4919 63.7485 99.2129 63.8341 98.9861 64.0051C98.7629 64.1725 98.5956 64.4124 98.484 64.7248C98.3724 65.0334 98.3167 65.3998 98.3167 65.8237C98.3167 66.1993 98.3669 66.5452 98.4673 66.8613C98.5677 67.1774 98.7276 67.4303 98.947 67.62C99.1702 67.8097 99.4621 67.9045 99.8229 67.9045ZM103.793 68.7134V62.9452H104.937V64.1279C105.033 63.8452 105.167 63.6091 105.338 63.4194C105.513 63.226 105.716 63.081 105.946 62.9843C106.177 62.8839 106.421 62.8336 106.677 62.8336C106.755 62.8336 106.83 62.8392 106.9 62.8504C106.971 62.8578 107.027 62.8727 107.068 62.895V64.0442C107.019 64.0219 106.956 64.007 106.878 63.9996C106.804 63.9921 106.739 63.9865 106.683 63.9828C106.43 63.9642 106.199 63.9772 105.991 64.0219C105.783 64.0665 105.602 64.1409 105.45 64.245C105.301 64.3491 105.186 64.4849 105.104 64.6522C105.026 64.8196 104.987 65.0167 104.987 65.2436V68.7134H103.793ZM110.651 68.8249C110.104 68.8249 109.622 68.7078 109.206 68.4735C108.789 68.2355 108.464 67.8971 108.229 67.4582C107.999 67.0194 107.884 66.4969 107.884 65.8907C107.884 65.2919 107.99 64.7638 108.202 64.3064C108.414 63.8452 108.72 63.4845 109.122 63.2241C109.524 62.9638 110.007 62.8336 110.572 62.8336C111.127 62.8336 111.595 62.9527 111.978 63.1907C112.361 63.4287 112.651 63.7634 112.848 64.1948C113.046 64.6225 113.144 65.1283 113.144 65.7121V66.1082H109.083C109.079 66.4541 109.135 66.7646 109.25 67.0398C109.366 67.3113 109.537 67.527 109.764 67.6869C109.994 67.8431 110.28 67.9212 110.623 67.9212C110.969 67.9212 111.266 67.8431 111.515 67.6869C111.768 67.5307 111.934 67.2983 112.012 66.9896H113.116C113.049 67.3838 112.891 67.7185 112.642 67.9938C112.393 68.269 112.093 68.4772 111.744 68.6185C111.394 68.7561 111.03 68.8249 110.651 68.8249ZM109.083 65.3328H112.006C112.006 65.0316 111.954 64.7582 111.85 64.5128C111.746 64.2636 111.586 64.0684 111.37 63.927C111.158 63.782 110.89 63.7095 110.567 63.7095C110.236 63.7095 109.961 63.7894 109.741 63.9493C109.522 64.1093 109.356 64.3138 109.245 64.563C109.137 64.8122 109.083 65.0688 109.083 65.3328ZM116.874 68.8249C116.354 68.8249 115.891 68.7115 115.485 68.4847C115.08 68.2541 114.762 67.9175 114.531 67.475C114.301 67.0287 114.185 66.4876 114.185 65.8516C114.185 65.2529 114.291 64.7266 114.503 64.2729C114.719 63.8192 115.028 63.4659 115.429 63.213C115.831 62.9601 116.313 62.8336 116.874 62.8336C117.309 62.8336 117.694 62.9192 118.029 63.0903C118.364 63.2576 118.635 63.4919 118.844 63.7931C119.055 64.0944 119.184 64.4458 119.228 64.8475H118.191C118.161 64.6578 118.09 64.4812 117.979 64.3175C117.867 64.1539 117.72 64.0237 117.538 63.927C117.356 63.8266 117.138 63.7764 116.885 63.7764C116.421 63.7764 116.043 63.9456 115.753 64.2841C115.463 64.6225 115.318 65.1413 115.318 65.8405C115.318 66.4801 115.454 66.9896 115.725 67.369C115.997 67.7483 116.389 67.938 116.902 67.938C117.155 67.938 117.373 67.8859 117.555 67.7818C117.737 67.6776 117.882 67.5438 117.99 67.3801C118.102 67.2165 118.172 67.0473 118.202 66.8725H119.217C119.173 67.2593 119.044 67.5995 118.832 67.8933C118.624 68.1871 118.353 68.4159 118.018 68.5795C117.683 68.7431 117.302 68.8249 116.874 68.8249ZM122.163 68.8249C121.791 68.8249 121.461 68.758 121.17 68.6241C120.884 68.4902 120.659 68.2969 120.495 68.044C120.332 67.7911 120.25 67.4861 120.25 67.1291C120.25 66.4894 120.475 66.0115 120.925 65.6954C121.379 65.3793 122.104 65.2119 123.101 65.1934L124.049 65.1655V64.7471C124.049 64.4161 123.95 64.1558 123.753 63.9661C123.556 63.7764 123.251 63.6834 122.838 63.6872C122.533 63.6872 122.26 63.7578 122.018 63.8991C121.777 64.0405 121.619 64.2729 121.544 64.5965H120.512C120.534 64.2134 120.644 63.8917 120.841 63.6314C121.042 63.3673 121.317 63.1684 121.667 63.0345C122.016 62.9006 122.426 62.8336 122.894 62.8336C123.422 62.8336 123.856 62.9062 124.194 63.0512C124.532 63.1925 124.783 63.4008 124.947 63.676C125.114 63.9512 125.198 64.2859 125.198 64.6801V68.7134H124.183L124.094 67.6535C123.878 68.096 123.605 68.4028 123.274 68.5739C122.943 68.7413 122.572 68.8249 122.163 68.8249ZM122.537 67.9938C122.719 67.9938 122.9 67.9621 123.078 67.8989C123.257 67.832 123.419 67.7427 123.564 67.6312C123.709 67.5159 123.824 67.3876 123.909 67.2462C123.999 67.1049 124.045 66.9599 124.049 66.8111V65.8572L123.268 65.8739C122.87 65.8776 122.532 65.9186 122.253 65.9967C121.977 66.0748 121.765 66.1956 121.617 66.3593C121.472 66.5229 121.399 66.7405 121.399 67.0119C121.399 67.3206 121.505 67.5623 121.717 67.7371C121.933 67.9082 122.206 67.9938 122.537 67.9938ZM128.821 68.8249C128.42 68.8249 128.042 68.7617 127.689 68.6353C127.339 68.5088 127.046 68.3099 126.808 68.0384C126.573 67.7669 126.426 67.4192 126.367 66.9952H127.432C127.481 67.2146 127.572 67.3969 127.706 67.5419C127.843 67.6832 128.007 67.7892 128.197 67.8599C128.39 67.9268 128.596 67.9603 128.816 67.9603C129.18 67.9603 129.476 67.8952 129.703 67.765C129.93 67.6312 130.043 67.4266 130.043 67.1514C130.043 66.9543 129.982 66.7962 129.859 66.6772C129.736 66.5582 129.545 66.4708 129.284 66.415L128.135 66.1417C127.659 66.0301 127.278 65.8535 126.992 65.6117C126.705 65.3663 126.56 65.0241 126.557 64.5853C126.557 64.2469 126.64 63.9456 126.808 63.6816C126.979 63.4175 127.232 63.2111 127.566 63.0624C127.905 62.9099 128.321 62.8336 128.816 62.8336C129.467 62.8336 129.989 62.9787 130.383 63.2688C130.781 63.5589 130.986 63.9791 130.997 64.5295H129.965C129.928 64.2655 129.807 64.0591 129.602 63.9103C129.402 63.7578 129.136 63.6816 128.805 63.6816C128.463 63.6816 128.182 63.7504 127.962 63.888C127.743 64.0219 127.633 64.2283 127.633 64.5072C127.633 64.6969 127.713 64.8475 127.873 64.9591C128.037 65.0669 128.277 65.1562 128.593 65.2268L129.686 65.5002C129.969 65.5745 130.201 65.6731 130.383 65.7958C130.566 65.9148 130.709 66.0469 130.813 66.1919C130.917 66.3369 130.99 66.4876 131.031 66.6438C131.075 66.8 131.097 66.9469 131.097 67.0845C131.097 67.4489 131.004 67.7613 130.819 68.0216C130.636 68.2783 130.376 68.4772 130.038 68.6185C129.699 68.7561 129.294 68.8249 128.821 68.8249ZM134.5 68.7524C134.072 68.7524 133.741 68.6948 133.507 68.5795C133.272 68.4642 133.109 68.2987 133.016 68.083C132.923 67.8636 132.876 67.5995 132.876 67.2909V63.8043H131.939V62.9452H132.915L133.205 61.2494H134.076V62.9396H135.37V63.8043H134.076L134.081 67.2462C134.081 67.4359 134.1 67.5754 134.137 67.6646C134.178 67.7502 134.245 67.8059 134.338 67.832C134.434 67.8543 134.565 67.8654 134.728 67.8654H135.398V68.6409C135.327 68.6706 135.217 68.6966 135.069 68.719C134.924 68.7413 134.734 68.7524 134.5 68.7524ZM136.736 68.7134V62.9452H137.886V68.7134H136.736ZM136.708 61.8295V60.6525H137.908V61.8295H136.708ZM139.596 68.7134V62.9452H140.762V63.7764C140.855 63.6202 140.979 63.4733 141.135 63.3357C141.295 63.1981 141.491 63.0865 141.721 63.001C141.955 62.9155 142.225 62.8727 142.53 62.8727C142.891 62.8727 143.224 62.9452 143.529 63.0903C143.837 63.2316 144.085 63.4547 144.271 63.7597C144.456 64.0609 144.549 64.4514 144.549 64.9312V68.7134H143.356V65.0595C143.356 64.6467 143.244 64.3398 143.021 64.139C142.802 63.9382 142.517 63.8378 142.167 63.8378C141.933 63.8378 141.71 63.8768 141.498 63.9549C141.286 64.033 141.115 64.152 140.985 64.3119C140.855 64.4681 140.79 64.6653 140.79 64.9033V68.7134H139.596ZM148.583 70.6212C147.646 70.6212 146.921 70.4892 146.408 70.2252C145.894 69.9648 145.638 69.6004 145.638 69.1318C145.638 68.9272 145.686 68.7543 145.783 68.613C145.883 68.4679 146 68.3489 146.134 68.2559C146.272 68.163 146.398 68.0904 146.514 68.0384C146.629 67.9826 146.703 67.9435 146.737 67.9212C146.674 67.884 146.592 67.8376 146.491 67.7818C146.395 67.7223 146.307 67.6442 146.229 67.5475C146.151 67.4471 146.112 67.3169 146.112 67.157C146.112 66.971 146.199 66.8 146.374 66.6438C146.553 66.4838 146.821 66.3667 147.178 66.2923C146.828 66.1212 146.556 65.8907 146.363 65.6006C146.17 65.3105 146.073 65.0018 146.073 64.6746C146.073 64.2989 146.179 63.9754 146.391 63.7039C146.603 63.4287 146.9 63.2186 147.284 63.0735C147.67 62.9285 148.124 62.856 148.645 62.856C149.028 62.856 149.346 62.8987 149.599 62.9843C149.855 63.0698 150.091 63.1888 150.307 63.3413C150.378 63.3153 150.478 63.2762 150.608 63.2241C150.742 63.1684 150.887 63.1089 151.043 63.0456C151.2 62.9824 151.348 62.921 151.49 62.8615C151.635 62.802 151.752 62.7537 151.841 62.7165L151.836 63.7541L150.831 63.9382C150.884 64.0498 150.924 64.1725 150.954 64.3064C150.988 64.4403 151.004 64.563 151.004 64.6746C151.004 65.0093 150.913 65.3179 150.731 65.6006C150.549 65.8795 150.275 66.1026 149.911 66.27C149.547 66.4374 149.091 66.521 148.544 66.521C148.492 66.521 148.425 66.521 148.343 66.521C148.262 66.5173 148.193 66.5117 148.137 66.5043C147.791 66.5155 147.553 66.5564 147.423 66.627C147.293 66.694 147.228 66.7683 147.228 66.8502C147.228 66.9543 147.311 67.025 147.479 67.0621C147.646 67.0993 147.921 67.1309 148.304 67.157C148.442 67.1681 148.617 67.1793 148.829 67.1905C149.044 67.2016 149.282 67.2165 149.543 67.2351C150.175 67.2723 150.657 67.4303 150.988 67.7093C151.322 67.9882 151.49 68.3582 151.49 68.8194C151.49 69.3475 151.25 69.7789 150.77 70.1136C150.29 70.452 149.561 70.6212 148.583 70.6212ZM148.79 69.8904C149.299 69.8904 149.684 69.8161 149.944 69.6673C150.205 69.5223 150.335 69.3047 150.335 69.0146C150.335 68.7989 150.251 68.6223 150.084 68.4847C149.917 68.3471 149.666 68.2671 149.331 68.2448L147.791 68.1444C147.639 68.1369 147.486 68.1704 147.334 68.2448C147.185 68.3192 147.062 68.4233 146.966 68.5572C146.869 68.6873 146.821 68.8324 146.821 68.9923C146.821 69.2824 146.98 69.5037 147.3 69.6561C147.62 69.8123 148.117 69.8904 148.79 69.8904ZM148.578 65.7902C148.965 65.7902 149.275 65.6973 149.509 65.5113C149.747 65.3217 149.866 65.0502 149.866 64.6969C149.866 64.3324 149.747 64.0516 149.509 63.8545C149.275 63.6537 148.965 63.5533 148.578 63.5533C148.187 63.5533 147.871 63.6537 147.629 63.8545C147.391 64.0553 147.272 64.3361 147.272 64.6969C147.272 65.039 147.386 65.3068 147.613 65.5002C147.843 65.6936 148.165 65.7902 148.578 65.7902Z" fill="#D4D4D4"/>
<rect x="178.801" y="47.7876" width="151.548" height="33.471" rx="5.57849" fill="#444444"/>
<path d="M203.254 60.9477V64.2948C203.254 64.4057 203.21 64.5122 203.132 64.5906C203.053 64.6691 202.947 64.7132 202.836 64.7132C202.725 64.7132 202.618 64.6691 202.54 64.5906C202.461 64.5122 202.417 64.4057 202.417 64.2948V61.9576L198.111 66.2643C198.072 66.3032 198.026 66.3341 197.975 66.3552C197.925 66.3762 197.87 66.387 197.815 66.387C197.76 66.387 197.706 66.3762 197.655 66.3552C197.604 66.3341 197.558 66.3032 197.519 66.2643L195.723 64.4679L192.254 67.9379C192.175 68.0164 192.069 68.0605 191.958 68.0605C191.847 68.0605 191.74 68.0164 191.662 67.9379C191.583 67.8594 191.539 67.7529 191.539 67.6419C191.539 67.5308 191.583 67.4244 191.662 67.3459L195.427 63.5804C195.466 63.5415 195.512 63.5106 195.563 63.4896C195.614 63.4685 195.668 63.4577 195.723 63.4577C195.778 63.4577 195.833 63.4685 195.883 63.4896C195.934 63.5106 195.98 63.5415 196.019 63.5804L197.815 65.3768L201.826 61.3661H199.489C199.378 61.3661 199.271 61.322 199.193 61.2435C199.114 61.1651 199.07 61.0586 199.07 60.9477C199.07 60.8367 199.114 60.7303 199.193 60.6518C199.271 60.5734 199.378 60.5293 199.489 60.5293H202.836C202.947 60.5293 203.053 60.5734 203.132 60.6518C203.21 60.7303 203.254 60.8367 203.254 60.9477Z" fill="white"/>
<path d="M210.072 68.7134V60.6469C210.102 60.6469 210.189 60.6487 210.334 60.6525C210.483 60.6525 210.662 60.6525 210.87 60.6525C211.078 60.6487 211.29 60.6487 211.506 60.6525C211.725 60.6525 211.92 60.6543 212.091 60.658C213.077 60.6729 213.878 60.8365 214.496 61.1489C215.113 61.4613 215.565 61.9113 215.851 62.4989C216.141 63.0828 216.286 63.795 216.286 64.6355C216.286 65.5095 216.132 66.2514 215.823 66.8613C215.515 67.4675 215.042 67.9287 214.407 68.2448C213.774 68.5572 212.973 68.7134 212.002 68.7134H210.072ZM211.288 67.7093H212.013C212.623 67.7093 213.153 67.6107 213.603 67.4136C214.057 67.2128 214.408 66.8892 214.658 66.4429C214.907 65.9929 215.031 65.3923 215.031 64.6411C215.031 63.9047 214.912 63.319 214.674 62.8839C214.436 62.445 214.094 62.1308 213.648 61.9411C213.205 61.7477 212.672 61.651 212.047 61.651H211.288V67.7093ZM220.171 68.8249C219.625 68.8249 219.143 68.7078 218.726 68.4735C218.31 68.2355 217.985 67.8971 217.75 67.4582C217.52 67.0194 217.404 66.4969 217.404 65.8907C217.404 65.2919 217.51 64.7638 217.722 64.3064C217.934 63.8452 218.241 63.4845 218.643 63.2241C219.044 62.9638 219.528 62.8336 220.093 62.8336C220.647 62.8336 221.116 62.9527 221.499 63.1907C221.882 63.4287 222.172 63.7634 222.369 64.1948C222.566 64.6225 222.665 65.1283 222.665 65.7121V66.1082H218.604C218.6 66.4541 218.656 66.7646 218.771 67.0398C218.886 67.3113 219.057 67.527 219.284 67.6869C219.515 67.8431 219.801 67.9212 220.143 67.9212C220.489 67.9212 220.787 67.8431 221.036 67.6869C221.289 67.5307 221.454 67.2983 221.532 66.9896H222.637C222.57 67.3838 222.412 67.7185 222.163 67.9938C221.914 68.269 221.614 68.4772 221.265 68.6185C220.915 68.7561 220.551 68.8249 220.171 68.8249ZM218.604 65.3328H221.527C221.527 65.0316 221.475 64.7582 221.371 64.5128C221.267 64.2636 221.107 64.0684 220.891 63.927C220.679 63.782 220.411 63.7095 220.088 63.7095C219.757 63.7095 219.481 63.7894 219.262 63.9493C219.043 64.1093 218.877 64.3138 218.766 64.563C218.658 64.8122 218.604 65.0688 218.604 65.3328ZM224.024 68.7134V62.9452H225.185V63.7764C225.348 63.5235 225.571 63.3041 225.854 63.1182C226.137 62.9285 226.501 62.8336 226.947 62.8336C227.156 62.8336 227.366 62.869 227.578 62.9396C227.793 63.0103 227.991 63.1163 228.169 63.2576C228.351 63.3952 228.494 63.5663 228.599 63.7708C228.781 63.4956 229.024 63.2706 229.329 63.0958C229.634 62.921 229.976 62.8336 230.356 62.8336C230.56 62.8336 230.772 62.8671 230.992 62.9341C231.211 62.9973 231.414 63.107 231.6 63.2632C231.789 63.4157 231.942 63.6277 232.057 63.8991C232.176 64.1706 232.236 64.5146 232.236 64.9312V68.7134H231.036V65.0595C231.036 64.7434 230.982 64.496 230.875 64.3175C230.77 64.139 230.633 64.0144 230.462 63.9438C230.294 63.8694 230.116 63.8322 229.926 63.8322C229.755 63.8322 229.577 63.8657 229.391 63.9326C229.205 63.9996 229.047 64.1111 228.917 64.2673C228.786 64.4235 228.721 64.6355 228.721 64.9033V68.7134H227.527V64.8029C227.527 64.5909 227.47 64.4124 227.355 64.2673C227.243 64.1223 227.102 64.0144 226.931 63.9438C226.763 63.8694 226.596 63.8322 226.429 63.8322C226.243 63.8322 226.057 63.8694 225.871 63.9438C225.685 64.0181 225.529 64.1353 225.402 64.2952C225.279 64.4514 225.218 64.6541 225.218 64.9033V68.7134H224.024ZM235.389 68.8249C235.017 68.8249 234.686 68.758 234.396 68.6241C234.109 68.4902 233.884 68.2969 233.721 68.044C233.557 67.7911 233.475 67.4861 233.475 67.1291C233.475 66.4894 233.7 66.0115 234.15 65.6954C234.604 65.3793 235.329 65.2119 236.326 65.1934L237.274 65.1655V64.7471C237.274 64.4161 237.176 64.1558 236.979 63.9661C236.781 63.7764 236.476 63.6834 236.064 63.6872C235.759 63.6872 235.485 63.7578 235.244 63.8991C235.002 64.0405 234.844 64.2729 234.769 64.5965H233.737C233.76 64.2134 233.869 63.8917 234.067 63.6314C234.267 63.3673 234.543 63.1684 234.892 63.0345C235.242 62.9006 235.651 62.8336 236.119 62.8336C236.648 62.8336 237.081 62.9062 237.419 63.0512C237.758 63.1925 238.009 63.4008 238.172 63.676C238.34 63.9512 238.423 64.2859 238.423 64.6801V68.7134H237.408L237.319 67.6535C237.103 68.096 236.83 68.4028 236.499 68.5739C236.168 68.7413 235.798 68.8249 235.389 68.8249ZM235.762 67.9938C235.945 67.9938 236.125 67.9621 236.304 67.8989C236.482 67.832 236.644 67.7427 236.789 67.6312C236.934 67.5159 237.049 67.3876 237.135 67.2462C237.224 67.1049 237.27 66.9599 237.274 66.8111V65.8572L236.493 65.8739C236.095 65.8776 235.757 65.9186 235.478 65.9967C235.203 66.0748 234.991 66.1956 234.842 66.3593C234.697 66.5229 234.624 66.7405 234.624 67.0119C234.624 67.3206 234.73 67.5623 234.942 67.7371C235.158 67.9082 235.431 67.9938 235.762 67.9938ZM239.953 68.7134V62.9452H241.119V63.7764C241.212 63.6202 241.337 63.4733 241.493 63.3357C241.653 63.1981 241.848 63.0865 242.079 63.001C242.313 62.9155 242.583 62.8727 242.888 62.8727C243.248 62.8727 243.581 62.9452 243.886 63.0903C244.195 63.2316 244.442 63.4547 244.628 63.7597C244.814 64.0609 244.907 64.4514 244.907 64.9312V68.7134H243.713V65.0595C243.713 64.6467 243.602 64.3398 243.379 64.139C243.159 63.9382 242.875 63.8378 242.525 63.8378C242.291 63.8378 242.068 63.8768 241.856 63.9549C241.644 64.033 241.473 64.152 241.342 64.3119C241.212 64.4681 241.147 64.6653 241.147 64.9033V68.7134H239.953ZM248.562 68.8249C247.807 68.8249 247.21 68.5665 246.771 68.0495C246.336 67.5289 246.118 66.7795 246.118 65.8014C246.118 65.2026 246.206 64.682 246.38 64.2394C246.559 63.7931 246.821 63.4473 247.167 63.2018C247.513 62.9564 247.944 62.8336 248.461 62.8336C248.718 62.8336 248.948 62.8653 249.153 62.9285C249.357 62.9917 249.536 63.0735 249.688 63.1739C249.841 63.2743 249.969 63.3822 250.073 63.4975C250.178 63.6128 250.256 63.7206 250.308 63.821V60.4237H251.513V68.7134H250.615L250.481 67.5307C250.44 67.6572 250.377 67.7948 250.291 67.9435C250.209 68.0923 250.094 68.2336 249.945 68.3675C249.8 68.5014 249.614 68.6111 249.387 68.6966C249.16 68.7822 248.885 68.8249 248.562 68.8249ZM248.79 67.9268C249.326 67.9268 249.713 67.7595 249.951 67.4247C250.189 67.0863 250.308 66.5322 250.308 65.7624C250.304 65.3272 250.25 64.9591 250.146 64.6578C250.046 64.3566 249.886 64.1297 249.666 63.9772C249.45 63.821 249.166 63.7429 248.813 63.7429C248.37 63.7429 248.008 63.9029 247.725 64.2227C247.446 64.5388 247.306 65.052 247.306 65.7624C247.306 66.4615 247.433 66.9971 247.686 67.369C247.942 67.7409 248.311 67.9268 248.79 67.9268ZM255.997 68.7134V60.6469H261.151L261.145 61.6733H257.213V64.1669H260.71V65.1822H257.213V68.7134H255.997ZM264.644 68.8249C264.104 68.8249 263.634 68.7097 263.232 68.4791C262.831 68.2448 262.518 67.9064 262.295 67.4638C262.072 67.0212 261.96 66.4857 261.96 65.8572C261.96 65.251 262.066 64.721 262.278 64.2673C262.49 63.8136 262.795 63.4622 263.193 63.213C263.595 62.9601 264.08 62.8336 264.649 62.8336C265.192 62.8336 265.663 62.9527 266.06 63.1907C266.458 63.425 266.767 63.769 266.987 64.2227C267.206 64.6727 267.316 65.2175 267.316 65.8572C267.316 66.4411 267.213 66.9562 267.009 67.4024C266.804 67.8487 266.503 68.1983 266.105 68.4512C265.711 68.7004 265.224 68.8249 264.644 68.8249ZM264.649 67.9045C264.98 67.9045 265.255 67.819 265.475 67.6479C265.694 67.4731 265.86 67.2295 265.971 66.9171C266.083 66.601 266.139 66.2365 266.139 65.8237C266.139 65.4407 266.088 65.0929 265.988 64.7805C265.891 64.4644 265.733 64.2134 265.514 64.0274C265.298 63.8415 265.01 63.7485 264.649 63.7485C264.318 63.7485 264.039 63.8341 263.812 64.0051C263.589 64.1725 263.422 64.4124 263.31 64.7248C263.199 65.0334 263.143 65.3998 263.143 65.8237C263.143 66.1993 263.193 66.5452 263.294 66.8613C263.394 67.1774 263.554 67.4303 263.773 67.62C263.996 67.8097 264.288 67.9045 264.649 67.9045ZM268.619 68.7134V62.9452H269.763V64.1279C269.86 63.8452 269.994 63.6091 270.165 63.4194C270.339 63.226 270.542 63.081 270.773 62.9843C271.003 62.8839 271.247 62.8336 271.504 62.8336C271.582 62.8336 271.656 62.8392 271.727 62.8504C271.797 62.8578 271.853 62.8727 271.894 62.895V64.0442C271.846 64.0219 271.782 64.007 271.704 63.9996C271.63 63.9921 271.565 63.9865 271.509 63.9828C271.256 63.9642 271.026 63.9772 270.817 64.0219C270.609 64.0665 270.429 64.1409 270.276 64.245C270.128 64.3491 270.012 64.4849 269.93 64.6522C269.852 64.8196 269.813 65.0167 269.813 65.2436V68.7134H268.619ZM275.477 68.8249C274.93 68.8249 274.449 68.7078 274.032 68.4735C273.615 68.2355 273.29 67.8971 273.056 67.4582C272.825 67.0194 272.71 66.4969 272.71 65.8907C272.71 65.2919 272.816 64.7638 273.028 64.3064C273.24 63.8452 273.547 63.4845 273.948 63.2241C274.35 62.9638 274.833 62.8336 275.399 62.8336C275.953 62.8336 276.421 62.9527 276.804 63.1907C277.188 63.4287 277.478 63.7634 277.675 64.1948C277.872 64.6225 277.97 65.1283 277.97 65.7121V66.1082H273.909C273.906 66.4541 273.961 66.7646 274.077 67.0398C274.192 67.3113 274.363 67.527 274.59 67.6869C274.82 67.8431 275.107 67.9212 275.449 67.9212C275.795 67.9212 276.092 67.8431 276.341 67.6869C276.594 67.5307 276.76 67.2983 276.838 66.9896H277.943C277.876 67.3838 277.718 67.7185 277.468 67.9938C277.219 68.269 276.92 68.4772 276.57 68.6185C276.221 68.7561 275.856 68.8249 275.477 68.8249ZM273.909 65.3328H276.832C276.832 65.0316 276.78 64.7582 276.676 64.5128C276.572 64.2636 276.412 64.0684 276.196 63.927C275.984 63.782 275.717 63.7095 275.393 63.7095C275.062 63.7095 274.787 63.7894 274.568 63.9493C274.348 64.1093 274.183 64.3138 274.071 64.563C273.963 64.8122 273.909 65.0688 273.909 65.3328ZM281.701 68.8249C281.18 68.8249 280.717 68.7115 280.312 68.4847C279.906 68.2541 279.588 67.9175 279.358 67.475C279.127 67.0287 279.012 66.4876 279.012 65.8516C279.012 65.2529 279.118 64.7266 279.33 64.2729C279.545 63.8192 279.854 63.4659 280.256 63.213C280.657 62.9601 281.139 62.8336 281.701 62.8336C282.136 62.8336 282.521 62.9192 282.855 63.0903C283.19 63.2576 283.462 63.4919 283.67 63.7931C283.882 64.0944 284.01 64.4458 284.055 64.8475H283.017C282.987 64.6578 282.917 64.4812 282.805 64.3175C282.694 64.1539 282.547 64.0237 282.364 63.927C282.182 63.8266 281.965 63.7764 281.712 63.7764C281.247 63.7764 280.869 63.9456 280.579 64.2841C280.289 64.6225 280.144 65.1413 280.144 65.8405C280.144 66.4801 280.28 66.9896 280.551 67.369C280.823 67.7483 281.215 67.938 281.728 67.938C281.981 67.938 282.199 67.8859 282.381 67.7818C282.563 67.6776 282.708 67.5438 282.816 67.3801C282.928 67.2165 282.999 67.0473 283.028 66.8725H284.044C283.999 67.2593 283.871 67.5995 283.659 67.8933C283.45 68.1871 283.179 68.4159 282.844 68.5795C282.509 68.7431 282.128 68.8249 281.701 68.8249ZM286.99 68.8249C286.618 68.8249 286.287 68.758 285.997 68.6241C285.71 68.4902 285.485 68.2969 285.322 68.044C285.158 67.7911 285.076 67.4861 285.076 67.1291C285.076 66.4894 285.301 66.0115 285.751 65.6954C286.205 65.3793 286.93 65.2119 287.927 65.1934L288.875 65.1655V64.7471C288.875 64.4161 288.777 64.1558 288.58 63.9661C288.382 63.7764 288.077 63.6834 287.665 63.6872C287.36 63.6872 287.086 63.7578 286.845 63.8991C286.603 64.0405 286.445 64.2729 286.37 64.5965H285.338C285.361 64.2134 285.47 63.8917 285.668 63.6314C285.868 63.3673 286.144 63.1684 286.493 63.0345C286.843 62.9006 287.252 62.8336 287.72 62.8336C288.249 62.8336 288.682 62.9062 289.02 63.0512C289.359 63.1925 289.61 63.4008 289.773 63.676C289.941 63.9512 290.024 64.2859 290.024 64.6801V68.7134H289.009L288.92 67.6535C288.704 68.096 288.431 68.4028 288.1 68.5739C287.769 68.7413 287.399 68.8249 286.99 68.8249ZM287.363 67.9938C287.546 67.9938 287.726 67.9621 287.905 67.8989C288.083 67.832 288.245 67.7427 288.39 67.6312C288.535 67.5159 288.65 67.3876 288.736 67.2462C288.825 67.1049 288.871 66.9599 288.875 66.8111V65.8572L288.094 65.8739C287.696 65.8776 287.358 65.9186 287.079 65.9967C286.804 66.0748 286.592 66.1956 286.443 66.3593C286.298 66.5229 286.225 66.7405 286.225 67.0119C286.225 67.3206 286.331 67.5623 286.543 67.7371C286.759 67.9082 287.032 67.9938 287.363 67.9938ZM293.648 68.8249C293.246 68.8249 292.869 68.7617 292.515 68.6353C292.166 68.5088 291.872 68.3099 291.634 68.0384C291.4 67.7669 291.253 67.4192 291.193 66.9952H292.259C292.307 67.2146 292.398 67.3969 292.532 67.5419C292.67 67.6832 292.833 67.7892 293.023 67.8599C293.216 67.9268 293.423 67.9603 293.642 67.9603C294.007 67.9603 294.302 67.8952 294.529 67.765C294.756 67.6312 294.869 67.4266 294.869 67.1514C294.869 66.9543 294.808 66.7962 294.685 66.6772C294.563 66.5582 294.371 66.4708 294.111 66.415L292.962 66.1417C292.486 66.0301 292.104 65.8535 291.818 65.6117C291.532 65.3663 291.387 65.0241 291.383 64.5853C291.383 64.2469 291.467 63.9456 291.634 63.6816C291.805 63.4175 292.058 63.2111 292.393 63.0624C292.731 62.9099 293.147 62.8336 293.642 62.8336C294.293 62.8336 294.815 62.9787 295.21 63.2688C295.608 63.5589 295.812 63.9791 295.823 64.5295H294.791C294.754 64.2655 294.633 64.0591 294.429 63.9103C294.228 63.7578 293.962 63.6816 293.631 63.6816C293.289 63.6816 293.008 63.7504 292.789 63.888C292.569 64.0219 292.459 64.2283 292.459 64.5072C292.459 64.6969 292.539 64.8475 292.699 64.9591C292.863 65.0669 293.103 65.1562 293.419 65.2268L294.512 65.5002C294.795 65.5745 295.027 65.6731 295.21 65.7958C295.392 65.9148 295.535 66.0469 295.639 66.1919C295.743 66.3369 295.816 66.4876 295.857 66.6438C295.901 66.8 295.924 66.9469 295.924 67.0845C295.924 67.4489 295.831 67.7613 295.645 68.0216C295.463 68.2783 295.202 68.4772 294.864 68.6185C294.525 68.7561 294.12 68.8249 293.648 68.8249ZM299.326 68.7524C298.898 68.7524 298.567 68.6948 298.333 68.5795C298.099 68.4642 297.935 68.2987 297.842 68.083C297.749 67.8636 297.702 67.5995 297.702 67.2909V63.8043H296.765V62.9452H297.742L298.032 61.2494H298.902V62.9396H300.196V63.8043H298.902L298.907 67.2462C298.907 67.4359 298.926 67.5754 298.963 67.6646C299.004 67.7502 299.071 67.8059 299.164 67.832C299.261 67.8543 299.391 67.8654 299.555 67.8654H300.224V68.6409C300.153 68.6706 300.044 68.6966 299.895 68.719C299.75 68.7413 299.56 68.7524 299.326 68.7524ZM301.563 68.7134V62.9452H302.712V68.7134H301.563ZM301.535 61.8295V60.6525H302.734V61.8295H301.535ZM304.422 68.7134V62.9452H305.588V63.7764C305.681 63.6202 305.806 63.4733 305.962 63.3357C306.122 63.1981 306.317 63.0865 306.547 63.001C306.782 62.9155 307.051 62.8727 307.356 62.8727C307.717 62.8727 308.05 62.9452 308.355 63.0903C308.664 63.2316 308.911 63.4547 309.097 63.7597C309.283 64.0609 309.376 64.4514 309.376 64.9312V68.7134H308.182V65.0595C308.182 64.6467 308.07 64.3398 307.847 64.139C307.628 63.9382 307.343 63.8378 306.994 63.8378C306.759 63.8378 306.536 63.8768 306.324 63.9549C306.112 64.033 305.941 64.152 305.811 64.3119C305.681 64.4681 305.616 64.6653 305.616 64.9033V68.7134H304.422ZM313.41 70.6212C312.472 70.6212 311.747 70.4892 311.234 70.2252C310.721 69.9648 310.464 69.6004 310.464 69.1318C310.464 68.9272 310.513 68.7543 310.609 68.613C310.71 68.4679 310.827 68.3489 310.961 68.2559C311.098 68.163 311.225 68.0904 311.34 68.0384C311.455 67.9826 311.53 67.9435 311.563 67.9212C311.5 67.884 311.418 67.8376 311.318 67.7818C311.221 67.7223 311.134 67.6442 311.055 67.5475C310.977 67.4471 310.938 67.3169 310.938 67.157C310.938 66.971 311.026 66.8 311.201 66.6438C311.379 66.4838 311.647 66.3667 312.004 66.2923C311.654 66.1212 311.383 65.8907 311.189 65.6006C310.996 65.3105 310.899 65.0018 310.899 64.6746C310.899 64.2989 311.005 63.9754 311.217 63.7039C311.429 63.4287 311.727 63.2186 312.11 63.0735C312.497 62.9285 312.95 62.856 313.471 62.856C313.854 62.856 314.172 62.8987 314.425 62.9843C314.681 63.0698 314.918 63.1888 315.133 63.3413C315.204 63.3153 315.304 63.2762 315.435 63.2241C315.568 63.1684 315.714 63.1089 315.87 63.0456C316.026 62.9824 316.175 62.921 316.316 62.8615C316.461 62.802 316.578 62.7537 316.667 62.7165L316.662 63.7541L315.658 63.9382C315.71 64.0498 315.751 64.1725 315.78 64.3064C315.814 64.4403 315.831 64.563 315.831 64.6746C315.831 65.0093 315.74 65.3179 315.557 65.6006C315.375 65.8795 315.102 66.1026 314.737 66.27C314.373 66.4374 313.917 66.521 313.371 66.521C313.318 66.521 313.252 66.521 313.17 66.521C313.088 66.5173 313.019 66.5117 312.963 66.5043C312.617 66.5155 312.379 66.5564 312.249 66.627C312.119 66.694 312.054 66.7683 312.054 66.8502C312.054 66.9543 312.138 67.025 312.305 67.0621C312.472 67.0993 312.748 67.1309 313.131 67.157C313.268 67.1681 313.443 67.1793 313.655 67.1905C313.871 67.2016 314.109 67.2165 314.369 67.2351C315.001 67.2723 315.483 67.4303 315.814 67.7093C316.149 67.9882 316.316 68.3582 316.316 68.8194C316.316 69.3475 316.076 69.7789 315.596 70.1136C315.117 70.452 314.388 70.6212 313.41 70.6212ZM313.616 69.8904C314.126 69.8904 314.51 69.8161 314.771 69.6673C315.031 69.5223 315.161 69.3047 315.161 69.0146C315.161 68.7989 315.078 68.6223 314.91 68.4847C314.743 68.3471 314.492 68.2671 314.157 68.2448L312.617 68.1444C312.465 68.1369 312.312 68.1704 312.16 68.2448C312.011 68.3192 311.889 68.4233 311.792 68.5572C311.695 68.6873 311.647 68.8324 311.647 68.9923C311.647 69.2824 311.807 69.5037 312.127 69.6561C312.446 69.8123 312.943 69.8904 313.616 69.8904ZM313.404 65.7902C313.791 65.7902 314.101 65.6973 314.336 65.5113C314.574 65.3217 314.693 65.0502 314.693 64.6969C314.693 64.3324 314.574 64.0516 314.336 63.8545C314.101 63.6537 313.791 63.5533 313.404 63.5533C313.014 63.5533 312.697 63.6537 312.456 63.8545C312.218 64.0553 312.099 64.3361 312.099 64.6969C312.099 65.039 312.212 65.3068 312.439 65.5002C312.67 65.6936 312.991 65.7902 313.404 65.7902Z" fill="#D4D4D4"/>
<rect x="345.223" y="47.7876" width="151.548" height="33.471" rx="5.57849" fill="#444444"/>
<path d="M368.763 67.8556L364.189 59.913C364.075 59.7185 363.912 59.5571 363.716 59.445C363.52 59.3329 363.298 59.2739 363.073 59.2739C362.847 59.2739 362.625 59.3329 362.43 59.445C362.234 59.5571 362.071 59.7185 361.956 59.913L357.383 67.8556C357.273 68.0438 357.215 68.2579 357.215 68.4759C357.215 68.6938 357.273 68.9079 357.383 69.0961C357.496 69.2919 357.658 69.4541 357.855 69.5661C358.051 69.6782 358.273 69.736 358.499 69.7336H367.646C367.872 69.7358 368.094 69.6779 368.29 69.5659C368.486 69.4538 368.649 69.2917 368.762 69.0961C368.872 68.908 368.93 68.694 368.93 68.476C368.93 68.258 368.873 68.0439 368.763 67.8556ZM368.038 68.6772C367.998 68.7452 367.94 68.8014 367.872 68.84C367.803 68.8786 367.725 68.8982 367.646 68.8969H358.499C358.421 68.8982 358.343 68.8786 358.274 68.84C358.205 68.8014 358.148 68.7452 358.108 68.6772C358.072 68.6161 358.053 68.5463 358.053 68.4753C358.053 68.4043 358.072 68.3346 358.108 68.2735L362.682 60.3309C362.722 60.2632 362.78 60.2072 362.849 60.1683C362.917 60.1294 362.995 60.109 363.074 60.109C363.153 60.109 363.23 60.1294 363.299 60.1683C363.368 60.2072 363.425 60.2632 363.466 60.3309L368.04 68.2735C368.075 68.3348 368.094 68.4046 368.094 68.4756C368.093 68.5466 368.074 68.6162 368.038 68.6772ZM362.654 65.5498V63.4578C362.654 63.3469 362.699 63.2404 362.777 63.162C362.855 63.0835 362.962 63.0394 363.073 63.0394C363.184 63.0394 363.29 63.0835 363.369 63.162C363.447 63.2404 363.491 63.3469 363.491 63.4578V65.5498C363.491 65.6607 363.447 65.7671 363.369 65.8456C363.29 65.9241 363.184 65.9682 363.073 65.9682C362.962 65.9682 362.855 65.9241 362.777 65.8456C362.699 65.7671 362.654 65.6607 362.654 65.5498ZM363.7 67.4325C363.7 67.5566 363.664 67.678 363.595 67.7812C363.526 67.8844 363.428 67.9648 363.313 68.0123C363.198 68.0598 363.072 68.0722 362.95 68.048C362.829 68.0238 362.717 67.964 362.629 67.8763C362.541 67.7885 362.482 67.6767 362.457 67.5549C362.433 67.4332 362.446 67.307 362.493 67.1923C362.541 67.0777 362.621 66.9797 362.724 66.9107C362.827 66.8417 362.949 66.8049 363.073 66.8049C363.239 66.8049 363.399 66.871 363.517 66.9887C363.634 67.1064 363.7 67.2661 363.7 67.4325Z" fill="white"/>
<path d="M374.8 68.7134L377.712 60.6469H379.028L381.935 68.7134H380.73L379.971 66.5991H376.775L376.01 68.7134H374.8ZM377.07 65.5169H379.659L378.364 61.8072L377.07 65.5169ZM383.166 68.7134V62.9452H384.332V63.7764C384.425 63.6202 384.549 63.4733 384.705 63.3357C384.865 63.1981 385.061 63.0865 385.291 63.001C385.525 62.9155 385.795 62.8727 386.1 62.8727C386.461 62.8727 386.794 62.9452 387.099 63.0903C387.407 63.2316 387.655 63.4547 387.841 63.7597C388.026 64.0609 388.119 64.4514 388.119 64.9312V68.7134H386.926V65.0595C386.926 64.6467 386.814 64.3398 386.591 64.139C386.372 63.9382 386.087 63.8378 385.737 63.8378C385.503 63.8378 385.28 63.8768 385.068 63.9549C384.856 64.033 384.685 64.152 384.555 64.3119C384.425 64.4681 384.36 64.6653 384.36 64.9033V68.7134H383.166ZM392.014 68.8249C391.475 68.8249 391.004 68.7097 390.602 68.4791C390.201 68.2448 389.888 67.9064 389.665 67.4638C389.442 67.0212 389.331 66.4857 389.331 65.8572C389.331 65.251 389.437 64.721 389.649 64.2673C389.861 63.8136 390.166 63.4622 390.563 63.213C390.965 62.9601 391.45 62.8336 392.019 62.8336C392.562 62.8336 393.033 62.9527 393.431 63.1907C393.829 63.425 394.137 63.769 394.357 64.2227C394.576 64.6727 394.686 65.2175 394.686 65.8572C394.686 66.4411 394.584 66.9562 394.379 67.4024C394.175 67.8487 393.873 68.1983 393.475 68.4512C393.081 68.7004 392.594 68.8249 392.014 68.8249ZM392.019 67.9045C392.35 67.9045 392.626 67.819 392.845 67.6479C393.064 67.4731 393.23 67.2295 393.342 66.9171C393.453 66.601 393.509 66.2365 393.509 65.8237C393.509 65.4407 393.459 65.0929 393.358 64.7805C393.262 64.4644 393.104 64.2134 392.884 64.0274C392.668 63.8415 392.38 63.7485 392.019 63.7485C391.688 63.7485 391.41 63.8341 391.183 64.0051C390.96 64.1725 390.792 64.4124 390.681 64.7248C390.569 65.0334 390.513 65.3998 390.513 65.8237C390.513 66.1993 390.563 66.5452 390.664 66.8613C390.764 67.1774 390.924 67.4303 391.144 67.62C391.367 67.8097 391.659 67.9045 392.019 67.9045ZM395.99 68.7134V62.9452H397.15V63.7764C397.314 63.5235 397.537 63.3041 397.819 63.1182C398.102 62.9285 398.467 62.8336 398.913 62.8336C399.121 62.8336 399.331 62.869 399.543 62.9396C399.759 63.0103 399.956 63.1163 400.135 63.2576C400.317 63.3952 400.46 63.5663 400.564 63.7708C400.746 63.4956 400.99 63.2706 401.295 63.0958C401.6 62.921 401.942 62.8336 402.321 62.8336C402.526 62.8336 402.738 62.8671 402.957 62.9341C403.177 62.9973 403.379 63.107 403.565 63.2632C403.755 63.4157 403.907 63.6277 404.023 63.8991C404.142 64.1706 404.201 64.5146 404.201 64.9312V68.7134H403.002V65.0595C403.002 64.7434 402.948 64.496 402.84 64.3175C402.736 64.139 402.598 64.0144 402.427 63.9438C402.26 63.8694 402.081 63.8322 401.892 63.8322C401.721 63.8322 401.542 63.8657 401.356 63.9326C401.17 63.9996 401.012 64.1111 400.882 64.2673C400.752 64.4235 400.687 64.6355 400.687 64.9033V68.7134H399.493V64.8029C399.493 64.5909 399.435 64.4124 399.32 64.2673C399.209 64.1223 399.067 64.0144 398.896 63.9438C398.729 63.8694 398.561 63.8322 398.394 63.8322C398.208 63.8322 398.022 63.8694 397.836 63.9438C397.65 64.0181 397.494 64.1353 397.368 64.2952C397.245 64.4514 397.184 64.6541 397.184 64.9033V68.7134H395.99ZM407.354 68.8249C406.982 68.8249 406.651 68.758 406.361 68.6241C406.075 68.4902 405.85 68.2969 405.686 68.044C405.523 67.7911 405.441 67.4861 405.441 67.1291C405.441 66.4894 405.666 66.0115 406.116 65.6954C406.569 65.3793 407.295 65.2119 408.291 65.1934L409.24 65.1655V64.7471C409.24 64.4161 409.141 64.1558 408.944 63.9661C408.747 63.7764 408.442 63.6834 408.029 63.6872C407.724 63.6872 407.451 63.7578 407.209 63.8991C406.967 64.0405 406.809 64.2729 406.735 64.5965H405.703C405.725 64.2134 405.835 63.8917 406.032 63.6314C406.233 63.3673 406.508 63.1684 406.858 63.0345C407.207 62.9006 407.616 62.8336 408.085 62.8336C408.613 62.8336 409.046 62.9062 409.385 63.0512C409.723 63.1925 409.974 63.4008 410.138 63.676C410.305 63.9512 410.389 64.2859 410.389 64.6801V68.7134H409.374L409.284 67.6535C409.069 68.096 408.795 68.4028 408.464 68.5739C408.133 68.7413 407.763 68.8249 407.354 68.8249ZM407.728 67.9938C407.91 67.9938 408.091 67.9621 408.269 67.8989C408.448 67.832 408.609 67.7427 408.754 67.6312C408.899 67.5159 409.015 67.3876 409.1 67.2462C409.19 67.1049 409.236 66.9599 409.24 66.8111V65.8572L408.459 65.8739C408.061 65.8776 407.722 65.9186 407.443 65.9967C407.168 66.0748 406.956 66.1956 406.807 66.3593C406.662 66.5229 406.59 66.7405 406.59 67.0119C406.59 67.3206 406.696 67.5623 406.908 67.7371C407.124 67.9082 407.397 67.9938 407.728 67.9938ZM413.481 68.7915C413.139 68.7915 412.864 68.7468 412.655 68.6576C412.451 68.5683 412.295 68.4493 412.187 68.3006C412.079 68.1481 412.006 67.977 411.969 67.7873C411.936 67.594 411.919 67.395 411.919 67.1905V60.4237H413.096V67.0677C413.096 67.3355 413.148 67.54 413.252 67.6814C413.36 67.8227 413.524 67.9026 413.743 67.9212L414.044 67.9324V68.6911C413.951 68.7208 413.855 68.745 413.754 68.7636C413.658 68.7822 413.566 68.7915 413.481 68.7915ZM415.797 70.5543C415.444 70.5543 415.198 70.5282 415.061 70.4762C414.927 70.4241 414.86 70.3981 414.86 70.3981V69.6283L415.446 69.6394C415.669 69.6506 415.853 69.6375 415.998 69.6004C416.143 69.5632 416.256 69.5111 416.338 69.4442C416.424 69.3809 416.487 69.3121 416.528 69.2378C416.572 69.1634 416.606 69.0946 416.628 69.0314L416.807 68.546L414.559 62.9452H415.752L417.37 67.2072L418.982 62.9452H420.148L417.744 69.0369C417.58 69.4386 417.4 69.7491 417.203 69.9685C417.009 70.188 416.796 70.3404 416.561 70.426C416.327 70.5115 416.072 70.5543 415.797 70.5543ZM424.018 68.7134V60.6469H429.172L429.167 61.6733H425.234V64.1669H428.732V65.1822H425.234V68.7134H424.018ZM432.665 68.8249C432.126 68.8249 431.655 68.7097 431.254 68.4791C430.852 68.2448 430.54 67.9064 430.316 67.4638C430.093 67.0212 429.982 66.4857 429.982 65.8572C429.982 65.251 430.088 64.721 430.3 64.2673C430.512 63.8136 430.817 63.4622 431.215 63.213C431.616 62.9601 432.102 62.8336 432.671 62.8336C433.213 62.8336 433.684 62.9527 434.082 63.1907C434.48 63.425 434.788 63.769 435.008 64.2227C435.227 64.6727 435.337 65.2175 435.337 65.8572C435.337 66.4411 435.235 66.9562 435.03 67.4024C434.826 67.8487 434.524 68.1983 434.126 68.4512C433.732 68.7004 433.245 68.8249 432.665 68.8249ZM432.671 67.9045C433.001 67.9045 433.277 67.819 433.496 67.6479C433.716 67.4731 433.881 67.2295 433.993 66.9171C434.104 66.601 434.16 66.2365 434.16 65.8237C434.16 65.4407 434.11 65.0929 434.009 64.7805C433.913 64.4644 433.755 64.2134 433.535 64.0274C433.319 63.8415 433.031 63.7485 432.671 63.7485C432.34 63.7485 432.061 63.8341 431.834 64.0051C431.611 64.1725 431.443 64.4124 431.332 64.7248C431.22 65.0334 431.164 65.3998 431.164 65.8237C431.164 66.1993 431.215 66.5452 431.315 66.8613C431.415 67.1774 431.575 67.4303 431.795 67.62C432.018 67.8097 432.31 67.9045 432.671 67.9045ZM436.641 68.7134V62.9452H437.784V64.1279C437.881 63.8452 438.015 63.6091 438.186 63.4194C438.361 63.226 438.564 63.081 438.794 62.9843C439.025 62.8839 439.268 62.8336 439.525 62.8336C439.603 62.8336 439.677 62.8392 439.748 62.8504C439.819 62.8578 439.874 62.8727 439.915 62.895V64.0442C439.867 64.0219 439.804 64.007 439.726 63.9996C439.651 63.9921 439.586 63.9865 439.53 63.9828C439.278 63.9642 439.047 63.9772 438.839 64.0219C438.63 64.0665 438.45 64.1409 438.298 64.245C438.149 64.3491 438.034 64.4849 437.952 64.6522C437.874 64.8196 437.835 65.0167 437.835 65.2436V68.7134H436.641ZM443.498 68.8249C442.951 68.8249 442.47 68.7078 442.053 68.4735C441.637 68.2355 441.311 67.8971 441.077 67.4582C440.847 67.0194 440.731 66.4969 440.731 65.8907C440.731 65.2919 440.837 64.7638 441.049 64.3064C441.261 63.8452 441.568 63.4845 441.97 63.2241C442.371 62.9638 442.855 62.8336 443.42 62.8336C443.974 62.8336 444.443 62.9527 444.826 63.1907C445.209 63.4287 445.499 63.7634 445.696 64.1948C445.893 64.6225 445.992 65.1283 445.992 65.7121V66.1082H441.931C441.927 66.4541 441.983 66.7646 442.098 67.0398C442.213 67.3113 442.384 67.527 442.611 67.6869C442.842 67.8431 443.128 67.9212 443.47 67.9212C443.816 67.9212 444.114 67.8431 444.363 67.6869C444.616 67.5307 444.781 67.2983 444.859 66.9896H445.964C445.897 67.3838 445.739 67.7185 445.49 67.9938C445.241 68.269 444.941 68.4772 444.592 68.6185C444.242 68.7561 443.878 68.8249 443.498 68.8249ZM441.931 65.3328H444.854C444.854 65.0316 444.802 64.7582 444.698 64.5128C444.593 64.2636 444.434 64.0684 444.218 63.927C444.006 63.782 443.738 63.7095 443.415 63.7095C443.084 63.7095 442.808 63.7894 442.589 63.9493C442.369 64.1093 442.204 64.3138 442.092 64.563C441.985 64.8122 441.931 65.0688 441.931 65.3328ZM449.722 68.8249C449.201 68.8249 448.738 68.7115 448.333 68.4847C447.928 68.2541 447.61 67.9175 447.379 67.475C447.148 67.0287 447.033 66.4876 447.033 65.8516C447.033 65.2529 447.139 64.7266 447.351 64.2729C447.567 63.8192 447.875 63.4659 448.277 63.213C448.679 62.9601 449.16 62.8336 449.722 62.8336C450.157 62.8336 450.542 62.9192 450.877 63.0903C451.211 63.2576 451.483 63.4919 451.691 63.7931C451.903 64.0944 452.031 64.4458 452.076 64.8475H451.038C451.009 64.6578 450.938 64.4812 450.827 64.3175C450.715 64.1539 450.568 64.0237 450.386 63.927C450.204 63.8266 449.986 63.7764 449.733 63.7764C449.268 63.7764 448.891 63.9456 448.601 64.2841C448.311 64.6225 448.166 65.1413 448.166 65.8405C448.166 66.4801 448.301 66.9896 448.573 67.369C448.844 67.7483 449.237 67.938 449.75 67.938C450.003 67.938 450.22 67.8859 450.403 67.7818C450.585 67.6776 450.73 67.5438 450.838 67.3801C450.949 67.2165 451.02 67.0473 451.05 66.8725H452.065C452.02 67.2593 451.892 67.5995 451.68 67.8933C451.472 68.1871 451.2 68.4159 450.866 68.5795C450.531 68.7431 450.15 68.8249 449.722 68.8249ZM455.011 68.8249C454.639 68.8249 454.308 68.758 454.018 68.6241C453.732 68.4902 453.507 68.2969 453.343 68.044C453.179 67.7911 453.098 67.4861 453.098 67.1291C453.098 66.4894 453.323 66.0115 453.773 65.6954C454.226 65.3793 454.952 65.2119 455.948 65.1934L456.897 65.1655V64.7471C456.897 64.4161 456.798 64.1558 456.601 63.9661C456.404 63.7764 456.099 63.6834 455.686 63.6872C455.381 63.6872 455.108 63.7578 454.866 63.8991C454.624 64.0405 454.466 64.2729 454.392 64.5965H453.36C453.382 64.2134 453.492 63.8917 453.689 63.6314C453.89 63.3673 454.165 63.1684 454.515 63.0345C454.864 62.9006 455.273 62.8336 455.742 62.8336C456.27 62.8336 456.703 62.9062 457.042 63.0512C457.38 63.1925 457.631 63.4008 457.795 63.676C457.962 63.9512 458.046 64.2859 458.046 64.6801V68.7134H457.03L456.941 67.6535C456.726 68.096 456.452 68.4028 456.121 68.5739C455.79 68.7413 455.42 68.8249 455.011 68.8249ZM455.385 67.9938C455.567 67.9938 455.747 67.9621 455.926 67.8989C456.104 67.832 456.266 67.7427 456.411 67.6312C456.556 67.5159 456.672 67.3876 456.757 67.2462C456.846 67.1049 456.893 66.9599 456.897 66.8111V65.8572L456.116 65.8739C455.718 65.8776 455.379 65.9186 455.1 65.9967C454.825 66.0748 454.613 66.1956 454.464 66.3593C454.319 66.5229 454.247 66.7405 454.247 67.0119C454.247 67.3206 454.353 67.5623 454.565 67.7371C454.78 67.9082 455.054 67.9938 455.385 67.9938ZM461.669 68.8249C461.267 68.8249 460.89 68.7617 460.537 68.6353C460.187 68.5088 459.893 68.3099 459.655 68.0384C459.421 67.7669 459.274 67.4192 459.215 66.9952H460.28C460.328 67.2146 460.419 67.3969 460.553 67.5419C460.691 67.6832 460.855 67.7892 461.044 67.8599C461.238 67.9268 461.444 67.9603 461.664 67.9603C462.028 67.9603 462.324 67.8952 462.55 67.765C462.777 67.6312 462.891 67.4266 462.891 67.1514C462.891 66.9543 462.829 66.7962 462.707 66.6772C462.584 66.5582 462.392 66.4708 462.132 66.415L460.983 66.1417C460.507 66.0301 460.126 65.8535 459.839 65.6117C459.553 65.3663 459.408 65.0241 459.404 64.5853C459.404 64.2469 459.488 63.9456 459.655 63.6816C459.826 63.4175 460.079 63.2111 460.414 63.0624C460.752 62.9099 461.169 62.8336 461.664 62.8336C462.314 62.8336 462.837 62.9787 463.231 63.2688C463.629 63.5589 463.834 63.9791 463.845 64.5295H462.813C462.775 64.2655 462.655 64.0591 462.45 63.9103C462.249 63.7578 461.983 63.6816 461.652 63.6816C461.31 63.6816 461.029 63.7504 460.81 63.888C460.591 64.0219 460.481 64.2283 460.481 64.5072C460.481 64.6969 460.561 64.8475 460.721 64.9591C460.884 65.0669 461.124 65.1562 461.44 65.2268L462.534 65.5002C462.816 65.5745 463.049 65.6731 463.231 65.7958C463.413 65.9148 463.556 66.0469 463.661 66.1919C463.765 66.3369 463.837 66.4876 463.878 66.6438C463.923 66.8 463.945 66.9469 463.945 67.0845C463.945 67.4489 463.852 67.7613 463.666 68.0216C463.484 68.2783 463.224 68.4772 462.885 68.6185C462.547 68.7561 462.141 68.8249 461.669 68.8249ZM467.347 68.7524C466.92 68.7524 466.589 68.6948 466.354 68.5795C466.12 68.4642 465.956 68.2987 465.863 68.083C465.77 67.8636 465.724 67.5995 465.724 67.2909V63.8043H464.787V62.9452H465.763L466.053 61.2494H466.923V62.9396H468.217V63.8043H466.923L466.929 67.2462C466.929 67.4359 466.947 67.5754 466.985 67.6646C467.026 67.7502 467.092 67.8059 467.185 67.832C467.282 67.8543 467.412 67.8654 467.576 67.8654H468.245V68.6409C468.175 68.6706 468.065 68.6966 467.916 68.719C467.771 68.7413 467.581 68.7524 467.347 68.7524ZM469.584 68.7134V62.9452H470.733V68.7134H469.584ZM469.556 61.8295V60.6525H470.755V61.8295H469.556ZM472.443 68.7134V62.9452H473.609V63.7764C473.702 63.6202 473.827 63.4733 473.983 63.3357C474.143 63.1981 474.338 63.0865 474.569 63.001C474.803 62.9155 475.073 62.8727 475.378 62.8727C475.738 62.8727 476.071 62.9452 476.376 63.0903C476.685 63.2316 476.932 63.4547 477.118 63.7597C477.304 64.0609 477.397 64.4514 477.397 64.9312V68.7134H476.203V65.0595C476.203 64.6467 476.092 64.3398 475.869 64.139C475.649 63.9382 475.365 63.8378 475.015 63.8378C474.781 63.8378 474.558 63.8768 474.346 63.9549C474.134 64.033 473.963 64.152 473.832 64.3119C473.702 64.4681 473.637 64.6653 473.637 64.9033V68.7134H472.443ZM481.431 70.6212C480.494 70.6212 479.769 70.4892 479.255 70.2252C478.742 69.9648 478.486 69.6004 478.486 69.1318C478.486 68.9272 478.534 68.7543 478.631 68.613C478.731 68.4679 478.848 68.3489 478.982 68.2559C479.12 68.163 479.246 68.0904 479.361 68.0384C479.477 67.9826 479.551 67.9435 479.584 67.9212C479.521 67.884 479.439 67.8376 479.339 67.7818C479.242 67.7223 479.155 67.6442 479.077 67.5475C478.999 67.4471 478.96 67.3169 478.96 67.157C478.96 66.971 479.047 66.8 479.222 66.6438C479.4 66.4838 479.668 66.3667 480.025 66.2923C479.676 66.1212 479.404 65.8907 479.211 65.6006C479.017 65.3105 478.921 65.0018 478.921 64.6746C478.921 64.2989 479.027 63.9754 479.239 63.7039C479.451 63.4287 479.748 63.2186 480.131 63.0735C480.518 62.9285 480.972 62.856 481.492 62.856C481.875 62.856 482.193 62.8987 482.446 62.9843C482.703 63.0698 482.939 63.1888 483.155 63.3413C483.225 63.3153 483.326 63.2762 483.456 63.2241C483.59 63.1684 483.735 63.1089 483.891 63.0456C484.047 62.9824 484.196 62.921 484.337 62.8615C484.482 62.802 484.6 62.7537 484.689 62.7165L484.683 63.7541L483.679 63.9382C483.731 64.0498 483.772 64.1725 483.802 64.3064C483.835 64.4403 483.852 64.563 483.852 64.6746C483.852 65.0093 483.761 65.3179 483.579 65.6006C483.396 65.8795 483.123 66.1026 482.759 66.27C482.394 66.4374 481.939 66.521 481.392 66.521C481.34 66.521 481.273 66.521 481.191 66.521C481.109 66.5173 481.04 66.5117 480.985 66.5043C480.639 66.5155 480.401 66.5564 480.271 66.627C480.14 66.694 480.075 66.7683 480.075 66.8502C480.075 66.9543 480.159 67.025 480.326 67.0621C480.494 67.0993 480.769 67.1309 481.152 67.157C481.29 67.1681 481.464 67.1793 481.676 67.1905C481.892 67.2016 482.13 67.2165 482.39 67.2351C483.023 67.2723 483.504 67.4303 483.835 67.7093C484.17 67.9882 484.337 68.3582 484.337 68.8194C484.337 69.3475 484.097 69.7789 483.618 70.1136C483.138 70.452 482.409 70.6212 481.431 70.6212ZM481.637 69.8904C482.147 69.8904 482.532 69.8161 482.792 69.6673C483.052 69.5223 483.183 69.3047 483.183 69.0146C483.183 68.7989 483.099 68.6223 482.932 68.4847C482.764 68.3471 482.513 68.2671 482.178 68.2448L480.639 68.1444C480.486 68.1369 480.334 68.1704 480.181 68.2448C480.033 68.3192 479.91 68.4233 479.813 68.5572C479.717 68.6873 479.668 68.8324 479.668 68.9923C479.668 69.2824 479.828 69.5037 480.148 69.6561C480.468 69.8123 480.964 69.8904 481.637 69.8904ZM481.425 65.7902C481.812 65.7902 482.123 65.6973 482.357 65.5113C482.595 65.3217 482.714 65.0502 482.714 64.6969C482.714 64.3324 482.595 64.0516 482.357 63.8545C482.123 63.6537 481.812 63.5533 481.425 63.5533C481.035 63.5533 480.719 63.6537 480.477 63.8545C480.239 64.0553 480.12 64.3361 480.12 64.6969C480.12 65.039 480.233 65.3068 480.46 65.5002C480.691 65.6936 481.013 65.7902 481.425 65.7902Z" fill="#D4D4D4"/>
</g>
<defs>
<filter id="filter0_f_787_8178" x="57.2438" y="-65.7635" width="463.212" height="463.213" filterUnits="userSpaceOnUse" color-interpolation-filters="sRGB">
<feFlood flood-opacity="0" result="BackgroundImageFix"/>
<feBlend mode="normal" in="SourceGraphic" in2="BackgroundImageFix" result="shape"/>
<feGaussianBlur stdDeviation="73.5109" result="effect1_foregroundBlur_787_8178"/>
</filter>
<linearGradient id="paint0_linear_787_8178" x1="294.192" y1="250.427" x2="349.774" y2="106.925" gradientUnits="userSpaceOnUse">
<stop stop-color="#39D373"/>
<stop offset="1" stop-color="#005F24"/>
</linearGradient>
<linearGradient id="paint1_linear_787_8178" x1="196.941" y1="81.4328" x2="240.729" y2="276.098" gradientUnits="userSpaceOnUse">
<stop stop-color="#1A974A"/>
<stop offset="0.668521"/>
</linearGradient>
<clipPath id="clip0_787_8178">
<rect width="509" height="213" fill="white"/>
</clipPath>
</defs>
</svg>
