<svg width="519" height="174" viewBox="0 0 519 174" fill="none" xmlns="http://www.w3.org/2000/svg">
<g clip-path="url(#clip0_787_7990)">
<rect x="0.203125" y="0.248535" width="514.242" height="173.785" rx="5.95039" fill="#0A0A0A"/>
<g filter="url(#filter0_f_787_7990)">
<circle cx="193.26" cy="48.6338" r="84.5845" fill="url(#paint0_linear_787_7990)" fill-opacity="0.3"/>
</g>
<g clip-path="url(#clip1_787_7990)">
<rect x="178.336" y="44.5742" width="244.713" height="163.725" rx="11.157" transform="rotate(-2.88652 178.336 44.5742)" fill="#444444"/>
<path d="M188.774 85.9061L188.759 85.5981L189.905 84.2254C190.049 84.0521 190.161 83.9095 190.242 83.7975C190.323 83.6838 190.378 83.5823 190.408 83.4927C190.439 83.4032 190.451 83.3063 190.446 83.202L190.446 83.197C190.44 83.0711 190.407 82.9599 190.347 82.8633C190.287 82.7667 190.205 82.6919 190.101 82.6391C189.998 82.5862 189.875 82.5633 189.734 82.5704C189.592 82.5776 189.468 82.6137 189.364 82.6788C189.259 82.7422 189.18 82.8283 189.125 82.9373C189.071 83.0447 189.047 83.1687 189.054 83.3095L189.052 83.3146L188.625 83.3336L188.62 83.3314C188.611 83.1193 188.653 82.9288 188.745 82.7598C188.838 82.5891 188.971 82.4529 189.143 82.3512C189.316 82.2479 189.516 82.1905 189.745 82.1789C189.953 82.1684 190.143 82.2028 190.315 82.2822C190.487 82.3598 190.624 82.4716 190.728 82.6175C190.833 82.7632 190.891 82.933 190.901 83.1267L190.901 83.1317C190.908 83.2675 190.89 83.3995 190.849 83.5278C190.809 83.656 190.733 83.8001 190.621 83.9601C190.51 84.1185 190.351 84.3149 190.145 84.5494L189.267 85.5525L189.369 85.3407L189.379 85.5469L189.266 85.4779L191.074 85.3867L191.095 85.7891L188.774 85.9061ZM193.049 85.7752C192.784 85.7886 192.553 85.7239 192.357 85.581C192.162 85.4381 192.007 85.2293 191.892 84.9545C191.777 84.6781 191.709 84.3477 191.69 83.9635L191.69 83.9586C191.67 83.5744 191.704 83.2398 191.791 82.9548C191.878 82.6699 192.011 82.4465 192.19 82.2847C192.372 82.1228 192.595 82.0352 192.86 82.0219C193.125 82.0085 193.355 82.0732 193.552 82.2161C193.748 82.3589 193.904 82.5677 194.019 82.8425C194.136 83.1172 194.204 83.4466 194.223 83.8308L194.224 83.8358C194.243 84.22 194.208 84.5554 194.12 84.8421C194.033 85.1271 193.899 85.3505 193.718 85.5124C193.537 85.6743 193.314 85.7619 193.049 85.7752ZM193.029 85.3852C193.201 85.3766 193.345 85.3087 193.46 85.1817C193.576 85.0547 193.661 84.8786 193.714 84.6534C193.769 84.4281 193.789 84.1632 193.774 83.8585L193.774 83.8535C193.758 83.5488 193.712 83.288 193.635 83.0711C193.559 82.8524 193.457 82.6866 193.328 82.5735C193.201 82.4587 193.052 82.4057 192.879 82.4143C192.709 82.4229 192.565 82.4908 192.449 82.6178C192.334 82.7432 192.25 82.9184 192.196 83.1436C192.143 83.3671 192.124 83.6312 192.139 83.9359L192.139 83.9409C192.155 84.2456 192.2 84.5073 192.276 84.7259C192.352 84.9446 192.453 85.1113 192.58 85.2261C192.709 85.3408 192.859 85.3938 193.029 85.3852ZM197.985 85.5264C197.66 85.5427 197.375 85.4807 197.131 85.3403C196.886 85.1999 196.693 84.993 196.549 84.7196C196.408 84.4462 196.327 84.1174 196.308 83.7332L196.308 83.7282C196.288 83.3424 196.335 83.0063 196.448 82.72C196.564 82.4336 196.735 82.2083 196.962 82.0441C197.191 81.8798 197.468 81.7895 197.793 81.7731C198.045 81.7604 198.276 81.7986 198.486 81.8876C198.698 81.9749 198.875 82.1029 199.018 82.2717C199.161 82.4388 199.256 82.6357 199.302 82.8625L199.3 82.8676L198.85 82.8903L198.848 82.8854C198.8 82.7334 198.726 82.6043 198.626 82.4981C198.526 82.3903 198.407 82.3091 198.268 82.2547C198.131 82.2002 197.979 82.1771 197.814 82.1855C197.585 82.197 197.389 82.2666 197.226 82.3944C197.065 82.522 196.945 82.6975 196.865 82.9207C196.784 83.1438 196.752 83.4053 196.767 83.7051L196.767 83.71C196.782 84.0081 196.841 84.2641 196.943 84.4782C197.045 84.6922 197.183 84.8546 197.356 84.9654C197.531 85.0761 197.734 85.1256 197.964 85.114C198.131 85.1056 198.281 85.0715 198.414 85.0116C198.547 84.9501 198.658 84.8673 198.745 84.7633C198.833 84.6576 198.892 84.5351 198.921 84.3958L198.926 84.3906L199.378 84.3678L199.378 84.3728C199.35 84.5934 199.273 84.7882 199.149 84.9571C199.024 85.1245 198.863 85.258 198.663 85.3577C198.466 85.4573 198.24 85.5135 197.985 85.5264ZM200.179 85.3311L199.998 81.7466L201.367 81.6776C201.597 81.666 201.799 81.7006 201.975 81.7814C202.151 81.8605 202.291 81.9772 202.393 82.1314C202.496 82.2856 202.552 82.4703 202.563 82.6856L202.563 82.6906C202.576 82.939 202.523 83.1575 202.405 83.3461C202.286 83.5347 202.116 83.6703 201.895 83.7528L202.799 85.1989L202.275 85.2254L201.436 83.8457C201.433 83.8458 201.429 83.8461 201.424 83.8463C201.419 83.8466 201.415 83.8468 201.411 83.8469L200.554 83.8901L200.626 85.3085L200.179 85.3311ZM200.534 83.4927L201.416 83.4482C201.646 83.4366 201.821 83.3689 201.939 83.2451C202.059 83.1195 202.113 82.9474 202.102 82.7288L202.102 82.7238C202.091 82.5102 202.017 82.3462 201.88 82.2319C201.743 82.1177 201.559 82.0664 201.327 82.078L200.465 82.1215L200.534 83.4927Z" fill="white"/>
<path d="M191.798 113.094L191.642 110.006L191.602 110.008L190.724 110.715L190.7 110.243L191.619 109.509L192.064 109.487L192.245 113.071L191.798 113.094ZM194.462 113.044C194.24 113.055 194.04 113.021 193.862 112.942C193.684 112.863 193.538 112.751 193.424 112.606C193.312 112.459 193.242 112.29 193.214 112.101L193.211 112.074L193.64 112.052L193.644 112.072C193.664 112.185 193.711 112.287 193.784 112.378C193.858 112.468 193.952 112.537 194.066 112.586C194.181 112.635 194.308 112.656 194.447 112.649C194.606 112.641 194.745 112.599 194.862 112.523C194.979 112.446 195.069 112.343 195.13 112.216C195.192 112.088 195.219 111.944 195.211 111.783L195.21 111.778C195.202 111.619 195.16 111.48 195.085 111.361C195.011 111.241 194.912 111.149 194.789 111.085C194.667 111.021 194.527 110.994 194.372 111.001C194.253 111.007 194.143 111.031 194.044 111.073C193.947 111.114 193.861 111.173 193.787 111.25C193.757 111.281 193.728 111.315 193.702 111.351C193.677 111.388 193.654 111.428 193.633 111.472L193.246 111.492L193.331 109.423L195.326 109.322L195.346 109.722L193.704 109.805L193.643 111.023L193.683 111.021C193.732 110.937 193.794 110.866 193.869 110.808C193.944 110.749 194.029 110.703 194.123 110.67C194.22 110.636 194.322 110.615 194.429 110.61C194.654 110.599 194.857 110.641 195.036 110.736C195.215 110.83 195.359 110.965 195.467 111.14C195.575 111.314 195.635 111.517 195.647 111.749L195.647 111.754C195.66 111.994 195.616 112.21 195.518 112.4C195.421 112.59 195.282 112.741 195.1 112.855C194.918 112.969 194.706 113.032 194.462 113.044ZM199.361 112.797C199.036 112.813 198.752 112.751 198.507 112.611C198.263 112.47 198.069 112.264 197.926 111.99C197.784 111.717 197.703 111.388 197.684 111.004L197.684 110.999C197.664 110.613 197.711 110.277 197.825 109.991C197.94 109.704 198.111 109.479 198.339 109.315C198.568 109.15 198.845 109.06 199.169 109.044C199.421 109.031 199.652 109.069 199.862 109.158C200.074 109.245 200.252 109.373 200.395 109.542C200.537 109.709 200.632 109.906 200.678 110.133L200.676 110.138L200.227 110.161L200.224 110.156C200.176 110.004 200.103 109.875 200.003 109.769C199.902 109.661 199.783 109.58 199.644 109.525C199.507 109.471 199.355 109.448 199.19 109.456C198.961 109.468 198.766 109.537 198.603 109.665C198.441 109.793 198.321 109.968 198.241 110.191C198.161 110.414 198.128 110.676 198.143 110.976L198.144 110.981C198.159 111.279 198.217 111.535 198.319 111.749C198.421 111.963 198.559 112.125 198.732 112.236C198.907 112.347 199.11 112.396 199.34 112.385C199.507 112.376 199.657 112.342 199.791 112.282C199.924 112.221 200.034 112.138 200.122 112.034C200.209 111.928 200.268 111.806 200.297 111.666L200.302 111.661L200.754 111.638L200.755 111.643C200.726 111.864 200.649 112.059 200.525 112.228C200.401 112.395 200.239 112.529 200.04 112.628C199.842 112.728 199.616 112.784 199.361 112.797ZM201.555 112.602L201.374 109.017L202.743 108.948C202.973 108.937 203.176 108.971 203.351 109.052C203.527 109.131 203.667 109.248 203.769 109.402C203.872 109.556 203.928 109.741 203.939 109.956L203.94 109.961C203.952 110.21 203.899 110.428 203.781 110.617C203.663 110.805 203.493 110.941 203.271 111.023L204.176 112.47L203.651 112.496L202.812 111.116C202.809 111.116 202.805 111.117 202.8 111.117C202.795 111.117 202.791 111.117 202.788 111.118L201.931 111.161L202.002 112.579L201.555 112.602ZM201.911 110.763L202.792 110.719C203.023 110.707 203.197 110.639 203.315 110.516C203.435 110.39 203.489 110.218 203.478 109.999L203.478 109.994C203.467 109.781 203.393 109.617 203.256 109.503C203.12 109.388 202.935 109.337 202.703 109.349L201.841 109.392L201.911 110.763Z" fill="white"/>
<path d="M193.113 140.367L192.957 137.279L192.918 137.281L192.039 137.988L192.015 137.516L192.935 136.783L193.379 136.76L193.56 140.345L193.113 140.367ZM195.8 140.316C195.535 140.33 195.304 140.265 195.108 140.122C194.913 139.979 194.758 139.77 194.643 139.496C194.528 139.219 194.46 138.889 194.441 138.505L194.441 138.5C194.422 138.115 194.455 137.781 194.542 137.496C194.629 137.211 194.762 136.988 194.942 136.826C195.123 136.664 195.346 136.576 195.611 136.563C195.876 136.55 196.106 136.614 196.303 136.757C196.499 136.9 196.655 137.109 196.77 137.384C196.887 137.658 196.955 137.988 196.975 138.372L196.975 138.377C196.994 138.761 196.96 139.097 196.871 139.383C196.784 139.668 196.65 139.892 196.469 140.053C196.288 140.215 196.065 140.303 195.8 140.316ZM195.78 139.926C195.953 139.918 196.096 139.85 196.211 139.723C196.327 139.596 196.412 139.42 196.466 139.194C196.521 138.969 196.541 138.704 196.525 138.4L196.525 138.395C196.51 138.09 196.463 137.829 196.386 137.612C196.31 137.393 196.208 137.228 196.079 137.115C195.952 137 195.803 136.947 195.631 136.955C195.46 136.964 195.317 137.032 195.2 137.159C195.085 137.284 195.001 137.46 194.948 137.685C194.894 137.908 194.875 138.172 194.89 138.477L194.891 138.482C194.906 138.787 194.952 139.048 195.027 139.267C195.103 139.486 195.205 139.652 195.332 139.767C195.46 139.882 195.61 139.935 195.78 139.926ZM200.736 140.067C200.411 140.084 200.127 140.022 199.882 139.881C199.638 139.741 199.444 139.534 199.301 139.261C199.159 138.987 199.078 138.658 199.059 138.274L199.059 138.269C199.039 137.883 199.086 137.547 199.2 137.261C199.315 136.975 199.486 136.749 199.714 136.585C199.943 136.421 200.22 136.331 200.544 136.314C200.796 136.302 201.027 136.34 201.237 136.429C201.449 136.516 201.627 136.644 201.77 136.813C201.912 136.98 202.007 137.177 202.053 137.404L202.051 137.409L201.602 137.431L201.599 137.427C201.551 137.274 201.478 137.145 201.378 137.039C201.277 136.931 201.158 136.85 201.019 136.796C200.882 136.741 200.73 136.718 200.565 136.727C200.336 136.738 200.141 136.808 199.978 136.935C199.816 137.063 199.696 137.239 199.616 137.462C199.536 137.685 199.503 137.946 199.518 138.246L199.519 138.251C199.534 138.549 199.592 138.805 199.694 139.019C199.796 139.233 199.934 139.396 200.107 139.506C200.282 139.617 200.485 139.667 200.715 139.655C200.882 139.647 201.032 139.613 201.166 139.553C201.299 139.491 201.409 139.408 201.497 139.304C201.584 139.199 201.643 139.076 201.672 138.937L201.677 138.932L202.129 138.909L202.13 138.914C202.101 139.134 202.024 139.329 201.9 139.498C201.776 139.666 201.614 139.799 201.415 139.899C201.217 139.998 200.991 140.055 200.736 140.067ZM202.93 139.872L202.749 136.288L204.118 136.219C204.348 136.207 204.551 136.242 204.726 136.323C204.902 136.402 205.042 136.518 205.144 136.672C205.247 136.827 205.303 137.011 205.314 137.227L205.315 137.232C205.327 137.48 205.274 137.699 205.156 137.887C205.038 138.076 204.868 138.211 204.646 138.294L205.551 139.74L205.026 139.766L204.187 138.387C204.184 138.387 204.18 138.387 204.175 138.387C204.17 138.388 204.166 138.388 204.163 138.388L203.306 138.431L203.377 139.85L202.93 139.872ZM203.286 138.034L204.167 137.989C204.398 137.978 204.572 137.91 204.69 137.786C204.81 137.661 204.864 137.488 204.853 137.27L204.853 137.265C204.842 137.051 204.768 136.887 204.631 136.773C204.495 136.659 204.31 136.607 204.078 136.619L203.216 136.663L203.286 138.034Z" fill="white"/>
<path d="M205.605 167.162C205.384 167.173 205.183 167.139 205.005 167.06C204.827 166.981 204.681 166.869 204.567 166.724C204.455 166.576 204.385 166.408 204.358 166.219L204.354 166.191L204.783 166.17L204.787 166.189C204.808 166.303 204.854 166.405 204.927 166.496C205.001 166.585 205.095 166.655 205.209 166.704C205.324 166.753 205.451 166.774 205.59 166.767C205.749 166.759 205.888 166.717 206.005 166.641C206.122 166.564 206.212 166.461 206.273 166.334C206.335 166.206 206.362 166.062 206.354 165.901L206.353 165.896C206.345 165.737 206.304 165.598 206.228 165.479C206.154 165.359 206.055 165.266 205.932 165.203C205.81 165.139 205.671 165.111 205.515 165.119C205.396 165.125 205.286 165.149 205.187 165.191C205.09 165.232 205.004 165.291 204.93 165.368C204.9 165.399 204.872 165.433 204.845 165.469C204.82 165.505 204.798 165.546 204.777 165.59L204.389 165.609L204.474 163.541L206.469 163.44L206.489 163.84L204.847 163.923L204.786 165.141L204.826 165.139C204.875 165.055 204.937 164.984 205.012 164.925C205.087 164.867 205.172 164.821 205.267 164.788C205.363 164.753 205.465 164.733 205.572 164.728C205.798 164.717 206 164.759 206.179 164.854C206.358 164.948 206.502 165.083 206.61 165.258C206.719 165.432 206.779 165.635 206.79 165.867L206.791 165.872C206.803 166.112 206.76 166.327 206.661 166.518C206.565 166.707 206.425 166.859 206.243 166.973C206.062 167.086 205.849 167.149 205.605 167.162Z" fill="white"/>
<path d="M210.055 83.666L415.985 73.2826" stroke="white" stroke-width="0.294951" stroke-dasharray="1.47 1.47"/>
<path d="M211.41 110.52L417.34 100.137" stroke="white" stroke-width="0.294951" stroke-dasharray="1.47 1.47"/>
<path d="M212.766 137.374L418.695 126.991" stroke="white" stroke-width="0.294951" stroke-dasharray="1.47 1.47"/>
<path d="M214.117 164.228L420.047 153.845" stroke="white" stroke-width="0.294951" stroke-dasharray="1.47 1.47"/>
<g clip-path="url(#clip2_787_7990)">
<path d="M303.508 104.682L320.465 103.827L319.915 92.9027C319.82 91.0296 318.225 89.5877 316.352 89.6822L306.178 90.1952C304.304 90.2897 302.863 91.8847 302.957 93.7578L303.508 104.682Z" fill="#16A34A"/>
<rect width="16.9792" height="16.8204" transform="matrix(0.998731 -0.0503579 -0.0503579 -0.998731 304.355 121.481)" fill="#DC2626"/>
<rect x="304.355" y="121.481" width="16.9792" height="46.0753" transform="rotate(-2.88652 304.355 121.481)" fill="#155DFC"/>
<rect x="306.676" y="167.498" width="16.9792" height="13.1846" transform="rotate(-2.88652 306.676 167.498)" fill="#D97706"/>
</g>
<g clip-path="url(#clip3_787_7990)">
<path d="M390.113 136.442L407.071 135.587L406.52 124.662C406.426 122.789 404.831 121.348 402.958 121.442L392.783 121.955C390.91 122.049 389.468 123.644 389.562 125.518L390.113 136.442Z" fill="#16A34A"/>
<rect width="16.9792" height="16.8204" transform="matrix(0.998731 -0.0503579 -0.0503579 -0.998731 390.961 153.241)" fill="#DC2626"/>
<rect x="390.961" y="153.241" width="16.9792" height="9.9944" transform="rotate(-2.88652 390.961 153.241)" fill="#155DFC"/>
<rect x="391.461" y="163.223" width="16.9792" height="13.1846" transform="rotate(-2.88652 391.461 163.223)" fill="#D97706"/>
</g>
<g clip-path="url(#clip4_787_7990)">
<path d="M222.227 127.907L239.184 127.052L238.633 116.127C238.539 114.254 236.944 112.812 235.071 112.907L224.896 113.42C223.023 113.514 221.581 115.109 221.676 116.982L222.227 127.907Z" fill="#16A34A"/>
<path d="M223.074 144.706L240.032 143.851L239.185 127.051L222.227 127.907L223.074 144.706Z" fill="#DC2626"/>
<rect width="16.9792" height="16.8204" transform="matrix(0.998731 -0.0503579 -0.0503579 -0.998731 223.918 161.505)" fill="#155DFC"/>
<rect x="223.918" y="161.505" width="16.9792" height="23.3379" transform="rotate(-2.88652 223.918 161.505)" fill="#D97706"/>
</g>
</g>
<rect x="178.559" y="44.7755" width="244.289" height="163.3" rx="10.9447" transform="rotate(-2.88652 178.559 44.7755)" stroke="black" stroke-opacity="0.1" stroke-width="0.42448"/>
<g filter="url(#filter1_d_787_7990)">
<g clip-path="url(#clip5_787_7990)">
<rect x="80.1758" y="61.2866" width="113.801" height="121.053" rx="11.157" transform="rotate(5.57276 80.1758 61.2866)" fill="#444444"/>
<path d="M132.11 96.6279C127.817 96.2024 123.483 96.4978 119.288 97.5018L122.901 112.601C125.413 112 128.008 111.823 130.579 112.078L132.11 96.6279Z" fill="#16A34A"/>
<path d="M119.293 97.5005C110.354 99.6384 102.467 104.889 97.0454 112.311L109.583 121.469C112.829 117.024 117.552 113.881 122.904 112.6L119.293 97.5005Z" fill="#39D373"/>
<path d="M97.1579 112.158C94.1816 116.191 92.0173 120.764 90.7852 125.623L105.835 129.439C106.572 126.53 107.868 123.792 109.65 121.377L97.1579 112.158Z" fill="#D97706"/>
<path d="M91.0823 124.52C89.6589 129.51 89.2536 134.736 89.8908 139.886C90.5279 145.035 92.1943 150.005 94.791 154.497C97.3876 158.99 100.861 162.915 105.006 166.038C109.15 169.161 113.88 171.418 118.914 172.676L122.678 157.613C119.663 156.86 116.831 155.508 114.349 153.639C111.868 151.769 109.788 149.419 108.233 146.728C106.678 144.038 105.681 141.063 105.299 137.979C104.918 134.896 105.16 131.767 106.013 128.779L91.0823 124.52Z" fill="#155DFC"/>
<path d="M115.855 171.776C121.942 173.843 128.448 174.36 134.786 173.281C141.123 172.203 147.092 169.562 152.153 165.598L142.58 153.375C139.55 155.749 135.976 157.33 132.181 157.976C128.386 158.622 124.49 158.312 120.845 157.074L115.855 171.776Z" fill="#155DFC"/>
<path d="M166.389 128.351C164.91 120.044 160.757 112.448 154.561 106.721C148.365 100.993 140.467 97.4475 132.07 96.624L130.555 112.076C135.583 112.569 140.312 114.692 144.022 118.121C147.731 121.551 150.218 126.099 151.104 131.073L166.389 128.351Z" fill="#16A34A"/>
<path d="M152.152 165.6C157.707 161.249 161.967 155.462 164.471 148.864C166.975 142.267 167.627 135.11 166.357 128.169L151.084 130.964C151.845 135.12 151.455 139.405 149.955 143.355C148.456 147.306 145.905 150.771 142.579 153.376L152.152 165.6Z" fill="#16A34A"/>
<path d="M122.22 137.24L122.309 136.331L125.033 134.043C126.158 133.108 126.483 132.754 126.54 132.174L126.541 132.159C126.609 131.464 126.182 130.915 125.398 130.839C124.599 130.761 124.009 131.236 123.933 132.015L123.926 132.035L122.672 131.908L122.668 131.892C122.806 130.486 123.999 129.61 125.572 129.764C127.041 129.907 128.009 130.904 127.885 132.174L127.884 132.189C127.8 133.047 127.321 133.686 125.817 134.874L124.164 136.19L124.153 136.3L127.566 136.632L127.457 137.751L122.22 137.24ZM131.698 138.355C129.905 138.18 128.977 136.554 129.215 134.118L129.216 134.108C129.454 131.673 130.678 130.262 132.471 130.437C134.263 130.612 135.202 132.233 134.965 134.669L134.964 134.679C134.726 137.115 133.491 138.53 131.698 138.355ZM131.805 137.262C132.766 137.356 133.431 136.334 133.605 134.547L133.606 134.536C133.78 132.749 133.325 131.628 132.364 131.534C131.402 131.441 130.749 132.453 130.575 134.241L130.574 134.251C130.399 136.038 130.843 137.169 131.805 137.262Z" fill="white"/>
<path d="M122.366 147.093L122.684 143.826L121.498 143.711L121.547 143.206L124.503 143.495L124.453 143.999L123.27 143.884L122.951 147.15L122.366 147.093ZM125.473 147.451C124.639 147.37 124.184 146.764 124.273 145.849L124.273 145.844C124.362 144.932 124.929 144.423 125.76 144.504C126.589 144.585 127.046 145.191 126.957 146.106L126.957 146.111C126.867 147.026 126.304 147.533 125.473 147.451ZM125.519 146.978C126.005 147.026 126.318 146.682 126.379 146.055L126.38 146.049C126.441 145.42 126.2 145.024 125.714 144.977C125.225 144.929 124.915 145.271 124.854 145.901L124.853 145.906C124.792 146.536 125.03 146.931 125.519 146.978ZM128.565 147.716C127.94 147.655 127.706 147.411 127.759 146.865L127.919 145.221L127.475 145.178L127.519 144.731L127.963 144.774L128.033 144.058L128.61 144.115L128.54 144.83L129.149 144.89L129.106 145.337L128.497 145.277L128.35 146.785C128.32 147.091 128.423 147.227 128.702 147.255C128.788 147.263 128.838 147.265 128.917 147.265L128.873 147.717C128.78 147.724 128.675 147.727 128.565 147.716ZM130.308 147.915C129.767 147.862 129.399 147.494 129.449 146.979L129.45 146.974C129.499 146.467 129.91 146.209 130.59 146.233L131.363 146.264L131.387 146.013C131.418 145.702 131.239 145.511 130.855 145.473C130.541 145.442 130.323 145.537 130.236 145.732L130.232 145.742L129.686 145.689L129.69 145.671C129.804 145.212 130.281 144.945 130.926 145.008C131.64 145.077 132.007 145.472 131.949 146.068L131.76 148.009L131.198 147.955L131.237 147.552L131.193 147.548C130.998 147.819 130.684 147.952 130.308 147.915ZM130.016 147.011C129.99 147.272 130.198 147.448 130.503 147.478C130.927 147.519 131.265 147.273 131.3 146.907L131.324 146.664L130.627 146.641C130.233 146.626 130.041 146.75 130.016 147.006L130.016 147.011ZM132.586 148.09L132.971 144.139L133.538 144.194L133.153 148.145L132.586 148.09Z" fill="white"/>
</g>
<rect x="80.3021" y="61.4403" width="113.52" height="120.772" rx="11.0163" transform="rotate(5.57276 80.3021 61.4403)" stroke="black" stroke-opacity="0.1" stroke-width="0.281366"/>
</g>
<path d="M192.063 63.2344C191.782 63.2503 191.511 63.2317 191.25 63.1787C190.989 63.1231 190.748 63.0337 190.527 62.9107C190.309 62.7848 190.125 62.6244 189.976 62.4295C189.826 62.232 189.728 61.9976 189.682 61.7265L190.664 61.6709C190.716 61.8583 190.807 62.0135 190.937 62.1365C191.069 62.2594 191.232 62.3493 191.425 62.4061C191.619 62.4629 191.833 62.4847 192.067 62.4715C192.275 62.4597 192.466 62.4175 192.642 62.345C192.818 62.2725 192.958 62.172 193.063 62.0435C193.168 61.9124 193.215 61.7559 193.205 61.5739C193.193 61.3686 193.111 61.2129 192.959 61.1068C192.81 60.9979 192.599 60.9172 192.328 60.8648L191.21 60.6661C190.92 60.6173 190.665 60.5366 190.445 60.4239C190.227 60.311 190.054 60.1566 189.926 59.9605C189.797 59.7617 189.725 59.5142 189.708 59.2179C189.689 58.8801 189.764 58.5824 189.935 58.3251C190.108 58.0675 190.351 57.8635 190.663 57.7128C190.975 57.5595 191.331 57.4716 191.731 57.4489C192.189 57.423 192.579 57.4778 192.902 57.6134C193.225 57.7463 193.476 57.9355 193.654 58.1809C193.832 58.4264 193.931 58.7011 193.951 59.005L192.992 59.0593C192.958 58.8344 192.882 58.6601 192.763 58.5365C192.644 58.4103 192.497 58.3221 192.322 58.272C192.147 58.222 191.955 58.2028 191.747 58.2146C191.378 58.2355 191.109 58.3303 190.938 58.499C190.768 58.6677 190.689 58.8586 190.701 59.0718C190.712 59.2719 190.787 59.4267 190.927 59.5361C191.066 59.6456 191.274 59.7251 191.55 59.7746L192.613 59.9608C192.968 60.0137 193.256 60.1095 193.478 60.2482C193.7 60.3869 193.864 60.5575 193.972 60.76C194.083 60.9597 194.145 61.1843 194.159 61.4339C194.178 61.7613 194.1 62.0564 193.928 62.3192C193.757 62.5817 193.512 62.7938 193.193 62.9553C192.874 63.1167 192.497 63.2098 192.063 63.2344ZM196.338 62.9923C196.081 63.0069 195.847 62.9732 195.636 62.8912C195.428 62.8065 195.26 62.6791 195.133 62.509C195.009 62.3362 194.939 62.1224 194.925 61.8677C194.9 61.4232 195.041 61.0789 195.347 60.8346C195.657 60.5903 196.162 60.443 196.863 60.3929L197.467 60.3431L197.451 60.0701C197.439 59.857 197.366 59.6943 197.232 59.5819C197.1 59.4668 196.902 59.4181 196.637 59.4357C196.44 59.4495 196.263 59.5064 196.107 59.6065C195.951 59.704 195.853 59.8595 195.813 60.073L195.006 60.1187C195.006 59.8423 195.072 59.6078 195.204 59.4151C195.339 59.2198 195.53 59.0695 195.777 58.9642C196.024 58.8564 196.313 58.7931 196.643 58.7744C197.027 58.7526 197.343 58.7856 197.591 58.8732C197.838 58.9609 198.025 59.0977 198.15 59.2836C198.275 59.4668 198.345 59.6936 198.361 59.9639L198.521 62.7905L197.721 62.8357L197.602 62.115C197.477 62.4272 197.305 62.6481 197.088 62.7777C196.874 62.9046 196.624 62.9761 196.338 62.9923ZM196.609 62.3316C196.726 62.3249 196.841 62.2976 196.953 62.2495C197.065 62.1989 197.164 62.1346 197.251 62.0567C197.34 61.976 197.41 61.8886 197.459 61.7946C197.511 61.7003 197.536 61.6038 197.533 61.5049L197.497 60.8694L197.002 60.9052C196.758 60.9217 196.545 60.9598 196.363 61.0196C196.184 61.0793 196.047 61.1666 195.952 61.2815C195.856 61.3938 195.814 61.5396 195.824 61.719C195.835 61.9243 195.916 62.0814 196.066 62.1903C196.215 62.2965 196.396 62.3436 196.609 62.3316ZM200.696 62.7259C200.436 62.7407 200.226 62.7199 200.067 62.6638C199.907 62.6077 199.785 62.5272 199.701 62.4225C199.617 62.3177 199.559 62.1984 199.528 62.0646C199.497 61.9282 199.477 61.7885 199.469 61.6455L199.203 56.9398L200.131 56.8872L200.391 61.4838C200.401 61.658 200.444 61.7911 200.519 61.8833C200.598 61.9754 200.718 62.0246 200.88 62.0311L201.083 62.0274L201.117 62.6239C201.048 62.6487 200.977 62.6709 200.905 62.6906C200.833 62.7103 200.764 62.7221 200.696 62.7259ZM203.579 62.5823C203.191 62.6042 202.845 62.5417 202.539 62.3947C202.236 62.245 201.993 62.0215 201.809 61.7242C201.628 61.4268 201.525 61.0663 201.501 60.6426C201.478 60.2293 201.531 59.8587 201.661 59.5306C201.794 59.1998 201.997 58.9341 202.269 58.7335C202.545 58.5327 202.884 58.421 203.287 58.3982C203.685 58.3756 204.023 58.4412 204.303 58.5948C204.583 58.7485 204.802 58.9734 204.959 59.2695C205.117 59.5631 205.207 59.9126 205.23 60.318L205.246 60.6065L202.459 60.7644C202.469 60.9933 202.517 61.1939 202.602 61.3664C202.688 61.5389 202.807 61.6716 202.961 61.7646C203.115 61.855 203.301 61.894 203.519 61.8816C203.743 61.869 203.934 61.8086 204.092 61.7006C204.253 61.5898 204.354 61.4302 204.397 61.2218L205.263 61.1727C205.232 61.4561 205.134 61.7002 204.968 61.9052C204.805 62.11 204.6 62.2702 204.354 62.3858C204.11 62.5013 203.852 62.5668 203.579 62.5823ZM202.422 60.1759L204.316 60.0686C204.305 59.8737 204.26 59.7002 204.181 59.5483C204.105 59.3935 203.995 59.2746 203.852 59.1914C203.709 59.1057 203.532 59.0687 203.322 59.0807C203.114 59.0924 202.941 59.153 202.804 59.2625C202.667 59.372 202.566 59.5093 202.503 59.6746C202.439 59.8373 202.412 60.0044 202.422 60.1759ZM207.788 62.3439C207.507 62.3598 207.238 62.3307 206.981 62.2566C206.726 62.1798 206.508 62.0501 206.325 61.8674C206.146 61.6847 206.025 61.4425 205.963 61.1409L206.798 61.0936C206.843 61.2397 206.913 61.357 207.009 61.4454C207.108 61.5337 207.221 61.5964 207.349 61.6335C207.478 61.6679 207.611 61.6812 207.746 61.6736C207.988 61.6599 208.18 61.6073 208.324 61.5157C208.467 61.4241 208.534 61.2913 208.524 61.1171C208.517 60.9898 208.469 60.8908 208.382 60.8201C208.297 60.7493 208.161 60.6996 207.975 60.6711L207.201 60.5389C206.853 60.483 206.572 60.3737 206.357 60.2112C206.142 60.0487 206.024 59.809 206.003 59.492C205.987 59.2531 206.035 59.0365 206.146 58.8425C206.258 58.6484 206.431 58.4913 206.667 58.371C206.903 58.2482 207.197 58.1767 207.551 58.1567C208.021 58.1301 208.404 58.214 208.699 58.4085C208.997 58.6002 209.161 58.8895 209.19 59.2764L208.383 59.322C208.345 59.1495 208.255 59.019 208.115 58.9305C207.974 58.8394 207.796 58.7999 207.58 58.8121C207.356 58.8248 207.176 58.8781 207.038 58.9719C206.899 59.0658 206.835 59.2011 206.845 59.3778C206.852 59.5 206.911 59.5932 207.022 59.6573C207.135 59.7213 207.303 59.7717 207.527 59.8086L208.262 59.943C208.473 59.9832 208.647 60.0437 208.785 60.1246C208.922 60.2054 209.03 60.2971 209.109 60.3995C209.19 60.4992 209.248 60.6042 209.283 60.7143C209.321 60.8217 209.342 60.9222 209.347 61.0158C209.362 61.2757 209.307 61.5017 209.182 61.6939C209.06 61.8834 208.88 62.0344 208.641 62.147C208.405 62.2594 208.12 62.3251 207.788 62.3439ZM213.677 61.9635C213.357 61.9816 213.106 61.9541 212.925 61.8809C212.746 61.805 212.618 61.691 212.542 61.5389C212.466 61.3868 212.421 61.2028 212.409 60.9871L212.276 58.6401L211.621 58.6772L211.583 58.0066L212.265 57.968L212.435 56.7576L213.118 56.719L213.185 57.912L214.086 57.861L214.124 58.5354L213.223 58.5864L213.358 60.8981C213.365 61.0177 213.383 61.1053 213.412 61.1611C213.444 61.214 213.49 61.2479 213.551 61.2627C213.614 61.2748 213.697 61.2779 213.798 61.2722L214.297 61.2439L214.331 61.8443C214.278 61.8682 214.198 61.891 214.092 61.9126C213.989 61.9367 213.851 61.9537 213.677 61.9635ZM215.21 61.8454L214.881 56.052L215.817 55.999L215.95 58.346C216.009 58.241 216.09 58.1386 216.191 58.039C216.292 57.9368 216.417 57.8515 216.567 57.783C216.72 57.7118 216.904 57.6701 217.12 57.6579C217.377 57.6433 217.615 57.6794 217.834 57.7661C218.052 57.8528 218.231 57.9861 218.369 58.166C218.507 58.3433 218.583 58.5607 218.597 58.818L218.757 61.6445L217.806 61.6984L217.655 59.0317C217.643 58.8238 217.56 58.6668 217.405 58.5608C217.253 58.4547 217.066 58.408 216.842 58.4206C216.694 58.429 216.554 58.463 216.422 58.5227C216.289 58.5823 216.185 58.6665 216.107 58.7751C216.032 58.8811 215.999 59.0107 216.008 59.1641L216.157 61.7918L215.21 61.8454ZM219.786 61.5863L219.558 57.555L220.466 57.5036L220.695 61.5348L219.786 61.5863ZM219.502 56.8502L219.452 55.9535L220.391 55.9003L220.442 56.797L219.502 56.8502ZM223.329 61.4639C223.049 61.4798 222.78 61.4507 222.523 61.3766C222.268 61.2997 222.049 61.17 221.867 60.9874C221.687 60.8046 221.566 60.5624 221.505 60.2608L222.339 60.2136C222.384 60.3597 222.455 60.4769 222.551 60.5653C222.65 60.6536 222.763 60.7163 222.89 60.7534C223.02 60.7878 223.152 60.8012 223.287 60.7935C223.529 60.7798 223.722 60.7272 223.865 60.6356C224.009 60.5441 224.075 60.4112 224.065 60.2371C224.058 60.1097 224.011 60.0107 223.924 59.9401C223.839 59.8692 223.703 59.8196 223.516 59.791L222.742 59.6589C222.395 59.6029 222.113 59.4937 221.898 59.3312C221.683 59.1686 221.565 58.9289 221.545 58.612C221.528 58.373 221.576 58.1565 221.688 57.9624C221.799 57.7684 221.973 57.6112 222.209 57.491C222.444 57.3681 222.739 57.2967 223.092 57.2767C223.563 57.25 223.945 57.334 224.241 57.5284C224.538 57.7202 224.702 58.0095 224.732 58.3963L223.925 58.442C223.886 58.2695 223.797 58.139 223.656 58.0504C223.515 57.9593 223.337 57.9199 223.121 57.9321C222.898 57.9447 222.717 57.998 222.579 58.0919C222.441 58.1857 222.377 58.321 222.387 58.4978C222.394 58.6199 222.453 58.7131 222.563 58.7772C222.676 58.8412 222.845 58.8917 223.068 58.9285L223.803 59.0629C224.014 59.1031 224.189 59.1637 224.326 59.2445C224.464 59.3254 224.572 59.417 224.651 59.5195C224.732 59.6192 224.79 59.7241 224.825 59.8343C224.862 59.9416 224.884 60.0421 224.889 60.1357C224.904 60.3956 224.849 60.6217 224.724 60.8139C224.602 61.0033 224.421 61.1543 224.182 61.2669C223.946 61.3794 223.662 61.445 223.329 61.4639ZM227.599 61.1439L227.37 57.1126L228.294 57.0603L228.327 57.6373C228.434 57.454 228.584 57.2916 228.777 57.1503C228.972 57.0089 229.226 56.9294 229.537 56.9117C229.68 56.9036 229.826 56.9201 229.974 56.9613C230.125 57.0023 230.266 57.0673 230.396 57.1564C230.529 57.2454 230.637 57.3592 230.721 57.4979C230.837 57.3009 230.997 57.1354 231.201 57.0013C231.407 56.8671 231.643 56.7925 231.908 56.7775C232.053 56.7692 232.204 56.7842 232.36 56.8223C232.519 56.8602 232.666 56.9301 232.802 57.0319C232.938 57.1337 233.052 57.2772 233.143 57.4624C233.235 57.6449 233.288 57.8779 233.304 58.1612L233.454 60.8123L232.507 60.8659L232.363 58.3279C232.352 58.1278 232.308 57.9725 232.231 57.8621C232.155 57.7517 232.059 57.6763 231.945 57.6358C231.833 57.5926 231.714 57.5746 231.59 57.5816C231.478 57.588 231.362 57.6167 231.242 57.6678C231.125 57.7187 231.027 57.7973 230.947 57.9036C230.869 58.0096 230.836 58.1484 230.845 58.32L230.994 60.9516L230.047 61.0052L229.895 58.3151C229.887 58.1748 229.844 58.0599 229.766 57.9704C229.687 57.881 229.591 57.816 229.477 57.7756C229.365 57.7324 229.252 57.714 229.137 57.7205C229.02 57.7271 228.902 57.7586 228.783 57.8149C228.666 57.871 228.57 57.9521 228.495 58.058C228.421 58.1639 228.388 58.2975 228.397 58.4586L228.546 61.0902L227.599 61.1439ZM236.171 60.7367C235.786 60.7585 235.446 60.6956 235.151 60.548C234.856 60.3979 234.62 60.1726 234.444 59.8723C234.271 59.5719 234.172 59.2046 234.147 58.7705C234.123 58.3495 234.179 57.9761 234.314 57.6503C234.45 57.3245 234.654 57.0652 234.927 56.8724C235.203 56.6795 235.54 56.5718 235.938 56.5493C236.322 56.5275 236.661 56.593 236.954 56.7459C237.247 56.8988 237.479 57.1282 237.65 57.434C237.824 57.7397 237.923 58.1134 237.948 58.5553C237.971 58.9634 237.918 59.3275 237.787 59.6478C237.659 59.9653 237.459 60.2205 237.185 60.4133C236.915 60.6059 236.576 60.7137 236.171 60.7367ZM236.134 60.0152C236.352 60.0028 236.528 59.9329 236.662 59.8054C236.798 59.6777 236.895 59.508 236.954 59.2961C237.012 59.0842 237.034 58.8457 237.019 58.5805C237.005 58.3336 236.961 58.108 236.887 57.9036C236.813 57.6992 236.7 57.5386 236.55 57.422C236.403 57.3026 236.212 57.2495 235.978 57.2627C235.757 57.2752 235.577 57.3441 235.438 57.4693C235.302 57.5918 235.205 57.7589 235.146 57.9708C235.088 58.1801 235.066 58.42 235.081 58.6903C235.095 58.9346 235.139 59.1602 235.213 59.3672C235.288 59.5716 235.4 59.7348 235.55 59.8566C235.7 59.9759 235.895 60.0287 236.134 60.0152ZM238.929 60.5023L238.701 56.471L239.629 56.4185L239.661 56.9955C239.718 56.888 239.797 56.7831 239.898 56.6809C240.002 56.5786 240.131 56.493 240.286 56.4243C240.441 56.3555 240.625 56.3151 240.839 56.303C241.088 56.2889 241.322 56.3252 241.541 56.4119C241.762 56.4984 241.944 56.6433 242.086 56.8465C242.23 57.0495 242.312 57.3174 242.331 57.65L242.481 60.3012L241.53 60.355L241.386 57.817C241.371 57.5519 241.287 57.3598 241.134 57.2406C240.981 57.1189 240.794 57.0643 240.573 57.0768C240.423 57.0854 240.281 57.1195 240.149 57.1791C240.017 57.2361 239.91 57.3191 239.831 57.4279C239.753 57.534 239.719 57.6637 239.727 57.817L239.877 60.4486L238.929 60.5023ZM244.958 60.1922C244.638 60.2103 244.387 60.1828 244.206 60.1096C244.027 60.0337 243.899 59.9197 243.823 59.7676C243.746 59.6154 243.702 59.4315 243.69 59.2158L243.557 56.8688L242.902 56.9059L242.864 56.2353L243.546 56.1966L243.716 54.9863L244.399 54.9476L244.466 56.1406L245.367 56.0896L245.405 56.7641L244.504 56.8151L244.639 59.1268C244.646 59.2464 244.664 59.334 244.693 59.3897C244.725 59.4427 244.771 59.4766 244.832 59.4914C244.895 59.5034 244.978 59.5066 245.079 59.5009L245.578 59.4726L245.612 60.073C245.559 60.0969 245.479 60.1197 245.373 60.1413C245.27 60.1654 245.132 60.1823 244.958 60.1922ZM246.49 60.0741L246.162 54.2806L247.098 54.2277L247.231 56.5747C247.29 56.4696 247.37 56.3673 247.472 56.2677C247.573 56.1655 247.698 56.0802 247.848 56.0117C248.001 55.9405 248.185 55.8988 248.401 55.8866C248.658 55.872 248.896 55.9081 249.115 55.9948C249.333 56.0815 249.512 56.2148 249.65 56.3947C249.787 56.572 249.864 56.7893 249.878 57.0467L250.038 59.8732L249.087 59.9271L248.936 57.2604C248.924 57.0524 248.841 56.8955 248.686 56.7895C248.534 56.6834 248.347 56.6367 248.123 56.6493C247.975 56.6577 247.835 56.6917 247.703 56.7514C247.57 56.811 247.466 56.8952 247.388 57.0038C247.313 57.1098 247.28 57.2394 247.289 57.3927L247.438 60.0205L246.49 60.0741Z" fill="white"/>
<path d="M89.7248 80.6009L90.2311 74.9771L92.2263 75.1568C92.6308 75.1932 92.9862 75.2957 93.2925 75.4645C93.6016 75.6308 93.8361 75.8571 93.9959 76.1433C94.1557 76.4296 94.2179 76.7697 94.1824 77.1638C94.149 77.5346 94.0362 77.8447 93.8438 78.0939C93.6541 78.3435 93.4038 78.5248 93.093 78.638C92.7823 78.7512 92.4272 78.7898 92.0279 78.7538L90.8689 78.6495L90.6855 80.6874L89.7248 80.6009ZM90.9294 77.8904L92.0729 77.9933C92.4022 78.023 92.6794 77.9486 92.9046 77.7702C93.1323 77.5921 93.2604 77.3448 93.2889 77.0285C93.3178 76.707 93.2314 76.4483 93.0294 76.2524C92.8277 76.0539 92.5623 75.9398 92.233 75.9101L91.1168 75.8097L90.9294 77.8904ZM96.9867 81.3331C96.4681 81.2864 96.0298 81.132 95.6718 80.8697C95.3164 80.6077 95.0543 80.2522 94.8857 79.8031C94.7196 79.3542 94.6636 78.829 94.7178 78.2275C94.7724 77.6208 94.9229 77.1103 95.1693 76.6959C95.4157 76.2816 95.7386 75.9761 96.1379 75.7794C96.5398 75.583 96.9962 75.5078 97.507 75.5537C98.0177 75.5997 98.4494 75.7549 98.802 76.0193C99.1572 76.2839 99.4177 76.6419 99.5836 77.0933C99.7494 77.5448 99.805 78.0739 99.7504 78.6806C99.6963 79.2821 99.5487 79.789 99.3077 80.2012C99.0669 80.6108 98.7482 80.9141 98.3515 81.111C97.955 81.3053 97.5 81.3793 96.9867 81.3331ZM97.0581 80.5397C97.364 80.5673 97.6336 80.5197 97.8669 80.3969C98.1003 80.2715 98.289 80.0624 98.433 79.7696C98.5798 79.4744 98.6751 79.0843 98.7187 78.5995C98.7631 78.1068 98.7396 77.6996 98.6484 77.3777C98.5573 77.0532 98.4083 76.8072 98.2012 76.6396C97.9941 76.4719 97.7389 76.3745 97.4355 76.3471C97.1296 76.3196 96.8583 76.371 96.6218 76.5013C96.3881 76.6292 96.1962 76.8446 96.0461 77.1474C95.8963 77.4475 95.7993 77.8426 95.7551 78.3327C95.7115 78.8175 95.7368 79.2184 95.8311 79.5353C95.9257 79.8497 96.0766 80.0893 96.2839 80.2544C96.4941 80.4171 96.7521 80.5122 97.0581 80.5397ZM102.388 81.7409L102.894 76.1171C102.917 76.1192 102.986 76.1254 103.1 76.1357C103.214 76.146 103.349 76.1581 103.504 76.1721C103.663 76.1863 103.822 76.202 103.983 76.2191C104.146 76.2338 104.287 76.2478 104.406 76.2611C105.089 76.3357 105.635 76.5037 106.043 76.7652C106.453 77.0244 106.74 77.3678 106.903 77.7954C107.068 78.2207 107.125 78.7211 107.073 79.2967C107.019 79.8982 106.865 80.4006 106.612 80.8039C106.362 81.2074 106.006 81.5021 105.545 81.688C105.086 81.8715 104.519 81.9328 103.842 81.8719L102.388 81.7409ZM103.419 81.0457L103.928 81.0915C104.314 81.1263 104.661 81.0909 104.969 80.9853C105.277 80.8771 105.527 80.68 105.72 80.3942C105.916 80.1086 106.036 79.7143 106.081 79.2113C106.125 78.7239 106.082 78.3267 105.953 78.0197C105.824 77.7127 105.62 77.4813 105.341 77.3255C105.063 77.1671 104.721 77.0697 104.317 77.0333L103.784 76.9853L103.419 81.0457ZM107.766 82.2252L108.128 78.2037L109.035 78.2853L108.673 82.3068L107.766 82.2252ZM108.176 77.4984L108.257 76.6039L109.194 76.6882L109.114 77.5828L108.176 77.4984ZM111.289 82.6207C111.009 82.5955 110.748 82.5275 110.504 82.4167C110.263 82.3036 110.066 82.1434 109.912 81.9361C109.761 81.729 109.677 81.4719 109.66 81.1645L110.492 81.2395C110.515 81.3905 110.568 81.5168 110.65 81.6183C110.735 81.7201 110.838 81.7986 110.958 81.8539C111.082 81.9068 111.211 81.9393 111.346 81.9514C111.587 81.9732 111.785 81.9492 111.94 81.8795C112.096 81.8098 112.181 81.6882 112.197 81.5144C112.208 81.3874 112.176 81.2825 112.099 81.1999C112.026 81.1174 111.899 81.0485 111.718 80.993L110.972 80.7494C110.636 80.6434 110.374 80.4943 110.185 80.3022C109.995 80.11 109.914 79.8556 109.94 79.5391C109.959 79.3003 110.037 79.0931 110.176 78.9174C110.315 78.7416 110.509 78.6115 110.76 78.5269C111.011 78.4397 111.313 78.412 111.665 78.4437C112.135 78.486 112.501 78.6248 112.765 78.8603C113.031 79.0934 113.151 79.4035 113.124 79.7905L112.319 79.718C112.306 79.5417 112.237 79.3995 112.111 79.2915C111.985 79.1808 111.814 79.1158 111.599 79.0964C111.376 79.0763 111.189 79.1027 111.039 79.1754C110.889 79.2481 110.805 79.3726 110.79 79.5489C110.779 79.6708 110.823 79.7715 110.923 79.8511C111.026 79.9309 111.185 80.0054 111.401 80.0745L112.109 80.3146C112.311 80.3851 112.475 80.4704 112.599 80.5705C112.723 80.6706 112.817 80.777 112.88 80.8898C112.946 81.0003 112.988 81.1126 113.007 81.2267C113.028 81.3384 113.034 81.4409 113.026 81.5342C113.003 81.7935 112.915 82.0091 112.764 82.1811C112.615 82.3507 112.415 82.4737 112.162 82.5503C111.912 82.6272 111.621 82.6506 111.289 82.6207ZM115.348 82.9391C115.029 82.9104 114.785 82.8466 114.616 82.7477C114.45 82.6465 114.34 82.5151 114.287 82.3535C114.234 82.1918 114.217 82.0034 114.236 81.7882L114.447 79.4469L113.793 79.3881L113.854 78.7191L114.534 78.7804L114.879 77.6078L115.56 77.6691L115.452 78.8592L116.351 78.94L116.29 79.6129L115.392 79.532L115.188 81.8386C115.177 81.9579 115.182 82.0472 115.203 82.1066C115.227 82.1636 115.268 82.2039 115.326 82.2274C115.386 82.2486 115.467 82.2637 115.569 82.2728L116.066 82.3176L116.012 82.9166C115.956 82.9324 115.874 82.9433 115.766 82.9493C115.661 82.9581 115.522 82.9547 115.348 82.9391ZM116.881 83.0458L117.243 79.0243L118.15 79.1059L118.071 79.9771C118.154 79.7833 118.261 79.6217 118.393 79.4924C118.528 79.3608 118.68 79.2648 118.85 79.2043C119.021 79.1438 119.202 79.1222 119.393 79.1394C119.44 79.1437 119.485 79.1503 119.529 79.1595C119.572 79.1686 119.604 79.1806 119.624 79.1955L119.542 80.1016C119.515 80.0861 119.478 80.0737 119.432 80.0643C119.388 80.0551 119.349 80.049 119.316 80.046C119.123 80.0129 118.95 80.0052 118.796 80.0228C118.646 80.0406 118.515 80.0824 118.405 80.1482C118.297 80.2117 118.212 80.2982 118.15 80.4076C118.088 80.5144 118.05 80.643 118.037 80.7934L117.826 83.1308L116.881 83.0458ZM120.027 83.3289L120.389 79.3075L121.295 79.389L120.933 83.4105L120.027 83.3289ZM120.436 78.6021L120.517 77.7076L121.454 77.792L121.374 78.6865L120.436 78.6021ZM124.171 83.7804C123.956 83.761 123.774 83.716 123.626 83.6451C123.478 83.5743 123.357 83.4889 123.261 83.3888C123.168 83.2889 123.095 83.1844 123.042 83.075C122.992 82.9634 122.956 82.8582 122.934 82.7594L122.751 83.5741L122.054 83.5115L122.575 77.7321L123.524 77.8175L123.313 80.1627C123.361 80.0887 123.425 80.016 123.505 79.9448C123.587 79.8738 123.684 79.8106 123.796 79.7554C123.908 79.7001 124.034 79.6591 124.172 79.6324C124.313 79.6033 124.467 79.5962 124.632 79.6111C125.133 79.6562 125.512 79.8694 125.771 80.2507C126.029 80.6321 126.128 81.1572 126.068 81.8262C126.03 82.2488 125.932 82.6124 125.774 82.9171C125.618 83.222 125.406 83.4511 125.136 83.6046C124.868 83.7557 124.547 83.8143 124.171 83.7804ZM124.039 83.0667C124.322 83.0922 124.564 83.0003 124.766 82.7911C124.968 82.5818 125.091 82.2244 125.137 81.7188C125.176 81.278 125.121 80.9371 124.97 80.6962C124.819 80.4526 124.589 80.3168 124.277 80.2888C124.054 80.2687 123.867 80.3028 123.715 80.3911C123.566 80.4796 123.448 80.6205 123.36 80.8139C123.274 81.0075 123.217 81.2506 123.188 81.5434C123.142 82.0568 123.187 82.4319 123.322 82.6689C123.46 82.9036 123.699 83.0362 124.039 83.0667ZM128.189 84.1422C127.992 84.1244 127.804 84.0788 127.625 84.0052C127.449 83.9292 127.294 83.8289 127.158 83.7043C127.023 83.5772 126.921 83.4268 126.85 83.2531C126.779 83.0795 126.754 82.8825 126.774 82.6621L127.022 79.9046L127.971 79.9901L127.733 82.6386C127.713 82.8564 127.766 83.0415 127.89 83.1939C128.018 83.3465 128.222 83.4354 128.502 83.4606C128.756 83.4835 128.965 83.4357 129.13 83.3173C129.295 83.1962 129.389 83.0099 129.412 82.7584L129.647 80.141L130.589 80.2257L130.226 84.2472L129.499 84.1817L129.465 83.3866C129.396 83.6026 129.293 83.7685 129.157 83.8843C129.024 83.9978 128.873 84.073 128.702 84.1099C128.534 84.1471 128.363 84.1578 128.189 84.1422ZM132.91 84.5201C132.591 84.4914 132.347 84.4276 132.178 84.3288C132.012 84.2276 131.903 84.0962 131.849 83.9345C131.796 83.7729 131.779 83.5845 131.798 83.3693L132.009 81.028L131.356 80.9691L131.416 80.3002L132.096 80.3615L132.441 79.1888L133.122 79.2501L133.015 80.4402L133.913 80.5211L133.853 81.1939L132.954 81.1131L132.75 83.4197C132.74 83.539 132.745 83.6283 132.765 83.6877C132.789 83.7447 132.83 83.785 132.888 83.8085C132.949 83.8296 133.03 83.8448 133.131 83.8539L133.629 83.8987L133.575 84.4976C133.518 84.5135 133.436 84.5244 133.329 84.5304C133.223 84.5392 133.084 84.5358 132.91 84.5201ZM134.459 84.6282L134.821 80.6068L135.727 80.6884L135.365 84.7098L134.459 84.6282ZM134.869 79.9014L134.95 79.0069L135.887 79.0913L135.806 79.9858L134.869 79.9014ZM138.13 85.0371C137.746 85.0026 137.419 84.8908 137.149 84.7018C136.878 84.5101 136.678 84.2529 136.548 83.9302C136.42 83.6076 136.375 83.2298 136.414 82.7968C136.452 82.3768 136.562 82.0155 136.743 81.7129C136.925 81.4104 137.165 81.1837 137.463 81.0328C137.764 80.8822 138.113 80.8247 138.51 80.8604C138.894 80.895 139.219 81.0092 139.487 81.2032C139.754 81.3972 139.95 81.6579 140.075 81.9854C140.202 82.3132 140.246 82.6974 140.206 83.1382C140.17 83.5453 140.064 83.8977 139.888 84.1956C139.715 84.491 139.479 84.7142 139.181 84.8651C138.885 85.0162 138.534 85.0735 138.13 85.0371ZM138.199 84.318C138.416 84.3376 138.601 84.294 138.751 84.1874C138.905 84.0809 139.026 83.9272 139.114 83.726C139.203 83.5249 139.259 83.2921 139.283 83.0277C139.305 82.7813 139.295 82.5517 139.251 82.3386C139.208 82.1256 139.12 81.9504 138.989 81.8132C138.86 81.6735 138.679 81.5932 138.446 81.5722C138.225 81.5523 138.037 81.5942 137.882 81.6978C137.729 81.7991 137.608 81.9502 137.519 82.1514C137.431 82.3499 137.375 82.584 137.35 82.8536C137.328 83.0974 137.339 83.327 137.382 83.5427C137.426 83.7557 137.513 83.9334 137.644 84.0759C137.775 84.2158 137.96 84.2965 138.199 84.318ZM140.893 85.2074L141.255 81.186L142.18 81.2693L142.129 81.8449C142.2 81.7468 142.293 81.6546 142.408 81.5682C142.526 81.4821 142.666 81.4163 142.83 81.3709C142.993 81.3255 143.182 81.3124 143.394 81.3315C143.643 81.3539 143.869 81.424 144.073 81.5416C144.279 81.6595 144.438 81.8293 144.549 82.051C144.662 82.2729 144.704 82.5498 144.674 82.8817L144.436 85.5264L143.487 85.441L143.715 82.9091C143.739 82.6446 143.684 82.4423 143.55 82.3022C143.416 82.1595 143.239 82.0782 143.019 82.0584C142.869 82.0448 142.724 82.0579 142.584 82.0976C142.445 82.1348 142.328 82.2013 142.233 82.2973C142.141 82.391 142.088 82.5143 142.074 82.6673L141.838 85.2925L140.893 85.2074Z" fill="white"/>
</g>
<defs>
<filter id="filter0_f_787_7990" x="-38.346" y="-182.972" width="463.212" height="463.213" filterUnits="userSpaceOnUse" color-interpolation-filters="sRGB">
<feFlood flood-opacity="0" result="BackgroundImageFix"/>
<feBlend mode="normal" in="SourceGraphic" in2="BackgroundImageFix" result="shape"/>
<feGaussianBlur stdDeviation="73.5109" result="effect1_foregroundBlur_787_7990"/>
</filter>
<filter id="filter1_d_787_7990" x="61.895" y="54.7598" width="143.648" height="150.164" filterUnits="userSpaceOnUse" color-interpolation-filters="sRGB">
<feFlood flood-opacity="0" result="BackgroundImageFix"/>
<feColorMatrix in="SourceAlpha" type="matrix" values="0 0 0 0 0 0 0 0 0 0 0 0 0 0 0 0 0 0 127 0" result="hardAlpha"/>
<feMorphology radius="1.67355" operator="dilate" in="SourceAlpha" result="effect1_dropShadow_787_7990"/>
<feOffset dx="2.78925" dy="2.78925"/>
<feGaussianBlur stdDeviation="3.82127"/>
<feComposite in2="hardAlpha" operator="out"/>
<feColorMatrix type="matrix" values="0 0 0 0 0 0 0 0 0 0 0 0 0 0 0 0 0 0 0.25 0"/>
<feBlend mode="normal" in2="BackgroundImageFix" result="effect1_dropShadow_787_7990"/>
<feBlend mode="normal" in="SourceGraphic" in2="effect1_dropShadow_787_7990" result="shape"/>
</filter>
<linearGradient id="paint0_linear_787_7990" x1="198.602" y1="133.218" x2="254.184" y2="-10.2844" gradientUnits="userSpaceOnUse">
<stop stop-color="#39D373"/>
<stop offset="1" stop-color="#005F24"/>
</linearGradient>
<clipPath id="clip0_787_7990">
<rect width="519" height="174" fill="white"/>
</clipPath>
<clipPath id="clip1_787_7990">
<rect x="178.336" y="44.5742" width="244.713" height="163.725" rx="11.157" transform="rotate(-2.88652 178.336 44.5742)" fill="white"/>
</clipPath>
<clipPath id="clip2_787_7990">
<rect width="16.9792" height="90.4144" fill="white" transform="translate(302.785 90.3662) rotate(-2.88652)"/>
</clipPath>
<clipPath id="clip3_787_7990">
<rect width="16.9792" height="54.3335" fill="white" transform="translate(389.391 122.126) rotate(-2.88652)"/>
</clipPath>
<clipPath id="clip4_787_7990">
<rect width="16.9792" height="71.3127" fill="white" transform="translate(221.504 113.591) rotate(-2.88652)"/>
</clipPath>
<clipPath id="clip5_787_7990">
<rect x="80.1758" y="61.2866" width="113.801" height="121.053" rx="11.157" transform="rotate(5.57276 80.1758 61.2866)" fill="white"/>
</clipPath>
</defs>
</svg>
