<svg width="144" height="150" viewBox="0 0 144 150" fill="none" xmlns="http://www.w3.org/2000/svg">
<g filter="url(#filter0_d_1619_2132)">
<g clip-path="url(#clip0_1619_2132)">
<rect x="17.9727" y="6.21973" width="113.801" height="121.053" rx="11.157" transform="rotate(5.57276 17.9727 6.21973)" fill="#444444"/>
<path d="M69.9069 41.561C65.614 41.1355 61.2802 41.4309 57.0847 42.4349L60.698 57.5344C63.2101 56.9332 65.8051 56.7564 68.3755 57.0112L69.9069 41.561Z" fill="#16A34A"/>
<path d="M57.0902 42.4336C48.1505 44.5715 40.2637 49.8219 34.8423 57.2446L47.38 66.402C50.6262 61.9575 55.3485 58.8137 60.7013 57.5336L57.0902 42.4336Z" fill="#39D373"/>
<path d="M34.9548 57.0913C31.9785 61.1245 29.8141 65.6976 28.582 70.5563L43.6315 74.3726C44.3693 71.4634 45.6652 68.7252 47.4473 66.3102L34.9548 57.0913Z" fill="#D97706"/>
<path d="M28.8792 69.4531C27.4557 74.4432 27.0505 79.6687 27.6876 84.8186C28.3247 89.9686 29.9912 94.9378 32.5878 99.4306C35.1845 103.923 38.6582 107.848 42.8025 110.971C46.9468 114.094 51.6768 116.352 56.7113 117.609L60.4744 102.546C57.46 101.793 54.6277 100.442 52.1463 98.5716C49.6648 96.7017 47.5849 94.3517 46.0301 91.6616C44.4753 88.9714 43.4775 85.9961 43.096 82.9124C42.7145 79.8288 42.9571 76.7 43.8095 73.712L28.8792 69.4531Z" fill="#155DFC"/>
<path d="M53.6515 116.709C59.739 118.776 66.2453 119.293 72.5828 118.215C78.9203 117.136 84.8892 114.495 89.9502 110.531L80.3768 98.3084C77.3464 100.682 73.7725 102.263 69.9778 102.909C66.1831 103.555 62.2873 103.245 58.6423 102.008L53.6515 116.709Z" fill="#155DFC"/>
<path d="M104.186 73.2842C102.707 64.9773 98.5534 57.3815 92.3577 51.6538C86.1621 45.9262 78.2641 42.3806 69.8668 41.5571L68.3515 57.0088C73.3795 57.5019 78.1086 59.6249 81.8184 63.0544C85.5282 66.4839 88.0153 71.032 88.901 76.0059L104.186 73.2842Z" fill="#16A34A"/>
<path d="M89.9485 110.533C95.5042 106.182 99.7643 100.395 102.268 93.7972C104.772 87.1998 105.424 80.0433 104.153 73.102L88.8813 75.8969C89.6419 80.0531 89.2515 84.3382 87.7523 88.2885C86.2532 92.2388 83.7024 95.704 80.3758 98.3092L89.9485 110.533Z" fill="#16A34A"/>
<path d="M60.0172 82.1731L60.106 81.2637L62.83 78.9759C63.9553 78.0411 64.28 77.6876 64.3366 77.1075L64.3381 77.0918C64.4059 76.3967 63.9793 75.8486 63.1954 75.7721C62.3957 75.6941 61.8059 76.1694 61.73 76.9481L61.7227 76.9685L60.4689 76.8409L60.4652 76.8247C60.6024 75.4189 61.7958 74.5434 63.3688 74.6969C64.8374 74.8402 65.8059 75.8369 65.682 77.1069L65.6805 77.1225C65.5968 77.9796 65.1177 78.6188 63.6142 79.8069L61.961 81.1229L61.9503 81.2326L65.363 81.5656L65.2539 82.684L60.0172 82.1731ZM69.4949 83.2877C67.7023 83.1128 66.7741 81.487 67.0117 79.0515L67.0128 79.0411C67.2504 76.6057 68.4749 75.1951 70.2675 75.37C72.0601 75.5449 72.9992 77.1666 72.7616 79.602L72.7606 79.6125C72.523 82.0479 71.2875 83.4626 69.4949 83.2877ZM69.6015 82.1955C70.5631 82.2893 71.2274 81.2672 71.4018 79.4799L71.4028 79.4694C71.5772 77.6821 71.122 76.5613 70.1604 76.4675C69.1988 76.3737 68.546 77.3863 68.3716 79.1737L68.3706 79.1841C68.1962 80.9715 68.6399 82.1016 69.6015 82.1955Z" fill="white"/>
<path d="M60.1626 92.026L60.4813 88.7596L59.2949 88.6438L59.3441 88.1395L62.2996 88.4279L62.2504 88.9322L61.0666 88.8167L60.7479 92.0831L60.1626 92.026ZM63.2694 92.3845C62.4359 92.3032 61.9806 91.6969 62.0698 90.7823L62.0704 90.7771C62.1593 89.8651 62.7261 89.3559 63.557 89.4369C64.3854 89.5178 64.8433 90.1243 64.754 91.0389L64.7535 91.0441C64.6643 91.9587 64.1004 92.4656 63.2694 92.3845ZM63.3156 91.9116C63.8016 91.959 64.1148 91.6149 64.176 90.9878L64.1765 90.9826C64.238 90.3528 63.9969 89.9573 63.5109 89.9099C63.0222 89.8622 62.7119 90.2039 62.6505 90.8337L62.65 90.8389C62.5885 91.4687 62.8269 91.8639 63.3156 91.9116ZM66.3617 92.6493C65.7372 92.5884 65.5025 92.3439 65.5558 91.7977L65.7162 90.1541L65.2719 90.1108L65.3155 89.6639L65.7598 89.7073L65.8296 88.9913L66.4071 89.0476L66.3373 89.7636L66.9461 89.823L66.9025 90.2699L66.2937 90.2104L66.1466 91.7182C66.1167 92.0239 66.2195 92.1606 66.4991 92.1879C66.5853 92.1963 66.6352 92.1985 66.7144 92.1983L66.6702 92.6504C66.5773 92.6572 66.4715 92.66 66.3617 92.6493ZM68.1045 92.8484C67.5635 92.7956 67.1959 92.4273 67.2461 91.9125L67.2466 91.9073C67.2961 91.4004 67.7064 91.1423 68.3873 91.1665L69.1599 91.1971L69.1843 90.9462C69.2147 90.6353 69.0355 90.4437 68.6514 90.4062C68.3378 90.3756 68.1202 90.4704 68.0326 90.665L68.029 90.6752L67.4828 90.6219L67.4872 90.6039C67.6005 90.1454 68.0777 89.878 68.7232 89.941C69.4365 90.0106 69.8043 90.4053 69.7462 91.001L69.5567 92.9426L68.9949 92.8878L69.0342 92.4853L68.9897 92.481C68.7945 92.7521 68.4808 92.8851 68.1045 92.8484ZM67.8128 91.9441C67.7873 92.2054 67.9944 92.3813 68.3001 92.4111C68.7235 92.4524 69.0614 92.2057 69.0971 91.8399L69.1209 91.5969L68.424 91.5737C68.0298 91.559 67.8383 91.6828 67.8133 91.9389L67.8128 91.9441ZM70.3825 93.0232L70.768 89.0721L71.335 89.1275L70.9495 93.0785L70.3825 93.0232Z" fill="white"/>
</g>
<rect x="18.099" y="6.37341" width="113.52" height="120.772" rx="11.0163" transform="rotate(5.57276 18.099 6.37341)" stroke="black" stroke-opacity="0.1" stroke-width="0.281366"/>
</g>
<path d="M27.5217 25.5341L28.028 19.9102L30.0232 20.0899C30.4277 20.1263 30.783 20.2288 31.0894 20.3976C31.3985 20.5639 31.633 20.7902 31.7928 21.0765C31.9526 21.3627 32.0148 21.7028 31.9793 22.097C31.9459 22.4677 31.833 22.7778 31.6407 23.0271C31.451 23.2766 31.2007 23.4579 30.8899 23.5711C30.5791 23.6843 30.2241 23.7229 29.8248 23.6869L28.6658 23.5826L28.4824 25.6205L27.5217 25.5341ZM28.7263 22.8235L29.8697 22.9264C30.199 22.9561 30.4763 22.8817 30.7014 22.7033C30.9292 22.5252 31.0573 22.2779 31.0858 21.9616C31.1147 21.6401 31.0282 21.3814 30.8263 21.1855C30.6246 20.987 30.3591 20.8729 30.0298 20.8432L28.9136 20.7428L28.7263 22.8235ZM34.7835 26.2662C34.265 26.2195 33.8267 26.0651 33.4687 25.8028C33.1133 25.5408 32.8512 25.1853 32.6825 24.7362C32.5165 24.2873 32.4605 23.7622 32.5146 23.1606C32.5693 22.5539 32.7198 22.0434 32.9662 21.6291C33.2126 21.2147 33.5355 20.9092 33.9348 20.7125C34.3367 20.5161 34.793 20.4409 35.3038 20.4869C35.8146 20.5328 36.2463 20.688 36.5989 20.9524C36.9541 21.217 37.2146 21.575 37.3804 22.0265C37.5463 22.4779 37.6019 23.007 37.5473 23.6137C37.4931 24.2152 37.3456 24.7221 37.1046 25.1343C36.8638 25.5439 36.5451 25.8472 36.1483 26.0441C35.7519 26.2384 35.2969 26.3124 34.7835 26.2662ZM34.855 25.4728C35.1609 25.5004 35.4305 25.4528 35.6637 25.33C35.8972 25.2046 36.0859 24.9955 36.2299 24.7027C36.3767 24.4075 36.4719 24.0174 36.5156 23.5326C36.5599 23.0399 36.5365 22.6327 36.4452 22.3108C36.3542 21.9863 36.2052 21.7403 35.9981 21.5727C35.791 21.405 35.5358 21.3076 35.2324 21.2803C34.9265 21.2527 34.6552 21.3041 34.4187 21.4344C34.185 21.5623 33.9931 21.7777 33.843 22.0805C33.6931 22.3806 33.5961 22.7757 33.552 23.2658C33.5084 23.7506 33.5337 24.1515 33.628 24.4684C33.7226 24.7828 33.8735 25.0225 34.0808 25.1875C34.291 25.3502 34.549 25.4453 34.855 25.4728ZM40.1845 26.674L40.6907 21.0502C40.7141 21.0523 40.7828 21.0585 40.8969 21.0688C41.011 21.0791 41.1458 21.0912 41.3014 21.1052C41.4595 21.1194 41.6189 21.1351 41.7794 21.1522C41.9427 21.1669 42.0839 21.1809 42.203 21.1942C42.8863 21.2688 43.4318 21.4368 43.8396 21.6983C44.2501 21.9575 44.5368 22.3009 44.6996 22.7285C44.8652 23.1538 44.922 23.6542 44.8702 24.2298C44.8161 24.8314 44.6624 25.3337 44.4091 25.737C44.1585 26.1405 43.8026 26.4352 43.3415 26.6211C42.8832 26.8046 42.3157 26.8659 41.639 26.805L40.1845 26.674ZM41.2155 25.9788L41.725 26.0247C42.1113 26.0594 42.4582 26.024 42.7657 25.9184C43.0734 25.8102 43.3238 25.6132 43.5168 25.3273C43.7124 25.0417 43.8328 24.6474 43.8781 24.1444C43.922 23.657 43.8793 23.2598 43.7502 22.9528C43.621 22.6458 43.417 22.4144 43.1383 22.2586C42.8598 22.1002 42.5183 22.0028 42.1138 21.9664L41.581 21.9184L41.2155 25.9788ZM45.5633 27.1583L45.9253 23.1368L46.8315 23.2184L46.4695 27.2399L45.5633 27.1583ZM45.9732 22.4315L46.0537 21.537L46.991 21.6213L46.9105 22.5159L45.9732 22.4315ZM49.0862 27.5538C48.8062 27.5286 48.5444 27.4606 48.3009 27.3498C48.0601 27.2367 47.8628 27.0765 47.709 26.8692C47.5577 26.6622 47.4737 26.405 47.4569 26.0976L48.2892 26.1726C48.3122 26.3236 48.3649 26.4499 48.4472 26.5514C48.5322 26.6532 48.6349 26.7317 48.7554 26.787C48.8787 26.8399 49.0078 26.8724 49.1426 26.8846C49.3837 26.9063 49.5819 26.8823 49.7372 26.8126C49.8924 26.743 49.9779 26.6213 49.9935 26.4475C50.005 26.3205 49.9726 26.2156 49.8964 26.133C49.8228 26.0506 49.6957 25.9816 49.5151 25.9261L48.7685 25.6825C48.4331 25.5765 48.1707 25.4274 47.9815 25.2353C47.7923 25.0431 47.7107 24.7887 47.7366 24.4722C47.7555 24.2334 47.8342 24.0262 47.9729 23.8505C48.1116 23.6747 48.3063 23.5446 48.557 23.46C48.8079 23.3728 49.1097 23.3451 49.4623 23.3768C49.9316 23.4191 50.2981 23.5579 50.5618 23.7934C50.8283 24.0265 50.9481 24.3366 50.9211 24.7236L50.116 24.6511C50.1032 24.4748 50.0336 24.3326 49.9074 24.2246C49.7815 24.1139 49.6109 24.0489 49.3957 24.0295C49.1727 24.0094 48.9861 24.0358 48.8358 24.1085C48.6854 24.1812 48.6024 24.3057 48.5865 24.482C48.5755 24.6039 48.62 24.7046 48.72 24.7842C48.8226 24.864 48.9819 24.9385 49.1979 25.0076L49.9055 25.2477C50.1083 25.3182 50.2718 25.4035 50.3961 25.5036C50.5204 25.6037 50.614 25.7101 50.6771 25.823C50.7429 25.9334 50.7851 26.0457 50.8036 26.1598C50.8249 26.2715 50.8313 26.374 50.8229 26.4673C50.7996 26.7266 50.7122 26.9422 50.5608 27.1142C50.4122 27.2838 50.2117 27.4069 49.9591 27.4834C49.7091 27.5603 49.4181 27.5837 49.0862 27.5538ZM53.1447 27.8722C52.8258 27.8435 52.5819 27.7797 52.4131 27.6808C52.2471 27.5796 52.1374 27.4482 52.0839 27.2866C52.0305 27.1249 52.0135 26.9365 52.0329 26.7213L52.2437 24.38L51.5903 24.3212L51.6505 23.6522L52.3311 23.7135L52.6759 22.5409L53.3565 22.6022L53.2493 23.7923L54.1477 23.8731L54.0872 24.546L53.1888 24.4651L52.985 26.7717C52.9743 26.891 52.9793 26.9803 53.0001 27.0397C53.0237 27.0967 53.0645 27.137 53.1225 27.1605C53.1834 27.1817 53.2643 27.1968 53.3654 27.2059L53.8633 27.2507L53.8093 27.8497C53.753 27.8655 53.671 27.8764 53.5633 27.8824C53.458 27.8912 53.3184 27.8878 53.1447 27.8722ZM54.6783 27.9789L55.0403 23.9574L55.9465 24.039L55.8681 24.9102C55.9509 24.7164 56.0582 24.5548 56.1901 24.4256C56.3248 24.2939 56.4772 24.1979 56.6473 24.1374C56.8174 24.0769 56.9984 24.0553 57.1903 24.0726C57.237 24.0768 57.2821 24.0834 57.3257 24.0926C57.3693 24.1017 57.4009 24.1137 57.4205 24.1286L57.3389 25.0348C57.3116 25.0192 57.2748 25.0068 57.2286 24.9974C57.185 24.9882 57.1463 24.9821 57.1126 24.9791C56.9195 24.946 56.7464 24.9383 56.5932 24.9559C56.4426 24.9737 56.3121 25.0155 56.2016 25.0814C56.094 25.1448 56.0091 25.2313 55.9469 25.3407C55.8851 25.4475 55.8473 25.5761 55.8338 25.7265L55.6234 28.0639L54.6783 27.9789ZM57.8234 28.262L58.1855 24.2406L59.0917 24.3221L58.7296 28.3436L57.8234 28.262ZM58.2333 23.5352L58.3138 22.6407L59.2511 22.7251L59.1706 23.6196L58.2333 23.5352ZM61.9678 28.7135C61.7526 28.6942 61.571 28.6491 61.4232 28.5782C61.2754 28.5074 61.1537 28.422 61.0581 28.3219C60.9652 28.222 60.8922 28.1175 60.8394 28.0081C60.7893 27.8965 60.753 27.7913 60.7305 27.6925L60.5474 28.5072L59.8512 28.4446L60.3715 22.6652L61.3205 22.7506L61.1094 25.0958C61.1579 25.0218 61.2219 24.9491 61.3015 24.8779C61.3837 24.8069 61.4809 24.7437 61.593 24.6885C61.7052 24.6332 61.8304 24.5922 61.9687 24.5655C62.1099 24.5364 62.2634 24.5293 62.4294 24.5442C62.9298 24.5893 63.3092 24.8025 63.5676 25.1838C63.826 25.5652 63.9251 26.0903 63.8649 26.7593C63.8268 27.1819 63.7288 27.5455 63.5706 27.8502C63.4151 28.1551 63.2024 28.3842 62.9324 28.5377C62.6653 28.6888 62.3437 28.7474 61.9678 28.7135ZM61.836 27.9998C62.1186 28.0253 62.3608 27.9334 62.5626 27.7242C62.7644 27.5149 62.8881 27.1575 62.9336 26.6519C62.9733 26.2111 62.9177 25.8703 62.7669 25.6293C62.6163 25.3857 62.3854 25.2499 62.0743 25.2219C61.8513 25.2018 61.664 25.2359 61.5123 25.3242C61.3631 25.4127 61.2446 25.5537 61.1566 25.747C61.0712 25.9406 61.0141 26.1837 60.9851 26.4765C60.9389 26.9899 60.9835 27.3651 61.119 27.602C61.2573 27.8367 61.4963 27.9693 61.836 27.9998ZM65.9862 29.0753C65.7891 29.0575 65.6011 29.0119 65.4222 28.9383C65.246 28.8623 65.0904 28.762 64.9552 28.6375C64.8203 28.5103 64.7175 28.3599 64.6469 28.1863C64.5763 28.0126 64.5509 27.8156 64.5707 27.5952L64.819 24.8378L65.7679 24.9232L65.5295 27.5717C65.5099 27.7895 65.5625 27.9746 65.6873 28.127C65.8147 28.2796 66.0184 28.3685 66.2985 28.3937C66.5525 28.4166 66.762 28.3688 66.9269 28.2504C67.092 28.1293 67.1859 27.943 67.2085 27.6915L67.4442 25.0741L68.3854 25.1588L68.0233 29.1803L67.2961 29.1148L67.2618 28.3197C67.1927 28.5357 67.0902 28.7016 66.9543 28.8174C66.8212 28.9309 66.6694 29.0061 66.4988 29.043C66.3308 29.0802 66.1599 29.0909 65.9862 29.0753ZM70.707 29.4532C70.388 29.4245 70.1442 29.3607 69.9753 29.2619C69.8093 29.1607 69.6996 29.0293 69.6462 28.8676C69.5928 28.706 69.5758 28.5176 69.5951 28.3024L69.8059 25.9611L69.1525 25.9023L69.2127 25.2333L69.8934 25.2946L70.2381 24.122L70.9187 24.1832L70.8116 25.3733L71.71 25.4542L71.6494 26.127L70.751 26.0462L70.5473 28.3528C70.5365 28.4721 70.5415 28.5614 70.5623 28.6208C70.586 28.6778 70.6268 28.7181 70.6848 28.7416C70.7456 28.7627 70.8266 28.7779 70.9277 28.787L71.4255 28.8318L71.3716 29.4307C71.3153 29.4466 71.2333 29.4575 71.1256 29.4635C71.0202 29.4723 70.8807 29.4689 70.707 29.4532ZM72.2561 29.5613L72.6181 25.5399L73.5243 25.6215L73.1623 29.6429L72.2561 29.5613ZM72.6659 24.8345L72.7465 23.94L73.6838 24.0244L73.6032 24.9189L72.6659 24.8345ZM75.9268 29.9702C75.5431 29.9357 75.216 29.8239 74.9455 29.6349C74.6752 29.4432 74.4749 29.186 74.3445 28.8633C74.2167 28.5407 74.1723 28.1629 74.2113 27.7299C74.2491 27.3099 74.3587 26.9486 74.5402 26.6461C74.7216 26.3435 74.9616 26.1168 75.2601 25.9659C75.5612 25.8153 75.9101 25.7578 76.3068 25.7935C76.6905 25.8281 77.0161 25.9424 77.2835 26.1363C77.551 26.3303 77.7471 26.591 77.8718 26.9185C77.9991 27.2463 78.0429 27.6305 78.0033 28.0713C77.9666 28.4784 77.8604 28.8308 77.6846 29.1287C77.5116 29.4241 77.2759 29.6473 76.9774 29.7982C76.6815 29.9493 76.3313 30.0066 75.9268 29.9702ZM75.9955 29.2511C76.2133 29.2707 76.3976 29.2271 76.5483 29.1205C76.7016 29.014 76.8227 28.8603 76.9113 28.6591C77 28.458 77.0563 28.2252 77.0801 27.9608C77.1022 27.7144 77.0916 27.4848 77.048 27.2717C77.0044 27.0587 76.917 26.8836 76.7856 26.7463C76.657 26.6066 76.476 26.5263 76.2427 26.5053C76.0223 26.4854 75.8342 26.5273 75.6785 26.6309C75.5257 26.7322 75.4049 26.8833 75.3162 27.0845C75.2278 27.283 75.1714 27.5171 75.1471 27.7867C75.1252 28.0305 75.1359 28.2601 75.1792 28.4758C75.2227 28.6888 75.31 28.8665 75.4409 29.009C75.5721 29.1489 75.7569 29.2296 75.9955 29.2511ZM78.6896 30.1405L79.0517 26.1191L79.9773 26.2024L79.9255 26.778C79.9971 26.6799 80.0903 26.5877 80.2052 26.5013C80.3228 26.4152 80.4633 26.3494 80.6268 26.304C80.7904 26.2586 80.9784 26.2455 81.1911 26.2646C81.44 26.287 81.6663 26.3571 81.87 26.4747C82.0764 26.5926 82.2349 26.7624 82.3456 26.9841C82.459 27.206 82.5007 27.4829 82.4708 27.8148L82.2327 30.4595L81.2837 30.3741L81.5117 27.8422C81.5355 27.5777 81.4805 27.3754 81.3468 27.2353C81.2132 27.0926 81.0363 27.0113 80.8159 26.9915C80.6655 26.9779 80.5206 26.991 80.3811 27.0307C80.2418 27.0679 80.1247 27.1344 80.0298 27.2304C79.9377 27.3241 79.8848 27.4474 79.8711 27.6004L79.6347 30.2256L78.6896 30.1405Z" fill="white"/>
<defs>
<filter id="filter0_d_1619_2132" x="-0.308086" y="-0.307109" width="143.648" height="150.164" filterUnits="userSpaceOnUse" color-interpolation-filters="sRGB">
<feFlood flood-opacity="0" result="BackgroundImageFix"/>
<feColorMatrix in="SourceAlpha" type="matrix" values="0 0 0 0 0 0 0 0 0 0 0 0 0 0 0 0 0 0 127 0" result="hardAlpha"/>
<feMorphology radius="1.67355" operator="dilate" in="SourceAlpha" result="effect1_dropShadow_1619_2132"/>
<feOffset dx="2.78925" dy="2.78925"/>
<feGaussianBlur stdDeviation="3.82127"/>
<feComposite in2="hardAlpha" operator="out"/>
<feColorMatrix type="matrix" values="0 0 0 0 0 0 0 0 0 0 0 0 0 0 0 0 0 0 0.25 0"/>
<feBlend mode="normal" in2="BackgroundImageFix" result="effect1_dropShadow_1619_2132"/>
<feBlend mode="normal" in="SourceGraphic" in2="effect1_dropShadow_1619_2132" result="shape"/>
</filter>
<clipPath id="clip0_1619_2132">
<rect x="17.9727" y="6.21973" width="113.801" height="121.053" rx="11.157" transform="rotate(5.57276 17.9727 6.21973)" fill="white"/>
</clipPath>
</defs>
</svg>
