<svg width="253" height="176" viewBox="0 0 253 176" fill="none" xmlns="http://www.w3.org/2000/svg">
<g clip-path="url(#clip0_1619_2171)">
<rect y="12.3232" width="244.713" height="163.725" rx="11.157" transform="rotate(-2.88652 0 12.3232)" fill="#444444"/>
<path d="M10.4385 53.6551L10.423 53.3471L11.5691 51.9744C11.7131 51.8011 11.8254 51.6585 11.9061 51.5465C11.9867 51.4329 12.0422 51.3313 12.0726 51.2418C12.1029 51.1522 12.1154 51.0553 12.1102 50.951L12.1099 50.946C12.1036 50.8202 12.0706 50.7089 12.0109 50.6123C11.9513 50.5157 11.8695 50.441 11.7655 50.3881C11.6616 50.3352 11.5392 50.3124 11.3985 50.3194C11.2561 50.3266 11.1325 50.3627 11.0279 50.4278C10.9232 50.4912 10.8437 50.5774 10.7894 50.6864C10.7351 50.7937 10.7114 50.9177 10.7185 51.0585L10.7163 51.0636L10.2889 51.0827L10.2838 51.0804C10.2748 50.8684 10.3166 50.6778 10.4094 50.5088C10.5021 50.3381 10.6347 50.2019 10.8072 50.1002C10.9796 49.9969 11.1801 49.9395 11.4086 49.928C11.6173 49.9174 11.8075 49.9518 11.9791 50.0312C12.1507 50.1089 12.2884 50.2206 12.392 50.3665C12.4973 50.5122 12.5549 50.682 12.5646 50.8758L12.5649 50.8807C12.5717 51.0165 12.5543 51.1486 12.5126 51.2768C12.4726 51.405 12.3969 51.5491 12.2854 51.7092C12.1738 51.8675 12.0152 52.064 11.8096 52.2985L10.9312 53.3015L11.0326 53.0897L11.043 53.2959L10.93 53.2269L12.7383 53.1357L12.7586 53.5381L10.4385 53.6551ZM14.7129 53.5243C14.4479 53.5376 14.2172 53.4729 14.0207 53.3301C13.8259 53.1871 13.6709 52.9783 13.5558 52.7035C13.4406 52.4271 13.3733 52.0968 13.3539 51.7126L13.3537 51.7076C13.3343 51.3234 13.3681 50.9888 13.455 50.7039C13.5419 50.4189 13.6751 50.1955 13.8545 50.0337C14.0356 49.8719 14.2586 49.7842 14.5236 49.7709C14.7886 49.7575 15.0193 49.8223 15.2158 49.9651C15.4122 50.1079 15.568 50.3167 15.6831 50.5915C15.7999 50.8662 15.868 51.1957 15.8874 51.5798L15.8876 51.5848C15.907 51.969 15.8725 52.3045 15.784 52.5912C15.6971 52.8761 15.5631 53.0995 15.382 53.2614C15.2009 53.4233 14.9778 53.5109 14.7129 53.5243ZM14.6932 53.1343C14.8654 53.1256 15.0089 53.0578 15.1237 52.9308C15.2402 52.8037 15.3251 52.6276 15.3785 52.4024C15.4335 52.1772 15.4534 51.9122 15.438 51.6075L15.4378 51.6025C15.4224 51.2978 15.3761 51.037 15.2987 50.8201C15.2229 50.6014 15.1208 50.4356 14.9922 50.3225C14.8652 50.2077 14.7156 50.1547 14.5434 50.1634C14.3728 50.172 14.2293 50.2398 14.1129 50.3669C13.998 50.4922 13.9138 50.6674 13.8605 50.8926C13.807 51.1161 13.7879 51.3802 13.8033 51.6849L13.8035 51.6899C13.8189 51.9946 13.8645 52.2563 13.9402 52.4749C14.016 52.6936 14.1174 52.8603 14.2444 52.9751C14.373 53.0898 14.5226 53.1429 14.6932 53.1343ZM19.6486 53.2754C19.3241 53.2918 19.0395 53.2297 18.795 53.0893C18.5505 52.9489 18.3566 52.742 18.2134 52.4687C18.0717 52.1952 17.9912 51.8664 17.9719 51.4822L17.9716 51.4772C17.9522 51.0914 17.9991 50.7553 18.1125 50.469C18.2276 50.1826 18.3989 49.9573 18.6263 49.7931C18.8555 49.6288 19.1323 49.5385 19.4569 49.5221C19.7086 49.5095 19.9396 49.5476 20.15 49.6366C20.3619 49.7239 20.5394 49.8519 20.6824 50.0207C20.8253 50.1878 20.9199 50.3847 20.9662 50.6115L20.964 50.6166L20.5143 50.6393L20.5116 50.6344C20.4641 50.4824 20.3904 50.3533 20.2904 50.2471C20.1903 50.1393 20.0708 50.0582 19.9319 50.0037C19.7947 49.9492 19.6433 49.9261 19.4777 49.9345C19.2492 49.946 19.0534 50.0157 18.8905 50.1434C18.7293 50.2711 18.6086 50.4465 18.5286 50.6697C18.4485 50.8929 18.416 51.1543 18.4312 51.4541L18.4314 51.459C18.4464 51.7571 18.505 52.0132 18.6071 52.2272C18.7092 52.4412 18.8469 52.6036 19.0202 52.7144C19.1951 52.8251 19.3977 52.8747 19.6278 52.863C19.7951 52.8546 19.9453 52.8205 20.0784 52.7606C20.2114 52.6991 20.3218 52.6164 20.4096 52.5123C20.4972 52.4066 20.5558 52.2842 20.5853 52.1449L20.59 52.1396L21.0421 52.1169L21.0423 52.1218C21.0136 52.3424 20.9371 52.5372 20.8128 52.7062C20.6884 52.8735 20.5266 53.007 20.3275 53.1067C20.1299 53.2063 19.9037 53.2625 19.6486 53.2754ZM21.8427 53.0801L21.662 49.4956L23.0307 49.4266C23.2609 49.415 23.4635 49.4496 23.6386 49.5304C23.8153 49.6095 23.9548 49.7262 24.0572 49.8804C24.1596 50.0346 24.2162 50.2194 24.2271 50.4347L24.2274 50.4396C24.2399 50.688 24.187 50.9065 24.0686 51.0951C23.9503 51.2837 23.7803 51.4193 23.5587 51.5018L24.4634 52.948L23.9393 52.9744L23.1002 51.5947C23.0969 51.5949 23.0927 51.5951 23.0878 51.5953C23.0828 51.5956 23.0787 51.5958 23.0753 51.596L22.2184 51.6392L22.2899 53.0575L21.8427 53.0801ZM22.1983 51.2417L23.0801 51.1973C23.3103 51.1856 23.4846 51.1179 23.6028 50.9941C23.7227 50.8685 23.7771 50.6964 23.7661 50.4778L23.7658 50.4729C23.7551 50.2592 23.6812 50.0953 23.5443 49.981C23.4074 49.8667 23.223 49.8154 22.9911 49.8271L22.1292 49.8705L22.1983 51.2417Z" fill="white"/>
<path d="M13.4617 80.8426L13.306 77.755L13.2663 77.757L12.388 78.4637L12.3642 77.9917L13.2835 77.2581L13.7281 77.2356L13.9089 80.8201L13.4617 80.8426ZM16.1264 80.793C15.9045 80.8041 15.7044 80.7702 15.5261 80.6912C15.3478 80.6122 15.2018 80.5001 15.0882 80.3547C14.9762 80.2076 14.9063 80.0393 14.8785 79.8498L14.8746 79.8226L15.3044 79.8009L15.3078 79.8207C15.3285 79.9342 15.3752 80.0364 15.4478 80.1274C15.5221 80.2166 15.616 80.2858 15.7297 80.3348C15.8451 80.3838 15.9723 80.4048 16.1114 80.3977C16.2704 80.3897 16.4086 80.3479 16.526 80.2723C16.6433 80.1949 16.7327 80.0925 16.7944 79.9649C16.856 79.8372 16.8828 79.6931 16.8747 79.5325L16.8744 79.5275C16.8664 79.3685 16.8245 79.2295 16.7488 79.1105C16.6747 78.9897 16.5762 78.8975 16.4535 78.834C16.3307 78.7705 16.1915 78.7426 16.0359 78.7505C15.9166 78.7565 15.8074 78.7802 15.7082 78.8218C15.6107 78.8632 15.5249 78.9223 15.4507 78.9991C15.4207 79.0305 15.3926 79.0643 15.3662 79.1005C15.3414 79.1366 15.3185 79.1768 15.2975 79.221L14.91 79.2405L14.995 77.1718L16.9897 77.0712L17.0098 77.4711L15.3679 77.5539L15.3073 78.7723L15.347 78.7702C15.3959 78.6864 15.4579 78.6152 15.533 78.5567C15.6081 78.4981 15.6929 78.4523 15.7876 78.4193C15.8838 78.3846 15.9857 78.3645 16.0933 78.3591C16.3185 78.3477 16.5207 78.3898 16.6999 78.4854C16.8789 78.5793 17.0227 78.714 17.1311 78.8895C17.2395 79.0633 17.2996 79.2662 17.3112 79.498L17.3115 79.503C17.3236 79.7431 17.2805 79.9586 17.1822 80.1495C17.0855 80.3387 16.9462 80.4901 16.7643 80.6039C16.5825 80.7177 16.3698 80.7807 16.1264 80.793ZM21.0249 80.546C20.7003 80.5623 20.4158 80.5003 20.1713 80.3599C19.9268 80.2195 19.7329 80.0126 19.5896 79.7392C19.448 79.4658 19.3675 79.137 19.3481 78.7528L19.3479 78.7478C19.3284 78.362 19.3754 78.0259 19.4888 77.7396C19.6039 77.4532 19.7751 77.2279 20.0026 77.0637C20.2317 76.8994 20.5086 76.8091 20.8332 76.7927C21.0849 76.78 21.3159 76.8182 21.5263 76.9072C21.7382 76.9945 21.9157 77.1225 22.0587 77.2913C22.2016 77.4584 22.2962 77.6553 22.3425 77.8821L22.3402 77.8872L21.8906 77.9099L21.8879 77.905C21.8404 77.753 21.7666 77.6239 21.6666 77.5177C21.5666 77.4099 21.4471 77.3287 21.3082 77.2743C21.171 77.2198 21.0196 77.1967 20.854 77.2051C20.6254 77.2166 20.4297 77.2862 20.2668 77.414C20.1056 77.5416 19.9849 77.7171 19.9048 77.9403C19.8248 78.1634 19.7923 78.4249 19.8074 78.7246L19.8077 78.7296C19.8227 79.0277 19.8813 79.2837 19.9834 79.4977C20.0855 79.7118 20.2232 79.8742 20.3964 79.985C20.5714 80.0957 20.7739 80.1452 21.0041 80.1336C21.1714 80.1252 21.3216 80.091 21.4547 80.0312C21.5877 79.9697 21.6981 79.8869 21.7858 79.7829C21.8735 79.6772 21.932 79.5547 21.9615 79.4154L21.9663 79.4102L22.4184 79.3874L22.4186 79.3924C22.3899 79.613 22.3134 79.8078 22.1891 79.9767C22.0647 80.1441 21.9029 80.2776 21.7037 80.3773C21.5062 80.4769 21.2799 80.5331 21.0249 80.546ZM23.219 80.3507L23.0383 76.7662L24.407 76.6972C24.6372 76.6856 24.8398 76.7202 25.0149 76.801C25.1915 76.8801 25.3311 76.9968 25.4335 77.151C25.5359 77.3052 25.5925 77.4899 25.6034 77.7052L25.6036 77.7102C25.6161 77.9586 25.5632 78.1771 25.4449 78.3657C25.3266 78.5543 25.1566 78.6899 24.935 78.7724L25.8397 80.2185L25.3155 80.245L24.4765 78.8653C24.4731 78.8654 24.469 78.8656 24.464 78.8659C24.4591 78.8661 24.4549 78.8664 24.4516 78.8665L23.5946 78.9097L23.6661 80.3281L23.219 80.3507ZM23.5746 78.5123L24.4564 78.4678C24.6866 78.4562 24.8608 78.3885 24.9791 78.2647C25.099 78.1391 25.1534 77.967 25.1423 77.7484L25.1421 77.7434C25.1313 77.5298 25.0575 77.3658 24.9206 77.2515C24.7836 77.1373 24.5992 77.086 24.3674 77.0976L23.5054 77.1411L23.5746 78.5123Z" fill="white"/>
<path d="M14.7771 108.116L14.6214 105.029L14.5817 105.031L13.7034 105.737L13.6796 105.265L14.5989 104.532L15.0435 104.509L15.2242 108.094L14.7771 108.116ZM17.4641 108.065C17.1992 108.079 16.9684 108.014 16.772 107.871C16.5772 107.728 16.4222 107.519 16.3071 107.245C16.1919 106.968 16.1246 106.638 16.1052 106.254L16.1049 106.249C16.0856 105.864 16.1193 105.53 16.2062 105.245C16.2931 104.96 16.4263 104.737 16.6058 104.575C16.7869 104.413 17.0099 104.325 17.2749 104.312C17.5398 104.299 17.7706 104.363 17.967 104.506C18.1635 104.649 18.3193 104.858 18.4344 105.133C18.5512 105.407 18.6193 105.737 18.6387 106.121L18.6389 106.126C18.6583 106.51 18.6237 106.846 18.5352 107.132C18.4483 107.417 18.3143 107.641 18.1332 107.802C17.9521 107.964 17.7291 108.052 17.4641 108.065ZM17.4445 107.675C17.6167 107.667 17.7602 107.599 17.875 107.472C17.9914 107.345 18.0764 107.169 18.1298 106.944C18.1848 106.718 18.2047 106.453 18.1893 106.149L18.189 106.144C18.1737 105.839 18.1273 105.578 18.05 105.361C17.9742 105.143 17.872 104.977 17.7435 104.864C17.6165 104.749 17.4669 104.696 17.2947 104.704C17.1241 104.713 16.9806 104.781 16.8641 104.908C16.7493 105.033 16.6651 105.209 16.6117 105.434C16.5582 105.657 16.5392 105.921 16.5545 106.226L16.5548 106.231C16.5702 106.536 16.6157 106.797 16.6915 107.016C16.7673 107.235 16.8687 107.401 16.9956 107.516C17.1243 107.631 17.2739 107.684 17.4445 107.675ZM22.3999 107.816C22.0753 107.833 21.7908 107.771 21.5463 107.63C21.3018 107.49 21.1079 107.283 20.9646 107.01C20.823 106.736 20.7425 106.407 20.7231 106.023L20.7229 106.018C20.7034 105.632 20.7504 105.296 20.8638 105.01C20.9789 104.724 21.1501 104.498 21.3776 104.334C21.6067 104.17 21.8836 104.08 22.2082 104.063C22.4599 104.051 22.6909 104.089 22.9013 104.178C23.1132 104.265 23.2907 104.393 23.4337 104.562C23.5766 104.729 23.6712 104.926 23.7175 105.153L23.7152 105.158L23.2656 105.18L23.2629 105.176C23.2154 105.024 23.1416 104.894 23.0416 104.788C22.9416 104.68 22.8221 104.599 22.6832 104.545C22.546 104.49 22.3946 104.467 22.229 104.476C22.0004 104.487 21.8047 104.557 21.6418 104.684C21.4806 104.812 21.3599 104.988 21.2798 105.211C21.1998 105.434 21.1673 105.695 21.1824 105.995L21.1827 106C21.1977 106.298 21.2563 106.554 21.3584 106.768C21.4605 106.982 21.5982 107.145 21.7714 107.255C21.9464 107.366 22.1489 107.416 22.3791 107.404C22.5464 107.396 22.6966 107.362 22.8297 107.302C22.9627 107.24 23.0731 107.157 23.1608 107.053C23.2485 106.948 23.307 106.825 23.3365 106.686L23.3413 106.681L23.7934 106.658L23.7936 106.663C23.7649 106.883 23.6884 107.078 23.5641 107.247C23.4397 107.415 23.2779 107.548 23.0787 107.648C22.8812 107.747 22.6549 107.804 22.3999 107.816ZM24.594 107.621L24.4133 104.037L25.782 103.968C26.0122 103.956 26.2148 103.991 26.3899 104.072C26.5665 104.151 26.7061 104.267 26.8085 104.421C26.9109 104.576 26.9675 104.76 26.9784 104.976L26.9786 104.981C26.9911 105.229 26.9382 105.448 26.8199 105.636C26.7016 105.825 26.5316 105.96 26.31 106.043L27.2147 107.489L26.6905 107.515L25.8515 106.136C25.8481 106.136 25.844 106.136 25.839 106.136C25.8341 106.137 25.8299 106.137 25.8266 106.137L24.9696 106.18L25.0411 107.599L24.594 107.621ZM24.9496 105.783L25.8314 105.738C26.0616 105.727 26.2358 105.659 26.3541 105.535C26.474 105.41 26.5284 105.237 26.5173 105.019L26.5171 105.014C26.5063 104.8 26.4325 104.636 26.2956 104.522C26.1586 104.408 25.9742 104.356 25.7424 104.368L24.8804 104.412L24.9496 105.783Z" fill="white"/>
<path d="M27.2695 134.911C27.0476 134.922 26.8475 134.888 26.6692 134.809C26.4909 134.73 26.3449 134.618 26.2313 134.473C26.1193 134.325 26.0494 134.157 26.0216 133.968L26.0177 133.94L26.4475 133.919L26.4509 133.938C26.4716 134.052 26.5183 134.154 26.5909 134.245C26.6652 134.334 26.7591 134.404 26.8728 134.453C26.9882 134.502 27.1154 134.523 27.2545 134.516C27.4135 134.508 27.5517 134.466 27.6691 134.39C27.7864 134.313 27.8758 134.21 27.9375 134.083C27.9991 133.955 28.0259 133.811 28.0178 133.65L28.0175 133.645C28.0095 133.486 27.9676 133.347 27.8919 133.228C27.8178 133.108 27.7193 133.015 27.5966 132.952C27.4738 132.888 27.3346 132.86 27.1789 132.868C27.0597 132.874 26.9505 132.898 26.8513 132.94C26.7538 132.981 26.668 133.04 26.5938 133.117C26.5638 133.148 26.5357 133.182 26.5093 133.218C26.4845 133.254 26.4616 133.295 26.4406 133.339L26.0531 133.358L26.1381 131.29L28.1328 131.189L28.1529 131.589L26.511 131.672L26.4504 132.89L26.4901 132.888C26.539 132.804 26.601 132.733 26.6761 132.674C26.7512 132.616 26.836 132.57 26.9306 132.537C27.0269 132.502 27.1288 132.482 27.2364 132.477C27.4616 132.466 27.6638 132.508 27.843 132.603C28.022 132.697 28.1658 132.832 28.2742 133.007C28.3826 133.181 28.4427 133.384 28.4543 133.616L28.4546 133.621C28.4667 133.861 28.4236 134.076 28.3253 134.267C28.2286 134.457 28.0893 134.608 27.9074 134.722C27.7256 134.835 27.5129 134.899 27.2695 134.911Z" fill="white"/>
<path d="M28.6072 162.184C28.3423 162.197 28.1115 162.132 27.9151 161.989C27.7203 161.847 27.5653 161.638 27.4502 161.363C27.335 161.086 27.2677 160.756 27.2483 160.372L27.248 160.367C27.2287 159.983 27.2624 159.648 27.3493 159.363C27.4362 159.078 27.5694 158.855 27.7489 158.693C27.93 158.531 28.153 158.444 28.418 158.43C28.6829 158.417 28.9137 158.482 29.1101 158.625C29.3066 158.767 29.4624 158.976 29.5775 159.251C29.6943 159.526 29.7624 159.855 29.7818 160.239L29.782 160.244C29.8014 160.628 29.7668 160.964 29.6783 161.251C29.5914 161.536 29.4574 161.759 29.2763 161.921C29.0952 162.083 28.8722 162.17 28.6072 162.184ZM28.5876 161.794C28.7598 161.785 28.9033 161.717 29.0181 161.59C29.1345 161.463 29.2195 161.287 29.2729 161.062C29.3279 160.837 29.3478 160.572 29.3324 160.267L29.3321 160.262C29.3168 159.957 29.2704 159.696 29.1931 159.479C29.1173 159.261 29.0151 159.095 28.8866 158.982C28.7596 158.867 28.61 158.814 28.4378 158.823C28.2672 158.831 28.1237 158.899 28.0072 159.026C27.8924 159.152 27.8082 159.327 27.7548 159.552C27.7013 159.776 27.6823 160.04 27.6976 160.344L27.6979 160.349C27.7133 160.654 27.7588 160.916 27.8346 161.134C27.9104 161.353 28.0118 161.52 28.1387 161.635C28.2674 161.749 28.417 161.802 28.5876 161.794Z" fill="white"/>
<path d="M31.7188 51.415L237.649 41.0317" stroke="white" stroke-width="0.294951" stroke-dasharray="1.47 1.47"/>
<path d="M33.0742 78.269L239.004 67.8857" stroke="white" stroke-width="0.294951" stroke-dasharray="1.47 1.47"/>
<path d="M34.4297 105.123L240.36 94.7397" stroke="white" stroke-width="0.294951" stroke-dasharray="1.47 1.47"/>
<path d="M35.7812 131.977L241.711 121.594" stroke="white" stroke-width="0.294951" stroke-dasharray="1.47 1.47"/>
<path d="M37.1367 158.831L243.067 148.448" stroke="white" stroke-width="0.294951" stroke-dasharray="1.47 1.47"/>
<g clip-path="url(#clip1_1619_2171)">
<path d="M125.172 72.4312L142.13 71.5761L141.579 60.6517C141.484 58.7786 139.889 57.3368 138.016 57.4312L127.842 57.9442C125.968 58.0387 124.527 59.6337 124.621 61.5068L125.172 72.4312Z" fill="#16A34A"/>
<rect width="16.9792" height="16.8204" transform="matrix(0.998731 -0.0503579 -0.0503579 -0.998731 126.02 89.23)" fill="#DC2626"/>
<rect x="126.02" y="89.23" width="16.9792" height="46.0753" transform="rotate(-2.88652 126.02 89.23)" fill="#155DFC"/>
<rect x="128.34" y="135.247" width="16.9792" height="13.1846" transform="rotate(-2.88652 128.34 135.247)" fill="#D97706"/>
</g>
<g clip-path="url(#clip2_1619_2171)">
<path d="M211.777 104.191L228.735 103.336L228.184 92.4115C228.09 90.5384 226.495 89.0965 224.622 89.191L214.447 89.704C212.574 89.7984 211.132 91.3935 211.227 93.2665L211.777 104.191Z" fill="#16A34A"/>
<rect width="16.9792" height="16.8204" transform="matrix(0.998731 -0.0503579 -0.0503579 -0.998731 212.625 120.99)" fill="#DC2626"/>
<rect x="212.625" y="120.99" width="16.9792" height="9.9944" transform="rotate(-2.88652 212.625 120.99)" fill="#155DFC"/>
<rect x="213.125" y="130.972" width="16.9792" height="13.1846" transform="rotate(-2.88652 213.125 130.972)" fill="#D97706"/>
</g>
<g clip-path="url(#clip3_1619_2171)">
<path d="M43.8906 95.6558L60.8483 94.8007L60.2975 83.8763C60.203 82.0033 58.608 80.5614 56.7349 80.6558L46.5603 81.1688C44.6872 81.2633 43.2454 82.8583 43.3398 84.7314L43.8906 95.6558Z" fill="#16A34A"/>
<path d="M44.7383 112.455L61.696 111.6L60.8489 94.8005L43.8912 95.6556L44.7383 112.455Z" fill="#DC2626"/>
<rect width="16.9792" height="16.8204" transform="matrix(0.998731 -0.0503579 -0.0503579 -0.998731 45.582 129.254)" fill="#155DFC"/>
<rect x="45.582" y="129.254" width="16.9792" height="23.3379" transform="rotate(-2.88652 45.582 129.254)" fill="#D97706"/>
</g>
</g>
<rect x="0.222659" y="12.5245" width="244.289" height="163.3" rx="10.9447" transform="rotate(-2.88652 0.222659 12.5245)" stroke="black" stroke-opacity="0.1" stroke-width="0.42448"/>
<path d="M13.727 30.9829C13.4462 30.9988 13.1753 30.9802 12.9142 30.9272C12.6529 30.8716 12.4119 30.7823 12.1911 30.6592C11.9727 30.5334 11.789 30.373 11.6397 30.178C11.4904 29.9805 11.3923 29.7462 11.3457 29.475L12.3282 29.4194C12.3805 29.6068 12.4714 29.762 12.6009 29.885C12.7331 30.0079 12.8959 30.0978 13.0895 30.1546C13.283 30.2115 13.4968 30.2333 13.7307 30.22C13.9386 30.2082 14.1305 30.1661 14.3063 30.0935C14.4821 30.021 14.6224 29.9205 14.7273 29.792C14.832 29.6609 14.8792 29.5044 14.8689 29.3225C14.8572 29.1171 14.7754 28.9614 14.6234 28.8553C14.4738 28.7464 14.2633 28.6658 13.9917 28.6134L12.8736 28.4146C12.584 28.3658 12.3291 28.2851 12.1089 28.1724C11.8913 28.0596 11.7183 27.9051 11.5899 27.709C11.4613 27.5103 11.3886 27.2628 11.3718 26.9665C11.3527 26.6286 11.4284 26.331 11.599 26.0736C11.7721 25.8161 12.0148 25.612 12.327 25.4613C12.639 25.3081 12.9952 25.2201 13.3954 25.1975C13.8529 25.1715 14.2432 25.2264 14.5664 25.3619C14.8894 25.4948 15.14 25.684 15.3182 25.9295C15.4963 26.1749 15.5953 26.4496 15.6152 26.7536L14.6561 26.8079C14.6225 26.5829 14.5461 26.4086 14.427 26.285C14.3077 26.1588 14.1606 26.0706 13.9857 26.0206C13.8108 25.9705 13.6193 25.9514 13.4114 25.9631C13.0423 25.984 12.7726 26.0788 12.6023 26.2475C12.4319 26.4162 12.3527 26.6072 12.3648 26.8203C12.3762 27.0204 12.4514 27.1752 12.5906 27.2847C12.7298 27.3941 12.9376 27.4736 13.2142 27.5231L14.2769 27.7094C14.6319 27.7623 14.9202 27.8581 15.1419 27.9968C15.3636 28.1354 15.5284 28.306 15.6363 28.5085C15.7467 28.7082 15.809 28.9329 15.8231 29.1824C15.8416 29.5099 15.7645 29.805 15.5916 30.0677C15.4214 30.3303 15.1765 30.5423 14.8571 30.7038C14.5377 30.8653 14.161 30.9583 13.727 30.9829ZM18.0019 30.7408C17.7446 30.7554 17.5107 30.7217 17.3 30.6398C17.0918 30.5551 16.9243 30.4277 16.7973 30.2576C16.6728 30.0847 16.6033 29.8709 16.5889 29.6162C16.5637 29.1717 16.7046 28.8274 17.0115 28.5832C17.321 28.3388 17.8263 28.1915 18.5275 28.1414L19.1309 28.0916L19.1154 27.8187C19.1034 27.6056 19.0303 27.4428 18.8961 27.3305C18.7645 27.2154 18.5661 27.1666 18.3012 27.1842C18.1038 27.198 17.9271 27.255 17.7711 27.3551C17.615 27.4526 17.5169 27.608 17.4768 27.8215L16.6698 27.8672C16.6698 27.5908 16.736 27.3563 16.8685 27.1637C17.0035 26.9683 17.1944 26.818 17.4414 26.7127C17.6882 26.6049 17.9767 26.5416 18.3068 26.5229C18.6914 26.5012 19.0075 26.5341 19.255 26.6218C19.5024 26.7095 19.6888 26.8462 19.814 27.0321C19.9391 27.2153 20.0093 27.4421 20.0246 27.7124L20.1847 30.539L19.3855 30.5843L19.2664 29.8635C19.1407 30.1757 18.9694 30.3966 18.7525 30.5262C18.538 30.6531 18.2878 30.7246 18.0019 30.7408ZM18.2735 30.0801C18.3905 30.0735 18.505 30.0461 18.617 29.9981C18.7288 29.9474 18.8282 29.8831 18.915 29.8052C19.0043 29.7245 19.0737 29.6371 19.1231 29.5431C19.1752 29.4489 19.1997 29.3523 19.1967 29.2534L19.1607 28.6179L18.666 28.6538C18.4218 28.6702 18.2089 28.7083 18.0271 28.7682C17.848 28.8278 17.7108 28.9151 17.6156 29.03C17.5203 29.1423 17.4777 29.2882 17.4879 29.4675C17.4995 29.6728 17.5801 29.8299 17.7297 29.9388C17.8791 30.0451 18.0604 30.0922 18.2735 30.0801ZM22.3601 30.4745C22.1002 30.4892 21.8904 30.4685 21.7308 30.4123C21.5712 30.3562 21.4493 30.2757 21.3651 30.171C21.281 30.0662 21.2234 29.947 21.1923 29.8131C21.1612 29.6767 21.1415 29.537 21.1334 29.3941L20.8669 24.6883L21.7948 24.6358L22.0551 29.2323C22.065 29.4065 22.1077 29.5397 22.1833 29.6318C22.2616 29.7239 22.3817 29.7732 22.5437 29.7796L22.7469 29.7759L22.7807 30.3724C22.7117 30.3972 22.6412 30.4195 22.5693 30.4392C22.4974 30.4589 22.4277 30.4707 22.3601 30.4745ZM25.2427 30.3308C24.8554 30.3527 24.509 30.2902 24.2034 30.1433C23.9003 29.9935 23.6569 29.77 23.4732 29.4728C23.292 29.1753 23.1895 28.8148 23.1655 28.3911C23.1421 27.9779 23.1954 27.6072 23.3255 27.2791C23.458 26.9483 23.6607 26.6826 23.9335 26.482C24.209 26.2813 24.5481 26.1695 24.951 26.1467C25.3487 26.1242 25.6874 26.1897 25.9673 26.3434C26.2472 26.497 26.4659 26.7219 26.6235 27.0181C26.7809 27.3116 26.8711 27.6611 26.8941 28.0666L26.9104 28.3551L24.1228 28.5129C24.1332 28.7418 24.181 28.9425 24.2664 29.1149C24.3518 29.2874 24.4714 29.4201 24.6253 29.5131C24.7791 29.6035 24.9651 29.6425 25.1834 29.6301C25.407 29.6175 25.5978 29.5571 25.756 29.4491C25.9166 29.3383 26.0183 29.1787 26.0613 28.9703L26.9268 28.9213C26.8959 29.2046 26.7976 29.4488 26.6319 29.6537C26.4688 29.8585 26.2641 30.0187 26.0177 30.1344C25.7739 30.2499 25.5156 30.3154 25.2427 30.3308ZM24.0856 27.9245L25.9804 27.8172C25.9693 27.6222 25.9243 27.4488 25.8453 27.2968C25.7687 27.1421 25.659 27.0231 25.5161 26.94C25.373 26.8542 25.1963 26.8173 24.9857 26.8292C24.7778 26.841 24.6052 26.9016 24.468 27.011C24.3308 27.1205 24.2304 27.2579 24.1667 27.4231C24.1029 27.5858 24.0759 27.7529 24.0856 27.9245ZM29.4518 30.0925C29.1711 30.1084 28.9022 30.0793 28.6451 30.0052C28.3904 29.9283 28.1719 29.7986 27.9894 29.616C27.8096 29.4332 27.689 29.191 27.6276 28.8894L28.4619 28.8422C28.5067 28.9883 28.5772 29.1055 28.6734 29.1939C28.7723 29.2822 28.8854 29.3449 29.0126 29.382C29.1424 29.4164 29.2748 29.4298 29.4099 29.4221C29.6517 29.4084 29.8442 29.3558 29.9877 29.2642C30.1311 29.1727 30.1979 29.0398 30.188 28.8657C30.1808 28.7383 30.1335 28.6393 30.0461 28.5686C29.9612 28.4978 29.8254 28.4482 29.6387 28.4196L28.8646 28.2874C28.5173 28.2315 28.236 28.1223 28.0208 27.9598C27.8056 27.7972 27.6877 27.5575 27.6672 27.2406C27.651 27.0016 27.6987 26.7851 27.8103 26.591C27.9219 26.397 28.0955 26.2398 28.3312 26.1196C28.5667 25.9967 28.8612 25.9253 29.2147 25.9053C29.6851 25.8786 30.068 25.9625 30.3632 26.157C30.6609 26.3488 30.8246 26.6381 30.8543 27.0249L30.0473 27.0706C30.0088 26.8981 29.9193 26.7675 29.7787 26.679C29.638 26.5879 29.4597 26.5485 29.244 26.5607C29.0205 26.5733 28.8397 26.6266 28.7016 26.7205C28.5635 26.8143 28.4994 26.9496 28.5094 27.1264C28.5164 27.2485 28.5751 27.3417 28.6856 27.4058C28.7988 27.4698 28.9672 27.5203 29.1909 27.5571L29.926 27.6915C30.1369 27.7317 30.3111 27.7923 30.4487 27.8731C30.5862 27.954 30.6944 28.0456 30.7732 28.1481C30.8545 28.2478 30.9126 28.3527 30.9475 28.4628C30.9848 28.5702 31.0062 28.6707 31.0115 28.7643C31.0262 29.0242 30.9712 29.2503 30.8465 29.4424C30.7242 29.6319 30.5438 29.7829 30.305 29.8955C30.0689 30.008 29.7845 30.0736 29.4518 30.0925ZM35.3408 29.7121C35.0211 29.7302 34.7706 29.7026 34.5891 29.6295C34.4101 29.5536 34.2824 29.4395 34.206 29.2874C34.1296 29.1353 34.0853 28.9514 34.0731 28.7356L33.9402 26.3886L33.2852 26.4257L33.2472 25.7551L33.9295 25.7165L34.0995 24.5061L34.7818 24.4675L34.8494 25.6605L35.75 25.6095L35.7881 26.284L34.8875 26.335L35.0224 28.6467C35.0291 28.7662 35.0471 28.8539 35.0764 28.9096C35.108 28.9626 35.1543 28.9964 35.2151 29.0112C35.2784 29.0233 35.3607 29.0265 35.462 29.0207L35.9611 28.9925L35.9951 29.5929C35.9417 29.6168 35.8621 29.6395 35.7564 29.6611C35.6535 29.6852 35.515 29.7022 35.3408 29.7121ZM36.8736 29.594L36.5455 23.8005L37.4812 23.7475L37.6141 26.0945C37.6733 25.9895 37.7536 25.8872 37.8548 25.7876C37.956 25.6854 38.0815 25.6 38.2315 25.5316C38.3839 25.4604 38.568 25.4186 38.7837 25.4064C39.041 25.3919 39.279 25.4279 39.4977 25.5146C39.7165 25.6013 39.8948 25.7346 40.0328 25.9146C40.1706 26.0919 40.2468 26.3092 40.2613 26.5665L40.4214 29.3931L39.4701 29.4469L39.3191 26.7802C39.3073 26.5723 39.2241 26.4153 39.0695 26.3094C38.9175 26.2033 38.7297 26.1565 38.5062 26.1692C38.358 26.1776 38.2178 26.2116 38.0856 26.2712C37.9534 26.3309 37.8487 26.415 37.7714 26.5237C37.6965 26.6296 37.6635 26.7593 37.6721 26.9126L37.8209 29.5403L36.8736 29.594ZM41.4503 29.3348L41.2221 25.3036L42.1305 25.2521L42.3587 29.2834L41.4503 29.3348ZM41.1665 24.5988L41.1157 23.7021L42.0553 23.6489L42.1061 24.5456L41.1665 24.5988ZM44.9933 29.2124C44.7126 29.2283 44.4437 29.1992 44.1866 29.1251C43.9319 29.0483 43.7133 28.9185 43.5309 28.7359C43.3511 28.5531 43.2305 28.311 43.1691 28.0094L44.0034 27.9621C44.0481 28.1082 44.1187 28.2255 44.2149 28.3139C44.3138 28.4022 44.4269 28.4648 44.5541 28.502C44.6838 28.5363 44.8163 28.5497 44.9514 28.542C45.1932 28.5284 45.3857 28.4757 45.5292 28.3842C45.6726 28.2926 45.7394 28.1598 45.7295 27.9856C45.7223 27.8583 45.675 27.7593 45.5876 27.6886C45.5027 27.6178 45.3669 27.5681 45.1802 27.5396L44.4061 27.4074C44.0587 27.3514 43.7775 27.2422 43.5623 27.0797C43.3471 26.9172 43.2292 26.6775 43.2087 26.3605C43.1925 26.1215 43.2402 25.905 43.3518 25.711C43.4634 25.5169 43.637 25.3598 43.8727 25.2395C44.1082 25.1167 44.4027 25.0452 44.7562 25.0252C45.2266 24.9986 45.6095 25.0825 45.9047 25.277C46.2024 25.4687 46.3661 25.758 46.3958 26.1448L45.5888 26.1905C45.5503 26.018 45.4608 25.8875 45.3202 25.799C45.1795 25.7079 45.0012 25.6684 44.7855 25.6806C44.562 25.6933 44.3812 25.7465 44.2431 25.8404C44.105 25.9343 44.0409 26.0696 44.0509 26.2463C44.0578 26.3685 44.1166 26.4616 44.2271 26.5258C44.3402 26.5898 44.5087 26.6402 44.7324 26.6771L45.4675 26.8115C45.6784 26.8517 45.8526 26.9122 45.9901 26.9931C46.1277 27.0739 46.2359 27.1656 46.3147 27.268C46.396 27.3677 46.4541 27.4726 46.489 27.5828C46.5263 27.6902 46.5477 27.7907 46.553 27.8842C46.5677 28.1441 46.5127 28.3702 46.388 28.5624C46.2657 28.7518 46.0853 28.9029 45.8465 29.0155C45.6104 29.1279 45.326 29.1936 44.9933 29.2124ZM49.2626 28.8924L49.0343 24.8612L49.9583 24.8088L49.991 25.3859C50.0979 25.2025 50.2478 25.0402 50.4406 24.8989C50.6359 24.7574 50.8896 24.6779 51.2015 24.6602C51.3444 24.6521 51.4901 24.6687 51.6384 24.7098C51.7894 24.7508 51.9299 24.8158 52.0602 24.9049C52.193 24.9939 52.3011 25.1077 52.3846 25.2464C52.5012 25.0495 52.6613 24.8839 52.8649 24.7499C53.0711 24.6156 53.3068 24.541 53.5719 24.526C53.7174 24.5178 53.8682 24.5327 54.0242 24.5708C54.1828 24.6087 54.3302 24.6786 54.4663 24.7804C54.6025 24.8822 54.7162 25.0257 54.8075 25.2109C54.8987 25.3935 54.9523 25.6264 54.9683 25.9097L55.1184 28.5608L54.1711 28.6145L54.0273 26.0764C54.016 25.8763 53.972 25.721 53.8954 25.6106C53.8187 25.5003 53.7232 25.4248 53.6088 25.3844C53.4968 25.3412 53.3784 25.3231 53.2537 25.3302C53.1419 25.3365 53.0262 25.3652 52.9066 25.4163C52.7895 25.4673 52.6909 25.5459 52.6109 25.6521C52.5335 25.7582 52.4996 25.897 52.5093 26.0685L52.6584 28.7001L51.711 28.7538L51.5586 26.0637C51.5507 25.9233 51.5077 25.8084 51.4296 25.719C51.3515 25.6295 51.2553 25.5646 51.1409 25.5241C51.0289 25.4809 50.9158 25.4626 50.8014 25.469C50.6844 25.4757 50.5663 25.5071 50.4469 25.5634C50.3302 25.6196 50.2344 25.7006 50.1595 25.8065C50.0847 25.9125 50.0518 26.046 50.061 26.2072L50.21 28.8388L49.2626 28.8924ZM57.8351 28.4852C57.4504 28.507 57.1105 28.4441 56.8153 28.2966C56.52 28.1464 56.2843 27.9212 56.1082 27.6209C55.9348 27.3204 55.8357 26.9531 55.8112 26.5191C55.7873 26.098 55.8431 25.7246 55.9785 25.3988C56.1139 25.073 56.3182 24.8138 56.5915 24.621C56.8674 24.428 57.2042 24.3203 57.6019 24.2978C57.9865 24.276 58.3253 24.3416 58.6182 24.4945C58.9111 24.6474 59.1431 24.8767 59.3142 25.1825C59.488 25.4882 59.5874 25.862 59.6124 26.3038C59.6355 26.7119 59.5818 27.0761 59.4513 27.3963C59.3233 27.7139 59.1226 27.969 58.8493 28.1618C58.5786 28.3545 58.2405 28.4623 57.8351 28.4852ZM57.7981 27.7637C58.0165 27.7514 58.1924 27.6814 58.326 27.5539C58.4622 27.4263 58.5595 27.2565 58.6179 27.0446C58.6763 26.8327 58.698 26.5942 58.683 26.3291C58.669 26.0822 58.6249 25.8565 58.5507 25.6521C58.4766 25.4477 58.3645 25.2872 58.2145 25.1705C58.0669 25.0511 57.8762 24.998 57.6423 25.0113C57.4213 25.0238 57.2414 25.0926 57.1025 25.2178C56.966 25.3403 56.8686 25.5075 56.8102 25.7194C56.7516 25.9287 56.73 26.1685 56.7453 26.4388C56.7591 26.6831 56.8032 26.9088 56.8775 27.1158C56.9517 27.3202 57.0639 27.4833 57.2142 27.6052C57.3644 27.7244 57.559 27.7773 57.7981 27.7637ZM60.5932 28.2508L60.3649 24.2196L61.2928 24.167L61.3255 24.744C61.382 24.6365 61.4608 24.5317 61.5619 24.4295C61.6656 24.3271 61.7951 24.2416 61.9502 24.1728C62.1054 24.1041 62.2895 24.0636 62.5026 24.0516C62.7522 24.0374 62.9863 24.0737 63.205 24.1604C63.4263 24.247 63.6079 24.3918 63.7498 24.595C63.8943 24.798 63.9759 25.0659 63.9948 25.3986L64.1449 28.0497L63.1936 28.1036L63.0499 25.5655C63.0349 25.3004 62.951 25.1083 62.7982 24.9892C62.6453 24.8675 62.4584 24.8129 62.2375 24.8254C62.0867 24.8339 61.9453 24.868 61.813 24.9276C61.6807 24.9847 61.5746 25.0676 61.4947 25.1764C61.4172 25.2825 61.3829 25.4122 61.3916 25.5655L61.5406 28.1972L60.5932 28.2508ZM66.6218 27.9407C66.3021 27.9588 66.0515 27.9313 65.8701 27.8581C65.6911 27.7822 65.5634 27.6682 65.487 27.5161C65.4106 27.364 65.3662 27.18 65.354 26.9643L65.2211 24.6173L64.5661 24.6544L64.5282 23.9838L65.2104 23.9452L65.3805 22.7348L66.0628 22.6962L66.1303 23.8892L67.0309 23.8382L67.0691 24.5127L66.1685 24.5637L66.3033 26.8754C66.3101 26.9949 66.3281 27.0826 66.3573 27.1383C66.389 27.1912 66.4353 27.2251 66.4961 27.2399C66.5593 27.252 66.6416 27.2551 66.743 27.2494L67.242 27.2211L67.276 27.8215C67.2226 27.8454 67.1431 27.8682 67.0374 27.8898C66.9345 27.9139 66.7959 27.9309 66.6218 27.9407ZM68.1545 27.8226L67.8265 22.0292L68.7622 21.9762L68.8951 24.3232C68.9543 24.2182 69.0345 24.1158 69.1358 24.0162C69.2369 23.914 69.3625 23.8287 69.5124 23.7602C69.6649 23.689 69.8489 23.6473 70.0647 23.6351C70.322 23.6205 70.56 23.6566 70.7787 23.7433C70.9974 23.83 71.1758 23.9633 71.3137 24.1432C71.4515 24.3206 71.5277 24.5379 71.5423 24.7952L71.7023 27.6217L70.7511 27.6756L70.6001 25.0089C70.5883 24.801 70.5051 24.644 70.3505 24.5381C70.1984 24.4319 70.0107 24.3852 69.7871 24.3979C69.639 24.4062 69.4988 24.4403 69.3666 24.4999C69.2344 24.5595 69.1296 24.6437 69.0523 24.7524C68.9775 24.8583 68.9444 24.9879 68.9531 25.1413L69.1019 27.769L68.1545 27.8226Z" fill="white"/>
<defs>
<clipPath id="clip0_1619_2171">
<rect y="12.3232" width="244.713" height="163.725" rx="11.157" transform="rotate(-2.88652 0 12.3232)" fill="white"/>
</clipPath>
<clipPath id="clip1_1619_2171">
<rect width="16.9792" height="90.4144" fill="white" transform="translate(124.449 58.1152) rotate(-2.88652)"/>
</clipPath>
<clipPath id="clip2_1619_2171">
<rect width="16.9792" height="54.3335" fill="white" transform="translate(211.055 89.875) rotate(-2.88652)"/>
</clipPath>
<clipPath id="clip3_1619_2171">
<rect width="16.9792" height="71.3127" fill="white" transform="translate(43.168 81.3398) rotate(-2.88652)"/>
</clipPath>
</defs>
</svg>
